<svg width="28" height="24" viewBox="0 0 28 24" fill="none" xmlns="http://www.w3.org/2000/svg">
<g clip-path="url(#clip0_784_3)">
<path d="M23.727 3.23535L21.8364 7.17013C21.6857 7.4839 21.81 7.73828 22.1143 7.73828L25.8856 7.73828C26.1898 7.73828 26.3142 7.4839 26.1635 7.17013L24.273 3.23535C24.1221 2.92155 23.8777 2.92155 23.727 3.23535Z" fill="black"/>
<path d="M21.8364 15.4549L23.727 19.3896C23.8777 19.7035 24.1223 19.7035 24.273 19.3896L26.1636 15.4549C26.3143 15.1411 26.19 14.8867 25.8857 14.8867L22.1143 14.8867C21.81 14.8869 21.6857 15.1411 21.8364 15.4549Z" fill="black"/>
</g>
<path d="M14.4638 6.9789H1.48832C1.20928 6.9789 1 6.69666 1 6.22626C1 5.75587 1.20928 5.47363 1.55808 5.47363H14.4638C14.7428 5.47363 15.0219 5.75587 15.0219 6.22626C15.0219 6.69666 14.7428 6.9789 14.4638 6.9789Z" fill="black"/>
<path d="M14.4638 11.9579H1.48832C1.20928 11.9579 1 11.6757 1 11.2053C1 10.7349 1.20928 10.4526 1.55808 10.4526H14.4638C14.7428 10.4526 15.0219 10.7349 15.0219 11.2053C15.0219 11.6757 14.7428 11.9579 14.4638 11.9579Z" fill="black"/>
<path d="M14.4638 16.9369H1.48832C1.20928 16.9369 1 16.6547 1 16.1843C1 15.7139 1.20928 15.4316 1.55808 15.4316H14.4638C14.7428 15.4316 15.0219 15.7139 15.0219 16.1843C15.0219 16.6547 14.7428 16.9369 14.4638 16.9369Z" fill="black"/>
<defs>
<clipPath id="clip0_784_3">
<rect width="21" height="10" fill="white" transform="translate(18 22) rotate(-90)"/>
</clipPath>
</defs>
</svg>
