<svg width="19" height="19" viewBox="0 0 19 19" fill="none" xmlns="http://www.w3.org/2000/svg">
<g id="telephone (3) 1" clip-path="url(#clip0_2650_2935)">
<g id="Group">
<g id="Group_2">
<path id="Vector" d="M14.4449 12.5685C13.8241 11.9556 13.0492 11.9556 12.4324 12.5685C11.9619 13.035 11.4914 13.5015 11.0288 13.976C10.9023 14.1065 10.7956 14.1341 10.6414 14.0472C10.3369 13.8811 10.0127 13.7467 9.72015 13.5648C8.35612 12.7068 7.2135 11.6038 6.20134 10.3623C5.69922 9.74551 5.25245 9.08523 4.94011 8.34194C4.87685 8.19169 4.88871 8.09285 5.01127 7.97029C5.48177 7.51561 5.9404 7.04907 6.40298 6.58253C7.04744 5.93412 7.04744 5.175 6.39903 4.52264C6.03133 4.15099 5.66364 3.78725 5.29594 3.4156C4.91638 3.03604 4.54078 2.65253 4.15727 2.27693C3.53653 1.67201 2.76161 1.67201 2.14482 2.28088C1.67038 2.74742 1.2157 3.22582 0.733347 3.68445C0.286576 4.1075 0.061214 4.62544 0.0137693 5.23036C-0.0613514 6.21483 0.179826 7.14396 0.519846 8.04936C1.2157 9.92342 2.2753 11.5879 3.56026 13.1141C5.29594 15.1779 7.36769 16.8108 9.79132 17.989C10.8825 18.5188 12.0133 18.926 13.2429 18.9933C14.089 19.0407 14.8244 18.8272 15.4135 18.1669C15.8168 17.7162 16.2715 17.305 16.6985 16.8741C17.3311 16.2336 17.335 15.4586 16.7064 14.826C15.9552 14.0709 15.2 13.3197 14.4449 12.5685Z" fill="#145DA1"/>
<path id="Vector_2" d="M13.6921 9.41736L15.151 9.16827C14.9217 7.82796 14.2891 6.61417 13.3283 5.64946C12.3122 4.63335 11.0273 3.99285 9.61184 3.79517L9.40625 5.262C10.5014 5.41619 11.4978 5.91041 12.2846 6.6972C13.0279 7.4405 13.5142 8.38148 13.6921 9.41736Z" fill="#145DA1"/>
<path id="Vector_3" d="M15.9671 3.07551C14.2829 1.39122 12.1518 0.327671 9.79934 -0.000488281L9.59375 1.46634C11.626 1.75101 13.4684 2.67223 14.9234 4.12324C16.3032 5.50309 17.2086 7.24668 17.5368 9.16424L18.9957 8.91515C18.6122 6.69316 17.5645 4.67676 15.9671 3.07551Z" fill="#145DA1"/>
</g>
</g>
</g>
<defs>
<clipPath id="clip0_2650_2935">
<rect width="19" height="19" fill="white"/>
</clipPath>
</defs>
</svg>
