<svg id="Layer_1" height="512" viewBox="0 0 32 32" width="512" xmlns="http://www.w3.org/2000/svg" data-name="Layer 1"><path d="m0 5.505h32v20.99h-32z" fill="#d80027"/><g fill="#ffda44"><path d="m8.712 9.889-2.608.003-.007.004.004-.007-.797-2.583-.708 2.586-2.584-.003 2.146 1.517h.013l-.025.018-.873 2.571 2.085-1.614.004-.012.004.012 2.083 1.614-.873-2.571-.023-.018h.008z"/><path d="m13.152 14.038h-.534l-.163-.527-.145.527h-.526l.438.311h.003l-.005.004-.179.525.425-.329.001-.003.001.003.426.329-.18-.525-.005-.004h.003z"/><path d="m10.202 16.774-.015-.554-.282.464-.505-.155.338.426.001.001-.005.001-.312.452.496-.19.002-.003v.003l.318.44-.029-.556-.001-.002.505-.171z"/><path d="m12.278 11.316.528-.026.003-.002-.001.004.178.521.13-.541-.002-.005.002.001.53-.001-.444-.309h-.002l.002-.002.145-.533-.401.354-.437-.307.199.513h-.003z"/><path d="m11.737 8.126.004.001.505-.163-.509-.161-.002.001.002-.003-.009-.554-.286.462-.504-.162.333.429.004.001-.008.003-.315.446.497-.185.002-.003v.003l.314.447-.024-.557z"/></g></svg>