<svg width="21" height="21" viewBox="0 0 21 21" fill="none" xmlns="http://www.w3.org/2000/svg">
<g id="transport (1) 1" clip-path="url(#clip0_279_1766)">
<g id="Group">
<path id="Vector" d="M2.74297 7.01272V6.14801C2.74297 5.58137 3.19144 5.11755 3.75205 5.09276L4.24304 3.63735C4.39843 3.17649 4.82965 2.86686 5.31597 2.86686H15.1546C15.641 2.86686 16.0722 3.17649 16.2276 3.63739L16.7186 5.09276C17.2792 5.11755 17.7277 5.58138 17.7277 6.14801V7.01272L18.2516 7.32006C18.3359 7.36948 18.4111 7.42973 18.4779 7.49738V0.73305C18.4779 0.341205 18.1603 0.0235596 17.7684 0.0235596H2.70223C2.31039 0.0235596 1.99274 0.341205 1.99274 0.73305V7.49738C2.05952 7.42972 2.13478 7.36949 2.21901 7.32007L2.74297 7.01272Z" fill="#DB2A1F"/>
<path id="Vector_2" d="M17.7277 12.7901V17.331H18.4779V12.3054C18.4111 12.3731 18.3358 12.4334 18.2515 12.4828L17.7277 12.7901Z" fill="#DB2A1F"/>
<path id="Vector_3" d="M2.21908 12.4828C2.13483 12.4333 2.05953 12.3731 1.99274 12.3054V17.3309H2.74297V12.7901L2.21908 12.4828Z" fill="#DB2A1F"/>
<path id="Vector_4" d="M5.78552 19.1697H14.685V19.6238H5.78552V19.1697Z" fill="#DB2A1F"/>
<path id="Vector_5" d="M3.25116 20.2445C3.25116 20.3693 3.35239 20.4706 3.47726 20.4706H5.16356C5.28843 20.4706 5.38966 20.3693 5.38966 20.2445V19.1697H3.25116V20.2445Z" fill="#DB2A1F"/>
<path id="Vector_6" d="M15.0809 20.2445C15.0809 20.3693 15.1821 20.4706 15.307 20.4706H16.9933C17.1182 20.4706 17.2194 20.3693 17.2194 20.2445V19.1697H15.0809L15.0809 20.2445Z" fill="#DB2A1F"/>
<path id="Vector_7" d="M17.4401 17.6741V12.6255L18.1061 12.2349C18.3446 12.0949 18.4952 11.8412 18.5082 11.5664C18.8096 11.5484 19.0818 11.4557 19.0818 11.288V8.51495C19.0818 8.34727 18.8096 8.25462 18.5082 8.2366C18.4952 7.96179 18.3447 7.70807 18.1061 7.56808L17.4401 7.17746V6.14805C17.4401 5.72349 17.0959 5.37929 16.6713 5.37929H16.5118L15.9551 3.72928C15.8393 3.38576 15.5172 3.15442 15.1546 3.15442H5.31593C4.95339 3.15442 4.63128 3.38575 4.51544 3.72928L3.95884 5.37929H3.79926C3.37463 5.37929 3.03046 5.72349 3.03046 6.14805V7.17745L2.3645 7.56809C2.12591 7.70808 1.97533 7.9618 1.96241 8.23661C1.661 8.25461 1.38879 8.34727 1.38879 8.51495V11.288C1.38879 11.4557 1.661 11.5484 1.96241 11.5664C1.97532 11.8412 2.12599 12.0949 2.36449 12.2349L3.03045 12.6255V17.6741C2.89591 17.6928 2.79194 17.8071 2.79194 17.9467V18.1252V18.6058C2.79194 18.7585 2.91569 18.8823 3.06835 18.8823H17.4022C17.5549 18.8823 17.6786 18.7585 17.6786 18.6058V18.1252V17.9467C17.6786 17.8071 17.5747 17.6928 17.4401 17.6741ZM14.0323 15.5733V15.3844H16.6227V15.5733H14.0323ZM16.6229 14.6992C16.6229 14.7853 16.5531 14.8552 16.4669 14.8552H14.1784C14.0922 14.8552 14.0223 14.7853 14.0223 14.6992V13.9451C14.0223 13.859 14.0922 13.7891 14.1784 13.7891H16.4669C16.5531 13.7891 16.6229 13.859 16.6229 13.9451V14.6992ZM11.7888 17.3326C11.7888 17.4225 11.7159 17.4954 11.626 17.4954H8.84456C8.75465 17.4954 8.68177 17.4225 8.68177 17.3326V16.7871C8.68177 16.6972 8.75465 16.6243 8.84456 16.6243H11.626C11.7159 16.6243 11.7888 16.6972 11.7888 16.7871L11.7888 17.3326ZM3.85759 15.5733V15.3844H6.44799V15.5733H3.85759ZM6.44823 14.6992C6.44823 14.7853 6.37838 14.8552 6.29222 14.8552H4.00367C3.9175 14.8552 3.84765 14.7853 3.84765 14.6992V13.9451C3.84765 13.859 3.9175 13.7891 4.00367 13.7891H6.29222C6.37838 13.7891 6.44822 13.859 6.44822 13.9451L6.44823 14.6992ZM17.9814 7.78068C18.1454 7.87687 18.2498 8.04995 18.2619 8.23833C17.9714 8.26019 17.7153 8.35229 17.7153 8.51495V11.288C17.7153 11.4507 17.9715 11.5428 18.2619 11.5646C18.2497 11.753 18.1454 11.9261 17.9814 12.0223L17.4401 12.3398V7.46318L17.9814 7.78068ZM16.6996 6.54374C16.6996 6.71232 16.5629 6.84898 16.3944 6.84898C16.2258 6.84898 16.0891 6.71232 16.0891 6.54374C16.0891 6.37515 16.2258 6.2385 16.3944 6.2385C16.5629 6.2385 16.6996 6.37516 16.6996 6.54374ZM4.74096 5.1939H15.7296V5.34312H4.74096V5.1939ZM15.6686 6.54374C15.6686 6.71232 15.5319 6.84898 15.3633 6.84898C15.1947 6.84898 15.0581 6.71232 15.0581 6.54374C15.0581 6.37515 15.1947 6.2385 15.3633 6.2385C15.5319 6.2385 15.6686 6.37516 15.6686 6.54374ZM5.41249 6.54374C5.41249 6.71232 5.27583 6.84898 5.10725 6.84898C4.93868 6.84898 4.80201 6.71232 4.80201 6.54374C4.80201 6.37515 4.93867 6.2385 5.10725 6.2385C5.27583 6.2385 5.41249 6.37516 5.41249 6.54374ZM16.425 7.74887C16.7296 7.74887 16.9716 7.95559 16.9542 8.20101L16.7466 11.1261C16.7305 11.3524 16.4984 11.5293 16.2175 11.5293H4.25311C3.97216 11.5293 3.74003 11.3524 3.72397 11.1261L3.5164 8.20101C3.49899 7.95559 3.74092 7.74887 4.04555 7.74887H16.425ZM3.77097 6.54374C3.77097 6.37515 3.90764 6.2385 4.07621 6.2385C4.24479 6.2385 4.38145 6.37516 4.38145 6.54374C4.38145 6.71231 4.2448 6.84898 4.07621 6.84898C3.90763 6.84898 3.77097 6.71232 3.77097 6.54374ZM2.48917 12.0223C2.32519 11.9261 2.22089 11.753 2.2087 11.5646C2.49912 11.5428 2.75527 11.4507 2.75527 11.288V8.51494C2.75527 8.35228 2.49911 8.26018 2.2087 8.23832C2.22081 8.04995 2.32519 7.87686 2.48917 7.78067L3.03045 7.46316V12.3398L2.48917 12.0223Z" fill="#DB2A1F"/>
</g>
</g>
<defs>
<clipPath id="clip0_279_1766">
<rect width="20.4471" height="20.4471" fill="white" transform="translate(0.0117798 0.0234375)"/>
</clipPath>
</defs>
</svg>
