<svg width="83" height="63" viewBox="0 0 83 63" fill="none" xmlns="http://www.w3.org/2000/svg">
<path id="Vector" opacity="0.68" d="M24.5518 0.739529C23.6206 2.51561 22.3506 3.95339 21.1654 5.56032C18.5409 9.02791 16.8476 13.0029 14.8158 16.8088C13.9691 18.5003 13.2919 20.2764 12.9532 22.1371C12.8685 22.8137 12.8685 24.1669 12.6146 25.0972C12.5299 25.1818 12.4452 25.2664 12.3606 25.3509C12.2759 25.3509 12.3606 25.4355 12.4452 25.4355C12.5299 25.4355 12.5299 25.3509 12.6146 25.3509C12.5299 25.7738 12.2759 26.1121 11.9373 26.2813C11.8526 26.3658 11.7679 26.4504 11.8526 26.6196C11.4293 27.127 11.006 27.5499 10.5827 28.0574C10.498 28.1419 10.3287 28.2265 10.244 28.3111C10.1594 28.3957 10.244 28.3957 10.244 28.3957C9.82073 28.9031 9.39742 29.4106 8.88946 30.0026C8.04284 30.51 7.19623 31.0175 6.34961 31.5249C5.24901 31.7787 4.06375 32.2861 2.87849 32.2861C2.70917 32.2861 2.53984 32.2861 2.28586 32.2861C2.28586 32.2861 2.28586 32.2861 2.2012 32.2861C2.11654 32.2861 2.11654 32.2861 2.03188 32.2861C1.35458 32.2015 0.761953 32.117 0.0846615 32.0324C0.0846615 32.0324 0.0846615 32.0324 0.169323 32.117C0.169323 32.2015 0.169323 32.2015 0.169323 32.2861C0.846615 32.2861 1.43925 32.3707 2.03188 32.4553C2.37052 32.5398 2.79383 32.5398 3.13247 32.6244C3.3018 32.6244 3.47112 32.6244 3.64044 32.6244C3.72511 32.6244 3.72511 32.6244 3.80977 32.6244C3.38646 32.7936 2.87849 32.7936 2.45518 32.7936C2.45518 32.7936 2.37052 32.7936 2.37052 32.8781C2.11654 32.8781 1.86255 32.7936 1.69323 32.7936C1.18526 32.709 0.677292 32.6244 0.169323 32.6244C0.169323 32.709 0.169323 32.7936 0.169323 32.7936C0.0846615 32.8781 0.0846615 32.9627 0 33.0473C1.01594 33.2164 2.03188 33.301 3.04781 33.3856C3.13247 33.3856 3.21714 33.3856 3.3018 33.3856C3.38646 33.4702 3.47112 33.4702 3.55578 33.4702H3.64044C6.68826 33.7239 9.90539 34.0622 12.9532 33.8085C13.0379 33.893 13.1225 33.8085 13.2072 33.8085C13.8845 33.7239 14.4771 33.6393 15.1544 33.5547C15.3237 33.5547 15.4931 33.6393 15.6624 33.6393C20.4034 35.9229 22.4353 41.1665 25.4831 45.057C28.7002 49.1166 33.272 51.4001 37.1664 54.7831C40.8068 57.9124 45.0399 59.6885 49.781 60.3651C52.4055 60.788 55.1146 60.788 57.7391 61.2109C59.263 61.4646 60.7023 61.8029 62.1415 62.3103C63.2421 62.7332 63.9194 63.0715 65.1047 62.9869C65.274 62.9869 65.3587 62.8178 65.274 62.7332C65.1047 61.4646 64.0041 60.8726 62.9035 60.4497C60.6176 59.5194 58.2471 59.0965 55.8766 58.3353C50.7969 56.6438 46.8178 52.9225 43.6007 48.6937C42.2461 46.9176 40.9762 45.057 39.1983 43.6192C37.2511 41.9277 34.7959 40.8282 32.4253 39.7287C30.9861 39.0521 29.6315 38.4601 28.1923 37.8681C28.1076 37.7835 28.023 37.7835 27.9383 37.6989C27.9383 37.6989 27.9383 37.6989 27.8536 37.6989C26.753 37.2761 25.6524 36.8532 24.5518 36.4303C23.3666 36.0074 21.8427 35.6691 20.4881 35.2463C20.2341 34.9925 19.8954 34.6542 19.6415 34.4851C19.8954 34.4851 20.0648 34.5696 20.3188 34.6542C23.9592 35.4154 27.4303 36.8532 30.9014 38.2064C34.2032 39.475 37.505 40.7436 41.0608 41.2511C41.5688 41.3357 42.0768 41.4202 42.5001 41.4202C43.77 42.0969 45.0399 42.6889 46.3945 43.1118C47.0718 43.3655 47.8337 43.5346 48.5957 43.7038C49.1037 43.7884 49.6116 43.8729 50.1196 44.0421C50.2043 44.3804 50.3736 44.8033 50.6276 45.057C50.9662 45.4799 51.4742 45.7336 51.9822 45.8182C52.2361 45.8182 52.4055 45.8182 52.6594 45.8182C52.5748 46.5793 53.0827 47.1714 53.76 47.5097C54.3527 47.7634 55.03 47.7634 55.7073 47.5942C56.3846 47.3405 56.9772 46.8331 57.2312 46.1565C57.3158 45.9873 57.3158 45.8182 57.3158 45.649C57.3158 45.8182 57.3158 45.9873 57.4005 46.1565C57.6545 46.8331 58.2471 47.1714 58.9244 47.1714C60.1943 47.1714 61.8875 46.1565 61.4642 44.7187C61.6336 44.7187 61.7182 44.7187 61.8875 44.7187H61.9722C61.8029 44.9724 61.7182 45.3107 61.7182 45.649C61.8875 46.241 62.3109 46.6639 62.9035 46.7485C63.1575 46.8331 63.4114 46.7485 63.6654 46.6639C63.9194 46.5793 64.0887 46.3256 64.0887 46.0719C64.0887 46.0719 64.1734 46.0719 64.1734 45.9873C64.2581 45.7336 64.2581 45.3953 64.0887 45.1416C63.8348 44.6341 63.3268 44.2958 62.7342 44.2958C62.5648 44.2958 62.3955 44.3804 62.2262 44.465C62.1415 44.465 61.9722 44.465 61.8875 44.465C61.7182 44.465 61.6336 44.465 61.4642 44.3804H61.3796C61.1256 43.7884 60.9563 43.1963 60.3636 42.9426C59.6863 42.6889 58.9244 42.7735 58.3318 43.1963C58.1624 43.2809 58.0778 43.4501 57.9931 43.6192H57.9085C57.7391 43.6192 57.5698 43.6192 57.4005 43.5346C57.0618 43.4501 56.8079 43.3655 56.4692 43.3655C56.3845 43.3655 56.3845 43.3655 56.2999 43.4501C55.9612 43.1963 55.5379 43.0272 55.1146 43.0272C54.9453 42.266 54.4373 41.674 53.8447 41.2511C52.7441 40.4899 51.3895 41.2511 50.7122 42.1814C50.6276 42.266 50.6276 42.3506 50.5429 42.4352C49.527 41.5894 48.257 41.5894 47.2411 41.4202C45.2092 41.0819 43.0927 40.9128 41.0608 40.5745C36.8277 39.9825 32.9333 38.291 28.9542 36.7686C25.5678 35.4154 22.012 34.4005 18.4562 33.7239C17.9482 33.6393 17.3556 33.4702 16.6783 33.301C19.3028 33.2164 21.9273 33.1319 24.5518 33.2164C27.4303 33.3856 30.3088 33.8085 33.1873 34.0622C35.9811 34.3159 38.775 34.4851 41.5688 34.4851C43.0927 34.4851 44.9552 34.5697 46.4792 34.1468C47.5798 34.0622 48.6804 34.0622 49.781 33.9776C51.0509 33.893 52.2361 33.6393 53.4214 33.5547C54.522 33.3856 55.6226 33.2164 56.7232 32.9627C57.4005 32.7936 58.2471 32.709 58.8397 32.2861C59.0091 32.7936 59.3477 33.1319 59.771 33.3856C60.7023 33.7239 61.8029 33.3856 62.5648 32.7936C63.1575 32.3707 63.6654 31.6941 63.4961 31.0175C63.7501 31.0175 64.0887 30.9329 64.3427 30.9329C64.5121 30.9329 64.6814 30.8483 64.8507 30.8483C65.02 30.8483 65.1893 30.7638 65.3587 30.6792C65.6973 31.1021 66.2053 31.4404 66.7979 31.6095C67.4752 31.7787 68.2372 31.6941 68.8298 31.2712C68.8298 31.4404 68.9144 31.5249 68.9991 31.6941C68.3218 31.7787 67.6445 31.7787 66.9672 31.7787C66.2053 31.7787 65.4433 31.7787 64.6814 31.8632C64.5967 31.8632 64.512 31.9478 64.512 32.117C64.512 32.2015 64.5967 32.2861 64.6814 32.2861C66.1206 32.117 67.7292 32.3707 69.1684 31.9478C69.2531 32.0324 69.2531 32.117 69.3378 32.117C70.269 32.9627 72.1316 32.8781 72.6396 31.5249C72.8089 31.3558 72.8935 31.1866 72.9782 30.9329C72.9782 30.51 72.8935 30.0026 72.6396 29.6643C72.9782 29.6643 73.2322 29.5797 73.5708 29.5797C73.8248 29.5797 74.0788 29.5797 74.3328 29.5797C74.4174 29.5797 74.5868 29.5797 74.6714 29.5797C74.6714 29.6643 74.6714 29.8334 74.6714 29.918C74.7561 30.1717 74.8408 30.4255 75.0101 30.51C75.3487 30.7638 75.772 30.9329 76.28 30.9329C76.788 30.9329 77.2113 30.7638 77.5499 30.4255C77.8886 30.0026 77.9732 29.4951 77.8886 28.9877C77.8039 28.734 77.7192 28.5648 77.4653 28.3957C77.2959 28.3111 77.1266 28.2265 76.8726 28.2265C76.8726 28.1419 76.8726 28.0574 76.9573 27.9728C77.042 27.8882 77.0419 27.8882 77.1266 27.8036C77.1266 27.8882 77.1266 28.0574 77.2959 28.0574C77.7192 28.0574 78.1426 28.0574 78.5659 27.9728C78.7352 27.9728 78.9892 27.8882 79.1585 27.8882C79.2431 27.8882 79.3278 27.8036 79.4125 27.8036C79.4125 27.8036 79.4971 27.8036 79.4971 27.719C79.6665 28.1419 79.9204 28.4802 80.2591 28.734C80.5131 28.9031 80.8517 28.9877 81.1904 28.9877C81.4444 28.9877 81.6137 28.8185 81.783 28.734C82.2063 28.5648 82.5449 28.3111 82.7143 27.9728C82.9683 27.5499 83.0529 27.127 82.9683 26.6196C82.8836 26.1967 82.5449 25.8584 82.2063 25.6892C81.783 25.4355 81.275 25.4355 80.7671 25.5201C80.3438 25.6047 80.0051 25.7738 79.7511 26.1121C79.5818 26.3658 79.4125 26.7041 79.4125 27.0424C79.4125 27.2116 79.4125 27.2962 79.4971 27.4653H79.4125C79.3278 27.4653 79.2431 27.5499 79.1585 27.5499C78.9892 27.5499 78.7352 27.6345 78.5659 27.6345C78.1426 27.6345 77.7192 27.6345 77.2959 27.719C77.2959 27.719 77.2959 27.719 77.2113 27.719C77.4653 27.127 77.4653 26.535 77.2959 25.943C76.9573 25.0972 76.28 24.5052 75.3487 24.4206C73.8248 24.2515 72.3856 25.0972 71.7929 26.535C71.7083 26.7041 71.7083 26.8733 71.7083 27.0424C71.6236 27.0424 71.6236 27.0424 71.539 27.0424C71.3696 27.0424 71.2003 27.127 71.031 27.2116C70.6923 27.2962 70.3537 27.4653 70.015 27.5499C69.9304 27.6345 69.8457 27.7191 69.9304 27.8882C70.015 27.9728 70.0997 28.0574 70.269 27.9728C70.523 27.8036 70.8617 27.7191 71.2003 27.6345C71.3696 27.5499 71.4543 27.5499 71.6236 27.4653H71.7083C71.7929 28.0574 72.1316 28.5648 72.6396 28.9031C72.9782 29.0723 73.2322 29.2414 73.5708 29.326C73.4862 29.326 73.4862 29.326 73.4015 29.326C72.9782 29.326 72.6396 29.326 72.2162 29.4106C72.1316 29.326 72.0469 29.2414 71.9623 29.1568C71.4543 28.6494 70.6923 28.5648 70.015 28.8185C70.015 28.2265 69.7611 27.719 69.3378 27.2962C68.8298 26.7887 68.2372 26.535 67.5599 26.4504C66.9672 26.4504 66.2899 26.6196 65.8666 27.0424C65.02 27.719 64.5967 28.8185 64.8507 29.8334C64.9354 30.0872 65.02 30.2563 65.1047 30.4255C65.02 30.4255 64.9354 30.4255 64.766 30.51C64.5967 30.51 64.4274 30.5946 64.2581 30.5946C63.9194 30.6792 63.5808 30.6792 63.3268 30.7638C63.3268 30.7638 63.3268 30.7638 63.3268 30.6792C63.3268 30.6792 63.3268 30.6792 63.2421 30.6792C63.2421 30.3409 63.0728 30.0872 62.9035 29.8334C62.4802 29.4106 61.9722 29.2414 61.4642 29.1568C60.4483 28.9877 59.263 29.4951 58.8397 30.51C58.6704 31.0175 58.5857 31.5249 58.7551 32.117C58.0778 32.5398 57.0618 32.6244 56.2999 32.7936C55.1993 33.0473 54.0987 33.2164 52.9981 33.3856C51.8975 33.5547 50.7122 33.7239 49.527 33.8085C48.6804 33.893 47.9184 33.893 47.0718 33.9776C48.6804 33.4702 50.2889 32.709 51.6435 31.6941C52.1515 32.3707 52.9981 32.6244 53.76 32.3707C54.0987 32.2015 54.4373 31.9478 54.6067 31.6095C54.6913 31.5249 54.6913 31.4404 54.776 31.2712C54.8606 31.2712 54.9453 31.1866 54.9453 31.1021C55.1993 30.3409 55.03 29.326 54.268 28.9031C53.5061 28.4802 52.5748 28.9031 51.8975 29.4106C51.5588 29.6643 51.3049 30.0026 51.2202 30.4255C51.2202 30.7638 51.3049 31.1866 51.4742 31.4404C49.6963 32.5398 47.8337 33.3856 45.8019 33.8931C45.7172 33.8931 45.6325 33.9776 45.6325 34.0622C45.1246 34.0622 44.6166 34.0622 44.1933 34.1468C42.7541 34.2313 41.3148 34.2313 39.7909 34.1468C37.0817 34.0622 34.3726 33.8085 31.6634 33.5547C26.499 32.9627 21.3347 32.7936 16.1703 32.9627C16.3397 32.8781 16.4243 32.8781 16.5937 32.7936C17.1863 32.709 17.7789 32.709 18.2869 32.6244C18.2869 32.6244 18.2869 32.709 18.3715 32.6244C18.9642 32.5398 19.5568 32.4553 20.1494 32.5398C20.2341 32.5398 20.2341 32.4553 20.1494 32.4553C19.6415 32.3707 19.1335 32.3707 18.6255 32.4553C18.1176 32.4553 17.6096 32.4553 17.1016 32.4553C17.6096 32.2015 18.1176 31.8632 18.5409 31.5249C20.6574 30.6792 22.7739 29.918 24.8058 29.0723H24.8905C24.8905 29.1568 24.9751 29.1568 25.0598 29.1568C27.007 29.2414 28.8696 29.0723 30.7321 28.5648C32.9333 28.3957 35.2192 28.2265 37.4204 27.9728C41.9921 27.3808 46.5638 26.9579 51.1355 26.1967C54.8606 25.6047 58.5857 24.8435 61.8875 23.152C63.5808 22.3062 65.02 21.1222 66.7132 20.1918C68.0678 19.3461 69.5917 18.7541 70.9463 17.9929C71.8776 17.4854 74.8408 16.2168 74.2481 14.779C73.6555 13.3412 70.8617 14.1024 69.7611 14.187C66.036 14.5253 62.3109 15.2019 58.8397 16.8088C55.03 18.5849 51.6435 20.4456 47.5798 21.5451C44.6166 22.4754 41.8228 23.5749 39.0289 24.8435C38.8596 24.8435 38.6903 24.9281 38.521 24.9281C38.4363 24.9281 38.4363 25.0126 38.521 25.0972C38.0977 25.2664 37.6744 25.5201 37.1664 25.6892C36.7431 25.943 36.2351 26.1121 35.7271 26.3658C34.1186 27.0424 32.4253 27.6345 30.7321 28.1419C29.3775 28.1419 28.1076 28.2265 26.753 28.4802C30.4781 26.9579 34.2032 25.4355 37.5897 23.2366C40.7222 21.1222 43.6853 18.9232 46.5638 16.5551C49.781 13.9333 53.1674 11.6497 56.5539 9.19706C57.2312 8.68961 61.2949 6.15235 59.8557 4.88372C59.0937 4.20712 57.4005 5.13744 56.7232 5.47575C54.8606 6.3215 53.4214 7.25183 51.3895 7.50555C47.4951 8.01301 43.77 8.52046 40.2989 10.6348C38.6056 11.6497 37.0817 13.0029 35.8118 14.4407C35.7271 14.4407 35.7271 14.4407 35.6425 14.4407C33.018 16.0477 30.0548 16.2168 27.1763 17.0626C24.7212 17.8237 22.266 18.7541 19.9801 20.0227C19.3875 20.2764 18.8795 20.6147 18.3715 20.953C19.5568 19.6844 20.3188 18.0775 21.25 16.6397C21.9273 15.6248 22.8586 14.779 23.3666 13.6795C23.7899 12.6646 24.1285 11.6497 24.4672 10.5503C25.0598 8.52046 25.6524 6.40607 25.9911 4.29169C26.1604 3.53051 26.9224 1.16241 26.0757 0.401228C25.4831 -0.444525 24.8058 0.232077 24.5518 0.739529ZM37.3357 26.0275C40.2989 25.5201 43.1774 24.6743 46.1405 24.0823C49.527 23.4057 52.9134 22.4754 56.3845 21.8834C59.3477 21.2913 62.3955 20.7839 65.1893 19.5998C67.8139 18.4158 70.1844 16.8934 72.8089 15.6248C70.1844 17.4009 67.1366 18.6695 64.4274 20.0227C61.2103 21.6296 57.7391 22.8137 54.1833 23.4057C50.7969 23.9977 47.3258 24.5052 43.9393 25.2664C42.1614 25.6047 40.3835 26.1121 38.6056 26.4504C37.2511 26.7041 35.8965 27.127 34.5419 27.2962C34.8805 27.127 35.2192 27.0424 35.5578 26.8733C36.0658 26.6196 36.7431 26.3658 37.3357 26.0275ZM44.9552 22.8983C44.7013 22.9828 44.5319 22.9828 44.278 23.0674C43.262 23.4057 42.4154 23.9977 41.3995 24.2515H41.3148C42.4154 23.744 43.516 23.3211 44.6166 22.8983C44.7013 22.8983 44.7859 22.8983 44.9552 22.8983ZM48.9343 21.4605C48.257 21.7142 47.6644 22.0525 47.0718 22.3062C46.6485 22.4754 46.2252 22.56 45.8019 22.6445C45.6325 22.6445 45.3786 22.6445 45.2092 22.7291C45.6325 22.56 46.0558 22.3908 46.4792 22.3062C47.3258 21.9679 48.1724 21.7142 48.9343 21.4605ZM73.1475 14.6945C72.4702 14.8636 71.7929 14.9482 71.1156 15.0328C69.8457 15.2865 68.6605 15.4556 67.3905 15.7094C64.8507 16.1322 62.3108 16.4705 59.8557 17.2317C58.1624 17.7392 56.6385 18.6695 54.9453 19.4307C53.4214 20.1073 51.8128 20.6147 50.2043 21.0376C52.2361 20.361 54.268 19.5152 56.1306 18.5003C59.4324 16.8088 62.5648 15.4556 66.2899 14.8636C67.8985 14.6099 69.5071 14.4407 71.031 14.2716C71.4543 14.2716 72.4702 13.9333 72.8935 14.2716C73.0629 14.3562 73.1475 14.5253 73.1475 14.6945ZM73.2322 15.2019C70.523 16.386 68.0678 18.0775 65.3587 19.2615C62.2262 20.6993 58.9244 21.1222 55.6226 21.7988C52.2361 22.4754 48.8497 23.3211 45.3786 23.9977C42.9234 24.5052 40.3835 25.1818 37.9283 25.6892C38.775 25.3509 39.5369 24.9281 40.3835 24.5898C40.8915 24.5052 41.3995 24.4206 41.9074 24.2515C42.6694 23.9977 43.3467 23.5749 44.1086 23.3211C44.7013 23.0674 45.3786 22.8983 45.9712 22.7291C47.4951 22.4754 48.9343 22.2217 50.4582 21.7988C52.9981 21.1222 55.4533 20.5301 57.9085 19.769C60.1943 19.0924 62.5648 18.5003 64.9354 17.8237C67.5599 16.978 70.0997 16.0477 72.8089 15.3711C72.8935 15.3711 72.8935 15.2865 72.8089 15.2865C70.4384 15.7939 68.1525 16.6397 65.8666 17.4009C63.4115 18.162 60.8716 18.7541 58.4164 19.5152C56.1306 20.1918 53.8447 20.953 51.4742 21.4605C50.0349 21.7988 48.6804 22.1371 47.2411 22.3908C48.1724 21.9679 49.1883 21.5451 50.2043 21.2068C54.268 20.1073 57.7391 17.7392 61.8029 16.8088C64.3427 16.2168 66.9672 15.8785 69.5917 15.3711C70.0997 15.2865 72.1316 15.1173 73.2322 14.6945C73.2322 14.9482 73.2322 15.1173 73.2322 15.2019ZM32.6793 27.8882C33.018 27.8036 33.4413 27.6345 33.7799 27.4653C35.1345 27.2962 36.4891 26.8733 37.8437 26.6196C39.7062 26.2813 41.6535 25.7738 43.516 25.4355C47.2411 24.6743 51.0509 24.1669 54.776 23.4057C58.3318 22.7291 61.8029 21.4605 65.02 19.769C67.7292 18.3312 70.777 17.1471 73.3168 15.3711C73.3168 15.4556 73.3168 15.6248 73.3168 15.7094C73.2322 15.9631 72.7242 16.1322 72.5549 16.3014C70.269 17.8237 67.7292 18.7541 65.528 20.1918C62.1415 22.3908 58.9244 23.9977 54.9453 24.8435C51.3895 25.6047 47.8337 26.1967 44.278 26.6196C40.5528 27.0424 36.8277 27.4653 33.1026 27.8036C32.9333 27.8882 32.764 27.8882 32.6793 27.8882ZM51.7282 31.0175C51.5588 30.7638 51.5588 30.4255 51.6435 30.1717C51.8128 29.8334 52.0668 29.6643 52.3208 29.4951C52.8288 29.1568 53.5907 28.9031 54.1833 29.326C54.6067 29.6643 54.522 30.2563 54.4373 30.7638C54.3527 30.9329 54.268 31.1021 54.1833 31.2712C54.014 31.6095 53.6754 31.7787 53.3367 31.9478C52.6594 32.0324 51.9822 31.6095 51.7282 31.0175ZM79.8358 27.5499C79.7511 27.2962 79.7511 27.0424 79.7511 26.7887C79.7511 26.535 79.9204 26.3658 80.0898 26.1967C80.3438 26.0275 80.6824 25.8584 81.021 25.8584C81.4443 25.7738 81.783 25.943 82.1216 26.1121C82.3756 26.2813 82.5449 26.535 82.5449 26.8733C82.5449 27.2116 82.4603 27.4653 82.291 27.719C82.037 28.0574 81.6983 28.2265 81.3597 28.3111C81.275 28.3111 81.1904 28.3957 81.1904 28.4802H81.1057C80.8517 28.4802 80.5977 28.3111 80.4284 28.1419C80.0898 28.0574 79.9204 27.8036 79.8358 27.5499ZM75.0947 28.9877C75.0101 28.9031 74.9254 28.9031 74.8408 28.9877C74.8408 28.9877 74.8408 28.9877 74.7561 29.0723C73.4015 28.9877 71.5389 28.0574 72.1316 26.535C72.6395 25.2664 73.9941 24.5898 75.2641 24.8435C75.9414 25.0126 76.4493 25.5201 76.7033 26.1121C76.9573 26.7041 76.8726 27.4653 76.3647 27.8882C76.28 27.9728 76.28 28.1419 76.3647 28.2265L76.4493 28.3111C76.1953 28.6494 75.6874 28.9031 75.0947 28.9877ZM75.0101 29.4951C75.0101 29.4106 75.0101 29.4106 75.0947 29.326C75.772 29.326 76.3647 28.9031 76.7033 28.3957C76.788 28.3957 76.8726 28.4802 76.9573 28.4802C77.042 28.4802 77.1266 28.5648 77.2113 28.6494C77.2959 28.8185 77.3806 28.9877 77.3806 29.1568C77.3806 29.4951 77.2113 29.918 76.9573 30.1717C76.9573 30.1717 76.9573 30.1717 76.8726 30.2563L76.788 30.3409C76.788 30.3409 76.7033 30.3409 76.7033 30.4255H76.6186C76.4493 30.51 76.28 30.51 76.1107 30.4255C76.026 30.4255 75.9414 30.4255 75.8567 30.4255C75.772 30.4255 75.6874 30.3409 75.6027 30.3409C75.6027 30.3409 75.518 30.3409 75.518 30.2563C75.518 30.2563 75.518 30.2563 75.4334 30.2563L75.3487 30.1717C75.3487 30.1717 75.3487 30.1717 75.2641 30.0872L75.1794 30.0026C75.1794 30.0026 75.1794 30.0026 75.1794 29.918V29.8334C75.1794 29.7489 75.1794 29.7489 75.1794 29.7489C75.1794 29.7489 75.1794 29.7489 75.1794 29.6643C75.0101 29.5797 75.0101 29.5797 75.0101 29.4951ZM69.1684 31.0175C69.2531 30.8483 69.3378 30.7638 69.4224 30.6792V30.5946C69.7611 30.1717 69.9304 29.6643 70.015 29.1568C70.015 29.1568 70.0151 29.1568 70.0997 29.1568C70.269 29.0723 70.4384 28.9877 70.6077 28.9877C70.777 28.9877 70.8617 28.9877 71.031 28.9877C71.3696 29.0723 71.6236 29.2414 71.8776 29.4951C71.8776 29.5797 71.9623 29.7489 72.1316 29.7489C72.2162 29.918 72.3009 30.0026 72.3856 30.1717C72.6396 30.6792 72.6395 31.2712 72.1316 31.6095C72.0469 31.6941 72.0469 31.7787 72.1316 31.7787C71.3696 32.709 69.4224 32.3707 69.1684 31.0175ZM65.1893 29.4951C65.1047 28.5648 65.528 27.6345 66.3746 27.127C67.3905 26.535 68.6605 26.8733 69.3378 27.8036C69.9304 28.6494 69.5917 29.7489 68.9991 30.51C68.9144 30.5946 68.9144 30.6792 68.9991 30.7638C68.3218 31.3558 67.3905 31.4404 66.6286 31.1866C65.8666 30.8483 65.3587 30.1717 65.1893 29.4951ZM59.0937 31.8632C59.0091 31.3558 59.0937 30.7638 59.3477 30.3409C59.8557 29.6643 60.7869 29.326 61.6336 29.5797C62.3955 29.7489 63.0728 30.3409 62.7342 31.1866C62.7342 31.2712 62.7342 31.4404 62.9035 31.4404C62.9881 31.4404 63.0728 31.4404 63.1575 31.3558C63.1575 31.2712 63.1575 31.1866 63.1575 31.1021C63.3268 31.7787 62.5648 32.3707 61.9722 32.709C61.2949 33.0473 60.3636 33.3856 59.6863 32.9627C59.3477 32.6244 59.0937 32.2015 59.0937 31.8632ZM62.4802 44.465C62.5648 44.465 62.5648 44.3804 62.5648 44.3804C62.6495 44.3804 62.6495 44.3804 62.7342 44.3804H62.8188H62.9035C62.9881 44.3804 62.9881 44.3804 63.0728 44.465C63.0728 44.465 63.1575 44.465 63.1575 44.5495C63.2421 44.5495 63.2421 44.6341 63.3268 44.6341C63.3268 44.6341 63.3268 44.6341 63.4115 44.7187C63.4115 44.7187 63.4961 44.8033 63.4961 44.8878V44.9724C63.4961 45.057 63.5808 45.057 63.5808 45.1416V45.2261V45.3107V45.3953C63.5808 45.3953 63.5808 45.3953 63.5808 45.4799C63.4961 45.4799 63.4961 45.5644 63.4115 45.5644C63.3268 45.5644 63.4961 45.5644 63.4115 45.5644H63.3268C63.2421 45.5644 63.1575 45.7336 63.1575 45.8182V45.9027C63.1575 45.9027 63.1575 45.9027 63.0728 45.9027C62.9881 45.9027 63.0728 45.9027 62.9881 45.9027C62.9035 45.9027 62.8188 45.9027 62.8188 45.8182C62.7342 45.8182 62.7342 45.7336 62.6495 45.7336C62.6495 45.7336 62.5648 45.7336 62.5648 45.649C62.4802 45.649 62.4802 45.5644 62.3955 45.5644C62.3955 45.5644 62.3955 45.4799 62.3109 45.4799C62.3109 45.4799 62.3109 45.3953 62.2262 45.3953C62.2262 45.3107 62.1415 45.3107 62.1415 45.2261V45.1416V45.057V44.9724V44.8878C62.1415 44.8878 62.1415 44.8878 62.1415 44.8033V44.7187C62.1415 44.7187 62.1415 44.7187 62.1415 44.6341C62.1415 44.5495 62.2262 44.5495 62.2262 44.465C62.2262 44.465 62.2262 44.3804 62.3109 44.3804C62.3955 44.5495 62.3955 44.5495 62.4802 44.465ZM58.7551 43.1963C59.1784 42.9426 59.771 42.9426 60.1943 43.1963C60.533 43.5346 60.7869 43.9575 60.8716 44.3804C60.8716 44.465 61.0409 44.5495 61.1256 44.5495C61.2103 45.1416 60.8716 45.649 60.3636 45.9873C59.8557 46.3256 59.3477 46.4948 58.7551 46.4102C58.2471 46.4102 57.8238 46.0719 57.7391 45.5644C57.5698 44.6341 57.9931 43.7038 58.7551 43.1963ZM57.3158 43.5346C57.4005 43.5346 57.4851 43.5346 57.6545 43.5346C57.4005 43.8729 57.3158 44.2958 57.2312 44.6341C57.1465 44.2958 57.0618 43.8729 56.8079 43.6192C56.7232 43.5346 56.6385 43.4501 56.5539 43.3655C56.8079 43.4501 57.0618 43.5346 57.3158 43.5346ZM53.4214 45.3953C54.1833 45.057 54.9453 44.3804 54.776 43.5346C54.8606 43.4501 54.9453 43.2809 55.03 43.1118C55.7073 43.1963 56.2999 43.5346 56.5539 44.1267C56.8925 44.7187 56.8079 45.3953 56.5539 45.9873C56.2999 46.4948 55.7919 46.8331 55.284 46.9176C54.776 47.0022 54.268 47.0022 53.76 46.7485C53.5061 46.6639 53.3367 46.4948 53.2521 46.241C53.0828 45.9873 53.0827 45.7336 52.9981 45.4799C53.0827 45.4799 53.2521 45.3953 53.4214 45.3953ZM50.5429 43.7038C50.4582 43.2809 50.5429 42.858 50.7122 42.5197C50.8816 42.6043 50.9662 42.3506 50.8815 42.266C50.9662 42.0969 51.0509 42.0123 51.1355 41.9277C51.7282 41.1665 52.8288 40.7436 53.6754 41.4202C54.014 41.674 54.268 42.0123 54.4373 42.3506C54.522 42.4352 54.522 42.6043 54.522 42.6889C54.4373 42.7735 54.4373 42.9426 54.522 43.0272C54.522 43.1118 54.4373 43.1963 54.3527 43.2809C54.268 43.3655 54.268 43.5346 54.3527 43.6192C54.3527 43.6192 54.4373 43.6192 54.4373 43.7038C54.4373 44.465 53.5907 44.9724 52.9134 45.1416C52.5748 45.2261 52.2361 45.3107 51.8128 45.2261C51.3895 45.1416 50.9662 44.8033 50.7122 44.465C50.6276 44.2958 50.5429 44.1267 50.4582 43.9575C50.6276 43.7884 50.6276 43.7038 50.5429 43.7038ZM43.77 41.4202C44.6166 41.5048 45.4632 41.5894 46.3945 41.7586C47.4951 41.9277 49.1883 41.8431 50.2889 42.3506C50.1196 42.6889 50.0349 43.1118 50.0349 43.5346C49.6116 43.4501 49.1883 43.3655 48.8497 43.2809C48.0877 43.1118 47.4104 42.9426 46.7331 42.6889C45.7172 42.3506 44.7013 41.9277 43.77 41.4202ZM53.5907 57.8279C53.5061 57.8279 53.5061 57.8279 53.5907 57.8279C51.0509 56.9821 48.765 55.7135 46.7331 54.022C45.0399 52.4996 43.6853 50.7235 42.0768 49.032C40.3835 47.2559 38.4363 45.7336 36.7431 44.1267C35.3038 42.858 33.7799 41.7585 32.0867 40.9974C29.8855 39.8979 27.5996 38.7984 25.3138 37.6989C24.0439 37.0223 22.52 36.5149 21.1654 35.8383L21.0807 35.7537C20.996 35.6691 20.996 35.6691 20.9114 35.5846C21.25 35.6691 21.504 35.7537 21.8427 35.8383C23.9592 36.5149 26.0757 37.2761 28.1923 38.2064C28.8696 38.4601 29.5469 38.7984 30.2241 39.0521C31.0708 39.5596 31.9174 39.9825 32.764 40.4899C34.1186 41.2511 35.3038 42.266 36.4891 43.2809C39.0289 45.3107 41.6535 47.3405 43.516 50.0469C43.6007 50.1315 43.6853 50.0469 43.6007 49.9624C41.8228 47.2559 39.1136 45.1416 36.5738 43.1118C35.3038 42.0969 34.0339 40.9974 32.5947 40.2362C32.3407 40.067 32.002 39.8979 31.7481 39.7287C35.1345 41.2511 38.4363 42.9426 40.8068 45.7336C43.1774 48.44 45.1246 51.4001 47.7491 53.8528C49.3576 55.3752 51.3895 56.813 53.5907 57.8279ZM55.9612 59.7731C52.2361 58.589 48.4264 56.3901 45.2092 54.1911C42.0768 52.0767 39.3676 49.4549 36.6584 46.9176C32.0867 42.6889 26.9224 39.3904 21.5887 36.092C22.0966 36.3457 22.6893 36.5149 23.1972 36.7686C25.3984 37.7835 27.515 38.9676 29.7162 39.9825C32.4253 41.2511 34.8805 42.5197 37.0817 44.6341C38.775 46.241 40.6375 47.6788 42.2461 49.3703C45.2939 52.5842 47.7491 55.5443 51.8975 57.3204C53.2521 57.9124 54.6913 58.3353 56.2152 58.7582C56.3845 58.8428 56.4692 58.8428 56.6385 58.9273C57.3158 59.0965 57.9931 59.3502 58.6704 59.5194C58.7551 59.5194 58.7551 59.5194 58.8397 59.6039C59.263 59.7731 59.771 59.8577 60.1943 60.0268C60.3636 60.1114 60.533 60.1114 60.6176 60.196C62.0569 60.6188 63.4961 61.1263 64.5967 61.972C64.4274 62.0566 64.3427 62.1412 64.1734 62.2258C63.4961 62.4795 63.1575 62.1412 62.5648 61.8875C62.2262 61.7183 61.8029 61.6337 61.4642 61.5492V61.4646C59.517 60.788 57.7391 60.2805 55.9612 59.7731ZM44.9552 56.8975C41.9074 55.7135 39.1983 54.022 36.4044 52.0767C34.7112 50.8081 32.9333 49.6241 31.1554 48.3554C29.2929 47.0868 28.023 45.4799 26.6684 43.7038C25.3984 41.9277 24.2132 40.067 22.8586 38.3755C22.3506 37.6989 21.9273 37.0223 21.4194 36.4303C23.7899 38.3755 25.8218 40.8282 27.8536 42.9426C30.4781 45.7336 33.272 48.2708 36.2351 50.639C39.1983 52.8379 41.8228 55.206 44.9552 56.8975ZM44.5319 56.4746C41.2301 54.614 38.4363 51.9076 35.4732 49.6241C32.1714 47.0868 29.4622 44.1267 26.5837 41.1665C25.2291 39.7287 23.8745 38.2064 22.3506 36.8532C27.8536 40.3208 33.1026 43.9575 37.8437 48.44C40.3835 50.8081 43.008 53.2608 46.0558 55.0369C48.765 56.6438 51.6435 58.3353 54.6913 59.5194C52.4901 59.0119 50.2889 58.5045 48.0877 57.9124C47.3258 57.7433 46.5638 57.4896 45.8019 57.2358C45.3786 56.9821 44.9552 56.7284 44.5319 56.4746ZM17.3556 33.9776C17.5249 33.9776 17.7789 34.0622 17.9482 34.0622C18.1176 34.1468 18.2869 34.3159 18.4562 34.4005C18.6255 34.4851 18.7948 34.6542 18.9642 34.7388C19.3875 35.0771 19.8108 35.3308 20.2341 35.5C20.4881 35.6691 20.7421 35.8383 20.996 36.0074C22.012 37.1915 22.8586 38.5447 23.7052 39.7287C24.9751 41.5894 26.2451 43.4501 27.5996 45.2261C30.0548 48.44 33.6953 50.3007 36.9124 52.6688C39.7062 54.7831 42.7541 56.3901 46.0558 57.5741C49.4423 59.0965 53.0827 59.8577 56.7232 60.6188C56.8079 60.6188 56.8079 60.5343 56.7232 60.4497C53.6754 59.7731 50.6276 59.0965 47.6644 57.997C47.7491 57.997 47.9184 58.0816 48.0031 58.0816C51.8975 59.0119 55.8766 59.8577 59.6863 61.0417C56.8925 60.4497 53.9294 60.3651 51.0509 60.0268C47.0718 59.5194 42.9234 58.4199 39.6216 56.0518C38.013 54.8677 36.5738 53.4299 35.0499 52.3305C33.3566 51.0618 31.5787 49.9624 29.8855 48.6937C26.753 46.241 24.6365 43.0272 22.52 39.7287C21.0807 37.5298 19.4721 35.4154 17.3556 33.9776ZM23.9592 10.5503C23.1126 12.4955 22.012 14.2716 20.6574 15.9631C19.1335 17.8237 17.6096 19.5998 16.509 21.7988C16.509 21.8834 16.509 21.8834 16.5937 21.8834C15.5777 22.6445 14.5618 23.4903 13.7152 24.4206L13.6305 24.5052L13.7152 24.336C14.5618 23.2366 15.3237 22.0525 16.001 20.7839C17.1863 18.5849 18.7948 16.8934 20.2341 14.8636C21.9273 12.5801 23.1972 10.1274 24.1285 7.50555C24.5518 6.23692 24.8058 4.88372 25.2291 3.61509C25.4831 2.76934 25.7371 1.92358 25.8218 0.993255C25.9064 0.993255 25.9911 1.07783 25.9911 1.16241C26.1604 1.33156 25.8218 2.51561 25.8218 2.68476C25.7371 3.19221 25.6524 3.69966 25.5678 4.20712C25.3138 5.72947 24.8905 7.25183 24.4672 8.77418C24.2978 9.36621 24.1285 9.95824 23.9592 10.5503ZM17.7789 21.0376C17.4403 21.2913 17.017 21.5451 16.6783 21.7988C17.7789 19.5152 19.4721 17.6546 21.0807 15.7094C22.012 14.5253 22.8586 13.1721 23.6206 11.8189C23.5359 11.988 23.5359 12.1572 23.4512 12.3263C22.9433 13.6795 22.1813 14.5253 21.3347 15.6248C20.0648 17.3163 19.3028 19.3461 17.7789 21.0376ZM58.4164 5.05287C56.7232 5.72947 55.284 6.82895 53.5907 7.75928C51.6435 8.77418 49.527 9.19706 47.4104 9.61994C45.8019 9.95824 44.024 10.212 42.5001 10.8886C40.8915 11.6497 39.5369 12.9184 38.267 14.1024C35.7271 16.5551 33.5259 19.3461 31.0708 21.9679C30.5628 22.4754 30.0548 22.9828 29.5469 23.4903C28.023 24.8435 26.4144 26.1121 24.8058 27.2962C23.4512 28.2265 22.0966 29.326 20.4881 29.918C20.7421 29.6643 20.996 29.4951 21.25 29.2414C24.2978 26.535 27.515 24.0823 30.3935 21.2913C33.018 18.7541 34.8805 15.4556 37.5897 13.0029C40.5529 10.2965 44.1933 8.85876 48.0877 8.18215C49.781 7.92843 51.6435 7.92843 53.3367 7.42098C54.8606 6.82895 56.8079 5.05287 58.4164 5.05287C58.4164 4.96829 58.4164 4.96829 58.4164 5.05287ZM32.51 18.162C32.0867 18.6695 31.5787 19.1769 31.1554 19.6844C27.8536 21.6296 23.9592 22.56 20.3188 23.3211C18.1176 23.8286 16.001 24.6743 13.9691 25.7738C14.3925 25.3509 14.9004 25.0126 15.3237 24.5898C17.3556 23.0674 19.6415 21.9679 22.012 21.0376C24.3825 20.1073 26.753 19.4307 29.0389 18.3312C30.0548 17.8237 31.0708 17.4009 32.1714 17.0626C32.764 16.8934 33.3566 16.6397 33.9493 16.3014C33.5259 16.8934 33.018 17.4854 32.51 18.162ZM59.1784 5.13744C57.4005 6.6598 55.4533 8.01301 53.2521 8.77418C51.2202 9.45078 49.1883 10.0428 47.1564 10.804C43.9393 11.988 40.2989 13.0029 37.505 15.1173C38.9443 13.595 40.5529 11.988 42.5001 11.0577C44.278 10.1274 46.5638 9.87366 48.5957 9.45078C50.4582 9.11248 52.2361 8.68961 53.9294 7.75928C55.6226 6.82895 57.1465 5.6449 59.0091 4.96829C58.9244 5.05287 59.0937 5.13744 59.1784 5.13744ZM59.263 5.81405C58.1624 6.3215 57.2312 7.08268 56.1306 7.59013C55.8766 7.6747 55.6226 7.84385 55.4533 7.92843C56.8079 7.16725 58.0778 6.23692 59.263 5.13744C59.3477 5.39117 59.4324 5.6449 59.263 5.81405ZM27.769 27.4653C28.1076 27.2962 28.4463 27.2116 28.7002 27.0424C30.1395 26.4504 31.4941 25.8584 32.764 25.0972C34.1186 24.336 35.4732 23.4057 36.5738 22.3062C38.6903 20.953 40.7222 19.5152 42.8387 18.162C46.0558 16.1322 48.6804 13.4258 51.8128 11.3114C53.2521 10.2965 54.6913 9.45078 56.1306 8.52046C56.0459 8.60503 55.9612 8.60503 55.9612 8.68961C54.6067 9.70451 53.1674 10.5503 51.8128 11.5652C45.9712 15.9631 40.5528 21.2068 33.9493 24.6743C31.9174 25.6892 29.8855 26.6196 27.769 27.4653ZM32.51 25.0972C32.0867 25.3509 31.5787 25.5201 31.0708 25.7738C32.764 24.8435 34.3726 23.8286 36.0658 22.7291C34.9652 23.6594 33.7799 24.4206 32.51 25.0972ZM25.0598 28.2265C27.6843 26.6196 30.3088 25.0126 32.6793 22.9828C35.0499 20.953 37.0817 18.7541 39.6216 16.8934C41.9921 15.1173 44.6166 13.9333 47.1564 12.5801C49.6116 11.3114 51.9822 9.87366 54.522 8.60503C55.6226 8.09758 56.7232 7.50555 57.7391 6.91353C58.2471 6.57522 58.6704 6.3215 59.1784 5.9832C58.9244 6.40607 58.5857 6.74438 58.1624 7.08268C57.9931 7.25183 57.8238 7.3364 57.6545 7.42098C55.6226 8.77418 53.5061 9.95824 51.5588 11.3114C49.3576 12.8338 47.3258 14.779 45.2092 16.386C43.008 18.0775 40.5529 19.3461 38.267 20.953C38.0977 21.0376 37.9283 21.2068 37.759 21.2913C38.4363 20.6993 39.0289 20.0227 39.7062 19.3461C44.278 14.6945 50.2043 11.8189 55.7919 8.60503C55.8766 8.60503 55.7919 8.43588 55.7073 8.52046C50.3736 11.5652 44.7859 14.2716 40.2989 18.5849C39.2829 19.5152 38.4363 20.6147 37.4204 21.5451C34.3726 23.5749 31.3247 25.6047 28.0229 27.127C27.007 27.5499 25.9911 27.8882 25.0598 28.2265ZM24.3825 28.4802C25.7371 27.5499 27.0917 26.4504 28.1923 25.2664C29.7162 23.6594 31.0708 22.1371 32.6793 20.6147C34.1186 19.2615 35.0499 17.57 36.4891 16.2168C39.5369 13.3412 44.1933 12.1572 48.0877 10.7194C50.2043 9.95824 52.4055 9.45078 54.3527 8.52046C53.2521 9.11248 52.1515 9.70451 51.0509 10.2965C48.0877 11.988 44.8706 13.3412 41.9074 15.2019C39.1136 16.978 36.6584 19.0924 34.2032 21.3759C31.4094 24.0823 28.1076 26.1121 24.8905 28.2265V28.3111C24.8905 28.3111 24.8905 28.3111 24.9751 28.3111C24.8058 28.3111 24.6365 28.3957 24.3825 28.4802ZM23.0279 29.0723C22.0966 29.5797 21.1654 29.918 20.1494 30.1717L20.2341 30.0872C21.25 29.7489 22.266 29.1568 23.1126 28.5648C24.8905 27.3807 26.5837 26.1967 28.2769 24.8435C28.4463 24.7589 28.5309 24.5898 28.7002 24.4206C27.261 26.1121 25.5678 27.5499 23.7052 28.734C23.4512 28.8185 23.2819 28.9031 23.0279 28.9877C22.9433 28.9031 23.0279 28.9877 23.0279 29.0723ZM19.3028 30.8483C19.4721 30.6792 19.6415 30.51 19.8954 30.4255C20.4034 30.3409 20.9114 30.1717 21.4194 30.0026C20.6574 30.2563 19.9801 30.51 19.3028 30.8483ZM15.3237 26.8733C17.6096 25.8584 20.0648 25.6892 22.52 25.0972C24.2132 24.6743 25.7371 23.9977 27.261 23.2366C25.8218 24.5052 24.2978 25.6892 22.8586 26.9579C21.758 27.8882 20.6574 28.9877 19.4721 30.0872C19.3875 30.0872 19.3028 30.1717 19.2182 30.1717C19.1335 30.1717 19.1335 30.2563 19.2182 30.2563H19.3028C18.7102 30.7638 18.1176 31.1866 17.4403 31.6095C17.017 31.7787 16.5937 31.9478 16.1703 32.117C16.255 32.0324 16.1703 31.9478 16.0857 32.0324C14.7311 32.7936 12.9532 32.8781 11.4293 33.0473C9.56675 33.2164 7.78886 32.8781 5.9263 32.8781C5.84164 32.8781 5.75698 33.0473 5.9263 33.0473C7.78886 33.1319 9.56675 33.3856 11.4293 33.2164C12.1913 33.1319 12.9532 33.0473 13.7152 32.9627C13.7152 32.9627 13.7152 32.9627 13.6305 32.9627C13.5458 32.9627 13.6305 32.9627 13.5458 32.9627C12.8685 33.1319 12.1913 33.301 11.514 33.4702C9.05878 33.4702 6.68826 33.301 4.23307 33.0473C5.16435 32.5398 6.09563 32.0324 7.0269 31.5249C6.85758 31.6941 6.68826 31.7787 6.51893 31.8632C6.34961 32.0324 6.18029 32.117 6.01097 32.2861C5.84164 32.3707 5.67232 32.5398 5.58766 32.709V32.7936C5.67232 32.8781 5.67232 32.8781 5.84164 32.8781C5.84164 32.8781 5.84164 32.8781 5.84164 32.7936C5.84164 32.7936 5.84164 32.7936 5.75698 32.7936C5.75698 32.7936 5.75698 32.7936 5.67232 32.7936C5.75698 32.6244 5.9263 32.5398 6.09563 32.4553C6.26495 32.3707 6.43427 32.2015 6.6036 32.117C6.94224 31.7787 7.36555 31.5249 7.78886 31.1866C7.78886 31.1866 7.78886 31.1866 7.78886 31.1021C7.87352 31.0175 7.95818 31.0175 8.04284 30.9329C8.04284 31.0175 8.1275 31.0175 8.21216 31.0175H8.29683C8.38149 30.8483 8.55081 30.7638 8.63547 30.5946C10.9213 29.1568 13.1225 27.9728 15.3237 26.8733ZM11.8526 27.6345C12.3606 27.2116 12.9532 26.9579 13.6305 26.7041C14.4771 26.4504 15.2391 26.1121 16.0857 25.7738C17.9482 25.0972 19.8108 25.0972 21.6733 24.9281C21.8427 24.9281 21.9273 24.8435 22.0966 24.8435C21.9273 24.9281 21.6733 24.9281 21.504 25.0126C19.3875 25.4355 17.2709 25.6892 15.2391 26.6196C13.2919 27.4653 11.514 28.4802 9.73607 29.6643C9.99006 29.4106 10.1594 29.1568 10.4134 28.9031C10.8367 28.3957 11.3446 27.9728 11.8526 27.6345ZM13.3765 26.2813C16.001 24.7589 18.8795 23.6594 21.8427 23.0674C23.7052 22.6445 25.5678 22.1371 27.4303 21.3759C28.6156 20.953 29.8008 20.4456 30.9014 19.8535C30.1395 20.6147 29.3775 21.3759 28.6156 22.0525C27.5996 22.6445 26.499 22.8983 25.4831 23.4057C23.9592 24.1669 22.266 24.5898 20.5727 24.6743C18.8795 24.7589 17.3556 24.9281 15.747 25.5201C14.9004 25.8584 14.1385 26.1121 13.2919 26.4504C13.1225 26.535 12.9532 26.6196 12.7839 26.7041C12.9532 26.7041 13.1225 26.535 13.3765 26.2813ZM21.6733 20.4456C25.9911 18.6695 30.4781 17.4854 34.6265 15.5402C34.4572 15.7094 34.3726 15.8785 34.2879 15.9631C33.4413 16.5551 32.3407 16.8088 31.4094 17.1471C30.3088 17.57 29.2082 18.0775 28.1076 18.5849C25.9064 19.5998 23.5359 20.1918 21.25 21.1222C19.0488 21.9679 17.017 23.0674 15.1544 24.5052C14.4771 25.0126 13.8845 25.5201 13.2919 26.1121C13.0379 26.2813 12.7839 26.3658 12.6146 26.535C15.3237 24.0823 18.2022 21.8834 21.6733 20.4456ZM14.4771 24.1669C16.3397 22.2217 18.6255 20.953 20.996 19.6844C23.4512 18.4158 26.0757 17.4854 28.7849 16.8088C30.9861 16.3014 33.1026 15.9631 35.1345 14.8636C35.0499 15.0328 34.8805 15.1173 34.7959 15.2865C30.3935 17.3163 25.6524 18.5003 21.25 20.4456C18.0329 21.7988 15.3237 23.9132 12.6992 26.1121C12.6992 26.0275 12.7839 26.0275 12.7839 25.943C12.9532 25.7738 13.0379 25.6047 13.2072 25.5201C13.2072 25.6047 13.2919 25.6892 13.3765 25.6047C13.3765 25.5201 13.4612 25.3509 13.4612 25.2664C13.7998 24.9281 14.1385 24.5052 14.4771 24.1669ZM23.3666 3.53051C22.6893 4.46084 22.1813 5.39117 21.6733 6.3215C20.4881 8.26673 19.3028 10.212 18.2022 12.2418C17.1863 14.1024 16.1703 15.9631 15.4084 17.9083C14.7311 19.5998 14.3078 21.4605 13.5458 23.152C13.7998 21.5451 14.2231 19.9381 14.8158 18.4158C15.747 16.2168 16.9323 14.1024 18.0329 11.9035C19.1335 9.61994 20.4881 7.50555 22.012 5.47575C22.3506 4.79914 22.8586 4.20712 23.3666 3.53051ZM25.0598 1.07783C24.7212 3.19221 23.8745 5.39117 22.9433 7.25183C21.9273 9.36621 20.5727 11.2269 19.4721 13.2567C18.3715 15.4556 16.9323 17.4009 15.6624 19.5152C14.8158 20.953 14.0538 22.56 13.5458 24.2515C13.4612 24.4206 13.2919 24.5052 13.1225 24.5898C13.1225 24.4206 13.2072 24.1669 13.2072 23.9977C13.2072 23.8286 13.2919 23.6594 13.2919 23.4903C14.1385 21.8834 14.6464 20.0227 15.2391 18.3312C16.0857 15.9631 17.4403 13.7641 18.6255 11.5652C19.8954 9.36621 21.25 7.25183 22.52 5.05287C23.3666 3.78424 24.5518 2.60019 25.0598 1.07783ZM25.5678 0.908679C25.3984 2.09273 25.1445 3.19221 24.8058 4.29169C24.4672 5.39117 24.2132 6.57522 23.8745 7.6747C22.9433 10.2965 21.5887 12.7492 19.8954 15.0328C18.5409 16.8934 17.017 18.5003 15.9164 20.5301C15.3237 21.7142 14.6464 22.8983 13.7998 23.9977C13.9691 23.4057 14.2231 22.7291 14.4771 22.1371C15.0697 20.8685 15.8317 19.5998 16.5937 18.4158C17.8636 16.4705 18.8795 14.5253 20.0648 12.5801C21.1654 10.7194 22.3506 8.85876 23.2819 6.91353C24.2132 5.05287 24.8058 3.10764 25.2291 0.993255C25.3138 0.908679 25.4831 0.824104 25.5678 0.908679Z" fill="white"/>
</svg>
