<?xml version="1.0" standalone="no"?>
<!DOCTYPE svg PUBLIC "-//W3C//DTD SVG 1.1//EN" "http://www.w3.org/Graphics/SVG/1.1/DTD/svg11.dtd" >
<svg xmlns="http://www.w3.org/2000/svg">
<metadata></metadata>
<defs>
<font id="uvn_hong_ha_hep_bold" horiz-adv-x="942" >
<font-face units-per-em="2048" ascent="1638" descent="-410" />
<missing-glyph horiz-adv-x="471" />
<glyph unicode="&#xd;" horiz-adv-x="471" />
<glyph unicode=" "  horiz-adv-x="471" />
<glyph unicode="&#x09;" horiz-adv-x="471" />
<glyph unicode="&#xa0;" horiz-adv-x="471" />
<glyph unicode="!" horiz-adv-x="550" d="M147 959v458h254v-458l-49 -588h-158zM153 0v257h241v-257h-241z" />
<glyph unicode="&#x22;" horiz-adv-x="623" d="M74 809v514h176v-514h-176zM374 809v514h176v-514h-176z" />
<glyph unicode="#" horiz-adv-x="1449" d="M41 374l70 184h260l79 222h-275l68 185h273l136 382h204l-135 -382h223l136 382h203l-136 -382h261l-68 -185h-258l-77 -222h266l-65 -184h-268l-136 -383h-203l136 383h-224l-137 -383h-203l134 383h-264zM571 556h231l79 224h-229z" />
<glyph unicode="$" d="M68 408v36h224q0 -7 -1 -21.5t-1 -21.5q0 -191 129 -214v417q-160 88 -236 173q-100 114 -100 267q0 158 85.5 253.5t241.5 102.5v126h104v-128q324 -3 324 -339v-27h-218v20q0 163 -113 169v-376q181 -94 257 -173q106 -114 106 -280q0 -373 -356 -394v-183h-104v183 q-342 20 -342 410zM307 1072q0 -103 112 -177l-1 328q-111 -10 -111 -151zM507 187q126 23 126 167q0 125 -126 205v-372z" />
<glyph unicode="%" horiz-adv-x="1452" d="M83 1082q0 171 57 251q67 93 231 93q167 0 235 -90q61 -78 61 -252q0 -175 -60 -261q-71 -102 -236 -102q-167 0 -233 101q-55 83 -55 260zM268 1075q0 -100 10 -136q22 -74 96 -74q75 0 96 73q10 35 10 137q0 96 -13 136q-24 72 -98 72q-69 0 -90 -75q-11 -39 -11 -133z M331 -27l649 1453h137l-650 -1453h-136zM784 331q0 171 57 252q68 95 231 95q167 0 237 -91q61 -80 61 -254t-61 -259q-72 -101 -237 -101q-167 0 -233 100q-55 82 -55 258zM971 328q0 -101 10 -137q21 -76 94 -76q76 0 98 74q10 35 10 137q0 95 -13 136q-24 73 -98 73 q-69 0 -90 -75q-11 -39 -11 -132z" />
<glyph unicode="&#x26;" horiz-adv-x="1240" d="M111 399q0 140 78 251q58 84 192 184q-111 174 -111 297q0 133 86 210q83 76 217 76q308 0 308 -270q0 -220 -201 -354l170 -292q34 95 34 224v23h216q-3 -294 -120 -464l167 -284h-280l-47 90q-115 -115 -306 -115q-190 0 -299 118q-104 113 -104 306zM358 415 q0 -88 49 -156q54 -74 139 -74q86 0 173 77l-231 384q-130 -88 -130 -231zM489 1147q0 -23 22 -61l62 -115q101 81 101 171q0 104 -90 104q-95 0 -95 -99z" />
<glyph unicode="'" horiz-adv-x="323" d="M74 809v514h176v-514h-176z" />
<glyph unicode="(" horiz-adv-x="620" d="M130 586q0 486 275 865h153q-181 -308 -181 -912q0 -568 188 -897h-155q-280 404 -280 944z" />
<glyph unicode=")" horiz-adv-x="620" d="M61 -358q187 329 187 897q0 604 -180 912h153q275 -379 275 -865q0 -541 -282 -944h-153z" />
<glyph unicode="*" d="M117 1097l52 163l217 -71v228h170v-228l217 71l52 -163l-214 -70l131 -185l-138 -100l-133 185l-133 -185l-138 100l131 185z" />
<glyph unicode="+" horiz-adv-x="1569" d="M234 471v183h458v469h186v-469h458v-183h-458v-471h-186v471h-458z" />
<glyph unicode="," horiz-adv-x="471" d="M117 0v254h237v-256q0 -114 -62.5 -189.5t-174.5 -85.5v96q128 14 128 166v15h-128z" />
<glyph unicode="-" horiz-adv-x="618" d="M85 422v220h449v-220h-449z" />
<glyph unicode="." horiz-adv-x="471" d="M117 0v254h237v-254h-237z" />
<glyph unicode="/" horiz-adv-x="578" d="M-56 -175l531 1626h140l-532 -1626h-139z" />
<glyph unicode="0" d="M81 710q0 446 70 560q96 156 320 156q225 0 320 -156q70 -114 70 -560q0 -451 -66 -566q-99 -171 -324 -171t-324 171q-66 115 -66 566zM345 433q0 -132 10 -171q24 -95 116 -95q93 0 117 103q9 38 9 176v519q0 132 -10 170q-25 95 -116 95q-93 0 -117 -100 q-9 -39 -9 -177v-520z" />
<glyph unicode="1" d="M85 998v168q351 11 386 260h175v-1426h-249v998h-312z" />
<glyph unicode="2" d="M79 45q0 327 272 605q20 22 73 72q74 70 98 100q48 58 66 122q13 48 13 109q0 177 -132 177q-136 0 -136 -224q0 -9 1 -27.5t1 -27.5h-247q0 9 -1 24t-1 23q0 215 87 317q94 111 304 111q390 0 390 -362q0 -159 -74 -282q-31 -52 -132 -154q-31 -32 -81 -84l-1 -1 q-194 -193 -230 -317h501v-226h-769q0 7 -1 22.5t-1 22.5z" />
<glyph unicode="3" d="M75 420q0 10 1 28.5t1 28.5h247v-17q0 -127 16 -182q32 -103 127 -103q93 0 125 87q17 51 17 168q0 131 -30 176q-39 59 -160 59q-41 0 -74 -2v185h18q122 0 169 39q52 43 52 161q0 90 -18 130q-28 58 -106 58q-124 0 -124 -196v-34h-246q-2 19 -2 53q0 367 383 367 q176 0 271.5 -95t95.5 -270q0 -244 -164 -296q196 -49 196 -335q0 -457 -410 -457q-385 0 -385 447z" />
<glyph unicode="4" d="M64 281v226l420 893h269v-908h119v-211h-119v-281h-241v281h-448zM254 486h264v577z" />
<glyph unicode="5" d="M74 419v35h244v-37q0 -251 144 -251q139 0 139 316q0 291 -155 291q-119 0 -130 -115h-230l38 742h671v-226h-475l-15 -284q76 79 195 79q359 0 359 -469q0 -250 -77 -373q-96 -156 -328 -156q-380 0 -380 448z" />
<glyph unicode="6" d="M83 694q0 444 68 563q96 169 338 169q156 0 245 -71q99 -77 99 -228v-21h-245v14q0 116 -111 116q-92 0 -123 -110q-15 -56 -15 -184q0 -14 1 -40.5t1 -40.5q61 96 200 96q320 0 320 -448q0 -259 -67 -377q-90 -159 -325 -159q-217 0 -314 159q-72 116 -72 562zM341 466 q0 -128 13 -181q29 -107 119 -107q93 0 118 104q10 43 10 180q0 139 -10 180q-25 104 -120 104q-89 0 -116 -105q-14 -51 -14 -175z" />
<glyph unicode="7" d="M77 1167v233h784v-204q-115 -213 -193 -448h39v-220h-103q-62 -255 -82 -528h-272q20 250 102 528h-174v220h248q76 204 183 419h-532z" />
<glyph unicode="8" d="M85 396q0 320 207 371q-179 55 -179 307q0 350 360 350t360 -358q0 -241 -187 -299q125 -25 175 -129q38 -79 38 -223q0 -216 -85 -323q-94 -117 -305 -117q-204 0 -298 110q-86 102 -86 311zM343 403q0 -106 16 -149q27 -76 112 -76q89 0 116 85q14 44 14 161 q0 111 -16 160q-28 89 -114 89q-90 0 -116 -98q-12 -44 -12 -172zM356 1048q0 -88 17 -127q24 -62 98 -62q117 0 117 189q0 87 -19 128q-26 60 -102 60q-111 0 -111 -188z" />
<glyph unicode="9" d="M77 891q0 254 64 373q86 162 315 162q230 0 328 -158q72 -117 72 -561q0 -450 -67 -563q-99 -171 -323 -171q-360 0 -360 311v9h246v-14q0 -113 112 -113q94 0 122 112q13 52 13 188v73q-59 -95 -203 -95q-319 0 -319 447zM339 938q0 -142 10 -181q25 -103 120 -103 q90 0 116 106q12 48 12 178q0 131 -12 179q-27 106 -118 106q-93 0 -117 -105q-11 -43 -11 -180z" />
<glyph unicode=":" horiz-adv-x="514" d="M140 0v254h235v-254h-235zM140 793v255h235v-255h-235z" />
<glyph unicode=";" horiz-adv-x="514" d="M140 0v254h235v-271q0 -101 -67.5 -177.5t-167.5 -82.5v96q126 14 126 166v15h-126zM140 793v255h235v-255h-235z" />
<glyph unicode="&#x3c;" horiz-adv-x="1569" d="M243 471v183l1084 444v-201l-822 -336l822 -335v-201z" />
<glyph unicode="=" horiz-adv-x="1569" d="M234 273v183h1102v-183h-1102zM234 669v183h1102v-183h-1102z" />
<glyph unicode="&#x3e;" horiz-adv-x="1569" d="M243 25v201l823 335l-823 336v201l1084 -444v-183z" />
<glyph unicode="?" horiz-adv-x="925" d="M100 1036v36q0 180 90 278q93 101 272 101q169 0 266 -96t97 -264q0 -128 -56 -219q-31 -50 -96 -126q-77 -91 -100 -122q-64 -89 -64 -209q0 -6 1 -17.5t1 -16.5h-222q-3 17 -3 65q0 183 110 323q14 19 47 57q124 143 124 276q0 151 -114 151q-124 0 -124 -183v-34h-229 zM284 0v245h236v-245h-236z" />
<glyph unicode="@" horiz-adv-x="1884" d="M83 478q0 314 190 547q277 338 754 338q321 0 530 -161q246 -189 246 -499q0 -312 -233 -500q-132 -105 -299 -105q-194 0 -197 152q-99 -150 -274 -150q-297 0 -297 313q0 207 117 356q127 162 328 162q146 0 217 -120l48 90h164l-135 -550q-6 -26 -6 -38q0 -65 87 -65 q74 0 148 70q161 152 161 389q0 240 -191 380q-171 125 -420 125q-259 0 -444 -125q-325 -219 -325 -607q0 -297 205 -464q191 -156 494 -156q305 0 556 176l75 -108q-282 -212 -627 -212q-359 0 -588 176q-284 219 -284 586zM699 408q0 -172 146 -172q82 0 147 65 q57 58 78 143l50 200q-25 153 -161 153q-124 0 -198 -139q-62 -115 -62 -250z" />
<glyph unicode="A" horiz-adv-x="1030" d="M17 0l319 1417h354l322 -1417h-284l-70 356h-304l-68 -356h-269zM396 569h224l-113 594z" />
<glyph unicode="B" horiz-adv-x="1026" d="M121 0v1417h424q359 0 359 -345q0 -280 -174 -311q111 -16 165 -117q45 -84 45 -207q0 -214 -85 -320q-94 -117 -303 -117h-431zM377 201h109q108 0 150 60q35 50 35 165q0 127 -44 175q-46 51 -171 51h-79v-451zM377 842h89q103 0 142 50q32 43 32 152q0 104 -39 142.5 t-143 38.5h-81v-383z" />
<glyph unicode="C" horiz-adv-x="1032" d="M92 725q0 418 72 541q107 185 358 185q226 0 324 -126q88 -113 88 -347h-256v34q0 228 -151 228q-95 0 -136 -104q-30 -76 -32 -217q2 147 3 147t1 -336q0 -664 -1 -664t-4 466q1 -152 31 -237q41 -114 136 -114q107 0 141 108q18 56 18 197v19h256q0 -9 1 -27.5t1 -27.5 q0 -484 -420 -484q-195 0 -299 108q-93 96 -120 311q-11 92 -11 340z" />
<glyph unicode="D" horiz-adv-x="1107" d="M121 0v1417h424q237 0 333 -94q91 -89 119 -248q17 -91 17 -280q0 -239 -8 -327q-18 -194 -85 -312q-61 -106 -191 -138q-73 -18 -246 -18h-363zM379 209h117q143 0 182 57q68 101 68 459q0 355 -81 442q-40 43 -173 43h-113v-1001z" />
<glyph unicode="E" horiz-adv-x="932" d="M121 0v1417h727v-236h-465v-327h433v-225h-433v-390h476v-239h-738z" />
<glyph unicode="F" horiz-adv-x="920" d="M121 0v1417h740v-232h-476v-335h449v-226h-449v-624h-264z" />
<glyph unicode="G" horiz-adv-x="1109" d="M92 752q0 396 89 531q110 166 373 166q227 0 335.5 -107.5t108.5 -335.5v-35h-246v14q0 257 -189 257q-112 0 -163 -109q-37 -81 -40 -232q1 45 2 45t1 -261q0 -231 13 -301q37 -201 174 -201q122 0 166 104q28 67 28 211v48h-183v227h437v-773h-178l-20 156 q-41 -105 -116 -150q-69 -40 -188 -40q-272 0 -358 280q-46 148 -46 506z" />
<glyph unicode="H" horiz-adv-x="1127" d="M121 0v1417h262v-556h361v556h262v-1417h-262v642h-361v-642h-262z" />
<glyph unicode="I" horiz-adv-x="505" d="M121 0v1417h264v-1417h-264z" />
<glyph unicode="J" horiz-adv-x="830" d="M23 304v144h241v-167q0 -112 92 -112q64 0 81 63q7 26 7 117v1068h259v-997q0 -230 -27 -287q-78 -167 -322 -167q-331 0 -331 338z" />
<glyph unicode="K" horiz-adv-x="1028" d="M121 0v1417h258v-592l322 592h294l-358 -588l381 -829h-290l-255 586l-94 -156v-430h-258z" />
<glyph unicode="L" horiz-adv-x="919" d="M121 0v1417h264v-1176h476v-241h-740z" />
<glyph unicode="M" horiz-adv-x="1424" d="M121 0v1417h397l194 -917l194 917h398v-1417h-252l5 1257l-264 -1257h-162l-264 1257l7 -1257h-253z" />
<glyph unicode="N" horiz-adv-x="1123" d="M121 0v1417h271l369 -991l-8 991h250v-1417h-270l-371 993l7 -993h-248z" />
<glyph unicode="O" horiz-adv-x="1105" d="M92 708q0 428 87 563q67 103 160 144q81 36 213 36t213 -36q95 -42 161 -144q86 -133 86 -563q0 -427 -86 -563q-66 -101 -161 -143q-81 -36 -213 -36t-213 36q-93 41 -160 143q-87 136 -87 563zM359 913l1 21q2 0 2 -226q0 -219 -1 -219l-1 15q3 -143 40 -222 q48 -104 154 -104q105 0 152 104q36 79 39 223l-1 -25q-2 0 -2 228q0 226 2 226q1 0 1 -21q-4 144 -39 223q-48 106 -154 106t-154 -106q-35 -79 -39 -223z" />
<glyph unicode="P" horiz-adv-x="1026" d="M121 0v1417h458q210 0 301.5 -95t91.5 -306q0 -415 -397 -415h-192v-601h-262zM375 797h111q120 0 171 47t51 166q0 122 -47.5 165.5t-171.5 43.5h-114v-422z" />
<glyph unicode="Q" horiz-adv-x="1105" d="M92 708q0 427 87 563q66 103 160 144q81 36 213 36t213 -36q95 -42 161 -144q86 -135 86 -563q0 -453 -86 -563l158 -158l-135 -136l-161 162q-94 -47 -236 -47q-132 0 -213 36q-94 41 -160 143q-87 137 -87 563zM359 913l1 21q2 0 2 -226q0 -216 -1 -216t-1 19 q3 -146 37 -226q45 -107 144 -107q25 0 74 9l-78 79l132 133l56 -58q19 132 19 317q0 293 2 293q1 0 2 -75q-3 160 -39 247q-48 119 -157 119q-106 0 -154 -106q-35 -79 -39 -223z" />
<glyph unicode="R" horiz-adv-x="1087" d="M121 0v1417h472q207 0 302 -81q101 -88 101 -290q0 -283 -199 -311q187 -50 196 -317v-19l7 -187q6 -146 72 -212h-313q-20 65 -24 221l-4 186q0 134 -67 179q-53 36 -198 36h-91v-622h-254zM375 818h152q116 0 160 47t44 164q0 113 -58 155q-49 35 -168 35h-130v-401z " />
<glyph unicode="S" horiz-adv-x="1032" d="M90 413q0 6 2 32t2 47v6h264v-91q0 -110 20 -155q31 -71 125 -71q171 0 171 168q0 75 -48 132q-31 35 -114 94l-135 96q-147 105 -195 163q-74 94 -74 236q0 182 108 282q106 99 289 99q199 0 303 -108.5t104 -308.5q0 -34 -2 -51h-250v38q0 103 -30 152q-38 63 -132 63 q-136 0 -136 -141q0 -89 162 -198l3 -2l146 -98q157 -107 210 -194q55 -92 55 -234q0 -198 -115 -303q-110 -100 -311 -100q-422 0 -422 447z" />
<glyph unicode="T" horiz-adv-x="908" d="M18 1183v234h872v-234h-304v-1183h-264v1183h-304z" />
<glyph unicode="U" horiz-adv-x="1125" d="M121 439v978h264v-955q0 -138 24 -194q40 -87 158 -87q117 0 155 89q24 56 24 196v951h260v-978q0 -232 -69 -324q-115 -149 -374 -149q-248 0 -349 113q-93 106 -93 360z" />
<glyph unicode="V" horiz-adv-x="1030" d="M25 1417h282l211 -1131l190 1131h279l-297 -1417h-347z" />
<glyph unicode="W" horiz-adv-x="1542" d="M34 1417h273l173 -1074l185 1074h219l203 -1095l151 1095h271l-258 -1417h-313l-163 895l-151 -895h-315z" />
<glyph unicode="X" horiz-adv-x="1032" d="M17 0l346 723l-329 694h297l189 -446l192 446h294l-341 -694l351 -723h-298l-206 473l-208 -473h-287z" />
<glyph unicode="Y" horiz-adv-x="1035" d="M17 1417h292l214 -533l212 533h284l-365 -816v-601h-266v601z" />
<glyph unicode="Z" horiz-adv-x="911" d="M56 0v239l498 957h-473v221h753v-218l-491 -960h513v-239h-800z" />
<glyph unicode="[" horiz-adv-x="618" d="M147 -385v1802h378v-157h-146v-1488h146v-157h-378z" />
<glyph unicode="\" horiz-adv-x="578" d="M-56 1451h139l532 -1626h-140z" />
<glyph unicode="]" horiz-adv-x="618" d="M72 -228h149v1488h-149v157h378v-1802h-378v157z" />
<glyph unicode="^" horiz-adv-x="1884" d="M383 827l442 516h232l443 -516h-217l-341 341l-343 -341h-216z" />
<glyph unicode="_" d="M0 -257h942v-187h-942v187z" />
<glyph unicode="`" d="M205 1440h236l160 -262h-115z" />
<glyph unicode="a" horiz-adv-x="913" d="M85 281q0 146 80 231q59 65 214 134q14 6 50 22q144 62 144 144q0 105 -109 105q-131 0 -131 -148v-21h-239q0 184 94 267q88 76 276 76q191 0 269 -73q81 -76 81 -265v-600q0 -87 36 -153h-239q-15 21 -27 103q-79 -132 -243 -132q-129 0 -197 92q-59 82 -59 218z M339 302q0 -138 109 -138q129 0 129 224v170q-113 -58 -158 -97q-80 -69 -80 -159z" />
<glyph unicode="b" horiz-adv-x="915" d="M108 0v1417h246v-443q62 119 209 119q188 0 246 -206q29 -104 29 -360q0 -248 -32 -355q-61 -201 -248 -201q-157 0 -217 140v-111h-233zM347 488q0 -156 8 -195q24 -118 120 -118q89 0 108 145q5 31 5 209q0 185 -4 211q-19 146 -109 146q-101 0 -124 -164 q-4 -33 -4 -234z" />
<glyph unicode="c" horiz-adv-x="855" d="M75 532q0 272 50 385q78 176 310 176q343 0 343 -358v-38h-235v24q0 182 -106 182q-108 0 -108 -180v-367q0 -88 13 -128q23 -68 93 -68q77 0 100 87q11 41 11 149v23l232 -1q2 -22 2 -60q0 -387 -345 -387q-232 0 -310 176q-50 112 -50 385z" />
<glyph unicode="d" horiz-adv-x="915" d="M77 527q0 255 30 359q59 207 245 207q149 0 209 -119v443h248v-1417h-234v111q-62 -140 -217 -140q-188 0 -249 201q-32 108 -32 355zM328 548q0 -193 2 -218q21 -155 111 -155q93 0 117 107q11 43 11 182q0 221 -3 246q-22 176 -125 176q-88 0 -109 -137q-4 -33 -4 -201 z" />
<glyph unicode="e" horiz-adv-x="897" d="M77 567q0 152 9 216q16 131 72 199q92 111 296 111q197 0 288 -121q74 -97 74 -393v-81h-484q-3 -18 -3 -68q0 -119 13 -170q27 -104 111 -104q124 0 124 209h232q0 -7 1 -20.5t1 -20.5q0 -184 -88.5 -268.5t-274.5 -84.5q-192 0 -277 103q-67 81 -85 236q-9 68 -9 257z M328 697q1 -15 1 -30h240v45q0 92 -17 131q-26 61 -104 61q-65 0 -93 -42q-28 -44 -28 -121q0 -14 1 -29v-15z" />
<glyph unicode="f" horiz-adv-x="517" d="M34 881v183h96v106q0 132 48 189q52 63 180 63q49 0 119 -5v-185q-4 0 -12.5 1t-11.5 1q-76 0 -76 -71v-99h100v-183h-100v-881h-247v881h-96z" />
<glyph unicode="g" horiz-adv-x="915" d="M77 537q0 248 32 355q61 201 249 201q156 0 217 -140v111h234v-979q0 -230 -59 -317q-87 -126 -322 -126q-324 0 -328 241h244q6 -66 91 -66q81 0 109 63q17 41 17 137v73q-61 -119 -201 -119q-193 0 -252 204q-31 102 -31 362zM328 514q0 -166 4 -198q21 -137 109 -137 q103 0 125 175q3 25 3 247q0 139 -11 181q-24 108 -117 108q-90 0 -111 -157q-2 -25 -2 -219z" />
<glyph unicode="h" horiz-adv-x="913" d="M108 0v1417h244v-454q68 130 219 130q240 0 240 -257v-836h-238v714q0 81 -11 112q-20 55 -85 55q-80 0 -107 -67q-18 -41 -18 -136v-678h-244z" />
<glyph unicode="i" horiz-adv-x="456" d="M106 0v1064h245v-1064h-245zM106 1196v221h245v-221h-245z" />
<glyph unicode="j" horiz-adv-x="472" d="M34 -153q64 0 79 25q11 18 11 88v1104h241v-1107q0 -185 -35 -241q-48 -76 -215 -76q-37 0 -81 6v201zM122 1196v221h243v-221h-243z" />
<glyph unicode="k" horiz-adv-x="814" d="M108 0v1417h239v-741l220 388h258l-266 -406l270 -658h-268l-154 426l-60 -95v-331h-239z" />
<glyph unicode="l" horiz-adv-x="456" d="M106 0v1417h245v-1417h-245z" />
<glyph unicode="m" horiz-adv-x="1414" d="M109 0v1064h229v-122q42 85 103 119q57 32 154 32q167 0 219 -134q91 134 245 134q254 0 254 -275v-818h-241v680q0 103 -13 137q-25 63 -108 63q-76 0 -102 -64q-16 -40 -16 -131v-685h-243v692q0 89 -15 127q-24 61 -98 61q-125 0 -125 -184v-696h-243z" />
<glyph unicode="n" horiz-adv-x="913" d="M108 0v1064h241v-107q78 136 222 136q240 0 240 -257v-836h-238v714q0 170 -104 170q-115 0 -115 -206v-678h-246z" />
<glyph unicode="o" horiz-adv-x="900" d="M75 532q0 275 55 390q81 171 320 171t321 -171q54 -114 54 -390t-54 -390q-82 -171 -321 -171t-320 172q-55 114 -55 389zM328 518q0 -198 2 -215q20 -143 118 -143t121 122q4 27 4 200v104q0 162 -6 195q-22 122 -117 122q-92 0 -115 -107q-7 -34 -7 -180v-98z" />
<glyph unicode="p" horiz-adv-x="915" d="M108 -358v1422h233v-111q59 140 217 140q187 0 248 -201q32 -106 32 -355q0 -255 -29 -359q-58 -207 -246 -207q-147 0 -209 119v-448h-246zM347 577q0 -202 4 -235q23 -163 124 -163q90 0 109 147q4 25 4 209q0 179 -5 209q-19 146 -108 146q-96 0 -120 -119 q-8 -39 -8 -194z" />
<glyph unicode="q" horiz-adv-x="915" d="M77 537q0 248 32 355q61 201 249 201q156 0 217 -140v111h234v-1422h-248v448q-60 -119 -209 -119q-186 0 -245 207q-30 104 -30 359zM328 514q0 -166 4 -198q21 -137 109 -137q103 0 125 175q3 25 3 247q0 139 -11 181q-24 108 -117 108q-90 0 -111 -157q-2 -25 -2 -219 z" />
<glyph unicode="r" horiz-adv-x="636" d="M109 0v1064h236v-173q94 199 248 201v-299q-27 4 -61 4q-79 0 -125.5 -47t-46.5 -126v-624h-251z" />
<glyph unicode="s" horiz-adv-x="828" d="M68 313q0 7 1 20.5t1 20.5h222v-30q0 -169 121 -169q110 0 110 104q0 60 -118 139q-19 12 -47 32l-11 8q-272 203 -272 364q0 291 344 291q323 0 323 -332v-22h-217v22q0 149 -122 149q-101 0 -101 -92q0 -49 46 -94q20 -19 87 -64q16 -11 56 -38q268 -178 268 -354 q0 -151 -101 -228q-91 -69 -248 -69q-342 0 -342 342z" />
<glyph unicode="t" horiz-adv-x="512" d="M25 881v183h96v291h246v-291h102v-183h-102v-559q0 -69 7 -90q15 -42 69 -42h13q9 1 13 1v-191q-89 -9 -131 -9q-134 0 -179 61q-38 50 -38 191v638h-96z" />
<glyph unicode="u" horiz-adv-x="911" d="M104 228v836h237v-695q0 -86 13 -122q23 -64 92 -64q75 0 100 69q13 40 13 133v679h248v-1064h-242v106q-76 -135 -224 -135q-237 0 -237 257z" />
<glyph unicode="v" horiz-adv-x="836" d="M21 1064h261l142 -814l135 814h255l-245 -1064h-301z" />
<glyph unicode="w" horiz-adv-x="1233" d="M25 1064h257l114 -787l120 787h202l143 -798l102 798h245l-205 -1064h-264l-121 633l-96 -633h-270z" />
<glyph unicode="x" horiz-adv-x="823" d="M13 0l280 545l-268 519h280l115 -265l115 265h269l-263 -519l270 -545h-274l-122 284l-123 -284h-279z" />
<glyph unicode="y" horiz-adv-x="836" d="M18 1064h261l147 -768l143 768h249l-277 -1164q-34 -143 -90 -196q-64 -60 -203 -60q-40 0 -86 7v184q6 0 19 -1h20q101 0 101 72q0 20 -10 61z" />
<glyph unicode="z" horiz-adv-x="721" d="M40 0v196l359 661h-356v207h633v-178l-371 -677h375v-209h-640z" />
<glyph unicode="{" d="M145 392v192q7 0 19.5 -1t18.5 -1q116 0 163 61q42 53 42 173v230q0 104 12 151q20 83 84 119q79 45 258 45q12 0 35 -1t35 -1v-192q-7 0 -21.5 0.5t-21.5 0.5q-99 0 -131 -43q-27 -37 -27 -142v-220q0 -126 -35 -182q-41 -67 -156 -93q115 -27 156 -92q35 -56 35 -182 v-221q0 -105 27 -141q32 -42 131 -42q7 0 21.5 0.5t21.5 0.5v-192q-12 0 -35 -1t-35 -1q-179 0 -258 45q-64 36 -84 118q-12 47 -12 150v232q0 120 -42 173q-47 59 -163 59q-6 0 -18.5 -1t-19.5 -1z" />
<glyph unicode="|" d="M377 -444v1884h190v-1884h-190z" />
<glyph unicode="}" d="M132 -189q7 0 21 -0.5t22 -0.5q98 0 130 43q28 36 28 140v220q0 126 34 183q41 66 156 92q-115 26 -155 93q-35 56 -35 182v222q0 104 -28 140q-32 43 -130 43q-8 0 -22 -0.5t-21 -0.5v192h62q185 0 266 -46q63 -36 84 -117q12 -47 12 -150v-232q0 -119 42 -173 q47 -59 163 -59q6 0 18.5 1t19.5 1v-192h-34q-119 0 -166 -57q-43 -52 -43 -173v-232q0 -104 -11 -150q-21 -83 -85 -118q-82 -45 -259 -45q-11 0 -34 1t-35 1v192z" />
<glyph unicode="~" horiz-adv-x="1569" d="M164 385v203q196 131 356 131q54 0 268 -53l3 -1q5 -1 51 -17q142 -51 221 -51q150 0 345 142v-204q-186 -127 -349 -127q-83 0 -169 29q-19 6 -66 23q-199 69 -306 69q-152 0 -354 -144z" />
<glyph d="M-41 775l58 129h82q4 547 401 547q378 0 380 -433h-264v11q0 228 -128 228q-90 0 -114 -145q-11 -56 -11 -208h353l-58 -129h-295v-133h236l-58 -130h-177q1 -161 10 -210q26 -142 120 -142q122 0 122 237v25h264v-28q0 -428 -380 -428q-397 0 -401 546h-117l58 130h60 v133h-141z" />
<glyph unicode="&#xa0;" />
<glyph unicode="&#xa1;" horiz-adv-x="550" d="M147 0v460l47 588h158l47 -588v-460h-252zM153 1163v254h241v-254h-241z" />
<glyph unicode="&#xa2;" d="M133 569q0 253 25 340q53 180 234 204v257h167v-257q240 -31 240 -338q0 -37 -2 -57h-236v45q0 79 -8 106q-17 57 -76 57q-73 0 -90 -100q-4 -24 -4 -153v-238q0 -120 4 -148q17 -97 86 -97q65 0 83 81q7 32 7 132v40h232q0 -10 1 -27t1 -26q0 -370 -238 -390v-302h-167 v302q-181 23 -234 217q-25 93 -25 352z" />
<glyph unicode="&#xa3;" d="M66 151q191 131 191 316q0 59 -16 134h-175v130h117q-87 142 -87 315q0 178 111 281q108 99 287 99q386 0 386 -374q0 -39 -2 -61h-236v34q0 209 -148 209q-147 0 -147 -198q0 -137 86 -305h268v-130h-223q11 -39 11 -79q0 -177 -207 -349q98 55 184 55q39 0 116.5 -18 t116.5 -18q67 0 155 58l54 -205q-95 -68 -224 -68q-59 0 -174.5 27.5t-170.5 27.5q-86 0 -204 -59z" />
<glyph unicode="&#xa4;" d="M-41 775l58 129h82q4 547 401 547q378 0 380 -433h-264v11q0 228 -128 228q-90 0 -114 -145q-11 -56 -11 -208h353l-58 -129h-295v-133h236l-58 -130h-177q1 -161 10 -210q26 -142 120 -142q122 0 122 237v25h264v-28q0 -428 -380 -428q-397 0 -401 546h-117l58 130h60 v133h-141z" />
<glyph unicode="&#xa5;" horiz-adv-x="1047" d="M30 1400h262l237 -546l232 546h255l-198 -429h187v-133h-246l-60 -130h306v-131h-355v-577h-247v577h-358v131h307l-59 130h-248v133h187z" />
<glyph unicode="&#xa6;" d="M377 -322v697h190v-697h-190zM377 620v697h190v-697h-190z" />
<glyph unicode="&#xa7;" d="M72 697q0 186 175 236q-107 74 -107 218q0 154 104 232q92 68 252 68q331 0 331 -290q0 -5 -1 -15t-1 -15h-230v13q0 122 -109 122t-109 -88q0 -79 124 -165q8 -6 21 -15l138 -97q109 -78 149 -127q61 -77 61 -181q0 -180 -173 -228q119 -69 119 -267q0 -294 -366 -294 q-342 0 -342 307q0 7 0.5 20t0.5 20h234q0 -5 -1 -14.5t-1 -14.5q0 -124 125 -124q118 0 118 106q0 34 -19 63q-18 23 -92 80l-228 172q-90 68 -125 117q-48 68 -48 161zM290 739q0 -72 215 -223q4 -3 79 -56q68 40 68 109q0 54 -81 113l-206 151q-75 -39 -75 -94z" />
<glyph unicode="&#xa8;" d="M213 1199v218h202v-218h-202zM527 1199v218h203v-218h-203z" />
<glyph unicode="&#xa9;" horiz-adv-x="1569" d="M102 674q0 283 202 487q196 200 480 200q286 0 487 -202q198 -198 198 -485q0 -285 -198 -478q-209 -205 -487 -205q-276 0 -480 203q-202 201 -202 480zM214 676q0 -234 168 -402t404 -168q234 0 406 169q165 162 165 401q0 238 -167 405t-404 167q-240 0 -403 -166 q-169 -170 -169 -406zM417 671q0 181 93 294q100 121 278 121q130 0 220 -65q100 -71 107 -196h-173q-16 135 -158 135q-99 0 -145 -99q-35 -73 -35 -185q0 -277 187 -277q139 0 157 148l177 1q-7 -135 -107 -211q-93 -71 -232 -71q-178 0 -276 115q-93 108 -93 290z" />
<glyph unicode="&#xaa;" horiz-adv-x="685" d="M64 868q0 105 62 166q44 44 158 91q4 2 37 15q109 43 109 102q0 74 -81 74q-99 0 -99 -104v-16h-178q0 132 73 190q66 50 204 50q139 0 197 -48q65 -52 65 -187v-421q0 -58 26 -107h-180q-10 16 -18 73q-59 -92 -182 -92q-193 0 -193 214zM254 884q0 -96 84 -96 q95 0 95 156v119q-84 -41 -117 -67q-62 -48 -62 -112z" />
<glyph unicode="&#xab;" horiz-adv-x="909" d="M126 437v190l289 261v-204l-178 -150l178 -153v-203zM496 437v190l288 261v-204l-178 -150l178 -153v-203z" />
<glyph unicode="&#xac;" horiz-adv-x="1569" d="M234 615v180h1102v-462h-183v282h-919z" />
<glyph unicode="&#xad;" horiz-adv-x="618" d="M85 422v220h449v-220h-449z" />
<glyph unicode="&#xae;" horiz-adv-x="1569" d="M102 674q0 188 99 356q93 158 246.5 244.5t336.5 86.5q288 0 491 -206q194 -197 194 -481q0 -288 -201 -484q-205 -199 -484 -199q-282 0 -486 207q-196 199 -196 476zM214 676q0 -233 165 -399q171 -173 405 -173q230 0 405 167q168 161 168 394q0 244 -163 410 q-168 173 -408 173q-236 0 -398 -162q-174 -174 -174 -410zM501 309v759h298q324 0 324 -218q0 -160 -166 -201l170 -340h-206l-145 311h-91v-311h-184zM685 731h91q157 0 157 107q0 113 -166 113h-82v-220z" />
<glyph unicode="&#xaf;" d="M232 1234v149h478v-149h-478z" />
<glyph unicode="&#xb0;" horiz-adv-x="620" d="M32 1066q0 117 81 199t198 82t198 -82t81 -199t-82 -197.5t-199 -80.5t-197 80.5t-80 197.5zM149 1068q0 -68 47 -115t115 -47q66 0 113 47.5t47 114.5q0 66 -47 113t-113 47q-67 0 -114.5 -46.5t-47.5 -113.5z" />
<glyph unicode="&#xb1;" horiz-adv-x="1569" d="M234 -2v183h1102v-183h-1102zM234 642v183h458v300h186v-300h458v-183h-458v-299h-186v299h-458z" />
<glyph unicode="&#xb2;" horiz-adv-x="621" d="M52 559v27q0 197 180 363q49 41 128 123q37 50 37 118q0 108 -88 108t-88 -135v-32h-163q0 4 -1 14t-1 14q0 256 259 256q258 0 258 -216q0 -95 -50 -170q-21 -32 -92 -98q-19 -17 -48 -45q-61 -61 -86 -88q-52 -60 -67 -102h331v-137h-509z" />
<glyph unicode="&#xb3;" horiz-adv-x="621" d="M49 812q0 6 1 17.5t1 16.5h163v-12q0 -77 12 -111q21 -58 83 -58q61 0 80 50q12 30 12 103q0 81 -22 108q-25 33 -102 33h-25q-16 -1 -24 -1v110h11q78 0 109 21q38 27 38 100q0 113 -82 113q-83 0 -83 -119v-20h-160q-3 9 -3 31q0 221 253 221q243 0 243 -219 q0 -148 -110 -177q131 -31 131 -201q0 -273 -271 -273q-255 0 -255 267z" />
<glyph unicode="&#xb4;" d="M341 1178l160 262h236l-281 -262h-115z" />
<glyph unicode="&#xb6;" d="M38 1040q0 152 106 240q98 81 253 81h507v-102h-104v-1259h-139v1259h-145v-1259h-141v721q-147 6 -240 88q-97 86 -97 231z" />
<glyph unicode="&#xb7;" horiz-adv-x="471" d="M88 697q0 62 43 105t105 43q59 0 103 -44t44 -104t-43.5 -102.5t-103.5 -42.5q-62 0 -105 42t-43 103z" />
<glyph unicode="&#xb8;" d="M250 -293q147 -25 196 -25q79 0 79 66q0 56 -95 56h-22v196h106v-76q185 -17 185 -178q0 -192 -233 -192q-79 0 -216 26v127z" />
<glyph unicode="&#xb9;" horiz-adv-x="621" d="M54 1159l1 100q234 5 256 156h115v-856h-164v600h-208z" />
<glyph unicode="&#xba;" horiz-adv-x="676" d="M56 1044q0 197 44 279q61 115 238 115q175 0 238 -115q44 -82 44 -279t-44 -278q-62 -112 -238 -112q-177 0 -238 112q-44 81 -44 278zM247 1036q0 -142 1 -154q15 -96 90 -96q72 0 88 83q4 20 4 141v74q0 114 -5 138q-17 82 -87 82q-68 0 -86 -72q-5 -24 -5 -128v-68z " />
<glyph unicode="&#xbb;" horiz-adv-x="909" d="M126 178v203l178 153l-178 150v204l289 -261v-190zM496 178v203l177 153l-177 150v204l288 -261v-190z" />
<glyph unicode="&#xbc;" horiz-adv-x="1501" d="M52 1176v94q222 3 246 145h109v-799h-157v560h-198zM279 -27l798 1453h144l-801 -1453h-141zM948 156v128l265 500h170v-509h75v-119h-75v-156h-153v156h-282zM1068 271h166v324z" />
<glyph unicode="&#xbd;" horiz-adv-x="1501" d="M52 1176v94q222 3 246 145h109v-799h-157v560h-198zM279 -27l798 1453h144l-801 -1453h-141zM957 25q0 180 172 338q13 12 48 43q45 37 60 54q31 33 42 69q8 27 8 61q0 100 -83 100q-84 0 -84 -127v-29h-155q0 4 -1 12.5t-1 12.5q0 240 245 240q247 0 247 -204 q0 -85 -47 -158q-17 -26 -82 -84q-21 -17 -53 -48l-10 -11q-70 -76 -91 -102q-36 -43 -43 -66h314v-126h-484q0 5 -1 12.5t-1 12.5z" />
<glyph unicode="&#xbe;" horiz-adv-x="1501" d="M47 852q0 5 1 16t1 16h154v-10q0 -160 90 -160q58 0 78 46q12 28 12 97q0 76 -21 103q-25 29 -98 29q-27 0 -47 -2v104h13q72 0 101 19q36 25 36 92q0 105 -77 105q-79 0 -79 -108v-20h-155v31q0 205 242 205q229 0 229 -205q0 -137 -101 -166q122 -29 122 -187 q0 -256 -258 -256q-243 0 -243 251zM279 -27l798 1453h144l-801 -1453h-141zM948 156v128l265 500h170v-509h75v-119h-75v-156h-153v156h-282zM1068 271h166v324z" />
<glyph unicode="&#xbf;" horiz-adv-x="925" d="M98 328q0 126 57 217q32 50 96 127q77 91 101 123q65 88 65 210q0 5 -1 16t-1 17h222q1 -22 1 -64q0 -181 -111 -325q-19 -26 -48 -58q-123 -143 -123 -276q0 -151 115 -151q122 0 122 183v34h232v-36q0 -179 -91 -277q-95 -100 -272 -100q-169 0 -266.5 95t-97.5 265z M403 1172v245h235v-245h-235z" />
<glyph unicode="&#xc0;" horiz-adv-x="1030" d="M17 0l319 1417h354l322 -1417h-284l-70 356h-304l-68 -356h-269zM250 1798h236l160 -262h-115zM396 569h224l-113 594z" />
<glyph unicode="&#xc1;" horiz-adv-x="1030" d="M17 0l319 1417h354l322 -1417h-284l-70 356h-304l-68 -356h-269zM386 1536l160 262h236l-281 -262h-115zM396 569h224l-113 594z" />
<glyph unicode="&#xc2;" horiz-adv-x="1030" d="M17 0l319 1417h354l322 -1417h-284l-70 356h-304l-68 -356h-269zM262 1489l160 262h188l160 -262h-114l-140 138l-140 -138h-114zM396 569h224l-113 594z" />
<glyph unicode="&#xc3;" horiz-adv-x="1030" d="M17 0l319 1417h354l322 -1417h-284l-70 356h-304l-68 -356h-269zM258 1547q36 213 164 213q31 0 56 -7l102 -31q18 -5 44 -5q55 0 70 69h81q-34 -218 -172 -218q-22 0 -47 7l-112 32q-19 6 -30 6q-61 0 -76 -66h-80zM396 569h224l-113 594z" />
<glyph unicode="&#xc4;" horiz-adv-x="1030" d="M17 0l319 1417h354l322 -1417h-284l-70 356h-304l-68 -356h-269zM258 1557v218h202v-218h-202zM396 569h224l-113 594zM572 1557v218h203v-218h-203z" />
<glyph unicode="&#xc5;" horiz-adv-x="1030" d="M17 0l319 1397h354l322 -1397h-284l-70 356h-304l-68 -356h-269zM328 1630q0 77 54 130.5t130 53.5q78 0 131 -53t53 -131q0 -77 -53 -131t-131 -54q-77 0 -130.5 54t-53.5 131zM396 569h224l-113 594zM437 1630q0 -30 22.5 -51.5t52.5 -21.5q32 0 52 21t20 52 q0 71 -72 71q-30 0 -52.5 -20t-22.5 -51z" />
<glyph unicode="&#xc6;" horiz-adv-x="1441" d="M-41 0l537 1417h870v-236h-454v-329h424v-221h-424v-394h458v-237h-710v362h-300l-121 -362h-280zM428 563h232v618h-34z" />
<glyph unicode="&#xc7;" horiz-adv-x="1032" d="M92 725q0 418 72 541q107 185 358 185q226 0 324 -126q88 -113 88 -347h-256v34q0 228 -151 228q-95 0 -136 -104q-30 -76 -32 -217q4 369 4 -189q0 -1221 -5 -198q1 -152 31 -237q41 -114 136 -114q107 0 141 108q18 56 18 197v19h256q0 -9 1 -27.5t1 -27.5 q0 -484 -420 -484q-195 0 -299 108q-93 96 -120 311q-11 92 -11 340zM295 -293q147 -25 196 -25q79 0 79 66q0 56 -95 56h-22v196h106v-76q185 -17 185 -178q0 -192 -233 -192q-79 0 -216 26v127z" />
<glyph unicode="&#xc8;" horiz-adv-x="932" d="M121 0v1417h727v-236h-465v-327h433v-225h-433v-390h476v-239h-738zM211 1798h236l160 -262h-115z" />
<glyph unicode="&#xc9;" horiz-adv-x="932" d="M121 0v1417h727v-236h-465v-327h433v-225h-433v-390h476v-239h-738zM347 1536l160 262h236l-281 -262h-115z" />
<glyph unicode="&#xca;" horiz-adv-x="932" d="M121 0v1417h727v-236h-465v-327h433v-225h-433v-390h476v-239h-738zM223 1489l160 262h188l160 -262h-114l-140 138l-140 -138h-114z" />
<glyph unicode="&#xcb;" horiz-adv-x="932" d="M121 0v1417h727v-236h-465v-327h433v-225h-433v-390h476v-239h-738zM219 1557v218h202v-218h-202zM533 1557v218h203v-218h-203z" />
<glyph unicode="&#xcc;" horiz-adv-x="505" d="M-14 1798h236l160 -262h-115zM121 0v1417h264v-1417h-264z" />
<glyph unicode="&#xcd;" horiz-adv-x="505" d="M121 0v1417h264v-1417h-264zM122 1536l160 262h236l-281 -262h-115z" />
<glyph unicode="&#xce;" horiz-adv-x="505" d="M-2 1536l160 262h188l160 -262h-114l-140 138l-140 -138h-114zM121 0v1417h264v-1417h-264z" />
<glyph unicode="&#xcf;" horiz-adv-x="505" d="M-6 1557v218h202v-218h-202zM121 0v1417h264v-1417h-264zM308 1557v218h203v-218h-203z" />
<glyph unicode="&#xd0;" horiz-adv-x="1111" d="M-7 658v188h131v571h424q238 0 333 -94q91 -90 121 -248q17 -92 17 -280q0 -232 -9 -327q-18 -196 -84 -312q-60 -105 -193 -138q-73 -18 -245 -18h-364v658h-131zM383 209h118q142 0 181 57q68 101 68 459q0 162 -8 229q-16 152 -71 213q-40 43 -173 43h-115v-364h212 v-188h-212v-449z" />
<glyph unicode="&#xd1;" horiz-adv-x="1123" d="M121 0v1417h271l369 -991l-8 991h250v-1417h-270l-371 993l7 -993h-248zM303 1547q36 213 164 213q31 0 56 -7l102 -31q18 -5 44 -5q55 0 70 69h81q-34 -218 -172 -218q-22 0 -47 7l-112 32q-19 6 -30 6q-61 0 -76 -66h-80z" />
<glyph unicode="&#xd2;" horiz-adv-x="1105" d="M92 708q0 428 87 563q67 103 160 144q81 36 213 36t213 -36q95 -42 161 -144q86 -133 86 -563q0 -427 -86 -563q-66 -101 -161 -143q-81 -36 -213 -36t-213 36q-93 41 -160 143q-87 136 -87 563zM288 1798h236l160 -262h-115zM359 913q3 89 3 -205q0 -277 -2 -204 q3 -143 40 -222q48 -104 154 -104q105 0 152 104q36 79 39 223q-3 -100 -3 203q0 294 3 205q-4 144 -39 223q-48 106 -154 106t-154 -106q-35 -79 -39 -223z" />
<glyph unicode="&#xd3;" horiz-adv-x="1105" d="M92 708q0 428 87 563q67 103 160 144q81 36 213 36t213 -36q95 -42 161 -144q86 -133 86 -563q0 -427 -86 -563q-66 -101 -161 -143q-81 -36 -213 -36t-213 36q-93 41 -160 143q-87 136 -87 563zM359 913q3 89 3 -205q0 -277 -2 -204q3 -143 40 -222q48 -104 154 -104 q105 0 152 104q36 79 39 223q-3 -100 -3 203q0 294 3 205q-4 144 -39 223q-48 106 -154 106t-154 -106q-35 -79 -39 -223zM424 1536l160 262h236l-281 -262h-115z" />
<glyph unicode="&#xd4;" horiz-adv-x="1105" d="M92 708q0 428 87 563q67 103 160 144q81 36 213 36t213 -36q95 -42 161 -144q86 -133 86 -563q0 -427 -86 -563q-66 -101 -161 -143q-81 -36 -213 -36t-213 36q-93 41 -160 143q-87 136 -87 563zM300 1489l160 262h188l160 -262h-114l-140 138l-140 -138h-114zM359 913 q3 89 3 -205q0 -277 -2 -204q3 -143 40 -222q48 -104 154 -104q105 0 152 104q36 79 39 223q-3 -100 -3 203q0 294 3 205q-4 144 -39 223q-48 106 -154 106t-154 -106q-35 -79 -39 -223z" />
<glyph unicode="&#xd5;" horiz-adv-x="1105" d="M92 708q0 428 87 563q67 103 160 144q81 36 213 36t213 -36q95 -42 161 -144q86 -133 86 -563q0 -427 -86 -563q-66 -101 -161 -143q-81 -36 -213 -36t-213 36q-93 41 -160 143q-87 136 -87 563zM296 1547q36 213 164 213q31 0 56 -7l102 -31q18 -5 44 -5q55 0 70 69h81 q-34 -218 -172 -218q-22 0 -47 7l-112 32q-19 6 -30 6q-61 0 -76 -66h-80zM359 913q3 89 3 -205q0 -277 -2 -204q3 -143 40 -222q48 -104 154 -104q105 0 152 104q36 79 39 223q-3 -100 -3 203q0 294 3 205q-4 144 -39 223q-48 106 -154 106t-154 -106q-35 -79 -39 -223z " />
<glyph unicode="&#xd6;" horiz-adv-x="1105" d="M92 708q0 428 87 563q67 103 160 144q81 36 213 36t213 -36q95 -42 161 -144q86 -133 86 -563q0 -427 -86 -563q-66 -101 -161 -143q-81 -36 -213 -36t-213 36q-93 41 -160 143q-87 136 -87 563zM296 1557v218h202v-218h-202zM359 913q3 89 3 -205q0 -277 -2 -204 q3 -143 40 -222q48 -104 154 -104q105 0 152 104q36 79 39 223q-3 -100 -3 203q0 294 3 205q-4 144 -39 223q-48 106 -154 106t-154 -106q-35 -79 -39 -223zM610 1557v218h203v-218h-203z" />
<glyph unicode="&#xd7;" horiz-adv-x="1569" d="M254 147l415 414l-415 417l129 128l414 -414l415 414l129 -128l-414 -417l414 -414l-129 -129l-415 415l-414 -415z" />
<glyph unicode="&#xd8;" horiz-adv-x="1105" d="M34 -11l122 201q-64 163 -64 520q0 438 91 573q112 168 365 168q213 0 324 -110l76 126l120 -77l-108 -178q56 -175 56 -534q0 -409 -101 -556q-63 -93 -160 -128q-76 -28 -207 -28q-198 0 -303 95l-92 -147zM357 887q5 225 5 -218v-61l3 -101l358 577q-13 158 -165 158 q-112 0 -161 -114q-36 -86 -40 -241zM386 311q20 -133 155 -133q153 0 191 182q12 60 12 303q0 142 -3 221z" />
<glyph unicode="&#xd9;" horiz-adv-x="1125" d="M121 439v978h264v-955q0 -138 24 -194q40 -87 158 -87q117 0 155 89q24 56 24 196v951h260v-978q0 -232 -69 -324q-115 -149 -374 -149q-248 0 -349 113q-93 106 -93 360zM297 1798h236l160 -262h-115z" />
<glyph unicode="&#xda;" horiz-adv-x="1125" d="M121 439v978h264v-955q0 -138 24 -194q40 -87 158 -87q117 0 155 89q24 56 24 196v951h260v-978q0 -232 -69 -324q-115 -149 -374 -149q-248 0 -349 113q-93 106 -93 360zM433 1536l160 262h236l-281 -262h-115z" />
<glyph unicode="&#xdb;" horiz-adv-x="1125" d="M121 439v978h264v-955q0 -138 24 -194q40 -87 158 -87q117 0 155 89q24 56 24 196v951h260v-978q0 -232 -69 -324q-115 -149 -374 -149q-248 0 -349 113q-93 106 -93 360zM309 1536l160 262h188l160 -262h-114l-140 138l-140 -138h-114z" />
<glyph unicode="&#xdc;" horiz-adv-x="1125" d="M121 439v978h264v-955q0 -138 24 -194q40 -87 158 -87q117 0 155 89q24 56 24 196v951h260v-978q0 -232 -69 -324q-115 -149 -374 -149q-248 0 -349 113q-93 106 -93 360zM305 1557v218h202v-218h-202zM619 1557v218h203v-218h-203z" />
<glyph unicode="&#xdd;" horiz-adv-x="1035" d="M17 1417h292l214 -533l212 533h284l-365 -816v-601h-266v601zM388 1536l160 262h236l-281 -262h-115z" />
<glyph unicode="&#xde;" horiz-adv-x="1026" d="M121 0v1417h262v-254h196q207 0 300 -93.5t93 -300.5q0 -422 -397 -422h-192v-347h-262zM375 543h111q120 0 171 46t51 164q0 122 -47.5 166t-171.5 44h-114v-420z" />
<glyph unicode="&#xdf;" horiz-adv-x="915" d="M108 0v1003q0 206 65 302q79 117 273 117q354 0 354 -340q0 -213 -131 -271q164 -74 164 -394q0 -430 -274 -430q-76 0 -122 25v183q39 -17 59 -17q68 0 86 105q6 35 6 156q0 127 -12 172q-26 101 -114 101h-14l1 169q7 -1 20 -1q96 0 96 175q0 181 -111 181 q-69 0 -93 -65q-14 -38 -14 -125v-1046h-239z" />
<glyph unicode="&#xe0;" horiz-adv-x="913" d="M85 281q0 146 80 231q59 65 214 134q14 6 50 22q144 62 144 144q0 105 -109 105q-131 0 -131 -148v-21h-239q0 184 94 267q88 76 276 76q191 0 269 -73q81 -76 81 -265v-600q0 -87 36 -153h-239q-15 21 -27 103q-79 -132 -243 -132q-129 0 -197 92q-59 82 -59 218z M192 1440h236l160 -262h-115zM339 302q0 -138 109 -138q129 0 129 224v170q-113 -58 -158 -97q-80 -69 -80 -159z" />
<glyph unicode="&#xe1;" horiz-adv-x="913" d="M85 281q0 146 80 231q59 65 214 134q14 6 50 22q144 62 144 144q0 105 -109 105q-131 0 -131 -148v-21h-239q0 184 94 267q88 76 276 76q191 0 269 -73q81 -76 81 -265v-600q0 -87 36 -153h-239q-15 21 -27 103q-79 -132 -243 -132q-129 0 -197 92q-59 82 -59 218z M328 1178l160 262h236l-281 -262h-115zM339 302q0 -138 109 -138q129 0 129 224v170q-113 -58 -158 -97q-80 -69 -80 -159z" />
<glyph unicode="&#xe2;" horiz-adv-x="913" d="M85 281q0 146 80 231q59 65 214 134q14 6 50 22q144 62 144 144q0 105 -109 105q-131 0 -131 -148v-21h-239q0 184 94 267q88 76 276 76q191 0 269 -73q81 -76 81 -265v-600q0 -87 36 -153h-239q-15 21 -27 103q-79 -132 -243 -132q-129 0 -197 92q-59 82 -59 218z M204 1178l160 262h188l160 -262h-114l-140 138l-140 -138h-114zM339 302q0 -138 109 -138q129 0 129 224v170q-113 -58 -158 -97q-80 -69 -80 -159z" />
<glyph unicode="&#xe3;" horiz-adv-x="913" d="M85 281q0 146 80 231q59 65 214 134q14 6 50 22q144 62 144 144q0 105 -109 105q-131 0 -131 -148v-21h-239q0 184 94 267q88 76 276 76q191 0 269 -73q81 -76 81 -265v-600q0 -87 36 -153h-239q-15 21 -27 103q-79 -132 -243 -132q-129 0 -197 92q-59 82 -59 218z M200 1189q36 213 164 213q31 0 56 -7l102 -31q18 -5 44 -5q55 0 70 69h81q-34 -218 -172 -218q-22 0 -47 7l-112 32q-19 6 -30 6q-61 0 -76 -66h-80zM339 302q0 -138 109 -138q129 0 129 224v170q-113 -58 -158 -97q-80 -69 -80 -159z" />
<glyph unicode="&#xe4;" horiz-adv-x="913" d="M85 281q0 146 80 231q59 65 214 134q14 6 50 22q144 62 144 144q0 105 -109 105q-131 0 -131 -148v-21h-239q0 184 94 267q88 76 276 76q191 0 269 -73q81 -76 81 -265v-600q0 -87 36 -153h-239q-15 21 -27 103q-79 -132 -243 -132q-129 0 -197 92q-59 82 -59 218z M200 1199v218h202v-218h-202zM339 302q0 -138 109 -138q129 0 129 224v170q-113 -58 -158 -97q-80 -69 -80 -159zM514 1199v218h203v-218h-203z" />
<glyph unicode="&#xe5;" horiz-adv-x="913" d="M85 281q0 146 80 231q59 65 214 134q14 6 50 22q144 62 144 144q0 105 -109 105q-131 0 -131 -148v-21h-239q0 184 94 267q88 76 276 76q191 0 269 -73q81 -76 81 -265v-600q0 -87 36 -153h-239q-15 21 -27 103q-79 -132 -243 -132q-129 0 -197 92q-59 82 -59 218z M302 1328q0 77 53 131t129 54q77 0 131 -53.5t54 -131.5q0 -77 -54 -130.5t-131 -53.5q-76 0 -129 54t-53 130zM339 302q0 -138 109 -138q129 0 129 224v170q-113 -58 -158 -97q-80 -69 -80 -159zM410 1328q0 -29 22 -51t52 -22t52 21.5t22 51.5q0 32 -21.5 52t-52.5 20 q-30 0 -52 -20.5t-22 -51.5z" />
<glyph unicode="&#xe6;" horiz-adv-x="1334" d="M86 284q0 229 219 329q15 6 81 35q177 75 177 159q0 112 -122 112q-121 0 -121 -152v-14h-230v20q0 320 356 320q176 0 261 -72q68 72 210 72q206 0 287 -148q60 -111 60 -339q0 -46 -4 -108h-456v-78q0 -126 9 -166q23 -99 108 -99q108 0 108 197v13h228v-29 q0 -366 -333 -366q-171 0 -257 111q-86 -111 -271 -111q-310 0 -310 314zM331 293q0 -138 108 -138q85 0 112 83q14 44 14 156v162q-9 -7 -34 -21q-200 -123 -200 -242zM804 667h230v30q0 96 -16 138q-25 71 -103 71q-111 0 -111 -201v-38z" />
<glyph unicode="&#xe7;" horiz-adv-x="855" d="M75 532q0 272 50 385q78 176 310 176q343 0 343 -358v-38h-235v24q0 182 -106 182q-108 0 -108 -180v-367q0 -88 13 -128q23 -68 93 -68q77 0 100 87q11 41 11 149v23l232 -1q2 -22 2 -60q0 -387 -345 -387q-232 0 -310 176q-50 112 -50 385zM207 -293q147 -25 196 -25 q79 0 79 66q0 56 -95 56h-22v196h106v-76q185 -17 185 -178q0 -192 -233 -192q-79 0 -216 26v127z" />
<glyph unicode="&#xe8;" horiz-adv-x="897" d="M77 567q0 152 9 216q16 131 72 199q92 111 296 111q197 0 288 -121q74 -97 74 -393v-81h-484q-3 -18 -3 -68q0 -119 13 -170q27 -104 111 -104q124 0 124 209h232q0 -7 1 -20.5t1 -20.5q0 -184 -88.5 -268.5t-274.5 -84.5q-192 0 -277 103q-67 81 -85 236q-9 68 -9 257z M182 1440h236l160 -262h-115zM328 697q1 -15 1 -30h240v45q0 92 -17 131q-26 61 -104 61q-65 0 -93 -42q-33 -52 -27 -150v-15z" />
<glyph unicode="&#xe9;" horiz-adv-x="897" d="M77 567q0 152 9 216q16 131 72 199q92 111 296 111q197 0 288 -121q74 -97 74 -393v-81h-484q-3 -18 -3 -68q0 -119 13 -170q27 -104 111 -104q124 0 124 209h232q0 -7 1 -20.5t1 -20.5q0 -184 -88.5 -268.5t-274.5 -84.5q-192 0 -277 103q-67 81 -85 236q-9 68 -9 257z M318 1178l160 262h236l-281 -262h-115zM328 697q1 -15 1 -30h240v45q0 92 -17 131q-26 61 -104 61q-65 0 -93 -42q-33 -52 -27 -150v-15z" />
<glyph unicode="&#xea;" horiz-adv-x="897" d="M77 567q0 152 9 216q16 131 72 199q92 111 296 111q197 0 288 -121q74 -97 74 -393v-81h-484q-3 -18 -3 -68q0 -119 13 -170q27 -104 111 -104q124 0 124 209h232q0 -7 1 -20.5t1 -20.5q0 -184 -88.5 -268.5t-274.5 -84.5q-192 0 -277 103q-67 81 -85 236q-9 68 -9 257z M194 1178l160 262h188l160 -262h-114l-140 138l-140 -138h-114zM328 697q1 -15 1 -30h240v45q0 92 -17 131q-26 61 -104 61q-65 0 -93 -42q-33 -52 -27 -150v-15z" />
<glyph unicode="&#xeb;" horiz-adv-x="897" d="M77 567q0 152 9 216q16 131 72 199q92 111 296 111q197 0 288 -121q74 -97 74 -393v-81h-484q-3 -18 -3 -68q0 -119 13 -170q27 -104 111 -104q124 0 124 209h232q0 -7 1 -20.5t1 -20.5q0 -184 -88.5 -268.5t-274.5 -84.5q-192 0 -277 103q-67 81 -85 236q-9 68 -9 257z M190 1199v218h202v-218h-202zM328 697q1 -15 1 -30h240v45q0 92 -17 131q-26 61 -104 61q-65 0 -93 -42q-33 -52 -27 -150v-15zM504 1199v218h203v-218h-203z" />
<glyph unicode="&#xec;" horiz-adv-x="456" d="M-38 1440h236l160 -262h-115zM106 0v1064h245v-1064h-245z" />
<glyph unicode="&#xed;" horiz-adv-x="456" d="M98 1178l160 262h236l-281 -262h-115zM106 0v1064h245v-1064h-245z" />
<glyph unicode="&#xee;" horiz-adv-x="456" d="M-26 1178l160 262h188l160 -262h-114l-140 138l-140 -138h-114zM106 0v1064h245v-1064h-245z" />
<glyph unicode="&#xef;" horiz-adv-x="456" d="M-30 1199v218h202v-218h-202zM106 0v1064h245v-1064h-245zM284 1199v218h203v-218h-203z" />
<glyph unicode="&#xf0;" horiz-adv-x="900" d="M75 500q0 231 47 346q73 177 268 177q68 0 121 -43q-70 105 -142 154l-243 -134l-51 98l204 110q-64 40 -130 79l43 130q144 -73 238 -135l237 133l61 -102l-199 -107q170 -126 239 -312q57 -153 57 -394q0 -265 -58 -374q-82 -155 -317 -155t-317 155q-58 110 -58 374z M328 494q0 -181 3 -203q20 -131 117 -131q101 0 122 133q3 20 3 212v72q0 143 -7 178q-23 104 -116 104t-115 -105q-7 -33 -7 -179v-81z" />
<glyph unicode="&#xf1;" horiz-adv-x="913" d="M108 0v1064h241v-107q78 136 222 136q240 0 240 -257v-836h-238v714q0 170 -104 170q-115 0 -115 -206v-678h-246zM200 1189q36 213 164 213q31 0 56 -7l102 -31q18 -5 44 -5q55 0 70 69h81q-34 -218 -172 -218q-22 0 -47 7l-112 32q-19 6 -30 6q-61 0 -76 -66h-80z" />
<glyph unicode="&#xf2;" horiz-adv-x="900" d="M75 532q0 275 55 390q81 171 320 171t321 -171q54 -114 54 -390t-54 -390q-82 -171 -321 -171t-320 172q-55 114 -55 389zM184 1440h236l160 -262h-115zM328 518q0 -198 2 -215q20 -143 118 -143t121 122q4 27 4 200v104q0 162 -6 195q-22 122 -117 122q-92 0 -115 -107 q-7 -34 -7 -180v-98z" />
<glyph unicode="&#xf3;" horiz-adv-x="900" d="M75 532q0 275 55 390q81 171 320 171t321 -171q54 -114 54 -390t-54 -390q-82 -171 -321 -171t-320 172q-55 114 -55 389zM320 1178l160 262h236l-281 -262h-115zM328 518q0 -198 2 -215q20 -143 118 -143t121 122q4 27 4 200v104q0 162 -6 195q-22 122 -117 122 q-92 0 -115 -107q-7 -34 -7 -180v-98z" />
<glyph unicode="&#xf4;" horiz-adv-x="900" d="M75 532q0 275 55 390q81 171 320 171t321 -171q54 -114 54 -390t-54 -390q-82 -171 -321 -171t-320 172q-55 114 -55 389zM196 1178l160 262h188l160 -262h-114l-140 138l-140 -138h-114zM328 518q0 -198 2 -215q20 -143 118 -143t121 122q4 27 4 200v104q0 162 -6 195 q-22 122 -117 122q-92 0 -115 -107q-7 -34 -7 -180v-98z" />
<glyph unicode="&#xf5;" horiz-adv-x="900" d="M75 532q0 275 55 390q81 171 320 171t321 -171q54 -114 54 -390t-54 -390q-82 -171 -321 -171t-320 172q-55 114 -55 389zM192 1189q36 213 164 213q31 0 56 -7l102 -31q18 -5 44 -5q55 0 70 69h81q-34 -218 -172 -218q-22 0 -47 7l-112 32q-19 6 -30 6q-61 0 -76 -66 h-80zM328 518q0 -198 2 -215q20 -143 118 -143t121 122q4 27 4 200v104q0 162 -6 195q-22 122 -117 122q-92 0 -115 -107q-7 -34 -7 -180v-98z" />
<glyph unicode="&#xf6;" horiz-adv-x="900" d="M75 532q0 275 55 390q81 171 320 171t321 -171q54 -114 54 -390t-54 -390q-82 -171 -321 -171t-320 172q-55 114 -55 389zM192 1199v218h202v-218h-202zM328 518q0 -198 2 -215q20 -143 118 -143t121 122q4 27 4 200v104q0 162 -6 195q-22 122 -117 122q-92 0 -115 -107 q-7 -34 -7 -180v-98zM506 1199v218h203v-218h-203z" />
<glyph unicode="&#xf7;" horiz-adv-x="1569" d="M234 471v183h1102v-183h-1102zM646 200q0 58 41 98.5t99 40.5q57 0 98.5 -41t41.5 -98t-41.5 -97t-98.5 -40q-59 0 -99.5 39.5t-40.5 97.5zM646 924q0 58 41 98.5t99 40.5q57 0 98.5 -41t41.5 -98q0 -58 -41 -99t-99 -41t-99 41t-41 99z" />
<glyph unicode="&#xf8;" horiz-adv-x="900" d="M-4 -45l128 196q-49 122 -49 345q0 285 44 407q68 190 331 190q160 0 249 -75l98 152l91 -68l-115 -176q52 -133 52 -372q0 -287 -50 -402q-81 -181 -325 -181q-165 0 -256 80l-108 -162zM322 633q0 -33 1 -100t1 -100l245 369q-18 104 -119 104q-91 0 -117 -99 q-11 -43 -11 -174zM334 280q2 -124 114 -124q91 0 117 80q12 39 12 160v254z" />
<glyph unicode="&#xf9;" horiz-adv-x="911" d="M104 228v836h237v-695q0 -86 13 -122q23 -64 92 -64q75 0 100 69q13 40 13 133v679h248v-1064h-242v106q-76 -135 -224 -135q-237 0 -237 257zM190 1440h236l160 -262h-115z" />
<glyph unicode="&#xfa;" horiz-adv-x="911" d="M104 228v836h237v-695q0 -86 13 -122q23 -64 92 -64q75 0 100 69q13 40 13 133v679h248v-1064h-242v106q-76 -135 -224 -135q-237 0 -237 257zM326 1178l160 262h236l-281 -262h-115z" />
<glyph unicode="&#xfb;" horiz-adv-x="911" d="M104 228v836h237v-695q0 -86 13 -122q23 -64 92 -64q75 0 100 69q13 40 13 133v679h248v-1064h-242v106q-76 -135 -224 -135q-237 0 -237 257zM202 1178l160 262h188l160 -262h-114l-140 138l-140 -138h-114z" />
<glyph unicode="&#xfc;" horiz-adv-x="911" d="M104 228v836h237v-695q0 -86 13 -122q23 -64 92 -64q75 0 100 69q13 40 13 133v679h248v-1064h-242v106q-76 -135 -224 -135q-237 0 -237 257zM198 1199v218h202v-218h-202zM512 1199v218h203v-218h-203z" />
<glyph unicode="&#xfd;" horiz-adv-x="836" d="M18 1064h261l147 -768l143 768h249l-277 -1164q-34 -143 -90 -196q-64 -60 -203 -60q-40 0 -86 7v184q6 0 19 -1h20q101 0 101 72q0 20 -10 61zM289 1178l160 262h236l-281 -262h-115z" />
<glyph unicode="&#xfe;" horiz-adv-x="915" d="M108 -358v1775h246v-452q44 128 204 128q187 0 248 -201q32 -106 32 -355q0 -261 -29 -362q-58 -204 -251 -204q-140 0 -204 119v-448h-246zM347 601q0 -222 3 -247q22 -175 125 -175q90 0 109 147q4 25 4 209q0 179 -5 209q-19 146 -108 146q-93 0 -118 -108 q-10 -43 -10 -181z" />
<glyph unicode="&#xff;" horiz-adv-x="836" d="M18 1064h261l147 -768l143 768h249l-277 -1164q-34 -143 -90 -196q-64 -60 -203 -60q-40 0 -86 7v184q6 0 19 -1h20q101 0 101 72q0 20 -10 61zM161 1199v218h202v-218h-202zM475 1199v218h203v-218h-203z" />
<glyph unicode="&#x102;" horiz-adv-x="1030" d="M17 0l319 1417h354l322 -1417h-284l-70 356h-304l-68 -356h-269zM264 1750h105q19 -113 147 -113q133 0 147 113h105q-25 -262 -252 -262q-229 0 -252 262zM396 569h224l-113 594z" />
<glyph unicode="&#x103;" horiz-adv-x="913" d="M85 281q0 146 80 231q59 65 214 134q14 6 50 22q144 62 144 144q0 105 -109 105q-131 0 -131 -148v-21h-239q0 184 94 267q88 76 276 76q191 0 269 -73q81 -76 81 -265v-600q0 -87 36 -153h-239q-15 21 -27 103q-79 -132 -243 -132q-129 0 -197 92q-59 82 -59 218z M207 1440h105q19 -113 147 -113q133 0 147 113h105q-25 -262 -252 -262q-229 0 -252 262zM339 302q0 -138 109 -138q129 0 129 224v170q-113 -58 -158 -97q-80 -69 -80 -159z" />
<glyph unicode="&#x106;" horiz-adv-x="1032" d="M92 725q0 418 72 541q107 185 358 185q226 0 324 -126q88 -113 88 -347h-256v34q0 228 -151 228q-95 0 -136 -104q-30 -76 -32 -217q4 369 4 -189q0 -1221 -5 -198q1 -152 31 -237q41 -114 136 -114q107 0 141 108q18 56 18 197v19h256q0 -9 1 -27.5t1 -27.5 q0 -484 -420 -484q-195 0 -299 108q-93 96 -120 311q-11 92 -11 340zM386 1536l160 262h236l-281 -262h-115z" />
<glyph unicode="&#x107;" horiz-adv-x="855" d="M75 532q0 272 50 385q78 176 310 176q343 0 343 -358v-38h-235v24q0 182 -106 182q-108 0 -108 -180v-367q0 -88 13 -128q23 -68 93 -68q77 0 100 87q11 41 11 149v23l232 -1q2 -22 2 -60q0 -387 -345 -387q-232 0 -310 176q-50 112 -50 385zM298 1178l160 262h236 l-281 -262h-115z" />
<glyph unicode="&#x10c;" horiz-adv-x="1032" d="M92 725q0 418 72 541q107 185 358 185q226 0 324 -126q88 -113 88 -347h-256v34q0 228 -151 228q-95 0 -136 -104q-30 -76 -32 -217q4 369 4 -189q0 -1221 -5 -198q1 -152 31 -237q41 -114 136 -114q107 0 141 108q18 56 18 197v19h256q0 -9 1 -27.5t1 -27.5 q0 -484 -420 -484q-195 0 -299 108q-93 96 -120 311q-11 92 -11 340zM262 1798h114l140 -138l140 138h114l-160 -262h-188z" />
<glyph unicode="&#x10d;" horiz-adv-x="855" d="M75 532q0 272 50 385q78 176 310 176q343 0 343 -358v-38h-235v24q0 182 -106 182q-108 0 -108 -180v-367q0 -88 13 -128q23 -68 93 -68q77 0 100 87q11 41 11 149v23l232 -1q2 -22 2 -60q0 -387 -345 -387q-232 0 -310 176q-50 112 -50 385zM174 1440h114l140 -138 l140 138h114l-160 -262h-188z" />
<glyph unicode="&#x110;" horiz-adv-x="1111" d="M-7 658v188h131v571h424q238 0 333 -94q91 -90 121 -248q17 -92 17 -280q0 -232 -9 -327q-18 -196 -84 -312q-60 -105 -193 -138q-73 -18 -245 -18h-364v658h-131zM383 209h118q142 0 181 57q68 101 68 459q0 163 -8 229q-15 152 -71 213q-40 43 -173 43h-115v-364h212 v-188h-212v-449z" />
<glyph unicode="&#x111;" horiz-adv-x="915" d="M77 527q0 255 30 360q58 206 245 206q147 0 209 -119v198h-210v132h210v113h248v-113h146v-132h-146v-1172h-234v111q-62 -140 -217 -140q-188 0 -249 201q-32 107 -32 355zM328 548q0 -193 2 -218q21 -155 111 -155q93 0 117 107q11 43 11 182q0 221 -3 246 q-22 176 -125 176q-87 0 -108 -138q-5 -36 -5 -200z" />
<glyph unicode="&#x11e;" horiz-adv-x="1109" d="M92 752q0 396 89 531q110 166 373 166q227 0 335.5 -107.5t108.5 -335.5v-35h-246v14q0 257 -189 257q-112 0 -163 -109q-37 -81 -40 -232q3 154 3 -216q0 -231 13 -301q37 -201 174 -201q122 0 166 104q28 67 28 211v48h-183v227h437v-773h-178l-20 156 q-41 -105 -116 -150q-69 -40 -188 -40q-272 0 -358 280q-46 148 -46 506zM304 1798h105q19 -113 147 -113q133 0 147 113h105q-25 -262 -252 -262q-229 0 -252 262z" />
<glyph unicode="&#x11f;" horiz-adv-x="915" d="M77 537q0 248 32 355q61 201 249 201q156 0 217 -140v111h234v-979q0 -230 -59 -317q-87 -126 -322 -126q-324 0 -328 241h244q6 -66 91 -66q81 0 109 63q17 41 17 137v73q-61 -119 -201 -119q-193 0 -252 204q-31 102 -31 362zM206 1440h105q19 -113 147 -113 q133 0 147 113h105q-25 -262 -252 -262q-229 0 -252 262zM328 514q0 -166 4 -198q21 -137 109 -137q103 0 125 175q3 25 3 247q0 139 -11 181q-24 108 -117 108q-90 0 -111 -157q-2 -25 -2 -219z" />
<glyph unicode="&#x128;" horiz-adv-x="505" d="M7 1547q36 213 164 213q31 0 56 -7l102 -31q18 -5 44 -5q55 0 70 69h81q-34 -218 -172 -218q-22 0 -47 7l-112 32q-19 6 -30 6q-61 0 -76 -66h-80zM121 0v1417h264v-1417h-264z" />
<glyph unicode="&#x129;" horiz-adv-x="456" d="M4 1189q36 213 164 213q31 0 56 -7l102 -31q18 -5 44 -5q55 0 70 69h81q-34 -218 -172 -218q-22 0 -47 7l-112 32q-19 6 -30 6q-61 0 -76 -66h-80zM106 0v1064h245v-1064h-245z" />
<glyph unicode="&#x130;" horiz-adv-x="505" d="M121 0v1417h264v-1417h-264zM155 1560v213h195v-213h-195z" />
<glyph unicode="&#x131;" horiz-adv-x="456" d="M106 0v1064h245v-1064h-245z" />
<glyph unicode="&#x141;" horiz-adv-x="932" d="M-7 437v209l140 98v673h264v-561l230 160v-209l-230 -161v-405h477v-241h-741v535z" />
<glyph unicode="&#x142;" horiz-adv-x="492" d="M0 471v173l124 91v682h243v-565l125 85v-172l-125 -87v-678h-243v559z" />
<glyph unicode="&#x152;" horiz-adv-x="1533" d="M96 701q0 407 64 535q109 215 356 215q170 0 237 -135v101h700v-236h-462v-329h431v-221h-431v-392h475v-239h-713v104q-62 -136 -255 -136q-261 0 -350 256q-52 150 -52 477zM360 694q0 -230 17 -314q43 -202 190 -202q82 0 129 61q41 55 41 140v680q0 81 -48.5 131 t-129.5 50q-145 0 -185 -220q-14 -81 -14 -326z" />
<glyph unicode="&#x153;" horiz-adv-x="1311" d="M79 516q0 341 49 430q81 147 287 147q161 0 250 -119q89 119 250 119q167 0 252 -113q49 -66 64 -174q7 -56 7 -188v-126h-445v-66q0 -143 5 -168q20 -102 105 -102q68 0 92 60q13 37 13 120v27h226v-39q0 -353 -315 -353q-177 0 -248 108q-75 -108 -272 -108 q-215 0 -282 178q-38 100 -38 367zM318 525q0 -196 3 -218q20 -151 114 -151q85 0 109 99q10 41 10 165v151q0 163 -6 199q-22 131 -113 131t-111 -115q-6 -29 -6 -185v-76zM793 721q0 -9 1 -28t1 -28h213v83q0 153 -113 153q-102 0 -102 -180z" />
<glyph unicode="&#x15e;" horiz-adv-x="1032" d="M90 413q0 6 2 32t2 47v6h264v-91q0 -110 20 -155q31 -71 125 -71q171 0 171 168q0 75 -48 132q-31 35 -114 94l-135 96q-147 105 -195 163q-74 94 -74 236q0 182 108 282q106 99 289 99q199 0 303 -108.5t104 -308.5q0 -34 -2 -51h-250v38q0 103 -30 152q-38 63 -132 63 q-136 0 -136 -141q0 -89 162 -198l3 -2l146 -98q157 -107 210 -194q55 -92 55 -234q0 -198 -115 -303q-110 -100 -311 -100q-422 0 -422 447zM295 -293q147 -25 196 -25q79 0 79 66q0 56 -95 56h-22v196h106v-76q185 -17 185 -178q0 -192 -233 -192q-79 0 -216 26v127z" />
<glyph unicode="&#x15f;" horiz-adv-x="828" d="M68 313q0 7 1 20.5t1 20.5h222v-30q0 -169 121 -169q110 0 110 104q0 60 -118 139q-19 12 -47 32l-11 8q-272 203 -272 364q0 291 344 291q323 0 323 -332v-22h-217v22q0 149 -122 149q-101 0 -101 -92q0 -49 46 -94q20 -19 87 -64q16 -11 56 -38q268 -178 268 -354 q0 -151 -101 -228q-91 -69 -248 -69q-342 0 -342 342zM117 -293q147 -25 196 -25q79 0 79 66q0 56 -95 56h-22v196h106v-76q185 -17 185 -178q0 -192 -233 -192q-79 0 -216 26v127z" />
<glyph unicode="&#x160;" horiz-adv-x="1032" d="M90 413q0 6 2 32t2 47v6h264v-91q0 -110 20 -155q31 -71 125 -71q171 0 171 168q0 75 -48 132q-31 35 -114 94l-135 96q-147 105 -195 163q-74 94 -74 236q0 182 108 282q106 99 289 99q199 0 303 -108.5t104 -308.5q0 -34 -2 -51h-250v38q0 103 -30 152q-38 63 -132 63 q-136 0 -136 -141q0 -89 162 -198l3 -2l146 -98q157 -107 210 -194q55 -92 55 -234q0 -198 -115 -303q-110 -100 -311 -100q-422 0 -422 447zM262 1798h114l140 -138l140 138h114l-160 -262h-188z" />
<glyph unicode="&#x161;" horiz-adv-x="828" d="M68 313q0 7 1 20.5t1 20.5h222v-30q0 -169 121 -169q110 0 110 104q0 60 -118 139q-19 12 -47 32l-11 8q-272 203 -272 364q0 291 344 291q323 0 323 -332v-22h-217v22q0 149 -122 149q-101 0 -101 -92q0 -49 46 -94q20 -19 87 -64q16 -11 56 -38q268 -178 268 -354 q0 -151 -101 -228q-91 -69 -248 -69q-342 0 -342 342zM161 1440h114l140 -138l140 138h114l-160 -262h-188z" />
<glyph unicode="&#x168;" horiz-adv-x="1125" d="M121 439v978h264v-955q0 -138 24 -194q40 -87 158 -87q117 0 155 89q24 56 24 196v951h260v-978q0 -232 -69 -324q-115 -149 -374 -149q-248 0 -349 113q-93 106 -93 360zM296 1547q36 213 164 213q31 0 56 -7l102 -31q18 -5 44 -5q55 0 70 69h81q-34 -218 -172 -218 q-22 0 -47 7l-112 32q-19 6 -30 6q-61 0 -76 -66h-80z" />
<glyph unicode="&#x169;" horiz-adv-x="911" d="M104 228v836h237v-695q0 -86 13 -122q23 -64 92 -64q75 0 100 69q13 40 13 133v679h248v-1064h-242v106q-76 -135 -224 -135q-237 0 -237 257zM192 1189q36 213 164 213q31 0 56 -7l102 -31q18 -5 44 -5q55 0 70 69h81q-34 -218 -172 -218q-22 0 -47 7l-112 32 q-19 6 -30 6q-61 0 -76 -66h-80z" />
<glyph unicode="&#x178;" horiz-adv-x="1035" d="M17 1417h292l214 -533l212 533h284l-365 -816v-601h-266v601zM260 1557v218h202v-218h-202zM574 1557v218h203v-218h-203z" />
<glyph unicode="&#x17d;" horiz-adv-x="911" d="M56 0v239l498 957h-473v221h753v-218l-491 -960h513v-239h-800zM202 1798h114l140 -138l140 138h114l-160 -262h-188z" />
<glyph unicode="&#x17e;" horiz-adv-x="721" d="M40 0v196l359 661h-356v207h633v-178l-371 -677h375v-209h-640zM108 1440h114l140 -138l140 138h114l-160 -262h-188z" />
<glyph unicode="&#x192;" d="M-9 -333l28 211q44 -17 81 -18q92 -1 119 161l122 732h-215v182h237q29 219 91 329q92 162 276 162q74 0 150 -34l-38 -190q-33 26 -81 26q-84 0 -122 -112q-16 -51 -30 -181h207v-182h-228l-104 -640q-33 -205 -87 -307q-84 -164 -246 -164q-84 0 -160 25z" />
<glyph unicode="&#x1a0;" horiz-adv-x="1105" d="M92 708q0 428 87 563q67 103 160 144q81 36 213 36t213 -36q95 -42 161 -144q37 -58 58 -162q88 29 88 142v15h-117v239h228v-252q0 -87 -50.5 -149t-135.5 -84q15 -125 15 -312q0 -427 -86 -563q-66 -101 -161 -143q-81 -36 -213 -36t-213 36q-93 41 -160 143 q-87 136 -87 563zM359 913q3 89 3 -205q0 -277 -2 -204q3 -143 40 -222q48 -104 154 -104q105 0 152 104q36 79 39 223q-3 -100 -3 203q0 294 3 205q-4 144 -39 223q-48 106 -154 106t-154 -106q-35 -79 -39 -223z" />
<glyph unicode="&#x1a1;" horiz-adv-x="900" d="M75 532q0 275 55 390q81 171 320 171q210 0 292 -120q29 -40 47 -105q68 36 68 134v15h-116v239h228v-252q0 -97 -63 -162q-39 -43 -97 -63q16 -104 16 -247q0 -276 -54 -390q-82 -171 -321 -171t-320 172q-55 114 -55 389zM328 518q0 -198 2 -215q20 -143 118 -143 t121 122q4 27 4 200v104q0 162 -6 195q-22 122 -117 122q-92 0 -115 -107q-7 -34 -7 -180v-98z" />
<glyph unicode="&#x1af;" horiz-adv-x="1125" d="M121 439v978h264v-955q0 -138 24 -194q40 -87 158 -87q117 0 155 89q24 56 24 196v951h209v88h228v-252q0 -178 -177 -231v-583q0 -232 -69 -324q-115 -149 -374 -149q-248 0 -349 113q-93 106 -93 360zM1006 1119q66 37 66 132v15h-66v-147z" />
<glyph unicode="&#x1b0;" horiz-adv-x="911" d="M104 228v836h237v-695q0 -86 13 -122q23 -64 92 -64q75 0 100 69q13 40 13 133v679h182v192h228v-252q0 -97 -63 -162q-40 -43 -99 -64v-778h-242v106q-76 -135 -224 -135q-237 0 -237 257zM807 880q50 40 50 122v15h-50v-137z" />
<glyph unicode="&#x2c6;" d="M217 1178l160 262h188l160 -262h-114l-140 138l-140 -138h-114z" />
<glyph unicode="&#x2c7;" d="M217 1440h114l140 -138l140 138h114l-160 -262h-188z" />
<glyph unicode="&#x2d8;" d="M219 1440h105q19 -113 147 -113q133 0 147 113h105q-25 -262 -252 -262q-229 0 -252 262z" />
<glyph unicode="&#x2d9;" d="M374 1202v213h195v-213h-195z" />
<glyph unicode="&#x2da;" d="M273 1381q0 83 57.5 140.5t140.5 57.5t141.5 -57.5t58.5 -140.5q0 -85 -57.5 -143.5t-142.5 -58.5t-141.5 58.5t-56.5 143.5zM392 1377q0 -33 24 -55t57 -22q34 0 56.5 21.5t22.5 55.5q0 35 -22 58t-57 23t-58 -23t-23 -58z" />
<glyph unicode="&#x2db;" d="M305 -248q0 134 177 248h100q-109 -101 -109 -181q0 -73 70 -73h77v-176h-51q-125 0 -183 30q-81 41 -81 152z" />
<glyph unicode="&#x2dc;" d="M213 1189q36 213 164 213q31 0 56 -7l102 -31q18 -5 44 -5q55 0 70 69h81q-34 -218 -172 -218q-22 0 -47 7l-112 32q-19 6 -30 6q-61 0 -76 -66h-80z" />
<glyph unicode="&#x2dd;" d="M260 1178l119 262h213l-243 -262h-89zM518 1178l151 262h222l-271 -262h-102z" />
<glyph unicode="&#x394;" horiz-adv-x="1312" d="M0 0l518 1355h277l518 -1355h-1313zM356 236h601l-301 785z" />
<glyph unicode="&#x3a9;" horiz-adv-x="1449" d="M51 0v236h267q-228 218 -228 517q0 289 172 462t461 173t461.5 -173t172.5 -462q0 -299 -228 -517h268v-236h-561v268q238 162 238 473q0 177 -85 284q-93 117 -266 117q-172 0 -265 -117q-84 -108 -84 -284q0 -313 237 -473v-268h-560z" />
<glyph unicode="&#x3bc;" horiz-adv-x="1149" d="M-58 -403l247 1408h265l-69 -401q-29 -162 -29 -246q0 -169 156 -169q113 0 171 123q31 66 58 220l82 473h266l-177 -1005h-247l17 108q-75 -138 -198 -138q-121 0 -196 111l-83 -484h-263z" />
<glyph unicode="&#x3c0;" horiz-adv-x="1213" d="M-32 678q27 187 119 259q87 68 280 68h879l-36 -206h-162l-142 -799h-264l140 799h-219l-139 -799h-264l140 799h-23q-96 0 -113 -120z" />
<glyph unicode="&#x1ea0;" horiz-adv-x="1030" d="M17 0l319 1417h354l322 -1417h-284l-70 356h-304l-68 -356h-269zM396 569h224l-113 594zM397 -124h237v-254h-237v254z" />
<glyph unicode="&#x1ea1;" horiz-adv-x="913" d="M85 281q0 146 80 231q59 65 214 134q14 6 50 22q144 62 144 144q0 105 -109 105q-131 0 -131 -148v-21h-239q0 184 94 267q88 76 276 76q191 0 269 -73q81 -76 81 -265v-600q0 -87 36 -153h-239q-15 21 -27 103q-79 -132 -243 -132q-129 0 -197 92q-59 82 -59 218z M339 302q0 -138 109 -138q129 0 129 224v170q-113 -58 -158 -97q-80 -69 -80 -159zM341 -124h237v-254h-237v254z" />
<glyph unicode="&#x1ea2;" horiz-adv-x="1030" d="M17 0l319 1417h354l322 -1417h-284l-70 356h-304l-68 -356h-269zM396 569h224l-113 594zM400 1709v10q0 59 26 96q36 49 94 49q68 0 110 -48q28 -32 28 -91q0 -37 -16 -63q-30 -32 -70 -98q-5 -15 -5 -33v-10h-97v19q0 52 31 93q5 5 14 17q35 40 35 79q0 43 -32 43 q-36 0 -36 -53v-10h-82z" />
<glyph unicode="&#x1ea3;" horiz-adv-x="913" d="M85 281q0 146 80 231q59 65 214 134q14 6 50 22q144 62 144 144q0 105 -109 105q-131 0 -131 -148v-21h-239q0 184 94 267q88 76 276 76q191 0 269 -73q81 -76 81 -265v-600q0 -87 36 -153h-239q-15 21 -27 103q-79 -132 -243 -132q-129 0 -197 92q-59 82 -59 218z M339 302q0 -138 109 -138q129 0 129 224v170q-113 -58 -158 -97q-80 -69 -80 -159zM339 1353v10q0 59 26 96q36 49 94 49q68 0 110 -48q28 -32 28 -91q0 -37 -16 -63q-30 -32 -70 -98q-5 -15 -5 -33v-10h-97v19q0 52 31 93q5 5 14 17q35 40 35 79q0 43 -32 43q-36 0 -36 -53 v-10h-82z" />
<glyph unicode="&#x1ea4;" horiz-adv-x="1030" d="M17 0l319 1417h354l322 -1417h-284l-70 356h-304l-68 -356h-269zM242 1769l160 262h236l-281 -262h-115zM262 1489l160 262h188l160 -262h-114l-140 138l-140 -138h-114zM396 569h224l-113 594z" />
<glyph unicode="&#x1ea5;" horiz-adv-x="913" d="M85 281q0 146 80 231q59 65 214 134q14 6 50 22q144 62 144 144q0 105 -109 105q-131 0 -131 -148v-21h-239q0 184 94 267q88 76 276 76q191 0 269 -73q81 -76 81 -265v-600q0 -87 36 -153h-239q-15 21 -27 103q-79 -132 -243 -132q-129 0 -197 92q-59 82 -59 218z M184 1459l160 262h236l-281 -262h-115zM204 1178l160 262h188l160 -262h-114l-140 138l-140 -138h-114zM339 302q0 -138 109 -138q129 0 129 224v170q-113 -58 -158 -97q-80 -69 -80 -159z" />
<glyph unicode="&#x1ea6;" horiz-adv-x="1030" d="M17 0l319 1417h354l322 -1417h-284l-70 356h-304l-68 -356h-269zM262 1489l160 262h188l160 -262h-114l-140 138l-140 -138h-114zM396 569h224l-113 594zM400 2031h236l160 -262h-115z" />
<glyph unicode="&#x1ea7;" horiz-adv-x="913" d="M85 281q0 146 80 231q59 65 214 134q14 6 50 22q144 62 144 144q0 105 -109 105q-131 0 -131 -148v-21h-239q0 184 94 267q88 76 276 76q191 0 269 -73q81 -76 81 -265v-600q0 -87 36 -153h-239q-15 21 -27 103q-79 -132 -243 -132q-129 0 -197 92q-59 82 -59 218z M204 1178l160 262h188l160 -262h-114l-140 138l-140 -138h-114zM339 302q0 -138 109 -138q129 0 129 224v170q-113 -58 -158 -97q-80 -69 -80 -159zM343 1721h236l160 -262h-115z" />
<glyph unicode="&#x1ea8;" horiz-adv-x="1030" d="M17 0l319 1417h354l322 -1417h-284l-70 356h-304l-68 -356h-269zM262 1489l160 262h188l160 -262h-114l-140 138l-140 -138h-114zM396 569h224l-113 594zM599 1911v10q0 59 26 96q36 49 94 49q68 0 110 -48q28 -32 28 -91q0 -37 -16 -63q-30 -32 -70 -98q-5 -15 -5 -33 v-10h-97v19q0 52 31 93q5 5 14 17q35 40 35 79q0 43 -32 43q-36 0 -36 -53v-10h-82z" />
<glyph unicode="&#x1ea9;" horiz-adv-x="913" d="M85 281q0 146 80 231q59 65 214 134q14 6 50 22q144 62 144 144q0 105 -109 105q-131 0 -131 -148v-21h-239q0 184 94 267q88 76 276 76q191 0 269 -73q81 -76 81 -265v-600q0 -87 36 -153h-239q-15 21 -27 103q-79 -132 -243 -132q-129 0 -197 92q-59 82 -59 218z M204 1178l160 262h188l160 -262h-114l-140 138l-140 -138h-114zM339 302q0 -138 109 -138q129 0 129 224v170q-113 -58 -158 -97q-80 -69 -80 -159zM541 1600v10q0 59 26 96q36 49 94 49q68 0 110 -48q28 -32 28 -91q0 -37 -16 -63q-30 -32 -70 -98q-5 -15 -5 -33v-10h-97 v19q0 52 31 93q5 5 14 17q35 40 35 79q0 43 -32 43q-36 0 -36 -53v-10h-82z" />
<glyph unicode="&#x1eaa;" horiz-adv-x="1030" d="M17 0l319 1417h354l322 -1417h-284l-70 356h-304l-68 -356h-269zM262 1489l160 262h188l160 -262h-114l-140 138l-140 -138h-114zM293 1804q36 213 164 213q31 0 56 -7l102 -31q18 -5 44 -5q55 0 70 69h81q-34 -218 -172 -218q-22 0 -47 7l-112 32q-19 6 -30 6 q-61 0 -76 -66h-80zM396 569h224l-113 594z" />
<glyph unicode="&#x1eab;" horiz-adv-x="913" d="M85 281q0 146 80 231q59 65 214 134q14 6 50 22q144 62 144 144q0 105 -109 105q-131 0 -131 -148v-21h-239q0 184 94 267q88 76 276 76q191 0 269 -73q81 -76 81 -265v-600q0 -87 36 -153h-239q-15 21 -27 103q-79 -132 -243 -132q-129 0 -197 92q-59 82 -59 218z M204 1178l160 262h188l160 -262h-114l-140 138l-140 -138h-114zM235 1494q36 213 164 213q31 0 56 -7l102 -31q18 -5 44 -5q55 0 70 69h81q-34 -218 -172 -218q-22 0 -47 7l-112 32q-19 6 -30 6q-61 0 -76 -66h-80zM339 302q0 -138 109 -138q129 0 129 224v170 q-113 -58 -158 -97q-80 -69 -80 -159z" />
<glyph unicode="&#x1eac;" horiz-adv-x="1030" d="M17 0l319 1417h354l322 -1417h-284l-70 356h-304l-68 -356h-269zM262 1489l160 262h188l160 -262h-114l-140 138l-140 -138h-114zM396 569h224l-113 594zM397 -124h237v-254h-237v254z" />
<glyph unicode="&#x1ead;" horiz-adv-x="913" d="M85 281q0 146 80 231q59 65 214 134q14 6 50 22q144 62 144 144q0 105 -109 105q-131 0 -131 -148v-21h-239q0 184 94 267q88 76 276 76q191 0 269 -73q81 -76 81 -265v-600q0 -87 36 -153h-239q-15 21 -27 103q-79 -132 -243 -132q-129 0 -197 92q-59 82 -59 218z M204 1178l160 262h188l160 -262h-114l-140 138l-140 -138h-114zM339 302q0 -138 109 -138q129 0 129 224v170q-113 -58 -158 -97q-80 -69 -80 -159zM341 -124h237v-254h-237v254z" />
<glyph unicode="&#x1eae;" horiz-adv-x="1030" d="M17 0l319 1417h354l322 -1417h-284l-70 356h-304l-68 -356h-269zM264 1750h105q19 -113 147 -113q133 0 147 113h105q-25 -262 -252 -262q-229 0 -252 262zM396 569h224l-113 594zM406 1768l160 262h236l-281 -262h-115z" />
<glyph unicode="&#x1eaf;" horiz-adv-x="913" d="M85 281q0 146 80 231q59 65 214 134q14 6 50 22q144 62 144 144q0 105 -109 105q-131 0 -131 -148v-21h-239q0 184 94 267q88 76 276 76q191 0 269 -73q81 -76 81 -265v-600q0 -87 36 -153h-239q-15 21 -27 103q-79 -132 -243 -132q-129 0 -197 92q-59 82 -59 218z M207 1440h105q19 -113 147 -113q133 0 147 113h105q-25 -262 -252 -262q-229 0 -252 262zM339 302q0 -138 109 -138q129 0 129 224v170q-113 -58 -158 -97q-80 -69 -80 -159zM350 1459l160 262h236l-281 -262h-115z" />
<glyph unicode="&#x1eb0;" horiz-adv-x="1030" d="M17 0l319 1417h354l322 -1417h-284l-70 356h-304l-68 -356h-269zM236 2030h236l160 -262h-115zM264 1750h105q19 -113 147 -113q133 0 147 113h105q-25 -262 -252 -262q-229 0 -252 262zM396 569h224l-113 594z" />
<glyph unicode="&#x1eb1;" horiz-adv-x="913" d="M85 281q0 146 80 231q59 65 214 134q14 6 50 22q144 62 144 144q0 105 -109 105q-131 0 -131 -148v-21h-239q0 184 94 267q88 76 276 76q191 0 269 -73q81 -76 81 -265v-600q0 -87 36 -153h-239q-15 21 -27 103q-79 -132 -243 -132q-129 0 -197 92q-59 82 -59 218z M179 1721h236l160 -262h-115zM207 1440h105q19 -113 147 -113q133 0 147 113h105q-25 -262 -252 -262q-229 0 -252 262zM339 302q0 -138 109 -138q129 0 129 224v170q-113 -58 -158 -97q-80 -69 -80 -159z" />
<glyph unicode="&#x1eb2;" horiz-adv-x="1030" d="M17 0l319 1417h354l322 -1417h-284l-70 356h-304l-68 -356h-269zM264 1750h105q19 -113 147 -113q133 0 147 113h105q-25 -262 -252 -262q-229 0 -252 262zM393 1910v10q0 59 26 96q36 49 94 49q68 0 110 -48q28 -32 28 -91q0 -37 -16 -63q-30 -32 -70 -98q-5 -15 -5 -33 v-10h-97v19q0 52 31 93q5 5 14 17q35 40 35 79q0 43 -32 43q-36 0 -36 -53v-10h-82zM396 569h224l-113 594z" />
<glyph unicode="&#x1eb3;" horiz-adv-x="913" d="M85 281q0 146 80 231q59 65 214 134q14 6 50 22q144 62 144 144q0 105 -109 105q-131 0 -131 -148v-21h-239q0 184 94 267q88 76 276 76q191 0 269 -73q81 -76 81 -265v-600q0 -87 36 -153h-239q-15 21 -27 103q-79 -132 -243 -132q-129 0 -197 92q-59 82 -59 218z M207 1440h105q19 -113 147 -113q133 0 147 113h105q-25 -262 -252 -262q-229 0 -252 262zM335 1600v10q0 59 26 96q36 49 94 49q68 0 110 -48q28 -32 28 -91q0 -37 -16 -63q-30 -32 -70 -98q-5 -15 -5 -33v-10h-97v19q0 52 31 93q5 5 14 17q35 40 35 79q0 43 -32 43 q-36 0 -36 -53v-10h-82zM339 302q0 -138 109 -138q129 0 129 224v170q-113 -58 -158 -97q-80 -69 -80 -159z" />
<glyph unicode="&#x1eb4;" horiz-adv-x="1030" d="M17 0l319 1417h354l322 -1417h-284l-70 356h-304l-68 -356h-269zM264 1750h105q19 -113 147 -113q133 0 147 113h105q-25 -262 -252 -262q-229 0 -252 262zM293 1804q36 213 164 213q31 0 56 -7l102 -31q18 -5 44 -5q55 0 70 69h81q-34 -218 -172 -218q-22 0 -47 7 l-112 32q-19 6 -30 6q-61 0 -76 -66h-80zM396 569h224l-113 594z" />
<glyph unicode="&#x1eb5;" horiz-adv-x="913" d="M85 281q0 146 80 231q59 65 214 134q14 6 50 22q144 62 144 144q0 105 -109 105q-131 0 -131 -148v-21h-239q0 184 94 267q88 76 276 76q191 0 269 -73q81 -76 81 -265v-600q0 -87 36 -153h-239q-15 21 -27 103q-79 -132 -243 -132q-129 0 -197 92q-59 82 -59 218z M207 1440h105q19 -113 147 -113q133 0 147 113h105q-25 -262 -252 -262q-229 0 -252 262zM235 1494q36 213 164 213q31 0 56 -7l102 -31q18 -5 44 -5q55 0 70 69h81q-34 -218 -172 -218q-22 0 -47 7l-112 32q-19 6 -30 6q-61 0 -76 -66h-80zM339 302q0 -138 109 -138 q129 0 129 224v170q-113 -58 -158 -97q-80 -69 -80 -159z" />
<glyph unicode="&#x1eb6;" horiz-adv-x="1030" d="M17 0l319 1417h354l322 -1417h-284l-70 356h-304l-68 -356h-269zM264 1750h105q19 -113 147 -113q133 0 147 113h105q-25 -262 -252 -262q-229 0 -252 262zM396 569h224l-113 594zM397 -124h237v-254h-237v254z" />
<glyph unicode="&#x1eb7;" horiz-adv-x="913" d="M85 281q0 146 80 231q59 65 214 134q14 6 50 22q144 62 144 144q0 105 -109 105q-131 0 -131 -148v-21h-239q0 184 94 267q88 76 276 76q191 0 269 -73q81 -76 81 -265v-600q0 -87 36 -153h-239q-15 21 -27 103q-79 -132 -243 -132q-129 0 -197 92q-59 82 -59 218z M207 1440h105q19 -113 147 -113q133 0 147 113h105q-25 -262 -252 -262q-229 0 -252 262zM339 302q0 -138 109 -138q129 0 129 224v170q-113 -58 -158 -97q-80 -69 -80 -159zM341 -124h237v-254h-237v254z" />
<glyph unicode="&#x1eb8;" horiz-adv-x="932" d="M121 0v1417h727v-236h-465v-327h433v-225h-433v-390h476v-239h-738zM360 -124h237v-254h-237v254z" />
<glyph unicode="&#x1eb9;" horiz-adv-x="897" d="M77 567q0 152 9 216q16 131 72 199q92 111 296 111q197 0 288 -121q74 -97 74 -393v-81h-484q-3 -18 -3 -68q0 -119 13 -170q27 -104 111 -104q124 0 124 209h232q0 -7 1 -20.5t1 -20.5q0 -184 -88.5 -268.5t-274.5 -84.5q-192 0 -277 103q-67 81 -85 236q-9 68 -9 257z M328 -124h237v-254h-237v254zM328 697q1 -15 1 -30h240v45q0 92 -17 131q-26 61 -104 61q-65 0 -93 -42q-33 -52 -27 -150v-15z" />
<glyph unicode="&#x1eba;" horiz-adv-x="932" d="M121 0v1417h727v-236h-465v-327h433v-225h-433v-390h476v-239h-738zM364 1709v10q0 59 26 96q36 49 94 49q68 0 110 -48q28 -32 28 -91q0 -37 -16 -63q-30 -32 -70 -98q-5 -15 -5 -33v-10h-97v19q0 52 31 93q5 5 14 17q35 40 35 79q0 43 -32 43q-36 0 -36 -53v-10h-82z " />
<glyph unicode="&#x1ebb;" horiz-adv-x="897" d="M77 567q0 152 9 216q16 131 72 199q92 111 296 111q197 0 288 -121q74 -97 74 -393v-81h-484q-3 -18 -3 -68q0 -119 13 -170q27 -104 111 -104q124 0 124 209h232q0 -7 1 -20.5t1 -20.5q0 -184 -88.5 -268.5t-274.5 -84.5q-192 0 -277 103q-67 81 -85 236q-9 68 -9 257z M328 697q1 -15 1 -30h240v45q0 92 -17 131q-26 61 -104 61q-65 0 -93 -42q-33 -52 -27 -150v-15zM331 1353v10q0 59 26 96q36 49 94 49q68 0 110 -48q28 -32 28 -91q0 -37 -16 -63q-30 -32 -70 -98q-5 -15 -5 -33v-10h-97v19q0 52 31 93q5 5 14 17q35 40 35 79q0 43 -32 43 q-36 0 -36 -53v-10h-82z" />
<glyph unicode="&#x1ebc;" horiz-adv-x="932" d="M121 0v1417h727v-236h-465v-327h433v-225h-433v-390h476v-239h-738zM238 1547q36 213 164 213q31 0 56 -7l102 -31q18 -5 44 -5q55 0 70 69h81q-34 -218 -172 -218q-22 0 -47 7l-112 32q-19 6 -30 6q-61 0 -76 -66h-80z" />
<glyph unicode="&#x1ebd;" horiz-adv-x="897" d="M77 567q0 152 9 216q16 131 72 199q92 111 296 111q197 0 288 -121q74 -97 74 -393v-81h-484q-3 -18 -3 -68q0 -119 13 -170q27 -104 111 -104q124 0 124 209h232q0 -7 1 -20.5t1 -20.5q0 -184 -88.5 -268.5t-274.5 -84.5q-192 0 -277 103q-67 81 -85 236q-9 68 -9 257z M192 1189q36 213 164 213q31 0 56 -7l102 -31q18 -5 44 -5q55 0 70 69h81q-34 -218 -172 -218q-22 0 -47 7l-112 32q-19 6 -30 6q-61 0 -76 -66h-80zM328 697q1 -15 1 -30h240v45q0 92 -17 131q-26 61 -104 61q-65 0 -93 -42q-33 -52 -27 -150v-15z" />
<glyph unicode="&#x1ebe;" horiz-adv-x="932" d="M121 0v1417h727v-236h-465v-327h433v-225h-433v-390h476v-239h-738zM202 1769l160 262h236l-281 -262h-115zM223 1489l160 262h188l160 -262h-114l-140 138l-140 -138h-114z" />
<glyph unicode="&#x1ebf;" horiz-adv-x="897" d="M77 567q0 152 9 216q16 131 72 199q92 111 296 111q197 0 288 -121q74 -97 74 -393v-81h-484q-3 -18 -3 -68q0 -119 13 -170q27 -104 111 -104q124 0 124 209h232q0 -7 1 -20.5t1 -20.5q0 -184 -88.5 -268.5t-274.5 -84.5q-192 0 -277 103q-67 81 -85 236q-9 68 -9 257z M174 1459l160 262h236l-281 -262h-115zM194 1178l160 262h188l160 -262h-114l-140 138l-140 -138h-114zM328 697q1 -15 1 -30h240v45q0 92 -17 131q-26 61 -104 61q-65 0 -93 -42q-33 -52 -27 -150v-15z" />
<glyph unicode="&#x1ec0;" horiz-adv-x="932" d="M121 0v1417h727v-236h-465v-327h433v-225h-433v-390h476v-239h-738zM223 1489l160 262h188l160 -262h-114l-140 138l-140 -138h-114zM361 2031h236l160 -262h-115z" />
<glyph unicode="&#x1ec1;" horiz-adv-x="897" d="M77 567q0 152 9 216q16 131 72 199q92 111 296 111q197 0 288 -121q74 -97 74 -393v-81h-484q-3 -18 -3 -68q0 -119 13 -170q27 -104 111 -104q124 0 124 209h232q0 -7 1 -20.5t1 -20.5q0 -184 -88.5 -268.5t-274.5 -84.5q-192 0 -277 103q-67 81 -85 236q-9 68 -9 257z M194 1178l160 262h188l160 -262h-114l-140 138l-140 -138h-114zM328 697q1 -15 1 -30h240v45q0 92 -17 131q-26 61 -104 61q-65 0 -93 -42q-33 -52 -27 -150v-15zM333 1721h236l160 -262h-115z" />
<glyph unicode="&#x1ec2;" horiz-adv-x="932" d="M121 0v1417h727v-236h-465v-327h433v-225h-433v-390h476v-239h-738zM223 1489l160 262h188l160 -262h-114l-140 138l-140 -138h-114zM560 1910v10q0 59 26 96q36 49 94 49q68 0 110 -48q28 -32 28 -91q0 -37 -16 -63q-30 -32 -70 -98q-5 -15 -5 -33v-10h-97v19 q0 52 31 93q5 5 14 17q35 40 35 79q0 43 -32 43q-36 0 -36 -53v-10h-82z" />
<glyph unicode="&#x1ec3;" horiz-adv-x="897" d="M77 567q0 152 9 216q16 131 72 199q92 111 296 111q197 0 288 -121q74 -97 74 -393v-81h-484q-3 -18 -3 -68q0 -119 13 -170q27 -104 111 -104q124 0 124 209h232q0 -7 1 -20.5t1 -20.5q0 -184 -88.5 -268.5t-274.5 -84.5q-192 0 -277 103q-67 81 -85 236q-9 68 -9 257z M194 1178l160 262h188l160 -262h-114l-140 138l-140 -138h-114zM328 697q1 -15 1 -30h240v45q0 92 -17 131q-26 61 -104 61q-65 0 -93 -42q-33 -52 -27 -150v-15zM531 1600v10q0 59 26 96q36 49 94 49q68 0 110 -48q28 -32 28 -91q0 -37 -16 -63q-30 -32 -70 -98 q-5 -15 -5 -33v-10h-97v19q0 52 31 93q5 5 14 17q35 40 35 79q0 43 -32 43q-36 0 -36 -53v-10h-82z" />
<glyph unicode="&#x1ec4;" horiz-adv-x="932" d="M121 0v1417h727v-236h-465v-327h433v-225h-433v-390h476v-239h-738zM223 1489l160 262h188l160 -262h-114l-140 138l-140 -138h-114zM253 1804q36 213 164 213q31 0 56 -7l102 -31q18 -5 44 -5q55 0 70 69h81q-34 -218 -172 -218q-22 0 -47 7l-112 32q-19 6 -30 6 q-61 0 -76 -66h-80z" />
<glyph unicode="&#x1ec5;" horiz-adv-x="897" d="M77 567q0 152 9 216q16 131 72 199q92 111 296 111q197 0 288 -121q74 -97 74 -393v-81h-484q-3 -18 -3 -68q0 -119 13 -170q27 -104 111 -104q124 0 124 209h232q0 -7 1 -20.5t1 -20.5q0 -184 -88.5 -268.5t-274.5 -84.5q-192 0 -277 103q-67 81 -85 236q-9 68 -9 257z M194 1178l160 262h188l160 -262h-114l-140 138l-140 -138h-114zM225 1494q36 213 164 213q31 0 56 -7l102 -31q18 -5 44 -5q55 0 70 69h81q-34 -218 -172 -218q-22 0 -47 7l-112 32q-19 6 -30 6q-61 0 -76 -66h-80zM328 697q1 -15 1 -30h240v45q0 92 -17 131q-26 61 -104 61 q-65 0 -93 -42q-33 -52 -27 -150v-15z" />
<glyph unicode="&#x1ec6;" horiz-adv-x="932" d="M121 0v1417h727v-236h-465v-327h433v-225h-433v-390h476v-239h-738zM223 1489l160 262h188l160 -262h-114l-140 138l-140 -138h-114zM360 -124h237v-254h-237v254z" />
<glyph unicode="&#x1ec7;" horiz-adv-x="897" d="M77 567q0 152 9 216q16 131 72 199q92 111 296 111q197 0 288 -121q74 -97 74 -393v-81h-484q-3 -18 -3 -68q0 -119 13 -170q27 -104 111 -104q124 0 124 209h232q0 -7 1 -20.5t1 -20.5q0 -184 -88.5 -268.5t-274.5 -84.5q-192 0 -277 103q-67 81 -85 236q-9 68 -9 257z M194 1178l160 262h188l160 -262h-114l-140 138l-140 -138h-114zM328 -124h237v-254h-237v254zM328 697q1 -15 1 -30h240v45q0 92 -17 131q-26 61 -104 61q-65 0 -93 -42q-33 -52 -27 -150v-15z" />
<glyph unicode="&#x1ec8;" horiz-adv-x="505" d="M121 0v1417h264v-1417h-264zM130 1709v10q0 59 26 96q36 49 94 49q68 0 110 -48q28 -32 28 -91q0 -37 -16 -63q-30 -32 -70 -98q-5 -15 -5 -33v-10h-97v19q0 52 31 93q5 5 14 17q35 40 35 79q0 43 -32 43q-36 0 -36 -53v-10h-82z" />
<glyph unicode="&#x1ec9;" horiz-adv-x="456" d="M106 0v1064h245v-1064h-245zM106 1353v10q0 59 26 96q36 49 94 49q68 0 110 -48q28 -32 28 -91q0 -37 -16 -63q-30 -32 -70 -98q-5 -15 -5 -33v-10h-97v19q0 52 31 93q5 5 14 17q35 40 35 79q0 43 -32 43q-36 0 -36 -53v-10h-82z" />
<glyph unicode="&#x1eca;" horiz-adv-x="505" d="M121 0v1417h264v-1417h-264zM134 -124h237v-254h-237v254z" />
<glyph unicode="&#x1ecb;" horiz-adv-x="456" d="M106 0v1064h245v-1064h-245zM106 1196v221h245v-221h-245zM111 -124h237v-254h-237v254z" />
<glyph unicode="&#x1ecc;" horiz-adv-x="1105" d="M92 708q0 428 87 563q67 103 160 144q81 36 213 36t213 -36q95 -42 161 -144q86 -133 86 -563q0 -427 -86 -563q-66 -101 -161 -143q-81 -36 -213 -36t-213 36q-93 41 -160 143q-87 136 -87 563zM359 913q3 89 3 -205q0 -277 -2 -204q3 -143 40 -222q48 -104 154 -104 q105 0 152 104q36 79 39 223q-3 -100 -3 203q0 294 3 205q-4 144 -39 223q-48 106 -154 106t-154 -106q-35 -79 -39 -223zM440 -124h237v-254h-237v254z" />
<glyph unicode="&#x1ecd;" horiz-adv-x="900" d="M75 532q0 275 55 390q81 171 320 171t321 -171q54 -114 54 -390t-54 -390q-82 -171 -321 -171t-320 172q-55 114 -55 389zM328 518q0 -198 2 -215q20 -143 118 -143t121 122q4 27 4 200v104q0 162 -6 195q-22 122 -117 122q-92 0 -115 -107q-7 -34 -7 -180v-98zM330 -124 h237v-254h-237v254z" />
<glyph unicode="&#x1ece;" horiz-adv-x="1105" d="M92 708q0 428 87 563q67 103 160 144q81 36 213 36t213 -36q95 -42 161 -144q86 -133 86 -563q0 -427 -86 -563q-66 -101 -161 -143q-81 -36 -213 -36t-213 36q-93 41 -160 143q-87 136 -87 563zM359 913q3 89 3 -205q0 -277 -2 -204q3 -143 40 -222q48 -104 154 -104 q105 0 152 104q36 79 39 223q-3 -100 -3 203q0 294 3 205q-4 144 -39 223q-48 106 -154 106t-154 -106q-35 -79 -39 -223zM429 1709v10q0 59 26 96q36 49 94 49q68 0 110 -48q28 -32 28 -91q0 -37 -16 -63q-30 -32 -70 -98q-5 -15 -5 -33v-10h-97v19q0 52 31 93q5 5 14 17 q35 40 35 79q0 43 -32 43q-36 0 -36 -53v-10h-82z" />
<glyph unicode="&#x1ecf;" horiz-adv-x="900" d="M75 532q0 275 55 390q81 171 320 171t321 -171q54 -114 54 -390t-54 -390q-82 -171 -321 -171t-320 172q-55 114 -55 389zM328 518q0 -198 2 -215q20 -143 118 -143t121 122q4 27 4 200v104q0 162 -6 195q-22 122 -117 122q-92 0 -115 -107q-7 -34 -7 -180v-98zM339 1353 v10q0 59 26 96q36 49 94 49q68 0 110 -48q28 -32 28 -91q0 -37 -16 -63q-30 -32 -70 -98q-5 -15 -5 -33v-10h-97v19q0 52 31 93q5 5 14 17q35 40 35 79q0 43 -32 43q-36 0 -36 -53v-10h-82z" />
<glyph unicode="&#x1ed0;" horiz-adv-x="1105" d="M92 708q0 428 87 563q67 103 160 144q81 36 213 36t213 -36q95 -42 161 -144q86 -133 86 -563q0 -427 -86 -563q-66 -101 -161 -143q-81 -36 -213 -36t-213 36q-93 41 -160 143q-87 136 -87 563zM280 1769l160 262h236l-281 -262h-115zM300 1489l160 262h188l160 -262 h-114l-140 138l-140 -138h-114zM359 913q3 89 3 -205q0 -277 -2 -204q3 -143 40 -222q48 -104 154 -104q105 0 152 104q36 79 39 223q-3 -100 -3 203q0 294 3 205q-4 144 -39 223q-48 106 -154 106t-154 -106q-35 -79 -39 -223z" />
<glyph unicode="&#x1ed1;" horiz-adv-x="900" d="M75 532q0 275 55 390q81 171 320 171t321 -171q54 -114 54 -390t-54 -390q-82 -171 -321 -171t-320 172q-55 114 -55 389zM175 1459l160 262h236l-281 -262h-115zM196 1178l160 262h188l160 -262h-114l-140 138l-140 -138h-114zM328 518q0 -198 2 -215q20 -143 118 -143 t121 122q4 27 4 200v104q0 162 -6 195q-22 122 -117 122q-92 0 -115 -107q-7 -34 -7 -180v-98z" />
<glyph unicode="&#x1ed2;" horiz-adv-x="1105" d="M92 708q0 428 87 563q67 103 160 144q81 36 213 36t213 -36q95 -42 161 -144q86 -133 86 -563q0 -427 -86 -563q-66 -101 -161 -143q-81 -36 -213 -36t-213 36q-93 41 -160 143q-87 136 -87 563zM300 1489l160 262h188l160 -262h-114l-140 138l-140 -138h-114zM359 913 q3 89 3 -205q0 -277 -2 -204q3 -143 40 -222q48 -104 154 -104q105 0 152 104q36 79 39 223q-3 -100 -3 203q0 294 3 205q-4 144 -39 223q-48 106 -154 106t-154 -106q-35 -79 -39 -223zM439 2031h236l160 -262h-115z" />
<glyph unicode="&#x1ed3;" horiz-adv-x="900" d="M75 532q0 275 55 390q81 171 320 171t321 -171q54 -114 54 -390t-54 -390q-82 -171 -321 -171t-320 172q-55 114 -55 389zM196 1178l160 262h188l160 -262h-114l-140 138l-140 -138h-114zM328 518q0 -198 2 -215q20 -143 118 -143t121 122q4 27 4 200v104q0 162 -6 195 q-22 122 -117 122q-92 0 -115 -107q-7 -34 -7 -180v-98zM335 1721h236l160 -262h-115z" />
<glyph unicode="&#x1ed4;" horiz-adv-x="1105" d="M92 708q0 428 87 563q67 103 160 144q81 36 213 36t213 -36q95 -42 161 -144q86 -133 86 -563q0 -427 -86 -563q-66 -101 -161 -143q-81 -36 -213 -36t-213 36q-93 41 -160 143q-87 136 -87 563zM300 1489l160 262h188l160 -262h-114l-140 138l-140 -138h-114zM359 913 q3 89 3 -205q0 -277 -2 -204q3 -143 40 -222q48 -104 154 -104q105 0 152 104q36 79 39 223q-3 -100 -3 203q0 294 3 205q-4 144 -39 223q-48 106 -154 106t-154 -106q-35 -79 -39 -223zM637 1911v10q0 59 26 96q36 49 94 49q68 0 110 -48q28 -32 28 -91q0 -37 -16 -63 q-30 -32 -70 -98q-5 -15 -5 -33v-10h-97v19q0 52 31 93q5 5 14 17q35 40 35 79q0 43 -32 43q-36 0 -36 -53v-10h-82z" />
<glyph unicode="&#x1ed5;" horiz-adv-x="900" d="M75 532q0 275 55 390q81 171 320 171t321 -171q54 -114 54 -390t-54 -390q-82 -171 -321 -171t-320 172q-55 114 -55 389zM196 1178l160 262h188l160 -262h-114l-140 138l-140 -138h-114zM328 518q0 -198 2 -215q20 -143 118 -143t121 122q4 27 4 200v104q0 162 -6 195 q-22 122 -117 122q-92 0 -115 -107q-7 -34 -7 -180v-98zM533 1600v10q0 59 26 96q36 49 94 49q68 0 110 -48q28 -32 28 -91q0 -37 -16 -63q-30 -32 -70 -98q-5 -15 -5 -33v-10h-97v19q0 52 31 93q5 5 14 17q35 40 35 79q0 43 -32 43q-36 0 -36 -53v-10h-82z" />
<glyph unicode="&#x1ed6;" horiz-adv-x="1105" d="M92 708q0 428 87 563q67 103 160 144q81 36 213 36t213 -36q95 -42 161 -144q86 -133 86 -563q0 -427 -86 -563q-66 -101 -161 -143q-81 -36 -213 -36t-213 36q-93 41 -160 143q-87 136 -87 563zM300 1489l160 262h188l160 -262h-114l-140 138l-140 -138h-114zM331 1804 q36 213 164 213q31 0 56 -7l102 -31q18 -5 44 -5q55 0 70 69h81q-34 -218 -172 -218q-22 0 -47 7l-112 32q-19 6 -30 6q-61 0 -76 -66h-80zM359 913q3 89 3 -205q0 -277 -2 -204q3 -143 40 -222q48 -104 154 -104q105 0 152 104q36 79 39 223q-3 -100 -3 203q0 294 3 205 q-4 144 -39 223q-48 106 -154 106t-154 -106q-35 -79 -39 -223z" />
<glyph unicode="&#x1ed7;" horiz-adv-x="900" d="M75 532q0 275 55 390q81 171 320 171t321 -171q54 -114 54 -390t-54 -390q-82 -171 -321 -171t-320 172q-55 114 -55 389zM196 1178l160 262h188l160 -262h-114l-140 138l-140 -138h-114zM227 1494q36 213 164 213q31 0 56 -7l102 -31q18 -5 44 -5q55 0 70 69h81 q-34 -218 -172 -218q-22 0 -47 7l-112 32q-19 6 -30 6q-61 0 -76 -66h-80zM328 518q0 -198 2 -215q20 -143 118 -143t121 122q4 27 4 200v104q0 162 -6 195q-22 122 -117 122q-92 0 -115 -107q-7 -34 -7 -180v-98z" />
<glyph unicode="&#x1ed8;" horiz-adv-x="1105" d="M92 708q0 428 87 563q67 103 160 144q81 36 213 36t213 -36q95 -42 161 -144q86 -133 86 -563q0 -427 -86 -563q-66 -101 -161 -143q-81 -36 -213 -36t-213 36q-93 41 -160 143q-87 136 -87 563zM300 1489l160 262h188l160 -262h-114l-140 138l-140 -138h-114zM359 913 q3 89 3 -205q0 -277 -2 -204q3 -143 40 -222q48 -104 154 -104q105 0 152 104q36 79 39 223q-3 -100 -3 203q0 294 3 205q-4 144 -39 223q-48 106 -154 106t-154 -106q-35 -79 -39 -223zM440 -124h237v-254h-237v254z" />
<glyph unicode="&#x1ed9;" horiz-adv-x="900" d="M75 532q0 275 55 390q81 171 320 171t321 -171q54 -114 54 -390t-54 -390q-82 -171 -321 -171t-320 172q-55 114 -55 389zM196 1178l160 262h188l160 -262h-114l-140 138l-140 -138h-114zM328 518q0 -198 2 -215q20 -143 118 -143t121 122q4 27 4 200v104q0 162 -6 195 q-22 122 -117 122q-92 0 -115 -107q-7 -34 -7 -180v-98zM330 -124h237v-254h-237v254z" />
<glyph unicode="&#x1eda;" horiz-adv-x="1105" d="M92 708q0 428 87 563q67 103 160 144q81 36 213 36t213 -36q95 -42 161 -144q37 -58 58 -162q88 29 88 142v15h-117v239h228v-252q0 -87 -50.5 -149t-135.5 -84q15 -125 15 -312q0 -427 -86 -563q-66 -101 -161 -143q-81 -36 -213 -36t-213 36q-93 41 -160 143 q-87 136 -87 563zM359 913q3 89 3 -205q0 -277 -2 -204q3 -143 40 -222q48 -104 154 -104q105 0 152 104q36 79 39 223q-3 -100 -3 203q0 294 3 205q-4 144 -39 223q-48 106 -154 106t-154 -106q-35 -79 -39 -223zM424 1536l160 262h236l-281 -262h-115z" />
<glyph unicode="&#x1edb;" horiz-adv-x="900" d="M75 532q0 275 55 390q81 171 320 171q210 0 292 -120q29 -40 47 -105q68 36 68 134v15h-116v239h228v-252q0 -97 -63 -162q-39 -43 -97 -63q16 -104 16 -247q0 -276 -54 -390q-82 -171 -321 -171t-320 172q-55 114 -55 389zM320 1178l160 262h236l-281 -262h-115z M328 518q0 -198 2 -215q20 -143 118 -143t121 122q4 27 4 200v104q0 162 -6 195q-22 122 -117 122q-92 0 -115 -107q-7 -34 -7 -180v-98z" />
<glyph unicode="&#x1edc;" horiz-adv-x="1105" d="M92 708q0 428 87 563q67 103 160 144q81 36 213 36t213 -36q95 -42 161 -144q37 -58 58 -162q88 29 88 142v15h-117v239h228v-252q0 -87 -50.5 -149t-135.5 -84q15 -125 15 -312q0 -427 -86 -563q-66 -101 -161 -143q-81 -36 -213 -36t-213 36q-93 41 -160 143 q-87 136 -87 563zM288 1798h236l160 -262h-115zM359 913q3 89 3 -205q0 -277 -2 -204q3 -143 40 -222q48 -104 154 -104q105 0 152 104q36 79 39 223q-3 -100 -3 203q0 294 3 205q-4 144 -39 223q-48 106 -154 106t-154 -106q-35 -79 -39 -223z" />
<glyph unicode="&#x1edd;" horiz-adv-x="900" d="M75 532q0 275 55 390q81 171 320 171q210 0 292 -120q29 -40 47 -105q68 36 68 134v15h-116v239h228v-252q0 -97 -63 -162q-39 -43 -97 -63q16 -104 16 -247q0 -276 -54 -390q-82 -171 -321 -171t-320 172q-55 114 -55 389zM184 1440h236l160 -262h-115zM328 518 q0 -198 2 -215q20 -143 118 -143t121 122q4 27 4 200v104q0 162 -6 195q-22 122 -117 122q-92 0 -115 -107q-7 -34 -7 -180v-98z" />
<glyph unicode="&#x1ede;" horiz-adv-x="1105" d="M92 708q0 428 87 563q67 103 160 144q81 36 213 36t213 -36q95 -42 161 -144q37 -58 58 -162q88 29 88 142v15h-117v239h228v-252q0 -87 -50.5 -149t-135.5 -84q15 -125 15 -312q0 -427 -86 -563q-66 -101 -161 -143q-81 -36 -213 -36t-213 36q-93 41 -160 143 q-87 136 -87 563zM359 913q3 89 3 -205q0 -277 -2 -204q3 -143 40 -222q48 -104 154 -104q105 0 152 104q36 79 39 223q-3 -100 -3 203q0 294 3 205q-4 144 -39 223q-48 106 -154 106t-154 -106q-35 -79 -39 -223zM429 1709v10q0 59 26 96q36 49 94 49q68 0 110 -48 q28 -32 28 -91q0 -37 -16 -63q-30 -32 -70 -98q-5 -15 -5 -33v-10h-97v19q0 52 31 93q5 5 14 17q35 40 35 79q0 43 -32 43q-36 0 -36 -53v-10h-82z" />
<glyph unicode="&#x1edf;" horiz-adv-x="900" d="M75 532q0 275 55 390q81 171 320 171q210 0 292 -120q29 -40 47 -105q68 36 68 134v15h-116v239h228v-252q0 -97 -63 -162q-39 -43 -97 -63q16 -104 16 -247q0 -276 -54 -390q-82 -171 -321 -171t-320 172q-55 114 -55 389zM328 518q0 -198 2 -215q20 -143 118 -143 t121 122q4 27 4 200v104q0 162 -6 195q-22 122 -117 122q-92 0 -115 -107q-7 -34 -7 -180v-98zM339 1353v10q0 59 26 96q36 49 94 49q68 0 110 -48q28 -32 28 -91q0 -37 -16 -63q-30 -32 -70 -98q-5 -15 -5 -33v-10h-97v19q0 52 31 93q5 5 14 17q35 40 35 79q0 43 -32 43 q-36 0 -36 -53v-10h-82z" />
<glyph unicode="&#x1ee0;" horiz-adv-x="1105" d="M92 708q0 428 87 563q67 103 160 144q81 36 213 36t213 -36q95 -42 161 -144q37 -58 58 -162q88 29 88 142v15h-117v239h228v-252q0 -87 -50.5 -149t-135.5 -84q15 -125 15 -312q0 -427 -86 -563q-66 -101 -161 -143q-81 -36 -213 -36t-213 36q-93 41 -160 143 q-87 136 -87 563zM296 1547q36 213 164 213q31 0 56 -7l102 -31q18 -5 44 -5q55 0 70 69h81q-34 -218 -172 -218q-22 0 -47 7l-112 32q-19 6 -30 6q-61 0 -76 -66h-80zM359 913q3 89 3 -205q0 -277 -2 -204q3 -143 40 -222q48 -104 154 -104q105 0 152 104q36 79 39 223 q-3 -100 -3 203q0 294 3 205q-4 144 -39 223q-48 106 -154 106t-154 -106q-35 -79 -39 -223z" />
<glyph unicode="&#x1ee1;" horiz-adv-x="900" d="M75 532q0 275 55 390q81 171 320 171q210 0 292 -120q29 -40 47 -105q68 36 68 134v15h-116v239h228v-252q0 -97 -63 -162q-39 -43 -97 -63q16 -104 16 -247q0 -276 -54 -390q-82 -171 -321 -171t-320 172q-55 114 -55 389zM192 1189q36 213 164 213q31 0 56 -7l102 -31 q18 -5 44 -5q55 0 70 69h81q-34 -218 -172 -218q-22 0 -47 7l-112 32q-19 6 -30 6q-61 0 -76 -66h-80zM328 518q0 -198 2 -215q20 -143 118 -143t121 122q4 27 4 200v104q0 162 -6 195q-22 122 -117 122q-92 0 -115 -107q-7 -34 -7 -180v-98z" />
<glyph unicode="&#x1ee2;" horiz-adv-x="1105" d="M92 708q0 428 87 563q67 103 160 144q81 36 213 36t213 -36q95 -42 161 -144q37 -58 58 -162q88 29 88 142v15h-117v239h228v-252q0 -87 -50.5 -149t-135.5 -84q15 -125 15 -312q0 -427 -86 -563q-66 -101 -161 -143q-81 -36 -213 -36t-213 36q-93 41 -160 143 q-87 136 -87 563zM359 913q3 89 3 -205q0 -277 -2 -204q3 -143 40 -222q48 -104 154 -104q105 0 152 104q36 79 39 223q-3 -100 -3 203q0 294 3 205q-4 144 -39 223q-48 106 -154 106t-154 -106q-35 -79 -39 -223zM440 -124h237v-254h-237v254z" />
<glyph unicode="&#x1ee3;" horiz-adv-x="900" d="M75 532q0 275 55 390q81 171 320 171q210 0 292 -120q29 -40 47 -105q68 36 68 134v15h-116v239h228v-252q0 -97 -63 -162q-39 -43 -97 -63q16 -104 16 -247q0 -276 -54 -390q-82 -171 -321 -171t-320 172q-55 114 -55 389zM328 518q0 -198 2 -215q20 -143 118 -143 t121 122q4 27 4 200v104q0 162 -6 195q-22 122 -117 122q-92 0 -115 -107q-7 -34 -7 -180v-98zM330 -124h237v-254h-237v254z" />
<glyph unicode="&#x1ee4;" horiz-adv-x="1125" d="M121 439v978h264v-955q0 -138 24 -194q40 -87 158 -87q117 0 155 89q24 56 24 196v951h260v-978q0 -232 -69 -324q-115 -149 -374 -149q-248 0 -349 113q-93 106 -93 360zM450 -124h237v-254h-237v254z" />
<glyph unicode="&#x1ee5;" horiz-adv-x="911" d="M104 228v836h237v-695q0 -86 13 -122q23 -64 92 -64q75 0 100 69q13 40 13 133v679h248v-1064h-242v106q-76 -135 -224 -135q-237 0 -237 257zM348 -124h237v-254h-237v254z" />
<glyph unicode="&#x1ee6;" horiz-adv-x="1125" d="M121 439v978h264v-955q0 -138 24 -194q40 -87 158 -87q117 0 155 89q24 56 24 196v951h260v-978q0 -232 -69 -324q-115 -149 -374 -149q-248 0 -349 113q-93 106 -93 360zM446 1709v10q0 59 26 96q36 49 94 49q68 0 110 -48q28 -32 28 -91q0 -37 -16 -63q-30 -32 -70 -98 q-5 -15 -5 -33v-10h-97v19q0 52 31 93q5 5 14 17q35 40 35 79q0 43 -32 43q-36 0 -36 -53v-10h-82z" />
<glyph unicode="&#x1ee7;" horiz-adv-x="911" d="M104 228v836h237v-695q0 -86 13 -122q23 -64 92 -64q75 0 100 69q13 40 13 133v679h248v-1064h-242v106q-76 -135 -224 -135q-237 0 -237 257zM330 1353v10q0 59 26 96q36 49 94 49q68 0 110 -48q28 -32 28 -91q0 -37 -16 -63q-30 -32 -70 -98q-5 -15 -5 -33v-10h-97v19 q0 52 31 93q5 5 14 17q35 40 35 79q0 43 -32 43q-36 0 -36 -53v-10h-82z" />
<glyph unicode="&#x1ee8;" horiz-adv-x="1125" d="M121 439v978h264v-955q0 -138 24 -194q40 -87 158 -87q117 0 155 89q24 56 24 196v951h209v88h228v-252q0 -178 -177 -231v-583q0 -232 -69 -324q-115 -149 -374 -149q-248 0 -349 113q-93 106 -93 360zM433 1536l160 262h236l-281 -262h-115zM1006 1119q66 37 66 132v15 h-66v-147z" />
<glyph unicode="&#x1ee9;" horiz-adv-x="911" d="M104 228v836h237v-695q0 -86 13 -122q23 -64 92 -64q75 0 100 69q13 40 13 133v679h182v192h228v-252q0 -97 -63 -162q-40 -43 -99 -64v-778h-242v106q-76 -135 -224 -135q-237 0 -237 257zM326 1178l160 262h236l-281 -262h-115zM807 880q50 40 50 122v15h-50v-137z" />
<glyph unicode="&#x1eea;" horiz-adv-x="1125" d="M121 439v978h264v-955q0 -138 24 -194q40 -87 158 -87q117 0 155 89q24 56 24 196v951h209v88h228v-252q0 -178 -177 -231v-583q0 -232 -69 -324q-115 -149 -374 -149q-248 0 -349 113q-93 106 -93 360zM297 1798h236l160 -262h-115zM1006 1119q66 37 66 132v15h-66v-147 z" />
<glyph unicode="&#x1eeb;" horiz-adv-x="911" d="M104 228v836h237v-695q0 -86 13 -122q23 -64 92 -64q75 0 100 69q13 40 13 133v679h182v192h228v-252q0 -97 -63 -162q-40 -43 -99 -64v-778h-242v106q-76 -135 -224 -135q-237 0 -237 257zM190 1440h236l160 -262h-115zM807 880q50 40 50 122v15h-50v-137z" />
<glyph unicode="&#x1eec;" horiz-adv-x="1125" d="M121 439v978h264v-955q0 -138 24 -194q40 -87 158 -87q117 0 155 89q24 56 24 196v951h209v88h228v-252q0 -178 -177 -231v-583q0 -232 -69 -324q-115 -149 -374 -149q-248 0 -349 113q-93 106 -93 360zM446 1709v10q0 59 26 96q36 49 94 49q68 0 110 -48q28 -32 28 -91 q0 -37 -16 -63q-30 -32 -70 -98q-5 -15 -5 -33v-10h-97v19q0 52 31 93q5 5 14 17q35 40 35 79q0 43 -32 43q-36 0 -36 -53v-10h-82zM1006 1119q66 37 66 132v15h-66v-147z" />
<glyph unicode="&#x1eed;" horiz-adv-x="911" d="M104 228v836h237v-695q0 -86 13 -122q23 -64 92 -64q75 0 100 69q13 40 13 133v679h182v192h228v-252q0 -97 -63 -162q-40 -43 -99 -64v-778h-242v106q-76 -135 -224 -135q-237 0 -237 257zM330 1353v10q0 59 26 96q36 49 94 49q68 0 110 -48q28 -32 28 -91 q0 -37 -16 -63q-30 -32 -70 -98q-5 -15 -5 -33v-10h-97v19q0 52 31 93q5 5 14 17q35 40 35 79q0 43 -32 43q-36 0 -36 -53v-10h-82zM807 880q50 40 50 122v15h-50v-137z" />
<glyph unicode="&#x1eee;" horiz-adv-x="1125" d="M121 439v978h264v-955q0 -138 24 -194q40 -87 158 -87q117 0 155 89q24 56 24 196v951h209v88h228v-252q0 -178 -177 -231v-583q0 -232 -69 -324q-115 -149 -374 -149q-248 0 -349 113q-93 106 -93 360zM296 1547q36 213 164 213q31 0 56 -7l102 -31q18 -5 44 -5 q55 0 70 69h81q-34 -218 -172 -218q-22 0 -47 7l-112 32q-19 6 -30 6q-61 0 -76 -66h-80zM1006 1119q66 37 66 132v15h-66v-147z" />
<glyph unicode="&#x1eef;" horiz-adv-x="911" d="M104 228v836h237v-695q0 -86 13 -122q23 -64 92 -64q75 0 100 69q13 40 13 133v679h182v192h228v-252q0 -97 -63 -162q-40 -43 -99 -64v-778h-242v106q-76 -135 -224 -135q-237 0 -237 257zM192 1189q36 213 164 213q31 0 56 -7l102 -31q18 -5 44 -5q55 0 70 69h81 q-34 -218 -172 -218q-22 0 -47 7l-112 32q-19 6 -30 6q-61 0 -76 -66h-80zM807 880q50 40 50 122v15h-50v-137z" />
<glyph unicode="&#x1ef0;" horiz-adv-x="1125" d="M121 439v978h264v-955q0 -138 24 -194q40 -87 158 -87q117 0 155 89q24 56 24 196v951h209v88h228v-252q0 -178 -177 -231v-583q0 -232 -69 -324q-115 -149 -374 -149q-248 0 -349 113q-93 106 -93 360zM450 -124h237v-254h-237v254zM1006 1119q66 37 66 132v15h-66v-147 z" />
<glyph unicode="&#x1ef1;" horiz-adv-x="911" d="M104 228v836h237v-695q0 -86 13 -122q23 -64 92 -64q75 0 100 69q13 40 13 133v679h182v192h228v-252q0 -97 -63 -162q-40 -43 -99 -64v-778h-242v106q-76 -135 -224 -135q-237 0 -237 257zM348 -124h237v-254h-237v254zM807 880q50 40 50 122v15h-50v-137z" />
<glyph unicode="&#x1ef2;" horiz-adv-x="1035" d="M17 1417h292l214 -533l212 533h284l-365 -816v-601h-266v601zM288 1798h236l160 -262h-115z" />
<glyph unicode="&#x1ef3;" horiz-adv-x="836" d="M18 1064h261l147 -768l143 768h249l-277 -1164q-34 -143 -90 -196q-64 -60 -203 -60q-40 0 -86 7v184q6 0 19 -1h20q101 0 101 72q0 20 -10 61zM203 1440h236l160 -262h-115z" />
<glyph unicode="&#x1ef4;" horiz-adv-x="1035" d="M17 1417h292l214 -533l212 533h284l-365 -816v-601h-266v601zM403 -124h237v-254h-237v254z" />
<glyph unicode="&#x1ef5;" horiz-adv-x="836" d="M18 1064h261l147 -768l143 768h249l-277 -1164q-34 -143 -90 -196q-64 -60 -203 -60q-40 0 -86 7v184q6 0 19 -1h20q101 0 101 72q0 20 -10 61zM560 -124h237v-254h-237v254z" />
<glyph unicode="&#x1ef6;" horiz-adv-x="1035" d="M17 1417h292l214 -533l212 533h284l-365 -816v-601h-266v601zM402 1709v10q0 59 26 96q36 49 94 49q68 0 110 -48q28 -32 28 -91q0 -37 -16 -63q-30 -32 -70 -98q-5 -15 -5 -33v-10h-97v19q0 52 31 93q5 5 14 17q35 40 35 79q0 43 -32 43q-36 0 -36 -53v-10h-82z" />
<glyph unicode="&#x1ef7;" horiz-adv-x="836" d="M18 1064h261l147 -768l143 768h249l-277 -1164q-34 -143 -90 -196q-64 -60 -203 -60q-40 0 -86 7v184q6 0 19 -1h20q101 0 101 72q0 20 -10 61zM311 1353v10q0 59 26 96q36 49 94 49q68 0 110 -48q28 -32 28 -91q0 -37 -16 -63q-30 -32 -70 -98q-5 -15 -5 -33v-10h-97v19 q0 52 31 93q5 5 14 17q35 40 35 79q0 43 -32 43q-36 0 -36 -53v-10h-82z" />
<glyph unicode="&#x1ef8;" horiz-adv-x="1035" d="M17 1417h292l214 -533l212 533h284l-365 -816v-601h-266v601zM296 1547q36 213 164 213q31 0 56 -7l102 -31q18 -5 44 -5q55 0 70 69h81q-34 -218 -172 -218q-22 0 -47 7l-112 32q-19 6 -30 6q-61 0 -76 -66h-80z" />
<glyph unicode="&#x1ef9;" horiz-adv-x="836" d="M18 1064h261l147 -768l143 768h249l-277 -1164q-34 -143 -90 -196q-64 -60 -203 -60q-40 0 -86 7v184q6 0 19 -1h20q101 0 101 72q0 20 -10 61zM192 1189q36 213 164 213q31 0 56 -7l102 -31q18 -5 44 -5q55 0 70 69h81q-34 -218 -172 -218q-22 0 -47 7l-112 32 q-19 6 -30 6q-61 0 -76 -66h-80z" />
<glyph unicode="&#x2000;" horiz-adv-x="1033" />
<glyph unicode="&#x2001;" horiz-adv-x="2066" />
<glyph unicode="&#x2002;" horiz-adv-x="1033" />
<glyph unicode="&#x2003;" horiz-adv-x="2066" />
<glyph unicode="&#x2004;" horiz-adv-x="688" />
<glyph unicode="&#x2005;" horiz-adv-x="516" />
<glyph unicode="&#x2006;" horiz-adv-x="344" />
<glyph unicode="&#x2007;" horiz-adv-x="344" />
<glyph unicode="&#x2008;" horiz-adv-x="258" />
<glyph unicode="&#x2009;" horiz-adv-x="413" />
<glyph unicode="&#x200a;" horiz-adv-x="114" />
<glyph unicode="&#x2010;" horiz-adv-x="618" d="M85 422v220h449v-220h-449z" />
<glyph unicode="&#x2011;" horiz-adv-x="618" d="M85 422v220h449v-220h-449z" />
<glyph unicode="&#x2012;" horiz-adv-x="618" d="M85 422v220h449v-220h-449z" />
<glyph unicode="&#x2013;" d="M0 458v148h942v-148h-942z" />
<glyph unicode="&#x2014;" horiz-adv-x="1884" d="M0 458v148h1884v-148h-1884z" />
<glyph unicode="&#x2018;" horiz-adv-x="471" d="M111 955v255q0 99 66 165q61 63 162 76v-90q-118 -16 -118 -149v-16h117v-241h-227z" />
<glyph unicode="&#x2019;" horiz-adv-x="471" d="M111 924v90q117 15 117 149v15h-117v239h228v-252q0 -100 -65 -166q-61 -62 -163 -75z" />
<glyph unicode="&#x201a;" horiz-adv-x="471" d="M111 0v241h228v-254q0 -99 -65 -165q-61 -61 -163 -74v90q117 16 117 147v15h-117z" />
<glyph unicode="&#x201c;" horiz-adv-x="834" d="M111 955v255q0 99 66 165q61 63 162 76v-90q-118 -16 -118 -149v-16h117v-241h-227zM475 955v255q0 99 65 165q63 62 163 76v-90q-119 -16 -119 -149v-16h117v-241h-226z" />
<glyph unicode="&#x201d;" horiz-adv-x="834" d="M111 924v90q117 15 117 149v15h-117v239h228v-252q0 -100 -65 -166q-61 -62 -163 -75zM475 924v90q117 15 117 149v15h-117v239h228v-252q0 -100 -65 -166q-62 -62 -163 -75z" />
<glyph unicode="&#x201e;" horiz-adv-x="834" d="M111 0v241h228v-254q0 -99 -65 -165q-61 -61 -163 -74v90q117 16 117 147v15h-117zM475 0v241h228v-254q0 -99 -65 -165q-62 -61 -163 -74v90q117 16 117 147v15h-117z" />
<glyph unicode="&#x2020;" d="M72 818v222h279v377h239v-377h278v-222h-278v-982h-239v982h-279z" />
<glyph unicode="&#x2021;" d="M81 203v210h270v435h-270v211h270v358h239v-358h271v-211h-271v-435h271v-210h-271v-359h-239v359h-270z" />
<glyph unicode="&#x2022;" horiz-adv-x="1111" d="M282 701q0 114 80 192.5t194 78.5q113 0 192 -79t79 -192t-80 -193t-193 -80q-114 0 -193 79.5t-79 193.5z" />
<glyph unicode="&#x2026;" horiz-adv-x="1884" d="M196 0v254h237v-254h-237zM824 0v254h237v-254h-237zM1453 0v254h237v-254h-237z" />
<glyph unicode="&#x202f;" horiz-adv-x="413" />
<glyph unicode="&#x2030;" horiz-adv-x="2123" d="M83 1082q0 171 57 251q67 93 231 93q167 0 235 -90q61 -78 61 -252q0 -175 -60 -261q-71 -102 -236 -102q-167 0 -233 101q-55 83 -55 260zM268 1075q0 -100 10 -136q22 -74 96 -74q75 0 96 73q10 35 10 137q0 96 -13 136q-24 72 -98 72q-69 0 -90 -75q-11 -39 -11 -133z M331 -27l649 1453h137l-650 -1453h-136zM784 331q0 171 57 252q68 95 231 95q167 0 237 -91q61 -80 61 -254t-61 -259q-72 -101 -237 -101q-167 0 -233 100q-55 82 -55 258zM971 328q0 -101 10 -137q21 -76 94 -76q76 0 98 74q10 35 10 137q0 95 -13 136q-24 73 -98 73 q-69 0 -90 -75q-11 -39 -11 -132zM1456 331q0 171 57 252q68 95 231 95q168 0 238 -91q60 -80 60 -254q0 -175 -60 -259q-71 -101 -238 -101q-165 0 -232 100q-56 82 -56 258zM1643 328q0 -102 9 -137q21 -76 94 -76q77 0 99 73q11 36 11 138q0 96 -13 136q-24 73 -99 73 q-69 0 -90 -75q-11 -39 -11 -132z" />
<glyph unicode="&#x2039;" horiz-adv-x="540" d="M126 437v190l289 261v-204l-178 -150l178 -153v-203z" />
<glyph unicode="&#x203a;" horiz-adv-x="540" d="M126 178v203l178 151l-178 152v204l289 -261v-190z" />
<glyph unicode="&#x2044;" horiz-adv-x="314" d="M-315 -27l799 1453h143l-800 -1453h-142z" />
<glyph unicode="&#x205f;" horiz-adv-x="516" />
<glyph unicode="&#x20a3;" horiz-adv-x="1558" d="M121 0v1417h740v-232h-476v-335h449v-226h-449v-624h-264zM1030 0v1064h236v-173q94 199 248 201v-299q-27 4 -61 4q-79 0 -125.5 -47t-46.5 -126v-624h-251z" />
<glyph unicode="&#x20ab;" horiz-adv-x="586" d="M-1 775q0 184 21 259q43 149 178 149q105 0 150 -85v142h-152v95h152v82h179v-82h105v-95h-105v-846h-169v81q-44 -101 -157 -101q-135 0 -179 144q-23 77 -23 257zM21 208v94h494v-94h-494zM179 790q0 -140 3 -158q14 -111 79 -111q67 0 85 77q7 30 7 131q0 160 -2 178 q-16 126 -90 126q-62 0 -78 -99q-4 -26 -4 -144z" />
<glyph unicode="&#x2122;" horiz-adv-x="1569" d="M190 1242v103h447v-103h-155v-400h-137v400h-155zM739 842v503h180l117 -305l113 305h181v-503h-124v377l-142 -377h-56l-145 377v-377h-124z" />
<glyph unicode="&#x2202;" horiz-adv-x="1006" d="M70 351q0 172 97 293q106 131 274 131q180 0 260 -166q36 187 36 317q0 197 -88 197q-36 0 -134.5 -67t-147.5 -67q-39 0 -65.5 27.5t-26.5 67.5q0 75 105 121q83 37 168 37q201 0 306 -181q86 -149 86 -365q0 -271 -117 -474q-140 -245 -392 -245q-160 0 -260.5 106.5 t-100.5 267.5zM292 260q0 -219 138 -219q116 0 173 172q41 121 41 264q0 220 -137 220q-116 0 -174 -172q-41 -121 -41 -265z" />
<glyph unicode="&#x220f;" horiz-adv-x="1483" d="M138 -362v1717h1203v-1717h-316v1451h-571v-1451h-316z" />
<glyph unicode="&#x2211;" horiz-adv-x="1352" d="M38 -203l642 710l-619 635v213h1203v-244h-808l571 -593l-573 -635h859v-245h-1275v159z" />
<glyph unicode="&#x2212;" horiz-adv-x="1569" d="M234 469v187h1102v-187h-1102z" />
<glyph unicode="&#x2219;" horiz-adv-x="471" d="M88 697q0 62 43 105t105 43q59 0 103 -44t44 -104t-43.5 -102.5t-103.5 -42.5q-62 0 -105 42t-43 103z" />
<glyph unicode="&#x221a;" horiz-adv-x="1238" d="M66 809l305 106l217 -608l462 1251h190v-118h-95l-544 -1478h-92l-286 790l-129 -47z" />
<glyph unicode="&#x221e;" horiz-adv-x="1569" d="M189 561q0 150 65 254q77 123 219 123q159 0 307 -237q123 239 297 239q141 0 228 -123q78 -110 78 -256q0 -149 -66 -254q-78 -122 -219 -122q-160 0 -309 235q-122 -237 -295 -237q-142 0 -228 122q-77 109 -77 256zM284 559q0 -77 49 -129.5t125 -52.5q132 0 247 229 q-81 138 -227 138q-84 0 -139 -50.5t-55 -134.5zM867 516q83 -139 226 -139q85 0 139.5 50t54.5 134q0 78 -48.5 130.5t-125.5 52.5q-131 0 -246 -228z" />
<glyph unicode="&#x222b;" horiz-adv-x="1091" d="M45 -181q0 125 133 125q41 0 74 -26q36 -28 36 -69q0 -81 27 -81q94 0 111 588l5 194q12 360 64 540q97 340 351 340q83 0 138 -40q62 -44 62 -124q0 -56 -35.5 -89t-91.5 -33q-88 0 -108 84q-5 20 -7 50q-3 43 -28 43q-91 1 -109 -582l-6 -164q-8 -233 -17 -324 q-18 -192 -65 -315q-106 -279 -334 -279q-81 0 -137 39q-63 45 -63 123z" />
<glyph unicode="&#x2248;" horiz-adv-x="1569" d="M164 196v201q199 132 356 132q101 0 283.5 -60.5t259.5 -60.5q150 0 345 140v-201q-189 -128 -349 -128q-89 0 -268 61t-273 61q-146 0 -354 -145zM164 575v201q198 132 356 132q98 0 278.5 -60t264.5 -60q145 0 345 139v-202q-189 -126 -347 -126q-89 0 -268.5 60 t-274.5 60q-144 0 -354 -144z" />
<glyph unicode="&#x2260;" horiz-adv-x="1569" d="M234 275v178h347l174 220h-521v175h640l228 286l136 -109l-141 -177h239v-175h-358l-176 -220h534v-178h-651l-225 -284l-136 109l142 175h-232z" />
<glyph unicode="&#x2264;" horiz-adv-x="1569" d="M237 -2v181h1097v-181h-1097zM237 627v161l1095 354v-193l-767 -242l767 -241v-193z" />
<glyph unicode="&#x2265;" horiz-adv-x="1569" d="M237 -2v181h1097v-181h-1097zM239 273v193l766 241l-766 242v193l1093 -354v-161z" />
<glyph unicode="&#x255f;" d="M341 1178l160 262h236l-281 -262h-115z" />
<glyph unicode="&#x2560;" d="M205 1440h236l160 -262h-115z" />
<glyph unicode="&#x2561;" horiz-adv-x="925" d="M100 1036v36q0 180 90 278q93 101 272 101q169 0 266 -96t97 -264q0 -128 -56 -219q-31 -50 -96 -126q-77 -91 -100 -122q-64 -89 -64 -209q0 -6 1 -17.5t1 -16.5h-222q-3 17 -3 65q0 183 110 323q14 19 47 57q124 143 124 276q0 151 -114 151q-124 0 -124 -183v-34h-229 zM284 0v245h236v-245h-236z" />
<glyph unicode="&#x2562;" horiz-adv-x="471" d="M117 0v254h237v-254h-237z" />
<glyph unicode="&#x25ca;" horiz-adv-x="931" d="M6 545l460 976l460 -976l-460 -984zM111 545l355 -759l354 759l-354 751z" />
<glyph unicode="&#x25cb;" horiz-adv-x="1030" d="M17 0l319 1417h354l322 -1417h-284l-70 356h-304l-68 -356h-269zM396 569h224l-113 594z" />
<glyph unicode="&#x25cf;" horiz-adv-x="932" d="M121 0v1417h727v-236h-465v-327h433v-225h-433v-390h476v-239h-738z" />
<glyph unicode="&#x25d8;" horiz-adv-x="505" d="M121 0v1417h264v-1417h-264z" />
<glyph unicode="&#x25d9;" horiz-adv-x="1105" d="M92 708q0 428 87 563q67 103 160 144q81 36 213 36t213 -36q95 -42 161 -144q86 -133 86 -563q0 -427 -86 -563q-66 -101 -161 -143q-81 -36 -213 -36t-213 36q-93 41 -160 143q-87 136 -87 563zM359 913q3 89 3 -205q0 -277 -2 -204q3 -143 40 -222q48 -104 154 -104 q105 0 152 104q36 79 39 223q-3 -100 -3 203q0 294 3 205q-4 144 -39 223q-48 106 -154 106t-154 -106q-35 -79 -39 -223z" />
<glyph unicode="&#x25e6;" horiz-adv-x="1125" d="M121 439v978h264v-955q0 -138 24 -194q40 -87 158 -87q117 0 155 89q24 56 24 196v951h260v-978q0 -232 -69 -324q-115 -149 -374 -149q-248 0 -349 113q-93 106 -93 360z" />
<glyph unicode="&#x25fc;" horiz-adv-x="1062" d="M0 0v1063h1063v-1063h-1063z" />
<glyph unicode="&#x263a;" horiz-adv-x="913" d="M85 281q0 146 80 231q59 65 214 134q14 6 50 22q144 62 144 144q0 105 -109 105q-131 0 -131 -148v-21h-239q0 184 94 267q88 76 276 76q191 0 269 -73q81 -76 81 -265v-600q0 -87 36 -153h-239q-15 21 -27 103q-79 -132 -243 -132q-129 0 -197 92q-59 82 -59 218z M339 302q0 -138 109 -138q129 0 129 224v170q-113 -58 -158 -97q-80 -69 -80 -159z" />
<glyph unicode="&#x263b;" horiz-adv-x="897" d="M77 567q0 152 9 216q16 131 72 199q92 111 296 111q197 0 288 -121q74 -97 74 -393v-81h-484q-3 -18 -3 -68q0 -119 13 -170q27 -104 111 -104q124 0 124 209h232q0 -7 1 -20.5t1 -20.5q0 -184 -88.5 -268.5t-274.5 -84.5q-192 0 -277 103q-67 81 -85 236q-9 68 -9 257z M328 697q1 -15 1 -30h240v45q0 92 -17 131q-26 61 -104 61q-65 0 -93 -42q-33 -52 -27 -150v-15z" />
<glyph unicode="&#x263c;" horiz-adv-x="456" d="M106 0v1064h245v-1064h-245zM106 1196v221h245v-221h-245z" />
<glyph unicode="&#x2640;" horiz-adv-x="456" d="M106 0v1064h245v-1064h-245z" />
<glyph unicode="&#x2642;" horiz-adv-x="900" d="M75 532q0 275 55 390q81 171 320 171t321 -171q54 -114 54 -390t-54 -390q-82 -171 -321 -171t-320 172q-55 114 -55 389zM328 518q0 -198 2 -215q20 -143 118 -143t121 122q4 27 4 200v104q0 162 -6 195q-22 122 -117 122q-92 0 -115 -107q-7 -34 -7 -180v-98z" />
<glyph unicode="&#x2660;" horiz-adv-x="911" d="M104 228v836h237v-695q0 -86 13 -122q23 -64 92 -64q75 0 100 69q13 40 13 133v679h248v-1064h-242v106q-76 -135 -224 -135q-237 0 -237 257z" />
<glyph unicode="&#x2663;" horiz-adv-x="836" d="M18 1064h261l147 -768l143 768h249l-277 -1164q-34 -143 -90 -196q-64 -60 -203 -60q-40 0 -86 7v184q6 0 19 -1h20q101 0 101 72q0 20 -10 61z" />
<glyph unicode="&#xf000;" horiz-adv-x="1488" d="M104 678q0 194 108 320q114 135 304 135q53 0 138 -31.5t119 -31.5q29 0 114 32t138 32q199 0 330 -151q-185 -117 -185 -301q0 -215 215 -311q-83 -181 -140 -257q-109 -146 -237 -146q-42 0 -119.5 30.5t-113.5 30.5q-41 0 -120 -30.5t-118 -30.5q-118 0 -237 162 q-196 267 -196 548zM767 1153q0 121 93 218q89 91 212 114q2 -19 2 -57q0 -108 -87 -208q-89 -103 -196 -103h-7q-3 0 -7.5 1t-7.5 1q-2 11 -2 34z" />
<glyph unicode="&#xf001;" horiz-adv-x="940" d="M34 881v183h96v106q0 132 48 189q52 63 180 63q49 0 119 -5v-185q-4 0 -12.5 1t-11.5 1q-76 0 -76 -71v-99h100v-183h-100v-881h-247v881h-96zM595 0v1064h243v-1064h-243zM595 1196v221h243v-221h-243z" />
<glyph unicode="&#xf002;" horiz-adv-x="940" d="M34 881v183h96v106q0 132 48 189q52 63 180 63q49 0 119 -5v-185q-4 0 -12.5 1t-11.5 1q-76 0 -76 -71v-99h100v-183h-100v-881h-247v881h-96zM595 0v1417h243v-1417h-243z" />
<glyph horiz-adv-x="1035" d="M17 1417h292l214 -533l212 533h284l-365 -816v-601h-266v601z" />
<glyph horiz-adv-x="471" />
<glyph horiz-adv-x="471" />
<glyph d="M382 1353v10q0 59 26 96q36 49 94 49q68 0 110 -48q28 -32 28 -91q0 -37 -16 -63q-30 -32 -70 -98q-5 -15 -5 -33v-10h-97v19q0 52 31 93q5 5 14 17q35 40 35 79q0 43 -32 43q-36 0 -36 -53v-10h-82z" />
<glyph horiz-adv-x="913" d="M184 1459l160 262h236l-281 -262h-115zM204 1178l160 262h188l160 -262h-114l-140 138l-140 -138h-114z" />
<glyph horiz-adv-x="913" d="M204 1178l160 262h188l160 -262h-114l-140 138l-140 -138h-114zM343 1721h236l160 -262h-115z" />
<glyph horiz-adv-x="913" d="M204 1178l160 262h188l160 -262h-114l-140 138l-140 -138h-114zM541 1600v10q0 59 26 96q36 49 94 49q68 0 110 -48q28 -32 28 -91q0 -37 -16 -63q-30 -32 -70 -98q-5 -15 -5 -33v-10h-97v19q0 52 31 93q5 5 14 17q35 40 35 79q0 43 -32 43q-36 0 -36 -53v-10h-82z" />
<glyph horiz-adv-x="913" d="M204 1178l160 262h188l160 -262h-114l-140 138l-140 -138h-114zM235 1494q36 213 164 213q31 0 56 -7l102 -31q18 -5 44 -5q55 0 70 69h81q-34 -218 -172 -218q-22 0 -47 7l-112 32q-19 6 -30 6q-61 0 -76 -66h-80z" />
<glyph horiz-adv-x="913" d="M207 1440h105q19 -113 147 -113q133 0 147 113h105q-25 -262 -252 -262q-229 0 -252 262zM350 1459l160 262h236l-281 -262h-115z" />
<glyph horiz-adv-x="913" d="M179 1721h236l160 -262h-115zM207 1440h105q19 -113 147 -113q133 0 147 113h105q-25 -262 -252 -262q-229 0 -252 262z" />
<glyph horiz-adv-x="913" d="M207 1440h105q19 -113 147 -113q133 0 147 113h105q-25 -262 -252 -262q-229 0 -252 262zM335 1600v10q0 59 26 96q36 49 94 49q68 0 110 -48q28 -32 28 -91q0 -37 -16 -63q-30 -32 -70 -98q-5 -15 -5 -33v-10h-97v19q0 52 31 93q5 5 14 17q35 40 35 79q0 43 -32 43 q-36 0 -36 -53v-10h-82z" />
<glyph horiz-adv-x="913" d="M207 1440h105q19 -113 147 -113q133 0 147 113h105q-25 -262 -252 -262q-229 0 -252 262zM235 1494q36 213 164 213q31 0 56 -7l102 -31q18 -5 44 -5q55 0 70 69h81q-34 -218 -172 -218q-22 0 -47 7l-112 32q-19 6 -30 6q-61 0 -76 -66h-80z" />
</font>
</defs>
</svg>
