<svg width="22" height="22" viewBox="0 0 22 22" fill="none" xmlns="http://www.w3.org/2000/svg">
<g id="icons8_phone_1 3">
<path id="Vector" d="M17.9167 14.0655C17.3556 14.0522 16.6493 14.0192 16.203 13.9408C15.7203 13.8553 15.1396 13.6896 14.7307 13.5623C14.4101 13.4625 14.0609 13.5507 13.8231 13.7876L11.8485 15.7507C10.484 15.0319 9.39108 14.1947 8.46566 13.2639C7.53489 12.3385 6.69765 11.2456 5.97886 9.88107L7.94193 7.90553C8.17886 7.66772 8.26703 7.31857 8.16728 6.99792C8.0408 6.58999 7.87424 6.00926 7.78963 5.52651C7.71036 5.08027 7.67829 4.37396 7.66404 3.81283C7.65246 3.3274 7.257 2.94263 6.77157 2.94263H3.64526C3.25514 2.94263 2.75458 3.23477 2.75458 3.83331C2.75458 7.87614 4.39344 11.7373 7.17773 14.5518C9.99229 17.3361 13.8534 18.975 17.8962 18.975C18.4948 18.975 18.7869 18.4744 18.7869 18.0843V14.958C18.7869 14.4726 18.4022 14.0771 17.9167 14.0655Z" fill="#DB2A1F"/>
</g>
</svg>
