<svg width="23" height="24" viewBox="0 0 23 24" fill="none" xmlns="http://www.w3.org/2000/svg">
<g id="tire (1) 1" clip-path="url(#clip0_279_1792)">
<g id="Group">
<path id="Vector" d="M11.2353 1.1991C5.34651 1.1991 0.528442 6.01717 0.528442 11.9059C0.528442 17.7947 5.34651 22.6127 11.2353 22.6127C17.124 22.6127 21.9421 17.7947 21.9421 11.9059C21.9421 6.01717 17.124 1.1991 11.2353 1.1991ZM8.51395 4.18808C9.22774 3.16201 11.3691 3.20663 14.0458 3.69736C13.2874 5.83872 11.9937 7.53397 10.1646 8.7831C8.6924 7.13246 8.11244 5.57105 8.51395 4.18808ZM9.54002 13.3335C9.71847 13.0658 10.12 13.0212 10.3876 13.1997C10.6553 13.3781 10.6999 13.7796 10.5215 14.0473C10.343 14.315 9.94152 14.3596 9.67385 14.1811C9.40618 14.0027 9.36157 13.6012 9.54002 13.3335ZM9.13851 11.7721C8.82623 11.6829 8.64778 11.326 8.73701 11.0137C8.82623 10.7014 9.18312 10.523 9.49541 10.6122C9.80769 10.7014 9.98614 11.0583 9.89691 11.3706C9.80769 11.6829 9.4508 11.8613 9.13851 11.7721ZM10.343 11.7721C10.343 11.1475 10.8338 10.6568 11.4583 10.6568C12.0383 10.6568 12.529 11.1475 12.529 11.7721C12.529 12.352 12.0383 12.8428 11.4583 12.8428C10.8338 12.8874 10.343 12.3966 10.343 11.7721ZM10.8784 9.76456C10.8784 9.45227 11.146 9.1846 11.4583 9.1846C11.7706 9.1846 12.0383 9.45227 12.0383 9.76456C12.0383 10.0768 11.7706 10.3445 11.4583 10.3445C11.146 10.3445 10.8784 10.0768 10.8784 9.76456ZM12.2613 13.3335C12.529 13.155 12.8859 13.1997 13.109 13.4673C13.2874 13.735 13.2428 14.0919 12.9751 14.315C12.7075 14.4934 12.3506 14.4488 12.1275 14.1811C11.9491 13.9134 11.9937 13.5119 12.2613 13.3335ZM12.9751 11.549C12.8859 11.2367 13.0643 10.8798 13.3766 10.7906C13.6889 10.7014 14.0458 10.8798 14.135 11.1921C14.2243 11.5044 14.0458 11.8613 13.7335 11.9505C13.3766 12.0398 13.0643 11.8613 12.9751 11.549ZM5.56957 5.48183C7.04176 7.22168 7.88938 9.1846 8.02322 11.4152C5.83724 11.8613 4.23122 11.549 3.20515 10.523C2.66981 9.40766 3.7851 7.57858 5.56957 5.48183ZM6.0603 18.2854C4.81117 18.1962 3.7851 16.3225 2.84825 13.735C5.07884 13.3335 7.22021 13.6012 9.22774 14.5826C8.46934 16.6794 7.44327 17.9285 6.0603 18.2854ZM14.1796 19.713C13.4659 20.739 11.3245 20.6944 8.64778 20.2037C9.40618 18.0623 10.6999 16.3671 12.529 15.118C14.0012 16.7686 14.5365 18.33 14.1796 19.713ZM17.124 18.4192C15.6518 16.6794 14.8042 14.7165 14.6704 12.4859C16.8563 12.0398 18.4624 12.352 19.4884 13.3781C20.0238 14.4934 18.9085 16.3225 17.124 18.4192ZM13.4659 9.36305C14.1796 7.22168 15.2503 5.97256 16.6333 5.61566C17.8824 5.70488 18.9085 7.57858 19.8453 10.1661C17.5701 10.6122 15.4288 10.2999 13.4659 9.36305Z" fill="#DB2A1F"/>
</g>
</g>
<defs>
<clipPath id="clip0_279_1792">
<rect width="22.3059" height="22.3059" fill="white" transform="translate(0.0823364 0.75293)"/>
</clipPath>
</defs>
</svg>
