<svg width="20" height="20" viewBox="0 0 20 20" fill="none" xmlns="http://www.w3.org/2000/svg">
<g id="user (1) 1" clip-path="url(#clip0_279_1785)">
<path id="Vector" d="M10.1028 9.74221C11.333 9.74221 12.3981 9.30102 13.2685 8.43055C14.1388 7.56023 14.58 6.49533 14.58 5.26507C14.58 4.03524 14.1388 2.9702 13.2683 2.09958C12.3979 1.2294 11.3328 0.788208 10.1028 0.788208C8.87257 0.788208 7.80767 1.2294 6.93734 2.09973C6.06701 2.97005 5.62567 4.03509 5.62567 5.26507C5.62567 6.49533 6.06701 7.56037 6.93748 8.43069C7.80795 9.30088 8.873 9.74221 10.1028 9.74221Z" fill="#D12732"/>
<path id="Vector_2" d="M17.9367 15.0817C17.9116 14.7195 17.8608 14.3244 17.7861 13.9071C17.7106 13.4868 17.6135 13.0894 17.4972 12.7262C17.3771 12.3508 17.2137 11.9801 17.0117 11.6249C16.8021 11.2562 16.5559 10.9351 16.2797 10.6709C15.9908 10.3945 15.6371 10.1723 15.2281 10.0102C14.8205 9.84892 14.3688 9.76723 13.8857 9.76723C13.6959 9.76723 13.5124 9.84509 13.158 10.0758C12.9399 10.2181 12.6848 10.3826 12.4 10.5645C12.1565 10.7197 11.8266 10.865 11.4192 10.9966C11.0217 11.1253 10.6181 11.1905 10.2197 11.1905C9.82134 11.1905 9.41787 11.1253 9.01993 10.9966C8.61292 10.8652 8.28305 10.7198 8.03984 10.5647C7.75776 10.3844 7.50249 10.2199 7.28112 10.0757C6.92714 9.84495 6.74349 9.76709 6.55374 9.76709C6.07042 9.76709 5.61888 9.84892 5.21144 10.0103C4.80272 10.1721 4.44889 10.3943 4.15972 10.671C3.88361 10.9354 3.63727 11.2563 3.42795 11.6249C3.22614 11.9801 3.06277 12.3507 2.94251 12.7264C2.82636 13.0896 2.72922 13.4868 2.65377 13.9071C2.57903 14.3238 2.52826 14.719 2.50316 15.0821C2.47848 15.4378 2.466 15.8069 2.466 16.1797C2.466 17.1501 2.77446 17.9356 3.38271 18.5149C3.98345 19.0866 4.77833 19.3766 5.74495 19.3766H14.6953C15.6619 19.3766 16.4565 19.0867 17.0574 18.5149C17.6658 17.936 17.9743 17.1503 17.9743 16.1796C17.9741 15.8051 17.9615 15.4356 17.9367 15.0817Z" fill="#D12732"/>
</g>
<defs>
<clipPath id="clip0_279_1785">
<rect width="18.5882" height="18.5882" fill="white" transform="translate(0.941162 0.78833)"/>
</clipPath>
</defs>
</svg>
