<svg width="32" height="32" viewBox="0 0 32 32" fill="none" xmlns="http://www.w3.org/2000/svg">
<path d="M27.3775 8.35103L23.6488 4.62231L16.7056 11.6236L20.435 15.3528L27.3775 8.35103Z" fill="#FFCB51"/>
<path d="M13.3649 17.5419C13.063 18.2668 13.7908 18.9937 14.5152 18.6909L18.9787 16.382L15.6718 13.0751L13.3649 17.5419Z" fill="#FFCB51"/>
<path d="M30.7425 4.98598C31.0858 4.64265 31.0858 4.08624 30.7425 3.74292L28.2569 1.25749C27.9135 0.914169 27.3571 0.914169 27.0138 1.25749L24.8918 3.37946L28.6203 7.10817L30.7425 4.98598Z" fill="#FFCB51"/>
<path d="M3.63672 25.668H4.51563V30.1211C4.51563 30.4763 4.7294 30.7974 5.05808 30.9329C5.38194 31.0682 5.76212 30.9961 6.01595 30.7425L11.0905 25.668H21.332C22.7859 25.668 23.9688 24.4851 23.9688 23.0313V14.3047L21.1963 17.0771C20.9544 17.3193 20.6719 17.5097 20.3552 17.6427L15.323 20.2519C14.8654 20.4495 14.5221 20.519 14.1719 20.519C13.9103 20.519 13.6581 20.4687 13.4143 20.3945H7.15234C6.66643 20.3945 6.27344 20.0013 6.27344 19.5156C6.27344 19.0297 6.66643 18.6367 7.15234 18.6367H11.603C11.4295 18.0613 11.5038 17.4381 11.743 16.8661L14.4553 11.5986C14.5324 11.4038 14.7231 11.1205 14.9643 10.8795L17.7539 8.08984H3.63672C2.18286 8.08984 1 9.27271 1 10.7266V23.0313C1 24.4851 2.18286 25.668 3.63672 25.668Z" fill="#FFCB51"/>
</svg>
