<svg width="42" height="27" viewBox="0 0 42 27" fill="none" xmlns="http://www.w3.org/2000/svg">
<path d="M24.2528 19.2428C23.622 19.2428 23.0094 19.1338 22.4357 18.9282C23.2848 22.7219 26.6787 25.5658 30.7247 25.5658H35.393C35.199 24.2098 34.6828 22.9357 33.8709 21.82C33.693 21.7202 33.5201 21.6092 33.3538 21.4862C31.6624 22.7359 29.3139 22.7963 27.5248 21.4965C26.6616 20.8693 26.0449 20.0081 25.7292 19.0356C25.2536 19.1723 24.7582 19.2427 24.2532 19.2427C24.253 19.2428 24.2529 19.2428 24.2528 19.2428Z" fill="#FFCB51"/>
<path d="M16.2709 19.0357C15.9552 20.0081 15.3385 20.8694 14.4752 21.4965C13.5933 22.1374 12.5749 22.4475 11.5668 22.4476C10.5299 22.4476 9.50364 22.1197 8.64632 21.4862C8.48106 21.6083 8.30923 21.7187 8.13256 21.818C7.31972 22.9331 6.80301 24.208 6.60895 25.5657H11.2774C15.3239 25.5657 18.7179 22.7215 19.5666 18.9274C18.9923 19.1334 18.3789 19.2427 17.7472 19.2427C17.242 19.2428 16.7465 19.1724 16.2709 19.0357Z" fill="#FFCB51"/>
<path d="M31.0643 10.0634C30.6554 10.8985 30.0479 11.5999 29.3004 12.1153C29.6023 12.9716 29.6814 13.896 29.5213 14.812C29.3238 15.9431 28.778 16.9616 27.9625 17.7448C28.0301 18.4447 28.3886 19.0815 28.9716 19.505C30.0586 20.2947 31.5572 20.0838 32.3831 19.025L33.3536 17.781L34.3241 19.025C35.1501 20.084 36.6487 20.2947 37.7357 19.505C38.8226 18.7153 39.0851 17.2249 38.3333 16.1121L37.4501 14.8047L38.9331 14.2661C40.1954 13.8077 40.8591 12.4476 40.4439 11.1697C40.0286 9.89196 38.6924 9.18169 37.4017 9.55283L35.8854 9.98879L35.8314 8.41209C35.7855 7.0699 34.6971 6.01843 33.3535 6.01843C32.6518 6.01843 31.9994 6.30924 31.5344 6.81339C31.7235 7.91401 31.5634 9.04416 31.0643 10.0634ZM33.3536 11.2578L35.0944 12.9985L33.3538 14.7393L31.613 12.9985L33.3536 11.2578Z" fill="#FFCB51"/>
<path d="M12.4787 14.812C12.3187 13.896 12.3978 12.9716 12.6996 12.1153C11.9521 11.5999 11.3447 10.8985 10.9358 10.0634C10.4366 9.04416 10.2765 7.91401 10.4654 6.81339C10.0005 6.30916 9.34806 6.01843 8.64632 6.01843C7.30273 6.01843 6.21426 7.06982 6.16839 8.41209L6.1144 9.98879L4.59817 9.55283C3.30751 9.18177 1.97115 9.89197 1.55594 11.1698C1.14074 12.4476 1.80441 13.8077 3.06676 14.2661L4.54976 14.8047L3.66651 16.1121C2.91471 17.225 3.17721 18.7153 4.26412 19.505C5.35103 20.2946 6.84986 20.0839 7.67576 19.025L8.64623 17.781L9.61671 19.025C10.4427 20.0839 11.9412 20.2947 13.0283 19.505C13.6112 19.0815 13.9698 18.4447 14.0374 17.7448C13.222 16.9617 12.6762 15.9432 12.4787 14.812ZM8.70293 14.7426L6.96212 13.0019L8.70277 11.2612L10.4436 13.0019L8.70293 14.7426Z" fill="#FFCB51"/>
<path d="M14.7551 10.427L16.238 10.9655L15.3549 12.2728C14.4783 13.5704 14.7844 15.3081 16.0517 16.2288C16.549 16.5901 17.1352 16.7811 17.7471 16.7811C18.6463 16.7811 19.4783 16.3758 20.0294 15.6691L20.9999 14.4252L21.9704 15.6692C22.5216 16.3758 23.3534 16.7811 24.2528 16.7812H24.2529C24.8646 16.7812 25.4507 16.5902 25.9481 16.2289C27.2153 15.3082 27.5215 13.5705 26.6449 12.273L25.7616 10.9656L27.2446 10.4271C28.7165 9.89256 29.4902 8.30683 29.0061 6.81703C28.6178 5.62172 27.5131 4.81864 26.2572 4.81864C25.9886 4.81864 25.72 4.85663 25.459 4.93171L23.9427 5.36767L23.8888 3.79089C23.8355 2.22583 22.5665 1 21 1C19.4336 1 18.1645 2.22583 18.111 3.79089L18.0571 5.36767L16.5408 4.93171C16.2797 4.85663 16.0112 4.81864 15.7425 4.81864C14.4866 4.81864 13.382 5.62172 12.9936 6.81694C12.5097 8.30675 13.2834 9.89256 14.7551 10.427ZM21.0008 7.92609L22.7416 9.66683L21.001 11.4076L19.2602 9.66683L21.0008 7.92609Z" fill="#FFCB51"/>
</svg>
