<svg width="1440" height="145" viewBox="0 0 1440 145" fill="none" xmlns="http://www.w3.org/2000/svg">
<path d="M134.192 121.163C89.3275 151.605 26.0372 146.531 0 140.189V0H240.343H1440V124C1405.95 73.9324 1326.89 83.1122 1292.34 92.625C1257.8 102.138 1194.2 115.656 1153.15 83.1122C1112.09 50.5682 1039.48 42.0567 990.914 71.0959C942.345 100.135 877.252 72.598 857.724 64.0865C788.125 29.0392 716.523 63.0851 707.51 66.5899C698.497 70.0946 646.923 91.6236 597.853 75.602C519.241 47.5642 478.683 55.0743 435.121 75.602C391.559 96.1297 350.5 112.652 296.423 95.1284C242.346 77.6047 190.272 83.1121 134.192 121.163Z" fill="white" fill-opacity="0.78"/>
</svg>
