<svg width="26" height="26" viewBox="0 0 26 26" fill="none" xmlns="http://www.w3.org/2000/svg">
<path d="M24.3848 12.2121L20.603 8.43025C20.5242 8.35147 20.4454 8.31207 20.3273 8.31207H16.5848C16.3879 8.31207 16.1909 8.50904 16.1909 8.70601V16.9787H1.89089C1.69392 16.9787 1.49695 17.1757 1.49695 17.3727V20.8787C1.49695 21.1151 1.69392 21.2727 1.89089 21.2727H4.05755C4.05755 21.1545 4.01816 20.9969 4.01816 20.8787C4.01816 19.1848 5.39695 17.806 7.09089 17.806C8.78483 17.806 10.1636 19.1848 10.1636 20.8787C10.1636 20.9969 10.1636 21.1545 10.1242 21.2727H15.9545C15.9545 21.1545 15.9151 20.9969 15.9151 20.8787C15.9151 19.1848 17.2939 17.806 18.9879 17.806C20.6818 17.806 22.0606 19.1848 22.0606 20.8787C22.0606 20.9969 22.0606 21.1545 22.0212 21.2727H24.1879C24.4242 21.2727 24.5818 21.1151 24.5818 20.8787V12.5272C24.503 12.409 24.4636 12.2909 24.3848 12.2121ZM22.6515 14.6939H18.0818V10.203H19.303L22.6909 13.5909V14.6939H22.6515Z" fill="#FF5E15"/>
<path d="M18.9485 18.5939C17.6879 18.5939 16.6636 19.6182 16.6636 20.8788C16.6636 22.1394 17.6879 23.1636 18.9485 23.1636C20.2091 23.1636 21.2333 22.1394 21.2333 20.8788C21.1939 19.6182 20.2091 18.5939 18.9485 18.5939Z" fill="#FF5E15"/>
<path d="M7.05151 18.5939C5.7909 18.5939 4.76666 19.6182 4.76666 20.8788C4.76666 22.1394 5.7909 23.1636 7.05151 23.1636C8.31212 23.1636 9.33636 22.1394 9.33636 20.8788C9.33636 19.6182 8.31212 18.5939 7.05151 18.5939Z" fill="#FF5E15"/>
<path d="M3.50605 12.8424C4.25453 12.8424 4.88483 12.2121 4.88483 11.4636C4.88483 10.8333 4.4515 10.3212 3.89999 10.1242V6.02725L8.74544 15.0485H8.19392C7.40605 15.0485 6.77574 15.5212 6.46059 16.1515H15.4424V15.5606C15.0879 15.2454 14.6545 15.0485 14.1424 15.0485H13.5121L5.23938 3.38785C5.00302 3.0727 4.64847 2.87573 4.25453 2.87573C3.8212 2.87573 3.42726 3.1121 3.19089 3.46664C2.99393 3.78179 2.95453 4.21513 3.11211 4.56967V10.4788C3.11211 10.7151 3.26968 10.8727 3.50605 10.8727C3.8212 10.8727 4.09696 11.1485 4.09696 11.4636C4.09696 11.7788 3.8212 12.0545 3.50605 12.0545C3.19089 12.0545 2.91514 11.7788 2.91514 11.4636C2.91514 11.2272 2.75756 11.0697 2.5212 11.0697C2.28483 11.0697 2.12726 11.2272 2.12726 11.4636C2.12726 12.2121 2.75756 12.8424 3.50605 12.8424ZM4.25453 3.58482C4.49089 3.58482 4.68786 3.78179 4.68786 4.01816C4.68786 4.25452 4.49089 4.45149 4.25453 4.45149C4.01817 4.45149 3.8212 4.25452 3.8212 4.01816C3.8212 3.78179 3.97877 3.58482 4.25453 3.58482Z" fill="#FF5E15"/>
</svg>
