<svg xmlns="http://www.w3.org/2000/svg">
<defs>
<font id="UTMAmerikaSans" horiz-adv-x="1220" >
  <font-face 
    font-family="UTMAmerikaSans"
    font-weight="400"
    font-stretch="normal"
    units-per-em="2048"
    panose-1="2 4 6 3 5 5 6 2 2 4"
    ascent="1638"
    descent="-410"
    x-height="1022"
    cap-height="1536"
    bbox="-294 -418 4942 2404"
    underline-thickness="109"
    underline-position="-143"
    unicode-range="U+0020-2026"
  />
<missing-glyph horiz-adv-x="5040" 
d="M3351 2045h10q37 -10 37 -52q0 -12 -32 -57h-28q0 24 28 54l2 10q-5 13 -10 15h-9q-8 0 -10 -19h-30q6 49 42 49zM2019 2016l29 -31q0 -16 -40 -30h-19l-59 12l-11 -12l-28 25q11 29 43 29h11l42 -11h2q10 0 30 18zM468 1980h142v-60h-94v-75h89v-59h-89v-129l-5 -5h-49
v323zM1155 1980h43l6 -5v-78h30v-52h-30v-188l-6 -5h-49v193h-25v52h25v78zM1621 1980h42l4 -5v-94h3q23 24 54 24h2q58 0 83 -71l2 -39v-143h-52v115q0 80 -42 80h-7q-43 0 -43 -86v-109h-51v323zM2200 1980h49l5 -5v-222q10 -51 45 -51q44 7 44 59v214l5 5h49v-216
q0 -85 -66 -112q-15 -8 -35 -8q-47 0 -82 55q-14 24 -14 57v224zM2435 1980h159v-60h-56v-268h-53v268h-55v55zM2621 1980h71q7 -4 83 -251h2l80 251h73v-328h-54v242h-2l-74 -242h-44q-4 0 -58 182l-19 60h-3v-242h-55v328zM3760 1980h52v-328h-45l-5 5v11l3 2l-3 14
q-29 -40 -78 -40q-67 0 -100 91l-5 39v3q0 94 92 125l23 3q35 0 63 -32h3v107zM2057 1928h36l4 -6v-49h-45v-221h-48v23q-23 -31 -59 -31q-89 14 -89 97v156h51v-104q0 -79 26 -86l18 -5h6q26 0 39 36l3 26v133h53v25zM3476 1928v-55h-31v-221h-47v25h-2q-15 -33 -57 -33
q-68 0 -86 78l-3 29v146h52v-120q0 -50 19 -68l21 -7h9q42 0 42 69v126h27q4 0 4 28l3 3h49zM758 1905q68 0 103 -77q9 -18 12 -54q0 -88 -90 -127l-32 -3q-63 0 -101 73q-12 22 -12 52v10q0 94 101 126h19zM1011 1905h3q74 0 83 -101v-152h-51v119q0 76 -42 76h-5
q-44 0 -44 -76v-119h-52v245h46v-21q30 29 62 29zM1466 1905h7q72 0 105 -89h-60q-16 31 -42 31h-17q-53 -14 -53 -61l-3 -15q12 -69 61 -69h9q22 0 47 27h40l2 3h3l2 -3l2 3l3 -3l2 3l2 -7q-33 -81 -110 -81q-76 0 -110 94l-4 36v3q0 85 77 120q15 8 37 8zM3141 1905h2

<glyph glyph-name=".notdef" horiz-adv-x="5040" 
d="M3351 2045h10q37 -10 37 -52q0 -12 -32 -57h-28q0 24 28 54l2 10q-5 13 -10 15h-9q-8 0 -10 -19h-30q6 49 42 49zM2019 2016l29 -31q0 -16 -40 -30h-19l-59 12l-11 -12l-28 25q11 29 43 29h11l42 -11h2q10 0 30 18zM468 1980h142v-60h-94v-75h89v-59h-89v-129l-5 -5h-49
v323zM1155 1980h43l6 -5v-78h30v-52h-30v-188l-6 -5h-49v193h-25v52h25v78zM1621 1980h42l4 -5v-94h3q23 24 54 24h2q58 0 83 -71l2 -39v-143h-52v115q0 80 -42 80h-7q-43 0 -43 -86v-109h-51v323zM2200 1980h49l5 -5v-222q10 -51 45 -51q44 7 44 59v214l5 5h49v-216
q0 -85 -66 -112q-15 -8 -35 -8q-47 0 -82 55q-14 24 -14 57v224zM2435 1980h159v-60h-56v-268h-53v268h-55v55zM2621 1980h71q7 -4 83 -251h2l80 251h73v-328h-54v242h-2l-74 -242h-44q-4 0 -58 182l-19 60h-3v-242h-55v328zM3760 1980h52v-328h-45l-5 5v11l3 2l-3 14
q-29 -40 -78 -40q-67 0 -100 91l-5 39v3q0 94 92 125l23 3q35 0 63 -32h3v107zM2057 1928h36l4 -6v-49h-45v-221h-48v23q-23 -31 -59 -31q-89 14 -89 97v156h51v-104q0 -79 26 -86l18 -5h6q26 0 39 36l3 26v133h53v25zM3476 1928v-55h-31v-221h-47v25h-2q-15 -33 -57 -33
q-68 0 -86 78l-3 29v146h52v-120q0 -50 19 -68l21 -7h9q42 0 42 69v126h27q4 0 4 28l3 3h49zM758 1905q68 0 103 -77q9 -18 12 -54q0 -88 -90 -127l-32 -3q-63 0 -101 73q-12 22 -12 52v10q0 94 101 126h19zM1011 1905h3q74 0 83 -101v-152h-51v119q0 76 -42 76h-5
q-44 0 -44 -76v-119h-52v245h46v-21q30 29 62 29zM1466 1905h7q72 0 105 -89h-60q-16 31 -42 31h-17q-53 -14 -53 -61l-3 -15q12 -69 61 -69h9q22 0 47 27h40l2 3h3l2 -3l2 3l3 -3l2 3l2 -7q-33 -81 -110 -81q-76 0 -110 94l-4 36v3q0 85 77 120q15 8 37 8zM3141 1905h2
q49 0 70 -60v-14h-52q0 16 -16 16h-4q-14 0 -19 -13v-13q0 -9 68 -35q30 -19 30 -59q0 -58 -61 -80l-23 -3q-76 12 -76 83h54q0 -20 27 -25h4q19 0 24 23q0 22 -68 44q-34 27 -34 59q0 66 74 77zM4203 1905q55 0 77 -63q7 -18 7 -65v-125h-52v112q0 83 -40 83h-11
q-33 0 -40 -54v-141h-52v5h-2l2 2v238h47v-21q25 29 64 29zM4432 1905h5q40 0 69 -40v18l-3 3l3 11h47v-208q0 -97 -85 -132l-33 -4h-7q-70 0 -104 80h59q24 -22 45 -23h13q22 0 43 22q15 13 22 52h-3q-32 -40 -73 -40q-57 0 -96 70q-10 18 -14 63q0 88 87 125zM3851 1897
h53v-136q6 -59 40 -59h7q46 0 46 93v102h51v-245h-47l-3 10h3l-3 3v5l3 2v3h-4q0 -23 -57 -31h-3q-59 0 -84 75l-2 85v93zM690 1771q10 -69 63 -69h7q59 14 59 65v15q-13 65 -59 65h-5q-58 0 -65 -76zM3630 1774q13 -72 61 -72h5q58 0 66 75q0 49 -51 70h-22q-37 0 -56 -57z
M4374 1774q8 -72 65 -72h5q59 12 59 72q0 61 -59 73h-14q-56 -16 -56 -62v-11zM3928 1620h52v-57h-52v57zM1054 1402q43 -11 43 -49v-4q0 -17 -32 -60h-28q0 25 31 57v7q0 12 -7 15h-12q-10 -4 -10 -19h-28v6q0 32 33 44zM3349 1339q92 0 138 -99h-60q-37 42 -80 42
q-55 0 -87 -68q-10 -22 -10 -47q0 -78 81 -110l18 -1q36 0 75 39h61q-44 -97 -138 -97q-93 0 -141 112q-10 31 -10 62q0 97 90 152q29 15 63 15zM3664 1339q57 0 103 -47q46 -51 46 -115v-20q0 -89 -91 -146q-33 -13 -63 -13q-89 0 -138 101q-13 33 -13 60v18q0 98 98 151
q29 11 58 11zM2261 1337h2l47 -11h3q11 0 26 11l18 -36q-18 -19 -35 -19h-3l-54 10l-20 -7l-20 36q18 16 36 16zM716 1334h19q118 0 129 -26q25 -26 25 -62q-10 -57 -30 -57v-6q47 -23 47 -66v-18q0 -63 -69 -88l-54 -5h-67v328zM2550 1334h53v-217q6 -61 45 -61q29 0 44 39
l3 30v203l4 6h45l5 -6v-171q0 -118 -40 -133q-24 -26 -64 -26q-55 0 -91 76l-4 54v206zM2805 1334h59q4 0 122 -237h4v237h50l4 -6v-322h-58q-29 48 -125 238h-3v-238h-53v328zM3101 1334h54v-328h-54v328zM3859 1334h8q155 0 174 -40q23 -11 47 -75l4 -36v-11l3 -2
q0 -94 -82 -149q-35 -15 -99 -15h-55v328zM4141 1334h153v-60h-103v-75h101v-57h-101v-74l4 -5h99v-57h-157v322zM3563 1175v-10q0 -76 79 -108l19 -1q68 0 96 86l3 20v15q0 61 -60 94q-12 8 -39 11q-66 0 -96 -83zM770 1274v-67h9q54 0 54 28l3 14q-11 25 -29 25h-37z
M3912 1274v-206l2 -3v-2q104 0 122 76l2 15v29q0 34 -32 68q-25 23 -78 23h-16zM1041 1259h5q38 0 71 -40v32h49v-245h-49v32q-36 -40 -80 -40q-75 0 -101 97l-5 36q0 89 85 125zM1314 1259h3q74 0 83 -102v-151h-51v128q0 67 -42 67h-10q-34 0 -39 -62v-133h-52v245h47v-21
q28 29 61 29zM1543 1259h5q45 0 71 -40v32h47v-219q0 -95 -104 -126h-16q-74 0 -108 82h59q26 -25 44 -25h14q52 0 64 77q-33 -42 -76 -42q-60 0 -101 81l-7 44v16q0 79 85 117zM1912 1259h2q43 0 61 -37h2q32 37 69 37h4q57 0 79 -55q8 -25 8 -45v-153h-52v138q0 44 -23 55
l-12 2h-15q-32 0 -36 -65v-130h-52v136q0 59 -43 59h-8q-32 0 -36 -57v-138h-54v245h50v-21h2q6 24 54 29zM2282 1259q47 0 75 -42v34h47v-245h-47v32q-36 -40 -78 -40q-74 0 -102 92l-6 41q0 90 85 125zM985 1117q0 -48 61 -61h4q45 0 62 46l3 15v22q-12 62 -57 62h-14
q-41 0 -59 -57v-27zM1487 1128q0 -48 43 -68l18 -4h5q47 0 63 57v23q-11 65 -58 65h-12q-50 0 -59 -73zM2225 1131v-14q15 -61 57 -61h14q58 12 58 64v11q0 45 -37 65l-18 5h-10q-64 -8 -64 -70zM770 1150v-82q0 -5 7 -5q77 0 77 45q0 34 -47 42h-37zM2966 753l24 -28
l-51 -55q-18 12 -27 26zM1524 727l85 -54q0 -15 -21 -42l-87 54q18 41 23 42zM2850 693h38l55 -60h-54l-21 26l-23 -26h-54q54 60 59 60zM3422 693h40l56 -60h-54l-24 26h-1q0 -5 -19 -26h-54zM622 685h52q8 -4 47 -137l34 -110q9 8 34 100l48 147h54v-2l-112 -326h-44z
M1159 685h51v-54h-51v54zM1354 685h46l6 -5v-323h-52v328zM2317 685h45l4 -5v-78h31v-52h-31v-193h-53v193h-26v52h26v78zM2425 685h52v-98h2q23 23 54 23h3q57 0 81 -71l3 -38v-144h-52v115q0 81 -39 81h-10q-42 0 -42 -87v-109h-52v328zM2664 685h52v-54h-52v54zM3028 685
h44l6 -5v-78h29v-52h-29v-193h-54v193h-27v52h27v78zM3234 685h52v-328h-52v328zM3957 685h52v-328h-52v328zM4316 685h51v-54h-51v54zM1555 610h5q83 0 110 -102l3 -23v-11q0 -83 -85 -120l-35 -5q-76 0 -111 97l-4 32q0 97 93 130zM1811 610h4q53 0 78 -60q7 -25 7 -81
v-112h-54v146q-7 50 -37 50h-10q-38 0 -42 -57v-139h-54v245h49v-21q26 29 59 29zM2046 610h4q45 0 63 -39h3v31h49v-206q0 -102 -89 -135l-28 -3h-5q-73 0 -106 81h52l37 -20l15 -3h14q50 0 61 72q-33 -39 -73 -39q-62 0 -98 76q-11 23 -12 60q0 85 86 123zM2866 610h2
q82 0 111 -104l2 -25l-2 -27h-172q15 -45 45 -45l14 -3q29 0 49 22h57v-3q-35 -76 -108 -76q-77 0 -111 97l-1 28v8q0 49 32 89q34 39 82 39zM3429 610h5q41 0 70 -39h2v31h47v-245h-47v31h-2q-35 -39 -77 -39q-71 0 -101 89l-5 36v14q0 86 84 120zM3711 610h7
q88 0 107 -128l-2 -1v-15q0 -65 -66 -106q-21 -11 -46 -11q-34 0 -64 32v-99l-5 -5h-49v325h49v-28q31 36 69 36zM4151 610q44 0 75 -39v31h49v-245h-49v31q-35 -39 -77 -39q-92 0 -108 132q0 84 73 121q15 8 37 8zM922 602h50v-136q3 -60 42 -60h5q44 0 44 87v109h52v-245
h-47v24h-5q0 -23 -56 -32h-3q-55 0 -82 68q-4 35 -4 99v81zM1159 602h51v-245h-51v245zM2664 602h52v-245h-52v245zM4316 602h51v-245h-51v245zM1492 488v-16q13 -66 59 -66h4q59 0 66 76q-13 71 -59 71h-11q-59 -16 -59 -65zM1987 472q15 -66 59 -66h11q48 0 59 75v1
q-13 71 -59 71h-14q-39 0 -56 -57v-24zM2805 506h122v2q-16 45 -59 45h-7q-35 0 -56 -47zM3373 474q13 -68 61 -68h5q52 0 65 63v12q-10 72 -57 72h-16q-56 -14 -56 -63zM3642 478q12 -72 61 -72h3q50 0 65 60v22q0 43 -49 65h-22q-47 0 -58 -72v-3zM4095 472q10 -66 66 -66
q43 0 61 48l2 15v16q0 54 -52 68h-18q-42 0 -59 -60v-21zM3416 321h51v-52h-51v52zM4137 321h51v-52h-51v52zM2733 133h4q35 0 43 -50v-2q0 -16 -24 -41l-10 -17h-28q0 25 28 56l3 2v2q-3 19 -9 19h-10q-8 0 -9 -19h-30q6 50 42 50zM1546 116l52 -60l-26 -19l-52 52zM352 79
h4q75 -48 85 -60l-20 -37q-88 49 -88 58zM3490 79l86 -58l-18 -39q-10 0 -91 55q15 36 23 42zM4578 76l19 -42l-91 -52l-20 39l92 58v-3zM1204 53h51v-19l5 -5h14v-36h-14l-5 -5v-279h-46v31q-34 -40 -81 -40q-72 0 -102 105l-3 26q0 102 101 131h14q33 0 66 -33v59l-6 5
h-43v36h49v24zM1480 45h40l56 -61h-53l-23 27l-23 -27h-53zM2641 45h33q12 0 63 -61h-54l-23 27q-19 -21 -19 -27h-58v4zM49 37h160v-60h-56v-268h-50l-4 5v245l2 3v2l-2 2l2 3l-2 2l2 3l-2 3h-54v54zM699 37h47v-73l2 -2l-2 -3v-3l2 -2l-2 -3v-3l2 -2v-2l-2 -3l2 -3h3
q17 24 51 24h3q53 0 77 -58q7 -17 7 -42v-153h-52v127q0 68 -40 68h-8q-43 0 -43 -86v-109h-52v322zM1297 37h47l5 -6v-49h-52v55zM1987 37h52v-198l70 115h62l-78 -118l90 -125v-2h-70q-10 22 -74 115v-115h-52v328zM2271 37v-99q24 24 53 24q57 0 80 -56q10 -19 10 -77
v-120h-54v133q0 62 -41 62h-11q-31 0 -37 -55v-140h-53v314l-1 3v3l1 2l-1 3l1 3h53zM2458 37h51v-55h-51v55zM3148 37h51v-108q27 33 68 33h3q75 0 105 -94l5 -37q0 -75 -64 -120q-30 -11 -49 -11q-41 0 -72 40v-31h-47v328zM4275 37h52v-99h2q23 24 54 24h3q60 0 82 -74
l2 -41v-138h-52v111q0 82 -32 82l-10 2h-12q-37 0 -37 -80v-115h-52v328zM329 -38h3v-58h-5q-42 0 -42 -57v-138h-53v245h47v-21q18 29 50 29zM564 -38q71 0 86 -87v-166h-51v136q-6 59 -41 59h-6q-45 0 -45 -84v-111h-52v245h50v-21q25 29 59 29zM1504 -38q72 0 105 -94
l5 -39q-2 -24 -7 -24h-169q17 -47 62 -47q24 0 48 21h57q-33 -79 -108 -79q-82 0 -113 105v37q0 81 89 117zM2657 -38h5q77 0 107 -97l3 -26v-21l-3 -13h-170q18 -47 53 -47h12q21 0 42 21h59q-34 -79 -105 -79q-84 0 -115 102l-2 29q0 93 91 128zM2915 -38h4q54 0 78 -60
q7 -25 7 -82v-111h-54v138q0 48 -35 57h-11q-38 0 -43 -57v-138h-54v245h50v-21q25 29 58 29zM3508 -38h6q40 0 70 -40h2v32h47v-245h-47v31h-2q-34 -40 -78 -40q-71 0 -101 90l-4 37v12q0 82 77 117q11 6 30 6zM3781 -38h4q62 0 82 -78l3 -84v-91h-54v138q0 48 -38 57h-9
q-38 0 -42 -52v-143h-54v245h49v-21q26 29 59 29zM4133 -38h1q74 0 104 -93l4 -40q0 -88 -84 -126l-25 -3q-41 0 -68 34v-106h-52v326h47v-29q30 37 73 37zM4714 -38h5q34 0 63 -37q27 37 69 37h6q56 0 79 -66l6 -51v-136h-52v122q0 73 -39 73h-7q-35 0 -41 -50v-140l-5 -5
h-48v140q0 42 -31 55h-17q-40 0 -40 -77v-118h-51v245h47v-21q22 29 56 29zM359 -46h49l5 -6v-234l-5 -5h-49v245zM1297 -46h52v-245h-52v245zM1649 -46h52v-136q4 -60 43 -60h4q44 0 44 81v115h52v-245h-47v24h-5q-12 -33 -59 -33q-52 0 -79 63q-5 12 -5 34v157zM2458 -46
h51v-245h-51v245zM4515 -46h51v-245h-51v245zM1077 -169q0 -53 51 -73h12q54 0 66 66v10q0 53 -54 70h-17q-38 0 -58 -57v-16zM1438 -143h122q-18 47 -53 47h-7q-43 0 -62 -44v-3zM2599 -143h122q-21 47 -54 47h-7q-46 0 -61 -47zM3196 -158v-11q10 -73 61 -73h5q64 8 64 71
v5q0 45 -38 65l-18 5h-14q-60 -14 -60 -62zM3452 -173q14 -69 62 -69h11q41 0 59 60v13q-8 73 -56 73h-17q-47 0 -59 -73v-4zM4062 -158v-22q0 -47 59 -62h9q50 0 61 76q-13 70 -58 70h-15q-56 -17 -56 -62z" />
    <glyph glyph-name=".null" horiz-adv-x="0" 
 />
    <glyph glyph-name="nonmarkingreturn" horiz-adv-x="571" 
 />
    <glyph glyph-name="space" unicode=" " horiz-adv-x="716" 
 />
    <glyph glyph-name="exclam" unicode="!" horiz-adv-x="407" 
d="M358 1536h-252l70 -1229h104zM233 236q-66 0 -93.5 -36t-29.5 -83q2 -47 29.5 -82t93.5 -35q61 0 88 35t31 82q-4 47 -31 83t-88 36z" />
    <glyph glyph-name="quotedbl" unicode="&#x22;" horiz-adv-x="604" 
d="M565 1536h-184l61 -512h78zM278 1536h-184l63 -512h76z" />
    <glyph glyph-name="numbersign" unicode="#" horiz-adv-x="1175" 
d="M1140 1137v88h-229l53 309l-110 4l-60 -313h-276l59 309l-108 4l-66 -313h-215v-88h205l-51 -256h-244v-90h233l-49 -267l107 2l51 265h287l-43 -267l108 2l49 265h209v90h-202l45 256h247zM784 1137l-47 -256h-281l45 256h283z" />
    <glyph glyph-name="dollar" unicode="$" horiz-adv-x="997" 
d="M592 -2v156q73 4 136.5 27.5t111 64.5t75 97t31.5 128q2 43 -9.5 89t-37 89t-66.5 81t-100 63l-141 57v416q55 4 99 -5.5t81 -25.5t67.5 -35.5t59.5 -36.5q6 45 11 68.5t13 56.5q-88 35 -166.5 52.5t-164.5 23.5v174h-146v-170q-168 -16 -256 -87t-92 -224
q-4 -92 59.5 -174t192.5 -129l96 -35v-459q-65 -10 -140 10.5t-153 94.5q-12 -31 -18 -51.5t-10 -34t-6 -24.5t-5 -24q82 -26 164 -45.5t168 -29.5v-158h146zM608 662q43 -17 71.5 -44.5t46 -60.5t26 -64.5t8.5 -54.5q2 -92 -47.5 -132t-120.5 -50v412zM270 1094
q-4 73 48 115t128 59v-355q-73 37 -124.5 84t-51.5 97z" />
    <glyph glyph-name="percent" unicode="%" horiz-adv-x="1808" 
d="M829 1135q0 65 -24.5 135.5t-69.5 130t-111.5 97.5t-150.5 38q-88 0 -157 -37t-115 -94t-70.5 -129t-24.5 -141v-103q0 -67 24.5 -142t70.5 -138.5t115 -105.5t157 -42q84 0 150.5 42t112.5 105.5t69.5 138.5t23.5 142v103zM1755 524q0 66 -25 136.5t-70 130t-111.5 97.5
t-150.5 38q-88 0 -156.5 -37t-114.5 -94.5t-70.5 -129t-24.5 -141.5v-102q0 -68 24.5 -142.5t70.5 -138t114.5 -105.5t156.5 -42q84 0 150.5 42t113 105.5t70 138t23.5 142.5v102zM268 1014v135q0 55 17.5 108.5t45 94.5t64.5 66.5t73 25.5q37 0 73 -26.5t63.5 -68.5
t45 -94.5t17.5 -105.5v-135q0 -51 -17.5 -106.5t-45 -101.5t-64.5 -77t-76 -31q-36 0 -69 28t-59.5 73t-45 101t-22.5 114zM1193 403v136q0 55 17.5 108t45.5 94t64.5 67t73.5 26t73 -27t63.5 -69t45 -94t17.5 -105v-136q0 -51 -17.5 -106t-45 -101t-64.5 -77t-76 -31
q-37 0 -69.5 27.5t-59.5 72.5t-45 101.5t-23 113.5zM1253 1538l-35 -66.5t-90 -174t-127 -246t-146.5 -282.5t-146.5 -282.5t-127 -246t-89 -174t-32 -66.5h105q2 0 40 66.5t98 174t138 246t159 282.5t158.5 282.5t138 246t97.5 174l37 66.5h-178z" />
    <glyph glyph-name="ampersand" unicode="&#x26;" horiz-adv-x="1236" 
d="M1089 776h148v94h-148v271h-235v-271h-485v228q0 84 2 143t15 97t41 58.5t77 26.5h407v113h-778v-1004q0 -133 22.5 -224t63.5 -150.5t100.5 -91t132 -47t158.5 -18.5t180 -3h299v778zM369 467v309h485v-360q0 -66 -3 -120t-17.5 -93t-42 -62.5t-78.5 -27.5
q-78 -4 -143.5 0t-111.5 36.5t-70 106.5t-19 211z" />
    <glyph glyph-name="quotesingle" unicode="'" horiz-adv-x="321" 
d="M278 1536h-184l63 -512h76z" />
    <glyph glyph-name="parenleft" unicode="(" horiz-adv-x="686" 
d="M734 -121q-393 320 -393 877q0 553 393 872l-4 4q-268 -104 -436 -334q-178 -245 -178 -544q0 -301 178 -543q170 -231 436 -336z" />
    <glyph glyph-name="parenright" unicode=")" horiz-adv-x="663" 
d="M-24 -100l4 -4q266 104 436 335q178 242 178 543q0 299 -178 545q-168 229 -436 334l-4 -4q393 -320 393 -873q0 -557 -393 -876z" />
    <glyph glyph-name="asterisk" unicode="*" horiz-adv-x="843" 
d="M772 1262l-250 -45l125 225l-193 80l-49 -265l-182 191l-115 -176l232 -113l-236 -96l109 -184l192 182l37 -273l197 97l-121 217l254 -41v201z" />
    <glyph glyph-name="plus" unicode="+" horiz-adv-x="1060" 
d="M491 778h-401v-133h401v-399h131v399h402v133h-402v400h-131v-400z" />
    <glyph glyph-name="comma" unicode="," horiz-adv-x="419" 
d="M264 4q6 -31 -11.5 -65.5t-43 -65.5t-51 -54.5t-32.5 -31.5q-16 -14 -8 -26.5l8 -12.5q74 59 120 107.5t72 92.5t35 85t9 86q0 20 -7 44.5t-24.5 45t-43 34t-62.5 13.5q-60 0 -89.5 -39t-29.5 -98q0 -21 9 -41.5t28.5 -37.5t49.5 -27.5t71 -8.5z" />
    <glyph glyph-name="hyphen" unicode="-" horiz-adv-x="768" 
d="M149 623v-154h512v154h-512z" />
    <glyph glyph-name="hyphen" unicode="&#x2010;" horiz-adv-x="768" 
d="M149 623v-154h512v154h-512z" />
    <glyph glyph-name="period" unicode="." horiz-adv-x="391" 
d="M225 236q-66 0 -93.5 -36t-29.5 -83q2 -47 29.5 -82t93.5 -35q61 0 88 35t31 82q-4 47 -31 83t-88 36z" />
    <glyph glyph-name="slash" unicode="/" horiz-adv-x="976" 
d="M928 1618l-42 -76t-110.5 -200.5t-156.5 -283.5t-179.5 -326t-179.5 -325.5t-155.5 -283.5t-109.5 -201t-40 -76h104q3 0 48 76t118.5 201t168 283.5t191.5 325.5t191.5 326t167 283.5t117.5 200.5l45 76h-178z" />
    <glyph glyph-name="zero" unicode="0" horiz-adv-x="1396" 
d="M1321 877q-2 106 -41 224t-114 214t-183.5 159.5t-245.5 63.5q-145 0 -257 -60.5t-188.5 -155.5t-116.5 -213t-40 -232v-177q0 -108 40 -231t116.5 -227.5t188.5 -173t257 -68.5q137 0 245.5 68.5t184.5 173t115 227.5t39 231v177zM371 676v225q0 96 31.5 189.5t82.5 166
t114.5 117.5t127.5 43q63 2 127.5 -43t116 -119.5t83 -168t31.5 -185.5v-225q0 -90 -31.5 -189.5t-83 -181.5t-116 -134t-127.5 -50q-64 -2 -124 47t-108.5 129t-82 179t-41.5 200z" />
    <glyph glyph-name="one" unicode="1" horiz-adv-x="604" 
d="M532 0v1536h-422v-92h20q62 0 94.5 -16.5t49 -54.5t19.5 -100.5t3 -156.5v-1116h236z" />
    <glyph glyph-name="two" unicode="2" horiz-adv-x="1179" 
d="M382 127l-2 205q4 112 54.5 174.5t123 99.5t152.5 60.5t145 60.5q21 12 67 47t91 86t79 115.5t32 136.5q-5 94 -36.5 172t-94 133.5t-153.5 86t-214 30.5q-141 -2 -277.5 -30.5t-273.5 -71.5q4 -29 10 -63t13 -69q75 27 140.5 45.5t125 31t117 19.5t114.5 11
q62 0 116 -14.5t94 -44t62.5 -77.5t20.5 -118q0 -29 -10 -66.5t-31.5 -74.5t-57.5 -69t-91 -52l-324 -117q-53 -18 -97 -60t-77 -95.5t-50.5 -113t-17.5 -114.5v-393h938v131z" />
    <glyph glyph-name="three" unicode="3" horiz-adv-x="1116" 
d="M549 127q-60 0 -101 10t-71.5 33t-56 57.5t-52.5 81.5q-57 -49 -87 -68.5t-43 -24.5t-12 -4t5 -7q22 -47 81.5 -102.5t174.5 -92.5q147 -35 272 -8t217 97.5t144.5 179t52.5 239.5q0 82 -27.5 150.5t-78 120t-124 80t-165.5 28.5l385 406v233h-963v-137h750l-420 -623
q116 0 195 -15.5t127 -43t72 -66.5t30 -88q14 -114 -8.5 -194t-66.5 -130.5t-105.5 -77t-124.5 -34.5z" />
    <glyph glyph-name="four" unicode="4" horiz-adv-x="1257" 
d="M991 518v1020h-236l-692 -1071l23 -66h669v-401h236v401h225v115zM284 516l471 729v-729h-471z" />
    <glyph glyph-name="five" unicode="5" horiz-adv-x="1077" 
d="M962 1536h-843v-823h247q41 110 94.5 160.5t129.5 48.5q22 2 56 -17.5t66.5 -65.5t55 -118t22.5 -174v-72q0 -102 -27.5 -175t-73.5 -119t-106.5 -66.5t-123.5 -18.5q-80 -2 -144.5 27t-109.5 82l-115 -82q37 -47 87 -76t102.5 -44t102.5 -21.5t87 -6.5q135 0 236.5 40
t171 111t107.5 169t42 217q0 154 -38 253t-93 157.5t-117.5 84t-109.5 29.5q-37 4 -80 1t-85 -16t-81 -38t-70 -63l2 487l608 -2v131z" />
    <glyph glyph-name="six" unicode="6" horiz-adv-x="1232" 
d="M642 0q142 0 242 43t163.5 113.5t94.5 163t33 192.5q-4 102 -35 194.5t-94.5 163t-162.5 111.5t-241 41q-71 0 -141 -30.5t-119 -53.5q12 125 48 216t93.5 156.5t137.5 109.5t180 73l-35 43q-133 0 -237.5 -48t-183.5 -129t-132 -185.5t-84 -218t-40 -228.5t1 -215
q4 -100 35 -192.5t92.5 -163t155.5 -113.5t229 -43zM939 547v-72q0 -102 -20.5 -170.5t-58.5 -109.5t-91 -58.5t-117 -15.5q-63 -2 -116.5 14.5t-91 57t-58 110.5t-20.5 172v72q0 102 20.5 171.5t58 110.5t91 57.5t116.5 14.5q64 2 117 -15.5t91 -58.5t58.5 -109.5
t20.5 -170.5z" />
    <glyph glyph-name="seven" unicode="7" horiz-adv-x="1099" 
d="M886 1401l-761 -1401h245l693 1456v82l-963 -2v-137z" />
    <glyph glyph-name="eight" unicode="8" horiz-adv-x="1232" 
d="M648 1544q-114 0 -195 -29.5t-132 -81t-76 -117t-27 -136.5q4 -99 47.5 -184t139.5 -132q-76 -28 -129.5 -71t-89 -97.5t-52 -117t-18.5 -127.5q4 -91 35 -172.5t94.5 -143t162.5 -98.5t240 -37q136 0 231 36t156.5 97.5t91 143t33.5 174.5q-4 65 -21 127.5t-51 117
t-85 97.5t-121 69q92 47 134 131t46 187q-4 71 -27.5 136.5t-72.5 117t-127 81t-187 29.5zM352 440v11q0 90 20 151.5t58 97t91.5 51t116.5 13.5q64 2 117 -12.5t91 -51t58.5 -97t20.5 -152.5v-11q0 -90 -20.5 -151.5t-58.5 -97t-91 -51t-117 -13.5q-63 -2 -116.5 13.5
t-91.5 52t-58 97t-20 150.5zM409 1153q0 135 63.5 208t167.5 69q51 2 94.5 -19.5t74 -55.5t47 -74t16.5 -77q0 -129 -56.5 -209t-167.5 -92q-118 10 -176.5 84t-62.5 166z" />
    <glyph glyph-name="nine" unicode="9" horiz-adv-x="1232" 
d="M658 1536q-141 0 -241.5 -43t-164 -113.5t-94 -163t-32.5 -192.5q4 -102 35 -194.5t94.5 -163t162.5 -111.5t240 -41q72 0 141.5 30.5t119.5 53.5q-13 -125 -48.5 -216t-93 -156.5t-137.5 -109.5t-180 -73l35 -43q133 0 237.5 48t183 129t132 185.5t84 218t40 228.5
t-1.5 215q-4 100 -34.5 192.5t-92 163t-155.5 113.5t-230 43zM362 989v72q0 102 20 170.5t58 109.5t91.5 58.5t116.5 15.5q64 2 117 -14.5t91 -57t58.5 -110.5t20.5 -172v-72q0 -102 -20.5 -171.5t-58.5 -110.5t-91 -57.5t-117 -14.5q-63 -2 -116.5 15.5t-91.5 58.5
t-58 109.5t-20 170.5z" />
    <glyph glyph-name="colon" unicode=":" horiz-adv-x="391" 
d="M225 236q-66 0 -93.5 -36t-29.5 -83q2 -47 29.5 -82t93.5 -35q61 0 88 35t31 82q-4 47 -31 83t-88 36zM225 782q-66 0 -93.5 -35.5t-29.5 -82.5q2 -48 29.5 -82.5t93.5 -34.5q61 0 88 34.5t31 82.5q-4 47 -31 82.5t-88 35.5z" />
    <glyph glyph-name="semicolon" unicode=";" horiz-adv-x="419" 
d="M264 4q6 -31 -11.5 -65.5t-43 -65.5t-51 -54.5t-32.5 -31.5q-16 -14 -8 -26.5l8 -12.5q74 59 120 107.5t72 92.5t35 85t9 86q0 20 -7 44.5t-24.5 45t-43 34t-62.5 13.5q-60 0 -89.5 -39t-29.5 -98q0 -21 9 -41.5t28.5 -37.5t49.5 -27.5t71 -8.5zM231 770q-66 0 -93.5 -36
t-29.5 -83q2 -47 29.5 -81.5t93.5 -34.5q61 0 88 34.5t31 81.5q-4 47 -31 83t-88 36z" />
    <glyph glyph-name="less" unicode="&#x3c;" horiz-adv-x="1081" 
d="M1040 119v155l-784 326l784 301v176l-948 -389v-176z" />
    <glyph glyph-name="equal" unicode="=" horiz-adv-x="868" 
d="M51 567v-153h821v153h-821zM51 932v-154h821v154h-821z" />
    <glyph glyph-name="greater" unicode="&#x3e;" horiz-adv-x="1081" 
d="M876 600l-784 -326v-155l948 393v176l-948 389v-176z" />
    <glyph glyph-name="question" unicode="?" horiz-adv-x="1138" 
d="M831 735q21 13 67 47.5t91 86t79 116t32 135.5q-5 94 -36.5 172t-94 133.5t-153.5 86t-214 30.5q-141 -2 -277.5 -30.5t-273.5 -71.5q6 -31 12 -67t11 -77q137 64 256.5 86.5t240.5 32.5q62 0 116 -14.5t94 -44t62.5 -77.5t20.5 -118q0 -28 -10 -66t-31.5 -75
t-57.5 -68.5t-91 -52.5l-93 -49q-53 -19 -97 -60.5t-76.5 -95t-50 -113t-17.5 -114.5v-158h248v99q8 79 22 127.5t42 80t71 57t108 62.5zM473 223q-66 0 -93.5 -35.5t-29.5 -83.5q2 -47 29.5 -81.5t93.5 -34.5q61 0 88 34.5t31 81.5q-4 48 -31 83.5t-88 35.5z" />
    <glyph glyph-name="at" unicode="@" horiz-adv-x="1961" 
d="M1115 133q64 -6 136.5 -3t146.5 17.5t141.5 41t118.5 67.5q105 96 174.5 234.5t69.5 297.5q0 156 -57.5 291t-161 234.5t-246.5 157t-317 57.5q-185 0 -362 -64.5t-310 -175.5q-84 -67 -145.5 -152t-103.5 -179.5t-62.5 -196t-20.5 -201.5q0 -199 78 -358.5t229 -274.5
q240 -184 617 -184q356 0 655 221l-31 70q-284 -207 -612 -207q-350 0 -582 197q-125 106 -178 240t-59 265q-11 205 61 371t203 293q242 233 616 233q144 0 269 -44t215 -121q202 -179 202 -455q0 -176 -64.5 -290t-188.5 -196q-19 -12 -43.5 -19t-50 -12t-52.5 -5
q-24 0 -45 4q98 358 98 362q17 107 5.5 194t-57.5 146.5t-131 92t-214 32.5q-123 0 -215 -32.5t-158.5 -92t-110.5 -146.5t-69 -194q-16 -108 -9 -202.5t47 -165t115.5 -111.5t198.5 -41q82 0 166 67.5t164 161.5zM1046 1004q57 2 102 -13.5t73 -53.5t35 -101.5t-12 -157.5
q-12 -72 -42.5 -147.5t-77.5 -138t-108.5 -105.5t-131.5 -47q-117 -4 -162 92t-10 284q20 119 54 195t76 120t93 59.5t111 13.5z" />
    <glyph glyph-name="A" unicode="A" horiz-adv-x="1366" 
d="M352 682h714v-242v-207v-155q0 -62 -2 -78h240l-2 997q0 125 -39 224.5t-114.5 169t-184.5 107.5t-246 38q-293 0 -447.5 -144.5t-154.5 -394.5v-424v-303q0 -120 -1 -187t-3 -83h242zM352 1061q0 102 31.5 170.5t83 109.5t114.5 58.5t127 15.5q63 2 127.5 -14.5t116 -57
t83 -110.5t31.5 -172v-285h-714v285z" />
    <glyph glyph-name="B" unicode="B" horiz-adv-x="1153" 
d="M1103 453q0 143 -71.5 233t-208.5 131q106 49 164.5 137t58.5 199q0 180 -134 281.5t-380 101.5h-420v-1536h487q109 0 201 26.5t159.5 82t105.5 141.5t38 203zM413 750q129 0 218 -19.5t143.5 -59.5t79 -98.5t24.5 -134.5q-4 -86 -23.5 -148.5t-60.5 -103.5
t-105.5 -63.5t-156.5 -30.5q-68 0 -106 16.5t-56 54.5t-21.5 100.5t-3.5 156.5v303q5 16 19 21.5t49 5.5zM345 1116q0 101 3.5 165.5t25.5 100.5q29 23 109 23q186 0 266 -59.5t80 -202.5q0 -76 -22.5 -130.5t-73 -89t-131 -51t-197.5 -16.5q-31 0 -43 4t-17 27v229z" />
    <glyph glyph-name="C" unicode="C" horiz-adv-x="1490" 
d="M1443 281q-98 -66 -203.5 -101t-214.5 -35q-149 0 -271 49.5t-208 138.5t-132 212t-46 272q0 129 38 240.5t108.5 192.5t173 127t231.5 46q113 -6 192.5 -22.5t138 -38t103.5 -46t92 -44.5q6 39 13.5 90t13.5 82q-141 49 -284.5 74.5t-272.5 25.5q-164 0 -309.5 -52
t-255 -151.5t-174 -243t-64.5 -325.5q0 -186 66.5 -330.5t181 -243t268.5 -148.5t328 -50q49 0 111.5 9t127 25.5t127 39t111.5 51.5z" />
    <glyph glyph-name="D" unicode="D" horiz-adv-x="1333" 
d="M1279 784q0 174 -50 313.5t-145 237t-234.5 149.5t-319.5 52h-418v-1536h270h156h78h41q129 -4 241.5 56.5t197.5 166t134 250.5t49 311zM466 1397q283 0 427.5 -164t144.5 -475q0 -72 -4 -153t-24.5 -159.5t-61.5 -148.5t-113 -116t-181.5 -62.5t-265.5 10.5
q-32 33 -37.5 102.5t-5.5 188.5v782q0 115 23 168q12 16 35.5 21.5t62.5 5.5z" />
    <glyph glyph-name="E" unicode="E" horiz-adv-x="1169" 
d="M1134 113h-432q-64 0 -127.5 16t-113.5 58t-81.5 110t-31.5 170v309h559v94h-559v228q0 84 2 143t15 97t41 58.5t77 26.5h653v113h-1024v-1004q0 -247 151.5 -390.5t438.5 -145.5h432v117z" />
    <glyph glyph-name="F" unicode="F" horiz-adv-x="931" 
d="M896 1417v119h-192q-287 -2 -438.5 -145.5t-151.5 -391.5v-391v-268v-170v-98q0 -33 -1 -47.5t-1 -22.5h238v680h559v94h-559v287q0 100 31.5 168.5t81.5 110.5t113.5 58.5t127.5 16.5h192z" />
    <glyph glyph-name="G" unicode="G" horiz-adv-x="1427" 
d="M1363 776h-233v-559q-68 -41 -139.5 -56.5t-157.5 -15.5q-103 0 -185.5 42t-141 122t-91.5 194.5t-33 260.5q0 307 125 474t338 167q105 -4 172.5 -16.5t115.5 -31t87 -39t88 -40.5q-4 80 -3 131t-13 51q-43 10 -101.5 24.5t-122 27t-130 20.5t-124.5 8
q-153 0 -281 -57.5t-222.5 -160.5t-146.5 -247.5t-52 -318.5q0 -176 49 -317.5t139.5 -241t217 -153.5t284.5 -54q189 0 328 108v-262v-145q0 -51 -1 -69.5t-1 -31.5h235v1186z" />
    <glyph glyph-name="H" unicode="H" horiz-adv-x="1118" 
d="M112 -2h236v684h473v-684h235v1540h-235v-762h-473v762h-236v-1540z" />
    <glyph glyph-name="I" unicode="I" horiz-adv-x="409" 
d="M348 1536h-236v-1538h236v1538z" />
    <glyph glyph-name="J" unicode="J" horiz-adv-x="419" 
d="M-210 -289q-23 0 -43.5 3t-40.5 7v-127q16 -2 34.5 -3t39.5 -1q137 0 244.5 38t182 107.5t113.5 169t39 224.5v1407h-235v-1470q0 -101 -31 -168.5t-80 -109.5t-108.5 -59.5t-114.5 -17.5z" />
    <glyph glyph-name="K" unicode="K" horiz-adv-x="1236" 
d="M943 408v-408h236q6 174 3 304t-28.5 222t-79 150.5t-145.5 93.5q117 53 180.5 158.5t67.5 255.5v352h-236v-401q0 -86 -22.5 -142.5t-60 -91.5t-88 -50t-103.5 -20h-47h-86h-98q-52 0 -88 3v702h-236v-1538h236v709q49 4 102 5t98 0t78 -1h41q53 -4 103.5 -19.5
t88 -50.5t61 -91t23.5 -142z" />
    <glyph glyph-name="L" unicode="L" horiz-adv-x="1171" 
d="M1134 102h-432q-64 0 -127.5 16.5t-113.5 58.5t-81.5 109.5t-31.5 170.5v1079h-236v-1004q0 -247 151.5 -390.5t438.5 -145.5h432v106z" />
    <glyph glyph-name="M" unicode="M" horiz-adv-x="1677" 
d="M974 1417q66 -8 137.5 -31.5t131 -65.5t98.5 -103.5t39 -147.5v-1071h235v1008q0 112 -52 205.5t-140 163t-202 111.5t-239 54v37t-1 65.5t-1 63.5q0 31 2 37h-249q2 -6 2 -37t-2.5 -66.5t-3.5 -67.5t1 -40q-122 -19 -235 -63t-198 -111.5t-135 -156.5t-50 -195v-1006
h236v1069q0 80 35.5 138.5t93 99.5t126 66.5t136.5 37.5v-1098h235v1104z" />
    <glyph glyph-name="N" unicode="N" horiz-adv-x="1359" 
d="M348 1061q0 102 31.5 170.5t82.5 109.5t114.5 58.5t127.5 15.5q63 2 127.5 -14.5t116 -57t83 -110.5t31.5 -172v-1059h236v995q0 125 -39 224.5t-115 169t-184.5 107.5t-245.5 38q-293 0 -447.5 -144.5t-154.5 -394.5v-995h236v1059z" />
    <glyph glyph-name="O" unicode="O" horiz-adv-x="1359" 
d="M1298 999q0 125 -39 224.5t-115 169t-184.5 107.5t-245.5 38q-293 0 -447.5 -144.5t-154.5 -394.5v-460q0 -250 154.5 -394.5t447.5 -144.5q137 0 245.5 38t184.5 107.5t115 169t39 224.5v460zM348 475v588q0 102 31.5 171t82.5 109.5t114.5 58t127.5 15.5
q63 2 127.5 -14.5t116 -57t83 -110.5t31.5 -172v-588q0 -102 -31.5 -172t-83 -110.5t-116 -57t-127.5 -14.5q-64 -2 -127.5 15.5t-114.5 58.5t-82.5 109.5t-31.5 170.5z" />
    <glyph glyph-name="P" unicode="P" horiz-adv-x="1335" 
d="M714 1538q-285 0 -439.5 -137t-162.5 -375v-1026h236v602q141 -86 366 -86q270 0 422 136t162 374q-10 238 -162 375t-422 137zM348 1063q0 102 31.5 171t82.5 109.5t114.5 58t127.5 15.5q63 2 127.5 -14.5t116 -57t83 -110.5t31.5 -172v-72q0 -102 -31.5 -171.5
t-83 -110.5t-116 -57.5t-127.5 -14.5q-62 -2 -123 13.5t-111.5 53t-84 100t-37.5 157.5v102z" />
    <glyph glyph-name="Q" unicode="Q" horiz-adv-x="1359" 
d="M1298 999q0 125 -39 224.5t-115 169t-184.5 107.5t-245.5 38q-293 0 -447.5 -144.5t-154.5 -394.5v-460q0 -222 122 -361t351 -170v-43v-78v-94v-92q0 -45 -1 -77t-1 -40h238v422q229 29 353 168t124 365v460zM821 131v483h-238l2 -481q-49 12 -92 38t-75 67t-51 100
t-19 137v588q0 102 31.5 171t82.5 109.5t114.5 58t127.5 15.5q63 2 127.5 -14.5t116 -57t83 -110.5t31.5 -172v-588q0 -80 -19.5 -139.5t-53 -100t-76.5 -66.5t-92 -38z" />
    <glyph glyph-name="R" unicode="R" horiz-adv-x="1331" 
d="M348 2v651q55 -53 124.5 -85.5t126.5 -47.5q72 -28 118 -51t75 -50.5t42 -69.5t19 -109v-60v-76q0 -36 -1 -67t-3 -37h242v31v63v64v32q0 70 -13.5 123.5t-38 93t-61.5 70.5t-86 58q189 40 293.5 167t112.5 324q-10 238 -162 375t-422 137q-285 0 -439.5 -137
t-162.5 -375v-1024h236zM348 1063q0 102 31.5 171t82.5 109.5t114.5 58t127.5 15.5q63 2 127.5 -14.5t116 -57t83 -110.5t31.5 -172v-72q0 -102 -31.5 -171.5t-83 -110.5t-116 -57.5t-127.5 -14.5q-62 -2 -123 13.5t-111.5 53t-84 100t-37.5 157.5v102z" />
    <glyph glyph-name="S" unicode="S" horiz-adv-x="1200" 
d="M90 1137q-4 -117 76 -218.5t244 -160.5l323 -117q55 -20 91 -56t57.5 -76t32 -81t10.5 -70q2 -69 -20.5 -114t-62.5 -71t-94.5 -37t-115.5 -11q-74 2 -140.5 10t-127 25.5t-117 46.5t-107.5 74q-8 -50 -14 -97t-14 -84q137 -43 273 -72.5t277 -29.5q103 0 192 27.5
t155.5 80t106.5 126t44 167.5q2 56 -11 114t-46 112.5t-85 101.5t-126 78l-303 127q-56 22 -107 51t-89 62.5t-61.5 68.5t-23.5 70q-2 55 22.5 97t66.5 70.5t97.5 43t114.5 18.5q103 -16 174.5 -31.5t127 -35t100.5 -42t92 -53.5q12 101 28 179q-145 55 -277 78.5t-290 23.5
q-227 -14 -349 -103.5t-124 -291.5z" />
    <glyph glyph-name="T" unicode="T" horiz-adv-x="1325" 
d="M1325 1382v154h-1274v-154h520v-1382h236v1382h518z" />
    <glyph glyph-name="U" unicode="U" horiz-adv-x="1359" 
d="M1062 475q0 -102 -31.5 -170.5t-83 -109.5t-115 -58.5t-126.5 -15.5q-64 -2 -128.5 14.5t-115.5 57t-82.5 110.5t-31.5 172v1059h-236v-995q0 -125 39 -224.5t114.5 -169t183 -107.5t247.5 -38q293 0 447.5 144.5t154.5 394.5v995h-236v-1059z" />
    <glyph glyph-name="V" unicode="V" horiz-adv-x="1464" 
d="M825 -4l639 1540h-152l-483 -1204l-477 1206h-297l672 -1542h98z" />
    <glyph glyph-name="W" unicode="W" horiz-adv-x="1677" 
d="M984 123v475v328v207v114q0 41 1 55.5t1 24.5h-239l2 -1198q-68 12 -138.5 38t-129 66.5t-96 99t-37.5 138.5v1067h-236v-1003q0 -109 52 -197t139.5 -155.5t201 -111.5t236.5 -63q47 -4 72.5 -5t47 -2t50.5 -1h82q125 12 237.5 54t198.5 112t136 162t50 207v1003h-235
v-1067q0 -86 -37 -147.5t-95.5 -103.5t-128 -65.5t-135.5 -31.5z" />
    <glyph glyph-name="X" unicode="X" horiz-adv-x="1232" 
d="M350 408q0 84 21.5 139t58 90t84 51.5t100.5 20.5h55q51 -4 99.5 -20.5t85 -51.5t59 -90t22.5 -139v-37v-74v-119q0 -61 -1 -114.5t-1 -65.5h238v330q0 159 -63.5 273t-186.5 169q117 53 180.5 158.5t67.5 255.5v352h-238q0 -12 1 -65.5t1 -116.5v-117v-72v-30
q0 -86 -22.5 -142.5t-60.5 -91.5t-88 -50t-103 -20h-33q-53 5 -103.5 20t-88 50t-60 91.5t-22.5 142.5v401h-238q0 -10 1 -61.5t1 -112.5v-113v-65q4 -150 67.5 -255.5t180.5 -158.5q-123 -55 -186.5 -169t-63.5 -273v-62v-106q0 -58 -1 -106t-1 -56h238v410z" />
    <glyph glyph-name="Y" unicode="Y" horiz-adv-x="1339" 
d="M338 1001v535h-236v-471q0 -223 123 -362.5t356 -170.5v-534h236v534q225 29 348 169.5t123 363.5v471h-236v-535q0 -102 -31.5 -171.5t-83 -110.5t-116 -57.5t-127.5 -14.5q-64 -2 -127.5 15.5t-114.5 58.5t-82.5 109.5t-31.5 170.5z" />
    <glyph glyph-name="Z" unicode="Z" horiz-adv-x="1470" 
d="M1116 1421q-57 -71 -133 -168.5t-162 -207t-177 -226.5t-178 -227.5t-163 -208.5t-133.5 -170t-89 -112t-27.5 -35l23 -66q307 0 522 1t358 1h232h133h67h39v117h-1016q93 119 199.5 257t213 277.5t208.5 272.5t186 239.5t142.5 180t81.5 96.5v94h-1342v-119z" />
    <glyph glyph-name="bracketleft" unicode="[" horiz-adv-x="696" 
d="M336 1184q0 82 4 133t20.5 79.5t49 38t92.5 9.5h157v92h-530v-1536h522v92h-147q-56 0 -88.5 9.5t-50 36t-22.5 71.5t-5 119v55q0 51 -1 127t-1 168v186v178v142z" />
    <glyph glyph-name="backslash" unicode="\" horiz-adv-x="1017" 
d="M123 1665h-178l45 -76t118 -200.5t166 -283.5t191 -325t191.5 -324.5t167 -283.5t118.5 -200.5t47 -75.5h105q2 0 -40 75.5t-109.5 200.5t-154.5 283.5t-178.5 324.5t-179.5 325t-156.5 283.5t-110.5 200.5z" />
    <glyph glyph-name="bracketright" unicode="]" horiz-adv-x="696" 
d="M403 1184v-142v-178v-186q0 -92 -1 -168t-1 -127v-55q0 -74 -5.5 -119t-23 -71.5t-50 -36t-87.5 -9.5h-148v-92h522v1536h-530v-92h158q57 0 91 -9.5t50 -38t20.5 -79.5t4.5 -133z" />
    <glyph glyph-name="asciicircum" unicode="^" horiz-adv-x="860" 
d="M839 963l-391 487l-383 -481l18 -45l375 270l363 -276z" />
    <glyph glyph-name="underscore" unicode="_" horiz-adv-x="868" 
d="M49 72v-154h821v154h-821z" />
    <glyph glyph-name="grave" unicode="`" horiz-adv-x="1308" 
d="M493 2046q-115 -176 -107 -182q4 -11 479 -170l31 63z" />
    <glyph glyph-name="a" unicode="a" 
d="M1156 6v279v147v62v16q-4 119 -34.5 213t-94 160.5t-163 102.5t-240.5 36q-135 0 -229.5 -36t-155.5 -102.5t-92 -160.5t-35 -213q4 -119 35 -213t92 -160.5t155.5 -101.5t229.5 -35q45 0 85 9t75 33t68.5 64.5t68.5 104.5l-2 -205v-6h237v6zM921 543q0 -205 -79 -315.5
t-208 -106.5q-63 -2 -116.5 14.5t-91.5 57t-58 110.5t-20 172v72q0 102 20 171.5t58 110.5t91.5 57.5t116.5 14.5q64 2 117 -15.5t91 -58.5t58.5 -109.5t20.5 -170.5v-4z" />
    <glyph glyph-name="b" unicode="b" 
d="M114 512q4 -119 35 -213t94.5 -160.5t162.5 -102.5t240 -36q136 0 230 36t155.5 102.5t92 160.5t34.5 213q-4 119 -34.5 215t-92 165t-155.5 106.5t-230 37.5q-92 0 -162.5 -21.5t-129.5 -49.5l-4 573h-236v-238v-233v-213v-174v-121v-47zM350 547q0 102 20 173t58 115
t91.5 63.5t116.5 16.5q64 3 117 -15.5t91 -62.5t58.5 -116t20.5 -174v-72q0 -102 -20.5 -172t-58.5 -110.5t-91 -57t-117 -14.5q-63 -2 -116.5 15.5t-91.5 58.5t-58 109.5t-20 170.5v72z" />
    <glyph glyph-name="c" unicode="c" horiz-adv-x="1105" 
d="M636 877q60 0 101 -10.5t71.5 -33t55 -57.5t53.5 -82q57 49 87 68.5t43 25t12 4.5t-5 7q-22 47 -81.5 102t-174.5 92q-147 35 -272 8.5t-217.5 -97t-144.5 -179.5t-52 -240q0 -110 37 -204.5t104.5 -162t159.5 -105.5t203 -36q96 3 162.5 12t115.5 23.5t88 31.5t82 36
l-4 65q-164 -55 -295 -41.5t-224 65.5t-147.5 127t-62.5 144q-14 115 7.5 195t66.5 130t105.5 76.5t125.5 35.5z" />
    <glyph glyph-name="d" unicode="d" 
d="M1156 512v47v121v174v213v233v238h-235l-4 -573q-60 28 -130.5 49.5t-162.5 21.5q-135 0 -229.5 -37.5t-155.5 -106.5t-92 -165t-35 -215q4 -119 35 -213t92 -160.5t155.5 -102.5t229.5 -36q141 0 240.5 36t163 102.5t94 160.5t34.5 213zM921 547v-72
q0 -102 -20.5 -170.5t-58.5 -109.5t-91 -58.5t-117 -15.5q-63 -2 -116.5 14.5t-91.5 57t-58 110.5t-20 172v72q0 102 20 174t58 116t91.5 62.5t116.5 15.5q64 3 117 -16.5t91 -63.5t58.5 -115t20.5 -173z" />
    <glyph glyph-name="e" unicode="e" horiz-adv-x="1163" 
d="M1097 446q0 13 1 32.5t1 29.5q4 100 -30.5 191.5t-100 160t-158 108.5t-204.5 42q-107 -4 -197 -45t-156.5 -110t-103.5 -159t-37 -192q4 -111 44 -203t107.5 -158.5t158.5 -103.5t200 -37q72 -4 137.5 20.5t128.5 53.5l-16 67q-129 -34 -205 -34q-92 0 -153.5 32.5
t-99.5 81.5t-55.5 108.5t-23.5 114.5h762zM597 893h4q113 0 184.5 -76t88.5 -244h-537q6 62 24.5 119.5t50.5 101.5t78 71.5t107 27.5z" />
    <glyph glyph-name="f" unicode="f" horiz-adv-x="894" 
d="M894 1417v119h-192q-287 -2 -438.5 -145.5t-151.5 -391.5v-1413h236v1098h548v94h-548v285q0 100 31.5 168.5t81.5 110.5t113.5 58.5t127.5 16.5h192z" />
    <glyph glyph-name="g" unicode="g" horiz-adv-x="1337" 
d="M546 -180q17 94 88.5 132t165.5 48q131 -4 223.5 40t150.5 115.5t86 164t28 186.5q-8 237 -163 374.5t-439 137.5q-271 0 -422.5 -137.5t-161.5 -374.5q8 -197 112.5 -324t293.5 -168q-50 -26 -84.5 -49.5t-59 -50.5t-38 -61.5t-17.5 -81.5v-185h244q-5 8 -6 40t-1 71v74
v49zM1052 543v-103q-4 -94 -37.5 -156.5t-84 -100.5t-112 -53t-122.5 -13q-64 -2 -128.5 14t-115.5 57t-82.5 111t-31.5 172v72q0 102 31.5 171.5t82.5 110.5t115.5 57.5t128.5 14.5q63 2 126.5 -15.5t115 -58.5t83 -109.5t31.5 -170.5z" />
    <glyph glyph-name="h" unicode="h" horiz-adv-x="1193" 
d="M112 -2h238v563q2 96 23.5 161.5t59 104.5t90 54.5t113.5 13.5q64 2 113 -15.5t82 -58.5t49 -109.5t16 -170.5v-152v-172q0 -82 -1 -144.5t-1 -74.5h238v479q0 125 -27.5 224.5t-88 169t-157 107.5t-233.5 38q-162 0 -276 -66v584h-238v-1536z" />
    <glyph glyph-name="i" unicode="i" horiz-adv-x="479" 
d="M386 1030h-235v-1028h235v1028zM112 1380q0 -63 44 -108t108 -45q26 0 53.5 12t50.5 33.5t36 49.5t13 58q0 64 -45 109t-108 45q-64 0 -108 -45t-44 -109z" />
    <glyph glyph-name="j" unicode="j" horiz-adv-x="460" 
d="M-196 -291q-23 0 -43.5 3t-40.5 7v-127q16 -2 34.5 -3t39.5 -1q137 0 244.5 38t182 107.5t113.5 169t39 224.5v899h-235v-963q0 -100 -31 -167.5t-80 -109.5t-108.5 -59.5t-114.5 -17.5zM95 1380q0 -63 44 -108t107 -45q64 0 109 45t45 108q0 64 -45 109t-109 45
q-63 0 -107 -45t-44 -109z" />
    <glyph glyph-name="k" unicode="k" horiz-adv-x="1320" 
d="M1173 1030l-250 2l-575 -424v928h-234v-725v-465t-1 -254t-1 -90h238v367q10 73 54 129.5t101.5 94.5t115.5 57.5t99 19.5q56 0 113 -22.5t104 -72t78 -125t31 -182.5q0 -147 -10.5 -247.5t-37 -172t-69.5 -125t-106 -104.5l30 -37q201 80 313.5 226.5t112.5 394.5
q0 110 -31.5 213.5t-90 183.5t-143.5 128t-189 48z" />
    <glyph glyph-name="l" unicode="l" horiz-adv-x="679" 
d="M122 543v995h236v-1059q0 -98 29.5 -164.5t75.5 -108.5t103.5 -60.5t112.5 -20.5v-121q-264 6 -410.5 149.5t-146.5 389.5z" />
    <glyph glyph-name="m" unicode="m" horiz-adv-x="1972" 
d="M1675 549v-547h235v483q0 125 -27.5 224.5t-88 169t-156.5 107.5t-234 38q-129 0 -226 -40t-163 -116q-59 72 -155.5 110t-235.5 38q-248 0 -380 -144.5t-132 -394.5v-475h236v539q0 102 20 171.5t58 110.5t91.5 57.5t116.5 14.5q64 2 112 -15.5t81 -58.5t50 -108.5
t17 -167.5v-543h236v293v160q0 53 -1 69.5t-1 24.5q0 102 20.5 172t58.5 110.5t91 57t117 14.5q63 2 112 -15.5t82 -58.5t49.5 -109.5t16.5 -170.5z" />
    <glyph glyph-name="n" unicode="n" horiz-adv-x="1191" 
d="M894 541v-539h236v475q0 125 -27.5 224.5t-88 169t-157 107.5t-233.5 38q-248 0 -380 -144.5t-132 -394.5v-475h236v539q0 102 20 171.5t58 110.5t91.5 57.5t116.5 14.5q64 2 113 -15.5t82 -58.5t49 -109.5t16 -170.5z" />
    <glyph glyph-name="o" unicode="o" horiz-adv-x="1218" 
d="M644 1022q-141 0 -241.5 -43t-164 -113.5t-94 -163t-32.5 -192.5q4 -102 35 -194.5t94.5 -163t162.5 -111.5t240 -41q136 0 231 41t156.5 109.5t91 162t33.5 197.5q-4 100 -34.5 192.5t-92 163t-155.5 113.5t-230 43zM348 475v72q0 102 20 170.5t58 109.5t91.5 58.5
t116.5 15.5q64 2 117 -14.5t91 -57.5t58.5 -110.5t20.5 -171.5v-72q0 -102 -20.5 -172t-58.5 -110.5t-91 -57t-117 -14.5q-63 -2 -116.5 15.5t-91.5 58.5t-58 109.5t-20 170.5z" />
    <glyph glyph-name="p" unicode="p" horiz-adv-x="1216" 
d="M350 57q59 -28 129.5 -42.5t162.5 -14.5q136 0 230 35t155.5 101.5t92 160.5t34.5 213q-4 119 -34.5 213t-92 160.5t-155.5 102.5t-230 36q-141 0 -240.5 -36t-161.5 -102.5t-93 -160.5t-35 -213v-924h236zM345 475v72q0 102 20.5 170.5t58.5 109.5t91.5 58.5t116.5 15.5
q64 2 117 -14.5t91 -57.5t58.5 -110.5t20.5 -171.5v-72q0 -102 -20.5 -172t-58.5 -110.5t-91 -57t-117 -14.5q-63 -2 -116.5 15.5t-91.5 58.5t-58.5 109.5t-20.5 170.5z" />
    <glyph glyph-name="q" unicode="q" horiz-adv-x="1359" 
d="M853 -180v-49q0 -37 1 -75t0 -70t-3 -40h240v185q-4 47 -17.5 81.5t-38 61.5t-59.5 50.5t-84 49.5q189 41 293.5 168t112.5 324q-10 237 -162 374.5t-422 137.5q-285 0 -439.5 -137.5t-162.5 -374.5q0 -94 27.5 -186.5t86 -164t150.5 -115.5t223 -40q95 -10 166.5 -48
t87.5 -132zM348 543q0 102 31.5 170.5t82.5 109.5t114.5 58.5t127.5 15.5q63 2 127.5 -14.5t116 -57.5t83 -110.5t31.5 -171.5v-72q0 -102 -31.5 -172t-83 -111t-116 -57t-127.5 -14q-62 -2 -123 13t-111.5 53t-84 100.5t-37.5 156.5v103z" />
    <glyph glyph-name="r" unicode="r" horiz-adv-x="806" 
d="M714 1024q-293 0 -447.5 -144.5t-154.5 -394.5v-485h236v567q0 103 31.5 171.5t82.5 109.5t114.5 58.5t127.5 15.5q24 0 51 -1t51 -6v107q-22 2 -47 2h-45z" />
    <glyph glyph-name="s" unicode="s" horiz-adv-x="864" 
d="M402 90q-98 -4 -170.5 12.5t-148.5 69.5l18 -139q84 -25 165 -35t159 -12q70 0 141.5 17t129 54t93 95.5t35.5 138.5q0 71 -28.5 121.5t-74.5 86.5t-103.5 61.5t-114.5 47.5q-45 19 -87 36.5t-75 40t-52.5 49t-19.5 63.5q0 34 18.5 60t47.5 43.5t66.5 26.5t76.5 9
q68 -6 117 -17.5t86 -28t64.5 -34.5t52.5 -37q0 31 1 60.5t-5 70.5q-41 25 -76 42.5t-74 27.5t-84 14t-102 4q-74 0 -141.5 -18.5t-120 -54t-83 -87t-30.5 -114.5q0 -76 28.5 -128t75 -88t103.5 -60.5t117 -45.5q45 -16 86 -32.5t72.5 -38t51 -49t19.5 -64.5
q0 -41 -18.5 -71.5t-51 -52t-74.5 -33t-90 -11.5z" />
    <glyph glyph-name="t" unicode="t" horiz-adv-x="731" 
d="M723 1028h-238v508h-227v-508h-240v-119h240v-911h227v911h238v119z" />
    <glyph glyph-name="u" unicode="u" horiz-adv-x="1191" 
d="M348 475v551h-236v-487q0 -125 27.5 -224.5t88 -169t157 -107.5t233.5 -38q248 0 380 144.5t132 394.5v487h-236v-551q0 -102 -20.5 -172t-58 -110.5t-91 -57t-116.5 -14.5q-64 -2 -113 15.5t-82 58.5t-49 109.5t-16 170.5z" />
    <glyph glyph-name="v" unicode="v" horiz-adv-x="1024" 
d="M573 -4l451 1030h-152l-295 -694l-270 696h-250l438 -1032h78z" />
    <glyph glyph-name="w" unicode="w" horiz-adv-x="1972" 
d="M348 475v555h-236v-491q0 -125 27.5 -224.5t88 -169t157 -107.5t233.5 -38q129 0 226 40t163 116q59 -72 155.5 -110t235.5 -38q248 0 380 144.5t132 394.5v483h-235v-547q0 -102 -20.5 -171.5t-58.5 -110.5t-91.5 -57.5t-116.5 -14.5q-127 -4 -192.5 73t-67.5 277v551
h-236v-295v-162q0 -55 1 -72.5t1 -25.5q0 -102 -20.5 -172t-58 -110.5t-91 -57t-116.5 -14.5q-64 -2 -113 15.5t-82 58.5t-49 109.5t-16 170.5z" />
    <glyph glyph-name="x" unicode="x" horiz-adv-x="1017" 
d="M749 1028v-262q0 -49 -18.5 -82t-48 -52.5t-66.5 -28.5t-74 -11h-6q-37 2 -77 11t-72.5 28.5t-54 52.5t-21.5 82v262h-197v-246q10 -184 162 -266q-164 -88 -164 -285v-231h219v248q0 57 19.5 94t50 59.5t67.5 31.5t72 13q35 -4 74 -13t70.5 -28.5t53 -51t21.5 -81.5
v-272h197v231q0 197 -164 285q151 82 162 266v246h-205z" />
    <glyph glyph-name="y" unicode="y" horiz-adv-x="1191" 
d="M989 -223q-5 47 -18 82t-37.5 61.5t-59.5 50t-82 47.5q27 11 51.5 16t48.5 21q119 64 178.5 187t59.5 297v489h-236v-553q0 -102 -18.5 -172t-53 -110.5t-85 -57t-113.5 -14.5q-63 -2 -114.5 15.5t-87.5 58.5t-55 109.5t-19 170.5v553h-236v-489q0 -209 85 -345.5
t271 -177.5q47 -10 94.5 -20t87.5 -30.5t66.5 -53.5t34.5 -86v-47t1 -78t1 -76t-2 -41h235q0 -6 1.5 13.5t1.5 50.5v65v64z" />
    <glyph glyph-name="z" unicode="z" horiz-adv-x="1105" 
d="M766 907q-74 -92 -155 -190.5t-159 -192.5t-148.5 -178t-123.5 -146.5t-86 -99.5l-33 -37l23 -63q215 0 367.5 1t256.5 1h166h100h58h37v117h-678q276 356 440 549.5t229 259.5v96h-938v-119z" />
    <glyph glyph-name="braceleft" unicode="{" horiz-adv-x="989" 
d="M438 477v-477h481v92h-78q-55 0 -88 9.5t-50.5 36t-22.5 71.5t-5 119q0 159 -63.5 273t-186.5 169q117 53 180.5 158.5t67.5 255.5q0 82 4 133t20.5 79.5t49.5 38t92 9.5h88v92h-489v-401q0 -86 -22.5 -142.5t-60.5 -91.5t-88.5 -50t-103.5 -20h-51v-120h31h12h4h4
q47 -4 92 -16.5t82 -39t63.5 -70.5t37.5 -108z" />
    <glyph glyph-name="bar" unicode="|" horiz-adv-x="438" 
d="M335 -233v2048h-182v-2048h182z" />
    <glyph glyph-name="braceright" unicode="}" horiz-adv-x="989" 
d="M601 0v477q11 64 37.5 108t63.5 70.5t82 39t92 16.5h4h2h12h33v120h-51q-53 5 -103.5 20t-88 50t-60.5 91.5t-23 142.5v401h-489v-92h88q57 0 91 -9.5t50.5 -38t20.5 -79.5t4 -133q4 -150 67.5 -255.5t180.5 -158.5q-123 -55 -186.5 -169t-63.5 -273q0 -74 -5 -119
t-22.5 -71.5t-50.5 -36t-88 -9.5h-78v-92h481z" />
    <glyph glyph-name="asciitilde" unicode="~" horiz-adv-x="958" 
d="M926 1217l-37 30q-35 -28 -83 -53t-96 -25q-30 0 -68 11.5t-89 33.5q-99 50 -170 50q-203 0 -291 -209q14 -13 25.5 -9.5t23.5 -15.5q37 49 84 68.5t88 19.5q35 0 80 -13t105 -36q114 -51 184 -51q149 0 244 199z" />
    <glyph glyph-name="dieresis" unicode="&#xa8;" horiz-adv-x="1024" 
 />
    <glyph glyph-name="copyright" unicode="&#xa9;" horiz-adv-x="1748" 
d="M901 8q162 0 308.5 60.5t257 165t176 247t65.5 305.5q0 162 -65.5 304.5t-176 247t-257 165t-308.5 60.5q-164 0 -310.5 -60.5t-257 -165t-176 -247t-65.5 -304.5q0 -163 65.5 -305.5t176 -247t257 -165t310.5 -60.5zM213 786q0 138 55 257.5t149.5 208.5t219.5 139.5
t264 50.5t264 -50.5t218 -139.5t148.5 -208.5t55.5 -257.5q0 -137 -55.5 -256.5t-148.5 -209t-218 -140.5t-264 -51t-264 51t-219.5 140.5t-149.5 209t-55 256.5zM901 1167q59 0 100 -10t72 -32.5t55.5 -57.5t53.5 -82q57 49 86.5 68.5t43 24.5t12.5 4t-5 8
q-23 47 -82.5 102t-173.5 92q-148 35 -273 8.5t-217 -97.5t-144 -179.5t-52 -239.5q0 -110 36.5 -204.5t104.5 -162t160 -105.5t202 -36q97 2 163.5 11.5t115.5 23.5t88 31.5t82 36.5l-4 65q-164 -55 -295 -41.5t-224 65.5t-147.5 127t-62.5 144q-15 115 6.5 195t67 130
t105.5 76.5t126 34.5z" />
    <glyph glyph-name="registered" unicode="&#xae;" horiz-adv-x="1748" 
d="M901 8q162 0 308.5 60.5t257 165t176 247t65.5 305.5q0 162 -65.5 304.5t-176 247t-257 165t-308.5 60.5q-164 0 -310.5 -60.5t-257 -165t-176 -247t-65.5 -304.5q0 -163 65.5 -305.5t176 -247t257 -165t310.5 -60.5zM213 786q0 138 55 257.5t149.5 208.5t219.5 139.5
t264 50.5q106 0 203.5 -31t183.5 -86q-274 -10 -418.5 -152.5t-144.5 -384.5v-485h235v567q0 103 32 171.5t83 109.5t114.5 58.5t127.5 15.5q22 0 48.5 -1t49.5 -5q80 -86 126 -196t46 -237q0 -137 -55.5 -256.5t-148.5 -209t-218 -140.5t-264 -51t-264 51t-219.5 140.5
t-149.5 209t-55 256.5z" />
    <glyph glyph-name="acute" unicode="&#xb4;" horiz-adv-x="1024" 
 />
    <glyph glyph-name="paragraph" unicode="&#xb6;" horiz-adv-x="1024" 
d="M929 1435v-70h-127v-1365h-82v1365h-166v-1365h-84v738q-174 8 -275.5 102.5t-101.5 245.5q0 157 107.5 253t285.5 96h443z" />
    <glyph glyph-name="onequarter" unicode="&#xbc;" horiz-adv-x="1298" 
 />
    <glyph glyph-name="onehalf" unicode="&#xbd;" horiz-adv-x="1320" 
 />
    <glyph glyph-name="threequarters" unicode="&#xbe;" horiz-adv-x="1288" 
 />
    <glyph glyph-name="Agrave" unicode="&#xc0;" horiz-adv-x="1366" 
d="M352 682h714v-242v-207v-155q0 -62 -2 -78h240l-2 997q0 125 -39 224.5t-114.5 169t-184.5 107.5t-246 38q-293 0 -447.5 -144.5t-154.5 -394.5v-424v-303q0 -120 -1 -187t-3 -83h244zM352 1061q0 102 31.5 170.5t83 109.5t114.5 58.5t127 15.5q63 2 127.5 -14.5t116 -57
t83 -110.5t31.5 -172v-285h-714v285zM524 2042q-115 -178 -109 -182q12 -13 481 -170l33 63z" />
    <glyph glyph-name="Aacute" unicode="&#xc1;" horiz-adv-x="1366" 
d="M352 682h714v-242v-207v-155q0 -62 -2 -78h240l-2 997q0 125 -39 224.5t-114.5 169t-184.5 107.5t-246 38q-293 0 -447.5 -144.5t-154.5 -394.5v-424v-303q0 -120 -1 -187t-3 -83h244zM352 1061q0 102 31.5 170.5t83 109.5t114.5 58.5t127 15.5q63 2 127.5 -14.5t116 -57
t83 -110.5t31.5 -172v-285h-714v285zM927 2042l-405 -289l32 -63q469 157 482 170q6 4 -109 182z" />
    <glyph glyph-name="Acircumflex" unicode="&#xc2;" horiz-adv-x="1366" 
d="M352 682h714v-242v-207v-155q0 -62 -2 -78h240l-2 997q0 125 -39 224.5t-114.5 169t-184.5 107.5t-246 38q-293 0 -447.5 -144.5t-154.5 -394.5v-424v-303q0 -120 -1 -187t-3 -83h244zM352 1061q0 102 31.5 170.5t83 109.5t114.5 58.5t127 15.5q63 2 127.5 -14.5t116 -57
t83 -110.5t31.5 -172v-285h-714v285zM1001 1669l-301 375l-295 -371l14 -35l285 172l282 -176z" />
    <glyph glyph-name="Atilde" unicode="&#xc3;" horiz-adv-x="1366" 
d="M352 682h714v-242v-207v-155q0 -62 -2 -78h240l-2 997q0 125 -39 224.5t-114.5 169t-184.5 107.5t-246 38q-293 0 -447.5 -144.5t-154.5 -394.5v-424v-303q0 -120 -1 -187t-3 -83h244zM352 1061q0 102 31.5 170.5t83 109.5t114.5 58.5t127 15.5q63 2 127.5 -14.5t116 -57
t83 -110.5t31.5 -172v-285h-714v285zM1044 1890l-31 35q-27 -31 -65.5 -58.5t-77.5 -27.5q-25 0 -55.5 13.5t-71.5 37.5q-78 52 -137 52q-166 0 -236 -226q6 -6 11 -7t9.5 -2t9.5 -4t9 -13q31 53 68.5 74.5t70.5 21.5q29 0 66 -14.5t84 -40.5q92 -54 149 -54q119 0 197 213z
" />
    <glyph glyph-name="Egrave" unicode="&#xc8;" horiz-adv-x="1169" 
d="M1134 113h-432q-64 0 -127.5 16t-113.5 58t-81.5 110t-31.5 170v309h559v94h-559v228q0 84 2 143t15 97t41 58.5t77 26.5h653v113h-1024v-1004q0 -247 151.5 -390.5t438.5 -145.5h432v117zM530 2046q-115 -176 -107 -182q4 -11 480 -170l30 63z" />
    <glyph glyph-name="Eacute" unicode="&#xc9;" horiz-adv-x="1169" 
d="M1134 113h-432q-64 0 -127.5 16t-113.5 58t-81.5 110t-31.5 170v309h559v94h-559v228q0 84 2 143t15 97t41 58.5t77 26.5h653v113h-1024v-1004q0 -247 151.5 -390.5t438.5 -145.5h432v117zM943 2042l-405 -289l33 -63q469 157 481 170q6 4 -109 182z" />
    <glyph glyph-name="Ecircumflex" unicode="&#xca;" horiz-adv-x="1169" 
d="M1134 113h-432q-64 0 -127.5 16t-113.5 58t-81.5 110t-31.5 170v309h559v94h-559v228q0 84 2 143t15 97t41 58.5t77 26.5h653v113h-1024v-1004q0 -247 151.5 -390.5t438.5 -145.5h432v117zM955 1669l-301 375l-295 -371l15 -35l284 172l283 -176z" />
    <glyph glyph-name="Igrave" unicode="&#xcc;" horiz-adv-x="409" 
d="M399 1536h-236v-1538h236v1538zM133 2036q-115 -176 -107 -183q4 -10 479 -170l31 64z" />
    <glyph glyph-name="Iacute" unicode="&#xcd;" horiz-adv-x="409" 
d="M107 1534h236v-1536h-236v1536zM375 2034q115 -176 107 -183q-4 -10 -479 -170l-31 64z" />
    <glyph glyph-name="Ograve" unicode="&#xd2;" horiz-adv-x="1396" 
d="M1321 999q0 125 -39 224.5t-115 169t-184.5 107.5t-245.5 38q-293 0 -447.5 -144.5t-154.5 -394.5v-460q0 -250 154.5 -394.5t447.5 -144.5q137 0 245.5 38t184.5 107.5t115 169t39 224.5v460zM371 475v588q0 102 31.5 171t82.5 109.5t114.5 58t127.5 15.5
q63 2 127.5 -14.5t116 -57t83 -110.5t31.5 -172v-588q0 -102 -31.5 -172t-83 -110.5t-116 -57t-127.5 -14.5q-64 -2 -127.5 15.5t-114.5 58.5t-82.5 109.5t-31.5 170.5zM561 2046q-115 -176 -107 -182q5 -11 480 -170l30 63z" />
    <glyph glyph-name="Oacute" unicode="&#xd3;" horiz-adv-x="1396" 
d="M1321 999q0 125 -39 224.5t-115 169t-184.5 107.5t-245.5 38q-293 0 -447.5 -144.5t-154.5 -394.5v-460q0 -250 154.5 -394.5t447.5 -144.5q137 0 245.5 38t184.5 107.5t115 169t39 224.5v460zM371 475v588q0 102 31.5 171t82.5 109.5t114.5 58t127.5 15.5
q63 2 127.5 -14.5t116 -57t83 -110.5t31.5 -172v-588q0 -102 -31.5 -172t-83 -110.5t-116 -57t-127.5 -14.5q-64 -2 -127.5 15.5t-114.5 58.5t-82.5 109.5t-31.5 170.5zM915 2042l-405 -289l33 -63q469 157 481 170q6 4 -109 182z" />
    <glyph glyph-name="Ocircumflex" unicode="&#xd4;" horiz-adv-x="1396" 
d="M1321 999q0 125 -39 224.5t-115 169t-184.5 107.5t-245.5 38q-293 0 -447.5 -144.5t-154.5 -394.5v-460q0 -250 154.5 -394.5t447.5 -144.5q137 0 245.5 38t184.5 107.5t115 169t39 224.5v460zM371 475v588q0 102 31.5 171t82.5 109.5t114.5 58t127.5 15.5
q63 2 127.5 -14.5t116 -57t83 -110.5t31.5 -172v-588q0 -102 -31.5 -172t-83 -110.5t-116 -57t-127.5 -14.5q-64 -2 -127.5 15.5t-114.5 58.5t-82.5 109.5t-31.5 170.5zM1034 1669l-301 375l-295 -371l14 -35l285 172l283 -176z" />
    <glyph glyph-name="Otilde" unicode="&#xd5;" horiz-adv-x="1396" 
d="M1321 999q0 125 -39 224.5t-115 169t-184.5 107.5t-245.5 38q-293 0 -447.5 -144.5t-154.5 -394.5v-460q0 -250 154.5 -394.5t447.5 -144.5q137 0 245.5 38t184.5 107.5t115 169t39 224.5v460zM371 475v588q0 102 31.5 171t82.5 109.5t114.5 58t127.5 15.5
q63 2 127.5 -14.5t116 -57t83 -110.5t31.5 -172v-588q0 -102 -31.5 -172t-83 -110.5t-116 -57t-127.5 -14.5q-64 -2 -127.5 15.5t-114.5 58.5t-82.5 109.5t-31.5 170.5zM1067 1890l-31 35q-27 -31 -65.5 -58.5t-77.5 -27.5q-25 0 -55.5 13.5t-71.5 37.5q-78 52 -137 52
q-166 0 -236 -226q6 -6 11 -7t9.5 -2t9.5 -4t9 -13q31 53 68.5 74.5t70.5 21.5q29 0 66 -14.5t84 -40.5q92 -54 149 -54q119 0 197 213z" />
    <glyph glyph-name="Ugrave" unicode="&#xd9;" horiz-adv-x="1366" 
d="M1062 475q0 -102 -31.5 -170.5t-83 -109.5t-115 -58.5t-126.5 -15.5q-64 -2 -128.5 14.5t-115.5 57t-82.5 110.5t-31.5 172v1059h-236v-995q0 -125 39 -224.5t114.5 -169t183 -107.5t247.5 -38q293 0 447.5 144.5t154.5 394.5v995h-236v-1059zM526 2042
q-115 -178 -109 -182q12 -13 481 -170l33 63z" />
    <glyph glyph-name="Uacute" unicode="&#xda;" horiz-adv-x="1366" 
d="M1062 475q0 -102 -31.5 -170.5t-83 -109.5t-115 -58.5t-126.5 -15.5q-64 -2 -128.5 14.5t-115.5 57t-82.5 110.5t-31.5 172v1059h-236v-995q0 -125 39 -224.5t114.5 -169t183 -107.5t247.5 -38q293 0 447.5 144.5t154.5 394.5v995h-236v-1059zM982 2042l-405 -289l33 -63
q469 157 481 170q6 4 -109 182z" />
    <glyph glyph-name="Yacute" unicode="&#xdd;" horiz-adv-x="1366" 
d="M338 1001v535h-236v-471q0 -223 123 -362.5t356 -170.5v-534h236v534q225 29 348 169.5t123 363.5v471h-236v-535q0 -102 -31.5 -171.5t-83 -110.5t-116 -57.5t-127.5 -14.5q-64 -2 -127.5 15.5t-114.5 58.5t-82.5 109.5t-31.5 170.5zM999 2042l-405 -289l32 -63
q469 157 482 170q6 4 -109 182z" />
    <glyph glyph-name="agrave" unicode="&#xe0;" 
d="M1146 6v279v147v62v16q-4 119 -34.5 213t-94 160.5t-163 102.5t-240.5 36q-135 0 -229.5 -36t-155.5 -102.5t-92 -160.5t-35 -213q4 -119 35 -213t92 -160.5t155.5 -101.5t229.5 -35q45 0 85 9t75 33t68.5 64.5t68.5 104.5l-2 -205v-6h237v6zM911 543q0 -205 -79 -315.5
t-208 -106.5q-63 -2 -116.5 14.5t-91.5 57t-58 110.5t-20 172v72q0 102 20 171.5t58 110.5t91.5 57.5t116.5 14.5q64 2 117 -15.5t91 -58.5t58.5 -109.5t20.5 -170.5v-4zM456 1534q-114 -176 -106 -182q4 -11 479 -170l31 63z" />
    <glyph glyph-name="aacute" unicode="&#xe1;" 
d="M1146 6v279v147v62v16q-4 119 -34.5 213t-94 160.5t-163 102.5t-240.5 36q-135 0 -229.5 -36t-155.5 -102.5t-92 -160.5t-35 -213q4 -119 35 -213t92 -160.5t155.5 -101.5t229.5 -35q45 0 85 9t75 33t68.5 64.5t68.5 104.5l-2 -205v-6h237v6zM911 543q0 -205 -79 -315.5
t-208 -106.5q-63 -2 -116.5 14.5t-91.5 57t-58 110.5t-20 172v72q0 102 20 171.5t58 110.5t91.5 57.5t116.5 14.5q64 2 117 -15.5t91 -58.5t58.5 -109.5t20.5 -170.5v-4zM864 1530l-406 -289l33 -63q469 157 481 170q7 4 -108 182z" />
    <glyph glyph-name="acircumflex" unicode="&#xe2;" 
d="M1146 6v279v147v62v16q-4 119 -34.5 213t-94 160.5t-163 102.5t-240.5 36q-135 0 -229.5 -36t-155.5 -102.5t-92 -160.5t-35 -213q4 -119 35 -213t92 -160.5t155.5 -101.5t229.5 -35q45 0 85 9t75 33t68.5 64.5t68.5 104.5l-2 -205v-6h237v6zM911 543q0 -205 -79 -315.5
t-208 -106.5q-63 -2 -116.5 14.5t-91.5 57t-58 110.5t-20 172v72q0 102 20 171.5t58 110.5t91.5 57.5t116.5 14.5q64 2 117 -15.5t91 -58.5t58.5 -109.5t20.5 -170.5v-4zM931 1157l-301 375l-295 -371l15 -35l284 172l283 -176z" />
    <glyph glyph-name="atilde" unicode="&#xe3;" 
d="M1146 6v279v147v62v16q-4 119 -34.5 213t-94 160.5t-163 102.5t-240.5 36q-135 0 -229.5 -36t-155.5 -102.5t-92 -160.5t-35 -213q4 -119 35 -213t92 -160.5t155.5 -101.5t229.5 -35q45 0 85 9t75 33t68.5 64.5t68.5 104.5l-2 -205v-6h237v6zM911 543q0 -205 -79 -315.5
t-208 -106.5q-63 -2 -116.5 14.5t-91.5 57t-58 110.5t-20 172v72q0 102 20 171.5t58 110.5t91.5 57.5t116.5 14.5q64 2 117 -15.5t91 -58.5t58.5 -109.5t20.5 -170.5v-4zM972 1378l-30 35q-27 -31 -66 -58.5t-78 -27.5q-24 0 -55 13.5t-72 37.5q-77 52 -137 52
q-166 0 -235 -226q6 -6 11 -7t9 -2t9 -4t10 -13q30 53 68 74.5t71 21.5q28 0 65 -14.5t84 -40.5q92 -54 150 -54q119 0 196 213z" />
    <glyph glyph-name="egrave" unicode="&#xe8;" horiz-adv-x="1153" 
d="M1107 446q0 13 1 32.5t1 29.5q4 100 -30.5 191.5t-100 160t-158 108.5t-204.5 42q-107 -4 -197 -45t-156.5 -110t-103.5 -159t-37 -192q4 -111 44 -203t107.5 -158.5t158.5 -103.5t200 -37q72 -4 137.5 20.5t128.5 53.5l-16 67q-129 -34 -205 -34q-92 0 -153.5 32.5
t-99.5 81.5t-55.5 108.5t-23.5 114.5h762zM607 893h4q113 0 184.5 -76t88.5 -244h-537q6 62 24.5 119.5t50.5 101.5t78 71.5t107 27.5zM437 1534q-114 -176 -106 -182q4 -11 479 -170l31 63z" />
    <glyph glyph-name="eacute" unicode="&#xe9;" horiz-adv-x="1153" 
d="M1107 446q0 13 1 32.5t1 29.5q4 100 -30.5 191.5t-100 160t-158 108.5t-204.5 42q-107 -4 -197 -45t-156.5 -110t-103.5 -159t-37 -192q4 -111 44 -203t107.5 -158.5t158.5 -103.5t200 -37q72 -4 137.5 20.5t128.5 53.5l-16 67q-129 -34 -205 -34q-92 0 -153.5 32.5
t-99.5 81.5t-55.5 108.5t-23.5 114.5h762zM607 893h4q113 0 184.5 -76t88.5 -244h-537q6 62 24.5 119.5t50.5 101.5t78 71.5t107 27.5zM820 1530l-405 -289l33 -63q469 157 481 170q6 4 -109 182z" />
    <glyph glyph-name="ecircumflex" unicode="&#xea;" horiz-adv-x="1153" 
d="M1107 446q0 13 1 32.5t1 29.5q4 100 -30.5 191.5t-100 160t-158 108.5t-204.5 42q-107 -4 -197 -45t-156.5 -110t-103.5 -159t-37 -192q4 -111 44 -203t107.5 -158.5t158.5 -103.5t200 -37q72 -4 137.5 20.5t128.5 53.5l-16 67q-129 -34 -205 -34q-92 0 -153.5 32.5
t-99.5 81.5t-55.5 108.5t-23.5 114.5h762zM607 893h4q113 0 184.5 -76t88.5 -244h-537q6 62 24.5 119.5t50.5 101.5t78 71.5t107 27.5zM925 1157l-301 375l-295 -371l14 -35l285 172l282 -176z" />
    <glyph glyph-name="igrave" unicode="&#xec;" horiz-adv-x="479" 
d="M438 1030h-236v-1028h236v1028zM170 1481q-115 -176 -107 -183q4 -10 479 -170l31 64z" />
    <glyph glyph-name="iacute" unicode="&#xed;" horiz-adv-x="479" 
d="M437 1030h-235v-1028h235v1028zM481 1477l-406 -289l33 -64q469 158 481 170q6 4 -108 183z" />
    <glyph glyph-name="ograve" unicode="&#xf2;" 
d="M648 1022q-141 0 -241.5 -43t-164 -113.5t-94 -163t-32.5 -192.5q4 -102 35 -194.5t94.5 -163t162.5 -111.5t240 -41q136 0 231 41t156.5 109.5t91 162t33.5 197.5q-4 100 -34.5 192.5t-92 163t-155.5 113.5t-230 43zM352 475v72q0 102 20 170.5t58 109.5t91.5 58.5
t116.5 15.5q64 2 117 -14.5t91 -57.5t58.5 -110.5t20.5 -171.5v-72q0 -102 -20.5 -172t-58.5 -110.5t-91 -57t-117 -14.5q-63 -2 -116.5 15.5t-91.5 58.5t-58 109.5t-20 170.5zM456 1534q-115 -176 -107 -182q5 -11 480 -170l30 63z" />
    <glyph glyph-name="oacute" unicode="&#xf3;" 
d="M648 1022q-141 0 -241.5 -43t-164 -113.5t-94 -163t-32.5 -192.5q4 -102 35 -194.5t94.5 -163t162.5 -111.5t240 -41q136 0 231 41t156.5 109.5t91 162t33.5 197.5q-4 100 -34.5 192.5t-92 163t-155.5 113.5t-230 43zM352 475v72q0 102 20 170.5t58 109.5t91.5 58.5
t116.5 15.5q64 2 117 -14.5t91 -57.5t58.5 -110.5t20.5 -171.5v-72q0 -102 -20.5 -172t-58.5 -110.5t-91 -57t-117 -14.5q-63 -2 -116.5 15.5t-91.5 58.5t-58 109.5t-20 170.5zM864 1530l-406 -289l33 -63q469 157 481 170q6 4 -108 182z" />
    <glyph glyph-name="ocircumflex" unicode="&#xf4;" 
d="M648 1022q-141 0 -241.5 -43t-164 -113.5t-94 -163t-32.5 -192.5q4 -102 35 -194.5t94.5 -163t162.5 -111.5t240 -41q136 0 231 41t156.5 109.5t91 162t33.5 197.5q-4 100 -34.5 192.5t-92 163t-155.5 113.5t-230 43zM352 475v72q0 102 20 170.5t58 109.5t91.5 58.5
t116.5 15.5q64 2 117 -14.5t91 -57.5t58.5 -110.5t20.5 -171.5v-72q0 -102 -20.5 -172t-58.5 -110.5t-91 -57t-117 -14.5q-63 -2 -116.5 15.5t-91.5 58.5t-58 109.5t-20 170.5zM931 1157l-301 375l-295 -371l14 -35l285 172l283 -176z" />
    <glyph glyph-name="otilde" unicode="&#xf5;" 
d="M648 1022q-141 0 -241.5 -43t-164 -113.5t-94 -163t-32.5 -192.5q4 -102 35 -194.5t94.5 -163t162.5 -111.5t240 -41q136 0 231 41t156.5 109.5t91 162t33.5 197.5q-4 100 -34.5 192.5t-92 163t-155.5 113.5t-230 43zM352 475v72q0 102 20 170.5t58 109.5t91.5 58.5
t116.5 15.5q64 2 117 -14.5t91 -57.5t58.5 -110.5t20.5 -171.5v-72q0 -102 -20.5 -172t-58.5 -110.5t-91 -57t-117 -14.5q-63 -2 -116.5 15.5t-91.5 58.5t-58 109.5t-20 170.5zM972 1378l-31 35q-26 -31 -65 -58.5t-78 -27.5q-25 0 -55.5 13.5t-71.5 37.5q-78 52 -137 52
q-166 0 -236 -226q6 -6 11.5 -7t9.5 -2t9 -4t9 -13q31 53 69 74.5t70 21.5q29 0 66 -14.5t84 -40.5q92 -54 149 -54q119 0 197 213z" />
    <glyph glyph-name="divide" unicode="&#xf7;" horiz-adv-x="1706" 
 />
    <glyph glyph-name="glyph216" unicode="&#xf9;" horiz-adv-x="1196" 
d="M348 475v551h-236v-487q0 -125 27.5 -224.5t88 -169t157 -107.5t233.5 -38q248 0 380 144.5t132 394.5v487h-236v-551q0 -102 -20.5 -172t-58 -110.5t-91 -57t-116.5 -14.5q-64 -2 -113 15.5t-82 58.5t-49 109.5t-16 170.5zM388 1534q-114 -176 -106 -182q4 -11 479 -170
l31 63z" />
    <glyph glyph-name="glyph217" unicode="&#xfa;" horiz-adv-x="1196" 
d="M348 475v551h-236v-487q0 -125 27.5 -224.5t88 -169t157 -107.5t233.5 -38q248 0 380 144.5t132 394.5v487h-236v-551q0 -102 -20.5 -172t-58 -110.5t-91 -57t-116.5 -14.5q-64 -2 -113 15.5t-82 58.5t-49 109.5t-16 170.5zM849 1530l-405 -289l33 -63q469 157 481 170
q6 4 -109 182z" />
    <glyph glyph-name="glyph234" unicode="&#xfd;" horiz-adv-x="1196" 
d="M989 -223q-5 47 -18 82t-37.5 61.5t-59.5 50t-82 47.5q27 11 51.5 16t48.5 21q119 64 178.5 187t59.5 297v489h-236v-553q0 -102 -18.5 -172t-53 -110.5t-85 -57t-113.5 -14.5q-63 -2 -114.5 15.5t-87.5 58.5t-55 109.5t-19 170.5v553h-236v-489q0 -209 85 -345.5
t271 -177.5q47 -10 94.5 -20t87.5 -30.5t66.5 -53.5t34.5 -86v-47t1 -78t1 -76t-2 -41h235q0 -6 1.5 13.5t1.5 50.5v65v64zM853 1530l-405 -289l33 -63q469 157 481 170q6 4 -109 182z" />
    <glyph glyph-name="Abreve" unicode="&#x102;" horiz-adv-x="1366" 
d="M352 682h714v-242v-207v-155q0 -62 -2 -78h240l-2 997q0 125 -39 224.5t-114.5 169t-184.5 107.5t-246 38q-293 0 -447.5 -144.5t-154.5 -394.5v-424v-303q0 -120 -1 -187t-3 -83h242zM352 1061q0 102 31.5 170.5t83 109.5t114.5 58.5t127 15.5q63 2 127.5 -14.5t116 -57
t83 -110.5t31.5 -172v-285h-714v285zM699 1723q-44 0 -70.5 11.5t-39.5 30.5t-19.5 42.5t-8.5 49.5h-158q-5 -42 10.5 -82t53.5 -71t96 -50t139 -18q87 2 147 21t97 50.5t52.5 70.5t15.5 79h-147q-5 -24 -13 -47.5t-26 -42.5t-49.5 -31.5t-79.5 -12.5z" />
    <glyph glyph-name="abreve" unicode="&#x103;" 
d="M1146 6v279v147v62v16q-4 119 -34.5 213t-94 160.5t-163 102.5t-240.5 36q-135 0 -229.5 -36t-155.5 -102.5t-92 -160.5t-35 -213q4 -119 35 -213t92 -160.5t155.5 -101.5t229.5 -35q45 0 85 9t75 33t68.5 64.5t68.5 104.5l-2 -205v-6h237v6zM911 543q0 -205 -79 -315.5
t-208 -106.5q-63 -2 -116.5 14.5t-91.5 57t-58 110.5t-20 172v72q0 102 20 171.5t58 110.5t91.5 57.5t116.5 14.5q64 2 117 -15.5t91 -58.5t58.5 -109.5t20.5 -170.5v-4zM629 1221q-45 0 -71 11.5t-39 30.5t-19.5 42.5t-9.5 49.5h-157q-5 -42 10.5 -82t53.5 -71t95.5 -50
t139.5 -18q86 2 146.5 21t97 50.5t52.5 70.5t16 79h-147q-5 -24 -13 -47.5t-26.5 -42.5t-50 -31.5t-78.5 -12.5z" />
    <glyph glyph-name="Ccaron" unicode="&#x10c;" horiz-adv-x="1274" 
 />
    <glyph glyph-name="ccaron" unicode="&#x10d;" horiz-adv-x="922" 
 />
    <glyph glyph-name="Dslash" unicode="&#x110;" horiz-adv-x="1435" 
d="M51 844v-154h154v-690h272h156h77h41q129 -4 242 56.5t198 166t134 250.5t49 311q0 174 -50 313.5t-145.5 237t-234.5 149.5t-320 52h-419v-692h-154zM561 1397q283 0 427 -164t144 -475q0 -72 -4 -153t-24.5 -159.5t-61.5 -148.5t-112.5 -116t-180 -62.5t-266.5 10.5
q-33 33 -38 102.5t-5 188.5v270h123v154h-123v358q0 115 23 168q12 16 35.5 21.5t62.5 5.5z" />
    <glyph glyph-name="dcroat" unicode="&#x111;" 
d="M921 547v-72q0 -102 -20.5 -170.5t-58.5 -109.5t-91.5 -58.5t-116.5 -15.5q-64 -2 -117 14.5t-91 57t-58.5 110.5t-20.5 172v72q0 102 20.5 174t58.5 116t91 62.5t117 15.5q63 3 116.5 -16.5t91.5 -63.5t58.5 -115t20.5 -173zM1164 1205v150h-8v183h-235l-1 -183h-258
v-150h257l-2 -240q-60 28 -130.5 49.5t-162.5 21.5q-136 0 -230 -37.5t-155.5 -106.5t-92 -165t-34.5 -215q4 -119 34.5 -213t92 -160.5t155.5 -102.5t230 -36q141 0 240.5 36t163 102.5t94 160.5t34.5 213v693h8z" />
    <glyph glyph-name="Itilde" unicode="&#x128;" horiz-adv-x="409" 
d="M347 1536h-235v-1538h235v1538zM612 1890l-31 35q-27 -31 -65.5 -58.5t-77.5 -27.5q-25 0 -55.5 13.5t-71.5 37.5q-78 52 -137 52q-166 0 -236 -226q6 -6 11 -7t9.5 -2t9.5 -4t9 -13q31 53 68.5 74.5t70.5 21.5q29 0 66 -14.5t84 -40.5q92 -54 149 -54q119 0 197 213z
" />
    <glyph glyph-name="itilde" unicode="&#x129;" horiz-adv-x="479" 
d="M386 1030h-235v-1028h235v1028zM630 1378l-31 35q-27 -31 -65.5 -58.5t-77.5 -27.5q-25 0 -55.5 13.5t-71.5 37.5q-78 52 -137 52q-166 0 -236 -226q6 -6 11 -7t9.5 -2t9.5 -4t9 -13q31 53 68.5 74.5t70.5 21.5q29 0 66 -14.5t84 -40.5q92 -54 149 -54q119 0 197 213z
" />
    <glyph glyph-name="Utilde" unicode="&#x168;" horiz-adv-x="1359" 
d="M1062 475q0 -102 -31.5 -170.5t-83 -109.5t-115 -58.5t-126.5 -15.5q-64 -2 -128.5 14.5t-115.5 57t-82.5 110.5t-31.5 172v1059h-236v-995q0 -125 39 -224.5t114.5 -169t183 -107.5t247.5 -38q293 0 447.5 144.5t154.5 394.5v995h-236v-1059zM1066 1890l-31 35
q-26 -31 -65 -58.5t-78 -27.5q-24 0 -55 13.5t-72 37.5q-78 52 -137 52q-166 0 -236 -226q7 -6 12 -7t9 -2t9 -4t9 -13q31 53 69 74.5t71 21.5q28 0 65 -14.5t84 -40.5q92 -54 150 -54q118 0 196 213z" />
    <glyph glyph-name="utilde" unicode="&#x169;" horiz-adv-x="1191" 
d="M348 475v551h-236v-487q0 -125 27.5 -224.5t88 -169t157 -107.5t233.5 -38q248 0 380 144.5t132 394.5v487h-236v-551q0 -102 -20.5 -172t-58 -110.5t-91 -57t-116.5 -14.5q-64 -2 -113 15.5t-82 58.5t-49 109.5t-16 170.5zM1011 1378l-31 35q-26 -31 -65 -58.5
t-78 -27.5q-24 0 -55 13.5t-72 37.5q-78 52 -137 52q-166 0 -236 -226q7 -6 12 -7t9 -2t9 -4t9 -13q31 53 69 74.5t71 21.5q28 0 65 -14.5t84 -40.5q92 -54 150 -54q118 0 196 213z" />
    <glyph glyph-name="Ohorn" unicode="&#x1a0;" horiz-adv-x="1359" 
d="M347 475v588q0 102 32 171t83 109.5t114.5 58t127.5 15.5q63 2 127.5 -14.5t115.5 -57t83 -110.5t32 -172v-588q0 -102 -32 -172t-83 -110.5t-115.5 -57t-127.5 -14.5q-64 -2 -127.5 15.5t-114.5 58.5t-83 109.5t-32 170.5zM1102 1450q46 27 75.5 55.5t45.5 58.5t25 65
q5 16 4.5 36.5t-9.5 40t-26 35.5t-46 24q-46 12 -77 -11.5t-44 -69.5q-5 -16 -2 -34t14.5 -35.5t32 -32t53.5 -21.5q-2 -25 -23 -48.5t-47 -41.5q-11 -8 -22 -15q-45 26 -96 44q-109 38 -246 38q-293 0 -447.5 -144.5t-154.5 -394.5v-460q0 -250 154.5 -394.5t447.5 -144.5
q137 0 245.5 38t184.5 107.5t114.5 169t38.5 224.5v460q0 125 -38.5 224.5t-114.5 169.5q-28 25 -60 46q9 5 18 11z" />
    <glyph glyph-name="ohorn" unicode="&#x1a1;" horiz-adv-x="1218" 
d="M348 475v72q0 102 20 170.5t58 109.5t91.5 58.5t116.5 15.5q64 2 117 -14.5t91 -57.5t58.5 -110.5t20.5 -171.5v-72q0 -102 -20.5 -172t-58.5 -110.5t-91 -57t-117 -14.5q-63 -2 -116.5 15.5t-91.5 58.5t-58 109.5t-20 170.5zM1048 944q29 29 45 58.5t27 64.5
q4 16 3 36.5t-9.5 40t-26 35t-45.5 23.5q-47 12 -78 -11.5t-43 -68.5q-6 -16 -3 -34.5t14 -36t32.5 -31.5t52.5 -21q-2 -26 -22 -49q-13 -14 -28 -26q-42 31 -93 55q-94 43 -230 43q-141 0 -241.5 -43t-164 -113.5t-94 -163t-32.5 -192.5q4 -102 35 -194.5t94.5 -163
t162.5 -111.5t240 -41q136 0 231 41t156.5 109.5t91 162t33.5 197.5q-4 100 -34.5 192.5t-91.5 162.5q-17 19 -36 36q32 21 54 43z" />
    <glyph glyph-name="Uhorn" unicode="&#x1af;" horiz-adv-x="1359" 
d="M1062 475q0 -102 -31.5 -170.5t-83 -109.5t-115 -58.5t-126.5 -15.5q-64 -2 -128.5 14.5t-115.5 57t-82.5 110.5t-31.5 172v1059h-236v-995q0 -125 39 -224.5t114.5 -169t183 -107.5t247.5 -38q293 0 447.5 144.5t154.5 394.5v995h-236v-1059zM1339 1561
q-2 -25 -23 -48.5t-47.5 -42t-51.5 -31t-31 -17.5q-16 -8 -12.5 -19.5l3.5 -11.5q70 31 116.5 58.5t75.5 56t45 58.5t26 65q4 16 4 36.5t-9.5 40t-26.5 35.5t-45 24q-46 12 -77.5 -11.5t-44.5 -69.5q-4 -16 -1.5 -34t14 -35.5t32.5 -32t53 -21.5z" />
    <glyph glyph-name="uhorn" unicode="&#x1b0;" horiz-adv-x="1191" 
d="M1163 888q46 27 75.5 55.5t45.5 58.5t25 65q5 16 4.5 36.5t-9.5 40t-26 35.5t-46 24q-46 12 -77 -11.5t-44 -69.5q-5 -16 -2 -34t14.5 -35.5t32 -32t53.5 -21.5q-2 -25 -23 -48.5t-47 -41.5q-5 -4 -10 -7v124h-235v-551q0 -102 -20.5 -172t-58.5 -110.5t-91 -57
t-117 -14.5q-63 -2 -112.5 15.5t-82 58.5t-49 109.5t-16.5 170.5v551h-235v-487q0 -125 27.5 -224.5t88 -169t156.5 -107.5t233 -38q248 0 380 144.5t132 394.5v329q18 10 34 20z" />
    <glyph glyph-name="uni1EA0" unicode="&#x1ea0;" horiz-adv-x="1366" 
d="M352 682h714v-242v-207v-155q0 -62 -2 -78h240l-2 997q0 125 -39 224.5t-114.5 169t-184.5 107.5t-246 38q-293 0 -447.5 -144.5t-154.5 -394.5v-424v-303q0 -120 -1 -187t-3 -83h244zM352 1061q0 102 31.5 170.5t83 109.5t114.5 58.5t127 15.5q63 2 127.5 -14.5t116 -57
t83 -110.5t31.5 -172v-285h-714v285zM580 -260q0 -55 37 -91t88 -36q55 0 93 36t38 91q0 52 -39 88.5t-92 36.5q-49 0 -87 -36.5t-38 -88.5z" />
    <glyph glyph-name="uni1EA1" unicode="&#x1ea1;" 
d="M1156 6v279v147v62v16q-4 119 -34.5 213t-94 160.5t-163 102.5t-240.5 36q-135 0 -229.5 -36t-155.5 -102.5t-92 -160.5t-35 -213q4 -119 35 -213t92 -160.5t155.5 -101.5t229.5 -35q45 0 85 9t75 33t68.5 64.5t68.5 104.5l-2 -205v-6h237v6zM921 543q0 -205 -79 -315.5
t-208 -106.5q-63 -2 -116.5 14.5t-91.5 57t-58 110.5t-20 172v72q0 102 20 171.5t58 110.5t91.5 57.5t116.5 14.5q64 2 117 -15.5t91 -58.5t58.5 -109.5t20.5 -170.5v-4zM496 -260q0 -55 37 -91t88 -36q55 0 93 36t38 91q0 52 -39 88.5t-92 36.5q-49 0 -87 -36.5t-38 -88.5z
" />
    <glyph glyph-name="uni1EA2" unicode="&#x1ea2;" horiz-adv-x="1366" 
d="M352 682h714v-242v-207v-155q0 -62 -2 -78h240l-2 997q0 125 -39 224.5t-114.5 169t-184.5 107.5t-246 38q-293 0 -447.5 -144.5t-154.5 -394.5v-424v-303q0 -120 -1 -187t-3 -83h244zM352 1061q0 102 31.5 170.5t83 109.5t114.5 58.5t127 15.5q63 2 127.5 -14.5t116 -57
t83 -110.5t31.5 -172v-285h-714v285zM808.5 1746.5q-12.5 -7.5 -19.5 -15.5t-11.5 -22.5t-6.5 -40.5v-48h-133v69q0 19 6 40t18 40.5t29.5 36.5t39.5 24l30 16q16 6 25 14t15 18.5t9 22t3 20.5q1 21 -5.5 34.5t-15.5 20.5t-22.5 10.5t-27.5 3.5q-38 -4 -75 -11t-115 -43
q-4 43 -6 54.5t-7 32.5q65 20 112.5 30t98.5 11q47 0 82.5 -12t60 -33.5t36 -50t13.5 -61.5q1 -26 -11.5 -49.5t-29 -42t-33.5 -31.5t-25 -18q-22 -12 -34.5 -19.5z" />
    <glyph glyph-name="uni1EA3" unicode="&#x1ea3;" 
d="M1156 6v279v147v62v16q-4 119 -34.5 213t-94 160.5t-163 102.5t-240.5 36q-135 0 -229.5 -36t-155.5 -102.5t-92 -160.5t-35 -213q4 -119 35 -213t92 -160.5t155.5 -101.5t229.5 -35q45 0 85 9t75 33t68.5 64.5t68.5 104.5l-2 -205v-6h237v6zM921 543q0 -205 -79 -315.5
t-208 -106.5q-63 -2 -116.5 14.5t-91.5 57t-58 110.5t-20 172v72q0 102 20 171.5t58 110.5t91.5 57.5t116.5 14.5q64 2 117 -15.5t91 -58.5t58.5 -109.5t20.5 -170.5v-4zM793 1254q8 5 25 18t33.5 31.5t29 42t11.5 49.5q-2 33 -13.5 61.5t-36 50t-60 33.5t-82.5 12
q-51 -1 -98.5 -11t-112.5 -30q5 -21 7 -32.5t6 -54.5q78 36 115 43t75 11q14 0 27.5 -3.5t22.5 -10.5t15.5 -20.5t5.5 -34.5q0 -9 -3 -20.5t-9 -22t-15 -18.5t-25 -14l-30 -16q-22 -7 -39.5 -24t-29.5 -36.5t-18 -40.5t-6 -40v-69h133v48q2 26 6.5 40.5t11.5 22.5t19.5 15.5
t34.5 19.5z" />
    <glyph glyph-name="uni1EA4" unicode="&#x1ea4;" horiz-adv-x="1366" 
d="M352 682h714v-242v-207v-155q0 -62 -2 -78h240l-2 997q0 125 -39 224.5t-114.5 169t-184.5 107.5t-246 38q-293 0 -447.5 -144.5t-154.5 -394.5v-424v-303q0 -120 -1 -187t-3 -83h244zM352 1061q0 102 31.5 170.5t83 109.5t114.5 58.5t127 15.5q63 2 127.5 -14.5t116 -57
t83 -110.5t31.5 -172v-285h-714v285zM927 2404l-405 -289l32 -63q469 157 482 170q6 4 -109 182zM1001 1669l-301 375l-295 -371l14 -35l285 172l282 -176z" />
    <glyph glyph-name="uni1EA5" unicode="&#x1ea5;" 
d="M1146 6v279v147v62v16q-4 119 -34.5 213t-94 160.5t-163 102.5t-240.5 36q-135 0 -229.5 -36t-155.5 -102.5t-92 -160.5t-35 -213q4 -119 35 -213t92 -160.5t155.5 -101.5t229.5 -35q45 0 85 9t75 33t68.5 64.5t68.5 104.5l-2 -205v-6h237v6zM911 543q0 -205 -79 -315.5
t-208 -106.5q-63 -2 -116.5 14.5t-91.5 57t-58 110.5t-20 172v72q0 102 20 171.5t58 110.5t91.5 57.5t116.5 14.5q64 2 117 -15.5t91 -58.5t58.5 -109.5t20.5 -170.5v-4zM824 1892l-406 -289l33 -63q469 157 481 170q7 4 -108 182zM931 1157l-301 375l-295 -371l15 -35
l284 172l283 -176z" />
    <glyph glyph-name="uni1EA6" unicode="&#x1ea6;" horiz-adv-x="1366" 
d="M352 682h714v-242v-207v-155q0 -62 -2 -78h240l-2 997q0 125 -39 224.5t-114.5 169t-184.5 107.5t-246 38q-293 0 -447.5 -144.5t-154.5 -394.5v-424v-303q0 -120 -1 -187t-3 -83h244zM352 1061q0 102 31.5 170.5t83 109.5t114.5 58.5t127 15.5q63 2 127.5 -14.5t116 -57
t83 -110.5t31.5 -172v-285h-714v285zM524 2393q-115 -178 -109 -182q12 -13 481 -170l33 63zM1001 1669l-301 375l-295 -371l14 -35l285 172l282 -176z" />
    <glyph glyph-name="uni1EA7" unicode="&#x1ea7;" 
d="M1146 6v279v147v62v16q-4 119 -34.5 213t-94 160.5t-163 102.5t-240.5 36q-135 0 -229.5 -36t-155.5 -102.5t-92 -160.5t-35 -213q4 -119 35 -213t92 -160.5t155.5 -101.5t229.5 -35q45 0 85 9t75 33t68.5 64.5t68.5 104.5l-2 -205v-6h237v6zM911 543q0 -205 -79 -315.5
t-208 -106.5q-63 -2 -116.5 14.5t-91.5 57t-58 110.5t-20 172v72q0 102 20 171.5t58 110.5t91.5 57.5t116.5 14.5q64 2 117 -15.5t91 -58.5t58.5 -109.5t20.5 -170.5v-4zM456 1865q-114 -176 -106 -182q4 -11 479 -170l31 63zM931 1157l-301 375l-295 -371l15 -35l284 172
l283 -176z" />
    <glyph glyph-name="uni1EA8" unicode="&#x1ea8;" horiz-adv-x="1366" 
d="M352 682h714v-242v-207v-155q0 -62 -2 -78h240l-2 997q0 125 -39 224.5t-114.5 169t-184.5 107.5t-246 38q-293 0 -447.5 -144.5t-154.5 -394.5v-424v-303q0 -120 -1 -187t-3 -83h242zM352 1061q0 102 31.5 170.5t83 109.5t114.5 58.5t127 15.5q63 2 127.5 -14.5t116 -57
t83 -110.5t31.5 -172v-285h-714v285zM1001 1669l-301 375l-295 -371l14 -35l285 172l282 -176zM1084 2047q8 5 25 18t33.5 31.5t29 42t11.5 49.5q-2 33 -13.5 61.5t-36 50t-60 33.5t-82.5 12q-51 -1 -98.5 -11t-112.5 -30q5 -21 7 -32.5t6 -54.5q78 36 115 43t75 11
q14 0 27.5 -3.5t22.5 -10.5t15.5 -20.5t5.5 -34.5q0 -9 -3 -20.5t-9 -22t-15 -18.5t-25 -14l-30 -16q-22 -7 -39.5 -24t-29.5 -36.5t-18 -40.5t-6 -40v-69h133v48q2 26 6.5 40.5t11.5 22.5t19.5 15.5t34.5 19.5z" />
    <glyph glyph-name="uni1EA9" unicode="&#x1ea9;" 
d="M1156 6v279v147v62v16q-4 119 -34.5 213t-94 160.5t-163 102.5t-240.5 36q-135 0 -229.5 -36t-155.5 -102.5t-92 -160.5t-35 -213q4 -119 35 -213t92 -160.5t155.5 -101.5t229.5 -35q45 0 85 9t75 33t68.5 64.5t68.5 104.5l-2 -205v-6h237v6zM921 543q0 -205 -79 -315.5
t-208 -106.5q-63 -2 -116.5 14.5t-91.5 57t-58 110.5t-20 172v72q0 102 20 171.5t58 110.5t91.5 57.5t116.5 14.5q64 2 117 -15.5t91 -58.5t58.5 -109.5t20.5 -170.5v-4zM944 1585q8 5 25 18t33.5 31.5t29 42t11.5 49.5q-2 33 -13.5 61.5t-36 50t-60 33.5t-82.5 12
q-51 -1 -98.5 -11t-112.5 -30q5 -21 7 -32.5t6 -54.5q78 36 115 43t75 11q14 0 27.5 -3.5t22.5 -10.5t15.5 -20.5t5.5 -34.5q0 -9 -3 -20.5t-9 -22t-15 -18.5t-25 -14l-30 -16q-22 -7 -39.5 -24t-29.5 -36.5t-18 -40.5t-6 -40v-69h133v48q2 26 6.5 40.5t11.5 22.5t19.5 15.5
t34.5 19.5zM931 1157l-301 375l-295 -371l15 -35l284 172l283 -176z" />
    <glyph glyph-name="uni1EAA" unicode="&#x1eaa;" horiz-adv-x="1366" 
d="M352 682h714v-242v-207v-155q0 -62 -2 -78h240l-2 997q0 125 -39 224.5t-114.5 169t-184.5 107.5t-246 38q-293 0 -447.5 -144.5t-154.5 -394.5v-424v-303q0 -120 -1 -187t-3 -83h244zM352 1061q0 102 31.5 170.5t83 109.5t114.5 58.5t127 15.5q63 2 127.5 -14.5t116 -57
t83 -110.5t31.5 -172v-285h-714v285zM1134 2221l-31 35q-27 -31 -65.5 -58.5t-77.5 -27.5q-25 0 -55.5 13.5t-71.5 37.5q-78 52 -137 52q-166 0 -236 -226q6 -6 11 -7t9.5 -2t9.5 -4t9 -13q31 53 68.5 74.5t70.5 21.5q29 0 66 -14.5t84 -40.5q92 -54 149 -54q119 0 197 213z
M1001 1669l-301 375l-295 -371l14 -35l285 172l282 -176z" />
    <glyph glyph-name="uni1EAB" unicode="&#x1eab;" 
d="M1146 6v279v147v62v16q-4 119 -34.5 213t-94 160.5t-163 102.5t-240.5 36q-135 0 -229.5 -36t-155.5 -102.5t-92 -160.5t-35 -213q4 -119 35 -213t92 -160.5t155.5 -101.5t229.5 -35q45 0 85 9t75 33t68.5 64.5t68.5 104.5l-2 -205v-6h237v6zM911 543q0 -205 -79 -315.5
t-208 -106.5q-63 -2 -116.5 14.5t-91.5 57t-58 110.5t-20 172v72q0 102 20 171.5t58 110.5t91.5 57.5t116.5 14.5q64 2 117 -15.5t91 -58.5t58.5 -109.5t20.5 -170.5v-4zM1053 1729l-30 35q-27 -31 -66 -58.5t-78 -27.5q-24 0 -55 13.5t-72 37.5q-77 52 -137 52
q-166 0 -235 -226q6 -6 11 -7t9 -2t9 -4t10 -13q30 53 68 74.5t71 21.5q28 0 65 -14.5t84 -40.5q92 -54 150 -54q119 0 196 213zM931 1157l-301 375l-295 -371l15 -35l284 172l283 -176z" />
    <glyph glyph-name="uni1EAC" unicode="&#x1eac;" horiz-adv-x="1366" 
d="M352 682h714v-242v-207v-155q0 -62 -2 -78h240l-2 997q0 125 -39 224.5t-114.5 169t-184.5 107.5t-246 38q-293 0 -447.5 -144.5t-154.5 -394.5v-424v-303q0 -120 -1 -187t-3 -83h244zM352 1061q0 102 31.5 170.5t83 109.5t114.5 58.5t127 15.5q63 2 127.5 -14.5t116 -57
t83 -110.5t31.5 -172v-285h-714v285zM580 -260q0 -55 37 -91t88 -36q55 0 93 36t38 91q0 52 -39 88.5t-92 36.5q-49 0 -87 -36.5t-38 -88.5zM1001 1669l-301 375l-295 -371l14 -35l285 172l282 -176z" />
    <glyph glyph-name="uni1EAD" unicode="&#x1ead;" 
d="M1156 6v279v147v62v16q-4 119 -34.5 213t-94 160.5t-163 102.5t-240.5 36q-135 0 -229.5 -36t-155.5 -102.5t-92 -160.5t-35 -213q4 -119 35 -213t92 -160.5t155.5 -101.5t229.5 -35q45 0 85 9t75 33t68.5 64.5t68.5 104.5l-2 -205v-6h237v6zM921 543q0 -205 -79 -315.5
t-208 -106.5q-63 -2 -116.5 14.5t-91.5 57t-58 110.5t-20 172v72q0 102 20 171.5t58 110.5t91.5 57.5t116.5 14.5q64 2 117 -15.5t91 -58.5t58.5 -109.5t20.5 -170.5v-4zM496 -260q0 -55 37 -91t88 -36q55 0 93 36t38 91q0 52 -39 88.5t-92 36.5q-49 0 -87 -36.5t-38 -88.5z
M931 1157l-301 375l-295 -371l15 -35l284 172l283 -176z" />
    <glyph glyph-name="uni1EAE" unicode="&#x1eae;" horiz-adv-x="1366" 
d="M352 682h714v-242v-207v-155q0 -62 -2 -78h240l-2 997q0 125 -39 224.5t-114.5 169t-184.5 107.5t-246 38q-293 0 -447.5 -144.5t-154.5 -394.5v-424v-303q0 -120 -1 -187t-3 -83h244zM352 1061q0 102 31.5 170.5t83 109.5t114.5 58.5t127 15.5q63 2 127.5 -14.5t116 -57
t83 -110.5t31.5 -172v-285h-714v285zM1007 2223l-405 -289l32 -63q469 157 482 170q6 4 -109 182zM699 1723q-44 0 -70.5 11.5t-39.5 30.5t-19.5 42.5t-8.5 49.5h-158q-5 -42 10.5 -82t53.5 -71t96 -50t139 -18q87 2 147 21t97 50.5t52.5 70.5t15.5 79h-147
q-5 -24 -13 -47.5t-26 -42.5t-49.5 -31.5t-79.5 -12.5z" />
    <glyph glyph-name="uni1EAF" unicode="&#x1eaf;" 
d="M1146 6v279v147v62v16q-4 119 -34.5 213t-94 160.5t-163 102.5t-240.5 36q-135 0 -229.5 -36t-155.5 -102.5t-92 -160.5t-35 -213q4 -119 35 -213t92 -160.5t155.5 -101.5t229.5 -35q45 0 85 9t75 33t68.5 64.5t68.5 104.5l-2 -205v-6h237v6zM911 543q0 -205 -79 -315.5
t-208 -106.5q-63 -2 -116.5 14.5t-91.5 57t-58 110.5t-20 172v72q0 102 20 171.5t58 110.5t91.5 57.5t116.5 14.5q64 2 117 -15.5t91 -58.5t58.5 -109.5t20.5 -170.5v-4zM824 1761l-406 -289l33 -63q469 157 481 170q7 4 -108 182zM629 1221q-45 0 -71 11.5t-39 30.5
t-19.5 42.5t-9.5 49.5h-157q-5 -42 10.5 -82t53.5 -71t95.5 -50t139.5 -18q86 2 146.5 21t97 50.5t52.5 70.5t16 79h-147q-5 -24 -13 -47.5t-26.5 -42.5t-50 -31.5t-78.5 -12.5z" />
    <glyph glyph-name="uni1EB0" unicode="&#x1eb0;" horiz-adv-x="1366" 
d="M352 682h714v-242v-207v-155q0 -62 -2 -78h240l-2 997q0 125 -39 224.5t-114.5 169t-184.5 107.5t-246 38q-293 0 -447.5 -144.5t-154.5 -394.5v-424v-303q0 -120 -1 -187t-3 -83h244zM352 1061q0 102 31.5 170.5t83 109.5t114.5 58.5t127 15.5q63 2 127.5 -14.5t116 -57
t83 -110.5t31.5 -172v-285h-714v285zM433 2213q-115 -178 -109 -182q12 -13 481 -170l33 63zM699 1723q-44 0 -70.5 11.5t-39.5 30.5t-19.5 42.5t-8.5 49.5h-158q-5 -42 10.5 -82t53.5 -71t96 -50t139 -18q87 2 147 21t97 50.5t52.5 70.5t15.5 79h-147q-5 -24 -13 -47.5
t-26 -42.5t-49.5 -31.5t-79.5 -12.5z" />
    <glyph glyph-name="uni1EB1" unicode="&#x1eb1;" 
d="M1146 6v279v147v62v16q-4 119 -34.5 213t-94 160.5t-163 102.5t-240.5 36q-135 0 -229.5 -36t-155.5 -102.5t-92 -160.5t-35 -213q4 -119 35 -213t92 -160.5t155.5 -101.5t229.5 -35q45 0 85 9t75 33t68.5 64.5t68.5 104.5l-2 -205v-6h237v6zM911 543q0 -205 -79 -315.5
t-208 -106.5q-63 -2 -116.5 14.5t-91.5 57t-58 110.5t-20 172v72q0 102 20 171.5t58 110.5t91.5 57.5t116.5 14.5q64 2 117 -15.5t91 -58.5t58.5 -109.5t20.5 -170.5v-4zM456 1755q-114 -176 -106 -182q4 -11 479 -170l31 63zM629 1221q-45 0 -71 11.5t-39 30.5t-19.5 42.5
t-9.5 49.5h-157q-5 -42 10.5 -82t53.5 -71t95.5 -50t139.5 -18q86 2 146.5 21t97 50.5t52.5 70.5t16 79h-147q-5 -24 -13 -47.5t-26.5 -42.5t-50 -31.5t-78.5 -12.5z" />
    <glyph glyph-name="uni1EB2" unicode="&#x1eb2;" horiz-adv-x="1366" 
d="M352 682h714v-242v-207v-155q0 -62 -2 -78h240l-2 997q0 125 -39 224.5t-114.5 169t-184.5 107.5t-246 38q-293 0 -447.5 -144.5t-154.5 -394.5v-424v-303q0 -120 -1 -187t-3 -83h242zM352 1061q0 102 31.5 170.5t83 109.5t114.5 58.5t127 15.5q63 2 127.5 -14.5t116 -57
t83 -110.5t31.5 -172v-285h-714v285zM853 2037q8 5 25 18t33.5 31.5t29 42t11.5 49.5q-2 33 -13.5 61.5t-36 50t-60 33.5t-82.5 12q-51 -1 -98.5 -11t-112.5 -30q5 -21 7 -32.5t6 -54.5q78 36 115 43t75 11q14 0 27.5 -3.5t22.5 -10.5t15.5 -20.5t5.5 -34.5q0 -9 -3 -20.5
t-9 -22t-15 -18.5t-25 -14l-30 -16q-22 -7 -39.5 -24t-29.5 -36.5t-18 -40.5t-6 -40v-69h133v48q2 26 6.5 40.5t11.5 22.5t19.5 15.5t34.5 19.5zM699 1723q-44 0 -70.5 11.5t-39.5 30.5t-19.5 42.5t-8.5 49.5h-158q-5 -42 10.5 -82t53.5 -71t96 -50t139 -18q87 2 147 21
t97 50.5t52.5 70.5t15.5 79h-147q-5 -24 -13 -47.5t-26 -42.5t-49.5 -31.5t-79.5 -12.5z" />
    <glyph glyph-name="uni1EB3" unicode="&#x1eb3;" 
d="M1156 6v279v147v62v16q-4 119 -34.5 213t-94 160.5t-163 102.5t-240.5 36q-135 0 -229.5 -36t-155.5 -102.5t-92 -160.5t-35 -213q4 -119 35 -213t92 -160.5t155.5 -101.5t229.5 -35q45 0 85 9t75 33t68.5 64.5t68.5 104.5l-2 -205v-6h237v6zM921 543q0 -205 -79 -315.5
t-208 -106.5q-63 -2 -116.5 14.5t-91.5 57t-58 110.5t-20 172v72q0 102 20 171.5t58 110.5t91.5 57.5t116.5 14.5q64 2 117 -15.5t91 -58.5t58.5 -109.5t20.5 -170.5v-4zM783 1555q8 5 25 18t33.5 31.5t29 42t11.5 49.5q-2 33 -13.5 61.5t-36 50t-60 33.5t-82.5 12
q-51 -1 -98.5 -11t-112.5 -30q5 -21 7 -32.5t6 -54.5q78 36 115 43t75 11q14 0 27.5 -3.5t22.5 -10.5t15.5 -20.5t5.5 -34.5q0 -9 -3 -20.5t-9 -22t-15 -18.5t-25 -14l-30 -16q-22 -7 -39.5 -24t-29.5 -36.5t-18 -40.5t-6 -40v-69h133v48q2 26 6.5 40.5t11.5 22.5t19.5 15.5
t34.5 19.5zM629 1221q-45 0 -71 11.5t-39 30.5t-20 42.5t-9 49.5h-157q-6 -42 10 -82t54 -71t95.5 -50t138.5 -18q87 2 147.5 21t97 50.5t52 70.5t15.5 79h-146q-6 -24 -13.5 -47.5t-26 -42.5t-50 -31.5t-78.5 -12.5z" />
    <glyph glyph-name="uni1EB4" unicode="&#x1eb4;" horiz-adv-x="1366" 
d="M352 682h714v-242v-207v-155q0 -62 -2 -78h240l-2 997q0 125 -39 224.5t-114.5 169t-184.5 107.5t-246 38q-293 0 -447.5 -144.5t-154.5 -394.5v-424v-303q0 -120 -1 -187t-3 -83h244zM352 1061q0 102 31.5 170.5t83 109.5t114.5 58.5t127 15.5q63 2 127.5 -14.5t116 -57
t83 -110.5t31.5 -172v-285h-714v285zM1104 2141l-31 35q-27 -31 -65.5 -58.5t-77.5 -27.5q-25 0 -55.5 13.5t-71.5 37.5q-78 52 -137 52q-166 0 -236 -226q6 -6 11 -7t9.5 -2t9.5 -4t9 -13q31 53 68.5 74.5t70.5 21.5q29 0 66 -14.5t84 -40.5q92 -54 149 -54q119 0 197 213z
M699 1723q-44 0 -70.5 11.5t-39.5 30.5t-19.5 42.5t-8.5 49.5h-158q-5 -42 10.5 -82t53.5 -71t96 -50t139 -18q87 2 147 21t97 50.5t52.5 70.5t15.5 79h-147q-5 -24 -13 -47.5t-26 -42.5t-49.5 -31.5t-79.5 -12.5z" />
    <glyph glyph-name="uni1EB5" unicode="&#x1eb5;" 
d="M1146 6v279v147v62v16q-4 119 -34.5 213t-94 160.5t-163 102.5t-240.5 36q-135 0 -229.5 -36t-155.5 -102.5t-92 -160.5t-35 -213q4 -119 35 -213t92 -160.5t155.5 -101.5t229.5 -35q45 0 85 9t75 33t68.5 64.5t68.5 104.5l-2 -205v-6h237v6zM911 543q0 -205 -79 -315.5
t-208 -106.5q-63 -2 -116.5 14.5t-91.5 57t-58 110.5t-20 172v72q0 102 20 171.5t58 110.5t91.5 57.5t116.5 14.5q64 2 117 -15.5t91 -58.5t58.5 -109.5t20.5 -170.5v-4zM1053 1639l-30 35q-27 -31 -66 -58.5t-78 -27.5q-24 0 -55 13.5t-72 37.5q-77 52 -137 52
q-166 0 -235 -226q6 -6 11 -7t9 -2t9 -4t10 -13q30 53 68 74.5t71 21.5q28 0 65 -14.5t84 -40.5q92 -54 150 -54q119 0 196 213zM629 1221q-45 0 -71 11.5t-39 30.5t-19.5 42.5t-9.5 49.5h-157q-5 -42 10.5 -82t53.5 -71t95.5 -50t139.5 -18q86 2 146.5 21t97 50.5
t52.5 70.5t16 79h-147q-5 -24 -13 -47.5t-26.5 -42.5t-50 -31.5t-78.5 -12.5z" />
    <glyph glyph-name="uni1EB6" unicode="&#x1eb6;" horiz-adv-x="1366" 
d="M352 682h714v-242v-207v-155q0 -62 -2 -78h240l-2 997q0 125 -39 224.5t-114.5 169t-184.5 107.5t-246 38q-293 0 -447.5 -144.5t-154.5 -394.5v-424v-303q0 -120 -1 -187t-3 -83h244zM352 1061q0 102 31.5 170.5t83 109.5t114.5 58.5t127 15.5q63 2 127.5 -14.5t116 -57
t83 -110.5t31.5 -172v-285h-714v285zM580 -260q0 -55 37 -91t88 -36q55 0 93 36t38 91q0 52 -39 88.5t-92 36.5q-49 0 -87 -36.5t-38 -88.5zM699 1723q-44 0 -70.5 11.5t-39.5 30.5t-19.5 42.5t-8.5 49.5h-158q-5 -42 10.5 -82t53.5 -71t96 -50t139 -18q87 2 147 21t97 50.5
t52.5 70.5t15.5 79h-147q-5 -24 -13 -47.5t-26 -42.5t-49.5 -31.5t-79.5 -12.5z" />
    <glyph glyph-name="uni1EB7" unicode="&#x1eb7;" 
d="M1156 6v279v147v62v16q-4 119 -34.5 213t-94 160.5t-163 102.5t-240.5 36q-135 0 -229.5 -36t-155.5 -102.5t-92 -160.5t-35 -213q4 -119 35 -213t92 -160.5t155.5 -101.5t229.5 -35q45 0 85 9t75 33t68.5 64.5t68.5 104.5l-2 -205v-6h237v6zM921 543q0 -205 -79 -315.5
t-208 -106.5q-63 -2 -116.5 14.5t-91.5 57t-58 110.5t-20 172v72q0 102 20 171.5t58 110.5t91.5 57.5t116.5 14.5q64 2 117 -15.5t91 -58.5t58.5 -109.5t20.5 -170.5v-4zM496 -260q0 -55 37 -91t88 -36q55 0 93 36t38 91q0 52 -39 88.5t-92 36.5q-49 0 -87 -36.5t-38 -88.5z
M629 1221q-45 0 -71 11.5t-39 30.5t-20 42.5t-9 49.5h-157q-6 -42 10 -82t54 -71t95.5 -50t138.5 -18q87 2 147.5 21t97 50.5t52 70.5t15.5 79h-146q-6 -24 -13.5 -47.5t-26 -42.5t-50 -31.5t-78.5 -12.5z" />
    <glyph glyph-name="uni1EB8" unicode="&#x1eb8;" horiz-adv-x="1169" 
d="M1134 113h-432q-64 0 -127.5 16t-113.5 58t-81.5 110t-31.5 170v309h559v94h-559v228q0 84 2 143t15 97t41 58.5t77 26.5h653v113h-1024v-1004q0 -247 151.5 -390.5t438.5 -145.5h432v117zM530 -260q0 -55 37 -91t88 -36q55 0 93 36t38 91q0 52 -39 88.5t-92 36.5
q-49 0 -87 -36.5t-38 -88.5z" />
    <glyph glyph-name="uni1EB9" unicode="&#x1eb9;" horiz-adv-x="1163" 
d="M1097 446q0 13 1 32.5t1 29.5q4 100 -30.5 191.5t-100 160t-158 108.5t-204.5 42q-107 -4 -197 -45t-156.5 -110t-103.5 -159t-37 -192q4 -111 44 -203t107.5 -158.5t158.5 -103.5t200 -37q72 -4 137.5 20.5t128.5 53.5l-16 67q-129 -34 -205 -34q-92 0 -153.5 32.5
t-99.5 81.5t-55.5 108.5t-23.5 114.5h762zM597 893h4q113 0 184.5 -76t88.5 -244h-537q6 62 24.5 119.5t50.5 101.5t78 71.5t107 27.5zM496 -260q0 -55 37 -91t88 -36q55 0 93 36t38 91q0 52 -39 88.5t-92 36.5q-49 0 -87 -36.5t-38 -88.5z" />
    <glyph glyph-name="uni1EBA" unicode="&#x1eba;" horiz-adv-x="1169" 
d="M1134 113h-432q-64 0 -127.5 16t-113.5 58t-81.5 110t-31.5 170v309h559v94h-559v228q0 84 2 143t15 97t41 58.5t77 26.5h653v113h-1024v-1004q0 -247 151.5 -390.5t438.5 -145.5h432v117zM803 1766q8 5 25 18t33.5 31.5t29 42t11.5 49.5q-2 33 -13.5 61.5t-36 50
t-60 33.5t-82.5 12q-51 -1 -98.5 -11t-112.5 -30q5 -21 7 -32.5t6 -54.5q78 36 115 43t75 11q14 0 27.5 -3.5t22.5 -10.5t15.5 -20.5t5.5 -34.5q0 -9 -3 -20.5t-9 -22t-15 -18.5t-25 -14l-30 -16q-22 -7 -39.5 -24t-29.5 -36.5t-18 -40.5t-6 -40v-69h133v48q2 26 6.5 40.5
t11.5 22.5t19.5 15.5t34.5 19.5z" />
    <glyph glyph-name="uni1EBB" unicode="&#x1ebb;" horiz-adv-x="1163" 
d="M1097 446q0 13 1 32.5t1 29.5q4 100 -30.5 191.5t-100 160t-158 108.5t-204.5 42q-107 -4 -197 -45t-156.5 -110t-103.5 -159t-37 -192q4 -111 44 -203t107.5 -158.5t158.5 -103.5t200 -37q72 -4 137.5 20.5t128.5 53.5l-16 67q-129 -34 -205 -34q-92 0 -153.5 32.5
t-99.5 81.5t-55.5 108.5t-23.5 114.5h762zM597 893h4q113 0 184.5 -76t88.5 -244h-537q6 62 24.5 119.5t50.5 101.5t78 71.5t107 27.5zM753 1254q8 5 25 18t33.5 31.5t29 42t11.5 49.5q-2 33 -13.5 61.5t-36 50t-60 33.5t-82.5 12q-51 -1 -98.5 -11t-112.5 -30
q5 -21 7 -32.5t6 -54.5q78 36 115 43t75 11q14 0 27.5 -3.5t22.5 -10.5t15.5 -20.5t5.5 -34.5q0 -9 -3 -20.5t-9 -22t-15 -18.5t-25 -14l-30 -16q-22 -7 -39.5 -24t-29.5 -36.5t-18 -40.5t-6 -40v-69h133v48q2 26 6.5 40.5t11.5 22.5t19.5 15.5t34.5 19.5z" />
    <glyph glyph-name="uni1EBC" unicode="&#x1ebc;" horiz-adv-x="1169" 
d="M1134 113h-432q-64 0 -127.5 16t-113.5 58t-81.5 110t-31.5 170v309h559v94h-559v228q0 84 2 143t15 97t41 58.5t77 26.5h653v113h-1024v-1004q0 -247 151.5 -390.5t438.5 -145.5h432v117zM994 1890l-31 35q-27 -31 -65.5 -58.5t-77.5 -27.5q-25 0 -55.5 13.5t-71.5 37.5
q-78 52 -137 52q-166 0 -236 -226q6 -6 11 -7t9.5 -2t9.5 -4t9 -13q31 53 68.5 74.5t70.5 21.5q29 0 66 -14.5t84 -40.5q92 -54 149 -54q119 0 197 213z" />
    <glyph glyph-name="uni1EBD" unicode="&#x1ebd;" horiz-adv-x="1163" 
d="M1097 446q0 13 1 32.5t1 29.5q4 100 -30.5 191.5t-100 160t-158 108.5t-204.5 42q-107 -4 -197 -45t-156.5 -110t-103.5 -159t-37 -192q4 -111 44 -203t107.5 -158.5t158.5 -103.5t200 -37q72 -4 137.5 20.5t128.5 53.5l-16 67q-129 -34 -205 -34q-92 0 -153.5 32.5
t-99.5 81.5t-55.5 108.5t-23.5 114.5h762zM597 893h4q113 0 184.5 -76t88.5 -244h-537q6 62 24.5 119.5t50.5 101.5t78 71.5t107 27.5zM972 1378l-31 35q-26 -31 -65 -58.5t-78 -27.5q-24 0 -55 13.5t-72 37.5q-78 52 -137 52q-166 0 -236 -226q7 -6 12 -7t9 -2t9 -4t9 -13
q31 53 69 74.5t71 21.5q28 0 65 -14.5t84 -40.5q92 -54 150 -54q118 0 196 213z" />
    <glyph glyph-name="uni1EBE" unicode="&#x1ebe;" horiz-adv-x="1169" 
d="M1134 113h-432q-64 0 -127.5 16t-113.5 58t-81.5 110t-31.5 170v309h559v94h-559v228q0 84 2 143t15 97t41 58.5t77 26.5h653v113h-1024v-1004q0 -247 151.5 -390.5t438.5 -145.5h432v117zM843 2384l-405 -289l33 -63q469 157 481 170q6 4 -109 182zM955 1669l-301 375
l-295 -371l15 -35l284 172l283 -176z" />
    <glyph glyph-name="uni1EBF" unicode="&#x1ebf;" horiz-adv-x="1153" 
d="M1107 446q0 13 1 32.5t1 29.5q4 100 -30.5 191.5t-100 160t-158 108.5t-204.5 42q-107 -4 -197 -45t-156.5 -110t-103.5 -159t-37 -192q4 -111 44 -203t107.5 -158.5t158.5 -103.5t200 -37q72 -4 137.5 20.5t128.5 53.5l-16 67q-129 -34 -205 -34q-92 0 -153.5 32.5
t-99.5 81.5t-55.5 108.5t-23.5 114.5h762zM607 893h4q113 0 184.5 -76t88.5 -244h-537q6 62 24.5 119.5t50.5 101.5t78 71.5t107 27.5zM820 1872l-405 -289l33 -63q469 157 481 170q6 4 -109 182zM925 1157l-301 375l-295 -371l14 -35l285 172l282 -176z" />
    <glyph glyph-name="uni1EC0" unicode="&#x1ec0;" horiz-adv-x="1169" 
d="M1134 113h-432q-64 0 -127.5 16t-113.5 58t-81.5 110t-31.5 170v309h559v94h-559v228q0 84 2 143t15 97t41 58.5t77 26.5h653v113h-1024v-1004q0 -247 151.5 -390.5t438.5 -145.5h432v117zM490 2378q-115 -176 -107 -182q4 -11 480 -170l30 63zM955 1669l-301 375
l-295 -371l15 -35l284 172l283 -176z" />
    <glyph glyph-name="uni1EC1" unicode="&#x1ec1;" horiz-adv-x="1153" 
d="M1107 446q0 13 1 32.5t1 29.5q4 100 -30.5 191.5t-100 160t-158 108.5t-204.5 42q-107 -4 -197 -45t-156.5 -110t-103.5 -159t-37 -192q4 -111 44 -203t107.5 -158.5t158.5 -103.5t200 -37q72 -4 137.5 20.5t128.5 53.5l-16 67q-129 -34 -205 -34q-92 0 -153.5 32.5
t-99.5 81.5t-55.5 108.5t-23.5 114.5h762zM607 893h4q113 0 184.5 -76t88.5 -244h-537q6 62 24.5 119.5t50.5 101.5t78 71.5t107 27.5zM437 1876q-114 -176 -106 -182q4 -11 479 -170l31 63zM925 1157l-301 375l-295 -371l14 -35l285 172l282 -176z" />
    <glyph glyph-name="uni1EC2" unicode="&#x1ec2;" horiz-adv-x="1169" 
d="M1134 113h-432q-64 0 -127.5 16t-113.5 58t-81.5 110t-31.5 170v309h559v94h-559v228q0 84 2 143t15 97t41 58.5t77 26.5h653v113h-1024v-1004q0 -247 151.5 -390.5t438.5 -145.5h432v117zM1024 2077q8 5 25 18t33.5 31.5t29 42t11.5 49.5q-2 33 -13.5 61.5t-36 50
t-60 33.5t-82.5 12q-51 -1 -98.5 -11t-112.5 -30q5 -21 7 -32.5t6 -54.5q78 36 115 43t75 11q14 0 27.5 -3.5t22.5 -10.5t15.5 -20.5t5.5 -34.5q0 -9 -3 -20.5t-9 -22t-15 -18.5t-25 -14l-30 -16q-22 -7 -39.5 -24t-29.5 -36.5t-18 -40.5t-6 -40v-69h133v48q2 26 6.5 40.5
t11.5 22.5t19.5 15.5t34.5 19.5zM955 1669l-301 375l-295 -371l15 -35l284 172l283 -176z" />
    <glyph glyph-name="uni1EC3" unicode="&#x1ec3;" horiz-adv-x="1163" 
d="M1097 446q0 13 1 32.5t1 29.5q4 100 -30.5 191.5t-100 160t-158 108.5t-204.5 42q-107 -4 -197 -45t-156.5 -110t-103.5 -159t-37 -192q4 -111 44 -203t107.5 -158.5t158.5 -103.5t200 -37q72 -4 137.5 20.5t128.5 53.5l-16 67q-129 -34 -205 -34q-92 0 -153.5 32.5
t-99.5 81.5t-55.5 108.5t-23.5 114.5h762zM597 893h4q113 0 184.5 -76t88.5 -244h-537q6 62 24.5 119.5t50.5 101.5t78 71.5t107 27.5zM954 1585q8 5 25 18t33.5 31.5t29 42t11.5 49.5q-2 33 -13.5 61.5t-36 50t-60 33.5t-82.5 12q-51 -1 -98.5 -11t-112.5 -30
q5 -21 7 -32.5t6 -54.5q78 36 115 43t75 11q14 0 27.5 -3.5t22.5 -10.5t15.5 -20.5t5.5 -34.5q0 -9 -3 -20.5t-9 -22t-15 -18.5t-25 -14l-30 -16q-22 -7 -39.5 -24t-29.5 -36.5t-18 -40.5t-6 -40v-69h133v48q2 26 6.5 40.5t11.5 22.5t19.5 15.5t34.5 19.5zM925 1157
l-301 375l-295 -371l14 -35l285 172l283 -176z" />
    <glyph glyph-name="uni1EC4" unicode="&#x1ec4;" horiz-adv-x="1169" 
d="M1134 113h-432q-64 0 -127.5 16t-113.5 58t-81.5 110t-31.5 170v309h559v94h-559v228q0 84 2 143t15 97t41 58.5t77 26.5h653v113h-1024v-1004q0 -247 151.5 -390.5t438.5 -145.5h432v117zM1105 2211l-31 35q-27 -31 -65.5 -58.5t-77.5 -27.5q-25 0 -55.5 13.5
t-71.5 37.5q-78 52 -137 52q-166 0 -236 -226q6 -6 11 -7t9.5 -2t9.5 -4t9 -13q31 53 68.5 74.5t70.5 21.5q29 0 66 -14.5t84 -40.5q92 -54 149 -54q119 0 197 213zM955 1669l-301 375l-295 -371l15 -35l284 172l283 -176z" />
    <glyph glyph-name="uni1EC5" unicode="&#x1ec5;" horiz-adv-x="1163" 
d="M1097 446q0 13 1 32.5t1 29.5q4 100 -30.5 191.5t-100 160t-158 108.5t-204.5 42q-107 -4 -197 -45t-156.5 -110t-103.5 -159t-37 -192q4 -111 44 -203t107.5 -158.5t158.5 -103.5t200 -37q72 -4 137.5 20.5t128.5 53.5l-16 67q-129 -34 -205 -34q-92 0 -153.5 32.5
t-99.5 81.5t-55.5 108.5t-23.5 114.5h762zM597 893h4q113 0 184.5 -76t88.5 -244h-537q6 62 24.5 119.5t50.5 101.5t78 71.5t107 27.5zM1032 1719l-31 35q-26 -31 -65 -58.5t-78 -27.5q-24 0 -55 13.5t-72 37.5q-78 52 -137 52q-166 0 -236 -226q7 -6 12 -7t9 -2t9 -4t9 -13
q31 53 69 74.5t71 21.5q28 0 65 -14.5t84 -40.5q92 -54 150 -54q118 0 196 213zM925 1157l-301 375l-295 -371l14 -35l285 172l283 -176z" />
    <glyph glyph-name="uni1EC6" unicode="&#x1ec6;" horiz-adv-x="1169" 
d="M1134 113h-432q-64 0 -127.5 16t-113.5 58t-81.5 110t-31.5 170v309h559v94h-559v228q0 84 2 143t15 97t41 58.5t77 26.5h653v113h-1024v-1004q0 -247 151.5 -390.5t438.5 -145.5h432v117zM530 -260q0 -55 37 -91t88 -36q55 0 93 36t38 91q0 52 -39 88.5t-92 36.5
q-49 0 -87 -36.5t-38 -88.5zM955 1669l-301 375l-295 -371l15 -35l284 172l283 -176z" />
    <glyph glyph-name="uni1EC7" unicode="&#x1ec7;" horiz-adv-x="1163" 
d="M1097 446q0 13 1 32.5t1 29.5q4 100 -30.5 191.5t-100 160t-158 108.5t-204.5 42q-107 -4 -197 -45t-156.5 -110t-103.5 -159t-37 -192q4 -111 44 -203t107.5 -158.5t158.5 -103.5t200 -37q72 -4 137.5 20.5t128.5 53.5l-16 67q-129 -34 -205 -34q-92 0 -153.5 32.5
t-99.5 81.5t-55.5 108.5t-23.5 114.5h762zM597 893h4q113 0 184.5 -76t88.5 -244h-537q6 62 24.5 119.5t50.5 101.5t78 71.5t107 27.5zM496 -260q0 -55 37 -91t88 -36q55 0 93 36t38 91q0 52 -39 88.5t-92 36.5q-49 0 -87 -36.5t-38 -88.5zM925 1157l-301 375l-295 -371
l14 -35l285 172l283 -176z" />
    <glyph glyph-name="uni1EC8" unicode="&#x1ec8;" horiz-adv-x="409" 
d="M347 1536h-235v-1538h235v1538zM361 1766q8 5 25 18t33.5 31.5t28.5 42t11 49.5q-1 33 -12.5 61.5t-36 50t-60 33.5t-82.5 12q-51 -1 -99 -11t-112 -30q4 -21 6 -32.5t6 -54.5q78 36 115.5 43t74.5 11q15 0 28 -3.5t22.5 -10.5t15.5 -20.5t6 -34.5q0 -9 -3.5 -20.5
t-9.5 -22t-15 -18.5t-24 -14l-31 -16q-21 -7 -38.5 -24t-29.5 -36.5t-18.5 -40.5t-6.5 -40v-69h133v48q3 26 7.5 40.5t11.5 22.5t19.5 15.5t34.5 19.5z" />
    <glyph glyph-name="uni1EC9" unicode="&#x1ec9;" horiz-adv-x="479" 
d="M386 1030h-235v-1028h235v1028zM401 1254q8 5 25 18t33.5 31.5t28.5 42t11 49.5q-1 33 -12.5 61.5t-36 50t-60 33.5t-82.5 12q-51 -1 -99 -11t-112 -30q4 -21 6 -32.5t6 -54.5q78 36 115.5 43t74.5 11q15 0 28 -3.5t22.5 -10.5t15.5 -20.5t6 -34.5q0 -9 -3.5 -20.5
t-9.5 -22t-15 -18.5t-24 -14l-31 -16q-21 -7 -38.5 -24t-29.5 -36.5t-18.5 -40.5t-6.5 -40v-69h133v48q3 26 7.5 40.5t11.5 22.5t19.5 15.5t34.5 19.5z" />
    <glyph glyph-name="uni1ECA" unicode="&#x1eca;" horiz-adv-x="409" 
d="M354 1536h-236v-1538h236v1538zM108 -260q0 -55 37 -91t88 -36q55 0 93 36t38 91q0 52 -39 88.5t-92 36.5q-49 0 -87 -36.5t-38 -88.5z" />
    <glyph glyph-name="uni1ECB" unicode="&#x1ecb;" horiz-adv-x="479" 
d="M386 1030h-235v-1028h235v1028zM112 1380q0 -63 44 -108t108 -45q26 0 53.5 12t50.5 33.5t36 49.5t13 58q0 64 -45 109t-108 45q-64 0 -108 -45t-44 -109zM145 -260q0 -55 37 -91t88 -36q55 0 93 36t38 91q0 52 -39 88.5t-92 36.5q-49 0 -87 -36.5t-38 -88.5z" />
    <glyph glyph-name="uni1ECC" unicode="&#x1ecc;" horiz-adv-x="1359" 
d="M1298 999q0 125 -39 224.5t-115 169t-184.5 107.5t-245.5 38q-293 0 -447.5 -144.5t-154.5 -394.5v-460q0 -250 154.5 -394.5t447.5 -144.5q137 0 245.5 38t184.5 107.5t115 169t39 224.5v460zM348 475v588q0 102 31.5 171t82.5 109.5t114.5 58t127.5 15.5
q63 2 127.5 -14.5t116 -57t83 -110.5t31.5 -172v-588q0 -102 -31.5 -172t-83 -110.5t-116 -57t-127.5 -14.5q-64 -2 -127.5 15.5t-114.5 58.5t-82.5 109.5t-31.5 170.5zM577 -260q0 -55 37 -91t88 -36q55 0 93 36t38 91q0 52 -39 88.5t-92 36.5q-49 0 -87 -36.5t-38 -88.5z
" />
    <glyph glyph-name="uni1ECD" unicode="&#x1ecd;" horiz-adv-x="1218" 
d="M644 1022q-141 0 -241.5 -43t-164 -113.5t-94 -163t-32.5 -192.5q4 -102 35 -194.5t94.5 -163t162.5 -111.5t240 -41q136 0 231 41t156.5 109.5t91 162t33.5 197.5q-4 100 -34.5 192.5t-92 163t-155.5 113.5t-230 43zM348 475v72q0 102 20 170.5t58 109.5t91.5 58.5
t116.5 15.5q64 2 117 -14.5t91 -57.5t58.5 -110.5t20.5 -171.5v-72q0 -102 -20.5 -172t-58.5 -110.5t-91 -57t-117 -14.5q-63 -2 -116.5 15.5t-91.5 58.5t-58 109.5t-20 170.5zM506 -260q0 -55 37 -91t88 -36q55 0 93 36t38 91q0 52 -39 88.5t-92 36.5q-49 0 -87 -36.5
t-38 -88.5z" />
    <glyph glyph-name="uni1ECE" unicode="&#x1ece;" horiz-adv-x="1359" 
d="M1298 999q0 125 -39 224.5t-115 169t-184.5 107.5t-245.5 38q-293 0 -447.5 -144.5t-154.5 -394.5v-460q0 -250 154.5 -394.5t447.5 -144.5q137 0 245.5 38t184.5 107.5t115 169t39 224.5v460zM348 475v588q0 102 31.5 171t82.5 109.5t114.5 58t127.5 15.5
q63 2 127.5 -14.5t116 -57t83 -110.5t31.5 -172v-588q0 -102 -31.5 -172t-83 -110.5t-116 -57t-127.5 -14.5q-64 -2 -127.5 15.5t-114.5 58.5t-82.5 109.5t-31.5 170.5zM804 1766q8 5 25 18t33.5 31.5t28.5 42t11 49.5q-1 33 -12.5 61.5t-36 50t-60 33.5t-82.5 12
q-51 -1 -99 -11t-112 -30q4 -21 6 -32.5t6 -54.5q79 36 116 43t74 11q15 0 28.5 -3.5t22.5 -10.5t15 -20.5t6 -34.5q0 -9 -3.5 -20.5t-9.5 -22t-15 -18.5t-24 -14l-31 -16q-21 -7 -38.5 -24t-29.5 -36.5t-18.5 -40.5t-6.5 -40v-69h133v48q3 26 7.5 40.5t11.5 22.5t19.5 15.5
t34.5 19.5z" />
    <glyph glyph-name="uni1ECF" unicode="&#x1ecf;" horiz-adv-x="1218" 
d="M644 1022q-141 0 -241.5 -43t-164 -113.5t-94 -163t-32.5 -192.5q4 -102 35 -194.5t94.5 -163t162.5 -111.5t240 -41q136 0 231 41t156.5 109.5t91 162t33.5 197.5q-4 100 -34.5 192.5t-92 163t-155.5 113.5t-230 43zM348 475v72q0 102 20 170.5t58 109.5t91.5 58.5
t116.5 15.5q64 2 117 -14.5t91 -57.5t58.5 -110.5t20.5 -171.5v-72q0 -102 -20.5 -172t-58.5 -110.5t-91 -57t-117 -14.5q-63 -2 -116.5 15.5t-91.5 58.5t-58 109.5t-20 170.5zM763 1254q8 5 25 18t33.5 31.5t29 42t11.5 49.5q-2 33 -13.5 61.5t-36 50t-60 33.5t-82.5 12
q-51 -1 -98.5 -11t-112.5 -30q5 -21 7 -32.5t6 -54.5q78 36 115 43t75 11q14 0 27.5 -3.5t22.5 -10.5t15.5 -20.5t5.5 -34.5q0 -9 -3 -20.5t-9 -22t-15 -18.5t-25 -14l-30 -16q-22 -7 -39.5 -24t-29.5 -36.5t-18 -40.5t-6 -40v-69h133v48q2 26 6.5 40.5t11.5 22.5t19.5 15.5
t34.5 19.5z" />
    <glyph glyph-name="uni1ED0" unicode="&#x1ed0;" horiz-adv-x="1396" 
d="M1321 999q0 125 -39 224.5t-115 169t-184.5 107.5t-245.5 38q-293 0 -447.5 -144.5t-154.5 -394.5v-460q0 -250 154.5 -394.5t447.5 -144.5q137 0 245.5 38t184.5 107.5t115 169t39 224.5v460zM371 475v588q0 102 31.5 171t82.5 109.5t114.5 58t127.5 15.5
q63 2 127.5 -14.5t116 -57t83 -110.5t31.5 -172v-588q0 -102 -31.5 -172t-83 -110.5t-116 -57t-127.5 -14.5q-64 -2 -127.5 15.5t-114.5 58.5t-82.5 109.5t-31.5 170.5zM915 2374l-405 -289l33 -63q469 157 481 170q6 4 -109 182zM1034 1669l-301 375l-295 -371l14 -35
l285 172l283 -176z" />
    <glyph glyph-name="uni1ED1" unicode="&#x1ed1;" 
d="M648 1022q-141 0 -241.5 -43t-164 -113.5t-94 -163t-32.5 -192.5q4 -102 35 -194.5t94.5 -163t162.5 -111.5t240 -41q136 0 231 41t156.5 109.5t91 162t33.5 197.5q-4 100 -34.5 192.5t-92 163t-155.5 113.5t-230 43zM352 475v72q0 102 20 170.5t58 109.5t91.5 58.5
t116.5 15.5q64 2 117 -14.5t91 -57.5t58.5 -110.5t20.5 -171.5v-72q0 -102 -20.5 -172t-58.5 -110.5t-91 -57t-117 -14.5q-63 -2 -116.5 15.5t-91.5 58.5t-58 109.5t-20 170.5zM864 1882l-406 -289l33 -63q469 157 481 170q6 4 -108 182zM931 1157l-301 375l-295 -371
l14 -35l285 172l283 -176z" />
    <glyph glyph-name="uni1ED2" unicode="&#x1ed2;" horiz-adv-x="1396" 
d="M1321 999q0 125 -39 224.5t-115 169t-184.5 107.5t-245.5 38q-293 0 -447.5 -144.5t-154.5 -394.5v-460q0 -250 154.5 -394.5t447.5 -144.5q137 0 245.5 38t184.5 107.5t115 169t39 224.5v460zM371 475v588q0 102 31.5 171t82.5 109.5t114.5 58t127.5 15.5
q63 2 127.5 -14.5t116 -57t83 -110.5t31.5 -172v-588q0 -102 -31.5 -172t-83 -110.5t-116 -57t-127.5 -14.5q-64 -2 -127.5 15.5t-114.5 58.5t-82.5 109.5t-31.5 170.5zM561 2367q-115 -176 -107 -182q5 -11 480 -170l30 63zM1034 1669l-301 375l-295 -371l14 -35l285 172
l283 -176z" />
    <glyph glyph-name="uni1ED3" unicode="&#x1ed3;" 
d="M648 1022q-141 0 -241.5 -43t-164 -113.5t-94 -163t-32.5 -192.5q4 -102 35 -194.5t94.5 -163t162.5 -111.5t240 -41q136 0 231 41t156.5 109.5t91 162t33.5 197.5q-4 100 -34.5 192.5t-92 163t-155.5 113.5t-230 43zM352 475v72q0 102 20 170.5t58 109.5t91.5 58.5
t116.5 15.5q64 2 117 -14.5t91 -57.5t58.5 -110.5t20.5 -171.5v-72q0 -102 -20.5 -172t-58.5 -110.5t-91 -57t-117 -14.5q-63 -2 -116.5 15.5t-91.5 58.5t-58 109.5t-20 170.5zM456 1855q-115 -176 -107 -182q5 -11 480 -170l30 63zM931 1157l-301 375l-295 -371l14 -35
l285 172l283 -176z" />
    <glyph glyph-name="uni1ED4" unicode="&#x1ed4;" horiz-adv-x="1396" 
d="M1321 999q0 125 -39 224.5t-115 169t-184.5 107.5t-245.5 38q-293 0 -447.5 -144.5t-154.5 -394.5v-460q0 -250 154.5 -394.5t447.5 -144.5q137 0 245.5 38t184.5 107.5t115 169t39 224.5v460zM371 475v588q0 102 31.5 171t82.5 109.5t114.5 58t127.5 15.5
q63 2 127.5 -14.5t116 -57t83 -110.5t31.5 -172v-588q0 -102 -31.5 -172t-83 -110.5t-116 -57t-127.5 -14.5q-64 -2 -127.5 15.5t-114.5 58.5t-82.5 109.5t-31.5 170.5zM1078 2098q8 5 25 18t33.5 31.5t28.5 42t11 49.5q-1 33 -12.5 61.5t-36 50t-60 33.5t-82.5 12
q-51 -1 -99 -11t-112 -30q4 -21 6 -32.5t6 -54.5q79 36 116 43t74 11q15 0 28.5 -3.5t22.5 -10.5t15 -20.5t6 -34.5q0 -9 -3.5 -20.5t-9.5 -22t-15 -18.5t-24 -14l-31 -16q-21 -7 -38.5 -24t-29.5 -36.5t-18.5 -40.5t-6.5 -40v-69h133v48q3 26 7.5 40.5t11.5 22.5t19.5 15.5
t34.5 19.5zM1057 1669l-301 375l-295 -371l14 -35l285 172l283 -176z" />
    <glyph glyph-name="uni1ED5" unicode="&#x1ed5;" horiz-adv-x="1218" 
d="M644 1022q-141 0 -241.5 -43t-164 -113.5t-94 -163t-32.5 -192.5q4 -102 35 -194.5t94.5 -163t162.5 -111.5t240 -41q136 0 231 41t156.5 109.5t91 162t33.5 197.5q-4 100 -34.5 192.5t-92 163t-155.5 113.5t-230 43zM348 475v72q0 102 20 170.5t58 109.5t91.5 58.5
t116.5 15.5q64 2 117 -14.5t91 -57.5t58.5 -110.5t20.5 -171.5v-72q0 -102 -20.5 -172t-58.5 -110.5t-91 -57t-117 -14.5q-63 -2 -116.5 15.5t-91.5 58.5t-58 109.5t-20 170.5zM944 1606q8 5 25 18t33.5 31.5t29 42t11.5 49.5q-2 33 -13.5 61.5t-36 50t-60 33.5t-82.5 12
q-51 -1 -98.5 -11t-112.5 -30q5 -21 7 -32.5t6 -54.5q78 36 115 43t75 11q14 0 27.5 -3.5t22.5 -10.5t15.5 -20.5t5.5 -34.5q0 -9 -3 -20.5t-9 -22t-15 -18.5t-25 -14l-30 -16q-22 -7 -39.5 -24t-29.5 -36.5t-18 -40.5t-6 -40v-69h133v48q2 26 6.5 40.5t11.5 22.5t19.5 15.5
t34.5 19.5zM931 1157l-301 375l-295 -371l15 -35l284 172l283 -176z" />
    <glyph glyph-name="uni1ED6" unicode="&#x1ed6;" horiz-adv-x="1396" 
d="M1321 999q0 125 -39 224.5t-115 169t-184.5 107.5t-245.5 38q-293 0 -447.5 -144.5t-154.5 -394.5v-460q0 -250 154.5 -394.5t447.5 -144.5q137 0 245.5 38t184.5 107.5t115 169t39 224.5v460zM371 475v588q0 102 31.5 171t82.5 109.5t114.5 58t127.5 15.5
q63 2 127.5 -14.5t116 -57t83 -110.5t31.5 -172v-588q0 -102 -31.5 -172t-83 -110.5t-116 -57t-127.5 -14.5q-64 -2 -127.5 15.5t-114.5 58.5t-82.5 109.5t-31.5 170.5zM1207 2221l-31 35q-27 -31 -65.5 -58.5t-77.5 -27.5q-25 0 -55.5 13.5t-71.5 37.5q-78 52 -137 52
q-166 0 -236 -226q6 -6 11 -7t9.5 -2t9.5 -4t9 -13q31 53 68.5 74.5t70.5 21.5q29 0 66 -14.5t84 -40.5q92 -54 149 -54q119 0 197 213zM1057 1669l-301 375l-295 -371l14 -35l285 172l283 -176z" />
    <glyph glyph-name="uni1ED7" unicode="&#x1ed7;" 
d="M648 1022q-141 0 -241.5 -43t-164 -113.5t-94 -163t-32.5 -192.5q4 -102 35 -194.5t94.5 -163t162.5 -111.5t240 -41q136 0 231 41t156.5 109.5t91 162t33.5 197.5q-4 100 -34.5 192.5t-92 163t-155.5 113.5t-230 43zM352 475v72q0 102 20 170.5t58 109.5t91.5 58.5
t116.5 15.5q64 2 117 -14.5t91 -57.5t58.5 -110.5t20.5 -171.5v-72q0 -102 -20.5 -172t-58.5 -110.5t-91 -57t-117 -14.5q-63 -2 -116.5 15.5t-91.5 58.5t-58 109.5t-20 170.5zM1053 1709l-31 35q-26 -31 -65 -58.5t-78 -27.5q-25 0 -55.5 13.5t-71.5 37.5q-78 52 -137 52
q-166 0 -236 -226q6 -6 11.5 -7t9.5 -2t9 -4t9 -13q31 53 69 74.5t70 21.5q29 0 66 -14.5t84 -40.5q92 -54 149 -54q119 0 197 213zM931 1157l-301 375l-295 -371l14 -35l285 172l283 -176z" />
    <glyph glyph-name="uni1ED8" unicode="&#x1ed8;" horiz-adv-x="1359" 
d="M1298 999q0 125 -39 224.5t-115 169t-184.5 107.5t-245.5 38q-293 0 -447.5 -144.5t-154.5 -394.5v-460q0 -250 154.5 -394.5t447.5 -144.5q137 0 245.5 38t184.5 107.5t115 169t39 224.5v460zM348 475v588q0 102 31.5 171t82.5 109.5t114.5 58t127.5 15.5
q63 2 127.5 -14.5t116 -57t83 -110.5t31.5 -172v-588q0 -102 -31.5 -172t-83 -110.5t-116 -57t-127.5 -14.5q-64 -2 -127.5 15.5t-114.5 58.5t-82.5 109.5t-31.5 170.5zM577 -260q0 -55 37 -91t88 -36q55 0 93 36t38 91q0 52 -39 88.5t-92 36.5q-49 0 -87 -36.5t-38 -88.5z
M1003 1669l-301 375l-295 -371l14 -35l285 172l283 -176z" />
    <glyph glyph-name="uni1ED9" unicode="&#x1ed9;" horiz-adv-x="1218" 
d="M644 1022q-141 0 -241.5 -43t-164 -113.5t-94 -163t-32.5 -192.5q4 -102 35 -194.5t94.5 -163t162.5 -111.5t240 -41q136 0 231 41t156.5 109.5t91 162t33.5 197.5q-4 100 -34.5 192.5t-92 163t-155.5 113.5t-230 43zM348 475v72q0 102 20 170.5t58 109.5t91.5 58.5
t116.5 15.5q64 2 117 -14.5t91 -57.5t58.5 -110.5t20.5 -171.5v-72q0 -102 -20.5 -172t-58.5 -110.5t-91 -57t-117 -14.5q-63 -2 -116.5 15.5t-91.5 58.5t-58 109.5t-20 170.5zM931 1157l-301 375l-295 -371l15 -35l284 172l283 -176zM506 -260q0 -55 37 -91t88 -36
q55 0 93 36t38 91q0 52 -39 88.5t-92 36.5q-49 0 -87 -36.5t-38 -88.5z" />
    <glyph glyph-name="uni1EDA" unicode="&#x1eda;" horiz-adv-x="1396" 
d="M371 475v588q0 102 31.5 171t82.5 109.5t114.5 58t127.5 15.5q63 2 127.5 -14.5t116 -57t83 -110.5t31.5 -172v-588q0 -102 -31.5 -172t-83 -110.5t-116 -57t-127.5 -14.5q-64 -2 -127.5 15.5t-114.5 58.5t-82.5 109.5t-31.5 170.5zM915 2042l-405 -289l33 -63
q469 157 481 170q6 4 -109 182zM1103 1450q46 27 75.5 55.5t45.5 58.5t25 65q5 16 4.5 36.5t-9.5 40t-26 35.5t-46 24q-46 12 -77 -11.5t-44 -69.5q-5 -16 -2 -34t14.5 -35.5t32 -32t53.5 -21.5q-2 -25 -23 -48.5t-47 -41.5l-12 -8q-39 21 -84 37q-109 38 -246 38
q-293 0 -447.5 -144.5t-154.5 -394.5v-460q0 -250 154.5 -394.5t447.5 -144.5q137 0 245.5 38t184.5 107.5t115 169t39 224.5v460q0 125 -39 224.5t-115 169.5q-32 29 -70 53z" />
    <glyph glyph-name="uni1EDB" unicode="&#x1edb;" 
d="M352 475v72q0 102 20.5 170.5t58 109.5t91 58.5t116.5 15.5q64 2 117 -14.5t91 -57.5t58.5 -110.5t20.5 -171.5v-72q0 -102 -20.5 -172t-58.5 -110.5t-91 -57t-117 -14.5q-63 -2 -116.5 15.5t-91 58.5t-58 109.5t-20.5 170.5zM864 1530l-406 -289l33 -63q469 157 481 170
q6 4 -108 182zM1048 944q29 29 45 58.5t27 64.5q4 16 3 36.5t-9.5 40t-26 35t-45.5 23.5q-47 12 -78 -11.5t-43 -68.5q-6 -16 -3 -34.5t14 -36t32.5 -31.5t52.5 -21q-2 -26 -22 -49q-13 -14 -28 -26q-42 31 -93 55q-94 43 -230 43q-141 0 -241.5 -43t-164 -113.5t-94 -163
t-32.5 -192.5q4 -102 35 -194.5t94.5 -163t162.5 -111.5t240 -41q136 0 231 41t156.5 109.5t91 162t33.5 197.5q-4 100 -34.5 192.5t-91.5 162.5q-17 19 -36 36q32 21 54 43z" />
    <glyph glyph-name="uni1EDC" unicode="&#x1edc;" horiz-adv-x="1396" 
d="M371 475v588q0 102 31.5 171t82.5 109.5t114.5 58t127.5 15.5q63 2 127.5 -14.5t116 -57t83 -110.5t31.5 -172v-588q0 -102 -31.5 -172t-83 -110.5t-116 -57t-127.5 -14.5q-64 -2 -127.5 15.5t-114.5 58.5t-82.5 109.5t-31.5 170.5zM561 2046q-115 -176 -107 -182
q5 -11 480 -170l30 63zM1103 1450q46 27 75.5 55.5t45.5 58.5t25 65q5 16 4.5 36.5t-9.5 40t-26 35.5t-46 24q-46 12 -77 -11.5t-44 -69.5q-5 -16 -2 -34t14.5 -35.5t32 -32t53.5 -21.5q-2 -25 -23 -48.5t-47 -41.5l-12 -8q-39 21 -84 37q-109 38 -246 38
q-293 0 -447.5 -144.5t-154.5 -394.5v-460q0 -250 154.5 -394.5t447.5 -144.5q137 0 245.5 38t184.5 107.5t115 169t39 224.5v460q0 125 -39 224.5t-115 169.5q-32 29 -70 53z" />
    <glyph glyph-name="uni1EDD" unicode="&#x1edd;" 
d="M352 475v72q0 102 20.5 170.5t58 109.5t91 58.5t116.5 15.5q64 2 117 -14.5t91 -57.5t58.5 -110.5t20.5 -171.5v-72q0 -102 -20.5 -172t-58.5 -110.5t-91 -57t-117 -14.5q-63 -2 -116.5 15.5t-91 58.5t-58 109.5t-20.5 170.5zM456 1534q-115 -176 -106 -182
q4 -11 479 -170l31 63zM1048 944q29 29 45 58.5t27 64.5q4 16 3 36.5t-9.5 40t-26 35t-45.5 23.5q-47 12 -78 -11.5t-43 -68.5q-6 -16 -3 -34.5t14 -36t32.5 -31.5t52.5 -21q-2 -26 -22 -49q-13 -14 -28 -26q-42 31 -93 55q-94 43 -230 43q-141 0 -241.5 -43t-164 -113.5
t-94 -163t-32.5 -192.5q4 -102 35 -194.5t94.5 -163t162.5 -111.5t240 -41q136 0 231 41t156.5 109.5t91 162t33.5 197.5q-4 100 -34.5 192.5t-91.5 162.5q-17 19 -36 36q32 21 54 43z" />
    <glyph glyph-name="uni1EDE" unicode="&#x1ede;" horiz-adv-x="1359" 
d="M348 475v588q0 102 31.5 171t82.5 109.5t114.5 58t127.5 15.5q63 2 127.5 -14.5t116 -57t83 -110.5t31.5 -172v-588q0 -102 -31.5 -172t-83 -110.5t-116 -57t-127.5 -14.5q-64 -2 -127.5 15.5t-114.5 58.5t-82.5 109.5t-31.5 170.5zM834 1766q8 5 25 18t33.5 31.5
t28.5 42t11 49.5q-1 33 -12.5 61.5t-36 50t-60 33.5t-82.5 12q-51 -1 -99 -11t-112 -30q4 -21 6 -32.5t6 -54.5q79 36 116 43t74 11q15 0 28.5 -3.5t22.5 -10.5t15 -20.5t6 -34.5q0 -9 -3.5 -20.5t-9.5 -22t-15 -18.5t-24 -14l-31 -16q-21 -7 -38.5 -24t-29.5 -36.5
t-18.5 -40.5t-6.5 -40v-69h133v48q3 26 7.5 40.5t11.5 22.5t19.5 15.5t34.5 19.5zM1103 1450q46 27 75.5 55.5t45.5 58.5t25 65q5 16 4.5 36.5t-9.5 40t-26 35.5t-46 24q-46 12 -77 -11.5t-44 -69.5q-5 -16 -2 -34t14.5 -35.5t32 -32t53.5 -21.5q-2 -25 -23 -48.5t-47 -41.5
q-12 -8 -22 -15q-45 26 -97 44q-109 38 -246 38q-293 0 -447.5 -144.5t-154.5 -394.5v-460q0 -250 154.5 -394.5t447.5 -144.5q137 0 245.5 38t184.5 107.5t115 169t39 224.5v460q0 125 -39 224.5t-115 169.5q-28 25 -60 46q10 5 19 11z" />
    <glyph glyph-name="uni1EDF" unicode="&#x1edf;" horiz-adv-x="1218" 
d="M348 475v72q0 102 20 170.5t58 109.5t91.5 58.5t116.5 15.5q64 2 117 -14.5t91 -57.5t58.5 -110.5t20.5 -171.5v-72q0 -102 -20.5 -172t-58.5 -110.5t-91 -57t-117 -14.5q-63 -2 -116.5 15.5t-91.5 58.5t-58 109.5t-20 170.5zM763 1254q8 5 25 18t33.5 31.5t29 42
t11.5 49.5q-2 33 -13.5 61.5t-36 50t-60 33.5t-82.5 12q-51 -1 -98.5 -11t-112.5 -30q5 -21 7 -32.5t6 -54.5q78 36 115 43t75 11q14 0 27.5 -3.5t22.5 -10.5t15.5 -20.5t5.5 -34.5q0 -9 -3 -20.5t-9 -22t-15 -18.5t-25 -14l-30 -16q-22 -7 -39.5 -24t-29.5 -36.5t-18 -40.5
t-6 -40v-69h133v48q2 26 6.5 40.5t11.5 22.5t19.5 15.5t34.5 19.5zM1048 944q29 29 45 58.5t27 64.5q4 16 3 36.5t-9.5 40t-26 35t-45.5 23.5q-47 12 -78 -11.5t-43 -68.5q-6 -16 -3 -34.5t14 -36t32.5 -31.5t52.5 -21q-2 -26 -22 -49q-13 -14 -28 -26q-42 31 -93 55
q-94 43 -230 43q-141 0 -241.5 -43t-164 -113.5t-94 -163t-32.5 -192.5q4 -102 35 -194.5t94.5 -163t162.5 -111.5t240 -41q136 0 231 41t156.5 109.5t91 162t33.5 197.5q-4 100 -34.5 192.5t-91.5 162.5q-17 19 -36 36q32 21 54 43z" />
    <glyph glyph-name="uni1EE0" unicode="&#x1ee0;" horiz-adv-x="1396" 
d="M371 475v588q0 102 31.5 171t82.5 109.5t114.5 58t127.5 15.5q63 2 127.5 -14.5t116 -57t83 -110.5t31.5 -172v-588q0 -102 -31.5 -172t-83 -110.5t-116 -57t-127.5 -14.5q-64 -2 -127.5 15.5t-114.5 58.5t-82.5 109.5t-31.5 170.5zM1067 1890l-31 35
q-27 -31 -65.5 -58.5t-77.5 -27.5q-25 0 -55.5 13.5t-71.5 37.5q-78 52 -137 52q-166 0 -236 -226q6 -6 11 -7t9.5 -2t9.5 -4t9 -13q31 53 68.5 74.5t70.5 21.5q29 0 66 -14.5t84 -40.5q92 -54 149 -54q119 0 197 213zM1103 1450q46 27 75.5 55.5t45.5 58.5t25 65
q5 16 4.5 36.5t-9.5 40t-26 35.5t-46 24q-46 12 -77 -11.5t-44 -69.5q-5 -16 -2 -34t14.5 -35.5t32 -32t53.5 -21.5q-2 -25 -23 -48.5t-47 -41.5l-12 -8q-39 21 -84 37q-109 38 -246 38q-293 0 -447.5 -144.5t-154.5 -394.5v-460q0 -250 154.5 -394.5t447.5 -144.5
q137 0 245.5 38t184.5 107.5t115 169t39 224.5v460q0 125 -39 224.5t-115 169.5q-32 29 -70 53z" />
    <glyph glyph-name="uni1EE1" unicode="&#x1ee1;" 
d="M352 475v72q0 102 20.5 170.5t58 109.5t91 58.5t116.5 15.5q64 2 117 -14.5t91 -57.5t58.5 -110.5t20.5 -171.5v-72q0 -102 -20.5 -172t-58.5 -110.5t-91 -57t-117 -14.5q-63 -2 -116.5 15.5t-91 58.5t-58 109.5t-20.5 170.5zM972 1378l-31 35q-26 -31 -65 -58.5
t-78 -27.5q-24 0 -55 13.5t-72 37.5q-78 52 -137 52q-166 0 -236 -226q7 -6 12 -7t9 -2t9 -4t9 -13q31 53 69 74.5t71 21.5q28 0 65 -14.5t84 -40.5q92 -54 150 -54q118 0 196 213zM1048 944q29 29 45 58.5t27 64.5q4 16 3 36.5t-9.5 40t-26 35t-45.5 23.5q-47 12 -78 -11.5
t-43 -68.5q-6 -16 -3 -34.5t14 -36t32.5 -31.5t52.5 -21q-2 -26 -22 -49q-13 -14 -28 -26q-42 31 -93 55q-94 43 -230 43q-141 0 -241.5 -43t-164 -113.5t-94 -163t-32.5 -192.5q4 -102 35 -194.5t94.5 -163t162.5 -111.5t240 -41q136 0 231 41t156.5 109.5t91 162
t33.5 197.5q-4 100 -34.5 192.5t-91.5 162.5q-17 19 -36 36q32 21 54 43z" />
    <glyph glyph-name="uni1EE2" unicode="&#x1ee2;" horiz-adv-x="1359" 
d="M348 475v588q0 102 31.5 171t82.5 109.5t114.5 58t127.5 15.5q63 2 127.5 -14.5t116 -57t83 -110.5t31.5 -172v-588q0 -102 -31.5 -172t-83 -110.5t-116 -57t-127.5 -14.5q-64 -2 -127.5 15.5t-114.5 58.5t-82.5 109.5t-31.5 170.5zM577 -260q0 -55 37 -91t88 -36
q55 0 93 36t38 91q0 52 -39 88.5t-92 36.5q-49 0 -87 -36.5t-38 -88.5zM1103 1450q46 27 75.5 55.5t45.5 58.5t25 65q5 16 4.5 36.5t-9.5 40t-26 35.5t-46 24q-46 12 -77 -11.5t-44 -69.5q-5 -16 -2 -34t14.5 -35.5t32 -32t53.5 -21.5q-2 -25 -23 -48.5t-47 -41.5
q-12 -8 -22 -15q-45 26 -97 44q-109 38 -246 38q-293 0 -447.5 -144.5t-154.5 -394.5v-460q0 -250 154.5 -394.5t447.5 -144.5q137 0 245.5 38t184.5 107.5t115 169t39 224.5v460q0 125 -39 224.5t-115 169.5q-28 25 -60 46q10 5 19 11z" />
    <glyph glyph-name="uni1EE3" unicode="&#x1ee3;" horiz-adv-x="1218" 
d="M348 475v72q0 102 20 170.5t58 109.5t91.5 58.5t116.5 15.5q64 2 117 -14.5t91 -57.5t58.5 -110.5t20.5 -171.5v-72q0 -102 -20.5 -172t-58.5 -110.5t-91 -57t-117 -14.5q-63 -2 -116.5 15.5t-91.5 58.5t-58 109.5t-20 170.5zM506 -260q0 -55 37 -91t88 -36q55 0 93 36
t38 91q0 52 -39 88.5t-92 36.5q-49 0 -87 -36.5t-38 -88.5zM1048 944q29 29 45 58.5t27 64.5q4 16 3 36.5t-9.5 40t-26 35t-45.5 23.5q-47 12 -78 -11.5t-43 -68.5q-6 -16 -3 -34.5t14 -36t32.5 -31.5t52.5 -21q-2 -26 -22 -49q-13 -14 -28 -26q-42 31 -93 55
q-94 43 -230 43q-141 0 -241.5 -43t-164 -113.5t-94 -163t-32.5 -192.5q4 -102 35 -194.5t94.5 -163t162.5 -111.5t240 -41q136 0 231 41t156.5 109.5t91 162t33.5 197.5q-4 100 -34.5 192.5t-91.5 162.5q-17 19 -36 36q32 21 54 43z" />
    <glyph glyph-name="uni1EE4" unicode="&#x1ee4;" horiz-adv-x="1359" 
d="M1062 475q0 -102 -31.5 -170.5t-83 -109.5t-115 -58.5t-126.5 -15.5q-64 -2 -128.5 14.5t-115.5 57t-82.5 110.5t-31.5 172v1059h-236v-995q0 -125 39 -224.5t114.5 -169t183 -107.5t247.5 -38q293 0 447.5 144.5t154.5 394.5v995h-236v-1059zM577 -260q0 -55 37 -91
t88 -36q55 0 93 36t38 91q0 52 -39 88.5t-92 36.5q-49 0 -87 -36.5t-38 -88.5z" />
    <glyph glyph-name="uni1EE5" unicode="&#x1ee5;" horiz-adv-x="1191" 
d="M348 475v551h-236v-487q0 -125 27.5 -224.5t88 -169t157 -107.5t233.5 -38q248 0 380 144.5t132 394.5v487h-236v-551q0 -102 -20.5 -172t-58 -110.5t-91 -57t-116.5 -14.5q-64 -2 -113 15.5t-82 58.5t-49 109.5t-16 170.5zM493 -260q0 -55 37 -91t88 -36q55 0 93 36
t38 91q0 52 -39 88.5t-92 36.5q-49 0 -87 -36.5t-38 -88.5z" />
    <glyph glyph-name="uni1EE6" unicode="&#x1ee6;" horiz-adv-x="1359" 
d="M1062 475q0 -102 -31.5 -170.5t-83 -109.5t-115 -58.5t-126.5 -15.5q-64 -2 -128.5 14.5t-115.5 57t-82.5 110.5t-31.5 172v1059h-236v-995q0 -125 39 -224.5t114.5 -169t183 -107.5t247.5 -38q293 0 447.5 144.5t154.5 394.5v995h-236v-1059zM853 1766q8 5 25 18
t33.5 31.5t29 42t11.5 49.5q-2 33 -13.5 61.5t-36 50t-60 33.5t-82.5 12q-51 -1 -98.5 -11t-112.5 -30q5 -21 7 -32.5t6 -54.5q78 36 115 43t75 11q14 0 27.5 -3.5t22.5 -10.5t15.5 -20.5t5.5 -34.5q0 -9 -3 -20.5t-9 -22t-15 -18.5t-25 -14l-30 -16q-22 -7 -39.5 -24
t-29.5 -36.5t-18 -40.5t-6 -40v-69h133v48q2 26 6.5 40.5t11.5 22.5t19.5 15.5t34.5 19.5z" />
    <glyph glyph-name="uni1EE7" unicode="&#x1ee7;" horiz-adv-x="1191" 
d="M348 475v551h-236v-487q0 -125 27.5 -224.5t88 -169t157 -107.5t233.5 -38q248 0 380 144.5t132 394.5v487h-236v-551q0 -102 -20.5 -172t-58 -110.5t-91 -57t-116.5 -14.5q-64 -2 -113 15.5t-82 58.5t-49 109.5t-16 170.5zM763 1254q8 5 25 18t33.5 31.5t29 42
t11.5 49.5q-2 33 -13.5 61.5t-36 50t-60 33.5t-82.5 12q-51 -1 -98.5 -11t-112.5 -30q5 -21 7 -32.5t6 -54.5q78 36 115 43t75 11q14 0 27.5 -3.5t22.5 -10.5t15.5 -20.5t5.5 -34.5q0 -9 -3 -20.5t-9 -22t-15 -18.5t-25 -14l-30 -16q-22 -7 -39.5 -24t-29.5 -36.5t-18 -40.5
t-6 -40v-69h133v48q2 26 6.5 40.5t11.5 22.5t19.5 15.5t34.5 19.5z" />
    <glyph glyph-name="uni1EE8" unicode="&#x1ee8;" horiz-adv-x="1366" 
d="M982 2042l-405 -289l33 -63q469 157 481 170q6 4 -109 182zM1370 1506q29 28 45 58t25 65q5 16 4.5 36.5t-9.5 40t-26 35.5t-46 24q-46 12 -77 -11.5t-44 -69.5q-5 -16 -2 -34t14.5 -35.5t32 -32t53.5 -21.5q-2 -25 -23 -48q-9 -11 -19 -20v41h-236v-1059
q0 -102 -31.5 -170.5t-83 -109.5t-115 -58.5t-126.5 -15.5q-64 -2 -128.5 14.5t-115.5 57t-82.5 110.5t-31.5 172v1059h-236v-995q0 -125 39 -224.5t114.5 -169t183 -107.5t247.5 -38q293 0 447.5 144.5t154.5 394.5v913q43 26 72 54z" />
    <glyph glyph-name="uni1EE9" unicode="&#x1ee9;" horiz-adv-x="1196" 
d="M849 1530l-406 -289l33 -63q469 157 481 170q7 4 -108 182zM1163 888q46 27 75.5 55.5t45.5 58.5t25 65q5 16 4.5 36.5t-9.5 40t-26 35.5t-46 24q-46 12 -77 -11.5t-44 -69.5q-5 -16 -2 -34t14.5 -35.5t32 -32t53.5 -21.5q-2 -25 -23 -48.5t-47 -41.5q-5 -4 -10 -7v124
h-235v-551q0 -102 -20.5 -172t-58.5 -110.5t-91 -57t-117 -14.5q-63 -2 -112.5 15.5t-82 58.5t-49 109.5t-16.5 170.5v551h-235v-487q0 -125 27.5 -224.5t88 -169t156.5 -107.5t233 -38q248 0 380 144.5t132 394.5v329q18 10 34 20z" />
    <glyph glyph-name="uni1EEA" unicode="&#x1eea;" horiz-adv-x="1366" 
d="M526 2042q-115 -178 -109 -182q12 -13 481 -170l33 63zM1370 1506q29 28 45 58t25 65q5 16 4.5 36.5t-9.5 40t-26 35.5t-46 24q-46 12 -77 -11.5t-44 -69.5q-5 -16 -2 -34t14.5 -35.5t32 -32t53.5 -21.5q-2 -25 -23 -48q-9 -11 -19 -20v41h-236v-1059
q0 -102 -31.5 -170.5t-83 -109.5t-115 -58.5t-126.5 -15.5q-64 -2 -128.5 14.5t-115.5 57t-82.5 110.5t-31.5 172v1059h-236v-995q0 -125 39 -224.5t114.5 -169t183 -107.5t247.5 -38q293 0 447.5 144.5t154.5 394.5v913q43 26 72 54z" />
    <glyph glyph-name="uni1EEB" unicode="&#x1eeb;" horiz-adv-x="1196" 
d="M388 1534q-115 -176 -106 -182q4 -11 479 -170l31 63zM1163 888q46 27 75.5 55.5t45.5 58.5t25 65q5 16 4.5 36.5t-9.5 40t-26 35.5t-46 24q-46 12 -77 -11.5t-44 -69.5q-5 -16 -2 -34t14.5 -35.5t32 -32t53.5 -21.5q-2 -25 -23 -48.5t-47 -41.5q-5 -4 -10 -7v124h-235
v-551q0 -102 -20.5 -172t-58.5 -110.5t-91 -57t-117 -14.5q-63 -2 -112.5 15.5t-82 58.5t-49 109.5t-16.5 170.5v551h-235v-487q0 -125 27.5 -224.5t88 -169t156.5 -107.5t233 -38q248 0 380 144.5t132 394.5v329q18 10 34 20z" />
    <glyph glyph-name="uni1EEC" unicode="&#x1eec;" horiz-adv-x="1359" 
d="M853 1766q8 5 25 18t33.5 31.5t28.5 42t11 49.5q-1 33 -12.5 61.5t-36 50t-60 33.5t-82.5 12q-51 -1 -99 -11t-112 -30q4 -21 6 -32.5t6 -54.5q79 36 116 43t74 11q15 0 28.5 -3.5t22.5 -10.5t15 -20.5t6 -34.5q0 -9 -3.5 -20.5t-9.5 -22t-15 -18.5t-24 -14l-31 -16
q-21 -7 -38.5 -24t-29.5 -36.5t-18.5 -40.5t-6.5 -40v-69h133v48q3 26 7.5 40.5t11.5 22.5t19.5 15.5t34.5 19.5zM1369 1506q29 28 45 58t25 65q5 16 4.5 36.5t-9.5 40t-26 35.5t-46 24q-46 12 -77 -11.5t-44 -69.5q-5 -16 -2 -34t14.5 -35.5t32 -32t53.5 -21.5
q-2 -25 -23 -48q-9 -11 -19 -20v41h-235v-1059q0 -102 -32 -170.5t-83 -109.5t-114.5 -58.5t-126.5 -15.5q-64 -2 -128.5 14.5t-115.5 57t-83 110.5t-32 172v1059h-235v-995q0 -125 38.5 -224.5t114.5 -169t183.5 -107.5t246.5 -38q293 0 447.5 144.5t154.5 394.5v913
q43 26 72 54z" />
    <glyph glyph-name="uni1EED" unicode="&#x1eed;" horiz-adv-x="1191" 
d="M763 1254q8 5 25 18t33.5 31.5t28.5 42t11 49.5q-1 33 -12.5 61.5t-36 50t-60 33.5t-82.5 12q-51 -1 -99 -11t-112 -30q4 -21 6 -32.5t6 -54.5q79 36 116 43t74 11q15 0 28.5 -3.5t22.5 -10.5t15 -20.5t6 -34.5q0 -9 -3.5 -20.5t-9.5 -22t-15 -18.5t-24 -14l-31 -16
q-21 -7 -38.5 -24t-29.5 -36.5t-18.5 -40.5t-6.5 -40v-69h133v48q3 26 7.5 40.5t11.5 22.5t19.5 15.5t34.5 19.5zM1163 888q46 27 75.5 55.5t45.5 58.5t25 65q5 16 4.5 36.5t-9.5 40t-26 35.5t-46 24q-46 12 -77 -11.5t-44 -69.5q-5 -16 -2 -34t14.5 -35.5t32 -32
t53.5 -21.5q-2 -25 -23 -48.5t-47 -41.5q-5 -4 -10 -7v124h-235v-551q0 -102 -20.5 -172t-58.5 -110.5t-91 -57t-117 -14.5q-63 -2 -112.5 15.5t-82 58.5t-49 109.5t-16.5 170.5v551h-235v-487q0 -125 27.5 -224.5t88 -169t156.5 -107.5t233 -38q248 0 380 144.5t132 394.5
v329q18 10 34 20z" />
    <glyph glyph-name="uni1EEE" unicode="&#x1eee;" horiz-adv-x="1359" 
d="M1066 1890l-31 35q-27 -31 -65.5 -58.5t-77.5 -27.5q-25 0 -55.5 13.5t-71.5 37.5q-78 52 -137 52q-166 0 -236 -226q6 -6 11 -7t9.5 -2t9.5 -4t9 -13q31 53 68.5 74.5t70.5 21.5q29 0 66 -14.5t84 -40.5q92 -54 149 -54q119 0 197 213zM1369 1506q29 28 45 58t25 65
q5 16 4.5 36.5t-9.5 40t-26 35.5t-46 24q-46 12 -77 -11.5t-44 -69.5q-5 -16 -2 -34t14.5 -35.5t32 -32t53.5 -21.5q-2 -25 -23 -48q-9 -11 -19 -20v41h-235v-1059q0 -102 -32 -170.5t-83 -109.5t-114.5 -58.5t-126.5 -15.5q-64 -2 -128.5 14.5t-115.5 57t-83 110.5t-32 172
v1059h-235v-995q0 -125 38.5 -224.5t114.5 -169t183.5 -107.5t246.5 -38q293 0 447.5 144.5t154.5 394.5v913q43 26 72 54z" />
    <glyph glyph-name="uni1EEF" unicode="&#x1eef;" horiz-adv-x="1191" 
d="M1011 1378l-31 35q-27 -31 -65.5 -58.5t-77.5 -27.5q-25 0 -55.5 13.5t-71.5 37.5q-78 52 -137 52q-166 0 -236 -226q6 -6 11 -7t9.5 -2t9.5 -4t9 -13q31 53 68.5 74.5t70.5 21.5q29 0 66 -14.5t84 -40.5q92 -54 149 -54q119 0 197 213zM1163 888q46 27 75.5 55.5
t45.5 58.5t25 65q5 16 4.5 36.5t-9.5 40t-26 35.5t-46 24q-46 12 -77 -11.5t-44 -69.5q-5 -16 -2 -34t14.5 -35.5t32 -32t53.5 -21.5q-2 -25 -23 -48.5t-47 -41.5q-5 -4 -10 -7v124h-235v-551q0 -102 -20.5 -172t-58.5 -110.5t-91 -57t-117 -14.5q-63 -2 -112.5 15.5
t-82 58.5t-49 109.5t-16.5 170.5v551h-235v-487q0 -125 27.5 -224.5t88 -169t156.5 -107.5t233 -38q248 0 380 144.5t132 394.5v329q18 10 34 20z" />
    <glyph glyph-name="uni1EF0" unicode="&#x1ef0;" horiz-adv-x="1359" 
d="M577 -260q0 -55 36.5 -91t87.5 -36q56 0 94 36t38 91q0 52 -39 88.5t-93 36.5q-49 0 -86.5 -36.5t-37.5 -88.5zM1369 1506q29 28 45 58t25 65q5 16 4.5 36.5t-9.5 40t-26 35.5t-46 24q-46 12 -77 -11.5t-44 -69.5q-5 -16 -2 -34t14.5 -35.5t32 -32t53.5 -21.5
q-2 -25 -23 -48q-9 -11 -19 -20v41h-235v-1059q0 -102 -32 -170.5t-83 -109.5t-114.5 -58.5t-126.5 -15.5q-64 -2 -128.5 14.5t-115.5 57t-83 110.5t-32 172v1059h-235v-995q0 -125 38.5 -224.5t114.5 -169t183.5 -107.5t246.5 -38q293 0 447.5 144.5t154.5 394.5v913
q43 26 72 54z" />
    <glyph glyph-name="uni1EF1" unicode="&#x1ef1;" horiz-adv-x="1191" 
d="M493 -260q0 -55 36.5 -91t87.5 -36q56 0 94 36t38 91q0 52 -39 88.5t-93 36.5q-49 0 -86.5 -36.5t-37.5 -88.5zM1129 1026h-235v-551q0 -102 -20.5 -172t-58.5 -110.5t-91 -57t-117 -14.5q-63 -2 -112.5 15.5t-82 58.5t-49 109.5t-16.5 170.5v551h-235v-487
q0 -125 27.5 -224.5t88 -169t156.5 -107.5t233 -38q248 0 380 144.5t132 394.5v329q18 10 34 20q46 27 75.5 55.5t45.5 58.5t25 65q5 16 4.5 36.5t-9.5 40t-26 35.5t-46 24q-46 12 -77 -11.5t-44 -69.5q-5 -16 -2 -34t14.5 -35.5t32 -32t53.5 -21.5q-2 -25 -23 -48.5
t-47 -41.5q-5 -4 -10 -7v124z" />
    <glyph glyph-name="Ygrave" unicode="&#x1ef2;" horiz-adv-x="1339" 
d="M338 1001v535h-236v-471q0 -223 123 -362.5t356 -170.5v-534h236v534q225 29 348 169.5t123 363.5v471h-236v-535q0 -102 -31.5 -171.5t-83 -110.5t-116 -57.5t-127.5 -14.5q-64 -2 -127.5 15.5t-114.5 58.5t-82.5 109.5t-31.5 170.5zM303 1860q12 -13 481 -170l33 63
l-406 289q-114 -178 -108 -182z" />
    <glyph glyph-name="ygrave" unicode="&#x1ef3;" horiz-adv-x="1196" 
d="M989 -223q-5 47 -18 82t-37.5 61.5t-59.5 50t-82 47.5q27 11 51.5 16t48.5 21q119 64 178.5 187t59.5 297v489h-236v-553q0 -102 -18.5 -172t-53 -110.5t-85 -57t-113.5 -14.5q-63 -2 -114.5 15.5t-87.5 58.5t-55 109.5t-19 170.5v553h-236v-489q0 -209 85 -345.5
t271 -177.5q47 -10 94.5 -20t87.5 -30.5t66.5 -53.5t34.5 -86v-47t1 -78t1 -76t-2 -41h235q0 -6 1.5 13.5t1.5 50.5v65v64zM348 1348q12 -13 481 -170l33 63l-405 289q-115 -178 -109 -182z" />
    <glyph glyph-name="uni1EF4" unicode="&#x1ef4;" horiz-adv-x="1339" 
d="M338 1001v535h-236v-471q0 -223 123 -362.5t356 -170.5v-534h236v534q225 29 348 169.5t123 363.5v471h-236v-535q0 -102 -31.5 -171.5t-83 -110.5t-116 -57.5t-127.5 -14.5q-64 -2 -127.5 15.5t-114.5 58.5t-82.5 109.5t-31.5 170.5zM577 -260q0 -55 37 -91t88 -36
q55 0 93 36t38 91q0 52 -39 88.5t-92 36.5q-49 0 -87 -36.5t-38 -88.5z" />
    <glyph glyph-name="uni1EF5" unicode="&#x1ef5;" horiz-adv-x="1191" 
d="M989 -223q-5 47 -18 82t-37.5 61.5t-59.5 50t-82 47.5q27 11 51.5 16t48.5 21q119 64 178.5 187t59.5 297v489h-236v-553q0 -102 -18.5 -172t-53 -110.5t-85 -57t-113.5 -14.5q-63 -2 -114.5 15.5t-87.5 58.5t-55 109.5t-19 170.5v553h-236v-489q0 -209 85 -345.5
t271 -177.5q47 -10 94.5 -20t87.5 -30.5t66.5 -53.5t34.5 -86v-47t1 -78t1 -76t-2 -41h235q0 -6 1.5 13.5t1.5 50.5v65v64zM386 -260q0 -55 37 -91t88 -36q55 0 93 36t38 91q0 52 -39 88.5t-92 36.5q-49 0 -87 -36.5t-38 -88.5z" />
    <glyph glyph-name="uni1EF6" unicode="&#x1ef6;" horiz-adv-x="1339" 
d="M338 1001v535h-236v-471q0 -223 123 -362.5t356 -170.5v-534h236v534q225 29 348 169.5t123 363.5v471h-236v-535q0 -102 -31.5 -171.5t-83 -110.5t-116 -57.5t-127.5 -14.5q-64 -2 -127.5 15.5t-114.5 58.5t-82.5 109.5t-31.5 170.5zM853 1766q9 5 25.5 18t33 31.5
t29 42t11.5 49.5q-1 33 -13 61.5t-36 50t-60 33.5t-83 12q-50 -1 -98 -11t-112 -30q4 -21 6 -32.5t6 -54.5q78 36 115.5 43t74.5 11q15 0 28 -3.5t22.5 -10.5t15.5 -20.5t5 -34.5q0 -9 -3 -20.5t-9 -22t-15 -18.5t-25 -14l-30 -16q-22 -7 -39.5 -24t-29.5 -36.5t-18 -40.5
t-6 -40v-69h133v48q3 26 7 40.5t11 22.5t19.5 15.5t34.5 19.5z" />
    <glyph glyph-name="uni1EF7" unicode="&#x1ef7;" horiz-adv-x="1191" 
d="M989 -223q-5 47 -18 82t-37.5 61.5t-59.5 50t-82 47.5q27 11 51.5 16t48.5 21q119 64 178.5 187t59.5 297v489h-236v-553q0 -102 -18.5 -172t-53 -110.5t-85 -57t-113.5 -14.5q-63 -2 -114.5 15.5t-87.5 58.5t-55 109.5t-19 170.5v553h-236v-489q0 -209 85 -345.5
t271 -177.5q47 -10 94.5 -20t87.5 -30.5t66.5 -53.5t34.5 -86v-47t1 -78t1 -76t-2 -41h235q0 -6 1.5 13.5t1.5 50.5v65v64zM763 1254q8 5 25 18t33.5 31.5t29 42t11.5 49.5q-2 33 -13.5 61.5t-36 50t-60 33.5t-82.5 12q-51 -1 -98.5 -11t-112.5 -30q5 -21 7 -32.5t6 -54.5
q78 36 115 43t75 11q14 0 27.5 -3.5t22.5 -10.5t15.5 -20.5t5.5 -34.5q0 -9 -3 -20.5t-9 -22t-15 -18.5t-25 -14l-30 -16q-22 -7 -39.5 -24t-29.5 -36.5t-18 -40.5t-6 -40v-69h133v48q2 26 6.5 40.5t11.5 22.5t19.5 15.5t34.5 19.5z" />
    <glyph glyph-name="uni1EF8" unicode="&#x1ef8;" horiz-adv-x="1339" 
d="M338 1001v535h-236v-471q0 -223 123 -362.5t356 -170.5v-534h236v534q225 29 348 169.5t123 363.5v471h-236v-535q0 -102 -31.5 -171.5t-83 -110.5t-116 -57.5t-127.5 -14.5q-64 -2 -127.5 15.5t-114.5 58.5t-82.5 109.5t-31.5 170.5zM1066 1890l-30 35
q-27 -31 -66 -58.5t-78 -27.5q-24 0 -55 13.5t-72 37.5q-77 52 -137 52q-166 0 -235 -226q6 -6 11 -7t9 -2t9 -4t10 -13q30 53 68 74.5t71 21.5q28 0 65 -14.5t84 -40.5q92 -54 150 -54q119 0 196 213z" />
    <glyph glyph-name="uni1EF9" unicode="&#x1ef9;" horiz-adv-x="1191" 
d="M989 -223q-5 47 -18 82t-37.5 61.5t-59.5 50t-82 47.5q27 11 51.5 16t48.5 21q119 64 178.5 187t59.5 297v489h-236v-553q0 -102 -18.5 -172t-53 -110.5t-85 -57t-113.5 -14.5q-63 -2 -114.5 15.5t-87.5 58.5t-55 109.5t-19 170.5v553h-236v-489q0 -209 85 -345.5
t271 -177.5q47 -10 94.5 -20t87.5 -30.5t66.5 -53.5t34.5 -86v-47t1 -78t1 -76t-2 -41h235q0 -6 1.5 13.5t1.5 50.5v65v64zM1011 1378l-31 35q-26 -31 -65 -58.5t-78 -27.5q-24 0 -55 13.5t-72 37.5q-78 52 -137 52q-166 0 -236 -226q7 -6 12 -7t9 -2t9 -4t9 -13
q31 53 69 74.5t71 21.5q28 0 65 -14.5t84 -40.5q92 -54 150 -54q118 0 196 213z" />
    <glyph glyph-name="quoteleft" unicode="&#x2018;" horiz-adv-x="362" 
d="M51 1536l260 -412h57l-137 412h-180z" />
    <glyph glyph-name="quoteright" unicode="&#x2019;" horiz-adv-x="362" 
d="M366 1536h-180l-137 -412h57z" />
    <glyph glyph-name="quotedblleft" unicode="&#x201c;" horiz-adv-x="667" 
d="M79 1536l285 -412h57l-162 412h-180zM355 1536l261 -412h57l-137 412h-181z" />
    <glyph glyph-name="quotedblright" unicode="&#x201d;" horiz-adv-x="667" 
d="M673 1536h-180l-162 -412h57zM396 1536h-180l-137 -412h57z" />
    <glyph glyph-name="ellipsis" unicode="&#x2026;" horiz-adv-x="1150" 
d="M225 236q-66 0 -93.5 -36t-29.5 -83q2 -47 29.5 -82t93.5 -35q61 0 88 35t31 82q-4 47 -31 83t-88 36zM614 236q-66 0 -93.5 -36t-29.5 -83q2 -47 29.5 -82t93.5 -35q61 0 88 35t31 82q-4 47 -31 83t-88 36zM989 240q-66 0 -93.5 -36t-29.5 -83q2 -47 29.5 -82t93.5 -35
q61 0 87.5 35t31.5 82q-5 47 -31.5 83t-87.5 36z" />
    <glyph glyph-name="ugrave" horiz-adv-x="582" 
 />
    <glyph glyph-name="uacute" horiz-adv-x="580" 
 />
    <glyph glyph-name="yacute" horiz-adv-x="629" 
 />
    </font>
</defs>
</svg>
