<svg width="36" height="36" viewBox="0 0 36 36" fill="none" xmlns="http://www.w3.org/2000/svg">
<g id="credit-card (1) 1" clip-path="url(#clip0_1_485)">
<g id="Group">
<path id="Vector" d="M35.3602 6.80836C34.8938 6.25697 34.2406 5.92018 33.5208 5.86006L8.16923 3.74324C7.44937 3.68312 6.74948 3.90693 6.19802 4.37331C5.64881 4.83786 5.31251 5.48776 5.2505 6.20403L4.74045 10.9892H2.70386C1.21296 10.9892 0 12.2022 0 13.6931V29.5627C0 31.0536 1.21296 32.2665 2.70386 32.2665H28.1437C29.6347 32.2665 30.8477 31.0536 30.8477 29.5627V26.9883L31.7504 27.0637C31.8265 27.07 31.9023 27.0732 31.9774 27.0732C33.3673 27.0732 34.5522 26.0038 34.6699 24.5942L35.9904 8.77963C36.0505 8.05985 35.8267 7.35982 35.3602 6.80836ZM2.70386 12.3954H28.1437C28.8592 12.3954 29.4414 12.9776 29.4414 13.6931V15.1391H1.40624V13.6931C1.40624 12.9776 1.98836 12.3954 2.70386 12.3954ZM1.40624 16.5453H29.4414V19.4625H1.40624V16.5453ZM28.1437 30.8603H2.70386C1.98836 30.8603 1.40624 30.2782 1.40624 29.5627V20.8688H29.4414V29.5627C29.4414 30.2782 28.8592 30.8603 28.1437 30.8603ZM34.589 8.66256L33.2685 24.4771C33.209 25.1902 32.5803 25.7221 31.8674 25.6623L30.8477 25.5772V13.6931C30.8477 12.2022 29.6347 10.9892 28.1437 10.9892H6.15471L6.64964 6.34578C6.6502 6.34043 6.65069 6.33516 6.65111 6.32974C6.71067 5.61671 7.33898 5.08487 8.05223 5.14463L33.4039 7.26145C33.7493 7.29028 34.0628 7.45193 34.2866 7.71658C34.5104 7.98124 34.6179 8.31712 34.589 8.66256Z" fill="black"/>
<path id="Vector_2" d="M26.4994 22.9592H19.7324C19.3441 22.9592 19.0293 23.274 19.0293 23.6624V28.0772C19.0293 28.4655 19.3441 28.7803 19.7324 28.7803H26.4994C26.8878 28.7803 27.2026 28.4655 27.2026 28.0772V23.6624C27.2026 23.274 26.8878 22.9592 26.4994 22.9592ZM25.7963 27.3741H20.4355V24.3655H25.7963V27.3741Z" fill="black"/>
</g>
</g>
<defs>
<clipPath id="clip0_1_485">
<rect width="36" height="36" fill="white"/>
</clipPath>
</defs>
</svg>
