<svg width="14" height="14" viewBox="0 0 14 14" fill="none" xmlns="http://www.w3.org/2000/svg">
<g id="gmail 1" clip-path="url(#clip0_1_59)">
<g id="Group">
<path id="Vector" d="M0.954543 12.2512H3.18183V6.84215L1.72337 4.29541L0 4.45578V11.2967C0 11.8241 0.427164 12.2512 0.954543 12.2512Z" fill="#0085F7"/>
<path id="Vector_2" d="M10.8164 12.2515H13.0437C13.5711 12.2515 13.9982 11.8243 13.9982 11.2969V4.45603L12.2774 4.29565L10.8164 6.8424V12.2515H10.8164Z" fill="#00A94B"/>
<path id="Vector_3" d="M10.82 2.70589L9.51172 5.20246L10.82 6.84226L14.0019 4.45589V3.18317C14.0019 2.00351 12.6552 1.32976 11.7109 2.03772L10.82 2.70589Z" fill="#FFBC00"/>
<path id="Vector_4" fill-rule="evenodd" clip-rule="evenodd" d="M3.18418 6.84218L1.9375 4.20871L3.18418 2.70581L7.00236 5.56944L10.8205 2.70581V6.84218L7.00236 9.70581L3.18418 6.84218Z" fill="#FF4131"/>
<path id="Vector_5" d="M0 3.18317V4.45589L3.18183 6.84226V2.70589L2.29091 2.03772C1.34671 1.32976 0 2.00351 0 3.18317Z" fill="#E51C19"/>
</g>
</g>
<defs>
<clipPath id="clip0_1_59">
<rect width="14" height="14" fill="white"/>
</clipPath>
</defs>
</svg>
