<svg width="36" height="36" viewBox="0 0 36 36" fill="none" xmlns="http://www.w3.org/2000/svg">
<g id="quality 1" clip-path="url(#clip0_1_478)">
<path id="Vector" d="M22.0725 14.656L16.6635 19.7649L14.0676 17.0943C13.7798 16.798 13.3059 16.7912 13.0099 17.079C12.7136 17.3671 12.7069 17.8407 12.9947 18.137L16.1082 21.3331C16.3974 21.6241 16.8648 21.634 17.1661 21.3553L23.1155 15.7438C23.26 15.6076 23.3444 15.4194 23.35 15.221C23.3555 15.0226 23.282 14.8301 23.1454 14.6859C22.8559 14.3849 22.3785 14.3717 22.0725 14.656Z" fill="black"/>
<path id="Vector_2" d="M18.058 6.79346C11.8762 6.79346 6.84964 11.82 6.84964 18.0018C6.84964 24.1839 11.8762 29.2105 18.058 29.2105C24.2401 29.2105 29.2667 24.1839 29.2667 18.0018C29.2667 11.82 24.2401 6.79346 18.058 6.79346ZM18.058 27.7101C12.7015 27.7101 8.35011 23.3511 8.35011 18.0018C8.35011 12.6526 12.7015 8.29393 18.058 8.29393C23.4199 8.29393 27.7662 12.6403 27.7662 18.0018C27.7662 23.3634 23.4199 27.7101 18.058 27.7101Z" fill="black"/>
<path id="Vector_3" d="M33.4837 13.8756L33.7313 9.42665C33.7486 9.12802 33.5862 8.84757 33.3187 8.71393L29.3574 6.71086L27.3543 2.74957C27.218 2.48435 26.9393 2.32287 26.6416 2.33694L22.185 2.57725L18.4714 0.123745C18.2211 -0.0412482 17.8967 -0.0412482 17.6461 0.123745L13.9324 2.57725L9.48378 2.32961C9.18486 2.31203 8.90469 2.47438 8.77106 2.74224L6.7677 6.70354L2.80669 8.7066C2.54118 8.84258 2.38 9.12128 2.39406 9.41933L2.64141 13.8683L0.188198 17.5819C0.0232049 17.8322 0.0232049 18.1566 0.188198 18.4072L2.63408 22.1282L2.38644 26.5771C2.36915 26.8758 2.53122 27.1562 2.79907 27.2899L6.76037 29.2929L8.76344 33.2542C8.89942 33.5197 9.17812 33.6809 9.47616 33.6668L13.9251 33.4192L17.6388 35.8724C17.8876 36.0427 18.2152 36.0427 18.464 35.8724L22.1777 33.4192L26.6266 33.6668C26.9253 33.6841 27.2054 33.5218 27.3394 33.2542L29.3424 29.2929L33.3037 27.2899C33.5689 27.1536 33.7304 26.8752 33.7164 26.5771L33.4687 22.1282L35.9219 18.4145C36.0869 18.1642 36.0869 17.8395 35.9219 17.5893L33.4837 13.8756ZM32.0881 21.513C31.9967 21.6473 31.9542 21.8087 31.9682 21.9708L32.2006 26.1795L28.4571 28.07C28.3144 28.1415 28.1986 28.2575 28.1271 28.4003L26.2363 32.1438L22.0276 31.9114C21.8665 31.9056 21.7073 31.9472 21.5699 32.0313L18.0587 34.3497L14.5479 32.0313C14.4259 31.9489 14.2823 31.9044 14.1352 31.9038H14.0977L9.88879 32.1365L7.99826 28.3926C7.92675 28.2499 7.81099 28.1342 7.66798 28.0627L3.9168 26.1795L4.14949 21.9708C4.15536 21.8096 4.11345 21.6505 4.02934 21.513L1.71123 18.0019L4.02934 14.4907C4.12107 14.3568 4.16356 14.195 4.14949 14.0333L3.9168 9.82434L7.66065 7.9338C7.80337 7.8623 7.91913 7.74654 7.99064 7.60382L9.88117 3.85997L14.0901 4.09266C14.251 4.09823 14.4101 4.05661 14.5479 3.97251L18.0587 1.6544L21.5699 3.97251C21.7041 4.06423 21.8659 4.10673 22.0276 4.09266L26.2363 3.85997L28.1271 7.60382C28.1986 7.74654 28.3144 7.8623 28.4571 7.9338L32.2006 9.82434L31.9682 14.0333C31.9624 14.1942 32.0043 14.3533 32.0881 14.4907L34.4065 18.0019L32.0881 21.513Z" fill="black"/>
</g>
<defs>
<clipPath id="clip0_1_478">
<rect width="36" height="36" fill="white"/>
</clipPath>
</defs>
</svg>
