<svg width="42" height="42" viewBox="0 0 42 42" fill="none" xmlns="http://www.w3.org/2000/svg">
<g id="rating 2" clip-path="url(#clip0_1_489)">
<g id="Mask group">
<mask id="mask0_1_489" style="mask-type:luminance" maskUnits="userSpaceOnUse" x="0" y="-1" width="42" height="43">
<g id="Group">
<path id="bg" d="M41.6687 -0.000244141H0.00200653V41.6664H41.6687V-0.000244141Z" fill="white"/>
<g id="Group_2">
<path id="path651" d="M20.8355 32.2264C21.2847 32.2264 21.6493 32.591 21.6493 33.0402C21.6493 33.4894 21.2847 33.854 20.8355 33.854C20.3863 33.854 20.0217 33.4894 20.0217 33.0402C20.0217 32.591 20.3863 32.2264 20.8355 32.2264Z" fill="white"/>
</g>
</g>
</mask>
<g mask="url(#mask0_1_489)">
<g id="Group_3">
<g id="g639">
<g id="g641">
<g id="Clip path group">
<mask id="mask1_1_489" style="mask-type:luminance" maskUnits="userSpaceOnUse" x="0" y="-1" width="42" height="43">
<g id="clipPath647">
<path id="path645" d="M0.00227356 -0.000423431H41.669V41.6663H0.00227356V-0.000423431Z" fill="white"/>
</g>
</mask>
<g mask="url(#mask1_1_489)">
<g id="g643">
<g id="g649">
<path id="path651_2" d="M20.8336 32.2262C21.2828 32.2262 21.6474 32.5907 21.6474 33.04C21.6474 33.4892 21.2828 33.8538 20.8336 33.8538C20.3843 33.8538 20.0198 33.4892 20.0198 33.04C20.0198 32.5907 20.3843 32.2262 20.8336 32.2262Z" fill="black"/>
</g>
<g id="g653">
<path id="path655" d="M38.1675 25.7159C38.1675 27.9628 36.3454 29.7849 34.0985 29.7849C31.8516 29.7849 30.0295 27.9628 30.0295 25.7159C30.0295 23.469 31.8516 21.6469 34.0985 21.6469C36.3454 21.6469 38.1675 23.469 38.1675 25.7159Z" stroke="black" stroke-width="1.6276" stroke-miterlimit="10" stroke-linecap="round" stroke-linejoin="round"/>
</g>
<g id="g657">
<path id="path659" d="M11.8804 39.5505H0.812721V37.9229C0.812721 34.3276 3.9719 31.4125 7.56728 31.4125C9.76536 31.4125 11.9529 32.5014 13.1312 34.1697" stroke="black" stroke-width="1.6276" stroke-miterlimit="10" stroke-linecap="round" stroke-linejoin="round"/>
</g>
<g id="g661">
<path id="path663" d="M28.5352 34.1697C29.7136 32.5014 31.9011 31.4125 34.0992 31.4125C37.6946 31.4125 40.8537 34.3276 40.8537 37.9229V39.5505H29.786" stroke="black" stroke-width="1.6276" stroke-miterlimit="10" stroke-linecap="round" stroke-linejoin="round"/>
</g>
<g id="g665">
<path id="path667" d="M11.6362 25.7159C11.6362 27.9628 9.81409 29.7849 7.56718 29.7849C5.32027 29.7849 3.49817 27.9628 3.49817 25.7159C3.49817 23.469 5.32027 21.6469 7.56718 21.6469C9.81409 21.6469 11.6362 23.469 11.6362 25.7159Z" stroke="black" stroke-width="1.6276" stroke-miterlimit="10" stroke-linecap="round" stroke-linejoin="round"/>
</g>
<g id="g669">
<path id="path671" d="M26.5302 22.4606C26.5302 25.6068 23.9797 28.1572 20.8336 28.1572C17.6874 28.1572 15.1369 25.6068 15.1369 22.4606C15.1369 19.3144 17.6874 16.764 20.8336 16.764C23.9797 16.764 26.5302 19.3144 26.5302 22.4606Z" stroke="black" stroke-width="1.6276" stroke-miterlimit="10" stroke-linecap="round" stroke-linejoin="round"/>
</g>
<g id="g673">
<path id="path675" d="M20.8033 2.11547L19.043 5.71492L15.1075 6.28621L17.9558 9.06209L17.2836 12.9822L20.8033 11.1316C22.1257 11.8266 23.0389 12.3067 24.3239 12.9822L23.6508 9.06209L26.4991 6.28621L22.5635 5.71492L20.8033 2.11547Z" stroke="black" stroke-width="1.6276" stroke-miterlimit="10" stroke-linecap="round" stroke-linejoin="round"/>
</g>
<g id="g677">
<path id="path679" d="M34.6071 15.8354L37.1128 17.1521L36.6343 14.3624L38.6614 12.3857L35.8596 11.9788L34.6071 9.43969L33.3539 11.9788L30.5519 12.3857L32.5791 14.3624L32.1006 17.1521L34.6071 15.8354Z" stroke="black" stroke-width="1.6276" stroke-miterlimit="10" stroke-linecap="round" stroke-linejoin="round"/>
</g>
<g id="g681">
<path id="path683" d="M6.94161 15.8354L9.44731 17.1521L8.9688 14.3624L10.996 12.3857L8.19406 11.9788L6.94161 9.43969L5.68836 11.9788L2.88644 12.3857L4.91362 14.3624L4.4351 17.1521L6.94161 15.8354Z" stroke="black" stroke-width="1.6276" stroke-miterlimit="10" stroke-linecap="round" stroke-linejoin="round"/>
</g>
<g id="g685">
<path id="path687" d="M29.7847 39.5505H11.881V38.7367C11.881 37.0684 12.3376 35.5068 13.1318 34.1697C14.6927 31.5443 17.5573 29.7849 20.8329 29.7849C23.3052 29.7849 25.5431 30.7867 27.1626 32.407C27.6891 32.9335 28.1506 33.5251 28.5339 34.1697C29.3281 35.5068 29.7847 37.0684 29.7847 38.7367V39.5505Z" stroke="black" stroke-width="1.6276" stroke-miterlimit="10" stroke-linecap="round" stroke-linejoin="round"/>
</g>
<g id="g689">
<path id="path691" d="M23.9534 33.9718C24.8241 34.5439 25.5297 35.3479 25.9805 36.2952" stroke="black" stroke-width="1.6276" stroke-miterlimit="10" stroke-linecap="round" stroke-linejoin="round"/>
</g>
</g>
</g>
</g>
</g>
</g>
</g>
</g>
</g>
</g>
<defs>
<clipPath id="clip0_1_489">
<rect width="41.6667" height="41.6667" fill="white"/>
</clipPath>
</defs>
</svg>
