<svg width="45" height="45" viewBox="0 0 45 45" fill="none" xmlns="http://www.w3.org/2000/svg">
<g id="shipped 1">
<g id="Group">
<g id="Group_2">
<path id="Vector" d="M41.8498 20.3346L40.6845 15.6733C41.0031 15.6056 41.2421 15.3229 41.2421 14.9843V14.2328C41.2421 12.601 39.9146 11.2735 38.2829 11.2735H32.975V9.72326C32.975 8.92029 32.3218 8.26709 31.5188 8.26709H4.46238C3.65941 8.26709 3.00621 8.92029 3.00621 9.72326V22.4999C3.00621 22.889 3.32165 23.2045 3.71083 23.2045C4.09992 23.2045 4.41545 22.8891 4.41545 22.4999V9.72326C4.41545 9.69733 4.43645 9.67633 4.46238 9.67633H31.5187C31.5446 9.67633 31.5657 9.69733 31.5657 9.72326V22.5001C31.5657 22.8892 31.8811 23.2047 32.2703 23.2047C32.6594 23.2047 32.9749 22.8893 32.9749 22.5001V21.7013H41.2866C41.2873 21.7013 41.2878 21.7015 41.2885 21.7015C41.2892 21.7015 41.2898 21.7014 41.2904 21.7014C42.3132 21.7021 43.1816 22.3734 43.4799 23.2985H41.289C40.8999 23.2985 40.5844 23.6139 40.5844 24.0031V25.5062C40.5844 26.7236 41.5747 27.7139 42.7921 27.7139H43.5907V30.8141H41.7483C41.1431 29.0666 39.4819 27.8078 37.5311 27.8078C35.5804 27.8078 33.9191 29.0666 33.314 30.8141H32.9747V25.5061C32.9747 25.117 32.6593 24.8015 32.2701 24.8015C31.881 24.8015 31.5655 25.117 31.5655 25.5061V30.8139H16.9468C16.3416 29.0664 14.6804 27.8076 12.7296 27.8076C10.7789 27.8076 9.1176 29.0664 8.51247 30.8139H4.46238C4.43645 30.8139 4.41545 30.7929 4.41545 30.767V29.2169H7.46868C7.85777 29.2169 8.1733 28.9014 8.1733 28.5123C8.1733 28.1231 7.85786 27.8076 7.46868 27.8076H0.704619C0.315527 27.8076 0 28.1231 0 28.5123C0 28.9014 0.315439 29.2169 0.704619 29.2169H3.0063V30.767C3.0063 31.57 3.6595 32.2232 4.46247 32.2232H8.26849C8.26831 32.2388 8.26726 32.2544 8.26726 32.2701C8.26726 34.7307 10.2691 36.7325 12.7296 36.7325C15.1901 36.7325 17.192 34.7307 17.192 32.2701C17.192 32.2543 17.191 32.2388 17.1908 32.2232H33.07C33.0698 32.2388 33.0688 32.2544 33.0688 32.2701C33.0688 34.7307 35.0706 36.7325 37.5311 36.7325C39.9916 36.7325 41.9935 34.7307 41.9935 32.2701C41.9935 32.2543 41.9925 32.2388 41.9923 32.2232H44.2953C44.6844 32.2232 44.9999 31.9077 44.9999 31.5186V24.0029C45 22.1474 43.6309 20.6057 41.8498 20.3346ZM32.975 12.6826H38.2829C39.1376 12.6826 39.833 13.378 39.833 14.2328V14.2797H32.975V12.6826ZM32.975 20.2922V15.6888H39.2359L40.3867 20.2922H32.975ZM12.7296 35.3235C11.0461 35.3235 9.67641 33.9539 9.67641 32.2703C9.67641 30.5867 11.0461 29.2171 12.7296 29.2171C14.4132 29.2171 15.7829 30.5867 15.7829 32.2703C15.7829 33.9539 14.4132 35.3235 12.7296 35.3235ZM37.5313 35.3235C35.8478 35.3235 34.4781 33.9539 34.4781 32.2703C34.4781 30.5867 35.8478 29.2171 37.5313 29.2171C39.2149 29.2171 40.5845 30.5867 40.5845 32.2703C40.5845 33.9539 39.2149 35.3235 37.5313 35.3235ZM43.5908 26.3047H42.7923C42.3519 26.3047 41.9937 25.9465 41.9937 25.5061V24.7076H43.5908V26.3047H43.5908Z" fill="black"/>
</g>
</g>
<g id="Group_3">
<g id="Group_4">
<path id="Vector_2" d="M12.7296 30.8142C11.9266 30.8142 11.2734 31.4674 11.2734 32.2704C11.2734 33.0734 11.9266 33.7266 12.7296 33.7266C13.5326 33.7266 14.1858 33.0734 14.1858 32.2704C14.1858 31.4674 13.5326 30.8142 12.7296 30.8142Z" fill="black"/>
</g>
</g>
<g id="Group_5">
<g id="Group_6">
<path id="Vector_3" d="M37.5304 30.8142C36.7274 30.8142 36.0742 31.4674 36.0742 32.2704C36.0742 33.0734 36.7274 33.7266 37.5304 33.7266C38.3334 33.7266 38.9866 33.0734 38.9866 32.2704C38.9866 31.4674 38.3334 30.8142 37.5304 30.8142Z" fill="black"/>
</g>
</g>
<g id="Group_7">
<g id="Group_8">
<path id="Vector_4" d="M29.2636 27.8081H18.7417C18.3526 27.8081 18.0371 28.1235 18.0371 28.5127C18.0371 28.9019 18.3525 29.2173 18.7417 29.2173H29.2636C29.6527 29.2173 29.9683 28.9019 29.9683 28.5127C29.9683 28.1235 29.6528 27.8081 29.2636 27.8081Z" fill="black"/>
</g>
</g>
<g id="Group_9">
<g id="Group_10">
<path id="Vector_5" d="M11.2273 24.8018H2.20853C1.81943 24.8018 1.50391 25.1172 1.50391 25.5064C1.50391 25.8956 1.81935 26.211 2.20853 26.211H11.2273C11.6164 26.211 11.932 25.8956 11.932 25.5064C11.932 25.1172 11.6164 24.8018 11.2273 24.8018Z" fill="black"/>
</g>
</g>
<g id="Group_11">
<g id="Group_12">
<path id="Vector_6" d="M24.5021 15.2376C24.227 14.9625 23.7807 14.9625 23.5056 15.2377L17.2397 21.5035L13.9801 18.2439C13.705 17.9687 13.2588 17.9687 12.9837 18.2439C12.7085 18.519 12.7085 18.9651 12.9837 19.2403L16.7416 22.9981C16.8791 23.1358 17.0595 23.2045 17.2397 23.2045C17.42 23.2045 17.6005 23.1358 17.7379 22.9981L24.502 16.2341C24.7772 15.9588 24.7772 15.5127 24.5021 15.2376Z" fill="black"/>
</g>
</g>
</g>
</svg>
