<svg width="20" height="19" viewBox="0 0 20 19" fill="none" xmlns="http://www.w3.org/2000/svg">
<g id="zalo-seeklogo 1" clip-path="url(#clip0_1_69)">
<path id="Vector" d="M3.59139 16.5549C3.51316 16.5201 3.45666 16.481 3.54793 16.4028C3.60443 16.3593 3.66528 16.3202 3.72613 16.2811C4.2955 15.9116 4.83009 15.5074 5.18214 14.912C5.47769 14.4165 5.42988 14.1253 5.06045 13.7602C3.00029 11.7001 2.09626 9.23571 2.54828 6.32368C2.80471 4.68077 3.55662 3.25953 4.65189 2.02518C5.31253 1.27761 6.09922 0.673473 6.95979 0.169301C7.01194 0.138877 7.08583 0.130184 7.09452 0.0519506C7.07714 0.00848745 7.04671 0.0215264 7.02063 0.0215264C5.55593 0.0215264 4.09122 -0.0088978 2.63086 0.030219C1.23135 0.0736821 0.0230702 1.15591 0.0274165 2.70755C0.0361091 7.24075 0.0274165 11.774 0.0274165 16.3115C0.0274165 17.7197 1.10096 18.8976 2.50481 18.9497C3.69136 18.9975 4.8779 18.9584 6.06879 18.9541C6.15572 18.9584 6.24264 18.9628 6.32957 18.9628H12.6056C14.1703 18.9628 15.735 18.9714 17.2997 18.9628C18.7513 18.9628 19.9292 17.7893 19.9292 16.3419V16.3159V13.7733C19.9292 13.7124 19.9509 13.6472 19.9118 13.582C19.8336 13.5864 19.8031 13.6516 19.7597 13.695C18.9165 14.5426 17.9212 15.2249 16.8303 15.7074C14.1573 16.8852 11.4365 16.9678 8.67658 16.0203C8.43753 15.9334 8.17675 15.9247 7.92901 15.9855C7.56392 16.0768 7.20318 16.1855 6.84243 16.2941C5.78193 16.6244 4.6997 16.7722 3.59139 16.5549ZM6.74247 9.23136C6.81636 9.13574 6.85547 9.07924 6.89894 9.02274C7.4683 8.30125 8.03767 7.57976 8.60704 6.85393C8.7722 6.64531 8.93736 6.43234 9.04167 6.18025C9.16337 5.89339 9.03298 5.62392 8.73743 5.51961C8.60704 5.48049 8.46796 5.46311 8.32887 5.4718C7.55523 5.46746 6.77724 5.46746 6.0036 5.4718C5.89494 5.4718 5.78628 5.48484 5.68197 5.51092C5.43858 5.57177 5.2908 5.81951 5.35165 6.06725C5.39511 6.23241 5.5255 6.3628 5.69066 6.40191C5.79497 6.42799 5.90363 6.44103 6.01229 6.43668C6.48169 6.44103 6.95544 6.43668 7.42484 6.44103C7.477 6.44103 7.54219 6.40626 7.58131 6.48449C7.54219 6.53665 7.50307 6.5888 7.46396 6.63661C6.79028 7.48849 6.12095 8.34471 5.44727 9.19659C5.28211 9.40956 5.19518 9.64426 5.31688 9.90504C5.43858 10.1658 5.68632 10.2136 5.9384 10.231C6.13833 10.2441 6.34261 10.2354 6.54689 10.2354C7.25099 10.2354 7.95074 10.2397 8.65485 10.231C9.02863 10.2267 9.22856 10.0007 9.18944 9.65295C9.15902 9.37914 8.97213 9.23571 8.62442 9.23136C8.01159 9.22702 7.39876 9.23136 6.74247 9.23136ZM11.7842 6.9452C11.2409 6.47145 10.6411 6.44103 10.0544 6.78873C9.34156 7.20598 9.08079 7.88835 9.16771 8.67938C9.25029 9.41825 9.57192 10.0224 10.3456 10.2701C10.828 10.4266 11.2757 10.3701 11.6712 10.0485C11.7755 9.96589 11.8059 9.98327 11.8798 10.0745C12.0232 10.2571 12.271 10.3266 12.4883 10.2441C12.7056 10.1789 12.849 9.97893 12.849 9.75292C12.8534 8.88366 12.8577 8.01439 12.849 7.14513C12.8447 6.79743 12.5187 6.57576 12.1797 6.64531C11.9928 6.68442 11.8885 6.81047 11.7842 6.9452ZM14.7962 8.55768C14.7788 9.64426 15.6785 10.4657 16.8085 10.3527C17.8473 10.2484 18.521 9.47041 18.4862 8.37079C18.4514 7.28421 17.643 6.54099 16.5347 6.57577C15.4959 6.60619 14.7614 7.44068 14.7962 8.55768ZM14.4137 7.69277C14.4137 7.0104 14.4181 6.33237 14.4137 5.65C14.4137 5.3023 14.192 5.08498 13.8617 5.08933C13.5401 5.09367 13.3271 5.31099 13.3228 5.64565C13.3184 5.84993 13.3228 6.04986 13.3228 6.25414V9.70946C13.3228 9.97893 13.4879 10.2136 13.7053 10.2701C14.0052 10.3527 14.3137 10.1745 14.392 9.87462C14.405 9.82246 14.4137 9.7703 14.4094 9.7138C14.4181 9.04012 14.4137 8.36645 14.4137 7.69277Z" fill="#FDFEFE"/>
<path id="Vector_2" d="M6.06469 18.9585C4.87815 18.9585 3.68726 18.9976 2.50071 18.9542C1.09685 18.8977 0.0233154 17.7198 0.0233154 16.3159C0.0233154 11.7827 0.0320081 7.24954 0.0233154 2.71199C0.0233154 1.16036 1.23594 0.0781249 2.6311 0.0390081C4.09146 -0.000108737 5.55617 0.0303154 7.02088 0.0303154C7.04696 0.0303154 7.08173 0.0172765 7.09477 0.0607396C7.08607 0.138973 7.00784 0.147666 6.96003 0.17809C6.09946 0.682262 5.31278 1.2864 4.65214 2.03397C3.56121 3.26832 2.80496 4.68521 2.54852 6.33247C2.09651 9.24015 3.00489 11.7089 5.06069 13.769C5.42578 14.1384 5.47359 14.4253 5.18239 14.9208C4.83034 15.5162 4.29574 15.9204 3.72637 16.2899C3.66553 16.3246 3.60468 16.3681 3.54383 16.4072C3.45256 16.4855 3.50906 16.5246 3.58729 16.5593C3.60468 16.5985 3.62641 16.6332 3.65249 16.668C4.15231 17.1113 4.62606 17.5851 5.11719 18.0371C5.34755 18.2501 5.5779 18.4717 5.79956 18.6934C5.89084 18.776 6.04296 18.802 6.06469 18.9585Z" fill="#0088DF"/>
<path id="Vector_3" d="M6.06334 18.9585C6.0416 18.8064 5.88948 18.7803 5.79821 18.689C5.57655 18.463 5.34619 18.2457 5.11584 18.0328C4.62471 17.5807 4.15096 17.107 3.65113 16.6637C3.62505 16.6289 3.60332 16.5941 3.58594 16.555C4.69425 16.7723 5.77648 16.6245 6.84133 16.2986C7.20207 16.1899 7.56281 16.0813 7.9279 15.99C8.17564 15.9248 8.43642 15.9378 8.67547 16.0248C11.431 16.9723 14.1518 16.8853 16.8292 15.7118C17.9201 15.2294 18.9154 14.5514 19.7586 13.7038C19.802 13.6604 19.8325 13.5952 19.9107 13.5908C19.9498 13.6517 19.9281 13.7169 19.9281 13.7821V16.3247C19.9368 17.7763 18.772 18.9585 17.3203 18.9716H17.2986C15.7339 18.9802 14.1692 18.9716 12.6045 18.9716H6.32411C6.23719 18.9629 6.15026 18.9585 6.06334 18.9585Z" fill="#0172B1"/>
<path id="Vector_4" d="M6.74389 9.23162C7.40019 9.23162 8.01736 9.22727 8.63019 9.23162C8.97355 9.23596 9.16044 9.37939 9.19521 9.65321C9.23433 9.99657 9.0344 10.2269 8.66062 10.2313C7.95651 10.24 7.25676 10.2356 6.55265 10.2356C6.34838 10.2356 6.14845 10.2443 5.94417 10.2313C5.69208 10.2182 5.44434 10.1661 5.32265 9.9053C5.20095 9.64452 5.28788 9.40982 5.45304 9.19685C6.12237 8.34497 6.79605 7.48875 7.46973 6.63687C7.50884 6.58471 7.54796 6.53256 7.58708 6.48475C7.54361 6.41086 7.48276 6.44563 7.43061 6.44129C6.96121 6.43694 6.48746 6.44129 6.01806 6.43694C5.9094 6.43694 5.80074 6.4239 5.69643 6.40217C5.44869 6.34567 5.29657 6.09793 5.35307 5.85453C5.39219 5.68937 5.52258 5.55464 5.68774 5.51552C5.79205 5.48944 5.90071 5.4764 6.00937 5.4764C6.78301 5.47206 7.561 5.47206 8.33464 5.4764C8.47372 5.47206 8.60846 5.48944 8.7432 5.52421C9.03875 5.62418 9.16479 5.898 9.04744 6.18485C8.94313 6.43259 8.77797 6.64556 8.61281 6.85853C8.04344 7.58437 7.47407 8.30585 6.90471 9.023C6.8569 9.0795 6.81343 9.136 6.74389 9.23162Z" fill="#0088DF"/>
<path id="Vector_5" d="M11.7827 6.94534C11.887 6.81061 11.9957 6.68456 12.1739 6.64979C12.5172 6.58025 12.8389 6.80191 12.8432 7.14962C12.8562 8.01888 12.8519 8.88814 12.8432 9.75741C12.8432 9.98342 12.6954 10.1833 12.4825 10.2485C12.2651 10.3311 12.0174 10.2659 11.874 10.079C11.8001 9.98776 11.7697 9.97038 11.6654 10.053C11.2698 10.3746 10.8222 10.4311 10.3397 10.2746C9.56608 10.0225 9.2488 9.4184 9.16188 8.68387C9.0706 7.88849 9.33573 7.21047 10.0485 6.79322C10.6396 6.44117 11.2394 6.4716 11.7827 6.94534ZM10.2441 8.53175C10.2528 8.72299 10.3136 8.90553 10.4267 9.05765C10.6614 9.37058 11.109 9.43578 11.4263 9.20108C11.4785 9.16196 11.5263 9.11415 11.5697 9.05765C11.8131 8.72733 11.8131 8.18404 11.5697 7.85372C11.448 7.68422 11.2568 7.58425 11.0525 7.5799C10.5744 7.54948 10.2398 7.91892 10.2441 8.53175ZM14.7947 8.55782C14.7599 7.44082 15.4945 6.60633 16.5376 6.57591C17.6459 6.54114 18.4543 7.28436 18.4891 8.37093C18.5238 9.47055 17.8502 10.2485 16.8114 10.3529C15.677 10.4659 14.7773 9.6444 14.7947 8.55782ZM15.8856 8.45351C15.8769 8.67083 15.9421 8.8838 16.0725 9.062C16.3116 9.37493 16.7592 9.43578 17.0722 9.19239C17.12 9.15762 17.1591 9.11415 17.1982 9.07069C17.4503 8.74037 17.4503 8.18404 17.2026 7.85372C17.0809 7.68856 16.8896 7.58425 16.6853 7.5799C16.2159 7.55383 15.8856 7.91022 15.8856 8.45351ZM14.4122 7.69291C14.4122 8.36659 14.4166 9.04027 14.4122 9.71394C14.4166 10.0225 14.1732 10.279 13.8646 10.2877C13.8124 10.2877 13.7559 10.2833 13.7038 10.2703C13.4865 10.2138 13.3213 9.98342 13.3213 9.7096V6.25428C13.3213 6.05 13.3169 5.85007 13.3213 5.6458C13.3256 5.31113 13.5386 5.09381 13.8602 5.09381C14.1906 5.08947 14.4122 5.30678 14.4122 5.65449C14.4166 6.33251 14.4122 7.01488 14.4122 7.69291Z" fill="#0088DF"/>
<path id="Vector_6" d="M10.2461 8.5317C10.2418 7.91887 10.5765 7.54944 11.0502 7.57551C11.2545 7.58421 11.4457 7.68417 11.5674 7.85368C11.8108 8.17965 11.8108 8.72729 11.5674 9.05761C11.3327 9.37054 10.885 9.43574 10.5678 9.20103C10.5156 9.16192 10.4678 9.11411 10.4243 9.05761C10.3157 8.90548 10.2548 8.72294 10.2461 8.5317ZM15.8876 8.45347C15.8876 7.91453 16.218 7.55378 16.6874 7.57986C16.8916 7.58421 17.0829 7.68852 17.2046 7.85368C17.4523 8.184 17.4523 8.74467 17.2002 9.07064C16.9568 9.37923 16.5048 9.43139 16.1962 9.188C16.1484 9.15322 16.1093 9.10976 16.0745 9.06195C15.9442 8.88375 15.8833 8.67078 15.8876 8.45347Z" fill="#FDFEFE"/>
<path id="Vector_7" d="M2.86807 0.043457H17.1283C18.6887 0.043457 19.9534 1.30823 19.9534 2.86856V16.0379C19.9534 17.5982 18.6887 18.863 17.1283 18.863H2.86807C1.30775 18.863 0.0429688 17.5982 0.0429688 16.0379V2.86856C0.0429688 1.30823 1.30775 0.043457 2.86807 0.043457Z" stroke="#0088DF" stroke-width="0.0869263" stroke-miterlimit="10"/>
</g>
<defs>
<clipPath id="clip0_1_69">
<rect width="20" height="18.976" fill="white"/>
</clipPath>
</defs>
</svg>
