<svg width="26" height="24" viewBox="0 0 26 24" fill="none" xmlns="http://www.w3.org/2000/svg">
<path d="M21.5791 17.4258L18.5422 15.3041C18.1454 15.0276 17.6807 14.8813 17.1996 14.8813C16.4342 14.8813 15.716 15.2567 15.2784 15.8848L14.5734 16.8948C13.392 16.1027 12.0731 14.9962 10.8166 13.7399C9.56047 12.4834 8.45405 11.1648 7.66167 9.98328L8.67149 9.27878C9.18648 8.92012 9.5298 8.38339 9.63921 7.76679C9.74815 7.15132 9.61082 6.52899 9.25194 6.01378L7.13066 2.97721C6.53328 2.12256 5.40352 1.74857 4.45229 2.10036C4.17488 2.20313 3.9167 2.32878 3.66264 2.48786L3.24287 2.78357C3.1385 2.86505 3.04146 2.95386 2.94807 3.04701C2.43629 3.55879 2.07283 4.20607 1.86867 4.97145C0.994338 8.24858 3.16002 13.203 7.257 17.2997C10.6976 20.7403 14.8307 22.8778 18.0442 22.878C18.594 22.878 19.1131 22.8139 19.586 22.6878C20.3504 22.4834 20.9977 22.1204 21.5095 21.6086C21.6029 21.5155 21.6921 21.4182 21.7873 21.2946L22.0826 20.8728C22.2282 20.64 22.354 20.3814 22.4561 20.1042C22.8136 19.1386 22.4534 18.0372 21.5791 17.4258Z" fill="#FFCB51"/>
<path d="M23.8546 1.12195H12.6046C12.3455 1.12195 12.1359 1.33183 12.1359 1.5907V8.1532C12.1359 8.41206 12.3455 8.62195 12.6046 8.62195H14.2686L15.3869 11.0039C15.4643 11.1685 15.6295 11.2735 15.8112 11.2735C15.993 11.2735 16.1582 11.1685 16.2356 11.0042L17.3544 8.62195H23.8546C24.1137 8.62195 24.3234 8.41206 24.3234 8.1532V1.5907C24.3234 1.33183 24.1137 1.12195 23.8546 1.12195ZM21.4816 6.2782H14.9777C14.7186 6.2782 14.5089 6.06831 14.5089 5.80945C14.5089 5.55058 14.7186 5.3407 14.9777 5.3407H21.4816C21.7407 5.3407 21.9503 5.55058 21.9503 5.80945C21.9503 6.06831 21.7407 6.2782 21.4816 6.2782ZM21.4816 4.4032H14.9777C14.7186 4.4032 14.5089 4.19331 14.5089 3.93445C14.5089 3.67558 14.7186 3.4657 14.9777 3.4657H21.4816C21.7407 3.4657 21.9503 3.67558 21.9503 3.93445C21.9503 4.19331 21.7407 4.4032 21.4816 4.4032Z" fill="#FFCB51"/>
</svg>
