<svg width="28" height="28" viewBox="0 0 28 28" fill="none" xmlns="http://www.w3.org/2000/svg">
<g clip-path="url(#clip0_1_35)">
<path fill-rule="evenodd" clip-rule="evenodd" d="M24.625 16.1299C24.5994 16.1068 24.5738 16.0824 24.5494 16.058L14 5.50867L3.45063 16.058C3.42625 16.0824 3.40063 16.1068 3.375 16.1299V26.4999C3.375 26.8449 3.655 27.1249 4 27.1249H9.625V18.9999C9.625 17.9643 10.4644 17.1249 11.5 17.1249H16.5C17.5356 17.1249 18.375 17.9643 18.375 18.9999V27.1249H24C24.345 27.1249 24.625 26.8449 24.625 26.4999V16.1299Z" fill="#FFCB51"/>
<path fill-rule="evenodd" clip-rule="evenodd" d="M17.125 27.125H10.875V19C10.875 18.655 11.155 18.375 11.5 18.375H16.5C16.845 18.375 17.125 18.655 17.125 19V27.125Z" fill="#FFCB51"/>
<path fill-rule="evenodd" clip-rule="evenodd" d="M14.4419 0.950581L27.0494 13.5581C27.1662 13.675 27.2325 13.8343 27.2325 14C27.2325 14.1656 27.1662 14.325 27.0494 14.4418L26.3169 15.1743C26.2 15.2912 26.0406 15.3575 25.875 15.3575C25.7094 15.3575 25.55 15.2912 25.4331 15.1743L14.4419 4.18308C14.1981 3.93871 13.8019 3.93871 13.5581 4.18308C13.5581 4.18308 5.31999 12.4212 2.56686 15.1743C2.44999 15.2912 2.29061 15.3575 2.12498 15.3575C1.95936 15.3575 1.79998 15.2912 1.68311 15.1743L0.950611 14.4418C0.833736 14.325 0.767487 14.1656 0.767487 14C0.767487 13.8343 0.833736 13.675 0.950611 13.5581L13.5581 0.950581C13.675 0.833706 13.8344 0.767456 14 0.767456C14.1656 0.767456 14.325 0.833706 14.4419 0.950581Z" fill="#FFCB51"/>
</g>
<defs>
<clipPath id="clip0_1_35">
<rect width="28" height="28" fill="white"/>
</clipPath>
</defs>
</svg>
