<svg width="31" height="31" viewBox="0 0 31 31" fill="none" xmlns="http://www.w3.org/2000/svg">
<path d="M8.27385 5.03857C8.27979 4.97496 8.29825 4.91316 8.32818 4.85672C8.3581 4.80028 8.39889 4.75032 8.4482 4.70971C8.49752 4.6691 8.55437 4.63864 8.61551 4.6201C8.67664 4.60155 8.74083 4.59528 8.8044 4.60165C8.86796 4.60801 8.92964 4.62689 8.98588 4.65719C9.04211 4.68749 9.0918 4.72862 9.13208 4.7782C9.17236 4.82778 9.20244 4.88484 9.22057 4.9461C9.23871 5.00735 9.24455 5.07159 9.23776 5.13511L9.0101 7.41404L11.5926 9.99658L11.8333 7.58866C11.847 7.46155 11.9103 7.345 12.0096 7.26442C12.1088 7.18385 12.2359 7.14577 12.3631 7.15851C12.4903 7.17124 12.6073 7.23375 12.6887 7.3324C12.77 7.43105 12.809 7.55785 12.7972 7.68515L12.4775 10.8817L15.06 13.4643L15.3008 11.0564C15.3067 10.9928 15.3251 10.9309 15.3551 10.8744C15.385 10.8179 15.4257 10.7679 15.4751 10.7273C15.5244 10.6866 15.5813 10.6562 15.6424 10.6376C15.7036 10.619 15.7678 10.6127 15.8314 10.6191C15.895 10.6255 15.9567 10.6444 16.0129 10.6747C16.0692 10.705 16.1189 10.7462 16.1592 10.7958C16.1995 10.8454 16.2295 10.9025 16.2476 10.9638C16.2658 11.0251 16.2716 11.0893 16.2647 11.1529L16.0942 12.8585C16.4383 11.7496 17.1995 10.8176 18.2173 10.259C17.5154 8.79881 16.5771 7.46453 15.4405 6.31001C11.0419 1.91111 4.32242 1.50084 3.05888 1.46277L8.12486 6.52885L8.27385 5.03857Z" fill="#FFCB51"/>
<path d="M10.487 16.9495C10.775 16.1713 11.2565 15.4792 11.886 14.9386C12.5155 14.3979 13.2723 14.0264 14.085 13.8592L13.7192 13.4933L10.5228 13.813C10.5065 13.8144 10.4902 13.8154 10.4741 13.8154C10.3498 13.8154 10.2303 13.7675 10.1402 13.6818C10.0502 13.5961 9.99657 13.4791 9.99042 13.3549C9.98428 13.2308 10.0261 13.109 10.1072 13.0148C10.1884 12.9207 10.3026 12.8613 10.4263 12.849L12.834 12.6083L9.86638 9.6406L6.66984 9.96029C6.65352 9.96169 6.63719 9.96266 6.62111 9.96266C6.49681 9.96264 6.37727 9.91483 6.28723 9.82912C6.1972 9.74341 6.14356 9.62637 6.13741 9.50222C6.13127 9.37807 6.1731 9.2563 6.25423 9.16213C6.33537 9.06795 6.44961 9.00858 6.57331 8.99629L8.98123 8.7555L2.37402 2.14795C2.41214 3.41173 2.82221 10.1314 7.22091 14.5294C8.18943 15.4868 9.28911 16.3016 10.487 16.9495Z" fill="#FFCB51"/>
<path d="M5.15569 24.0291C5.0399 23.9734 4.95098 23.874 4.90849 23.7527C4.866 23.6315 4.87342 23.4983 4.92912 23.3825C4.98482 23.2667 5.08424 23.1778 5.20551 23.1353C5.32677 23.0928 5.45995 23.1002 5.57574 23.1559L7.62464 24.1425L10.0816 22.9968L8.74781 22.3546C8.63201 22.2989 8.54309 22.1995 8.50059 22.0782C8.4581 21.957 8.46552 21.8238 8.52122 21.708C8.57692 21.5922 8.67634 21.5033 8.79761 21.4608C8.91888 21.4183 9.05206 21.4257 9.16786 21.4814L11.2168 22.4677L11.5725 22.3018C10.7301 21.5102 10.2183 20.4291 10.1399 19.2758C9.04556 19.409 7.9784 19.7104 6.97611 20.1694C2.91008 22.0655 0.934844 26.4665 0.536301 27.4481L6.49014 24.6716L5.15569 24.0291Z" fill="#FFCB51"/>
<path d="M20.7761 14.922C20.7761 14.922 19.1534 16.1935 19.1534 17.762C19.1749 18.3514 19.3661 18.9221 19.7041 19.4054C20.2488 18.2112 20.9778 17.1101 21.8644 16.1423C21.5645 15.6835 21.1977 15.2722 20.7761 14.922Z" fill="#FFCB51"/>
<path d="M17.5736 21.2678C18.1404 21.4293 18.7418 21.4239 19.3055 21.252C18.3371 20.3659 17.5147 19.3324 16.8686 18.1897C16.3405 18.3331 15.8368 18.5545 15.3741 18.8467C15.3741 18.8467 16.0819 20.783 17.5736 21.2678Z" fill="#FFCB51"/>
<path d="M20.4196 23.8534C20.7488 23.3638 20.9295 22.7896 20.9401 22.1998C19.7973 22.8457 18.5605 23.3085 17.2745 23.5716C17.2476 24.1185 17.3025 24.6665 17.4375 25.1972C17.4375 25.1972 19.4977 25.1224 20.4196 23.8534Z" fill="#FFCB51"/>
<path d="M24.1147 25.1972C24.1147 25.1972 24.6802 23.2147 23.7583 21.9458C23.3945 21.4816 22.9045 21.1324 22.3471 20.9401C22.6095 22.2262 22.6674 23.5457 22.5186 24.8499C23.0303 25.0445 23.5683 25.1616 24.1147 25.1972Z" fill="#FFCB51"/>
<path d="M26.178 18.8467C26.178 18.8467 24.4673 17.6963 22.9756 18.1809C22.4202 18.3842 21.9354 18.7438 21.5798 19.2163C22.8821 19.3711 24.1528 19.7254 25.3473 20.2669C25.6941 19.8379 25.9741 19.3592 26.178 18.8467Z" fill="#FFCB51"/>
<path d="M30.2441 17.5208C29.6457 15.6916 27.8011 14.2138 25.4354 14.9309L25.3301 14.9636C23.92 15.4849 22.7057 16.4296 21.8536 17.6681C22.1085 17.4959 22.3853 17.3585 22.6766 17.2596C23.0281 17.1473 23.3952 17.0911 23.7642 17.0931C24.8166 17.1382 25.8373 17.4664 26.7189 18.043L27.034 18.2548C27.124 18.3153 27.1911 18.4042 27.2245 18.5073C27.258 18.6104 27.2559 18.7218 27.2185 18.8236L27.0878 19.1801C26.8681 19.7358 26.5727 20.2586 26.2101 20.7335C26.9332 21.1611 27.577 21.7104 28.1131 22.357C30.3595 21.4409 30.805 19.2358 30.2441 17.5208Z" fill="#FFCB51"/>
<path d="M27.5455 23.1904C26.6168 22.0146 25.3471 21.1551 23.9105 20.7297C24.1484 20.9165 24.3608 21.1337 24.542 21.3759C25.7076 22.9804 25.1175 25.2135 25.0463 25.4628L24.9419 25.8283C24.9122 25.9325 24.8484 26.0238 24.7606 26.0874C24.6729 26.1511 24.5664 26.1835 24.4581 26.1794L24.0782 26.1652C23.4869 26.1281 22.9035 26.0102 22.3442 25.8149C22.1584 26.6351 21.8321 27.417 21.3798 28.1259L21.3806 28.1379C21.7195 28.5751 22.1537 28.9293 22.6502 29.1735C23.1466 29.4177 23.6922 29.5453 24.2454 29.5468C25.1235 29.5367 25.9766 29.2531 26.686 28.7356C27.4835 28.2018 28.0493 27.3859 28.2698 26.452C28.4902 25.518 28.349 24.5352 27.8745 23.7012C27.7743 23.525 27.6645 23.3544 27.5455 23.1904Z" fill="#FFCB51"/>
<path d="M21.2034 24.4231C20.0379 26.0272 17.7317 26.1558 17.4725 26.1653L17.0928 26.179C16.9844 26.1829 16.8779 26.1504 16.7902 26.0865C16.7025 26.0227 16.6388 25.9313 16.6092 25.8269L16.5055 25.4613C16.3577 24.8872 16.2895 24.2956 16.3026 23.703C16.0774 23.7217 15.8504 23.735 15.6203 23.735C15.0083 23.7359 14.3988 23.6568 13.8073 23.4999L13.7966 23.5041C12.4615 25.5973 13.4398 27.6995 14.8662 28.7358C15.5755 29.2535 16.4286 29.5371 17.3067 29.5469C17.8213 29.5468 18.3299 29.4364 18.7983 29.2231C19.2666 29.0098 19.6838 28.6986 20.0216 28.3104C20.1584 28.1609 20.2866 28.0037 20.4058 27.8398C21.2404 26.5894 21.6677 25.1114 21.6289 23.6085C21.524 23.8978 21.3809 24.1718 21.2034 24.4231Z" fill="#FFCB51"/>
<path d="M12.8732 23.1702C12.7286 23.1043 12.5922 23.032 12.46 22.9567L9.82986 24.1831L9.26866 26.3866C9.24207 26.4909 9.18151 26.5833 9.09653 26.6493C9.01156 26.7154 8.90702 26.7512 8.7994 26.7513C8.75904 26.7513 8.71883 26.7463 8.67976 26.7361C8.6181 26.7205 8.56013 26.6928 8.50916 26.6547C8.4582 26.6166 8.41523 26.5689 8.38272 26.5142C8.35022 26.4595 8.3288 26.3989 8.3197 26.336C8.31061 26.273 8.314 26.2089 8.3297 26.1472L8.69516 24.7122L6.59724 25.6906L6.20155 27.2443C6.17496 27.3485 6.11441 27.441 6.02944 27.507C5.94448 27.573 5.83995 27.6089 5.73234 27.6089C5.69196 27.609 5.65174 27.6039 5.61265 27.5938C5.551 27.5781 5.49304 27.5505 5.44208 27.5124C5.39112 27.4743 5.34817 27.4266 5.31566 27.3719C5.28316 27.3172 5.26175 27.2566 5.25265 27.1937C5.24356 27.1307 5.24695 27.0666 5.26264 27.0049L5.46259 26.2197L0.945793 28.3262C2.51049 28.8145 4.1393 29.0665 5.7784 29.074C7.45951 29.0994 9.12586 28.7572 10.6609 28.0714C11.2855 27.7776 11.8786 27.4212 12.4312 27.0077L12.436 26.9916C12.2268 26.3611 12.1575 25.6926 12.233 25.0327C12.3085 24.3727 12.527 23.7371 12.8732 23.1702Z" fill="#FFCB51"/>
<path d="M11.308 17.5207C10.7293 19.2903 11.216 21.5859 13.6533 22.4444L13.7777 22.4865C14.3734 22.676 14.9953 22.7704 15.6204 22.7661C16.4883 22.7542 17.3494 22.6111 18.1745 22.3417C17.8691 22.3309 17.5665 22.2797 17.2745 22.1894C15.3884 21.5764 14.5532 19.4227 14.4643 19.1791L14.3339 18.8222C14.2967 18.7204 14.2947 18.6091 14.3282 18.506C14.3618 18.4029 14.429 18.3141 14.519 18.2537L14.8347 18.042C15.3348 17.7242 15.8762 17.4765 16.4436 17.3057C16.1114 16.5326 15.9157 15.7079 15.8649 14.868C14.9097 14.6351 13.9015 14.7813 13.0518 15.2759C12.2021 15.7705 11.5771 16.5751 11.308 17.5207Z" fill="#FFCB51"/>
<path d="M16.8488 13.9821C16.8304 14.1636 16.8212 14.3459 16.8211 14.5284C16.8809 16.0313 17.4042 17.4789 18.3194 18.6726C18.2339 18.3765 18.1885 18.0702 18.1844 17.762C18.1844 15.7791 19.9745 14.3194 20.1786 14.1595L20.4778 13.9251C20.5632 13.8582 20.6685 13.8219 20.7769 13.822C20.8853 13.8221 20.9906 13.8586 21.0758 13.9256L21.3747 14.1605C21.8325 14.5386 22.236 14.9779 22.5741 15.4661C23.2059 14.9101 23.9294 14.4679 24.7123 14.1589L24.7171 14.1512C24.5601 11.6787 22.5427 10.5551 20.7761 10.5551C19.0505 10.555 17.0851 11.6274 16.8488 13.9821Z" fill="#FFCB51"/>
</svg>
