<svg width="18" height="18" viewBox="0 0 18 18" fill="none" xmlns="http://www.w3.org/2000/svg">
<g id="email (2) 1" clip-path="url(#clip0_2650_2941)">
<path id="Vector" d="M10.5043 11.0283C10.0565 11.3268 9.53631 11.4847 9 11.4847C8.46373 11.4847 7.94355 11.3268 7.49573 11.0283L0.119848 6.11089C0.0789258 6.08361 0.0390586 6.05516 0 6.02591V14.0836C0 15.0075 0.749707 15.7406 1.65702 15.7406H16.3429C17.2668 15.7406 18 14.9909 18 14.0836V6.02588C17.9608 6.0552 17.9209 6.08371 17.8799 6.11103L10.5043 11.0283Z" fill="#145DA1"/>
<path id="Vector_2" d="M0.704883 5.23321L8.08077 10.1507C8.35998 10.3368 8.67997 10.4299 8.99996 10.4299C9.31999 10.4299 9.64002 10.3368 9.91923 10.1507L17.2951 5.23321C17.7365 4.93913 18 4.44695 18 3.91573C18 3.00234 17.2569 2.25928 16.3435 2.25928H1.65646C0.743098 2.25931 0 3.00237 0 3.91661C0 4.44695 0.263531 4.93913 0.704883 5.23321Z" fill="#145DA1"/>
</g>
<defs>
<clipPath id="clip0_2650_2941">
<rect width="18" height="18" fill="white"/>
</clipPath>
</defs>
</svg>
