<svg width="150" height="150" viewBox="0 0 150 150" fill="none" xmlns="http://www.w3.org/2000/svg">
<g id="SVG">
<path id="Vector" opacity="0.68" d="M45 20.5499C43.35 23.6999 41.1 26.2499 39 29.0999C34.35 35.2499 31.35 42.2999 27.75 49.0499C26.25 52.0499 25.05 55.1999 24.45 58.4999C24.3 59.6999 24.3 62.0999 23.85 63.7499C23.7 63.8999 23.55 64.0499 23.4 64.1999C23.25 64.1999 23.4 64.3499 23.55 64.3499C23.7 64.3499 23.7 64.1999 23.85 64.1999C23.7 64.9499 23.25 65.5499 22.65 65.8499C22.5 65.9999 22.35 66.1499 22.5 66.4499C21.75 67.3499 21 68.0999 20.25 68.9999C20.1 69.1499 19.8 69.2999 19.65 69.4499C19.5 69.5999 19.65 69.5999 19.65 69.5999C18.9 70.4999 18.15 71.3999 17.25 72.4499C15.75 73.3499 14.25 74.2499 12.75 75.1499C10.8 75.5999 8.7 76.4999 6.6 76.4999C6.3 76.4999 6 76.4999 5.55 76.4999C5.55 76.4999 5.55 76.4999 5.4 76.4999C5.25 76.4999 5.25 76.4999 5.1 76.4999C3.9 76.3499 2.85 76.1999 1.65 76.0499C1.65 76.0499 1.65 76.0499 1.8 76.1999C1.8 76.3499 1.8 76.3499 1.8 76.4999C3 76.4999 4.05 76.6499 5.1 76.7999C5.7 76.9499 6.45 76.9499 7.05 77.0999C7.35 77.0999 7.65 77.0999 7.95 77.0999C8.1 77.0999 8.1 77.0999 8.25 77.0999C7.5 77.3999 6.6 77.3999 5.85 77.3999C5.85 77.3999 5.7 77.3999 5.7 77.5499C5.25 77.5499 4.8 77.3999 4.5 77.3999C3.6 77.2499 2.7 77.0999 1.8 77.0999C1.8 77.2499 1.8 77.3999 1.8 77.3999C1.65 77.5499 1.65 77.6999 1.5 77.8499C3.3 78.1499 5.1 78.2999 6.9 78.4499C7.05 78.4499 7.2 78.4499 7.35 78.4499C7.5 78.5999 7.65 78.5999 7.8 78.5999H7.95C13.35 79.0499 19.05 79.6499 24.45 79.1999C24.6 79.3499 24.75 79.1999 24.9 79.1999C26.1 79.0499 27.15 78.8999 28.35 78.7499C28.65 78.7499 28.95 78.8999 29.25 78.8999C37.65 82.9499 41.25 92.2499 46.65 99.1499C52.35 106.35 60.45 110.4 67.35 116.4C73.8 121.95 81.3 125.1 89.7 126.3C94.35 127.05 99.15 127.05 103.8 127.8C106.5 128.25 109.05 128.85 111.6 129.75C113.55 130.5 114.75 131.1 116.85 130.95C117.15 130.95 117.3 130.65 117.15 130.5C116.85 128.25 114.9 127.2 112.95 126.45C108.9 124.8 104.7 124.05 100.5 122.7C91.5 119.7 84.45 113.1 78.75 105.6C76.35 102.45 74.1 99.1499 70.95 96.5999C67.5 93.5999 63.15 91.6499 58.95 89.6999C56.4 88.4999 54 87.4499 51.45 86.3999C51.3 86.2499 51.15 86.2499 51 86.0999C51 86.0999 51 86.0999 50.85 86.0999C48.9 85.3499 46.95 84.5999 45 83.8499C42.9 83.0999 40.2 82.4999 37.8 81.7499C37.35 81.2999 36.75 80.6999 36.3 80.3999C36.75 80.3999 37.05 80.5499 37.5 80.6999C43.95 82.0499 50.1 84.5999 56.25 86.9999C62.1 89.2499 67.95 91.4999 74.25 92.3999C75.15 92.5499 76.05 92.6999 76.8 92.6999C79.05 93.8999 81.3 94.9499 83.7 95.6999C84.9 96.1499 86.25 96.4499 87.6 96.7499C88.5 96.8999 89.4 97.0499 90.3 97.3499C90.45 97.9499 90.75 98.6999 91.2 99.1499C91.8 99.8999 92.7 100.35 93.6 100.5C94.05 100.5 94.35 100.5 94.8 100.5C94.65 101.85 95.55 102.9 96.75 103.5C97.8 103.95 99 103.95 100.2 103.65C101.4 103.2 102.45 102.3 102.9 101.1C103.05 100.8 103.05 100.5 103.05 100.2C103.05 100.5 103.05 100.8 103.2 101.1C103.65 102.3 104.7 102.9 105.9 102.9C108.15 102.9 111.15 101.1 110.4 98.5499C110.7 98.5499 110.85 98.5499 111.15 98.5499H111.3C111 98.9999 110.85 99.5999 110.85 100.2C111.15 101.25 111.9 102 112.95 102.15C113.4 102.3 113.85 102.15 114.3 102C114.75 101.85 115.05 101.4 115.05 100.95C115.05 100.95 115.2 100.95 115.2 100.8C115.35 100.35 115.35 99.7499 115.05 99.2999C114.6 98.3999 113.7 97.7999 112.65 97.7999C112.35 97.7999 112.05 97.9499 111.75 98.0999C111.6 98.0999 111.3 98.0999 111.15 98.0999C110.85 98.0999 110.7 98.0999 110.4 97.9499H110.25C109.8 96.8999 109.5 95.8499 108.45 95.3999C107.25 94.9499 105.9 95.0999 104.85 95.8499C104.55 95.9999 104.4 96.2999 104.25 96.5999H104.1C103.8 96.5999 103.5 96.5999 103.2 96.4499C102.6 96.2999 102.15 96.1499 101.55 96.1499C101.4 96.1499 101.4 96.1499 101.25 96.2999C100.65 95.8499 99.9 95.5499 99.15 95.5499C98.85 94.1999 97.95 93.1499 96.9 92.3999C94.95 91.0499 92.55 92.3999 91.35 94.0499C91.2 94.1999 91.2 94.3499 91.05 94.4999C89.25 92.9999 87 92.9999 85.2 92.6999C81.6 92.0999 77.85 91.7999 74.25 91.1999C66.75 90.1499 59.85 87.1499 52.8 84.4499C46.8 82.0499 40.5 80.2499 34.2 79.0499C33.3 78.8999 32.25 78.5999 31.05 78.2999C35.7 78.1499 40.35 77.9999 45 78.1499C50.1 78.4499 55.2 79.1999 60.3 79.6499C65.25 80.0999 70.2 80.3999 75.15 80.3999C77.85 80.3999 81.15 80.5499 83.85 79.7999C85.8 79.6499 87.75 79.6499 89.7 79.4999C91.95 79.3499 94.05 78.8999 96.15 78.7499C98.1 78.4499 100.05 78.1499 102 77.6999C103.2 77.3999 104.7 77.2499 105.75 76.4999C106.05 77.3999 106.65 77.9999 107.4 78.4499C109.05 79.0499 111 78.4499 112.35 77.3999C113.4 76.6499 114.3 75.4499 114 74.2499C114.45 74.2499 115.05 74.0999 115.5 74.0999C115.8 74.0999 116.1 73.9499 116.4 73.9499C116.7 73.9499 117 73.7999 117.3 73.6499C117.9 74.3999 118.8 74.9999 119.85 75.2999C121.05 75.5999 122.4 75.4499 123.45 74.6999C123.45 74.9999 123.6 75.1499 123.75 75.4499C122.55 75.5999 121.35 75.5999 120.15 75.5999C118.8 75.5999 117.45 75.5999 116.1 75.7499C115.95 75.7499 115.8 75.8999 115.8 76.1999C115.8 76.3499 115.95 76.4999 116.1 76.4999C118.65 76.1999 121.5 76.6499 124.05 75.8999C124.2 76.0499 124.2 76.1999 124.35 76.1999C126 77.6999 129.3 77.5499 130.2 75.1499C130.5 74.8499 130.65 74.5499 130.8 74.0999C130.8 73.3499 130.65 72.4499 130.2 71.8499C130.8 71.8499 131.25 71.6999 131.85 71.6999C132.3 71.6999 132.75 71.6999 133.2 71.6999C133.35 71.6999 133.65 71.6999 133.8 71.6999C133.8 71.8499 133.8 72.1499 133.8 72.2999C133.95 72.7499 134.1 73.1999 134.4 73.3499C135 73.7999 135.75 74.0999 136.65 74.0999C137.55 74.0999 138.3 73.7999 138.9 73.1999C139.5 72.4499 139.65 71.5499 139.5 70.6499C139.35 70.1999 139.2 69.8999 138.75 69.5999C138.45 69.4499 138.15 69.2999 137.7 69.2999C137.7 69.1499 137.7 68.9999 137.85 68.8499C138 68.6999 138 68.6999 138.15 68.5499C138.15 68.6999 138.15 68.9999 138.45 68.9999C139.2 68.9999 139.95 68.9999 140.7 68.8499C141 68.8499 141.45 68.6999 141.75 68.6999C141.9 68.6999 142.05 68.5499 142.2 68.5499C142.2 68.5499 142.35 68.5499 142.35 68.3999C142.65 69.1499 143.1 69.7499 143.7 70.1999C144.15 70.4999 144.75 70.6499 145.35 70.6499C145.8 70.6499 146.1 70.3499 146.4 70.1999C147.15 69.8999 147.75 69.4499 148.05 68.8499C148.5 68.0999 148.65 67.3499 148.5 66.4499C148.35 65.6999 147.75 65.0999 147.15 64.7999C146.4 64.3499 145.5 64.3499 144.6 64.4999C143.85 64.6499 143.25 64.9499 142.8 65.5499C142.5 65.9999 142.2 66.5999 142.2 67.1999C142.2 67.4999 142.2 67.6499 142.35 67.9499H142.2C142.05 67.9499 141.9 68.0999 141.75 68.0999C141.45 68.0999 141 68.2499 140.7 68.2499C139.95 68.2499 139.2 68.2499 138.45 68.3999C138.45 68.3999 138.45 68.3999 138.3 68.3999C138.75 67.3499 138.75 66.2999 138.45 65.2499C137.85 63.7499 136.65 62.6999 135 62.5499C132.3 62.2499 129.75 63.7499 128.7 66.2999C128.55 66.5999 128.55 66.8999 128.55 67.1999C128.4 67.1999 128.4 67.1999 128.25 67.1999C127.95 67.1999 127.65 67.3499 127.35 67.4999C126.75 67.6499 126.15 67.9499 125.55 68.0999C125.4 68.2499 125.25 68.3999 125.4 68.6999C125.55 68.8499 125.7 68.9999 126 68.8499C126.45 68.5499 127.05 68.3999 127.65 68.2499C127.95 68.0999 128.1 68.0999 128.4 67.9499H128.55C128.7 68.9999 129.3 69.8999 130.2 70.4999C130.8 70.7999 131.25 71.0999 131.85 71.2499C131.7 71.2499 131.7 71.2499 131.55 71.2499C130.8 71.2499 130.2 71.2499 129.45 71.3999C129.3 71.2499 129.15 71.0999 129 70.9499C128.1 70.0499 126.75 69.8999 125.55 70.3499C125.55 69.2999 125.1 68.3999 124.35 67.6499C123.45 66.7499 122.4 66.2999 121.2 66.1499C120.15 66.1499 118.95 66.4499 118.2 67.1999C116.7 68.3999 115.95 70.3499 116.4 72.1499C116.55 72.5999 116.7 72.8999 116.85 73.1999C116.7 73.1999 116.55 73.1999 116.25 73.3499C115.95 73.3499 115.65 73.4999 115.35 73.4999C114.75 73.6499 114.15 73.6499 113.7 73.7999C113.7 73.7999 113.7 73.7999 113.7 73.6499C113.7 73.6499 113.7 73.6499 113.55 73.6499C113.55 73.0499 113.25 72.5999 112.95 72.1499C112.2 71.3999 111.3 71.0999 110.4 70.9499C108.6 70.6499 106.5 71.5499 105.75 73.3499C105.45 74.2499 105.3 75.1499 105.6 76.1999C104.4 76.9499 102.6 77.0999 101.25 77.3999C99.3 77.8499 97.35 78.1499 95.4 78.4499C93.45 78.7499 91.35 79.0499 89.25 79.1999C87.75 79.3499 86.4 79.3499 84.9 79.4999C87.75 78.5999 90.6 77.2499 93 75.4499C93.9 76.6499 95.4 77.0999 96.75 76.6499C97.35 76.3499 97.95 75.8999 98.25 75.2999C98.4 75.1499 98.4 74.9999 98.55 74.6999C98.7 74.6999 98.85 74.5499 98.85 74.3999C99.3 73.0499 99 71.2499 97.65 70.4999C96.3 69.7499 94.65 70.4999 93.45 71.3999C92.85 71.8499 92.4 72.4499 92.25 73.1999C92.25 73.7999 92.4 74.5499 92.7 74.9999C89.55 76.9499 86.25 78.4499 82.65 79.3499C82.5 79.3499 82.35 79.4999 82.35 79.6499C81.45 79.6499 80.55 79.6499 79.8 79.7999C77.25 79.9499 74.7 79.9499 72 79.7999C67.2 79.6499 62.4 79.1999 57.6 78.7499C48.45 77.6999 39.3 77.3999 30.15 77.6999C30.45 77.5499 30.6 77.5499 30.9 77.3999C31.95 77.2499 33 77.2499 33.9 77.0999C33.9 77.0999 33.9 77.2499 34.05 77.0999C35.1 76.9499 36.15 76.7999 37.2 76.9499C37.35 76.9499 37.35 76.7999 37.2 76.7999C36.3 76.6499 35.4 76.6499 34.5 76.7999C33.6 76.7999 32.7 76.7999 31.8 76.7999C32.7 76.3499 33.6 75.7499 34.35 75.1499C38.1 73.6499 41.85 72.2999 45.45 70.7999H45.6C45.6 70.9499 45.75 70.9499 45.9 70.9499C49.35 71.0999 52.65 70.7999 55.95 69.8999C59.85 69.5999 63.9 69.2999 67.8 68.8499C75.9 67.7999 84 67.0499 92.1 65.6999C98.7 64.6499 105.3 63.2999 111.15 60.2999C114.15 58.7999 116.7 56.6999 119.7 55.0499C122.1 53.5499 124.8 52.4999 127.2 51.1499C128.85 50.2499 134.1 47.9999 133.05 45.4499C132 42.8999 127.05 44.2499 125.1 44.3999C118.5 44.9999 111.9 46.1999 105.75 49.0499C99 52.1999 93 55.4999 85.8 57.4499C80.55 59.0999 75.6 61.0499 70.65 63.2999C70.35 63.2999 70.05 63.4499 69.75 63.4499C69.6 63.4499 69.6 63.5999 69.75 63.7499C69 64.0499 68.25 64.4999 67.35 64.7999C66.6 65.2499 65.7 65.5499 64.8 65.9999C61.95 67.1999 58.95 68.2499 55.95 69.1499C53.55 69.1499 51.3 69.2999 48.9 69.7499C55.5 67.0499 62.1 64.3499 68.1 60.4499C73.65 56.6999 78.9 52.7999 84 48.5999C89.7 43.9499 95.7 39.8999 101.7 35.5499C102.9 34.6499 110.1 30.1499 107.55 27.8999C106.2 26.6999 103.2 28.3499 102 28.9499C98.7 30.4499 96.15 32.0999 92.55 32.5499C85.65 33.4499 79.05 34.3499 72.9 38.0999C69.9 39.8999 67.2 42.2999 64.95 44.8499C64.8 44.8499 64.8 44.8499 64.65 44.8499C60 47.6999 54.75 47.9999 49.65 49.4999C45.3 50.8499 40.95 52.4999 36.9 54.7499C35.85 55.1999 34.95 55.7999 34.05 56.3999C36.15 54.1499 37.5 51.2999 39.15 48.7499C40.35 46.9499 42 45.4499 42.9 43.4999C43.65 41.6999 44.25 39.8999 44.85 37.9499C45.9 34.3499 46.95 30.5999 47.55 26.8499C47.85 25.4999 49.2 21.2999 47.7 19.9499C46.65 18.4499 45.45 19.6499 45 20.5499ZM67.65 65.3999C72.9 64.4999 78 62.9999 83.25 61.9499C89.25 60.7499 95.25 59.0999 101.4 58.0499C106.65 56.9999 112.05 56.0999 117 53.9999C121.65 51.8999 125.85 49.1999 130.5 46.9499C125.85 50.0999 120.45 52.3499 115.65 54.7499C109.95 57.5999 103.8 59.6999 97.5 60.7499C91.5 61.7999 85.35 62.6999 79.35 64.0499C76.2 64.6499 73.05 65.5499 69.9 66.1499C67.5 66.5999 65.1 67.3499 62.7 67.6499C63.3 67.3499 63.9 67.1999 64.5 66.8999C65.4 66.4499 66.6 65.9999 67.65 65.3999ZM81.15 59.8499C80.7 59.9999 80.4 59.9999 79.95 60.1499C78.15 60.7499 76.65 61.7999 74.85 62.2499H74.7C76.65 61.3499 78.6 60.5999 80.55 59.8499C80.7 59.8499 80.85 59.8499 81.15 59.8499ZM88.2 57.2999C87 57.7499 85.95 58.3499 84.9 58.7999C84.15 59.0999 83.4 59.2499 82.65 59.3999C82.35 59.3999 81.9 59.3999 81.6 59.5499C82.35 59.2499 83.1 58.9499 83.85 58.7999C85.35 58.1999 86.85 57.7499 88.2 57.2999ZM131.1 45.2999C129.9 45.5999 128.7 45.7499 127.5 45.8999C125.25 46.3499 123.15 46.6499 120.9 47.0999C116.4 47.8499 111.9 48.4499 107.55 49.7999C104.55 50.6999 101.85 52.3499 98.85 53.6999C96.15 54.8999 93.3 55.7999 90.45 56.5499C94.05 55.3499 97.65 53.8499 100.95 52.0499C106.8 49.0499 112.35 46.6499 118.95 45.5999C121.8 45.1499 124.65 44.8499 127.35 44.5499C128.1 44.5499 129.9 43.9499 130.65 44.5499C130.95 44.6999 131.1 44.9999 131.1 45.2999ZM131.25 46.1999C126.45 48.2999 122.1 51.2999 117.3 53.3999C111.75 55.9499 105.9 56.6999 100.05 57.8999C94.05 59.0999 88.05 60.5999 81.9 61.7999C77.55 62.6999 73.05 63.8999 68.7 64.7999C70.2 64.1999 71.55 63.4499 73.05 62.8499C73.95 62.6999 74.85 62.5499 75.75 62.2499C77.1 61.7999 78.3 61.0499 79.65 60.5999C80.7 60.1499 81.9 59.8499 82.95 59.5499C85.65 59.0999 88.2 58.6499 90.9 57.8999C95.4 56.6999 99.75 55.6499 104.1 54.2999C108.15 53.0999 112.35 52.0499 116.55 50.8499C121.2 49.3499 125.7 47.6999 130.5 46.4999C130.65 46.4999 130.65 46.3499 130.5 46.3499C126.3 47.2499 122.25 48.7499 118.2 50.0999C113.85 51.4499 109.35 52.4999 105 53.8499C100.95 55.0499 96.9 56.3999 92.7 57.2999C90.15 57.8999 87.75 58.4999 85.2 58.9499C86.85 58.1999 88.65 57.4499 90.45 56.8499C97.65 54.8999 103.8 50.6999 111 49.0499C115.5 47.9999 120.15 47.3999 124.8 46.4999C125.7 46.3499 129.3 46.0499 131.25 45.2999C131.25 45.7499 131.25 46.0499 131.25 46.1999ZM59.4 68.6999C60 68.5499 60.75 68.2499 61.35 67.9499C63.75 67.6499 66.15 66.8999 68.55 66.4499C71.85 65.8499 75.3 64.9499 78.6 64.3499C85.2 62.9999 91.95 62.0999 98.55 60.7499C104.85 59.5499 111 57.2999 116.7 54.2999C121.5 51.7499 126.9 49.6499 131.4 46.4999C131.4 46.6499 131.4 46.9499 131.4 47.0999C131.25 47.5499 130.35 47.8499 130.05 48.1499C126 50.8499 121.5 52.4999 117.6 55.0499C111.6 58.9499 105.9 61.7999 98.85 63.2999C92.55 64.6499 86.25 65.6999 79.95 66.4499C73.35 67.1999 66.75 67.9499 60.15 68.5499C59.85 68.6999 59.55 68.6999 59.4 68.6999ZM93.15 74.2499C92.85 73.7999 92.85 73.1999 93 72.7499C93.3 72.1499 93.75 71.8499 94.2 71.5499C95.1 70.9499 96.45 70.4999 97.5 71.2499C98.25 71.8499 98.1 72.8999 97.95 73.7999C97.8 74.0999 97.65 74.3999 97.5 74.6999C97.2 75.2999 96.6 75.5999 96 75.8999C94.8 76.0499 93.6 75.2999 93.15 74.2499ZM142.95 68.0999C142.8 67.6499 142.8 67.1999 142.8 66.7499C142.8 66.2999 143.1 65.9999 143.4 65.6999C143.85 65.3999 144.45 65.0999 145.05 65.0999C145.8 64.9499 146.4 65.2499 147 65.5499C147.45 65.8499 147.75 66.2999 147.75 66.8999C147.75 67.4999 147.6 67.9499 147.3 68.3999C146.85 68.9999 146.25 69.2999 145.65 69.4499C145.5 69.4499 145.35 69.5999 145.35 69.7499H145.2C144.75 69.7499 144.3 69.4499 144 69.1499C143.4 68.9999 143.1 68.5499 142.95 68.0999ZM134.55 70.6499C134.4 70.4999 134.25 70.4999 134.1 70.6499C134.1 70.6499 134.1 70.6499 133.95 70.7999C131.55 70.6499 128.25 68.9999 129.3 66.2999C130.2 64.0499 132.6 62.8499 134.85 63.2999C136.05 63.5999 136.95 64.4999 137.4 65.5499C137.85 66.5999 137.7 67.9499 136.8 68.6999C136.65 68.8499 136.65 69.1499 136.8 69.2999L136.95 69.4499C136.5 70.0499 135.6 70.4999 134.55 70.6499ZM134.4 71.5499C134.4 71.3999 134.4 71.3999 134.55 71.2499C135.75 71.2499 136.8 70.4999 137.4 69.5999C137.55 69.5999 137.7 69.7499 137.85 69.7499C138 69.7499 138.15 69.8999 138.3 70.0499C138.45 70.3499 138.6 70.6499 138.6 70.9499C138.6 71.5499 138.3 72.2999 137.85 72.7499C137.85 72.7499 137.85 72.7499 137.7 72.8999L137.55 73.0499C137.55 73.0499 137.4 73.0499 137.4 73.1999H137.25C136.95 73.3499 136.65 73.3499 136.35 73.1999C136.2 73.1999 136.05 73.1999 135.9 73.1999C135.75 73.1999 135.6 73.0499 135.45 73.0499C135.45 73.0499 135.3 73.0499 135.3 72.8999C135.3 72.8999 135.3 72.8999 135.15 72.8999L135 72.7499C135 72.7499 135 72.7499 134.85 72.5999L134.7 72.4499C134.7 72.4499 134.7 72.4499 134.7 72.2999V72.1499C134.7 71.9999 134.7 71.9999 134.7 71.9999C134.7 71.9999 134.7 71.9999 134.7 71.8499C134.4 71.6999 134.4 71.6999 134.4 71.5499ZM124.05 74.2499C124.2 73.9499 124.35 73.7999 124.5 73.6499V73.4999C125.1 72.7499 125.4 71.8499 125.55 70.9499C125.55 70.9499 125.55 70.9499 125.7 70.9499C126 70.7999 126.3 70.6499 126.6 70.6499C126.9 70.6499 127.05 70.6499 127.35 70.6499C127.95 70.7999 128.4 71.0999 128.85 71.5499C128.85 71.6999 129 71.9999 129.3 71.9999C129.45 72.2999 129.6 72.4499 129.75 72.7499C130.2 73.6499 130.2 74.6999 129.3 75.2999C129.15 75.4499 129.15 75.5999 129.3 75.5999C127.95 77.2499 124.5 76.6499 124.05 74.2499ZM117 71.5499C116.85 69.8999 117.6 68.2499 119.1 67.3499C120.9 66.2999 123.15 66.8999 124.35 68.5499C125.4 70.0499 124.8 71.9999 123.75 73.3499C123.6 73.4999 123.6 73.6499 123.75 73.7999C122.55 74.8499 120.9 74.9999 119.55 74.5499C118.2 73.9499 117.3 72.7499 117 71.5499ZM106.2 75.7499C106.05 74.8499 106.2 73.7999 106.65 73.0499C107.55 71.8499 109.2 71.2499 110.7 71.6999C112.05 71.9999 113.25 73.0499 112.65 74.5499C112.65 74.6999 112.65 74.9999 112.95 74.9999C113.1 74.9999 113.25 74.9999 113.4 74.8499C113.4 74.6999 113.4 74.5499 113.4 74.3999C113.7 75.5999 112.35 76.6499 111.3 77.2499C110.1 77.8499 108.45 78.4499 107.25 77.6999C106.65 77.0999 106.2 76.3499 106.2 75.7499ZM112.2 98.0999C112.35 98.0999 112.35 97.9499 112.35 97.9499C112.5 97.9499 112.5 97.9499 112.65 97.9499H112.8H112.95C113.1 97.9499 113.1 97.9499 113.25 98.0999C113.25 98.0999 113.4 98.0999 113.4 98.2499C113.55 98.2499 113.55 98.3999 113.7 98.3999C113.7 98.3999 113.7 98.3999 113.85 98.5499C113.85 98.5499 114 98.6999 114 98.8499V98.9999C114 99.1499 114.15 99.1499 114.15 99.2999V99.4499V99.5999V99.7499C114.15 99.7499 114.15 99.7499 114.15 99.8999C114 99.8999 114 100.05 113.85 100.05C113.7 100.05 114 100.05 113.85 100.05H113.7C113.55 100.05 113.4 100.35 113.4 100.5V100.65C113.4 100.65 113.4 100.65 113.25 100.65C113.1 100.65 113.25 100.65 113.1 100.65C112.95 100.65 112.8 100.65 112.8 100.5C112.65 100.5 112.65 100.35 112.5 100.35C112.5 100.35 112.35 100.35 112.35 100.2C112.2 100.2 112.2 100.05 112.05 100.05C112.05 100.05 112.05 99.8999 111.9 99.8999C111.9 99.8999 111.9 99.7499 111.75 99.7499C111.75 99.5999 111.6 99.5999 111.6 99.4499V99.2999V99.1499V98.9999V98.8499C111.6 98.8499 111.6 98.8499 111.6 98.6999V98.5499C111.6 98.5499 111.6 98.5499 111.6 98.3999C111.6 98.2499 111.75 98.2499 111.75 98.0999C111.75 98.0999 111.75 97.9499 111.9 97.9499C112.05 98.2499 112.05 98.2499 112.2 98.0999ZM105.6 95.8499C106.35 95.3999 107.4 95.3999 108.15 95.8499C108.75 96.4499 109.2 97.1999 109.35 97.9499C109.35 98.0999 109.65 98.2499 109.8 98.2499C109.95 99.2999 109.35 100.2 108.45 100.8C107.55 101.4 106.65 101.7 105.6 101.55C104.7 101.55 103.95 100.95 103.8 100.05C103.5 98.3999 104.25 96.7499 105.6 95.8499ZM103.05 96.4499C103.2 96.4499 103.35 96.4499 103.65 96.4499C103.2 97.0499 103.05 97.7999 102.9 98.3999C102.75 97.7999 102.6 97.0499 102.15 96.5999C102 96.4499 101.85 96.2999 101.7 96.1499C102.15 96.2999 102.6 96.4499 103.05 96.4499ZM96.15 99.7499C97.5 99.1499 98.85 97.9499 98.55 96.4499C98.7 96.2999 98.85 95.9999 99 95.6999C100.2 95.8499 101.25 96.4499 101.7 97.4999C102.3 98.5499 102.15 99.7499 101.7 100.8C101.25 101.7 100.35 102.3 99.45 102.45C98.55 102.6 97.65 102.6 96.75 102.15C96.3 102 96 101.7 95.85 101.25C95.55 100.8 95.55 100.35 95.4 99.8999C95.55 99.8999 95.85 99.7499 96.15 99.7499ZM91.05 96.7499C90.9 95.9999 91.05 95.2499 91.35 94.6499C91.65 94.7999 91.8 94.3499 91.65 94.1999C91.8 93.8999 91.95 93.7499 92.1 93.5999C93.15 92.2499 95.1 91.4999 96.6 92.6999C97.2 93.1499 97.65 93.7499 97.95 94.3499C98.1 94.4999 98.1 94.7999 98.1 94.9499C97.95 95.0999 97.95 95.3999 98.1 95.5499C98.1 95.6999 97.95 95.8499 97.8 95.9999C97.65 96.1499 97.65 96.4499 97.8 96.5999C97.8 96.5999 97.95 96.5999 97.95 96.7499C97.95 98.0999 96.45 98.9999 95.25 99.2999C94.65 99.4499 94.05 99.5999 93.3 99.4499C92.55 99.2999 91.8 98.6999 91.35 98.0999C91.2 97.7999 91.05 97.4999 90.9 97.1999C91.2 96.8999 91.2 96.7499 91.05 96.7499ZM79.05 92.6999C80.55 92.8499 82.05 92.9999 83.7 93.2999C85.65 93.5999 88.65 93.4499 90.6 94.3499C90.3 94.9499 90.15 95.6999 90.15 96.4499C89.4 96.2999 88.65 96.1499 88.05 95.9999C86.7 95.6999 85.5 95.3999 84.3 94.9499C82.5 94.3499 80.7 93.5999 79.05 92.6999ZM96.45 121.8C96.3 121.8 96.3 121.8 96.45 121.8C91.95 120.3 87.9 118.05 84.3 115.05C81.3 112.35 78.9 109.2 76.05 106.2C73.05 103.05 69.6 100.35 66.6 97.4999C64.05 95.2499 61.35 93.2999 58.35 91.9499C54.45 89.9999 50.4 88.0499 46.35 86.0999C44.1 84.8999 41.4 83.9999 39 82.7999L38.85 82.6499C38.7 82.4999 38.7 82.4999 38.55 82.3499C39.15 82.4999 39.6 82.6499 40.2 82.7999C43.95 83.9999 47.7 85.3499 51.45 86.9999C52.65 87.4499 53.85 88.0499 55.05 88.4999C56.55 89.3999 58.05 90.1499 59.55 91.0499C61.95 92.3999 64.05 94.1999 66.15 95.9999C70.65 99.5999 75.3 103.2 78.6 108C78.75 108.15 78.9 108 78.75 107.85C75.6 103.05 70.8 99.2999 66.3 95.6999C64.05 93.8999 61.8 91.9499 59.25 90.5999C58.8 90.2999 58.2 89.9999 57.75 89.6999C63.75 92.3999 69.6 95.3999 73.8 100.35C78 105.15 81.45 110.4 86.1 114.75C88.95 117.45 92.55 120 96.45 121.8ZM100.65 125.25C94.05 123.15 87.3 119.25 81.6 115.35C76.05 111.6 71.25 106.95 66.45 102.45C58.35 94.9499 49.2 89.0999 39.75 83.2499C40.65 83.6999 41.7 83.9999 42.6 84.4499C46.5 86.2499 50.25 88.3499 54.15 90.1499C58.95 92.3999 63.3 94.6499 67.2 98.3999C70.2 101.25 73.5 103.8 76.35 106.8C81.75 112.5 86.1 117.75 93.45 120.9C95.85 121.95 98.4 122.7 101.1 123.45C101.4 123.6 101.55 123.6 101.85 123.75C103.05 124.05 104.25 124.5 105.45 124.8C105.6 124.8 105.6 124.8 105.75 124.95C106.5 125.25 107.4 125.4 108.15 125.7C108.45 125.85 108.75 125.85 108.9 126C111.45 126.75 114 127.65 115.95 129.15C115.65 129.3 115.5 129.45 115.2 129.6C114 130.05 113.4 129.45 112.35 129C111.75 128.7 111 128.55 110.4 128.4V128.25C106.95 127.05 103.8 126.15 100.65 125.25ZM81.15 120.15C75.75 118.05 70.95 115.05 66 111.6C63 109.35 59.85 107.25 56.7 105C53.4 102.75 51.15 99.8999 48.75 96.7499C46.5 93.5999 44.4 90.2999 42 87.2999C41.1 86.0999 40.35 84.8999 39.45 83.8499C43.65 87.2999 47.25 91.6499 50.85 95.3999C55.5 100.35 60.45 104.85 65.7 109.05C70.95 112.95 75.6 117.15 81.15 120.15ZM80.4 119.4C74.55 116.1 69.6 111.3 64.35 107.25C58.5 102.75 53.7 97.4999 48.6 92.2499C46.2 89.6999 43.8 86.9999 41.1 84.5999C50.85 90.7499 60.15 97.1999 68.55 105.15C73.05 109.35 77.7 113.7 83.1 116.85C87.9 119.7 93 122.7 98.4 124.8C94.5 123.9 90.6 123 86.7 121.95C85.35 121.65 84 121.2 82.65 120.75C81.9 120.3 81.15 119.85 80.4 119.4ZM32.25 79.4999C32.55 79.4999 33 79.6499 33.3 79.6499C33.6 79.7999 33.9 80.0999 34.2 80.2499C34.5 80.3999 34.8 80.6999 35.1 80.8499C35.85 81.4499 36.6 81.8999 37.35 82.1999C37.8 82.4999 38.25 82.7999 38.7 83.0999C40.5 85.1999 42 87.5999 43.5 89.6999C45.75 92.9999 48 96.2999 50.4 99.4499C54.75 105.15 61.2 108.45 66.9 112.65C71.85 116.4 77.25 119.25 83.1 121.35C89.1 124.05 95.55 125.4 102 126.75C102.15 126.75 102.15 126.6 102 126.45C96.6 125.25 91.2 124.05 85.95 122.1C86.1 122.1 86.4 122.25 86.55 122.25C93.45 123.9 100.5 125.4 107.25 127.5C102.3 126.45 97.05 126.3 91.95 125.7C84.9 124.8 77.55 122.85 71.7 118.65C68.85 116.55 66.3 114 63.6 112.05C60.6 109.8 57.45 107.85 54.45 105.6C48.9 101.25 45.15 95.5499 41.4 89.6999C38.85 85.7999 36 82.0499 32.25 79.4999ZM43.95 37.9499C42.45 41.3999 40.5 44.5499 38.1 47.5499C35.4 50.8499 32.7 53.9999 30.75 57.8999C30.75 58.0499 30.75 58.0499 30.9 58.0499C29.1 59.3999 27.3 60.8999 25.8 62.5499L25.65 62.6999L25.8 62.3999C27.3 60.4499 28.65 58.3499 29.85 56.0999C31.95 52.1999 34.8 49.1999 37.35 45.5999C40.35 41.5499 42.6 37.1999 44.25 32.5499C45 30.2999 45.45 27.8999 46.2 25.6499C46.65 24.1499 47.1 22.6499 47.25 20.9999C47.4 20.9999 47.55 21.1499 47.55 21.2999C47.85 21.5999 47.25 23.6999 47.25 23.9999C47.1 24.8999 46.95 25.7999 46.8 26.6999C46.35 29.3999 45.6 32.0999 44.85 34.7999C44.55 35.8499 44.25 36.8999 43.95 37.9499ZM33 56.5499C32.4 56.9999 31.65 57.4499 31.05 57.8999C33 53.8499 36 50.5499 38.85 47.0999C40.5 44.9999 42 42.5999 43.35 40.1999C43.2 40.4999 43.2 40.7999 43.05 41.0999C42.15 43.4999 40.8 44.9999 39.3 46.9499C37.05 49.9499 35.7 53.5499 33 56.5499ZM105 28.1999C102 29.3999 99.45 31.3499 96.45 32.9999C93 34.7999 89.25 35.5499 85.5 36.2999C82.65 36.8999 79.5 37.3499 76.8 38.5499C73.95 39.8999 71.55 42.1499 69.3 44.2499C64.8 48.5999 60.9 53.5499 56.55 58.1999C55.65 59.0999 54.75 59.9999 53.85 60.8999C51.15 63.2999 48.3 65.5499 45.45 67.6499C43.05 69.2999 40.65 71.2499 37.8 72.2999C38.25 71.8499 38.7 71.5499 39.15 71.0999C44.55 66.2999 50.25 61.9499 55.35 56.9999C60 52.4999 63.3 46.6499 68.1 42.2999C73.35 37.4999 79.8 34.9499 86.7 33.7499C89.7 33.2999 93 33.2999 96 32.3999C98.7 31.3499 102.15 28.1999 105 28.1999C105 28.0499 105 28.0499 105 28.1999ZM59.1 51.4499C58.35 52.3499 57.45 53.2499 56.7 54.1499C50.85 57.5999 43.95 59.2499 37.5 60.5999C33.6 61.4999 29.85 62.9999 26.25 64.9499C27 64.1999 27.9 63.5999 28.65 62.8499C32.25 60.1499 36.3 58.1999 40.5 56.5499C44.7 54.8999 48.9 53.6999 52.95 51.7499C54.75 50.8499 56.55 50.0999 58.5 49.4999C59.55 49.1999 60.6 48.7499 61.65 48.1499C60.9 49.1999 60 50.2499 59.1 51.4499ZM106.35 28.3499C103.2 31.0499 99.75 33.4499 95.85 34.7999C92.25 35.9999 88.65 37.0499 85.05 38.3999C79.35 40.4999 72.9 42.2999 67.95 46.0499C70.5 43.3499 73.35 40.4999 76.8 38.8499C79.95 37.1999 84 36.7499 87.6 35.9999C90.9 35.3999 94.05 34.6499 97.05 32.9999C100.05 31.3499 102.75 29.2499 106.05 28.0499C105.9 28.1999 106.2 28.3499 106.35 28.3499ZM106.5 29.5499C104.55 30.4499 102.9 31.7999 100.95 32.6999C100.5 32.8499 100.05 33.1499 99.75 33.2999C102.15 31.9499 104.4 30.2999 106.5 28.3499C106.65 28.7999 106.8 29.2499 106.5 29.5499ZM50.7 67.9499C51.3 67.6499 51.9 67.4999 52.35 67.1999C54.9 66.1499 57.3 65.0999 59.55 63.7499C61.95 62.3999 64.35 60.7499 66.3 58.7999C70.05 56.3999 73.65 53.8499 77.4 51.4499C83.1 47.8499 87.75 43.0499 93.3 39.2999C95.85 37.4999 98.4 35.9999 100.95 34.3499C100.8 34.4999 100.65 34.4999 100.65 34.6499C98.25 36.4499 95.7 37.9499 93.3 39.7499C82.95 47.5499 73.35 56.8499 61.65 62.9999C58.05 64.7999 54.45 66.4499 50.7 67.9499ZM59.1 63.7499C58.35 64.1999 57.45 64.4999 56.55 64.9499C59.55 63.2999 62.4 61.4999 65.4 59.5499C63.45 61.1999 61.35 62.5499 59.1 63.7499ZM45.9 69.2999C50.55 66.4499 55.2 63.5999 59.4 59.9999C63.6 56.3999 67.2 52.4999 71.7 49.1999C75.9 46.0499 80.55 43.9499 85.05 41.5499C89.4 39.2999 93.6 36.7499 98.1 34.4999C100.05 33.5999 102 32.5499 103.8 31.4999C104.7 30.8999 105.45 30.4499 106.35 29.8499C105.9 30.5999 105.3 31.1999 104.55 31.7999C104.25 32.0999 103.95 32.2499 103.65 32.3999C100.05 34.7999 96.3 36.8999 92.85 39.2999C88.95 41.9999 85.35 45.4499 81.6 48.2999C77.7 51.2999 73.35 53.5499 69.3 56.3999C69 56.5499 68.7 56.8499 68.4 56.9999C69.6 55.9499 70.65 54.7499 71.85 53.5499C79.95 45.2999 90.45 40.1999 100.35 34.4999C100.5 34.4999 100.35 34.1999 100.2 34.3499C90.75 39.7499 80.85 44.5499 72.9 52.1999C71.1 53.8499 69.6 55.7999 67.8 57.4499C62.4 61.0499 57 64.6499 51.15 67.3499C49.35 68.0999 47.55 68.6999 45.9 69.2999ZM44.7 69.7499C47.1 68.0999 49.5 66.1499 51.45 64.0499C54.15 61.1999 56.55 58.4999 59.4 55.7999C61.95 53.3999 63.6 50.3999 66.15 47.9999C71.55 42.8999 79.8 40.7999 86.7 38.2499C90.45 36.8999 94.35 35.9999 97.8 34.3499C95.85 35.3999 93.9 36.4499 91.95 37.4999C86.7 40.4999 81 42.8999 75.75 46.1999C70.8 49.3499 66.45 53.0999 62.1 57.1499C57.15 61.9499 51.3 65.5499 45.6 69.2999V69.4499C45.6 69.4499 45.6 69.4499 45.75 69.4499C45.45 69.4499 45.15 69.5999 44.7 69.7499ZM42.3 70.7999C40.65 71.6999 39 72.2999 37.2 72.7499L37.35 72.5999C39.15 71.9999 40.95 70.9499 42.45 69.8999C45.6 67.7999 48.6 65.6999 51.6 63.2999C51.9 63.1499 52.05 62.8499 52.35 62.5499C49.8 65.5499 46.8 68.0999 43.5 70.1999C43.05 70.3499 42.75 70.4999 42.3 70.6499C42.15 70.4999 42.3 70.6499 42.3 70.7999ZM35.7 73.9499C36 73.6499 36.3 73.3499 36.75 73.1999C37.65 73.0499 38.55 72.7499 39.45 72.4499C38.1 72.8999 36.9 73.3499 35.7 73.9499ZM28.65 66.8999C32.7 65.0999 37.05 64.7999 41.4 63.7499C44.4 62.9999 47.1 61.7999 49.8 60.4499C47.25 62.6999 44.55 64.7999 42 67.0499C40.05 68.6999 38.1 70.6499 36 72.5999C35.85 72.5999 35.7 72.7499 35.55 72.7499C35.4 72.7499 35.4 72.8999 35.55 72.8999H35.7C34.65 73.7999 33.6 74.5499 32.4 75.2999C31.65 75.5999 30.9 75.8999 30.15 76.1999C30.3 76.0499 30.15 75.8999 30 76.0499C27.6 77.3999 24.45 77.5499 21.75 77.8499C18.45 78.1499 15.3 77.5499 12 77.5499C11.85 77.5499 11.7 77.8499 12 77.8499C15.3 77.9999 18.45 78.4499 21.75 78.1499C23.1 77.9999 24.45 77.8499 25.8 77.6999C25.8 77.6999 25.8 77.6999 25.65 77.6999C25.5 77.6999 25.65 77.6999 25.5 77.6999C24.3 77.9999 23.1 78.2999 21.9 78.5999C17.55 78.5999 13.35 78.2999 9 77.8499C10.65 76.9499 12.3 76.0499 13.95 75.1499C13.65 75.4499 13.35 75.5999 13.05 75.7499C12.75 76.0499 12.45 76.1999 12.15 76.4999C11.85 76.6499 11.55 76.9499 11.4 77.2499V77.3999C11.55 77.5499 11.55 77.5499 11.85 77.5499C11.85 77.5499 11.85 77.5499 11.85 77.3999C11.85 77.3999 11.85 77.3999 11.7 77.3999C11.7 77.3999 11.7 77.3999 11.55 77.3999C11.7 77.0999 12 76.9499 12.3 76.7999C12.6 76.6499 12.9 76.3499 13.2 76.1999C13.8 75.5999 14.55 75.1499 15.3 74.5499C15.3 74.5499 15.3 74.5499 15.3 74.3999C15.45 74.2499 15.6 74.2499 15.75 74.0999C15.75 74.2499 15.9 74.2499 16.05 74.2499H16.2C16.35 73.9499 16.65 73.7999 16.8 73.4999C20.85 70.9499 24.75 68.8499 28.65 66.8999ZM22.5 68.2499C23.4 67.4999 24.45 67.0499 25.65 66.5999C27.15 66.1499 28.5 65.5499 30 64.9499C33.3 63.7499 36.6 63.7499 39.9 63.4499C40.2 63.4499 40.35 63.2999 40.65 63.2999C40.35 63.4499 39.9 63.4499 39.6 63.5999C35.85 64.3499 32.1 64.7999 28.5 66.4499C25.05 67.9499 21.9 69.7499 18.75 71.8499C19.2 71.3999 19.5 70.9499 19.95 70.4999C20.7 69.5999 21.6 68.8499 22.5 68.2499ZM25.2 65.8499C29.85 63.1499 34.95 61.1999 40.2 60.1499C43.5 59.3999 46.8 58.4999 50.1 57.1499C52.2 56.3999 54.3 55.4999 56.25 54.4499C54.9 55.7999 53.55 57.1499 52.2 58.3499C50.4 59.3999 48.45 59.8499 46.65 60.7499C43.95 62.0999 40.95 62.8499 37.95 62.9999C34.95 63.1499 32.25 63.4499 29.4 64.4999C27.9 65.0999 26.55 65.5499 25.05 66.1499C24.75 66.2999 24.45 66.4499 24.15 66.5999C24.45 66.5999 24.75 66.2999 25.2 65.8499ZM39.9 55.4999C47.55 52.3499 55.5 50.2499 62.85 46.7999C62.55 47.0999 62.4 47.3999 62.25 47.5499C60.75 48.5999 58.8 49.0499 57.15 49.6499C55.2 50.3999 53.25 51.2999 51.3 52.1999C47.4 53.9999 43.2 55.0499 39.15 56.6999C35.25 58.1999 31.65 60.1499 28.35 62.6999C27.15 63.5999 26.1 64.4999 25.05 65.5499C24.6 65.8499 24.15 65.9999 23.85 66.2999C28.65 61.9499 33.75 58.0499 39.9 55.4999ZM27.15 62.0999C30.45 58.6499 34.5 56.3999 38.7 54.1499C43.05 51.8999 47.7 50.2499 52.5 49.0499C56.4 48.1499 60.15 47.5499 63.75 45.5999C63.6 45.8999 63.3 46.0499 63.15 46.3499C55.35 49.9499 46.95 52.0499 39.15 55.4999C33.45 57.8999 28.65 61.6499 24 65.5499C24 65.3999 24.15 65.3999 24.15 65.2499C24.45 64.9499 24.6 64.6499 24.9 64.4999C24.9 64.6499 25.05 64.7999 25.2 64.6499C25.2 64.4999 25.35 64.1999 25.35 64.0499C25.95 63.4499 26.55 62.6999 27.15 62.0999ZM42.9 25.4999C41.7 27.1499 40.8 28.7999 39.9 30.4499C37.8 33.8999 35.7 37.3499 33.75 40.9499C31.95 44.2499 30.15 47.5499 28.8 50.9999C27.6 53.9999 26.85 57.2999 25.5 60.2999C25.95 57.4499 26.7 54.5999 27.75 51.8999C29.4 47.9999 31.5 44.2499 33.45 40.3499C35.4 36.2999 37.8 32.5499 40.5 28.9499C41.1 27.7499 42 26.6999 42.9 25.4999ZM45.9 21.1499C45.3 24.8999 43.8 28.7999 42.15 32.0999C40.35 35.8499 37.95 39.1499 36 42.7499C34.05 46.6499 31.5 50.0999 29.25 53.8499C27.75 56.3999 26.4 59.2499 25.5 62.2499C25.35 62.5499 25.05 62.6999 24.75 62.8499C24.75 62.5499 24.9 62.0999 24.9 61.7999C24.9 61.4999 25.05 61.1999 25.05 60.8999C26.55 58.0499 27.45 54.7499 28.5 51.7499C30 47.5499 32.4 43.6499 34.5 39.7499C36.75 35.8499 39.15 32.0999 41.4 28.1999C42.9 25.9499 45 23.8499 45.9 21.1499ZM46.8 20.8499C46.5 22.9499 46.05 24.8999 45.45 26.8499C44.85 28.7999 44.4 30.8999 43.8 32.8499C42.15 37.4999 39.75 41.8499 36.75 45.8999C34.35 49.1999 31.65 52.0499 29.7 55.6499C28.65 57.7499 27.45 59.8499 25.95 61.7999C26.25 60.7499 26.7 59.5499 27.15 58.4999C28.2 56.2499 29.55 53.9999 30.9 51.8999C33.15 48.4499 34.95 44.9999 37.05 41.5499C39 38.2499 41.1 34.9499 42.75 31.4999C44.4 28.1999 45.45 24.7499 46.2 20.9999C46.35 20.8499 46.65 20.6999 46.8 20.8499Z" fill="#E8D1BB"/>
</g>
</svg>
