<?xml version="1.0" standalone="no"?>
<!DOCTYPE svg PUBLIC "-//W3C//DTD SVG 1.1//EN" "http://www.w3.org/Graphics/SVG/1.1/DTD/svg11.dtd" >
<svg xmlns="http://www.w3.org/2000/svg" xmlns:xlink="http://www.w3.org/1999/xlink" version="1.1">
<metadata>
Created by FontForge 20150318 at Tue Jul 28 02:29:08 2015
 By uniteet7
Copyright (c) 2011 by Ricardo Rousselot. All rights reserved.
</metadata>
<defs>
<font id="iCielBambola" horiz-adv-x="418" >
  <font-face 
    font-family="iCielBambola"
    font-weight="400"
    font-stretch="normal"
    units-per-em="1000"
    panose-1="2 0 0 0 0 0 0 0 0 0"
    ascent="750"
    descent="-250"
    x-height="361"
    cap-height="714"
    bbox="-439 -420 1458 1029"
    underline-thickness="50"
    underline-position="-50"
    unicode-range="U+001D-FB02"
  />
<missing-glyph horiz-adv-x="0" 
 />
    <glyph glyph-name="l_l" unicode="ll" horiz-adv-x="437" 
d="M286 133q-19 -33 -19 -53q0 -24 22 -24q78 0 222 201q7 10 11 1q8 -20 8 -26q0 -11 -12 -27q-159 -211 -275 -211q-61 0 -61 62l-1 9q-79 -68 -145 -68q-64 0 -64 58q0 30 27 81q309 581 495 581q71 0 71 -57l-1 -4q62 55 107 55q24 0 38 -16q14 -15 14 -36
q0 -81 -101 -182q-103 -104 -211 -124zM372 603q-109 -120 -294 -474q-13 -26 -13 -40q0 -25 25 -25q47 0 117 74q83 148 126 217q-61 18 -61 54q0 56 50 56q17 0 23 -14q0 1 -7 -6q-8 -7 -8 -19q0 -21 32 -23q61 103 116 164q26 30 37 41q-3 -1 -7 -1q-38 0 -38 31
q0 20 14 30q13 10 13 8q0 4 -7 4q-48 0 -118 -77zM435 397q89 28 171 115q80 86 80 148q0 15 -18 15q-21 0 -46 -20q-56 -45 -187 -258z" />
    <glyph glyph-name="s_s" unicode="ss" horiz-adv-x="585" 
d="M62 158q-5 -6 -11 6q-5 11 -5 22q0 7 3 10q55 58 55 73q1 1 -4 12q-6 13 -6 25q0 48 29 89q28 39 59 39q28 -2 28 -26q0 -33 -25 -81q-26 -48 -26 -49l45 -33q44 -34 44 -72q0 -22 -8 -43q63 71 104 146q-10 11 -10 34q0 40 30 83q31 44 60 44q23 0 23 -26
q0 -56 -52 -127q97 -48 97 -122q0 -77 -96 -129q-3 0 -3 -2t4 -2q168 41 237 200q3 5 6 5q15 0 15 -27q0 -55 -87 -129q-99 -85 -213 -85q-117 0 -117 48q0 9 6 21q12 -27 62 -27q53 0 85 42q24 31 24 63q0 44 -47 105q-153 -245 -299 -245q-69 0 -69 45q0 17 9 17
q-1 0 17 -13t46 -13q43 0 76 35q30 33 30 73q0 35 -50 91q-33 -44 -66 -77z" />
    <glyph glyph-name="r_r" unicode="rr" horiz-adv-x="723" 
d="M68 177q-5 5 -8 20t0 20q59 75 59 82q-25 12 -25 47q0 34 31 65q29 30 57 30q31 0 31 -35q0 -42 -28 -77q-3 -3 -2 -4q0 -1 1 -1q17 0 47 10q31 10 43 10q49 0 49 -47q0 -27 -58 -109q-59 -81 -59 -110q0 -21 19 -21q57 0 141 94q74 82 103 154q1 2 -6 10q-9 10 -9 32
q0 31 31 64q30 31 57 31q30 0 30 -35q0 -38 -27 -77q-3 -3 -2 -4q0 -1 4 -1q5 0 39 10q33 10 48 10q17 0 32 -12q17 -14 17 -35l1 -1q0 -28 -68 -122q-49 -68 -49 -97q0 -21 19 -21q83 0 222 195q1 2 3 2q8 0 8 -34q0 -15 -32 -56q-124 -164 -248 -164q-60 0 -60 60
q0 47 36 101q-6 -9 29 40q46 59 45 80q0 15 -14 15q-4 0 -22 -5t-32 -5q-8 0 -20 2q-47 -113 -139 -198q-97 -90 -184 -90q-60 0 -60 60q0 42 56 119q55 77 55 101q0 15 -14 15q-5 0 -26 -4q-19 -3 -31 -2q-86 -116 -90 -112z" />
    <glyph glyph-name="p_s" unicode="ps" horiz-adv-x="680" 
d="M761 196q-2 -59 -82 -126q-96 -81 -224 -81q-96 0 -138 57q-70 -70 -177 -70q-28 0 -45 17q-16 15 -16 36q0 6 5 7l30 11q55 21 107 94q52 72 52 124q0 46 -40 46q-59 0 -112 -92q-249 -431 -238 -413q-15 -25 -15 -44q0 -13 14 -13h1q3 0 3 -4q0 -2 -4 -5
q-32 -20 -59 -20q-44 0 -42 38q1 17 107 202q137 236 165 286q33 57 33 81q0 20 -15 29q-3 2 -3 5t4 6q18 11 44 11q19 0 32 -13q12 -14 12 -32q0 -8 -3 -17q-3 -6 8 5q50 47 109 47q76 0 76 -77q0 -75 -62 -163q-67 -94 -148 -110q-3 -1 -4 -3t3 -2q97 6 169 71q0 31 16 52
q18 23 46 23q55 55 104 132q-2 10 -2 26q0 32 28 72q29 41 56 40q28 -2 28 -26q0 -34 -28 -76q-28 -43 -28 -42q0 -7 37 -58q36 -50 36 -85q0 -77 -56 -100q-3 0 -3 -2t4 -2q125 29 197 178q4 7 6 7q12 -1 12 -27zM426 30q34 0 67 33q36 35 36 79q0 49 -31 116
q-52 -66 -97 -121q5 -7 5 -19q1 -19 -11 -33t-29 -14q-8 0 -11 1q-5 0 -3 -6q14 -36 74 -36z" />
    <glyph glyph-name="f_r" unicode="fr" horiz-adv-x="639" 
d="M-96 -249q-54 0 -54 75q0 100 420 834q7 14 7 24q0 9 -7 15t-7 7q0 4 5 7q19 12 47 12q45 0 45 -32q0 -17 -13 -39l-245 -421q-206 -354 -206 -415q0 -25 17 -25q77 0 294 413q-21 22 -21 87q0 32 16 64q19 40 49 40q35 0 35 -60q0 -43 -17 -86l-10 -26q0 -7 18 -7
q58 0 116 80q-20 20 -20 48q0 35 26 65q25 30 52 30q31 0 31 -38q0 -42 -25 -74q-3 -3 -2 -4q0 -1 1 -1q17 0 47 10q31 10 43 10q49 0 49 -47q0 -28 -68 -122q-49 -68 -49 -97q0 -21 19 -21q83 0 222 195q1 2 3 2q8 0 8 -34q0 -15 -32 -56q-124 -164 -248 -164q-60 0 -60 60
q0 47 36 101q-6 -9 29 40q46 59 46 79q0 15 -14 15q-6 0 -27 -5q-19 -4 -30 -3q-26 -43 -68 -74q-44 -32 -81 -32q-28 0 -38 10q-216 -440 -339 -440z" />
    <glyph glyph-name="j_j" unicode="jj" horiz-adv-x="374" 
d="M-204 -177q33 37 109 150q115 173 190 328q7 16 7 25t-7 15t-7 7q0 15 44 19q57 0 57 -35q0 -15 -12 -36q-166 -293 -211 -364q-47 -74 -91 -120q24 -12 44 -12q58 0 103 47q24 26 63 95q164 283 207 359q7 12 7 25q0 9 -7 15t-7 7q0 15 44 19q57 0 57 -35q0 -15 -12 -36
q-38 -68 -189 -325q-125 -207 -258 -207q-33 0 -77 24q-84 -77 -175 -77q-52 0 -85 32q-29 30 -29 70q0 37 20 61q19 23 49 23q20 0 35 -13q14 -13 14 -29q0 -46 -45 -46q-17 0 -30 13q-6 6 -6 -3q0 -31 19 -51q21 -20 55 -20q58 0 124 75zM445 461q-21 -22 -46 -22
q-34 0 -34 31q0 26 22 48q21 22 48 22q30 0 30 -33q0 -25 -20 -46zM248 461q-21 -22 -46 -22q-34 0 -34 31q0 26 22 48q21 22 48 22q30 0 30 -33q0 -25 -20 -46z" />
    <glyph glyph-name="f_j" unicode="fj" horiz-adv-x="498" 
d="M425 310q3 8 3 16q0 9 -7 15t-7 7q0 3 6 7q17 10 38 12h8q49 0 49 -35q0 -15 -12 -36q-38 -68 -189 -325q-125 -207 -258 -207q-28 0 -55 12q-37 -26 -68 -26q-54 0 -54 75q0 100 420 834q7 14 7 24q0 9 -7 15t-7 7q0 4 5 7q19 12 47 12q45 0 45 -32q0 -17 -13 -39
l-245 -421q-206 -354 -206 -415q0 -25 17 -25q52 0 177 203q39 64 82 143l38 71q-18 18 -21 48q-8 47 5 83q20 56 57 56q31 0 35 -49q3 -45 -17 -97l-10 -25q8 -3 23 -3q63 0 108 78zM271 189q-142 -292 -239 -386q9 -3 16 -3q58 0 103 47q24 26 63 95q76 133 146 253
q-24 -11 -50 -11q-25 0 -39 5zM574 461q-21 -22 -46 -22q-34 0 -34 31q0 26 22 48q21 22 48 22q30 0 30 -33q0 -25 -20 -46z" />
    <glyph glyph-name="g_j" unicode="gj" horiz-adv-x="547" 
d="M254 45q-91 -165 -170 -238q23 -7 31 -7q58 0 103 47q24 26 63 95q164 283 207 359q7 12 7 25q0 9 -7 15t-7 7q0 3 6 7q17 10 38 12h8q49 0 49 -35q0 -15 -12 -36q-38 -68 -189 -325q-125 -207 -258 -207q-32 0 -68 18q-77 -57 -160 -57q-58 0 -90 32q-29 28 -29 69
q0 36 20 62q21 25 52 25q20 0 34 -15q12 -13 12 -30t-12 -31q-13 -15 -33 -15q-17 0 -30 13q-6 6 -6 -3q0 -70 81 -70q113 0 240 224l25 45q-48 -35 -91 -35q-39 0 -60 25q-19 22 -19 56q0 87 87 185q92 103 186 103q47 0 65 -37q29 37 66 37q49 0 49 -23q0 2 -13 -8
q-19 -13 -41 -46q-6 -8 -134 -243zM111 59q19 0 48 18q38 24 60 65l74 130q5 10 5 18q0 39 -40 39q-49 0 -117 -86q-66 -84 -66 -136q0 -48 36 -48zM641 461q-21 -22 -46 -22q-34 0 -34 31q0 26 22 48q21 22 48 22q30 0 30 -33q0 -25 -20 -46z" />
    <glyph glyph-name="t_t" unicode="tt" horiz-adv-x="477" 
d="M551 377q-10 -48 -58 -48h-66q-30 -51 -113 -196q-20 -34 -20 -53q0 -23 18 -23q83 0 222 195q1 2 3 2q8 0 8 -34q0 -15 -32 -56q-124 -164 -249 -164q-65 0 -65 59q0 9 3 20q-89 -79 -170 -79q-65 0 -65 59q0 50 145 270l-51 1q-12 0 -20 -4q-6 -3 -8 1q-1 3 1 7
q3 8 10 18q11 17 28 21q14 3 69 2q37 63 45 88q5 14 -3 22q-6 7 -3 9q16 12 39 12q52 0 52 -35q0 -15 -12 -36q-9 -17 -35 -60h149q37 63 45 88q5 14 -3 22q-6 7 -3 9q16 12 39 12q52 0 52 -35q0 -15 -12 -36q-9 -17 -35 -60h3q17 0 42 -1q40 0 47 9q3 0 3 -6zM260 196
q45 75 84 133h-149q-30 -51 -113 -196q-20 -34 -20 -53q0 -23 18 -23q69 0 180 139z" />
    <glyph glyph-name="g_g" unicode="gg" horiz-adv-x="695" 
d="M116 -145q-111 -138 -233 -138q-56 0 -88 34q-26 29 -26 68q0 37 21 62q20 24 51 24q20 0 34 -14q12 -13 12 -30t-12 -31q-13 -15 -33 -15q-17 0 -30 13q-6 6 -6 -3q0 -71 74 -71q85 0 183 134q49 67 81 134q1 1 0 2q-1 0 -2 -1q-48 -40 -111 -40q-30 0 -49 25
q-17 23 -17 58q0 93 94 194q96 104 192 104q24 0 43 -14q16 -12 19 -23q18 36 66 36q50 0 50 -21q0 2 -16 -8q-22 -13 -43 -46q-5 -7 -178 -322q-20 -33 -45 -70q16 10 38 10q20 0 34 -15q12 -13 12 -30t-12 -31q-13 -15 -33 -15q-19 0 -32 13q-6 6 -6 -3q0 -71 79 -71
q85 0 183 134q49 67 81 134q1 1 0 2q-1 0 -2 -1q-48 -40 -111 -40q-30 0 -49 25q-17 23 -17 58q0 93 94 194q96 104 192 104q24 0 43 -14q15 -12 18 -23q18 36 67 36q50 0 50 -21q0 2 -16 -8q-22 -13 -43 -46q-25 -39 -178 -322q-142 -250 -309 -250q-57 0 -90 34
q-29 29 -29 69q0 18 5 36zM82 39q26 0 63 31q38 31 63 75l56 101q18 32 18 52q0 32 -37 32q-49 0 -124 -96q-74 -94 -74 -147q0 -48 35 -48zM429 39q26 0 63 31q38 31 63 75l56 101q18 32 18 51q0 32 -37 32q-49 0 -124 -96q-74 -93 -74 -146q0 -48 35 -48z" />
    <glyph glyph-name="z_z" unicode="&#x7a;&#x7a;" horiz-adv-x="668" 
d="M519 110q42 -29 42 -89q0 -31 -14 -59q49 -22 49 -60q0 -26 -17 -43q-16 -17 -35 -17q-25 0 -31 16q26 6 26 33q0 18 -15 24q-45 -84 -143 -157q-100 -74 -171 -74q-83 0 -83 67q0 82 123 155q116 68 224 68q22 47 22 68q0 24 -17 36q-61 -35 -94 -35q-35 0 -35 28
q0 20 30 37q29 17 61 19q20 1 37 -2q90 63 143 155q2 3 1 3t-3 -2q-102 -102 -200 -102h-9l-1 -1q-90 -118 -174 -156q0 -95 -132 -213q-130 -115 -226 -115q-80 0 -80 72q0 68 130 158q39 27 241 106q5 18 5 27q0 25 -15 34q-51 -31 -96 -31q-28 0 -28 24t36 41
q32 14 68 14q16 0 22 -1q85 61 128 141q2 3 1 3q0 1 -3 -2q-88 -88 -193 -88q-53 0 -53 53q0 45 35 97q36 54 73 54q25 0 25 -32q0 -63 -54 -117l-4 -4h1q46 0 140 68q94 67 87 67q11 0 19 -7q9 -7 4 -19q-71 -169 -172 -235q35 -16 39 -57q81 43 143 137q-10 11 -10 35
q0 44 41 101q41 58 79 58q25 0 25 -32q0 -59 -66 -125l-3 -4q48 0 141 68q93 67 86 67q11 0 19 -7q9 -7 4 -19q-64 -155 -173 -229zM18 -189q87 79 132 171q1 3 -56 -20q-65 -26 -120 -54q-56 -28 -98 -71t-42 -73q0 -33 42 -33q55 0 142 80zM366 -179q82 88 82 114
q0 1 -7 1q-67 0 -168 -60q-109 -65 -109 -125q0 -30 43 -30q66 0 159 100z" />
    <glyph glyph-name="o_o" unicode="oo" horiz-adv-x="637" 
d="M369 -1q-39 0 -61 25q-20 22 -20 56q0 15 5 37q-37 -20 -75 -20q-73 -98 -163 -98q-81 0 -81 81q0 88 86 185q91 102 187 102q72 0 72 -66q0 -67 -71 -162q40 13 70 44q39 74 105 127q71 57 138 57q33 0 53 -18q20 -17 20 -44q0 -84 -71 -171q51 3 135 106q4 4 7 4
q12 0 12 -26q0 -11 -3 -16q-75 -112 -187 -112q-85 -91 -158 -91zM178 102q-43 27 -43 100q0 35 9 67q-87 -96 -87 -176q0 -43 42 -43q38 0 79 52zM371 92q0 -42 41 -42q34 0 80 52q-44 25 -44 105q0 37 11 63q-88 -97 -88 -178zM600 291q0 41 -36 41q-31 0 -50 -38
q-17 -35 -17 -80q0 -55 28 -73q75 93 75 150zM245 332q-29 0 -47 -30t-18 -75q0 -66 24 -86q76 87 76 155q-1 36 -35 36z" />
    <glyph glyph-name="L_l" unicode="Ll" horiz-adv-x="719" 
d="M866 603q-109 -120 -294 -474q-13 -26 -13 -40q0 -25 25 -25q73 0 213 197q2 2 5 -6q3 -9 3 -19q0 -13 -8 -29q-33 -59 -100 -123q-92 -87 -167 -87q-64 0 -64 58q0 30 27 81q309 581 495 581q68 0 68 -57q0 -19 -12 -34q-15 -19 -42 -19q-38 0 -38 31q0 20 14 30
q13 10 13 8q0 4 -7 4q-48 0 -118 -77zM94 78q98 69 171 227q-99 0 -159 54q-56 51 -56 125q0 72 56 127q53 52 113 52q52 0 78 -28q20 -23 20 -56q0 -26 -17 -45q-17 -20 -42 -20q-50 0 -50 49q0 35 22 40q7 2 7 7q0 4 -13 4q-43 0 -81 -36q-42 -40 -42 -93q0 -50 44 -85
q48 -39 128 -39h17q84 176 186 267q90 80 173 80q33 0 53 -24q17 -22 17 -55q0 -92 -96 -186q-107 -105 -266 -137q-113 -198 -209 -252q14 -6 178 -101q108 -62 172 -62q36 0 59 17q20 14 20 33q0 12 -10 20q-2 1 8 3q10 3 15 3q22 0 38 -17q20 -20 20 -55q0 -46 -37 -78
q-38 -33 -98 -33q-103 0 -231 101q-150 118 -195 133q-54 -31 -146 -31q-25 0 -42 12q-17 13 -17 30q0 20 30 41q35 23 85 23q60 0 97 -15zM632 659q-91 0 -247 -287q107 23 196 103q87 79 87 148q0 36 -36 36z" />
    <glyph glyph-name="T_h" unicode="Th" horiz-adv-x="896" 
d="M607 506q-64 -43 -127 -160q-125 -231 -119 -221q-109 -169 -255 -169q-49 0 -78 26q-28 24 -28 64q0 30 22 51q21 21 47 21q52 0 52 -42q0 -16 -11 -32q-13 -17 -30 -17q-12 0 -19 2l-7 2q-3 0 -3 -5q0 -8 17 -15q17 -8 35 -8q91 0 149 86q57 83 126 247q29 68 86 120
q66 59 134 59q12 0 12 -6q0 -1 -3 -3zM973 267q6 0 6 -16q0 -14 -7 -28q-115 -219 -245 -219q-64 0 -64 52q0 18 94 206q6 12 6 21q0 22 -24 22q-30 0 -83 -48q-132 -132 -132 -212q0 -11 10 -16q9 -6 9 -7q0 -20 -64 -20q-44 0 -44 38q0 26 93 187q100 173 200 312
q-50 -13 -75 -13q-44 0 -143 42t-180 42q-83 0 -148 -76q-59 -68 -59 -129q0 -64 37 -96q27 -24 61 -24q4 0 5 4q0 4 -5 4t-12 11t-7 20q0 49 52 49q22 0 37 -18q13 -17 13 -36q0 -35 -30 -59q-27 -22 -58 -22q-48 0 -87 35q-51 44 -51 126q0 102 78 187q88 95 221 95
q60 0 171 -51q112 -51 155 -51q36 0 77 31l60 75q47 49 88 49q22 0 22 -33q0 -61 -146 -143q-12 -13 -83 -121l-87 -154q0 -3 4 1q70 77 151 77q25 0 42 -18q18 -18 18 -45q0 -31 -50 -114t-50 -97q0 -27 22 -27q41 0 111 81q50 60 86 122q3 4 5 4z" />
    <glyph glyph-name="W_h" unicode="Wh" horiz-adv-x="1158" 
d="M869 382h12l24 38q182 293 288 293q20 0 33 -13q15 -14 15 -36q0 -89 -91 -186q-93 -100 -214 -129q-13 -23 -41 -69q-1 -2 1 -1q2 0 3 1q70 77 151 77q25 0 42 -18q18 -18 18 -45q0 -31 -50 -114t-50 -97q0 -27 22 -27q66 0 182 198q6 11 16 -7q10 -17 0 -37
q-112 -212 -241 -212q-28 0 -46 15q-19 15 -19 39q0 18 94 206q6 12 6 21q0 22 -24 22q-30 0 -83 -48q-132 -132 -132 -212q0 -11 10 -16q9 -6 9 -7q0 -20 -64 -20q-44 0 -44 38q0 43 158 303q-56 3 -83 17q-14 -40 -54 -120q-66 -137 -147 -215q-69 -67 -123 -67
q-74 0 -74 102q0 6 -2 3q-84 -98 -177 -98q-37 0 -62 31q-29 35 -29 92q0 190 305 495q-49 -10 -122 6q-87 19 -121 19q-94 0 -152 -66q-53 -60 -53 -137q0 -52 31 -74l5 -2q5 0 3 5q-9 22 5 40q14 19 40 19q19 0 33 -15t14 -35q0 -28 -19 -48q-20 -20 -48 -20q-43 0 -74 34
q-36 40 -36 111q0 101 81 175q86 78 218 78q39 0 106 -22q68 -22 103 -22t60 21q25 20 28 20q5 0 10 -7q5 -6 4 -13q-2 -15 -69 -87q-266 -294 -266 -436q0 -78 75 -78q32 1 77 38q40 32 40 44q9 60 45 149q78 187 142 187q50 0 -34 -164q-26 -50 -63 -114l-32 -54
q0 -88 52 -88q61 0 136 119q62 101 109 223q-49 66 -49 141q0 89 54 89q36 0 52 -53q19 -63 -9 -165q20 -15 85 -15zM1196 653q0 14 -13 14q-50 -1 -214 -265q87 35 156 112q71 79 71 139z" />
    <glyph glyph-name="b_s" unicode="bs" horiz-adv-x="636" 
d="M346 589q-70 -83 -134 -194q80 33 168 124q87 90 87 137q0 18 -18 18q-32 0 -103 -85zM457 364q39 45 69 45q23 0 23 -26q0 -19 -26 -58q-27 -39 -51 -56q3 2 34 -36q36 -44 36 -85q0 -62 -54 -101q-3 -3 -3 -5t5 -2q68 8 142 96q23 27 47 64l26 39q1 2 3 2q11 0 11 -34
q0 -10 -4 -18q-69 -119 -145 -161q-59 -33 -155 -33q-50 0 -79 19q-26 16 -26 39q0 21 14 21q-4 0 13 -17t43 -17q44 0 70 33q24 30 24 78q0 47 -32 90q-59 -89 -144 -89q-22 0 -40 8q-34 -57 -97 -106q-73 -56 -136 -56q-74 0 -74 65q0 25 151 284q-55 10 -55 59
q0 22 15 39q14 16 31 16q22 0 30 -12q9 -12 3 -12q-26 0 -26 -22q0 -16 25 -26q215 322 324 322q21 0 38 -15q17 -17 17 -40q0 -74 -124 -189q-121 -112 -191 -114q-156 -271 -156 -285q0 -22 21 -22q44 0 105 55q53 48 67 82q-3 -6 -3 33t21 81q34 66 70 66q26 0 26 -32
q0 -45 -28 -93q-29 -51 -28 -45q4 -4 21 -4q74 0 113 80q-3 46 39 95z" />
    <glyph glyph-name=".notdef" horiz-adv-x="0" 
 />
    <glyph glyph-name=".null" horiz-adv-x="0" 
 />
    <glyph glyph-name="nonmarkingreturn" unicode=" " horiz-adv-x="140" 
 />
    <glyph glyph-name="uni001D" horiz-adv-x="1457" 
d="M330 24h16q61 9 91 49q6 8 6 13h3q-16 -50 -64 -63q-16 -4 -36 -5l-25 -1q-63 -10 -59 -10q-23 0 -23 7q0 10 32 10h38q15 0 18 3q25 12 63 96q41 91 74 119q11 10 32 26q3 0 3 2q0 1 -3 1t-109 27q-44 -118 -130 -190q-76 -65 -146 -65q-96 0 -96 75v9q4 33 28 68l5 7
q0 3 3 3q0 3 -3 6q-12 16 -12 50q-1 81 74 150q75 68 158 68q46 0 78 -23q45 -33 46 -104l-2 -31q124 -40 130 -40q52 37 125 37q26 0 38 -4q19 19 19 38t-13 28q21 -41 19 -25q0 -16 -8 -29q-7 -12 -11 -12q12 0 24 -10q15 -12 15 -30q-4 0 -4 3q3 8 -8 18q-13 11 -33 13
q-75 -64 -172 -40q-41 -31 -59 -66q-11 -18 -30 -59q-20 -42 -23 -47q-32 -56 -69 -72zM533 281q16 -7 44 -7q40 0 72 17q25 14 25 20h-34q-17 0 -22 -3l-31 -7q-18 -5 -25 -8q-33 -13 -29 -12zM55 237l13 -13q102 103 241 103q33 0 68 -6v22q0 49 -15 71q3 -6 -10 15
q-10 7 -13 13q-24 21 -74 26h-13q-70 0 -136 -61q-68 -62 -68 -133q0 -23 7 -37zM299 157q72 86 72 144q-32 4 -79 4q-137 0 -224 -87q21 -32 65 -32q68 0 112 40q34 32 34 58h4q0 -36 -48 -71q-50 -35 -108 -35q-45 0 -72 27q0 -3 -4 -7q-3 -3 -3 -6q-14 -19 -17 -37
q-3 -10 -3 -22q-3 -43 34 -62q24 -13 56 -13q96 0 181 99zM1432 175q-27 -32 -64 -32q-4 0 -9 1l-7 1q-4 0 -4 3h13q45 0 70 35q20 28 20 65q0 38 -28 63q-29 25 -75 25q-58 0 -105 -35q9 -17 9 -64q0 -52 -33 -115q-45 -87 -133 -132q3 -7 3 -16q0 -65 -57 -116
q-67 -59 -183 -59q-94 0 -212 55q-67 -102 -163 -102q-51 -2 -73 30q-10 17 -11 33h-10q-65 0 -81 47q-135 0 -138 90q0 39 39 73q36 33 74 33q25 0 28 -6l-10 2l-16 1q-32 -3 -64 -29q-36 -30 -36 -68q0 -51 59 -74q33 -13 61 -13q-4 13 0 19q7 47 58 79q53 34 133 34
q18 0 40 -7q35 44 72 140q-83 -83 -147 -106q-6 -6 -9 -10q-9 -9 -16 -3q-3 4 6 13q10 0 16 3q25 13 62 78q35 62 35 87q0 20 -16 20q-20 0 -48 -27q-30 -28 -39 -58h-3q-3 0 -3 3q10 29 44 62q38 36 65 36q21 0 21 -26q0 -65 -103 -168q43 10 131 100q-4 -4 37 53
q23 31 51 41q-9 -19 -31 -45l-25 -28q-7 -10 -12 -28l-25 -63q-21 -44 -44 -74q16 -6 62 -19q13 16 110 225q-97 -55 -95 -132h-2l2 -3v-9l-2 4v3q0 2 -3 2v16q0 43 52 88q42 37 54 37q62 113 119 113q8 0 8 -7q0 -27 -106 -90q0 -2 -19 -42l-24 -52q-6 -3 41 42
q46 43 90 65h3q0 -3 -3 -3q-21 -11 -31 -86q-10 -73 -81 -105q50 0 109 37q3 13 3 16q8 31 28 62q32 32 35 34l10 10v22q-3 53 53 108q65 61 155 61q59 0 98 -41q20 -20 28 -41q46 35 105 35q51 2 83 -26q30 -27 30 -69q0 -44 -26 -76zM751 234q5 0 41 27q38 29 38 40
q0 4 -6 4q-23 0 -53 -44q-14 -21 -20 -27zM911 205q1 0 24 16q24 17 30 18h2v-2q-34 -13 -28 -19q0 6 13 6q7 0 7 -19q3 -19 -17 -37q13 -10 37 -10q65 1 178 91q67 54 67 50q-38 81 -121 81q-80 0 -139 -54q-55 -49 -55 -102q0 -9 2 -19zM929 211q-18 -9 -15 -13
q3 -15 19 -24q6 9 3 21q0 16 -7 16zM851 96q38 15 72 62q3 3 6 10q-15 13 -20 27q-51 -52 -58 -99zM830 58q-80 -32 -128 -108q61 -26 137 -26q50 3 97 37q-23 2 -48 14q-49 26 -55 83h-3zM851 52q13 -72 98 -82q30 26 30 54q0 53 -77 53q-18 0 -37 -5q-16 -5 -16 -7
q2 -10 2 -13zM668 52q1 0 5 3t7 3q-1 0 3 -6t19 -6q50 0 75 62q4 16 7 55q2 30 9 42q-91 -53 -125 -153zM623 -26l69 -22q59 85 138 113v8q5 0 -43 -20q-47 -20 -82 -20q-25 0 -40 10zM517 -17q-52 10 -60 10q-74 0 -116 -43q-29 -31 -29 -60q0 -16 3 -19q122 9 202 112z
M422 -131q46 39 127 30q21 18 50 62q-62 19 -69 19q-97 -109 -213 -115q15 -38 75 -38q7 22 30 42zM429 -135q-19 -18 -24 -38q75 9 132 60q-71 13 -108 -22zM543 -113q-50 -51 -138 -72q2 -14 12 -28q21 -27 66 -25q84 0 144 96q-81 29 -84 29zM680 -63l-68 21
q-25 -31 -57 -61q71 -26 81 -26q44 62 44 66zM1082 -20l-2 7q0 -1 -48 -15q-56 -16 -86 -11q-63 -47 -141 -49q-50 0 -116 25q0 -7 -44 -70q159 -58 223 -58q110 0 169 64q43 46 45 97v10zM1111 12q30 20 53 44q76 77 76 183q0 32 -13 54q-31 -22 -65 -49q-120 -92 -186 -92
q-21 0 -37 9q-22 -34 -90 -75v-16q31 13 72 13q67 0 75 -50q0 -24 -37 -66h24q23 0 62 13q38 13 35 13q0 2 -3 8l-3 6q-14 26 -32 30q21 0 44 -41q-2 -2 25 16zM570 536h-6v16l-47 53h-53v-122h29l34 35v21h3v-122h-3v22l-34 34h-29v-134h53l53 63v19h7v-88h-178v6h21v266
h-21v7h171v-76zM983 565l-54 -119v-110h23v-3h-88v3h22v110l-75 156h-18v3h90v-3h-22l65 -147l50 112l-14 35h-23v6h94v-6h-18zM680 612q138 0 138 -136q0 -143 -140 -143h-76v6h19q0 226 2 266h-21v7h78zM680 339q91 0 91 140q0 86 -39 114q-18 12 -54 12h-10v-266h12z" />
    <glyph glyph-name="exclam" unicode="!" horiz-adv-x="328" 
d="M135 104q-17 12 -38 7q-22 -6 -37 -28q-16 -24 -16 -46q1 -21 18 -31q39 -20 74 29q30 45 -1 69zM486 639q0 -1 -30 -21q-39 -26 -113 -179q-126 -256 -211 -256q-13 0 -13 5l15 10q75 52 142 262q39 124 84 169q31 32 78 32q48 0 48 -22z" />
    <glyph glyph-name="quotedbl" unicode="&#x22;" horiz-adv-x="248" 
d="M173 502q19 0 37 15t21 34q0 -5 -21 -5q-22 0 -22 29q0 27 21 48q21 20 47 20q18 0 30 -15q10 -13 10 -29q0 -44 -37 -89q-38 -46 -78 -46q-36 0 -36 32q0 7 6 14q10 -8 22 -8zM298 502q20 0 38 15t21 34q0 -5 -21 -5q-23 0 -23 29q0 27 21 48q21 20 48 20q18 0 30 -15
q10 -13 10 -29q0 -44 -37 -89q-38 -46 -78 -46q-36 0 -36 32q0 7 6 14q10 -8 21 -8z" />
    <glyph glyph-name="numbersign" unicode="#" horiz-adv-x="833" 
d="M333 208q-31 -52 -31 -66q0 -21 18 -21q7 1 6 -7q-1 -9 -20 -18q-22 -14 -54 -6q-41 10 -40 42q2 36 70 129q-28 3 -81 5q-59 2 -82 4l-20 -37q-61 -99 -36 -111q9 -4 -2 -14q-10 -9 -32 -9q-59 0 -57 43q1 27 69 134q-10 2 -22 3q-23 2 -47 -27q-2 -2 -4 -2q-8 0 -6 13
t12 30q26 42 62 42l39 -1q32 56 59 98l-48 3q-24 1 -39 -10q-15 -12 -13 -12q-11 0 -9 13q2 11 14 27q30 40 67 40l61 -2q4 9 21 41q6 11 6 21q0 11 -10 16q-11 6 -11 7q0 4 19 10q20 7 38 7q49 0 49 -34q0 -14 -11 -36l-20 -39l157 -6l21 42q14 23 14 30q0 9 -6 14t-6 6
q0 4 3 5q24 12 58 -2q27 -9 27 -37q0 -12 -6 -22l-21 -43q45 -3 75 46q5 5 10 -7q3 -9 3 -16q0 -24 -17 -46q-30 -38 -101 -34h-3q-32 -54 -67 -104l26 -2q58 -5 100 37q3 3 4 -1q2 -4 1 -8q-6 -27 -28 -50q-32 -34 -84 -34l-48 2zM154 328l161 -13l55 105q-26 2 -76 3
q-52 1 -80 3q-68 -112 -60 -98z" />
    <glyph glyph-name="dollar" unicode="$" horiz-adv-x="590" 
d="M160 2l-70 -133h-47l74 140q-106 29 -106 127q0 33 23 61q28 34 77 34q28 0 46 -17q16 -15 16 -37q0 -21 -11 -35q-13 -16 -32 -16q-38 0 -38 34q0 16 12 22q4 8 -3 8q-18 0 -33 -15q-16 -16 -16 -37q0 -36 28 -63q35 -34 105 -34q78 0 128 43q44 38 44 86q0 56 -80 140
t-80 147q0 75 68 134q70 60 164 60q10 0 28 -2l60 112h45l-64 -121q88 -30 88 -111q0 -39 -25 -66q-26 -27 -64 -27q-62 0 -62 53q0 19 13 33q13 15 33 15q18 0 28 -13q11 -14 6 -29q-2 -4 5 -4q22 0 22 37q0 33 -28 55q-31 24 -85 24q-65 0 -111 -35q-46 -34 -46 -80
q0 -53 82 -146q81 -93 81 -151q0 -82 -71 -137q-73 -57 -180 -57q-16 0 -24 1z" />
    <glyph glyph-name="percent" unicode="%" horiz-adv-x="655" 
d="M578 630q0 4 -2 4t-3 -2q-118 -165 -245 -190q-78 -107 -162 -107q-69 0 -69 70q0 75 76 161q80 89 161 89q63 0 63 -54q0 -51 -46 -123q88 14 235 209q5 5 8 5q10 0 18 -17q9 -18 9 -36q0 -13 -6 -21l-74 -97q-52 -69 -85 -111q-227 -308 -230 -374q-1 -27 20 -34
q-24 -29 -72 -29q-53 0 -53 50q0 73 199 296q231 260 257 307q1 1 1 4zM544 99q-81 -99 -155 -99q-69 0 -69 70q0 75 76 161q80 89 161 89q63 0 63 -54q0 -73 -76 -167zM538 128q55 80 55 130q0 32 -32 32q-44 0 -103 -76q-59 -75 -59 -133q0 -37 36 -37q45 0 103 84z
M298 444q-28 12 -28 41q0 19 13 32q13 14 31 14q19 0 32 -11q24 48 24 73q0 32 -32 32q-44 0 -103 -76q-59 -75 -59 -133q0 -37 36 -37q35 0 86 65z" />
    <glyph glyph-name="ampersand" unicode="&#x26;" horiz-adv-x="944" 
d="M878 455q20 -24 20 -58q0 -73 -57 -114q-55 -39 -150 -39q-15 0 -86 4q-36 2 -36 -5q0 1 9 -3q10 -5 19 -13q28 -25 28 -65q0 -68 -61 -113q-63 -48 -162 -48q-121 0 -189 48q-69 50 -69 141q0 143 183 210q-13 16 -13 51q0 87 87 157q86 69 191 69q85 0 132 -47
q40 -40 40 -97q0 -42 -25 -67q-22 -23 -53 -23q-22 0 -39 16q-19 16 -19 40q0 19 17 33q16 14 34 14q35 0 35 -35q0 -5 6 -3q5 2 5 19q0 107 -133 107q-76 0 -138 -58q-63 -59 -63 -134q0 -16 2 -25q48 15 91 15q53 0 85 -20q29 -18 29 -43q0 -59 -114 -59q-82 0 -134 55
q-129 -69 -129 -175q0 -62 48 -98q47 -35 132 -35q64 0 109 36q42 33 42 75q0 61 -53 61q-36 0 -53 -41q-13 2 -13 23q0 44 59 63q32 10 131 21q93 10 133 27q61 25 63 79v3q0 37 -32 37q-8 0 -15 -6q-6 -5 -6 -6q0 20 16 35q18 16 46 16q30 0 50 -25zM402 386q4 -13 34 -26
q31 -15 59 -15q55 0 55 24q0 12 -16 23q-19 12 -51 12q-45 0 -81 -18z" />
    <glyph glyph-name="quotesingle" unicode="'" horiz-adv-x="161" 
d="M138 604q2 -18 -7 -35q-37 -83 -97 -99h-6q-11 6 -7 16q0 1 3 2q35 2 61 54q5 13 -3 17l-8 1q-6 1 -10 3q-26 11 -10 49q21 45 60 27q22 -10 24 -35z" />
    <glyph glyph-name="parenleft" unicode="(" horiz-adv-x="375" 
d="M183 -94q-6 -7 -8 -3q-27 42 -27 166q0 271 221 501q82 85 172 141q80 50 118 50q8 0 10 -9q-165 -82 -322 -329q-162 -256 -162 -456q0 -33 5 -54z" />
    <glyph glyph-name="parenright" unicode=")" horiz-adv-x="493" 
d="M364 757q6 7 8 3q27 -42 27 -166q0 -263 -221 -497q-82 -86 -172 -143q-80 -52 -118 -52q-8 0 -10 9q165 82 322 330q162 255 162 455q0 33 -5 54z" />
    <glyph glyph-name="asterisk" unicode="*" horiz-adv-x="201" 
d="M112 476q56 59 80 59t24 -33q0 -18 -13 -31q-3 12 -14 12q-14 0 -55 -33q66 -21 83 -43q3 -4 3 -11q0 -34 -35 -34q-7 0 -15 3q7 4 7 11q0 5 -4 9q-14 14 -51 29q-8 -64 -27 -87q-14 -15 -33 0q-21 20 -15 42q11 -9 19 0q11 11 25 63q-38 -16 -78 -16q-29 0 -33 12
q-5 11 -2 23q8 26 32 29q-4 -15 7 -17q17 -6 64 0q-46 96 -12 113q6 3 16 1q26 -5 34 -28h-3q-15 0 -15 -17z" />
    <glyph glyph-name="plus" unicode="+" horiz-adv-x="437" 
d="M293 305q40 0 62 12q21 12 17 12q4 -1 4 -7q0 -22 -14 -45q-19 -31 -50 -31q-25 0 -95 2q-49 -89 -49 -110q0 -16 12 -17q-9 -19 -34 -19q-42 0 -42 39q0 21 54 110l-73 -1q-26 0 -40 -7q-13 -8 -10 -8q-8 0 -8 9q0 22 22 45q21 23 41 22l100 -3q46 84 46 96q0 16 -12 17
q8 19 34 19q42 0 42 -39q0 -12 -51 -96h44z" />
    <glyph glyph-name="comma" unicode="," horiz-adv-x="244" 
d="M154 77q10 -12 10 -27q0 -45 -63 -106q-62 -61 -105 -61q-25 0 -25 19q0 9 4 10h6q4 -1 7 0q71 12 113 88q4 7 0 5q-11 -5 -18 -5q-18 0 -21 20q-3 17 7 34q21 37 57 37q17 0 28 -14z" />
    <glyph glyph-name="hyphen" unicode="-" horiz-adv-x="422" 
d="M89 175q-13 -15 -10 -15q-8 0 -8 9q0 20 22 46q22 25 37 25l156 -5q53 0 75 12q6 3 11 8q3 4 4 4q4 -1 4 -7q0 -15 -20 -41q-22 -26 -38 -26q-34 0 -94 2q-59 2 -97 2q-28 0 -42 -14z" />
    <glyph glyph-name="period" unicode="." horiz-adv-x="264" 
d="M131 21q-21 -22 -46 -22q-34 0 -34 31q0 26 22 48q21 22 48 22q30 0 30 -33q0 -25 -20 -46z" />
    <glyph glyph-name="slash" unicode="/" horiz-adv-x="313" 
d="M391 751q9 0 9 -24q0 -49 -27 -96l-439 -745q-28 -45 -36 -45t-8 22q0 50 27 99q465 789 474 789z" />
    <glyph glyph-name="zero" unicode="0" horiz-adv-x="555" 
d="M368 412q0 -23 -20 -43q-21 -20 -46 -20q-30 0 -50 20q-23 23 -23 62q0 79 61 145q63 69 143 70q56 0 94 -26q55 -37 55 -120q0 -173 -149 -336q-153 -166 -324 -166q-73 0 -114 49q-36 43 -36 108q0 142 118 280q99 116 149 116q13 0 13 -6q0 -1 -2 -3
q-78 -62 -144 -178q-71 -125 -71 -216q0 -105 87 -105q108 0 250 159q148 165 148 314q0 43 -21 69q-19 25 -49 25q-66 0 -111 -52q-38 -44 -38 -92q0 -36 22 -36q21 0 32 31q1 5 14 -9q12 -21 12 -40z" />
    <glyph glyph-name="one" unicode="1" horiz-adv-x="375" 
d="M198 458q133 56 235 198q23 -17 22 -30q0 -19 -33 -80q-17 -27 -195 -279q-121 -169 -123 -229q-1 -27 20 -34q-24 -29 -72 -29q-53 0 -53 50q0 72 132 232q42 51 154 166q77 79 105 132q2 3 0 4t-5 -4q-19 -33 -111 -92q-98 -64 -146 -64q-32 0 -40 16q-4 8 -2 16
q46 -1 112 27z" />
    <glyph glyph-name="two" unicode="2" horiz-adv-x="508" 
d="M122 40q-68 40 -115 40q-35 0 -73 -41q-30 -33 -30 -39l-3 1q-4 1 -6 4q-8 7 -1 31q45 156 317 261q102 39 159 113q47 61 47 118q0 34 -21 57q-26 27 -73 27q-76 0 -144 -67q-64 -63 -64 -118q0 -31 22 -46q3 -1 6 1q2 1 1 3q-5 13 6 29t29 16q40 0 40 -43
q0 -24 -22 -41q-20 -16 -43 -16q-80 0 -80 89q0 76 71 146q82 82 201 82q66 0 112 -32q48 -34 48 -87q0 -181 -329 -292q-166 -57 -180 -123q36 24 71 24q43 0 103 -35q60 -36 91 -36q55 0 95 41q31 32 39 69q22 0 22 -27q0 -45 -39 -90q-52 -59 -141 -59q-48 0 -116 40z
" />
    <glyph glyph-name="three" unicode="3" horiz-adv-x="535" 
d="M230 292q-47 0 -79 16q-35 17 -35 44q0 53 112 53q83 0 141 -48q63 -52 63 -137q0 -87 -84 -150q-92 -69 -246 -69q-80 0 -126 41q-40 36 -40 86q0 33 21 57q20 25 50 25q21 0 36 -13q14 -12 14 -31q0 -44 -39 -44q-26 0 -33 19q-8 8 -8 -5q0 -46 36 -72q31 -23 77 -23
q108 0 189 62q83 64 83 152q0 52 -44 88q-42 34 -99 34q-67 0 -67 -21q0 -34 76 -34q75 0 138 38q113 65 113 143q0 55 -42 83q-36 24 -95 24q-46 0 -88 -23q-43 -23 -43 -50q0 -28 21 -28q10 0 23 8q4 2 4 -17q0 -15 -14 -29q-17 -17 -43 -17q-61 0 -61 53q0 50 57 91
q63 46 159 46q126 0 175 -64q24 -33 24 -75q0 -110 -165 -182q-70 -31 -161 -31z" />
    <glyph glyph-name="four" unicode="4" horiz-adv-x="484" 
d="M573 651q0 -3 -3 -6q-40 -28 -146 -193q-100 -155 -123 -215q8 -5 33 -5q56 0 56 33l-2 11q-1 6 6 6q30 0 30 -38q0 -31 -30 -52q-29 -21 -73 -21q-16 0 -52 5q-33 -69 -33 -94q0 -24 7 -32q15 -13 2 -24q-25 -27 -66 -27q-54 0 -54 43q0 40 66 152q-45 16 -94 16
q-98 0 -131 -52q-11 0 -11 25q0 107 227 293q229 189 371 189q20 0 20 -14zM20 241q-5 -7 4 -3q43 22 111 22q94 0 94 1q78 165 256 343q16 16 6 16q-293 -109 -471 -379z" />
    <glyph glyph-name="five" unicode="5" horiz-adv-x="516" 
d="M591 671q8 -11 8 -19q0 -2 -4 -12q-12 -37 -67 -73q-75 -49 -142 -49q-65 0 -114 37q-82 -131 -115 -171q-4 -4 -3 -5l5 3q65 39 151 39q63 0 98 -42q28 -34 28 -77q0 -101 -103 -196q-116 -108 -278 -108q-60 0 -95 36q-30 29 -30 68q0 37 18 63q22 31 64 31
q26 0 41 -17q13 -14 13 -32q0 -24 -16 -39q-15 -13 -35 -13q-29 0 -37 20q-2 5 -5 1q-4 -5 -4 -14q0 -29 25 -51q26 -23 68 -23q110 0 206 102q86 92 86 166q0 43 -26 67q-21 19 -47 19q-89 0 -180 -91q-5 -5 -15 9q-9 13 -9 21q0 5 206 326q8 13 18 2q22 -16 32 -22
q49 -28 110 -28q88 0 137 78q2 4 11 -6z" />
    <glyph glyph-name="six" unicode="6" horiz-adv-x="473" 
d="M119 218q-6 -10 -8 -10q-10 0 -10 27q0 19 7 31q69 118 176 118q53 0 85 -33q31 -31 31 -77q0 -103 -80 -187q-84 -88 -202 -88q-56 0 -94 26q-55 37 -55 120q0 164 157 332q157 169 314 169q69 0 101 -38q23 -26 23 -61q0 -50 -35 -80q-28 -23 -58 -23q-26 0 -42 15
q-15 13 -15 31q0 56 53 56q35 0 35 -28q0 -21 -1 -21q7 -3 17 14q11 18 11 35q0 33 -32 52q-26 15 -56 15q-126 0 -270 -175q-141 -171 -141 -306q0 -43 19 -72q22 -34 62 -34q83 0 153 86q65 79 65 154q0 81 -60 81q-74 0 -150 -129z" />
    <glyph glyph-name="seven" unicode="7" horiz-adv-x="450" 
d="M180 578q-1 -1 6 -1t9 2q66 66 130 66q27 0 76 -20t74 -20q38 0 61 41q5 7 14 2q8 -5 8 -16q0 -58 -75 -147q-68 -79 -151 -134q-73 -49 -136 -124q-71 -85 -71 -139q0 -33 9 -44q3 -4 7 -6l5 -2q3 -2 1 -7t-8 -9q-30 -21 -86 -21q-46 0 -46 36q0 94 106 201
q79 80 192 147q141 86 195 185q2 7 -8 7q1 0 -26 -13q-27 -14 -60 -14q-31 0 -70 12q-40 12 -64 12q-73 0 -139 -91q-34 -45 -27 -45q-4 0 -9 9q-6 10 -6 21q0 10 102 185q4 5 18 7q15 3 15 -2q0 -11 -46 -78z" />
    <glyph glyph-name="eight" unicode="8" horiz-adv-x="440" 
d="M383 440q60 46 60 115q0 31 -31 53q-27 18 -52 18q-61 0 -105 -35q-43 -35 -43 -81q0 -49 69 -145q68 -96 68 -141q0 -82 -82 -152q-83 -71 -181 -71q-77 0 -120 41q-36 33 -36 78q0 80 97 151q82 61 135 61q9 0 22 -21q-67 -17 -124 -72q-60 -59 -60 -119q0 -33 24 -58
q25 -26 62 -26q58 0 116 49q61 52 61 110q0 46 -63 135q-64 89 -64 152q0 66 72 123q71 57 152 57q69 0 109 -35q34 -30 34 -72q0 -71 -76 -132q-63 -50 -97 -50q-11 0 -24 9t-7 11q66 32 84 47z" />
    <glyph glyph-name="nine" unicode="9" horiz-adv-x="500" 
d="M-11 128q0 21 1 21q-7 3 -17 -14q-10 -18 -10 -35q0 -33 32 -52q25 -15 55 -15q110 0 258 174q153 177 153 323q0 44 -28 69q-23 21 -56 21q-79 0 -149 -96q-64 -86 -64 -159q0 -68 57 -68q45 0 96 49q48 46 50 85q0 3 2 3q4 0 10 -10q7 -11 7 -23q0 -33 -47 -81
q-58 -59 -132 -59q-51 0 -85 35q-30 32 -30 71q0 109 88 195q87 84 193 84q56 0 94 -26q55 -37 55 -120q0 -164 -156 -331q-158 -169 -315 -169q-68 0 -100 38q-23 26 -23 61q0 50 35 80q28 23 58 23q25 0 42 -15q15 -13 15 -31q0 -56 -53 -56q-36 0 -36 28z" />
    <glyph glyph-name="colon" unicode=":" horiz-adv-x="350" 
d="M162 21q-21 -22 -46 -22q-34 0 -34 31q0 26 22 48q21 22 48 22q30 0 30 -33q0 -25 -20 -46zM277 263q-21 -22 -46 -22q-34 0 -34 31q0 26 22 48q21 22 48 22q30 0 30 -33q0 -25 -20 -46z" />
    <glyph glyph-name="semicolon" unicode=";" horiz-adv-x="262" 
d="M262 189q-21 -22 -46 -22q-34 0 -34 31q0 26 22 48q21 22 48 22q30 0 30 -33q0 -25 -20 -46zM93 54q-10 -17 -7 -34q3 -20 21 -20q7 0 18 5q4 2 0 -5q-42 -76 -113 -88q-3 -1 -7 0h-6q-4 -1 -4 -10q0 -19 25 -19q43 0 105 61q63 61 63 106q0 15 -10 27q-11 14 -28 14
q-36 0 -57 -37z" />
    <glyph glyph-name="less" unicode="&#x3c;" horiz-adv-x="262" 
d="M200 178q0 -48 -32 -106q-32 -59 -60 -59q-2 0 -3 2q0 2 -1 2q2 0 18 32q21 40 21 76q0 101 -66 148q-13 9 -10 15q3 8 18 8q68 0 154 63q71 52 96 94q4 6 8 0q5 -6 5 -14q0 -39 -64 -94q-59 -51 -110 -67q26 -37 26 -100z" />
    <glyph glyph-name="equal" unicode="=" horiz-adv-x="461" 
d="M49 237q-13 -15 -10 -15q-8 0 -8 9q0 20 22 46q22 25 37 25l242 -5q53 0 75 12q6 3 11 8q3 4 4 4q4 -1 4 -7q0 -15 -20 -41q-22 -26 -38 -26q-34 0 -137 2q-102 2 -140 2q-28 0 -42 -14zM49 126q-13 -15 -10 -15q-8 0 -8 9q0 20 22 46q22 25 37 25l242 -5q53 0 75 12
q6 3 11 8q3 4 4 4q4 -1 4 -7q0 -15 -20 -41q-22 -26 -38 -26q-34 0 -137 2q-102 2 -140 2q-28 0 -42 -14z" />
    <glyph glyph-name="greater" unicode="&#x3e;" horiz-adv-x="313" 
d="M179 306q0 44 32 99q33 57 60 57q2 0 3 -2q0 -2 1 -2q-2 0 -18 -28q-21 -35 -21 -67q0 -114 66 -161q13 -9 10 -15q-3 -8 -18 -8q-68 0 -154 -63q-71 -52 -96 -94q-4 -6 -8 0q-5 6 -5 14q0 65 174 161q-26 37 -26 109z" />
    <glyph glyph-name="question" unicode="?" horiz-adv-x="402" 
d="M129 202q0 42 48 82q25 22 104 70q152 92 153 171q1 53 -37 83q-33 26 -80 27q-50 2 -97 -34q-48 -37 -49 -80q-2 -42 25 -44q25 0 32 19q2 5 7 -5q6 -11 5 -20q0 -19 -13 -35q-20 -24 -59 -23q-28 0 -48 22q-21 24 -20 60q1 83 71 137q68 53 161 51q90 -1 139 -46
q45 -42 43 -107q-1 -65 -84 -131q-28 -22 -165 -106q-94 -56 -96 -117q0 -17 5 -28q-47 2 -45 54zM36 45q-2 -25 14 -34q19 -10 43 -3q26 8 42 33q16 24 15 46q-2 21 -19 30q-42 23 -77 -27q-16 -23 -18 -45z" />
    <glyph glyph-name="at" unicode="@" horiz-adv-x="774" 
d="M336 63q19 0 48 18q38 24 60 65l74 130q5 10 5 18q0 39 -40 39q-49 0 -117 -86q-66 -84 -66 -136q0 -48 36 -48zM682 81q-93 -93 -194 -93q-32 0 -58 20q-25 20 -25 44q-57 -52 -112 -52q-39 0 -60 25q-19 22 -19 56q0 87 87 185q92 103 186 103q47 0 65 -37q29 37 66 37
q49 0 49 -23q0 2 -14 -7q-19 -13 -40 -47q-39 -62 -100 -171q-16 -29 -16 -44q0 -30 36 -30q55 0 119 67q66 68 83 147q17 81 -48 139q-64 57 -165 57q-185 0 -305 -130q-90 -96 -104 -199q-18 -129 51 -209q67 -78 190 -78q100 0 186 54q80 51 105 121q6 19 10 19
q6 0 16 -23q11 -24 3 -38q-42 -77 -124 -125q-89 -53 -199 -53q-137 0 -219 94q-72 82 -70 188q2 157 125 283q134 139 328 139q138 0 211 -79q66 -70 53 -167q-12 -88 -97 -173z" />
    <glyph glyph-name="A" unicode="A" horiz-adv-x="937" 
d="M547 22q0 88 124 272q-30 2 -65 8l-57 9q-121 -207 -178 -274q-110 -128 -234 -128q-53 0 -89 24q-42 27 -42 76q0 38 20 62q20 23 50 23q53 0 53 -50q0 -49 -40 -49q-10 0 -16 3q-6 2 -6 -6q0 -10 14 -19q18 -12 48 -12q104 0 199 110q53 61 161 245q-18 1 -62 1
q-33 0 -56 -16q-24 -16 -24 -38q0 -14 11 -23q12 -8 28 0q4 5 5 -4q0 -10 -7 -22q-18 -25 -45 -26q-23 -2 -43 11q-30 21 -30 55q0 115 167 115q48 0 85 -4q97 163 176 237q110 105 241 105q67 0 111 -43q44 -42 44 -104q0 -105 -82 -176q-88 -76 -247 -90
q-115 -198 -115 -254q0 -40 39 -40q43 0 130 84q4 4 7 4q7 0 7 -18q0 -6 -1 -10q-12 -33 -60 -71q-59 -46 -121 -46q-100 0 -100 79zM710 349q157 214 230 214q8 0 8 -3q0 -2 -6 -8q-56 -58 -146 -200q102 12 170 68q72 58 72 140q0 41 -26 67q-28 28 -78 28
q-108 0 -202 -89q-69 -65 -154 -207q106 -9 132 -10z" />
    <glyph glyph-name="B" unicode="B" horiz-adv-x="750" 
d="M227 574q-96 -80 -96 -182q0 -96 59 -96q4 0 4 3q1 3 -2 5q-17 11 -17 29q0 16 13 29q14 14 31 14q53 0 53 -55q0 -30 -23 -52q-24 -24 -59 -24q-46 0 -77 37q-33 39 -33 104q0 136 120 233q119 96 285 96q138 4 222 -56q75 -53 75 -127q0 -97 -89 -150q-44 -26 -89 -33
q22 0 59 -27q57 -42 57 -117q0 -86 -74 -158q-78 -75 -180 -75q-48 0 -88 23q-44 26 -44 61q0 44 48 44q3 0 3 -2q0 -1 -4 -8q-4 -6 -4 -12q0 -17 21 -33q27 -22 75 -22q70 0 116 69q38 58 38 124q0 69 -86 120l-16 9q-9 4 -13 7q-11 8 -11 23q0 11 7 21q5 9 7 9
q10 -15 34 -15q48 0 90 33q50 40 50 106q0 62 -66 101q-60 34 -139 34q-154 -4 -257 -90zM-10 -18q-29 28 -29 68q0 33 20 54t48 20q53 -1 53 -52q0 -16 -11 -29q-12 -13 -29 -13q-4 0 -8 1l-6 1q-5 0 -5 -5q0 -9 14 -17q15 -8 34 -8q111 0 189 143q22 40 58 126
q35 82 54 115q100 174 239 174q13 0 13 -5q0 -2 -3 -4q-99 -68 -154 -184q-102 -214 -154 -281q-103 -135 -241 -135q-51 0 -82 31z" />
    <glyph glyph-name="C" unicode="C" horiz-adv-x="621" 
d="M455 13q-94 -58 -198 -61v-3q0 -39 23 -63q20 -21 48 -21q37 0 37 28q0 21 -18 25q-6 2 6 11q12 10 27 10q52 0 52 -58q0 -31 -22 -57q-26 -32 -69 -32q-62 0 -99 46q-37 43 -37 111v7q-165 29 -165 231q0 166 177 349q174 179 320 179q76 0 114 -38q29 -31 29 -78
q0 -79 -66 -157q-66 -80 -140 -87q-5 -1 -15 -1q-44 0 -74 23q-32 24 -32 67q0 32 19 56q20 25 51 25q49 0 49 -50q0 -43 -47 -43l-11 2q-5 1 -6 -7q0 -23 41 -23q55 0 114 60q63 64 63 136q0 63 -78 63q-129 0 -272 -184q-142 -181 -142 -335q0 -104 78 -135q22 97 99 167
q75 70 154 70q42 0 69 -22q28 -23 28 -60q0 -87 -107 -151zM349 142q-67 -60 -86 -141q73 2 160 54q89 54 89 102q0 38 -51 38t-112 -53z" />
    <glyph glyph-name="D" unicode="D" horiz-adv-x="922" 
d="M476 -1q146 0 266 143q115 138 115 287q0 129 -76 201q-71 67 -189 67q-122 0 -213 -92q-88 -89 -88 -196q0 -39 19 -65q18 -27 46 -27q2 0 3 3t-1 5q-16 10 -16 32q0 38 42 38q53 0 53 -54q0 -30 -21 -51q-24 -24 -60 -24q-49 0 -82 39q-34 40 -34 99q0 141 113 245
q109 101 248 101q158 0 253 -95q90 -89 90 -222q0 -180 -130 -327q-141 -158 -338 -158q-50 0 -125 32q-2 1 -5 1q-11 0 -53 -14q-43 -14 -88 -14q-88 0 -88 58q0 60 87 60q76 0 136 -31q46 47 90 157q56 138 69 161q97 168 226 174q13 0 13 -5q0 -2 -3 -4
q-105 -73 -157 -181q-120 -252 -196 -317q61 -26 94 -26z" />
    <glyph glyph-name="E" unicode="E" horiz-adv-x="700" 
d="M386 165q84 66 171 66q35 0 58 -18q27 -20 27 -57q0 -80 -88 -149q-93 -72 -216 -72h-13q-4 -48 23 -73q20 -19 46 -19q41 0 41 26q0 15 -9 21q-10 7 -10 6q0 6 10 14q11 10 25 11q19 2 36 -9q22 -14 22 -41q0 -31 -28 -57q-32 -29 -79 -29q-61 0 -100 41q-43 45 -44 123
q-96 5 -161 49q-71 49 -71 129q0 91 83 174q79 78 174 96q-45 36 -45 84q0 100 106 170q100 66 226 66q123 0 195 -58q65 -51 65 -127q0 -46 -27 -79t-64 -33q-74 0 -74 59q0 22 13 38q13 17 32 17q5 0 5 -6q0 -19 18 -19q28 1 28 39q0 44 -42 75q-54 39 -157 39
q-94 0 -169 -59q-72 -56 -72 -119q0 -41 25 -66q49 10 112 10q41 0 78 -11q56 -16 56 -48q0 -54 -113 -54q-90 0 -157 49q-74 -21 -124 -75q-59 -62 -59 -145q0 -53 40 -93q37 -37 95 -49q27 95 112 163zM420 130q-75 -57 -90 -139q75 -13 169 45q91 56 91 108q0 36 -39 36
q-65 0 -131 -50z" />
    <glyph glyph-name="F" unicode="F" horiz-adv-x="617" 
d="M19 -20q-30 28 -30 70q0 33 20 54t48 20q53 -1 53 -52q0 -16 -11 -29q-12 -13 -29 -13q-4 0 -8 1l-6 1q-5 0 -5 -5q0 -9 14 -17q15 -8 34 -8q130 0 223 214q-72 0 -129 50q-66 57 -66 149q0 110 82 199q93 100 237 100q44 0 136 -27q92 -28 149 -28q84 0 121 55
q14 0 14 -23q0 -39 -34 -68q-40 -34 -110 -34q-49 0 -144 29q-95 28 -148 28q-112 0 -184 -71q-68 -67 -68 -157q0 -76 54 -119q41 -33 90 -33h22q40 93 56 120q100 174 239 174q13 0 13 -5q0 -2 -3 -4q-99 -68 -154 -184l-35 -73q39 15 63 15q26 0 45 -18q18 -18 18 -42
q0 -26 -17 -48q-18 -24 -44 -24q-22 0 -33 11q-12 11 -5 11q23 0 23 25q0 27 -25 25q-5 0 -56 -18q-67 -132 -133 -196q-86 -84 -196 -84q-50 0 -81 29z" />
    <glyph glyph-name="G" unicode="G" horiz-adv-x="669" 
d="M530 -112q0 -39 -24 -59q-20 -18 -50 -18q-24 0 -37 20q-12 20 -4 20q44 0 44 30q0 24 -20 36q-90 -165 -202 -255q-102 -82 -194 -82q-55 0 -84 27q-28 26 -28 68q0 127 151 222q136 87 280 87q22 0 32 -1q74 117 188 270q5 6 -1 9q-5 3 -8 1q-22 -16 -67 -65
q-58 -64 -82 -87q-115 -110 -224 -110q-61 0 -101 39q-42 42 -42 113q0 169 214 361q213 191 397 191q180 0 180 -140q0 -43 -24 -76q-26 -36 -67 -36q-64 0 -64 60q0 20 17 35q15 13 32 13q27 0 37 -18q3 -3 4 -3q10 0 10 23q0 38 -30 62q-30 25 -76 25q-175 0 -360 -183
q-177 -176 -177 -316q0 -41 24 -64q22 -22 54 -22q88 0 241 161q153 160 216 160q20 0 34 -7q13 -5 13 -10q0 -1 -1 -2q-84 -64 -263 -399q62 -24 62 -80zM362 -67h-9q-120 0 -241 -76q-128 -80 -128 -172q0 -50 48 -50q134 0 330 298z" />
    <glyph glyph-name="H" unicode="H" horiz-adv-x="921" 
d="M843 380q95 -3 95 -69q0 -23 -14 -40q-15 -17 -36 -17q-29 0 -44 19q-6 7 -6 13q-1 6 3 5q17 1 17 19q0 17 -22 17q-9 0 -29 -2q-120 -194 -120 -279q0 -33 24 -55q24 -23 57 -23q35 0 69 14q13 9 12 -9q-2 -19 -13 -30q-25 -27 -94 -27q-57 0 -96 27q-51 35 -51 111
q0 80 103 240q-104 -35 -176 -38q-160 -265 -389 -265q-62 0 -103 38q-36 33 -36 73q0 36 21 59q21 22 50 22q21 0 37 -14q17 -15 17 -39q0 -18 -14 -32q-13 -14 -31 -14q-9 0 -14 3q-3 2 -6 0q-2 -3 -1 -7q15 -38 82 -38q108 0 180 66q50 46 107 155q-159 30 -159 192
q0 109 88 186q82 72 180 72q62 0 124 -30q61 -30 76 -30q73 55 149 55q35 0 35 -21q0 -38 -59 -66q-56 -26 -121 -26q-64 -58 -179 -279l-3 -6q29 4 191 52l24 34q109 150 231 253q139 117 232 117q31 0 51 -14q19 -14 19 -33q0 -21 -22 -38q-21 -16 -22 -4q-5 36 -37 36
q-121 0 -338 -280q-19 -23 -39 -53zM447 310q106 197 232 294q-13 -2 -59 19q-51 22 -119 21q-66 -1 -122 -48q-67 -56 -66 -142q0 -126 134 -144z" />
    <glyph glyph-name="I" unicode="I" horiz-adv-x="600" 
d="M389 123q20 27 134 253q73 142 204 240q1 1 1 7q-22 -13 -70 -13q-30 0 -85 16t-86 16q-110 0 -176 -83q-54 -68 -54 -145q0 -37 18 -62q18 -27 45 -27q5 0 3 6q-10 16 -10 32q0 21 15 35q14 14 35 14q20 0 35 -17t15 -42q0 -31 -22 -53q-26 -26 -70 -26q-48 0 -79 37
q-36 41 -36 117q0 105 95 195q94 89 199 89q33 0 113 -22t104 -22q35 1 68 23q33 23 29 23q14 0 14 -36q0 -13 -41 -57q-56 -61 -84 -102q-22 -32 -79 -150q-60 -122 -102 -188q-148 -230 -344 -230q-56 0 -98 25q-51 30 -51 86q0 35 26 60q24 23 50 23q67 0 67 -57
q0 -29 -26 -41q-23 -11 -35 2q8 7 6 18q-2 12 -13 12q-21 0 -21 -22q0 -55 91 -55q128 0 215 121z" />
    <glyph glyph-name="J" unicode="J" horiz-adv-x="635" 
d="M302 368q0 20 15 36t35 16q21 0 36 -14q17 -15 17 -38q0 -34 -25 -59q-26 -27 -65 -27q-115 0 -115 148q0 102 95 193q95 90 205 90q31 0 107 -20q75 -21 101 -21q36 0 69 23q33 22 29 22q14 0 14 -36q0 -18 -44 -63q-58 -59 -81 -97q-51 -82 -132 -261q-24 -52 -53 -102
q52 -39 52 -94q0 -43 -22 -73q-21 -28 -48 -28q-19 0 -32 13q-12 13 -12 30q0 26 19 35q4 -8 15 -8q28 0 28 31q-1 25 -28 47q-186 -289 -356 -289q-51 0 -81 29q-28 28 -28 71q0 92 116 183q118 93 243 93q24 0 58 -6q12 26 32 80q63 182 253 348q5 5 1 5q6 0 -12 -5
q-20 -6 -62 -6q-13 0 -73 15q-61 15 -111 15q-99 0 -161 -83q-50 -68 -50 -138q0 -89 54 -89q10 0 4 8q-7 12 -7 26zM164 64q-96 -77 -96 -139q0 -52 63 -52q68 1 146 79q73 73 134 191q-24 4 -34 4q-110 0 -213 -83z" />
    <glyph glyph-name="K" unicode="K" horiz-adv-x="1008" 
d="M517 117q20 27 134 253q73 142 204 240q1 1 1 7q-21 -12 -69 -12q-30 0 -86 16q-55 16 -86 16q-109 0 -176 -83q-54 -69 -54 -146q0 -37 18 -62q18 -27 45 -27q5 0 3 6q-10 16 -10 32q0 21 15 35q14 14 35 14t35 -14q15 -15 15 -37q0 -35 -20 -59q-25 -28 -71 -28
q-47 0 -80 36q-36 39 -36 108q0 109 95 202q94 92 199 92q33 0 113 -22t104 -22q35 1 68 23q33 23 29 23q14 0 14 -36q0 -13 -41 -57q-56 -61 -84 -102q-20 -30 -76 -143q157 -10 284 72q114 74 114 152q0 37 -35 37q-21 0 -36 -18q-10 14 -10 34q0 24 18 42q21 19 54 19
q32 0 54 -27t22 -66q0 -94 -90 -174q-95 -84 -244 -112q-10 -85 -10 -172q0 -106 28 -156q32 -57 105 -57q29 0 53 11q25 10 23 10q2 0 2 -7q0 -78 -128 -78q-81 0 -129 64q-46 62 -46 162q0 122 21 214q-33 -4 -75 0q-84 -169 -163 -252q-116 -123 -261 -123q-56 0 -98 25
q-51 30 -51 86q0 35 26 60q24 23 50 23t45 -13q22 -16 22 -44q0 -46 -42 -46q-12 0 -19 7q7 7 7 15q0 15 -17 15q-21 0 -21 -24q0 -16 18 -31q26 -22 76 -22q128 0 215 121z" />
    <glyph glyph-name="L" unicode="L" horiz-adv-x="738" 
d="M719 655q-91 0 -247 -287q107 23 196 103q87 79 87 148q0 36 -36 36zM28 -17q-25 0 -42 12q-17 13 -17 30q0 20 30 41q35 23 85 23q60 0 97 -15q98 69 171 227q-99 0 -159 54q-56 51 -56 125q0 72 56 127q53 52 113 52q52 0 78 -28q20 -23 20 -56q0 -26 -17 -45
q-17 -20 -42 -20q-50 0 -50 49q0 35 22 40q7 2 7 7q0 4 -13 4q-43 0 -81 -36q-42 -40 -42 -93q0 -50 44 -85q48 -39 128 -39h17q84 176 186 267q90 80 173 80q33 0 53 -24q17 -22 17 -55q0 -92 -96 -186q-107 -105 -266 -137q-113 -198 -210 -251q141 -30 170 -30
q136 0 213 54q24 16 40 37q14 17 13 17q11 0 11 -27q0 -40 -65 -92q-76 -60 -168 -60q-75 0 -169 32t-105 32q-54 -31 -146 -31z" />
    <glyph glyph-name="M" unicode="M" horiz-adv-x="922" 
d="M184 88q37 43 87 156q55 121 90 169q63 85 156 110l7 1q5 0 5 -5q0 -4 -9 -13q-70 -66 -120 -173q-84 -180 -144 -251q-93 -111 -219 -111q-49 0 -81 29q-32 28 -32 70q0 32 20 54q18 20 46 20h2q53 -1 53 -52q0 -16 -11 -29q-12 -13 -29 -13q-4 0 -8 1l-6 1q-5 0 -5 -5
q0 -9 14 -18q15 -9 34 -9q90 0 150 68zM898 324q-98 -173 -98 -285t119 -112q16 0 40 7l22 7q2 0 2 -2q0 -22 -36 -45q-37 -23 -77 -23q-72 0 -117 39q-49 42 -49 116q0 113 115 301q98 161 206 268q-209 0 -428 -432q-59 -116 -184 -116q-23 0 -23 11q0 3 17 35
q153 262 153 394q0 74 -42 121q-47 51 -130 51q-105 0 -192 -85q-83 -82 -83 -173q0 -74 55 -74q30 0 30 11q0 1 -3 1q-26 0 -26 40q0 20 16 33q14 11 31 11q25 0 40 -17q15 -16 15 -39q0 -39 -31 -69t-71 -30q-46 0 -76 26q-40 35 -40 107q0 112 92 204q108 108 282 108
q91 0 156 -53q71 -56 71 -146q0 -52 -154 -357q-4 -9 8 -7q12 1 17 10q155 264 206 325q140 165 319 165q33 0 73 -10q46 -12 46 -27q0 -4 -5 -18q-6 -15 -11 -14q-59 16 -69 5q-105 -117 -186 -262z" />
    <glyph glyph-name="N" unicode="N" horiz-adv-x="715" 
d="M183 92q37 43 87 156q55 121 90 169q63 85 156 110l7 1q5 0 5 -5q0 -4 -9 -13q-70 -66 -120 -173q-84 -180 -144 -251q-93 -111 -219 -111q-49 0 -81 29q-32 28 -32 70q0 32 20 54q18 20 46 20h2q53 -1 53 -52q0 -16 -11 -29q-12 -13 -29 -13q-4 0 -8 1l-6 1q-5 0 -5 -5
q0 -9 14 -18q15 -9 34 -9q90 0 150 68zM188 582q-83 -82 -83 -173q0 -35 16 -56q15 -20 39 -20q30 0 30 13q0 1 -3 1q-10 0 -18 12q-8 11 -8 23q0 21 16 35q14 14 31 14q25 0 40 -17q15 -16 15 -39q0 -39 -31 -69t-71 -30q-46 0 -76 26q-40 35 -40 107q0 112 92 204
q108 108 282 108q105 -1 168 -61q61 -59 61 -154q0 -39 -58 -197t-58 -205q0 -53 15 -55q4 0 11 22q69 217 191 400q163 245 323 245q71 0 71 -47q0 -14 -8 -26q-8 -11 -17 -11q-7 0 -9 2q1 4 1 9q0 19 -44 19q-134 0 -299 -279q-136 -230 -168 -384q-7 -35 -28 -35
q-38 0 -66 38q-30 40 -30 104q0 74 40 202q39 128 39 191q0 86 -52 130q-45 38 -122 38q-105 0 -192 -85z" />
    <glyph glyph-name="O" unicode="O" horiz-adv-x="695" 
d="M246 743q51 42 135 42q118 0 176 -96q21 12 63 12q59 0 96 -44q38 -44 38 -119q0 -224 -164 -404q-172 -191 -411 -191q-178 0 -178 176q0 110 106 254q97 132 204 195q27 15 55 15q11 0 11 -4q0 -3 -7 -9q-94 -77 -179 -209q-97 -149 -97 -248q0 -115 102 -115
q161 0 328 184q167 185 167 368q0 44 -18 72q-20 30 -53 30q-15 0 -31 -5t-11 -5q8 -19 8 -53q0 -101 -58 -192q-63 -97 -144 -97q-27 0 -44 20q-19 21 -19 56q0 73 55 156t136 132q-42 70 -132 70q-43 0 -73 -21q-26 -19 -26 -40q0 -27 26 -27q3 0 6 2l5 2q7 0 7 -15
q0 -17 -15 -29q-16 -14 -41 -14q-28 0 -48 18q-20 19 -20 47q0 49 45 86zM529 616q-67 -44 -114 -120q-43 -70 -43 -119q0 -25 21 -25q48 0 94 75q46 74 46 149q0 23 -4 40z" />
    <glyph glyph-name="P" unicode="P" horiz-adv-x="783" 
d="M557 308q-5 15 12 33t17 9q0 -11 14 -25q17 -18 44 -18q51 0 92 57q40 56 40 120q0 78 -57 126q-59 50 -160 50q-150 0 -256 -97q-94 -85 -94 -175q0 -96 57 -96q4 0 4 3q1 4 -2 6q-16 11 -16 33q0 17 14 28q13 10 29 10q53 0 53 -58q0 -31 -22 -51q-23 -21 -61 -20
q-46 1 -75 34q-32 37 -32 103q0 127 115 227q120 104 288 104q124 0 210 -59q98 -67 98 -183q0 -89 -70 -154q-67 -62 -149 -61q-77 1 -93 54zM48 -20q-28 27 -28 70q0 33 20 54t48 20q53 -1 53 -52q0 -16 -11 -29q-12 -13 -29 -13q-4 0 -8 1l-6 1q-5 0 -5 -5q0 -9 14 -18
q15 -9 34 -9q111 0 189 144q22 40 58 127q35 82 54 115q100 174 239 174q13 0 13 -5q0 -2 -3 -4q-99 -68 -154 -184q-102 -214 -154 -281q-103 -135 -241 -135q-53 0 -83 29z" />
    <glyph glyph-name="Q" unicode="Q" horiz-adv-x="734" 
d="M163 137q-36 34 -36 85q0 166 168 330q165 161 326 161q89 0 140 -58q47 -53 47 -131q0 -138 -130 -301q-126 -159 -280 -226q74 -83 170 -83q39 0 63 22t23 22q5 0 10 -9q6 -10 6 -18q0 -48 -43 -76q-38 -24 -93 -24t-122 55q-4 3 -87 84q-44 -14 -90 -14q-35 0 -68 18
q-35 18 -35 39t23 35q25 16 64 16q87 0 147 -33q127 83 235 234q114 160 114 276q0 55 -35 86q-32 29 -84 29q-129 0 -277 -154q-143 -150 -143 -267q0 -38 25 -60t67 -22q66 0 133 71q66 70 58 127q0 -4 -10 -18q-15 -20 -36 -20q-45 0 -45 42q0 26 22 44q21 17 49 17
q75 0 75 -72q0 -84 -92 -164q-88 -77 -170 -77q-54 0 -89 34z" />
    <glyph glyph-name="R" unicode="R" horiz-adv-x="781" 
d="M819 359q-54 -58 -138 -74q-27 -85 -27 -181q0 -77 26 -134q36 -78 108 -78q24 0 49 12q24 12 22 12q4 0 4 -5q0 -28 -30 -51q-32 -25 -76 -25q-81 0 -131 60q-54 65 -54 180q0 97 29 197h-12q-25 0 -30 6q-11 11 -11 27q0 10 7 10l22 -1q106 0 167 65q52 56 52 128
q0 77 -67 120q-58 38 -148 38q-150 0 -249 -86q-90 -79 -90 -181q0 -36 14 -62q15 -26 35 -26q5 0 1 4q0 -1 -4 9q-4 7 -4 16q0 22 19 37q17 13 36 13q21 0 37 -16q16 -17 16 -41q0 -28 -26 -49q-29 -24 -73 -24q-37 0 -67 32q-35 38 -35 101q0 127 113 223q118 100 289 100
q117 0 198 -58q85 -60 85 -155q0 -82 -57 -143zM318 101q35 42 96 171q58 125 106 179q74 86 184 100q16 2 9 -15q-116 -55 -182 -199q-85 -186 -138 -251q-89 -111 -214 -111q-59 0 -92 29q-32 27 -32 70q0 32 20 54q18 20 46 20h2q53 -1 53 -52q0 -16 -11 -29
q-12 -13 -29 -13q-4 0 -8 1l-6 1q-5 0 -5 -5q0 -9 14 -18q15 -9 34 -9q90 0 153 77z" />
    <glyph glyph-name="S" unicode="S" horiz-adv-x="629" 
d="M178 161q0 20 -19 20t-34 -20q-16 -21 -16 -47q0 -45 40 -77q46 -37 127 -37q91 0 150 50q52 45 52 101q0 66 -88 167q-88 102 -88 176q0 84 74 150q78 70 187 70q106 0 159 -44q46 -37 46 -98q0 -46 -30 -78t-74 -32q-29 0 -49 15q-24 16 -24 47q0 23 14 39q14 17 37 17
q18 0 31 -13q12 -12 12 -28q0 -4 -2 -10t7 -6q8 0 18 13q12 16 12 42q0 39 -36 64q-37 26 -96 26q-88 0 -144 -43q-54 -42 -54 -104q0 -61 90 -167q89 -106 89 -174q0 -95 -89 -162q-90 -66 -216 -66q-83 0 -142 41q-67 46 -67 128q0 42 30 79q35 44 92 44q33 0 54 -21
q19 -20 19 -46t-17 -47q-18 -21 -41 -21t-35 23q21 7 21 29z" />
    <glyph glyph-name="T" unicode="T" horiz-adv-x="446" 
d="M785 605q-52 0 -171 37q-121 37 -192 38q-117 0 -206 -95q-76 -81 -76 -150q0 -76 45 -90q13 -3 8 8q-4 8 -4 18q0 14 12 25q13 13 31 13q51 0 51 -56q0 -25 -22 -43q-23 -19 -54 -19q-47 0 -80 34q-37 38 -37 103q0 111 107 211q115 107 268 107q44 0 174 -37t171 -37
q80 -1 134 61l2 3q15 0 15 -19q0 -7 -3 -12q-61 -100 -173 -100zM-12 -20q-28 27 -28 70q0 33 20 54t48 20q53 -1 53 -52q0 -16 -11 -29q-12 -13 -29 -13q-4 0 -8 1l-6 1q-5 0 -5 -5q0 -9 14 -17q15 -8 34 -8q111 0 189 143q22 40 58 126q35 82 54 115q100 174 239 174
q13 0 13 -5q0 -2 -3 -4q-99 -68 -154 -184q-102 -214 -154 -281q-103 -135 -241 -135q-53 0 -83 29z" />
    <glyph glyph-name="U" unicode="U" horiz-adv-x="879" 
d="M1097 647q7 -1 7 -6q0 -2 -14 -19q-106 -107 -225 -306q-136 -226 -136 -340q0 -60 34 -94q33 -31 85 -31q16 0 40 7l22 7q2 0 2 -2q0 -23 -35 -45q-37 -23 -84 -23q-70 0 -114 42q-46 42 -46 113q0 100 128 316q117 197 219 301q2 2 2 3q-1 7 -6 7l-5 -1
q-61 -31 -279 -348q-192 -278 -344 -278q-65 0 -103 37q-35 33 -35 81q0 123 172 303q193 200 206 239q-50 -24 -102 -24q-31 0 -97 32t-125 32q-80 0 -142 -51q-64 -54 -64 -128q0 -63 35 -88q2 -2 6 -2q5 0 3 6q-3 8 -3 16q0 18 15 32t36 14t36 -15q15 -16 15 -37
q0 -30 -22 -52q-23 -22 -53 -22q-47 0 -80 37q-39 42 -39 119q0 102 90 170q89 66 221 66q32 0 116 -35q85 -35 116 -35q44 0 74 30q31 29 29 29q13 0 13 -34q0 -68 -178 -283q-179 -214 -179 -295q0 -69 66 -69t155 98q47 53 163 217q109 152 171 216q96 98 176 98
q38 0 57 -5z" />
    <glyph glyph-name="V" unicode="V" horiz-adv-x="699" 
d="M642 612q-146 -131 -182 -259q-20 -70 -37 -158q-23 -117 -20 -105q-5 -23 -13 -44l-6 -17q0 -5 7 -5q105 20 263 286q125 211 208 299q103 110 205 110q37 0 59 -19q20 -18 20 -45q0 -26 -14 -45q-17 -23 -48 -23q-29 0 -43 19q-5 6 -5 12q-1 6 2 4q8 -4 16 3t8 19
q0 22 -22 22q-64 0 -163 -117q-83 -98 -163 -242q-207 -357 -404 -355q-15 0 -15 13q0 10 8 21q44 57 51 144v165q0 144 175 284q21 17 42 32q9 6 -3 4q-43 -8 -79 -8q-26 0 -88 17q-65 18 -108 20q-98 3 -161 -72q-53 -65 -53 -140q0 -37 17 -61q18 -25 45 -25q13 0 5 8
q-13 13 -13 32q0 21 16 35q14 13 36 13q21 0 35 -15q15 -15 15 -39q0 -34 -24 -59q-26 -26 -65 -26q-50 0 -83 35q-36 40 -36 112q0 101 85 183q88 87 210 87q33 0 113 -24t112 -24q41 0 80 26q40 26 35 26q20 0 20 -36q0 -32 -40 -68z" />
    <glyph glyph-name="W" unicode="W" horiz-adv-x="887" 
d="M832 437q-7 36 -7 76q0 68 23 129q25 68 61 68t36 -84q0 -85 -49 -212q14 -3 25 -3q70 0 124 70q26 34 24 33q7 6 7 -19q0 -13 -6 -28q-48 -109 -151 -109q-19 0 -42 6q-33 -103 -113 -229q-117 -181 -222 -181q-40 0 -63 33q-21 31 -21 75q0 6 -3 3q-88 -104 -187 -104
q-97 0 -97 131q0 201 324 525q-44 -10 -86 0q-128 28 -167 28q-93 0 -158 -59q-69 -63 -64 -158q4 -58 33 -79l5 -2q5 0 3 6q-10 23 5 42q15 20 43 20q20 0 35 -16q15 -15 15 -37q0 -29 -23 -48q-24 -19 -59 -19q-45 0 -75 34q-34 39 -34 111q0 105 85 185q93 86 235 87
q41 0 113 -23q71 -24 109 -24q37 0 63 22q27 22 30 22q5 0 10 -7q6 -8 5 -14q-2 -16 -74 -93q-291 -330 -291 -476q0 -79 60 -79q55 0 109 51q46 43 46 60q5 80 72 208q72 136 124 135q44 -1 0 -107q-40 -97 -134 -239q-7 -105 43 -105q69 0 154 131q74 121 111 235z" />
    <glyph glyph-name="X" unicode="X" horiz-adv-x="840" 
d="M856 349q1 1 2 1q4 0 4 -13q0 -75 -105 -75q-23 0 -53 3q-68 -90 -68 -241q0 -58 29 -94q31 -38 89 -38q38 0 80 23q5 3 5 -4q0 -32 -35 -57q-37 -28 -88 -28q-85 0 -129 49q-40 44 -40 118q0 88 50 201q1 4 -1 5t-4 -1q-74 -112 -186 -178q-114 -68 -232 -68
q-65 0 -106 30q-43 31 -43 84q0 42 24 67q23 23 60 23q12 0 23 -8q16 -10 16 -29q0 -11 -9 -27q-9 -17 -9 -15q0 11 -24 11q-22 0 -22 -26q0 -59 97 -59q233 0 391 273l-45 2q-54 0 -78 -24q-6 -6 -6 24q0 37 34 50q27 11 89 11l32 -1q31 95 31 164q0 65 -36 109
q-37 46 -96 46q-106 0 -182 -81q-67 -72 -67 -147q0 -92 71 -92q23 0 23 14q0 4 -5 6q-18 13 -18 32q0 21 16 35q15 13 37 13q54 0 54 -61q0 -30 -32 -57q-34 -29 -78 -29q-48 0 -81 34q-37 37 -37 98q0 109 86 199q93 97 226 97q96 0 156 -54q63 -58 63 -157
q0 -68 -32 -140l-1 -2q1 -1 2 1q78 129 198 213q124 86 236 86q37 0 60 -17q20 -15 20 -33q0 -22 -16 -38q-16 -15 -19 -6q-16 39 -60 39q-79 0 -183 -72q-118 -82 -196 -214q87 -6 118 25z" />
    <glyph glyph-name="Y" unicode="Y" horiz-adv-x="789" 
d="M879 485q-2 1 -6 1q-12 0 -27 -11q-11 -7 -234 -236q-176 -183 -306 -183q-50 0 -80 30t-30 82q0 109 189 269q197 167 202 191q-78 -22 -114 -20q-30 2 -91 23q-58 19 -88 19q-97 0 -162 -55q-63 -53 -63 -128q0 -33 16 -59q15 -27 36 -27q7 0 3 7q-12 23 3 44t41 21
q19 0 32 -15q14 -14 14 -33q0 -33 -23 -53q-24 -22 -65 -22q-43 0 -75 36q-34 40 -34 102q0 96 91 172q93 78 216 78q47 0 124 -28q76 -28 112 -28q66 0 106 39q6 0 6 -16q0 -39 -25 -68q-33 -40 -102 -110q-93 -94 -114 -118q-131 -140 -131 -207q0 -46 60 -46
q104 0 303 222q102 114 147 153q80 69 139 69q37 0 67 -34q-170 -133 -400 -566q84 -40 84 -110q0 -30 -20 -53q-21 -23 -50 -23q-35 0 -52 17q-6 6 -8 12q-2 5 1 5q16 -4 31 8q19 14 19 42q0 33 -34 47q-174 -246 -405 -246q-157 0 -157 113q0 83 119 152q121 71 276 71
q49 0 115 -11q248 380 344 481zM499 -46q-33 12 -75 12q-129 0 -235 -57q-104 -56 -104 -122q0 -56 87 -56q172 0 327 223z" />
    <glyph glyph-name="Z" unicode="Z" horiz-adv-x="777" 
d="M268 40q141 -30 170 -30q136 0 213 54q24 16 40 37q14 17 13 17q11 0 11 -27q0 -40 -65 -92q-76 -60 -168 -60q-73 0 -157 30q-83 29 -104 29q-81 -47 -150 -47q-100 0 -100 44q0 33 58 51q49 15 119 15q18 0 74 -9q93 90 171 205q-20 4 -44 4q-43 0 -61 -20q-2 -5 -6 -5
t-4 13q0 61 89 61l61 -1q133 197 253 277q-41 -10 -87 -10q-48 0 -136 29t-141 29q-88 0 -159 -75q-69 -73 -69 -163q0 -32 14 -57q11 -21 23 -25l5 -2q6 0 4 5q-10 23 5 44q15 20 43 20q22 0 37 -16t15 -38q0 -30 -24 -50q-23 -19 -54 -19q-61 0 -95 46q-29 40 -29 104
q0 107 103 201q107 98 240 98q56 0 139 -37q83 -38 114 -38h1q89 1 152 54q14 0 14 -38q0 -19 -86 -106q-116 -116 -198 -243h37q29 0 50 11q21 10 18 10q2 0 2 -12q0 -62 -101 -62l-46 1q-111 -152 -202 -208z" />
    <glyph glyph-name="bracketleft" unicode="[" horiz-adv-x="297" 
d="M7 -137q-40 0 -40 26q0 55 474 789q43 66 104 66q45 0 85 1l33 1q9 0 9 -6q0 -8 -9 -17q-10 -10 -18 -10h-81q-25 0 -38 -15q-161 -191 -461 -771q-4 -10 -4 -15q0 -15 17 -15l116 -1q8 0 8 -6q0 -8 -10 -17q-10 -10 -20 -10h-165z" />
    <glyph glyph-name="backslash" unicode="\" horiz-adv-x="371" 
d="M74 616q0 25 13 59q14 37 28 37q15 0 137 -764q2 -16 2 -24q0 -26 -10 -52t-18 -26t-19 52q-133 707 -133 718z" />
    <glyph glyph-name="bracketright" unicode="]" horiz-adv-x="521" 
d="M493 746q40 0 40 -26q0 -57 -474 -791q-43 -66 -104 -66h-164q-3 0 -3 5q0 9 6 19q7 11 17 11h99q32 0 62 35q36 42 262 393q228 355 228 375q0 12 -17 12h-109q-12 0 -2 17q10 16 21 16h138z" />
    <glyph glyph-name="asciicircum" unicode="^" horiz-adv-x="833" 
 />
    <glyph glyph-name="underscore" unicode="_" horiz-adv-x="441" 
d="M38 -83q-13 -15 -10 -15q-8 0 -8 9q0 20 22 46q22 25 37 25l242 -5q53 0 75 12q6 3 11 8q3 4 4 4q4 -1 4 -7q0 -15 -20 -41q-22 -26 -38 -26q-34 0 -137 2q-102 2 -140 2q-28 0 -42 -14z" />
    <glyph glyph-name="grave" unicode="`" horiz-adv-x="833" 
d="M194 544q-1 0 27 -56q10 -20 30 -47l18 -24q0 -7 -9 -7q-22 0 -68 41q-51 45 -51 82q0 29 25 29q16 0 28 -18z" />
    <glyph glyph-name="a" unicode="a" 
d="M503 254q8 0 8 -34q0 -15 -32 -56q-124 -164 -248 -164q-64 0 -64 53q-57 -52 -112 -52q-39 0 -60 25q-19 22 -19 56q0 87 87 185q92 103 186 103q47 0 65 -37q29 37 66 37q49 0 49 -23q0 2 -14 -7q-19 -13 -40 -47q-39 -62 -100 -171q-16 -29 -16 -44q0 -21 19 -21
q83 0 222 195q1 2 3 2zM98 64q19 0 48 18q38 24 60 65l74 130q5 10 5 18q0 39 -40 39q-49 0 -117 -86q-66 -84 -66 -136q0 -48 36 -48z" />
    <glyph glyph-name="b" unicode="b" horiz-adv-x="328" 
d="M346 589q-70 -83 -134 -194q80 33 168 124q87 90 87 137q0 18 -18 18q-32 0 -103 -85zM161 54q-73 -56 -136 -56q-74 0 -74 65q0 25 151 284q-55 10 -55 59q0 22 15 39q14 16 31 16q22 0 30 -12q9 -12 3 -12q-26 0 -26 -22q0 -16 25 -26q215 322 324 322q21 0 38 -15
q17 -17 17 -40q0 -74 -124 -189q-121 -112 -191 -114q-156 -271 -156 -285q0 -22 21 -22q44 0 105 55q53 48 67 82q-3 -6 -3 33t21 81q34 66 70 66q26 0 26 -32q0 -45 -28 -93q-29 -51 -28 -45q4 -4 21 -4q60 0 117 86q3 5 5 4q4 0 8 -20q4 -22 -6 -36q-54 -71 -131 -71
q-22 0 -40 8q-34 -57 -97 -106z" />
    <glyph glyph-name="c" unicode="c" horiz-adv-x="321" 
d="M140 246q-62 -78 -62 -142q0 -49 55 -49q117 0 256 195q5 5 7 5q6 0 6 -18q0 -24 -6 -32q-138 -205 -315 -205q-90 0 -90 81q0 86 89 185q92 104 184 104q30 0 48 -16q18 -15 18 -39q0 -27 -16 -46q-16 -20 -43 -20q-36 0 -36 30q0 14 12 26q12 11 24 11q0 8 -18 8
q-51 0 -113 -78z" />
    <glyph glyph-name="d" unicode="d" horiz-adv-x="426" 
d="M449 580q10 22 2 33q-11 13 -11 10q0 4 5 7q19 12 47 12q32 0 44 -17t-3 -47l-162 -280q-36 -56 -104 -179q-16 -29 -16 -44q0 -21 19 -21q83 0 222 195q1 2 3 2q8 0 8 -34q0 -15 -32 -56q-124 -164 -248 -164q-64 0 -64 53q-57 -52 -112 -52q-39 0 -60 25q-19 22 -19 56
q0 87 87 185q92 103 186 103q47 0 65 -37zM90 61q19 0 48 18q38 24 60 65l74 130q5 10 5 18q0 39 -40 39q-49 0 -117 -86q-66 -84 -66 -136q0 -48 36 -48z" />
    <glyph glyph-name="e" unicode="e" horiz-adv-x="285" 
d="M113 55q80 0 178 101q49 50 82 100q3 5 10 -3q7 -9 7 -20q0 -13 -12 -31q-140 -202 -317 -202q-90 0 -90 81q0 86 89 185q92 104 184 104q56 0 56 -56q0 -54 -68 -100q-71 -48 -157 -44q-17 -36 -17 -64q0 -51 55 -51zM211 245q52 35 52 64q0 24 -25 24q-31 0 -78 -45
q-40 -39 -65 -81q59 0 116 38z" />
    <glyph glyph-name="f" unicode="f" horiz-adv-x="330" 
d="M-78 -253q-67 0 -67 74q0 88 264 516q-55 16 -55 61q0 21 13 39q14 20 38 20q20 0 25 -12q0 -1 -8 -7q-10 -8 -10 -19q0 -24 25 -31q207 324 311 324q57 0 57 -61q0 -87 -99 -186q-100 -100 -210 -122q-286 -462 -286 -516q0 -30 25 -30q26 0 86 72q59 71 109 162
q-12 18 -12 81q0 54 27 102q27 47 54 47q35 0 35 -57q0 -75 -46 -163q73 0 142 114q3 4 4 4q10 0 10 -34q0 -43 -49 -85q-50 -44 -105 -44q-16 0 -25 5q-145 -254 -253 -254zM329 553q-26 -38 -60 -95q-38 -63 -41 -67q84 34 160 107q85 82 85 151q0 24 -18 24
q-43 0 -126 -120z" />
    <glyph glyph-name="g" unicode="g" horiz-adv-x="363" 
d="M-44 -114q-87 -52 -87 -104q0 -29 32 -29q53 0 116 64q54 54 83 118q-63 0 -144 -49zM204 -26q34 0 55 -17q22 -17 22 -45q0 -23 -16 -39q-17 -16 -41 -16q-31 0 -31 16q15 10 15 33q0 25 -26 27q-130 -216 -282 -216q-68 0 -68 60q0 79 105 140q90 53 185 59l33 59
q-48 -35 -91 -35q-39 0 -60 25q-19 22 -19 56q0 87 87 185q92 103 186 103q47 0 65 -37q29 37 66 37q49 0 49 -23q0 2 -14 -7q-19 -13 -40 -47q-39 -62 -100 -171zM107 63q19 0 48 18q38 24 60 65l74 130q5 10 5 18q0 39 -40 39q-49 0 -117 -86q-66 -84 -66 -136
q0 -48 36 -48z" />
    <glyph glyph-name="h" unicode="h" horiz-adv-x="383" 
d="M239 439q79 34 145 109q60 69 60 111q0 13 -11 13q-52 0 -194 -233zM142 282q3 5 3 0l2 2q87 86 148 86q62 0 62 -50q0 -43 -38 -110l-64 -112q-4 -10 -4 -15q0 -24 27 -24q40 0 191 194q3 4 6 4q11 0 11 -21q0 -17 -22 -48q-127 -185 -226 -185q-71 0 -71 60
q0 42 52 120q51 78 51 94q0 19 -22 19q-58 0 -130 -91q-66 -82 -84 -154q-4 -15 10 -24q3 -1 3 -5q0 -5 -5 -8q-19 -13 -57 -13q-40 0 -42 37q0 34 92 191q91 157 91 152q-28 4 -48 23t-20 42q0 47 51 47q35 0 35 -15q0 -2 -7 -10q-8 -9 -8 -18q0 -21 23 -28
q190 285 280 285q50 0 50 -47q0 -62 -85 -151q-89 -94 -186 -119z" />
    <glyph glyph-name="i" unicode="i" horiz-adv-x="226" 
d="M299 255q9 0 9 -22q0 -17 -34 -63q-129 -169 -247 -169q-28 0 -47 14q-21 16 -21 44q0 22 15 48q109 188 110 191q7 14 7 24q0 9 -7 15t-7 7q0 4 5 7q19 12 47 12q47 0 47 -38q0 -16 -10 -33q-7 -13 -57 -97q-34 -57 -55 -99q-5 -9 -5 -18q0 -19 23 -19q76 0 210 180
q11 16 17 16zM252 450q-21 -22 -46 -22q-34 0 -34 31q0 26 22 48q21 22 48 22q30 0 30 -33q0 -25 -20 -46z" />
    <glyph glyph-name="j" unicode="j" horiz-adv-x="162" 
d="M-4 -22q32 0 53 -17q20 -16 20 -44q0 -23 -16 -39q-17 -16 -41 -16q-31 0 -31 16q12 5 12 28q0 26 -25 26q-128 -212 -279 -212q-68 0 -68 59q0 77 108 142q94 57 183 62q54 85 188 325q7 12 7 25q0 9 -7 15t-7 7q0 3 6 7q17 10 38 12h8q47 0 47 -35q0 -15 -12 -36
q-93 -165 -187 -325h3zM-113 -62q-63 -8 -141 -54q-88 -51 -88 -98q0 -29 32 -29q75 0 197 181zM273 514q0 -25 -20 -46q-21 -22 -46 -22q-34 0 -34 31q0 26 22 48q21 22 48 22q30 0 30 -33z" />
    <glyph glyph-name="k" unicode="k" horiz-adv-x="412" 
d="M510 276q6 -4 8 -15q5 -16 -9 -35l-33 -48q-31 -44 -59 -76q-88 -102 -157 -102q-41 0 -67 49q-24 43 -24 96q0 31 4 63q0 3 -2 1q6 9 -42 -33q-46 -41 -75 -89q-19 -35 -19 -46q0 -10 7 -17q7 -6 7 -8q0 -6 -17 -12t-34 -6q-51 0 -51 36q0 5 4 17q6 13 172 299l172 297
q-7 -14 -7 47q0 3 5 6q19 12 47 12q34 0 45 -18q11 -19 -8 -52q-5 -10 -117 -200q-110 -189 -120 -208q0 -3 1 -4q166 158 245 158q27 0 44 -17q17 -15 17 -38q0 -25 -16 -44q-17 -20 -42 -20q-15 0 -26 11q-12 12 -12 27q0 37 38 37q5 0 5 4t-5 4q-53 0 -154 -86
q-6 -36 -6 -57q0 -146 69 -146q41 0 112 89q21 26 52 70q30 44 37 52q5 6 11 2z" />
    <glyph glyph-name="l" unicode="l" horiz-adv-x="207" 
d="M200 400q87 29 163 103q83 80 83 151q0 18 -18 18q-50 0 -228 -272zM-71 56q0 22 16 50q93 164 137 236q-52 15 -52 60q0 21 13 39q14 20 38 20q20 0 25 -12q0 -1 -8 -7q-10 -8 -10 -19q0 -24 25 -31q63 98 125 174q121 147 196 147q23 0 37 -17q12 -16 12 -37
q0 -100 -104 -200q-101 -96 -215 -117q-19 -33 -64 -117q-40 -75 -51 -92q-20 -34 -20 -53q0 -23 28 -23q53 0 146 97q97 101 89 99q8 2 8 -23q0 -20 -9 -31q-158 -199 -281 -199q-81 0 -81 56z" />
    <glyph glyph-name="m" unicode="m" horiz-adv-x="567" 
d="M301 184q-64 -100 -64 -141q0 -9 9 -14q4 -1 4 -6q0 -3 -3 -5q-23 -20 -59 -20q-42 0 -42 43q0 22 54 111q59 98 62 108q2 6 2 10q0 23 -22 23q-58 0 -130 -91q-66 -82 -84 -154q-4 -15 10 -24q3 -1 3 -5q0 -5 -5 -8q-19 -13 -57 -13q-41 0 -41 38q0 29 29 78l51 84
q51 80 64 112q6 15 6 22q0 10 -6 16l-7 7q0 13 38 13q50 0 50 -32q0 -22 -27 -57q3 5 3 0l2 2q87 86 148 86q64 0 64 -50q0 -7 -3 -15l-1 -4l3 2q83 63 136 63q61 0 61 -60q0 11 -101 -208q-4 -8 -4 -15q0 -26 27 -26q28 0 90 70q50 57 86 114q13 21 18 21q11 0 11 -21
q0 -17 -3 -23q0 -21 -80 -112q-91 -104 -156 -104q-77 0 -77 61q0 42 52 120q51 78 51 94q0 24 -24 24q-64 0 -138 -114z" />
    <glyph glyph-name="n" unicode="n" horiz-adv-x="405" 
d="M253 293q-58 0 -130 -91q-66 -82 -84 -154q-4 -15 10 -24q3 -1 3 -5q0 -5 -5 -8q-19 -13 -57 -13q-41 0 -41 38q0 29 29 78l51 84q64 99 69 128q2 14 -4 21l-8 8q0 13 36 13q52 0 52 -30q0 -23 -27 -59q3 5 3 0l2 2q87 86 148 86q62 0 62 -50q0 -43 -38 -110l-64 -112
q-4 -8 -4 -15q0 -24 30 -24q50 0 193 203q14 0 14 -26q0 -17 -10 -30q-64 -89 -93 -119q-79 -84 -147 -84q-71 0 -71 60q0 42 52 120q51 78 51 94q0 19 -22 19z" />
    <glyph glyph-name="o" unicode="o" horiz-adv-x="332" 
d="M158 150q0 21 15 37q15 15 35 15q24 0 37 -12q44 59 44 109q0 36 -37 36q-51 0 -118 -87q-68 -86 -68 -153q0 -42 41 -42q34 0 80 52q-29 17 -29 45zM64 2q-81 0 -81 81q0 86 88 184q92 103 185 103q72 0 72 -62q0 -58 -67 -163q54 -14 139 106q3 4 7 4q8 0 8 -27
q0 -16 -12 -32q-82 -106 -179 -101q-82 -93 -160 -93z" />
    <glyph glyph-name="p" unicode="p" horiz-adv-x="379" 
d="M205 46q0 -4 3 -3q122 15 255 207q5 5 7 5q6 0 6 -18q0 -24 -6 -32q-138 -205 -314 -205q-64 0 -96 21q-13 8 -13 25q0 11 6 11l17 -2q14 -2 25 -2q67 1 124 64q57 64 57 136q0 60 -45 60q-59 0 -112 -92q-249 -431 -238 -413q-15 -25 -15 -44q0 -13 14 -13h1q3 0 3 -4
q0 -2 -4 -5q-32 -20 -59 -20q-44 0 -42 38q1 17 107 202q137 236 165 286q33 57 33 81q0 20 -15 29q-3 2 -3 5t4 6q18 11 44 11q19 0 32 -13q12 -14 12 -32q0 -8 -3 -17q-3 -6 8 5q52 48 105 47q38 -1 60 -28q20 -25 20 -63q0 -140 -134 -224q-9 -6 -9 -9z" />
    <glyph glyph-name="q" unicode="q" horiz-adv-x="356" 
d="M218 29q-108 -210 -108 -203q0 -28 24 -28q21 0 70 52q47 50 69 92q1 2 5 -4q5 -6 6 -12q6 -20 -8 -44q-89 -146 -202 -146q-19 0 -35 16q-19 20 -19 51q0 34 40 102l70 122q-38 -28 -82 -28q-39 0 -60 25q-19 22 -19 56q0 87 87 185q92 103 186 103q47 0 65 -37
q29 37 66 37q49 0 49 -23q0 2 -14 -7q-19 -13 -40 -47q-68 -106 -150 -262zM89 55q57 0 111 93l59 102q17 31 17 51q0 31 -37 31q-49 0 -118 -90q-68 -87 -68 -139q0 -48 36 -48z" />
    <glyph glyph-name="r" unicode="r" horiz-adv-x="326" 
d="M339 348q14 -17 14 -38q0 -22 -17 -40t-38 -18q-38 0 -38 37q0 12 17 29q1 1 1 3q0 3 -4 3q-40 0 -131 -124q-89 -122 -89 -169q0 -11 14 -11q4 0 4 -4q0 -1 -5 -6q-16 -10 -39 -10q-53 0 -53 44q0 27 67 140q67 114 67 137t-12 23q-4 0 -4 4t7 7q26 13 44 13
q38 0 38 -44q0 -14 -10 -32q63 76 125 76q26 0 42 -20z" />
    <glyph glyph-name="s" unicode="s" horiz-adv-x="340" 
d="M208 270q0 -10 27 -53t27 -78q0 -43 -44 -90q-3 0 -3 -2t4 -2q101 27 151 108q11 15 14 14q9 -2 9 -27q0 -22 -11 -36q-86 -111 -257 -111q-49 0 -87 19q-40 20 -40 48q0 10 7 20q6 10 12 10q-5 0 12 -20q18 -21 48 -21q51 0 83 41q28 37 28 90q0 36 -13 63
q-43 -58 -46 -55q-5 5 -8 19t0 19q34 47 34 50q-3 46 39 96q39 46 69 46q23 0 23 -26q0 -19 -26 -58q-27 -39 -51 -56q-1 -3 -1 -8z" />
    <glyph glyph-name="t" unicode="t" horiz-adv-x="199" 
d="M300 377q-10 -48 -58 -48h-66q-30 -51 -113 -196q-20 -34 -20 -53q0 -23 18 -23q55 0 134 83q50 53 88 112q1 2 3 2q10 0 10 -37q0 -10 -34 -53q-124 -164 -249 -164q-65 0 -65 59q0 50 145 270l-51 1q-12 0 -20 -4q-6 -3 -8 1q-1 3 1 7q3 8 10 18q11 17 28 21q14 3 69 2
q37 63 45 88q5 14 -3 22q-6 7 -3 9q16 12 39 12q52 0 52 -35q0 -15 -12 -36q-9 -17 -35 -60h3q17 0 42 -1q40 0 47 9q3 0 3 -6z" />
    <glyph glyph-name="u" unicode="u" 
d="M495 260q8 0 8 -28q0 -20 -32 -62q-130 -170 -248 -170q-68 0 -68 59q-71 -59 -130 -59q-68 0 -68 58q0 22 15 48l113 197q7 14 7 23t-7 16q-7 6 -7 7q0 4 5 7q19 12 46 12q50 0 50 -35q0 -15 -12 -36q-73 -120 -115 -202q-5 -9 -5 -18q0 -19 23 -19q74 0 173 176
q47 83 47 92t-7 16q-7 6 -7 7q0 4 5 7q19 12 46 12q50 0 50 -35q0 -15 -12 -36q-73 -120 -115 -202q-5 -9 -5 -18q0 -19 23 -19q80 0 210 180z" />
    <glyph glyph-name="v" unicode="v" horiz-adv-x="330" 
d="M329 159q-20 0 -40 5l-11 -19q-70 -114 -170 -139q-15 -4 -45 -4q-84 0 -84 70q0 36 75 162q43 74 43 103q0 20 -13 20q-4 0 -4 4q0 2 4 5q32 20 56 20q45 0 45 -44q0 -27 -41 -97q-78 -131 -78 -160q0 -34 33 -34q34 0 73 33q54 46 84 98q-26 22 -31 55q-8 47 5 83
q20 56 62 56q31 0 38 -52q5 -49 -14 -100l-10 -25q8 -3 23 -3q32 0 57 28q8 9 15 20l9 17q8 16 12 12q9 -9 9 -28q0 -15 -6 -29q-28 -57 -96 -57z" />
    <glyph glyph-name="w" unicode="w" horiz-adv-x="468" 
d="M421 157q-28 -63 -67 -102q-51 -55 -112 -55q-60 0 -83 42q-58 -43 -122 -43q-84 0 -84 70q0 36 75 162q43 74 43 103q0 20 -13 20q-4 0 -4 4q0 2 4 5q32 20 56 20q45 0 45 -44q0 -27 -41 -97q-78 -131 -78 -160q0 -34 33 -34q34 0 73 33q0 60 35 125q57 108 101 108
q18 0 18 -26q0 -38 -38 -109q-40 -75 -77 -104q0 -3 5 -12q14 -25 53 -25q40 0 79 39q43 43 65 95q-29 22 -34 59q-8 45 5 83q18 56 62 56q31 0 38 -52q5 -49 -14 -100l-10 -25q8 -3 23 -3q32 0 57 28q8 9 15 20l9 17q8 16 12 12q10 -10 9 -28q-3 -37 -36 -62
q-31 -24 -66 -24q-21 0 -36 4z" />
    <glyph glyph-name="x" unicode="x" horiz-adv-x="423" 
d="M200 356q58 0 40 -129q107 134 170 134q56 0 56 -54q0 -28 -15 -47q-15 -21 -40 -21q-36 0 -36 31q0 38 32 43q4 1 4 5q-1 3 -6 3q-27 0 -94 -68q-62 -63 -62 -70q0 -135 45 -135q69 0 189 186l29 42q6 0 6 -17q0 -30 -17 -56q-125 -203 -232 -203q-47 0 -64 26
q-17 25 -19 94q0 -7 -52 -57q-63 -60 -112 -60q-42 0 -42 32q0 10 9 17q2 1 10 -5q9 -8 25 -7q54 5 155 123q20 24 4 108q-3 17 -14 17q-14 -1 -93 -102q-5 -7 -10 2t-5 22q0 12 6 22q83 124 133 124z" />
    <glyph glyph-name="y" unicode="y" horiz-adv-x="366" 
d="M108 -45q-65 -19 -140 -99q-72 -77 -72 -118q0 -22 17 -22q83 0 195 239zM73 -212q-88 -107 -168 -107q-48 0 -48 49q0 44 51 113q95 129 225 160l34 57q-71 -59 -130 -59q-68 0 -68 58q0 22 15 48q106 185 112 197q7 14 7 23t-7 16q-7 6 -7 7q0 4 5 7q19 12 46 12
q50 0 50 -35q0 -15 -12 -36q-67 -110 -114 -202q-5 -9 -5 -18q0 -19 23 -19q71 0 174 175q45 82 45 93q0 9 -7 16q-7 6 -7 7q0 4 5 7q19 12 46 12q50 0 50 -35q0 -15 -12 -36q-124 -201 -163 -291q34 0 55 -17q22 -17 22 -45q0 -23 -16 -39q-17 -16 -41 -16q-31 0 -31 16
q16 12 16 35q0 25 -26 27q-79 -132 -119 -180z" />
    <glyph glyph-name="z" unicode="z" horiz-adv-x="354" 
d="M318 226q-54 -71 -117 -111q29 -21 39 -61q10 -44 -11 -87q49 -14 49 -60q0 -26 -17 -43q-16 -17 -35 -17q-25 0 -31 16q26 6 26 33q0 18 -15 24q-45 -84 -143 -157q-99 -74 -171 -74q-83 0 -83 63q0 91 129 163q114 64 218 64q40 79 5 104q-61 -35 -94 -35q-35 0 -35 28
q0 20 30 37q29 17 61 19q20 1 37 -2q93 65 145 155q2 4 0 4q-1 0 -3 -2q-96 -96 -196 -96q-51 0 -51 53q0 45 32 95q34 53 71 53q21 0 21 -32q0 -56 -63 -119l-3 -4q50 0 148 67q98 66 90 66q25 0 25 -18q0 -50 -58 -126zM45 -174q85 89 85 115h-7q-70 0 -170 -60
q-107 -64 -107 -122q0 -33 43 -33q62 0 156 100z" />
    <glyph glyph-name="braceleft" unicode="{" horiz-adv-x="340" 
d="M167 269q86 0 118 52q136 221 173 276q79 116 192 116h48q5 0 5 -3q0 -16 -18 -16q-96 0 -176 -140q-45 -77 -135 -215q-56 -84 -138 -84q-15 0 -15 -4q0 -2 4 -4q38 -23 32 -72q-4 -39 -107 -205q-10 -10 -39 -62q-38 -68 -38 -105q0 -36 18 -62q18 -27 18 -23
q0 -9 -15 -9q-26 0 -51 39t-25 80q0 65 54 147q35 35 114 196q15 30 15 54q0 21 -11 27q-6 3 -28 3q-6 0 -6 4q0 10 11 10z" />
    <glyph glyph-name="bar" unicode="|" horiz-adv-x="504" 
d="M80 -192q-16 -26 -61 -56q-43 -29 -60 -29q-15 0 16 54l581 964q15 26 61 56q43 29 60 29q15 0 -16 -53z" />
    <glyph glyph-name="braceright" unicode="}" horiz-adv-x="410" 
d="M341 241h-9q-42 0 -83 -33q16 13 -242 -364q-73 -107 -167 -107q-53 0 -54 10q5 9 15 9q74 1 154 140q38 66 185 290q17 26 58 45q38 18 69 18q17 0 17 4q0 1 -8 7q-37 28 -37 67q0 40 70 153q7 7 44 73q44 77 44 103q0 42 -20 75q-2 3 -2 5q0 6 6 6q3 0 6 -3
q63 -70 63 -123t-58 -141q-9 -9 -70 -121q-19 -35 -19 -57q0 -43 44 -43q6 0 6 -4q0 -2 -3 -5q-4 -4 -9 -4z" />
    <glyph glyph-name="asciitilde" unicode="~" horiz-adv-x="833" 
d="M184 214q-25 -16 -23 -17q-6 0 -4 8q4 17 34 46q38 36 73 36q39 0 84 -19q44 -19 60 -19q34 0 61 28q28 28 25 28q5 0 5 -8q0 -20 -28 -57q-35 -46 -78 -46q-26 0 -76 20q-50 19 -62 19q-43 0 -71 -19z" />
    <glyph glyph-name="exclamdown" unicode="&#xa1;" horiz-adv-x="333" 
d="M244 258q18 -10 18 -31q1 -22 -15 -46q-15 -22 -37 -28q-22 -5 -38 7q-33 24 -1 69q33 49 73 29zM-179 -374q0 1 29 20q38 25 113 179q126 256 211 256q14 0 13 -5q0 1 -15 -9q-75 -54 -141 -263q-40 -124 -84 -169q-32 -32 -79 -32t-47 23z" />
    <glyph glyph-name="cent" unicode="&#xa2;" horiz-adv-x="324" 
d="M156 245q-61 -81 -61 -141q0 -49 55 -49q80 0 179 102q50 50 83 101q7 0 7 -21q0 -24 -6 -32q-139 -205 -315 -205h-13l-67 -109h-38l71 117q-43 20 -43 73q0 83 84 180q88 101 179 108l60 100h38l-62 -103q40 -13 40 -51q0 -27 -18 -46q-19 -20 -46 -20q-16 0 -28 11
q-12 10 -12 25q0 18 13 29q12 10 25 10q5 0 5 4q0 5 -11 5q-56 -4 -119 -88z" />
    <glyph glyph-name="sterling" unicode="&#xa3;" horiz-adv-x="779" 
d="M76 260l26 37q0 -1 113 -1q48 194 151 286q79 70 173 70q54 0 86 -27q31 -27 31 -70q0 -79 -69 -140q-64 -56 -132 -56q-28 0 -28 20q0 6 4 13q64 1 110 52q44 49 44 106q0 31 -21 48q-17 15 -41 15q-138 0 -251 -313q73 0 141 1l-24 -35l-129 -1q-36 -84 -120 -175
q152 -64 160 -64q66 0 121 55q16 16 31 37l11 17q4 0 9 -9t5 -14q0 -58 -54 -107q-54 -50 -120 -50q-56 0 -122 47q-65 47 -80 47q-41 -45 -128 -45q-22 0 -37 11t-15 27q0 36 49 56q35 14 67 14q24 0 46 -5q23 -5 19 -5q45 35 98 159z" />
    <glyph glyph-name="yen" unicode="&#xa5;" horiz-adv-x="871" 
d="M240 380q1 -1 1 -2q0 -5 -10 -7t-21 2q-31 11 -31 59q0 81 62 141q62 59 145 59q33 0 89 -25t100 -26q34 0 65 24l31 24q9 0 11 -22q2 -23 -12 -35q-287 -245 -287 -385q0 -30 23 -49q21 -16 48 -16q43 0 115 46q70 45 87 82q66 148 140 231q59 68 97 68q18 0 18 -21
q0 -73 -196 -290q5 5 -59 -265q130 -5 147 9q5 -20 -19 -41q-23 -19 -44 -19l-96 1q-42 -108 -140 -175q-100 -68 -218 -68q-78 0 -133 50q-53 47 -53 112q0 48 28 79q29 32 76 32q26 0 42 -18q15 -16 15 -39q0 -57 -52 -57q-19 0 -33 17q-14 16 -13 16q-12 0 -12 -33
q0 -39 34 -72q38 -39 99 -39q166 0 255 196q-159 3 -172 -10q-6 2 -6 12q0 16 23 32q25 17 56 17h124l3 4l69 187q-142 -118 -233 -118q-51 0 -84 32q-33 31 -33 77q0 122 138 257q41 41 95 82l43 34q5 0 -11 -2q-17 -2 -32 -2q-20 0 -73 16q-53 15 -80 15q-68 0 -108 -44
q-33 -36 -33 -83q0 -35 15 -50z" />
    <glyph glyph-name="brokenbar" unicode="&#xa6;" horiz-adv-x="581" 
d="M372 309q-6 -11 -40 -23q-32 -11 -49 -11q-16 0 -3 21l231 384q6 10 40 22q32 12 49 12t3 -22zM61 -207q-6 -11 -40 -23q-32 -11 -49 -11q-16 0 -3 21l231 384q6 10 40 22q32 11 49 11q18 0 3 -21z" />
    <glyph glyph-name="section" unicode="&#xa7;" horiz-adv-x="833" 
d="M656 558q14 18 39 18q-20 29 -79 29q-42 0 -75 -29q-39 -35 -39 -94q0 -45 34 -134t34 -150q0 -78 -42 -137q-39 -55 -105 -81q-30 -91 -105 -140q-59 -38 -120 -38q-60 0 -100 31q-43 34 -43 93q0 37 26 64q24 26 53 26q55 0 55 -57q0 -50 -48 -50q-27 0 -37 25
q-4 -10 -4 -21q0 -31 32 -52q28 -20 64 -20q56 0 102 40q51 44 51 110q0 58 -31 149t-31 142q0 126 137 183q9 72 66 127q59 58 134 58q63 0 99 -29q36 -28 36 -77q0 -26 -17 -46q-17 -22 -42 -22q-26 0 -42 15q-15 14 -15 34q0 18 13 33zM400 188q32 -86 31 -160
q61 36 61 116q0 53 -33 148t-33 131q-57 -22 -57 -108q0 -41 31 -127z" />
    <glyph glyph-name="dieresis" unicode="&#xa8;" horiz-adv-x="833" 
d="M288 489q-18 -21 -40 -21q-29 0 -29 27q0 24 18 43q19 19 43 19q25 0 25 -27q0 -22 -17 -41zM406 489q-18 -21 -40 -21q-29 0 -29 27q0 24 18 43q19 19 43 19q25 0 25 -27q0 -22 -17 -41z" />
    <glyph glyph-name="copyright" unicode="&#xa9;" horiz-adv-x="589" 
d="M447 164q-70 -40 -145 -40q-88 0 -142 46q-55 47 -55 127q0 101 86 183q88 83 197 83q164 0 164 -125q0 -80 -64 -145q-66 -68 -153 -68q-91 0 -91 67q0 57 50 115q51 60 107 60q45 0 45 -37q0 -38 -32 -38q-21 0 -21 19q0 8 8 18q7 8 4 11v-1q-24 15 -65 -37
q-41 -53 -41 -95q0 -49 55 -49q51 0 100 55q49 56 49 118q0 104 -111 104q-79 0 -154 -72q-78 -75 -78 -162q0 -62 41 -98q40 -37 110 -37q124 0 203 95q4 5 10 -7q6 -13 0 -23q-17 -34 -77 -67z" />
    <glyph glyph-name="ordfeminine" unicode="&#xaa;" horiz-adv-x="432" 
d="M176 402q45 0 86 71l46 79q12 20 12 39q0 24 -27 24q-38 0 -92 -69q-53 -68 -53 -108q0 -36 28 -36zM145 358q-61 0 -61 63q0 67 67 143q71 79 144 79q36 0 50 -29q22 29 51 29q37 0 37 -18q0 1 -10 -6q-15 -9 -31 -35q-89 -141 -89 -167q0 -27 31 -27q26 0 65 31
q35 28 52 57l9 11q10 0 10 -21q0 -8 -8 -18q-68 -98 -156 -98q-26 0 -46 14q-20 13 -20 32q0 4 -3 4t-6 -4q-45 -40 -86 -40z" />
    <glyph glyph-name="guillemotleft" unicode="&#xab;" horiz-adv-x="293" 
d="M143 118q0 53 -21 99q-19 42 -45 56q-10 6 -10 12q0 11 18 11q68 0 151 60q68 49 99 97q2 3 4 3q6 0 6 -14q0 -23 -50 -81q-57 -68 -114 -81q-4 -1 -4 -4q0 -2 2 -6q21 -41 21 -87q0 -69 -35 -123q-30 -47 -56 -47q-10 0 -3 7q37 49 37 98z" />
    <glyph glyph-name="registered" unicode="&#xae;" horiz-adv-x="771" 
d="M280 340q6 6 33 13q24 7 47 30t23 41q0 13 -16 13q-36 0 -76 -59q-90 -130 -107 -130q-6 0 -14 4q-9 5 -5 9q43 46 83 122q13 26 13 43q0 15 -12 15q-24 0 -56 -29q-4 0 -4 7l1 8q3 15 30 30q26 15 51 15t25 -30q0 -10 -3 -24l-4 -13q-3 0 31 32q34 31 63 31q42 0 42 -40
q0 -31 -35 -59q-32 -27 -71 -35q-3 -9 -3 -20q0 -45 36 -45q33 0 70 52q39 54 39 110q0 100 -124 100q-92 0 -166 -70q-75 -70 -75 -160q0 -57 38 -99q41 -46 110 -46q134 0 216 101q1 1 2 1q6 0 6 -21q0 -35 -69 -76q-75 -43 -158 -43q-88 0 -141 55q-51 52 -51 134
q0 100 91 178q91 79 208 79q71 0 116 -36q47 -37 47 -98q0 -72 -59 -133q-56 -59 -115 -59q-62 0 -62 81q0 17 5 21z" />
    <glyph glyph-name="degree" unicode="&#xb0;" horiz-adv-x="253" 
d="M97 647q35 23 68 23q34 0 45 -23t-6 -57q-40 -79 -121 -79q-33 0 -44 23t6 56q17 34 52 57zM74 557q7 -14 26 -14q48 0 72 47q10 20 3 34t-27 14q-47 0 -71 -48q-10 -19 -3 -33z" />
    <glyph glyph-name="plusminus" unicode="&#xb1;" horiz-adv-x="435" 
d="M291 305q40 0 62 12q21 12 17 12q4 -1 4 -7q0 -22 -14 -45q-19 -31 -50 -31q-25 0 -95 2q-49 -89 -49 -110q0 -16 12 -17q-9 -19 -34 -19q-42 0 -42 39q0 21 54 110l-73 -1q-26 0 -40 -7q-13 -8 -10 -8q-8 0 -8 9q0 22 22 45q21 23 41 22l100 -3q46 84 46 96q0 16 -12 17
q8 19 34 19q42 0 42 -39q0 -12 -51 -96h44zM27 74q-13 -15 -10 -15q-8 0 -8 9q0 20 22 46q22 25 37 25l242 -5q53 0 75 12q6 3 11 8q3 4 4 4q4 -1 4 -7q0 -15 -20 -41q-22 -26 -38 -26q-34 0 -137 2q-102 2 -140 2q-28 0 -42 -14z" />
    <glyph glyph-name="uni00B2" unicode="&#xb2;" horiz-adv-x="369" 
d="M189 646q-23 -22 -23 -41q0 -15 8 -15v1q-2 6 2 11q4 6 13 6q16 0 16 -18q0 -21 -25 -21q-33 0 -33 34q0 27 27 53q30 30 74 30q24 0 41 -12q18 -13 18 -33q0 -63 -117 -107q-55 -18 -74 -51q10 6 15 6q12 0 31 -4t28 -4q21 0 37 13q14 10 16 21q0 6 4 2q5 -4 5 -14
t-21 -31q-26 -25 -57 -25q-11 0 -35 6q-13 5 -33 5q-15 0 -17 -5l-3 -2q-2 1 -2 2q-5 5 -5 10q22 59 119 97q32 13 54 40q20 24 20 41q0 28 -32 28q-27 0 -51 -23z" />
    <glyph glyph-name="uni00B3" unicode="&#xb3;" horiz-adv-x="352" 
d="M198 571q-17 12 -34 12q-20 0 -20 -6q0 -11 24 -11q13 0 30 5zM232 565q11 -14 11 -37q0 -31 -34 -55q-36 -26 -87 -26q-29 0 -47 16q-16 14 -16 32q0 33 29 33q19 0 19 -18t-15 -18q-10 0 -13 8q-1 0 -1 -1q0 -34 41 -34q36 0 65 27q30 28 21 61q-15 -5 -37 -5
q-43 0 -43 28q0 24 39 24q33 0 53 -20q35 18 35 51q0 37 -43 37q-18 0 -32 -9t-14 -18q0 -8 6 -8h7q5 3 5 -6q0 -17 -22 -17q-21 0 -21 22q0 20 19 36q22 18 57 18q44 0 63 -26q10 -14 10 -29q0 -40 -55 -66z" />
    <glyph glyph-name="acute" unicode="&#xb4;" horiz-adv-x="833" 
d="M326 536q0 -37 -66 -72q-58 -30 -98 -30q-13 0 -13 10l31 19q34 21 55 42q57 57 64 57q27 0 27 -26z" />
    <glyph glyph-name="paragraph" unicode="&#xb6;" horiz-adv-x="569" 
d="M529 676q18 -9 19 -8q68 43 124 27q56 40 97 40q32 0 32 -29q0 -20 -20 -26q-5 13 -25 13q-61 0 -196 -200q-19 -28 -115 -175q-70 -108 -110 -161q-83 -109 -185 -109q-20 0 -36 4q8 0 -36 -22q-43 -23 -84 -23q-62 0 -99 31q-35 30 -35 78q0 29 20 50q22 23 57 23
q21 0 34 -14q12 -12 12 -28q0 -29 -14 -36q-3 12 -21 12q-24 0 -24 -28q0 -15 14 -29q18 -17 50 -17q97 0 202 131q31 39 70 100q37 59 44 67q1 5 -2 5q7 0 -46 -32q-53 -33 -98 -33q-73 0 -73 75q0 86 117 201q128 125 261 125q41 0 66 -12zM329 212q276 421 314 448h-8
q-71 0 -147 -103q-56 -75 -154 -231q-94 -147 -122 -184q-44 -57 -44 -49q0 -1 1 -2t6 -1q74 0 154 122zM296 572q-117 -104 -117 -183v-5q2 -25 25 -28q41 -6 107 45q59 45 86 90q94 152 114 152q-91 39 -215 -71z" />
    <glyph glyph-name="periodcentered" unicode="&#xb7;" horiz-adv-x="833" 
 />
    <glyph glyph-name="cedilla" unicode="&#xb8;" horiz-adv-x="833" 
d="M359 -65q24 -17 24 -37q0 -30 -33 -48q-27 -16 -55 -16q-59 0 -70 49q-4 18 26 30q6 -47 44 -47q29 0 29 26q0 11 -18 30q-19 18 -19 33q0 26 40 46h74q-66 -16 -66 -36q0 -13 24 -30z" />
    <glyph glyph-name="uni00B9" unicode="&#xb9;" horiz-adv-x="375" 
d="M334 610q0 -25 -77 -125t-77 -124q0 -11 10 -11q3 0 5 1q-11 -23 -43 -23q-27 0 -27 26q0 44 111 161q14 13 35 38q-53 -43 -85 -43q-30 0 -30 20l15 1q20 3 39 10q62 25 99 98q25 -4 25 -29z" />
    <glyph glyph-name="ordmasculine" unicode="&#xba;" horiz-adv-x="317" 
d="M83 542q0 34 33 34q14 0 24 -8q29 40 29 71q0 24 -25 24q-33 0 -77 -57t-44 -100q0 -27 27 -27q22 0 52 34q-19 10 -19 29zM22 445q-53 0 -53 53q0 56 57 120q60 67 121 67q47 0 47 -40q0 -37 -43 -105q33 0 86 63q2 2 4 2q8 0 8 -17q0 -7 -3 -12q-52 -67 -117 -67
q-56 -64 -107 -64z" />
    <glyph glyph-name="guillemotright" unicode="&#xbb;" horiz-adv-x="363" 
d="M238 351q0 -53 21 -98q19 -43 45 -57q10 -6 10 -12q0 -11 -18 -11q-68 0 -151 -60q-68 -49 -99 -97q-1 -3 -4 -3q-6 0 -6 14q0 23 50 81q57 68 114 81q4 1 4 4q0 2 -2 6q-21 41 -21 87q0 69 35 123q30 47 56 47q10 0 3 -7q-37 -49 -37 -98z" />
    <glyph glyph-name="onequarter" unicode="&#xbc;" horiz-adv-x="473" 
d="M366 102q25 -9 35 -9q13 0 15 8q2 6 -5 10q25 7 25 -22q0 -10 -8 -21q-11 -15 -27 -15q-25 0 -53 10q-14 -33 -14 -46q0 -20 13 -22q7 -2 5 -4q-15 -17 -46 -17q-20 0 -31 12q-13 15 -4 45q6 22 20 47q-14 2 -22 2q-56 0 -72 -24q-15 0 -15 15q0 18 33 64q38 52 83 87
q114 91 201 91q10 0 10 -6q0 -3 -23 -28q-33 -36 -64 -81q-33 -49 -56 -96zM321 208q-57 -47 -87 -91q-7 -10 0 -12q6 -1 13 3q28 8 53 8q9 0 14 -1q51 76 141 166q-75 -24 -134 -73zM193 552q69 31 109 102q21 -8 21 -38q0 -7 -14 -40q-15 -24 -43 -65l-46 -66
q-50 -76 -50 -111q0 -19 9 -24q-13 -22 -36 -22q-35 0 -35 38q0 43 68 123q89 105 102 128q2 2 1 4q-1 1 -3 -2q-16 -21 -53 -46q-43 -30 -68 -30q-30 0 -26 34q16 -6 64 15zM122 36q0 -36 -41 -36q-31 0 -31 34q0 67 187 292q186 224 186 277q0 21 -12 21q15 18 40 16
q26 -1 26 -31q0 -53 -184 -276t-184 -287q0 -15 13 -10z" />
    <glyph glyph-name="onehalf" unicode="&#xbd;" horiz-adv-x="508" 
d="M233 45q11 7 29 7t48 -14q30 -15 41 -15q47 0 75 55q8 -6 8 -17q0 -24 -21 -49q-30 -36 -83 -36q-21 0 -54 20t-49 20q-12 0 -26 -14q-11 -11 -11 -13l-8 5q-8 5 -7 9q13 71 141 133q63 31 85 49q38 31 38 72q0 18 -13 32q-14 14 -37 14q-52 0 -77 -38q-9 -15 -10 -27
q0 -12 7 -12q-2 0 5 12q6 11 20 11q23 0 23 -27q0 -15 -10 -27q-12 -12 -29 -12q-45 0 -45 44q0 42 38 74q39 33 91 33q44 0 70 -19q26 -20 26 -53q0 -98 -167 -155q-70 -25 -101 -59q-5 -5 3 -3zM193 552q69 31 109 102q21 -8 21 -38q0 -7 -14 -40q-15 -24 -43 -65l-46 -66
q-50 -76 -50 -111q0 -19 9 -24q-13 -22 -36 -22q-35 0 -35 38q0 43 68 123q89 105 102 128q2 2 1 4q-1 1 -3 -2q-16 -21 -53 -46q-43 -30 -68 -30q-30 0 -26 34q16 -6 64 15zM122 36q0 -36 -41 -36q-31 0 -31 34q0 67 187 292q186 224 186 277q0 21 -12 21q15 18 40 16
q26 -1 26 -31q0 -53 -184 -276t-184 -287q0 -15 13 -10z" />
    <glyph glyph-name="threequarters" unicode="&#xbe;" horiz-adv-x="469" 
d="M321 556q0 -53 -76 -88q20 -31 20 -60q0 -54 -54 -83q-45 -24 -106 -24q-41 0 -70 18q-35 21 -35 56q0 17 12 29t30 12q32 0 32 -31q0 -22 -20 -22q-16 0 -22 9q-4 4 -4 -2q0 -41 69 -41q50 0 84 33q33 32 33 77q0 9 -3 16q-22 -6 -55 -6q-66 0 -66 38q0 28 56 28
q31 0 72 -22q53 27 53 71q0 49 -58 49q-24 0 -44 -10t-20 -24q0 -15 13 -15q8 0 13 6q2 -5 2 -14q0 -26 -35 -26q-42 0 -42 36q0 25 30 46q33 23 81 23q110 0 110 -79zM146 473q24 0 46 8q-19 11 -41 11q-34 0 -34 -9q0 -10 29 -10zM366 102q25 -9 35 -9q13 0 15 8
q2 6 -5 10q25 7 25 -22q0 -10 -8 -21q-11 -15 -27 -15q-25 0 -53 10q-14 -33 -14 -46q0 -20 13 -22q7 -2 5 -4q-15 -17 -46 -17q-20 0 -31 12q-13 15 -4 45q6 22 20 47q-14 2 -22 2q-56 0 -72 -24q-15 0 -15 15q0 18 33 64q38 52 83 87q114 91 201 91q10 0 10 -6
q0 -3 -23 -28q-33 -36 -64 -81q-33 -49 -56 -96zM321 208q-57 -47 -87 -91q-7 -10 0 -12q6 -1 13 3q28 8 53 8q9 0 14 -1q51 76 141 166q-75 -24 -134 -73zM141 36q0 -36 -41 -36q-31 0 -31 34q0 67 187 292q186 224 186 277q0 21 -12 21q15 18 40 16q26 -1 26 -31
q0 -53 -184 -276t-184 -287q0 -15 13 -10z" />
    <glyph glyph-name="questiondown" unicode="&#xbf;" horiz-adv-x="333" 
d="M195 65q0 -42 -47 -83q-25 -23 -103 -72q-151 -94 -151 -173q0 -53 39 -83q33 -26 80 -26q50 0 97 36q48 37 48 81q0 43 -27 43q-24 0 -31 -20q-2 -5 -7 5q-6 11 -6 20q0 19 13 36q20 24 58 24q28 0 49 -22q21 -23 21 -59q0 -83 -70 -138q-67 -54 -159 -54q-91 0 -140 45
q-45 40 -45 105t83 133q25 20 163 108q94 59 94 118q0 17 -5 28q46 0 46 -52zM191 149q-17 9 -19 31q-2 21 14 45q16 25 41 33q24 8 43 -2q17 -9 15 -33q-1 -22 -17 -46q-36 -50 -77 -28z" />
    <glyph glyph-name="Agrave" unicode="&#xc0;" horiz-adv-x="937" 
d="M547 22q0 88 124 272q-30 2 -65 8l-57 9q-121 -207 -178 -274q-110 -128 -234 -128q-53 0 -89 24q-42 27 -42 76q0 38 20 62q20 23 50 23q53 0 53 -50q0 -49 -40 -49q-10 0 -16 3q-6 2 -6 -6q0 -10 14 -19q18 -12 48 -12q104 0 199 110q53 61 161 245q-18 1 -62 1
q-33 0 -56 -16q-24 -16 -24 -38q0 -14 11 -23q12 -8 28 0q4 5 5 -4q0 -10 -7 -22q-18 -25 -45 -26q-23 -2 -43 11q-30 21 -30 55q0 115 167 115q48 0 85 -4q97 163 176 237q110 105 241 105q67 0 111 -43q44 -42 44 -104q0 -105 -82 -176q-88 -76 -247 -90
q-115 -198 -115 -254q0 -40 39 -40q43 0 130 84q4 4 7 4q7 0 7 -18q0 -6 -1 -10q-12 -33 -60 -71q-59 -46 -121 -46q-100 0 -100 79zM710 349q157 214 230 214q8 0 8 -3q0 -2 -6 -8q-56 -58 -146 -200q102 12 170 68q72 58 72 140q0 41 -26 67q-28 28 -78 28
q-108 0 -202 -89q-69 -65 -154 -207q106 -9 132 -10zM827 889q-1 0 27 -56q10 -20 30 -47l18 -24q0 -7 -9 -7q-22 0 -68 41q-51 45 -51 82q0 29 25 29q16 0 28 -18z" />
    <glyph glyph-name="Aacute" unicode="&#xc1;" horiz-adv-x="982" 
d="M547 22q0 88 124 272q-30 2 -65 8l-57 9q-121 -207 -178 -274q-110 -128 -234 -128q-53 0 -89 24q-42 27 -42 76q0 38 20 62q20 23 50 23q53 0 53 -50q0 -49 -40 -49q-10 0 -16 3q-6 2 -6 -6q0 -10 14 -19q18 -12 48 -12q104 0 199 110q53 61 161 245q-18 1 -62 1
q-33 0 -56 -16q-24 -16 -24 -38q0 -14 11 -23q12 -8 28 0q4 5 5 -4q0 -10 -7 -22q-18 -25 -45 -26q-23 -2 -43 11q-30 21 -30 55q0 115 167 115q48 0 85 -4q97 163 176 237q110 105 241 105q67 0 111 -43q44 -42 44 -104q0 -105 -82 -176q-88 -76 -247 -90
q-115 -198 -115 -254q0 -40 39 -40q43 0 130 84q4 4 7 4q7 0 7 -18q0 -6 -1 -10q-12 -33 -60 -71q-59 -46 -121 -46q-100 0 -100 79zM710 349q157 214 230 214q8 0 8 -3q0 -2 -6 -8q-56 -58 -146 -200q102 12 170 68q72 58 72 140q0 41 -26 67q-28 28 -78 28
q-108 0 -202 -89q-69 -65 -154 -207q106 -9 132 -10zM1135 878q0 -37 -66 -72q-58 -30 -98 -30q-13 0 -13 10l31 19q34 21 55 42q57 57 64 57q27 0 27 -26z" />
    <glyph glyph-name="Acircumflex" unicode="&#xc2;" horiz-adv-x="937" 
d="M547 22q0 88 124 272q-30 2 -65 8l-57 9q-121 -207 -178 -274q-110 -128 -234 -128q-53 0 -89 24q-42 27 -42 76q0 38 20 62q20 23 50 23q53 0 53 -50q0 -49 -40 -49q-10 0 -16 3q-6 2 -6 -6q0 -10 14 -19q18 -12 48 -12q104 0 199 110q53 61 161 245q-18 1 -62 1
q-33 0 -56 -16q-24 -16 -24 -38q0 -14 11 -23q12 -8 28 0q4 5 5 -4q0 -10 -7 -22q-18 -25 -45 -26q-23 -2 -43 11q-30 21 -30 55q0 115 167 115q48 0 85 -4q97 163 176 237q110 105 241 105q67 0 111 -43q44 -42 44 -104q0 -105 -82 -176q-88 -76 -247 -90
q-115 -198 -115 -254q0 -40 39 -40q43 0 130 84q4 4 7 4q7 0 7 -18q0 -6 -1 -10q-12 -33 -60 -71q-59 -46 -121 -46q-100 0 -100 79zM710 349q157 214 230 214q8 0 8 -3q0 -2 -6 -8q-56 -58 -146 -200q102 12 170 68q72 58 72 140q0 41 -26 67q-28 28 -78 28
q-108 0 -202 -89q-69 -65 -154 -207q106 -9 132 -10zM849 740q-10 0 -10 9q0 -8 99 58q90 61 80 61q-12 0 44 -91q26 -40 26 -39q0 -3 -4 -3q-73 2 -94 66q-87 -61 -141 -61z" />
    <glyph glyph-name="Atilde" unicode="&#xc3;" horiz-adv-x="916" 
d="M551 22q0 88 124 272q-30 2 -65 8l-57 9q-121 -207 -178 -274q-110 -128 -234 -128q-53 0 -89 24q-42 27 -42 76q0 38 20 62q20 23 50 23q53 0 53 -50q0 -49 -40 -49q-10 0 -16 3q-6 2 -6 -6q0 -10 14 -19q18 -12 48 -12q104 0 199 110q53 61 161 245q-18 1 -62 1
q-33 0 -56 -16q-24 -16 -24 -38q0 -14 11 -23q12 -8 28 0q4 5 5 -4q0 -10 -7 -22q-18 -25 -45 -26q-23 -2 -43 11q-30 21 -30 55q0 115 167 115q48 0 85 -4q97 163 176 237q110 105 241 105q67 0 111 -43q44 -42 44 -104q0 -105 -82 -176q-88 -76 -247 -90
q-115 -198 -115 -254q0 -40 39 -40q43 0 130 84q4 4 7 4q7 0 7 -18q0 -6 -1 -10q-12 -33 -60 -71q-59 -46 -121 -46q-100 0 -100 79zM714 349q157 214 230 214q8 0 8 -3q0 -2 -6 -8q-56 -58 -146 -200q102 12 170 68q72 58 72 140q0 41 -26 67q-28 28 -78 28
q-108 0 -202 -89q-69 -65 -154 -207q106 -9 132 -10zM863 807q-20 -9 -19 -9q-2 0 -2 3q0 12 36 33q38 23 69 23q25 0 59 -16q33 -17 52 -17q30 0 54 19q21 17 20 17q4 -2 4 -5q0 -13 -28 -42q-34 -36 -74 -36q-22 0 -61 19t-65 19q-24 0 -45 -8z" />
    <glyph glyph-name="Adieresis" unicode="&#xc4;" horiz-adv-x="942" 
d="M547 22q0 88 124 272q-30 2 -65 8l-57 9q-121 -207 -178 -274q-110 -128 -234 -128q-53 0 -89 24q-42 27 -42 76q0 38 20 62q20 23 50 23q53 0 53 -50q0 -49 -40 -49q-10 0 -16 3q-6 2 -6 -6q0 -10 14 -19q18 -12 48 -12q104 0 199 110q53 61 161 245q-18 1 -62 1
q-33 0 -56 -16q-24 -16 -24 -38q0 -14 11 -23q12 -8 28 0q4 5 5 -4q0 -10 -7 -22q-18 -25 -45 -26q-23 -2 -43 11q-30 21 -30 55q0 115 167 115q48 0 85 -4q97 163 176 237q110 105 241 105q67 0 111 -43q44 -42 44 -104q0 -105 -82 -176q-88 -76 -247 -90
q-115 -198 -115 -254q0 -40 39 -40q43 0 130 84q4 4 7 4q7 0 7 -18q0 -6 -1 -10q-12 -33 -60 -71q-59 -46 -121 -46q-100 0 -100 79zM710 349q157 214 230 214q8 0 8 -3q0 -2 -6 -8q-56 -58 -146 -200q102 12 170 68q72 58 72 140q0 41 -26 67q-28 28 -78 28
q-108 0 -202 -89q-69 -65 -154 -207q106 -9 132 -10zM960 795q-18 -21 -40 -21q-29 0 -29 27q0 24 18 43q19 19 43 19q25 0 25 -27q0 -22 -17 -41zM1078 795q-18 -21 -40 -21q-29 0 -29 27q0 24 18 43q19 19 43 19q25 0 25 -27q0 -22 -17 -41z" />
    <glyph glyph-name="Aring" unicode="&#xc5;" horiz-adv-x="916" 
d="M1054 909q35 23 68 23q34 0 45 -23t-6 -57q-40 -79 -121 -79q-33 0 -44 23t6 56q17 34 52 57zM1031 819q7 -14 26 -14q48 0 72 47q10 20 3 34t-27 14q-47 0 -71 -48q-10 -19 -3 -33zM552 22q0 88 124 272q-30 2 -65 8l-57 9q-121 -207 -178 -274q-110 -128 -234 -128
q-53 0 -89 24q-42 27 -42 76q0 38 20 62q20 23 50 23q53 0 53 -50q0 -49 -40 -49q-10 0 -16 3q-6 2 -6 -6q0 -10 14 -19q18 -12 48 -12q104 0 199 110q53 61 161 245q-18 1 -62 1q-33 0 -56 -16q-24 -16 -24 -38q0 -14 11 -23q12 -8 28 0q4 5 5 -4q0 -10 -7 -22
q-18 -25 -45 -26q-23 -2 -43 11q-30 21 -30 55q0 115 167 115q48 0 85 -4q97 163 176 237q110 105 241 105q67 0 111 -43q44 -42 44 -104q0 -105 -82 -176q-88 -76 -247 -90q-115 -198 -115 -254q0 -40 39 -40q43 0 130 84q4 4 7 4q7 0 7 -18q0 -6 -1 -10q-12 -33 -60 -71
q-59 -46 -121 -46q-100 0 -100 79zM715 349q157 214 230 214q8 0 8 -3q0 -2 -6 -8q-56 -58 -146 -200q102 12 170 68q72 58 72 140q0 41 -26 67q-28 28 -78 28q-108 0 -202 -89q-69 -65 -154 -207q106 -9 132 -10z" />
    <glyph glyph-name="AE" unicode="&#xc6;" horiz-adv-x="938" 
d="M483 56q159 -36 172 -36q86 -7 150 83q3 5 10 -11q7 -15 1 -26q-21 -38 -72 -73q-56 -37 -103 -37q-67 0 -133 34q-59 30 -69 28l-3 -1q-72 -52 -116 -52q-37 0 -37 27q0 21 39 46q42 28 87 28q16 0 32 -3q66 60 134 269l-116 -2q-112 -199 -183 -280
q-115 -133 -237 -133q-53 0 -90 24q-42 27 -42 77q0 38 20 62t51 24q53 0 53 -51q0 -49 -40 -49q-10 0 -16 3q-6 2 -6 -6q0 -10 14 -20q18 -12 48 -12q106 0 197 112q50 61 152 248q-66 -2 -72 -3q-7 -2 6 20q12 22 26 22h61q89 162 164 236q106 105 238 105q42 0 98 -24
t85 -24q39 0 68 26q30 25 23 25q18 0 18 -19q0 -31 -36 -67q-40 -41 -87 -41q-32 0 -96 31q-63 30 -123 30q-75 0 -147 -83q-47 -54 -127 -195h111q46 98 145 171q80 60 120 60q8 0 8 -3q0 -4 -6 -8q-90 -59 -173 -219q108 1 159 4l31 2q5 0 -4 -21q-10 -21 -24 -21
q-95 0 -180 -1l-32 -65q-19 -41 -30 -62q-52 -86 -121 -149z" />
    <glyph glyph-name="Ccedilla" unicode="&#xc7;" horiz-adv-x="555" 
d="M626 733q30 -31 30 -77q0 -39 -22 -64q-21 -24 -53 -24q-20 0 -35 15q-15 16 -15 36q0 11 5 21q5 -10 19 -10t26 10q13 12 13 31q0 49 -75 49q-136 0 -277 -185q-137 -179 -137 -334q0 -71 38 -109q35 -35 94 -35q94 0 181 68q66 50 110 121q7 11 11 11q16 0 16 -31
q0 -7 -1 -10q-21 -67 -105 -133q-102 -80 -219 -80h-10q-31 -51 -31 -60q0 -2 1 -2q13 7 40 7q58 0 58 -57q0 -50 -60 -100q-57 -46 -104 -46q-28 0 -35 21q-2 5 -2 11t3 5q5 -1 15 -1q40 0 78 26q42 28 42 65q0 32 -33 32q-13 0 -31 -10t-21 -10q-11 0 -11 12q0 3 1 5
q23 51 46 105v7q-165 29 -165 231q0 166 173 348q171 180 324 180q80 0 118 -39z" />
    <glyph glyph-name="Egrave" unicode="&#xc8;" horiz-adv-x="723" 
d="M386 165q84 66 171 66q35 0 58 -18q27 -20 27 -57q0 -80 -88 -149q-93 -72 -216 -72h-13q-4 -48 23 -73q20 -19 46 -19q41 0 41 26q0 15 -9 21q-10 7 -10 6q0 6 10 14q11 10 25 11q19 2 36 -9q22 -14 22 -41q0 -31 -28 -57q-32 -29 -79 -29q-61 0 -100 41q-43 45 -44 123
q-96 5 -161 49q-71 49 -71 129q0 91 83 174q79 78 174 96q-45 36 -45 84q0 100 106 170q100 66 226 66q123 0 195 -58q65 -51 65 -127q0 -46 -27 -79t-64 -33q-74 0 -74 59q0 22 13 38q13 17 32 17q5 0 5 -6q0 -19 18 -19q28 1 28 39q0 44 -42 75q-54 39 -157 39
q-94 0 -169 -59q-72 -56 -72 -119q0 -41 25 -66q49 10 112 10q41 0 78 -11q56 -16 56 -48q0 -54 -113 -54q-90 0 -157 49q-74 -21 -124 -75q-59 -62 -59 -145q0 -53 40 -93q37 -37 95 -49q27 95 112 163zM420 130q-75 -57 -90 -139q75 -13 169 45q91 56 91 108q0 36 -39 36
q-65 0 -131 -50zM577 886q-1 0 27 -56q10 -20 30 -47l18 -24q0 -7 -9 -7q-22 0 -68 41q-51 45 -51 82q0 29 25 29q16 0 28 -18z" />
    <glyph glyph-name="Eacute" unicode="&#xc9;" horiz-adv-x="723" 
d="M386 165q84 66 171 66q35 0 58 -18q27 -20 27 -57q0 -80 -88 -149q-93 -72 -216 -72h-13q-4 -48 23 -73q20 -19 46 -19q41 0 41 26q0 15 -9 21q-10 7 -10 6q0 6 10 14q11 10 25 11q19 2 36 -9q22 -14 22 -41q0 -31 -28 -57q-32 -29 -79 -29q-61 0 -100 41q-43 45 -44 123
q-96 5 -161 49q-71 49 -71 129q0 91 83 174q79 78 174 96q-45 36 -45 84q0 100 106 170q100 66 226 66q123 0 195 -58q65 -51 65 -127q0 -46 -27 -79t-64 -33q-74 0 -74 59q0 22 13 38q13 17 32 17q5 0 5 -6q0 -19 18 -19q28 1 28 39q0 44 -42 75q-54 39 -157 39
q-94 0 -169 -59q-72 -56 -72 -119q0 -41 25 -66q49 10 112 10q41 0 78 -11q56 -16 56 -48q0 -54 -113 -54q-90 0 -157 49q-74 -21 -124 -75q-59 -62 -59 -145q0 -53 40 -93q37 -37 95 -49q27 95 112 163zM420 130q-75 -57 -90 -139q75 -13 169 45q91 56 91 108q0 36 -39 36
q-65 0 -131 -50zM783 879q0 -37 -66 -72q-58 -30 -98 -30q-13 0 -13 10l31 19q34 21 55 42q57 57 64 57q27 0 27 -26z" />
    <glyph glyph-name="Ecircumflex" unicode="&#xca;" horiz-adv-x="723" 
d="M386 165q84 66 171 66q35 0 58 -18q27 -20 27 -57q0 -80 -88 -149q-93 -72 -216 -72h-13q-4 -48 23 -73q20 -19 46 -19q41 0 41 26q0 15 -9 21q-10 7 -10 6q0 6 10 14q11 10 25 11q19 2 36 -9q22 -14 22 -41q0 -31 -28 -57q-32 -29 -79 -29q-61 0 -100 41q-43 45 -44 123
q-96 5 -161 49q-71 49 -71 129q0 91 83 174q79 78 174 96q-45 36 -45 84q0 100 106 170q100 66 226 66q123 0 195 -58q65 -51 65 -127q0 -46 -27 -79t-64 -33q-74 0 -74 59q0 22 13 38q13 17 32 17q5 0 5 -6q0 -19 18 -19q28 1 28 39q0 44 -42 75q-54 39 -157 39
q-94 0 -169 -59q-72 -56 -72 -119q0 -41 25 -66q49 10 112 10q41 0 78 -11q56 -16 56 -48q0 -54 -113 -54q-90 0 -157 49q-74 -21 -124 -75q-59 -62 -59 -145q0 -53 40 -93q37 -37 95 -49q27 95 112 163zM420 130q-75 -57 -90 -139q75 -13 169 45q91 56 91 108q0 36 -39 36
q-65 0 -131 -50zM522 738q-10 0 -10 9q0 -8 99 58q90 61 80 61q-12 0 44 -91q26 -40 26 -39q0 -3 -4 -3q-73 2 -94 66q-87 -61 -141 -61z" />
    <glyph glyph-name="Edieresis" unicode="&#xcb;" horiz-adv-x="723" 
d="M386 165q84 66 171 66q35 0 58 -18q27 -20 27 -57q0 -80 -88 -149q-93 -72 -216 -72h-13q-4 -48 23 -73q20 -19 46 -19q41 0 41 26q0 15 -9 21q-10 7 -10 6q0 6 10 14q11 10 25 11q19 2 36 -9q22 -14 22 -41q0 -31 -28 -57q-32 -29 -79 -29q-61 0 -100 41q-43 45 -44 123
q-96 5 -161 49q-71 49 -71 129q0 91 83 174q79 78 174 96q-45 36 -45 84q0 100 106 170q100 66 226 66q123 0 195 -58q65 -51 65 -127q0 -46 -27 -79t-64 -33q-74 0 -74 59q0 22 13 38q13 17 32 17q5 0 5 -6q0 -19 18 -19q28 1 28 39q0 44 -42 75q-54 39 -157 39
q-94 0 -169 -59q-72 -56 -72 -119q0 -41 25 -66q49 10 112 10q41 0 78 -11q56 -16 56 -48q0 -54 -113 -54q-90 0 -157 49q-74 -21 -124 -75q-59 -62 -59 -145q0 -53 40 -93q37 -37 95 -49q27 95 112 163zM420 130q-75 -57 -90 -139q75 -13 169 45q91 56 91 108q0 36 -39 36
q-65 0 -131 -50zM625 796q-18 -21 -40 -21q-29 0 -29 27q0 24 18 43q19 19 43 19q25 0 25 -27q0 -22 -17 -41zM743 796q-18 -21 -40 -21q-29 0 -29 27q0 24 18 43q19 19 43 19q25 0 25 -27q0 -22 -17 -41z" />
    <glyph glyph-name="Igrave" unicode="&#xcc;" horiz-adv-x="598" 
d="M386 123q20 27 134 253q73 142 204 240q1 1 1 7q-22 -13 -70 -13q-30 0 -85 16t-86 16q-110 0 -176 -83q-54 -68 -54 -145q0 -37 18 -62q18 -27 45 -27q5 0 3 6q-10 16 -10 32q0 21 15 35q14 14 35 14q20 0 35 -17t15 -42q0 -31 -22 -53q-26 -26 -70 -26q-48 0 -79 37
q-36 41 -36 117q0 105 95 195q94 89 199 89q33 0 113 -22t104 -22q35 1 68 23q33 23 29 23q14 0 14 -36q0 -13 -41 -57q-56 -61 -84 -102q-22 -32 -79 -150q-60 -122 -102 -188q-148 -230 -344 -230q-56 0 -98 25q-51 30 -51 86q0 35 26 60q24 23 50 23q67 0 67 -57
q0 -29 -26 -41q-23 -11 -35 2q8 7 6 18q-2 12 -13 12q-21 0 -21 -22q0 -55 91 -55q128 0 215 121zM569 889q-1 0 27 -56q10 -20 30 -47l18 -24q0 -7 -9 -7q-22 0 -68 41q-51 45 -51 82q0 29 25 29q16 0 28 -18z" />
    <glyph glyph-name="Iacute" unicode="&#xcd;" horiz-adv-x="602" 
d="M84 57q0 22 21 22q11 0 13 -12q2 -11 -6 -18q12 -13 35 -2q26 12 26 41q0 57 -67 57q-26 0 -50 -23q-26 -25 -26 -60q0 -56 51 -86q42 -25 98 -25q196 0 344 230q42 66 102 188q57 118 79 150q28 41 84 102q41 44 41 57q0 36 -14 36q4 0 -29 -23q-33 -22 -68 -23
q-24 0 -104 22t-113 22q-105 0 -199 -89q-95 -90 -95 -195q0 -76 36 -117q31 -37 79 -37q44 0 70 26q22 22 22 53q0 25 -15 42t-35 17q-21 0 -35 -14q-15 -14 -15 -35q0 -16 10 -32q2 -6 -3 -6q-27 0 -45 27q-18 25 -18 62q0 77 54 145q66 83 176 83q31 0 86 -16t85 -16
q48 0 70 13q0 -6 -1 -7q-131 -98 -204 -240q-114 -226 -134 -253q-87 -121 -215 -121q-91 0 -91 55zM842 882q0 -37 -66 -72q-58 -30 -98 -30q-13 0 -13 10l31 19q34 21 55 42q57 57 64 57q27 0 27 -26z" />
    <glyph glyph-name="Icircumflex" unicode="&#xce;" horiz-adv-x="600" 
d="M82 57q0 22 21 22q11 0 13 -12q2 -11 -6 -18q12 -13 35 -2q26 12 26 41q0 57 -67 57q-26 0 -50 -23q-26 -25 -26 -60q0 -56 51 -86q42 -25 98 -25q196 0 344 230q42 66 102 188q57 118 79 150q28 41 84 102q41 44 41 57q0 36 -14 36q4 0 -29 -23q-33 -22 -68 -23
q-24 0 -104 22t-113 22q-105 0 -199 -89q-95 -90 -95 -195q0 -76 36 -117q31 -37 79 -37q44 0 70 26q22 22 22 53q0 25 -15 42t-35 17q-21 0 -35 -14q-15 -14 -15 -35q0 -16 10 -32q2 -6 -3 -6q-27 0 -45 27q-18 25 -18 62q0 77 54 145q66 83 176 83q31 0 86 -16t85 -16
q48 0 70 13q0 -6 -1 -7q-131 -98 -204 -240q-114 -226 -134 -253q-87 -121 -215 -121q-91 0 -91 55zM590 736q-10 0 -10 9q0 -8 99 58q90 61 80 61q-12 0 44 -91q26 -40 26 -39q0 -3 -4 -3q-73 2 -94 66q-87 -61 -141 -61z" />
    <glyph glyph-name="Idieresis" unicode="&#xcf;" horiz-adv-x="600" 
d="M82 57q0 22 21 22q11 0 13 -12q2 -11 -6 -18q12 -13 35 -2q26 12 26 41q0 57 -67 57q-26 0 -50 -23q-26 -25 -26 -60q0 -56 51 -86q42 -25 98 -25q196 0 344 230q42 66 102 188q57 118 79 150q28 41 84 102q41 44 41 57q0 36 -14 36q4 0 -29 -23q-33 -22 -68 -23
q-24 0 -104 22t-113 22q-105 0 -199 -89q-95 -90 -95 -195q0 -76 36 -117q31 -37 79 -37q44 0 70 26q22 22 22 53q0 25 -15 42t-35 17q-21 0 -35 -14q-15 -14 -15 -35q0 -16 10 -32q2 -6 -3 -6q-27 0 -45 27q-18 25 -18 62q0 77 54 145q66 83 176 83q31 0 86 -16t85 -16
q48 0 70 13q0 -6 -1 -7q-131 -98 -204 -240q-114 -226 -134 -253q-87 -121 -215 -121q-91 0 -91 55zM639 795q-18 -21 -40 -21q-29 0 -29 27q0 24 18 43q19 19 43 19q25 0 25 -27q0 -22 -17 -41zM757 795q-18 -21 -40 -21q-29 0 -29 27q0 24 18 43q19 19 43 19q25 0 25 -27
q0 -22 -17 -41z" />
    <glyph glyph-name="Ntilde" unicode="&#xd1;" horiz-adv-x="750" 
d="M183 92q37 43 87 156q55 121 90 169q63 85 156 110l7 1q5 0 5 -5q0 -4 -9 -13q-70 -66 -120 -173q-84 -180 -144 -251q-93 -111 -219 -111q-49 0 -81 29q-32 28 -32 70q0 32 20 54q18 20 46 20h2q53 -1 53 -52q0 -16 -11 -29q-12 -13 -29 -13q-4 0 -8 1l-6 1q-5 0 -5 -5
q0 -9 14 -18q15 -9 34 -9q90 0 150 68zM188 582q-83 -82 -83 -173q0 -35 16 -56q15 -20 39 -20q30 0 30 13q0 1 -3 1q-10 0 -18 12q-8 11 -8 23q0 21 16 35q14 14 31 14q25 0 40 -17q15 -16 15 -39q0 -39 -31 -69t-71 -30q-46 0 -76 26q-40 35 -40 107q0 112 92 204
q108 108 282 108q105 -1 168 -61q61 -59 61 -154q0 -39 -58 -197t-58 -205q0 -53 15 -55q4 0 11 22q69 217 191 400q163 245 323 245q71 0 71 -47q0 -14 -8 -26q-8 -11 -17 -11q-7 0 -9 2q1 4 1 9q0 19 -44 19q-134 0 -299 -279q-136 -230 -168 -384q-7 -35 -28 -35
q-38 0 -66 38q-30 40 -30 104q0 74 40 202q39 128 39 191q0 86 -52 130q-45 38 -122 38q-105 0 -192 -85zM658 802q-20 -9 -19 -9q-2 0 -2 3q0 12 36 33q38 23 69 23q25 0 59 -16q33 -17 52 -17q30 0 54 19q21 17 20 17q4 -2 4 -5q0 -13 -28 -42q-34 -36 -74 -36
q-22 0 -61 19t-65 19q-24 0 -45 -8z" />
    <glyph glyph-name="Ograve" unicode="&#xd2;" horiz-adv-x="696" 
d="M246 743q51 42 135 42q118 0 176 -96q21 12 63 12q59 0 96 -44q38 -44 38 -119q0 -224 -164 -404q-172 -191 -411 -191q-178 0 -178 176q0 110 106 254q97 132 204 195q27 15 55 15q11 0 11 -4q0 -3 -7 -9q-94 -77 -179 -209q-97 -149 -97 -248q0 -115 102 -115
q161 0 328 184q167 185 167 368q0 44 -18 72q-20 30 -53 30q-15 0 -31 -5t-11 -5q8 -19 8 -53q0 -101 -58 -192q-63 -97 -144 -97q-27 0 -44 20q-19 21 -19 56q0 73 55 156t136 132q-42 70 -132 70q-43 0 -73 -21q-26 -19 -26 -40q0 -27 26 -27q3 0 6 2l5 2q7 0 7 -15
q0 -17 -15 -29q-16 -14 -41 -14q-28 0 -48 18q-20 19 -20 47q0 49 45 86zM529 616q-67 -44 -114 -120q-43 -70 -43 -119q0 -25 21 -25q48 0 94 75q46 74 46 149q0 23 -4 40zM598 889q-1 0 27 -56q10 -20 30 -47l18 -24q0 -7 -9 -7q-22 0 -68 41q-51 45 -51 82q0 29 25 29
q16 0 28 -18z" />
    <glyph glyph-name="Oacute" unicode="&#xd3;" horiz-adv-x="695" 
d="M246 743q51 42 135 42q118 0 176 -96q21 12 63 12q59 0 96 -44q38 -44 38 -119q0 -224 -164 -404q-172 -191 -411 -191q-178 0 -178 176q0 110 106 254q97 132 204 195q27 15 55 15q11 0 11 -4q0 -3 -7 -9q-94 -77 -179 -209q-97 -149 -97 -248q0 -115 102 -115
q161 0 328 184q167 185 167 368q0 44 -18 72q-20 30 -53 30q-15 0 -31 -5t-11 -5q8 -19 8 -53q0 -101 -58 -192q-63 -97 -144 -97q-27 0 -44 20q-19 21 -19 56q0 73 55 156t136 132q-42 70 -132 70q-43 0 -73 -21q-26 -19 -26 -40q0 -27 26 -27q3 0 6 2l5 2q7 0 7 -15
q0 -17 -15 -29q-16 -14 -41 -14q-28 0 -48 18q-20 19 -20 47q0 49 45 86zM529 616q-67 -44 -114 -120q-43 -70 -43 -119q0 -25 21 -25q48 0 94 75q46 74 46 149q0 23 -4 40zM783 885q0 -37 -66 -72q-58 -30 -98 -30q-13 0 -13 10l31 19q34 21 55 42q57 57 64 57q27 0 27 -26
z" />
    <glyph glyph-name="Ocircumflex" unicode="&#xd4;" horiz-adv-x="695" 
d="M245 743q51 42 135 42q118 0 176 -96q21 12 63 12q59 0 96 -44q38 -44 38 -119q0 -224 -164 -404q-172 -191 -411 -191q-178 0 -178 176q0 110 106 254q97 132 204 195q27 15 55 15q11 0 11 -4q0 -3 -7 -9q-94 -77 -179 -209q-97 -149 -97 -248q0 -115 102 -115
q161 0 328 184q167 185 167 368q0 44 -18 72q-20 30 -53 30q-15 0 -31 -5t-11 -5q8 -19 8 -53q0 -101 -58 -192q-63 -97 -144 -97q-27 0 -44 20q-19 21 -19 56q0 73 55 156t136 132q-42 70 -132 70q-43 0 -73 -21q-26 -19 -26 -40q0 -27 26 -27q3 0 6 2l5 2q7 0 7 -15
q0 -17 -15 -29q-16 -14 -41 -14q-28 0 -48 18q-20 19 -20 47q0 49 45 86zM528 616q-67 -44 -114 -120q-43 -70 -43 -119q0 -25 21 -25q48 0 94 75q46 74 46 149q0 23 -4 40zM594 739q-10 0 -10 9q0 -8 99 58q90 61 80 61q-12 0 44 -91q26 -40 26 -39q0 -3 -4 -3
q-73 2 -94 66q-87 -61 -141 -61z" />
    <glyph glyph-name="Otilde" unicode="&#xd5;" horiz-adv-x="694" 
d="M245 743q51 42 135 42q118 0 176 -96q21 12 63 12q59 0 96 -44q38 -44 38 -119q0 -224 -164 -404q-172 -191 -411 -191q-178 0 -178 176q0 110 106 254q97 132 204 195q27 15 55 15q11 0 11 -4q0 -3 -7 -9q-94 -77 -179 -209q-97 -149 -97 -248q0 -115 102 -115
q161 0 328 184q167 185 167 368q0 44 -18 72q-20 30 -53 30q-15 0 -31 -5t-11 -5q8 -19 8 -53q0 -101 -58 -192q-63 -97 -144 -97q-27 0 -44 20q-19 21 -19 56q0 73 55 156t136 132q-42 70 -132 70q-43 0 -73 -21q-26 -19 -26 -40q0 -27 26 -27q3 0 6 2l5 2q7 0 7 -15
q0 -17 -15 -29q-16 -14 -41 -14q-28 0 -48 18q-20 19 -20 47q0 49 45 86zM528 616q-67 -44 -114 -120q-43 -70 -43 -119q0 -25 21 -25q48 0 94 75q46 74 46 149q0 23 -4 40zM606 802q-20 -9 -19 -9q-2 0 -2 3q0 12 36 33q38 23 69 23q25 0 59 -16q33 -17 52 -17q30 0 54 19
q21 17 20 17q4 -2 4 -5q0 -13 -28 -42q-34 -36 -74 -36q-22 0 -61 19t-65 19q-24 0 -45 -8z" />
    <glyph glyph-name="Odieresis" unicode="&#xd6;" horiz-adv-x="696" 
d="M246 743q51 42 135 42q118 0 176 -96q21 12 63 12q59 0 96 -44q38 -44 38 -119q0 -224 -164 -404q-172 -191 -411 -191q-178 0 -178 176q0 110 106 254q97 132 204 195q27 15 55 15q11 0 11 -4q0 -3 -7 -9q-94 -77 -179 -209q-97 -149 -97 -248q0 -115 102 -115
q161 0 328 184q167 185 167 368q0 44 -18 72q-20 30 -53 30q-15 0 -31 -5t-11 -5q8 -19 8 -53q0 -101 -58 -192q-63 -97 -144 -97q-27 0 -44 20q-19 21 -19 56q0 73 55 156t136 132q-42 70 -132 70q-43 0 -73 -21q-26 -19 -26 -40q0 -27 26 -27q3 0 6 2l5 2q7 0 7 -15
q0 -17 -15 -29q-16 -14 -41 -14q-28 0 -48 18q-20 19 -20 47q0 49 45 86zM529 616q-67 -44 -114 -120q-43 -70 -43 -119q0 -25 21 -25q48 0 94 75q46 74 46 149q0 23 -4 40zM709 796q-18 -21 -40 -21q-29 0 -29 27q0 24 18 43q19 19 43 19q25 0 25 -27q0 -22 -17 -41z
M827 796q-18 -21 -40 -21q-29 0 -29 27q0 24 18 43q19 19 43 19q25 0 25 -27q0 -22 -17 -41z" />
    <glyph glyph-name="Oslash" unicode="&#xd8;" horiz-adv-x="695" 
d="M145 9q12 23 39 67l38 66q49 89 171 297l156 266q7 14 7 24q0 9 -7 15t-7 7q0 4 5 7q19 12 47 12q30 0 41 -16t-2 -44q54 -2 89 -33q38 -35 38 -95q0 -193 -174 -401q-183 -218 -384 -228v-9q0 -13 14 -13h1q3 0 3 -4q0 -2 -4 -5q-32 -20 -59 -20q-44 0 -42 38q0 3 4 17
q-135 24 -135 163q0 106 92 235q76 106 186 192q58 47 107 48q8 0 8 -5q0 -3 -55 -50q-68 -58 -110 -106q-135 -154 -135 -304q0 -101 68 -121zM602 655l-376 -650q140 25 311 227q172 203 172 345q0 37 -19 60q-18 22 -49 22q-22 0 -39 -4z" />
    <glyph glyph-name="Ugrave" unicode="&#xd9;" horiz-adv-x="879" 
d="M1095 647q7 -1 7 -6q0 -2 -14 -19q-106 -107 -225 -306q-136 -226 -136 -340q0 -60 34 -94q33 -31 85 -31q16 0 40 7l22 7q2 0 2 -2q0 -23 -35 -45q-37 -23 -84 -23q-70 0 -114 42q-46 42 -46 113q0 100 128 316q117 197 219 301q2 2 2 3q-1 7 -6 7l-5 -1
q-61 -31 -279 -348q-192 -278 -344 -278q-65 0 -103 37q-35 33 -35 81q0 123 172 303q193 200 206 239q-50 -24 -102 -24q-31 0 -97 32t-125 32q-80 0 -142 -51q-64 -54 -64 -128q0 -63 35 -88q2 -2 6 -2q5 0 3 6q-3 8 -3 16q0 18 15 32t36 14t36 -15q15 -16 15 -37
q0 -30 -22 -52q-23 -22 -53 -22q-47 0 -80 37q-39 42 -39 119q0 102 90 170q89 66 221 66q32 0 116 -35q85 -35 116 -35q44 0 74 30q31 29 29 29q13 0 13 -34q0 -68 -178 -283q-179 -214 -179 -295q0 -69 66 -69t155 98q47 53 163 217q109 152 171 216q96 98 176 98
q38 0 57 -5zM756 884q-1 0 27 -56q10 -20 30 -47l18 -24q0 -7 -9 -7q-22 0 -68 41q-51 45 -51 82q0 29 25 29q16 0 28 -18z" />
    <glyph glyph-name="Uacute" unicode="&#xda;" horiz-adv-x="879" 
d="M1095 647q7 -1 7 -6q0 -2 -14 -19q-106 -107 -225 -306q-136 -226 -136 -340q0 -60 34 -94q33 -31 85 -31q16 0 40 7l22 7q2 0 2 -2q0 -23 -35 -45q-37 -23 -84 -23q-70 0 -114 42q-46 42 -46 113q0 100 128 316q117 197 219 301q2 2 2 3q-1 7 -6 7l-5 -1
q-61 -31 -279 -348q-192 -278 -344 -278q-65 0 -103 37q-35 33 -35 81q0 123 172 303q193 200 206 239q-50 -24 -102 -24q-31 0 -97 32t-125 32q-80 0 -142 -51q-64 -54 -64 -128q0 -63 35 -88q2 -2 6 -2q5 0 3 6q-3 8 -3 16q0 18 15 32t36 14t36 -15q15 -16 15 -37
q0 -30 -22 -52q-23 -22 -53 -22q-47 0 -80 37q-39 42 -39 119q0 102 90 170q89 66 221 66q32 0 116 -35q85 -35 116 -35q44 0 74 30q31 29 29 29q13 0 13 -34q0 -68 -178 -283q-179 -214 -179 -295q0 -69 66 -69t155 98q47 53 163 217q109 152 171 216q96 98 176 98
q38 0 57 -5zM1002 882q0 -37 -66 -72q-58 -30 -98 -30q-13 0 -13 10l31 19q34 21 55 42q57 57 64 57q27 0 27 -26z" />
    <glyph glyph-name="Ucircumflex" unicode="&#xdb;" horiz-adv-x="903" 
d="M1093 647q7 -1 7 -6q0 -2 -14 -19q-106 -107 -225 -306q-136 -226 -136 -340q0 -60 34 -94q33 -31 85 -31q16 0 40 7l22 7q2 0 2 -2q0 -23 -35 -45q-37 -23 -84 -23q-70 0 -114 42q-46 42 -46 113q0 100 128 316q117 197 219 301q2 2 2 3q-1 7 -6 7l-5 -1
q-61 -31 -279 -348q-192 -278 -344 -278q-65 0 -103 37q-35 33 -35 81q0 123 172 303q193 200 206 239q-50 -24 -102 -24q-31 0 -97 32t-125 32q-80 0 -142 -51q-64 -54 -64 -128q0 -63 35 -88q2 -2 6 -2q5 0 3 6q-3 8 -3 16q0 18 15 32t36 14t36 -15q15 -16 15 -37
q0 -30 -22 -52q-23 -22 -53 -22q-47 0 -80 37q-39 42 -39 119q0 102 90 170q89 66 221 66q32 0 116 -35q85 -35 116 -35q44 0 74 30q31 29 29 29q13 0 13 -34q0 -68 -178 -283q-179 -214 -179 -295q0 -69 66 -69t155 98q47 53 163 217q109 152 171 216q96 98 176 98
q38 0 57 -5zM793 740q-10 0 -10 9q0 -8 99 58q90 61 80 61q-12 0 44 -91q26 -40 26 -39q0 -3 -4 -3q-73 2 -94 66q-87 -61 -141 -61z" />
    <glyph glyph-name="Udieresis" unicode="&#xdc;" horiz-adv-x="879" 
d="M1095 647q7 -1 7 -6q0 -2 -14 -19q-106 -107 -225 -306q-136 -226 -136 -340q0 -60 34 -94q33 -31 85 -31q16 0 40 7l22 7q2 0 2 -2q0 -23 -35 -45q-37 -23 -84 -23q-70 0 -114 42q-46 42 -46 113q0 100 128 316q117 197 219 301q2 2 2 3q-1 7 -6 7l-5 -1
q-61 -31 -279 -348q-192 -278 -344 -278q-65 0 -103 37q-35 33 -35 81q0 123 172 303q193 200 206 239q-50 -24 -102 -24q-31 0 -97 32t-125 32q-80 0 -142 -51q-64 -54 -64 -128q0 -63 35 -88q2 -2 6 -2q5 0 3 6q-3 8 -3 16q0 18 15 32t36 14t36 -15q15 -16 15 -37
q0 -30 -22 -52q-23 -22 -53 -22q-47 0 -80 37q-39 42 -39 119q0 102 90 170q89 66 221 66q32 0 116 -35q85 -35 116 -35q44 0 74 30q31 29 29 29q13 0 13 -34q0 -68 -178 -283q-179 -214 -179 -295q0 -69 66 -69t155 98q47 53 163 217q109 152 171 216q96 98 176 98
q38 0 57 -5zM899 796q-18 -21 -40 -21q-29 0 -29 27q0 24 18 43q19 19 43 19q25 0 25 -27q0 -22 -17 -41zM1017 796q-18 -21 -40 -21q-29 0 -29 27q0 24 18 43q19 19 43 19q25 0 25 -27q0 -22 -17 -41z" />
    <glyph glyph-name="Yacute" unicode="&#xdd;" horiz-adv-x="746" 
d="M879 485q-2 1 -6 1q-12 0 -27 -11q-11 -7 -234 -236q-176 -183 -306 -183q-50 0 -80 30t-30 82q0 109 189 269q197 167 202 191q-78 -22 -114 -20q-30 2 -91 23q-58 19 -88 19q-97 0 -162 -55q-63 -53 -63 -128q0 -33 16 -59q15 -27 36 -27q7 0 3 7q-12 23 3 44t41 21
q19 0 32 -15q14 -14 14 -33q0 -33 -23 -53q-24 -22 -65 -22q-43 0 -75 36q-34 40 -34 102q0 96 91 172q93 78 216 78q47 0 124 -28q76 -28 112 -28q66 0 106 39q6 0 6 -16q0 -39 -25 -68q-33 -40 -102 -110q-93 -94 -114 -118q-131 -140 -131 -207q0 -46 60 -46
q104 0 303 222q102 114 147 153q80 69 139 69q37 0 67 -34q-170 -133 -400 -566q84 -40 84 -110q0 -30 -20 -53q-21 -23 -50 -23q-35 0 -52 17q-6 6 -8 12q-2 5 1 5q16 -4 31 8q19 14 19 42q0 33 -34 47q-174 -246 -405 -246q-157 0 -157 113q0 83 119 152q121 71 276 71
q49 0 115 -11q248 380 344 481zM499 -46q-33 12 -75 12q-129 0 -235 -57q-104 -56 -104 -122q0 -56 87 -56q172 0 327 223zM951 877q0 -37 -66 -72q-58 -30 -98 -30q-13 0 -13 10l31 19q34 21 55 42q57 57 64 57q27 0 27 -26z" />
    <glyph glyph-name="germandbls" unicode="&#xdf;" horiz-adv-x="449" 
d="M-36 -64q-145 -186 -270 -186q-41 0 -68 21q-30 23 -30 62q0 56 57 56q43 0 43 -40q0 -8 -4 -16t-4 -6q0 10 -12 10q-22 0 -22 -22q0 -30 43 -30q86 0 216 199q43 67 109 182q88 156 101 178q112 197 203 283q94 89 196 89q41 0 65 -23q22 -22 22 -54q0 -91 -118 -175
q-100 -70 -116 -65q67 -29 67 -101q0 -106 -107 -214q-112 -113 -231 -113q-53 0 -53 39q0 30 20 30q5 0 7 -5q2 -26 33 -26q74 1 160 107q85 105 85 190q0 62 -49 62q-9 0 -45 -13q-6 -1 -6 8q0 29 21 34q87 19 180 106q91 85 91 143q0 36 -34 36q-57 0 -127 -82
q-75 -87 -194 -300q-144 -256 -229 -364z" />
    <glyph glyph-name="agrave" unicode="&#xe0;" horiz-adv-x="422" 
d="M346 546l25 -52q10 -19 28 -44q16 -22 16 -21q0 -7 -8 -7q-20 0 -62 38q-47 41 -47 75q0 27 23 27q15 0 25 -16zM503 254q8 0 8 -34q0 -15 -32 -56q-124 -164 -248 -164q-64 0 -64 53q-57 -52 -112 -52q-39 0 -60 25q-19 22 -19 56q0 87 87 185q92 103 186 103
q47 0 65 -37q29 37 66 37q49 0 49 -23q0 2 -14 -7q-19 -13 -40 -47q-39 -62 -100 -171q-16 -29 -16 -44q0 -21 19 -21q83 0 222 195q1 2 3 2zM98 64q19 0 48 18q38 24 60 65l74 130q5 10 5 18q0 39 -40 39q-49 0 -117 -86q-66 -84 -66 -136q0 -48 36 -48z" />
    <glyph glyph-name="aacute" unicode="&#xe1;" horiz-adv-x="422" 
d="M490 551q0 -37 -66 -72q-58 -30 -98 -30q-13 0 -13 10l31 19q34 21 55 42q57 57 64 57q27 0 27 -26zM503 254q8 0 8 -34q0 -15 -32 -56q-124 -164 -248 -164q-64 0 -64 53q-57 -52 -112 -52q-39 0 -60 25q-19 22 -19 56q0 87 87 185q92 103 186 103q47 0 65 -37
q29 37 66 37q49 0 49 -23q0 2 -14 -7q-19 -13 -40 -47q-39 -62 -100 -171q-16 -29 -16 -44q0 -21 19 -21q83 0 222 195q1 2 3 2zM98 64q19 0 48 18q38 24 60 65l74 130q5 10 5 18q0 39 -40 39q-49 0 -117 -86q-66 -84 -66 -136q0 -48 36 -48z" />
    <glyph glyph-name="acircumflex" unicode="&#xe2;" horiz-adv-x="422" 
d="M214 408q-10 0 -10 9q0 -8 99 58q90 61 80 61q-12 0 44 -91q26 -40 26 -39q0 -3 -4 -3q-73 2 -94 66q-87 -61 -141 -61zM503 254q8 0 8 -34q0 -15 -32 -56q-124 -164 -248 -164q-64 0 -64 53q-57 -52 -112 -52q-39 0 -60 25q-19 22 -19 56q0 87 87 185q92 103 186 103
q47 0 65 -37q29 37 66 37q49 0 49 -23q0 2 -14 -7q-19 -13 -40 -47q-39 -62 -100 -171q-16 -29 -16 -44q0 -21 19 -21q83 0 222 195q1 2 3 2zM98 64q19 0 48 18q38 24 60 65l74 130q5 10 5 18q0 39 -40 39q-49 0 -117 -86q-66 -84 -66 -136q0 -48 36 -48z" />
    <glyph glyph-name="atilde" unicode="&#xe3;" horiz-adv-x="433" 
d="M198 473q-20 -9 -19 -9q-2 0 -2 3q0 12 36 33q38 23 69 23q25 0 59 -16q33 -17 52 -17q30 0 54 19q21 17 20 17q4 -2 4 -5q0 -13 -28 -42q-34 -36 -74 -36q-22 0 -61 19t-65 19q-24 0 -45 -8zM483 254q8 0 8 -34q0 -15 -32 -56q-124 -164 -248 -164q-64 0 -64 53
q-57 -52 -112 -52q-39 0 -60 25q-19 22 -19 56q0 87 87 185q92 103 186 103q47 0 65 -37q29 37 66 37q49 0 49 -23q0 2 -14 -7q-19 -13 -40 -47q-39 -62 -100 -171q-16 -29 -16 -44q0 -21 19 -21q83 0 222 195q1 2 3 2zM78 64q19 0 48 18q38 24 60 65l74 130q5 10 5 18
q0 39 -40 39q-49 0 -117 -86q-66 -84 -66 -136q0 -48 36 -48z" />
    <glyph glyph-name="adieresis" unicode="&#xe4;" horiz-adv-x="422" 
d="M304 468q-18 -21 -40 -21q-29 0 -29 27q0 24 18 43q19 19 43 19q25 0 25 -27q0 -22 -17 -41zM422 468q-18 -21 -40 -21q-29 0 -29 27q0 24 18 43q19 19 43 19q25 0 25 -27q0 -22 -17 -41zM503 254q8 0 8 -34q0 -15 -32 -56q-124 -164 -248 -164q-64 0 -64 53
q-57 -52 -112 -52q-39 0 -60 25q-19 22 -19 56q0 87 87 185q92 103 186 103q47 0 65 -37q29 37 66 37q49 0 49 -23q0 2 -14 -7q-19 -13 -40 -47q-39 -62 -100 -171q-16 -29 -16 -44q0 -21 19 -21q83 0 222 195q1 2 3 2zM98 64q19 0 48 18q38 24 60 65l74 130q5 10 5 18
q0 39 -40 39q-49 0 -117 -86q-66 -84 -66 -136q0 -48 36 -48z" />
    <glyph glyph-name="aring" unicode="&#xe5;" horiz-adv-x="433" 
d="M483 254q8 0 8 -34q0 -15 -32 -56q-124 -164 -248 -164q-64 0 -64 53q-57 -52 -112 -52q-39 0 -60 25q-19 22 -19 56q0 87 87 185q92 103 186 103q47 0 65 -37q29 37 66 37q49 0 49 -23q0 2 -14 -7q-19 -13 -40 -47q-39 -62 -100 -171q-16 -29 -16 -44q0 -21 19 -21
q83 0 222 195q1 2 3 2zM78 64q19 0 48 18q38 24 60 65l74 130q5 10 5 18q0 39 -40 39q-49 0 -117 -86q-66 -84 -66 -136q0 -48 36 -48zM342 570q35 23 68 23q34 0 45 -23t-6 -57q-40 -79 -121 -79q-33 0 -44 23t6 56q17 34 52 57zM319 480q7 -14 26 -14q48 0 72 47
q10 20 3 34t-27 14q-47 0 -71 -48q-10 -19 -3 -33z" />
    <glyph glyph-name="ae" unicode="&#xe6;" horiz-adv-x="525" 
d="M337 53q80 0 179 102q50 50 83 101q7 0 7 -21q0 -24 -6 -32q-139 -205 -315 -205q-86 0 -90 74q-72 -72 -140 -71q-79 1 -79 81q0 87 87 185q92 103 186 103q47 0 65 -37l20 28q13 14 36 14q40 0 40 -14q0 -3 -1 -5q30 12 59 12q56 0 56 -56q0 -52 -64 -97
q-67 -47 -150 -47h-11q-17 -36 -17 -64q0 -51 55 -51zM98 64q19 0 48 18q38 24 60 65q29 53 36 64q43 76 43 84q0 39 -40 39q-49 0 -117 -86q-66 -84 -66 -136q0 -48 36 -48zM436 243q52 35 52 64q0 24 -25 24q-31 0 -78 -45q-40 -39 -65 -81q59 0 116 38z" />
    <glyph glyph-name="ccedilla" unicode="&#xe7;" horiz-adv-x="313" 
d="M102 -61q24 -17 24 -37q0 -30 -33 -48q-27 -16 -55 -16q-59 0 -70 49q-4 18 26 30q6 -47 44 -47q29 0 29 26q0 11 -18 30q-19 18 -19 33q0 26 40 46h74q-66 -16 -66 -36q0 -13 24 -30zM124 246q-62 -78 -62 -142q0 -49 55 -49q117 0 256 195q5 5 7 5q6 0 6 -18
q0 -24 -6 -32q-138 -205 -315 -205q-90 0 -90 81q0 86 89 185q92 104 184 104q30 0 48 -16q18 -15 18 -39q0 -27 -16 -46q-16 -20 -43 -20q-36 0 -36 30q0 14 12 26q12 11 24 11q0 8 -18 8q-51 0 -113 -78z" />
    <glyph glyph-name="egrave" unicode="&#xe8;" horiz-adv-x="301" 
d="M113 55q80 0 178 101q49 50 82 100q3 5 10 -3q7 -9 7 -20q0 -13 -12 -31q-134 -202 -317 -202q-90 0 -90 81q0 86 89 185q92 104 184 104q56 0 56 -56q0 -54 -68 -100q-71 -48 -157 -44q-17 -36 -17 -64q0 -51 55 -51zM211 245q52 35 52 64q0 24 -25 24q-31 0 -78 -45
q-40 -39 -65 -81q59 0 116 38zM229 556q-1 0 27 -56q10 -20 30 -47l18 -24q0 -7 -9 -7q-22 0 -68 41q-51 45 -51 82q0 29 25 29q16 0 28 -18z" />
    <glyph glyph-name="eacute" unicode="&#xe9;" horiz-adv-x="301" 
d="M113 55q80 0 178 101q49 50 82 100q3 5 10 -3q7 -9 7 -20q0 -13 -12 -31q-134 -202 -317 -202q-90 0 -90 81q0 86 89 185q92 104 184 104q56 0 56 -56q0 -54 -68 -100q-71 -48 -157 -44q-17 -36 -17 -64q0 -51 55 -51zM211 245q52 35 52 64q0 24 -25 24q-31 0 -78 -45
q-40 -39 -65 -81q59 0 116 38zM368 535q0 -37 -66 -72q-58 -30 -98 -30q-13 0 -13 10l31 19q34 21 55 42q57 57 64 57q27 0 27 -26z" />
    <glyph glyph-name="ecircumflex" unicode="&#xea;" horiz-adv-x="301" 
d="M113 55q80 0 178 101q49 50 82 100q3 5 10 -3q7 -9 7 -20q0 -13 -12 -31q-134 -202 -317 -202q-90 0 -90 81q0 86 89 185q92 104 184 104q56 0 56 -56q0 -54 -68 -100q-71 -48 -157 -44q-17 -36 -17 -64q0 -51 55 -51zM211 245q52 35 52 64q0 24 -25 24q-31 0 -78 -45
q-40 -39 -65 -81q59 0 116 38zM120 407q-10 0 -10 9q0 -8 99 58q90 61 80 61q-12 0 44 -91q26 -40 26 -39q0 -3 -4 -3q-73 2 -94 66q-87 -61 -141 -61z" />
    <glyph glyph-name="edieresis" unicode="&#xeb;" horiz-adv-x="301" 
d="M113 55q80 0 178 101q49 50 82 100q3 5 10 -3q7 -9 7 -20q0 -13 -12 -31q-134 -202 -317 -202q-90 0 -90 81q0 86 89 185q92 104 184 104q56 0 56 -56q0 -54 -68 -100q-71 -48 -157 -44q-17 -36 -17 -64q0 -51 55 -51zM211 245q52 35 52 64q0 24 -25 24q-31 0 -78 -45
q-40 -39 -65 -81q59 0 116 38zM204 471q-18 -21 -40 -21q-29 0 -29 27q0 24 18 43q19 19 43 19q25 0 25 -27q0 -22 -17 -41zM322 471q-18 -21 -40 -21q-29 0 -29 27q0 24 18 43q19 19 43 19q25 0 25 -27q0 -22 -17 -41z" />
    <glyph glyph-name="igrave" unicode="&#xec;" horiz-adv-x="226" 
d="M307 240q3 -22 -33 -70q-129 -169 -247 -169q-28 0 -47 14q-21 16 -21 44q0 22 15 48q116 200 116 201q7 14 7 24q0 9 -7 15t-7 7q0 4 5 7q19 12 47 12q49 0 49 -35q0 -15 -12 -36l-53 -91q-44 -75 -47 -82q3 9 -18 -33q-5 -9 -5 -18q0 -19 23 -19q76 0 210 180
q15 22 16 22q5 0 9 -21zM122 555q-1 0 27 -56q10 -20 30 -47l18 -24q0 -7 -9 -7q-22 0 -68 41q-51 45 -51 82q0 29 25 29q16 0 28 -18z" />
    <glyph glyph-name="iacute" unicode="&#xed;" horiz-adv-x="237" 
d="M307 240q3 -22 -33 -70q-129 -169 -247 -169q-28 0 -47 14q-21 16 -21 44q0 22 15 48q116 200 116 201q7 14 7 24q0 9 -7 15t-7 7q0 4 5 7q19 12 47 12q49 0 49 -35q0 -15 -12 -36l-53 -91q-44 -75 -47 -82q3 9 -18 -33q-5 -9 -5 -18q0 -19 23 -19q76 0 210 180
q15 22 16 22q5 0 9 -21zM319 530q0 -37 -66 -72q-58 -30 -98 -30q-13 0 -13 10l31 19q34 21 55 42q57 57 64 57q27 0 27 -26z" />
    <glyph glyph-name="icircumflex" unicode="&#xee;" horiz-adv-x="226" 
d="M307 240q3 -22 -33 -70q-129 -169 -247 -169q-28 0 -47 14q-21 16 -21 44q0 22 15 48q116 200 116 201q7 14 7 24q0 9 -7 15t-7 7q0 4 5 7q19 12 47 12q49 0 49 -35q0 -15 -12 -36l-53 -91q-44 -75 -47 -82q3 9 -18 -33q-5 -9 -5 -18q0 -19 23 -19q76 0 210 180
q15 22 16 22q5 0 9 -21zM64 408q-10 0 -10 9q0 -8 99 58q90 61 80 61q-12 0 44 -91q26 -40 26 -39q0 -3 -4 -3q-73 2 -94 66q-87 -61 -141 -61z" />
    <glyph glyph-name="idieresis" unicode="&#xef;" horiz-adv-x="226" 
d="M307 240q3 -22 -33 -70q-129 -169 -247 -169q-28 0 -47 14q-21 16 -21 44q0 22 15 48q116 200 116 201q7 14 7 24q0 9 -7 15t-7 7q0 4 5 7q19 12 47 12q49 0 49 -35q0 -15 -12 -36l-53 -91q-44 -75 -47 -82q3 9 -18 -33q-5 -9 -5 -18q0 -19 23 -19q76 0 210 180
q15 22 16 22q5 0 9 -21zM165 472q-18 -21 -40 -21q-29 0 -29 27q0 24 18 43q19 19 43 19q25 0 25 -27q0 -22 -17 -41zM283 472q-18 -21 -40 -21q-29 0 -29 27q0 24 18 43q19 19 43 19q25 0 25 -27q0 -22 -17 -41z" />
    <glyph glyph-name="ntilde" unicode="&#xf1;" horiz-adv-x="421" 
d="M255 293q-58 0 -130 -91q-66 -82 -84 -154q-4 -15 10 -24q3 -1 3 -5q0 -5 -5 -8q-19 -13 -57 -13q-41 0 -41 38q0 29 29 78l51 84q64 99 69 128q2 14 -4 21l-8 8q0 13 36 13q52 0 52 -30q0 -23 -27 -59q3 5 3 0l2 2q87 86 148 86q62 0 62 -50q0 -43 -38 -110l-64 -112
q-4 -8 -4 -15q0 -24 30 -24q50 0 193 203q14 0 14 -26q0 -17 -10 -30q-64 -89 -93 -119q-79 -84 -147 -84q-71 0 -71 60q0 42 52 120q51 78 51 94q0 19 -22 19zM166 470q-20 -9 -19 -9q-2 0 -2 3q0 12 36 33q38 23 69 23q25 0 59 -16q33 -17 52 -17q30 0 54 19q21 17 20 17
q4 -2 4 -5q0 -13 -28 -42q-34 -36 -74 -36q-22 0 -61 19t-65 19q-24 0 -45 -8z" />
    <glyph glyph-name="ograve" unicode="&#xf2;" horiz-adv-x="336" 
d="M145 147q0 21 15 37q15 15 35 15q24 0 37 -12q44 59 44 109q0 36 -37 36q-51 0 -118 -87q-68 -86 -68 -153q0 -42 41 -42q34 0 80 52q-29 17 -29 45zM51 -1q-39 0 -61 25q-20 22 -20 56q0 86 88 184q92 103 185 103q72 0 72 -62q0 -58 -66 -161q53 0 131 96q4 4 7 4
q12 0 12 -26q0 -13 -5 -19q-79 -102 -178 -102q-86 -98 -165 -98zM282 547q-1 0 27 -56q10 -20 30 -47l18 -24q0 -7 -9 -7q-22 0 -68 41q-51 45 -51 82q0 29 25 29q16 0 28 -18z" />
    <glyph glyph-name="oacute" unicode="&#xf3;" horiz-adv-x="336" 
d="M145 147q0 21 15 37q15 15 35 15q24 0 37 -12q44 59 44 109q0 36 -37 36q-51 0 -118 -87q-68 -86 -68 -153q0 -42 41 -42q34 0 80 52q-29 17 -29 45zM51 -1q-39 0 -61 25q-20 22 -20 56q0 86 88 184q92 103 185 103q72 0 72 -62q0 -58 -66 -161q53 0 131 96q4 4 7 4
q12 0 12 -26q0 -13 -5 -19q-79 -102 -178 -102q-86 -98 -165 -98zM392 536q0 -37 -66 -72q-58 -30 -98 -30q-13 0 -13 10l31 19q34 21 55 42q57 57 64 57q27 0 27 -26z" />
    <glyph glyph-name="ocircumflex" unicode="&#xf4;" horiz-adv-x="336" 
d="M145 147q0 21 15 37q15 15 35 15q24 0 37 -12q44 59 44 109q0 36 -37 36q-51 0 -118 -87q-68 -86 -68 -153q0 -42 41 -42q34 0 80 52q-29 17 -29 45zM51 -1q-39 0 -61 25q-20 22 -20 56q0 86 88 184q92 103 185 103q72 0 72 -62q0 -58 -66 -161q53 0 131 96q4 4 7 4
q12 0 12 -26q0 -13 -5 -19q-79 -102 -178 -102q-86 -98 -165 -98zM157 410q-10 0 -10 9q0 -8 99 58q90 61 80 61q-12 0 44 -91q26 -40 26 -39q0 -3 -4 -3q-73 2 -94 66q-87 -61 -141 -61z" />
    <glyph glyph-name="otilde" unicode="&#xf5;" horiz-adv-x="344" 
d="M109 147q0 21 15 37q15 15 35 15q24 0 37 -12q44 59 44 109q0 36 -37 36q-51 0 -118 -87q-68 -86 -68 -153q0 -42 41 -42q34 0 80 52q-29 17 -29 45zM15 -1q-39 0 -61 25q-20 22 -20 56q0 86 88 184q92 103 185 103q72 0 72 -62q0 -58 -66 -161q53 0 131 96q4 4 7 4
q12 0 12 -26q0 -13 -5 -19q-79 -102 -178 -102q-86 -98 -165 -98zM146 470q-20 -9 -19 -9q-2 0 -2 3q0 12 36 33q38 23 69 23q25 0 59 -16q33 -17 52 -17q30 0 54 19q21 17 20 17q4 -2 4 -5q0 -13 -28 -42q-34 -36 -74 -36q-22 0 -61 19t-65 19q-24 0 -45 -8z" />
    <glyph glyph-name="odieresis" unicode="&#xf6;" horiz-adv-x="336" 
d="M145 147q0 21 15 37q15 15 35 15q24 0 37 -12q44 59 44 109q0 36 -37 36q-51 0 -118 -87q-68 -86 -68 -153q0 -42 41 -42q34 0 80 52q-29 17 -29 45zM51 -1q-39 0 -61 25q-20 22 -20 56q0 86 88 184q92 103 185 103q72 0 72 -62q0 -58 -66 -161q53 0 131 96q4 4 7 4
q12 0 12 -26q0 -13 -5 -19q-79 -102 -178 -102q-86 -98 -165 -98zM244 470q-18 -21 -40 -21q-29 0 -29 27q0 24 18 43q19 19 43 19q25 0 25 -27q0 -22 -17 -41zM362 470q-18 -21 -40 -21q-29 0 -29 27q0 24 18 43q19 19 43 19q25 0 25 -27q0 -22 -17 -41z" />
    <glyph glyph-name="divide" unicode="&#xf7;" horiz-adv-x="445" 
d="M27 128q-13 -15 -10 -15q-8 0 -8 9q0 20 22 46q22 25 37 25l242 -5q53 0 75 12q6 3 11 8q3 4 4 4q4 -1 4 -7q0 -15 -20 -41q-22 -26 -38 -26q-34 0 -137 2q-102 2 -140 2q-28 0 -42 -14zM183 27q-19 -20 -41 -20q-31 0 -31 28q0 23 20 43q19 20 43 20q27 0 27 -30
q0 -22 -18 -41zM299 267q-19 -20 -42 -20q-30 0 -30 28q0 24 19 43q20 20 44 20q27 0 27 -30q0 -22 -18 -41z" />
    <glyph glyph-name="oslash" unicode="&#xf8;" horiz-adv-x="300" 
d="M237 119q-87 -113 -174 -119q-2 0 -2 -3q-4 -8 -4 -15q1 -6 5 -9q5 -3 5 -4q0 -5 -12 -11q-12 -5 -21 -5q-12 0 -12 8q0 6 17 40q-66 9 -66 80q0 86 88 184q92 103 185 103h6q1 0 1 1q5 9 5 16q0 6 -4 10q-5 3 -5 4q0 2 3 5q13 8 31 8q12 0 12 -7l-22 -41q45 -13 45 -58
q0 -82 -81 -187zM97 51q46 0 115 97q67 95 67 149q0 29 -25 34l-162 -280h5zM96 99q-7 -13 136 233q-52 -10 -114 -92q-62 -84 -62 -147q0 -26 15 -36z" />
    <glyph glyph-name="ugrave" unicode="&#xf9;" 
d="M503 232q0 -20 -32 -62q-130 -170 -248 -170q-68 0 -68 59q-71 -59 -130 -59q-68 0 -68 58q0 22 15 48l113 197q7 14 7 23t-7 16q-7 6 -7 7q0 4 5 7q19 12 46 12q50 0 50 -35q0 -15 -12 -36q-73 -120 -115 -202q-5 -9 -5 -18q0 -19 23 -19q74 0 173 176q47 83 47 92
t-7 16q-7 6 -7 7q0 4 5 7q19 12 46 12q50 0 50 -35q0 -15 -12 -36q-73 -120 -115 -202q-5 -9 -5 -18q0 -19 23 -19q71 0 210 180q17 22 16 22q9 0 9 -28zM208 556q-1 0 27 -56q10 -20 30 -47l18 -24q0 -7 -9 -7q-22 0 -68 41q-51 45 -51 82q0 29 25 29q16 0 28 -18z" />
    <glyph glyph-name="uacute" unicode="&#xfa;" 
d="M503 232q0 -20 -32 -62q-130 -170 -248 -170q-68 0 -68 59q-71 -59 -130 -59q-68 0 -68 58q0 22 15 48l113 197q7 14 7 23t-7 16q-7 6 -7 7q0 4 5 7q19 12 46 12q50 0 50 -35q0 -15 -12 -36q-73 -120 -115 -202q-5 -9 -5 -18q0 -19 23 -19q74 0 173 176q47 83 47 92
t-7 16q-7 6 -7 7q0 4 5 7q19 12 46 12q50 0 50 -35q0 -15 -12 -36q-73 -120 -115 -202q-5 -9 -5 -18q0 -19 23 -19q71 0 210 180q17 22 16 22q9 0 9 -28zM372 548q0 -37 -66 -72q-58 -30 -98 -30q-13 0 -13 10l31 19q34 21 55 42q57 57 64 57q27 0 27 -26z" />
    <glyph glyph-name="ucircumflex" unicode="&#xfb;" 
d="M503 232q0 -20 -32 -62q-130 -170 -248 -170q-68 0 -68 59q-71 -59 -130 -59q-68 0 -68 58q0 22 15 48l113 197q7 14 7 23t-7 16q-7 6 -7 7q0 4 5 7q19 12 46 12q50 0 50 -35q0 -15 -12 -36q-73 -120 -115 -202q-5 -9 -5 -18q0 -19 23 -19q74 0 173 176q47 83 47 92
t-7 16q-7 6 -7 7q0 4 5 7q19 12 46 12q50 0 50 -35q0 -15 -12 -36q-73 -120 -115 -202q-5 -9 -5 -18q0 -19 23 -19q71 0 210 180q17 22 16 22q9 0 9 -28zM144 408q-10 0 -10 9q0 -8 99 58q90 61 80 61q-12 0 44 -91q26 -40 26 -39q0 -3 -4 -3q-73 2 -94 66q-87 -61 -141 -61
z" />
    <glyph glyph-name="udieresis" unicode="&#xfc;" 
d="M503 232q0 -20 -32 -62q-130 -170 -248 -170q-68 0 -68 59q-71 -59 -130 -59q-68 0 -68 58q0 22 15 48l113 197q7 14 7 23t-7 16q-7 6 -7 7q0 4 5 7q19 12 46 12q50 0 50 -35q0 -15 -12 -36q-73 -120 -115 -202q-5 -9 -5 -18q0 -19 23 -19q74 0 173 176q47 83 47 92
t-7 16q-7 6 -7 7q0 4 5 7q19 12 46 12q50 0 50 -35q0 -15 -12 -36q-73 -120 -115 -202q-5 -9 -5 -18q0 -19 23 -19q71 0 210 180q17 22 16 22q9 0 9 -28zM231 472q-18 -21 -40 -21q-29 0 -29 27q0 24 18 43q19 19 43 19q25 0 25 -27q0 -22 -17 -41zM349 472q-18 -21 -40 -21
q-29 0 -29 27q0 24 18 43q19 19 43 19q25 0 25 -27q0 -22 -17 -41z" />
    <glyph glyph-name="yacute" unicode="&#xfd;" horiz-adv-x="366" 
d="M108 -45q-65 -19 -140 -99q-72 -77 -72 -118q0 -22 17 -22q83 0 195 239zM73 -212q-88 -107 -168 -107q-48 0 -48 49q0 44 51 113q95 129 225 160l34 57q-71 -59 -130 -59q-68 0 -68 58q0 22 15 48q106 185 112 197q7 14 7 23t-7 16q-7 6 -7 7q0 4 5 7q19 12 46 12
q50 0 50 -35q0 -15 -12 -36q-67 -110 -114 -202q-5 -9 -5 -18q0 -19 23 -19q71 0 174 175q45 82 45 93q0 9 -7 16q-7 6 -7 7q0 4 5 7q19 12 46 12q50 0 50 -35q0 -15 -12 -36q-124 -201 -163 -291q34 0 55 -17q22 -17 22 -45q0 -23 -16 -39q-17 -16 -41 -16q-31 0 -31 16
q16 12 16 35q0 25 -26 27q-79 -132 -119 -180zM397 547q0 -37 -66 -72q-58 -30 -98 -30q-13 0 -13 10l31 19q34 21 55 42q57 57 64 57q27 0 27 -26z" />
    <glyph glyph-name="ydieresis" unicode="&#xff;" horiz-adv-x="366" 
d="M262 471q-18 -21 -40 -21q-29 0 -29 27q0 24 18 43q19 19 43 19q25 0 25 -27q0 -22 -17 -41zM380 471q-18 -21 -40 -21q-29 0 -29 27q0 24 18 43q19 19 43 19q25 0 25 -27q0 -22 -17 -41zM108 -45q-65 -19 -140 -99q-72 -77 -72 -118q0 -22 17 -22q83 0 195 239zM73 -212
q-88 -107 -168 -107q-48 0 -48 49q0 44 51 113q95 129 225 160l34 57q-71 -59 -130 -59q-68 0 -68 58q0 22 15 48q106 185 112 197q7 14 7 23t-7 16q-7 6 -7 7q0 4 5 7q19 12 46 12q50 0 50 -35q0 -15 -12 -36q-67 -110 -114 -202q-5 -9 -5 -18q0 -19 23 -19q71 0 174 175
q45 82 45 93q0 9 -7 16q-7 6 -7 7q0 4 5 7q19 12 46 12q50 0 50 -35q0 -15 -12 -36q-124 -201 -163 -291q34 0 55 -17q22 -17 22 -45q0 -23 -16 -39q-17 -16 -41 -16q-31 0 -31 16q16 12 16 35q0 25 -26 27q-79 -132 -119 -180z" />
    <glyph glyph-name="Abreve" unicode="&#x102;" horiz-adv-x="937" 
d="M547 22q0 88 124 272q-30 2 -65 8l-57 9q-121 -207 -178 -274q-110 -128 -234 -128q-53 0 -89 24q-42 27 -42 76q0 38 20 62q20 23 50 23q53 0 53 -50q0 -49 -40 -49q-10 0 -16 3q-6 2 -6 -6q0 -10 14 -19q18 -12 48 -12q104 0 199 110q53 61 161 245q-18 1 -62 1
q-33 0 -56 -16q-24 -16 -24 -38q0 -14 11 -23q12 -8 28 0q4 5 5 -4q0 -10 -7 -22q-18 -25 -45 -26q-23 -2 -43 11q-30 21 -30 55q0 115 167 115q48 0 85 -4q97 163 176 237q110 105 241 105q67 0 111 -43q44 -42 44 -104q0 -105 -82 -176q-88 -76 -247 -90
q-115 -198 -115 -254q0 -40 39 -40q43 0 130 84q4 4 7 4q7 0 7 -18q0 -6 -1 -10q-12 -33 -60 -71q-59 -46 -121 -46q-100 0 -100 79zM710 349q157 214 230 214q8 0 8 -3q0 -2 -6 -8q-56 -58 -146 -200q102 12 170 68q72 58 72 140q0 41 -26 67q-28 28 -78 28
q-108 0 -202 -89q-69 -65 -154 -207q106 -9 132 -10zM926 814q-7 59 20.5 66t35.5 -48q8 -43 65 -29q39 6 105 64q4 3 6 3q6 0 6 -15q0 -4 -1 -8q-10 -27 -49 -58q-49 -38 -100 -38q-82 0 -88 63z" />
    <glyph glyph-name="abreve" unicode="&#x103;" 
d="M503 254q8 0 8 -34q0 -15 -32 -56q-124 -164 -248 -164q-64 0 -64 53q-57 -52 -112 -52q-39 0 -60 25q-19 22 -19 56q0 87 87 185q92 103 186 103q47 0 65 -37q29 37 66 37q49 0 49 -23q0 2 -14 -7q-19 -13 -40 -47q-39 -62 -100 -171q-16 -29 -16 -44q0 -21 19 -21
q83 0 222 195q1 2 3 2zM98 64q19 0 48 18q38 24 60 65l74 130q5 10 5 18q0 39 -40 39q-49 0 -117 -86q-66 -84 -66 -136q0 -48 36 -48zM205 469q-7 59 20.5 66t35.5 -48q8 -43 65 -29q39 6 105 64q4 3 6 3q6 0 6 -15q0 -4 -1 -8q-10 -27 -49 -58q-49 -38 -100 -38
q-82 0 -88 63z" />
    <glyph glyph-name="Dcroat" unicode="&#x110;" horiz-adv-x="922" 
d="M506 200q-72 -131 -124 -175q61 -26 94 -26q146 0 266 143q115 138 115 287q0 129 -76 201q-71 67 -189 67q-122 0 -213 -92q-88 -89 -88 -196q0 -39 19 -65q18 -27 46 -27q2 0 3 3t-1 5q-16 10 -16 32q0 38 42 38q53 0 53 -54q0 -30 -21 -51q-24 -24 -60 -24
q-49 0 -82 39q-34 40 -34 99q0 141 113 245q109 101 248 101q158 0 253 -95q90 -89 90 -222q0 -180 -130 -327q-141 -158 -338 -158q-50 0 -125 32q-2 1 -5 1q-11 0 -53 -14q-43 -14 -88 -14q-88 0 -88 58q0 60 87 60q76 0 136 -31q46 47 90 157l2 6h-42q-28 0 -42 -14
q-13 -15 -10 -15q-8 0 -8 9q0 20 22 46q22 25 37 25l63 -2q37 88 47 106q97 168 226 174q13 0 13 -5q0 -2 -3 -4q-105 -73 -157 -181q-24 -50 -46 -93h13q53 0 75 12q6 3 11 8q3 4 4 4q4 -1 4 -7q0 -15 -20 -41q-22 -26 -38 -26q-28 0 -75 1z" />
    <glyph glyph-name="dcroat" unicode="&#x111;" horiz-adv-x="426" 
d="M90 61q19 0 48 18q38 24 60 65l74 130q5 10 5 18q0 39 -40 39q-49 0 -117 -86q-66 -84 -66 -136q0 -48 36 -48zM400 494l49 86q10 22 2 33q-11 13 -11 10q0 4 5 7q19 12 47 12q32 0 44 -17t-3 -47l-50 -87h2q53 0 75 12q6 3 11 8q3 4 4 4q4 -1 4 -7q0 -15 -20 -41
q-22 -26 -38 -26q-26 0 -67 1l-83 -144q-36 -56 -104 -179q-16 -29 -16 -44q0 -21 19 -21q83 0 222 195q1 2 3 2q8 0 8 -34q0 -15 -32 -56q-124 -164 -248 -164q-64 0 -64 53q-57 -52 -112 -52q-39 0 -60 25q-19 22 -19 56q0 87 87 185q92 103 186 103q47 0 65 -37l66 115
h-42q-28 0 -42 -14q-13 -15 -10 -15q-8 0 -8 9q0 20 22 46q22 25 37 25z" />
    <glyph glyph-name="Itilde" unicode="&#x128;" horiz-adv-x="600" 
d="M389 123q20 27 134 253q73 142 204 240q1 1 1 7q-22 -13 -70 -13q-30 0 -85 16t-86 16q-110 0 -176 -83q-54 -68 -54 -145q0 -37 18 -62q18 -27 45 -27q5 0 3 6q-10 16 -10 32q0 21 15 35q14 14 35 14q20 0 35 -17t15 -42q0 -31 -22 -53q-26 -26 -70 -26q-48 0 -79 37
q-36 41 -36 117q0 105 95 195q94 89 199 89q33 0 113 -22t104 -22q35 1 68 23q33 23 29 23q14 0 14 -36q0 -13 -41 -57q-56 -61 -84 -102q-22 -32 -79 -150q-60 -122 -102 -188q-148 -230 -344 -230q-56 0 -98 25q-51 30 -51 86q0 35 26 60q24 23 50 23q67 0 67 -57
q0 -29 -26 -41q-23 -11 -35 2q8 7 6 18q-2 12 -13 12q-21 0 -21 -22q0 -55 91 -55q128 0 215 121zM679 795q-20 -9 -19 -9q-2 0 -2 3q0 12 36 33q38 23 69 23q25 0 59 -16q33 -17 52 -17q30 0 54 19q21 17 20 17q4 -2 4 -5q0 -13 -28 -42q-34 -36 -74 -36q-22 0 -61 19
t-65 19q-24 0 -45 -8z" />
    <glyph glyph-name="itilde" unicode="&#x129;" horiz-adv-x="222" 
d="M304 240q3 -22 -33 -70q-129 -169 -247 -169q-28 0 -47 14q-21 16 -21 44q0 22 15 48q116 200 116 201q7 14 7 24q0 9 -7 15t-7 7q0 4 5 7q19 12 47 12q49 0 49 -35q0 -15 -12 -36l-53 -91q-44 -75 -47 -82q3 9 -18 -33q-5 -9 -5 -18q0 -19 23 -19q76 0 210 180
q15 22 16 22q5 0 9 -21zM37 452q-20 -9 -19 -9q-2 0 -2 3q0 12 36 33q38 23 69 23q25 0 59 -16q33 -17 52 -17q30 0 54 19q21 17 20 17q4 -2 4 -5q0 -13 -28 -42q-34 -36 -74 -36q-22 0 -61 19t-65 19q-24 0 -45 -8z" />
    <glyph glyph-name="dotlessi" unicode="&#x131;" horiz-adv-x="222" 
d="M304 240q3 -22 -33 -70q-129 -169 -247 -169q-28 0 -47 14q-21 16 -21 44q0 22 15 48q116 200 116 201q7 14 7 24q0 9 -7 15t-7 7q0 4 5 7q19 12 47 12q49 0 49 -35q0 -15 -12 -36l-53 -91q-44 -75 -47 -82q3 9 -18 -33q-5 -9 -5 -18q0 -19 23 -19q76 0 210 180
q15 22 16 22q5 0 9 -21z" />
    <glyph glyph-name="OE" unicode="&#x152;" horiz-adv-x="949" 
d="M289 710q-22 -16 -22 -37q0 -27 20 -27q2 0 9 3q4 2 6 -3q6 -20 -9 -34q-17 -16 -51 -16q-55 0 -55 63q0 48 45 82q51 39 135 39q120 0 174 -87q47 18 89 18q48 0 82 -26q36 -27 45 -76q90 70 136 70q30 0 57 -5q28 -6 51 -6q27 0 57 29q26 25 30 22q23 -14 11 -35
q-51 -92 -146 -92q-28 1 -54 6q-25 6 -34 6q-56 0 -107 -62q-9 -81 -51 -171q155 -5 244 -5q8 0 -2 -21q-11 -22 -27 -26q-18 -4 -241 0q-61 -112 -155 -204q3 -96 64 -96q23 0 106 37q82 37 118 37q56 0 86 -28q27 -26 27 -67q0 -31 -20 -51q0 23 -16 40q-22 25 -71 25
q-38 0 -109 -34q-70 -35 -130 -35q-100 0 -103 130q-149 -122 -292 -122q-201 0 -201 175q0 107 87 232q73 104 181 189q56 46 116 47q8 0 8 -5q0 -3 -55 -50q-68 -58 -110 -106q-134 -153 -134 -297q0 -65 36 -101q33 -33 85 -33q119 0 291 177q22 97 73 197
q52 102 145 190l1 10q0 37 -23 60q-21 23 -53 23q-35 0 -72 -13q7 -27 7 -58q0 -92 -57 -186q-61 -102 -135 -102q-31 0 -52 20q-22 21 -22 56q0 75 55 160q56 87 138 135q-35 58 -134 58q-46 0 -72 -19zM372 352q47 0 97 82q48 78 47 142q0 25 -4 46q-68 -43 -115 -122
q-44 -72 -44 -123q0 -25 19 -25z" />
    <glyph glyph-name="oe" unicode="&#x153;" horiz-adv-x="534" 
d="M437 228q56 47 55 81q0 24 -25 24q-33 0 -89 -56q-55 -56 -72 -107q69 7 131 58zM342 55q80 0 179 102q50 50 83 101q7 0 7 -21q0 -24 -6 -32q-139 -205 -315 -205q-87 0 -90 76q-76 -79 -151 -79q-39 0 -60 25q-19 22 -19 56q0 86 88 184q92 103 185 103q72 0 72 -62
q0 -7 -1 -10q82 77 159 77q56 0 56 -56q0 -72 -91 -132q-82 -54 -149 -53q-2 -10 -2 -23q0 -51 55 -51zM223 222q19 0 28 -10q26 52 26 82q0 36 -37 36q-51 0 -118 -87q-68 -86 -68 -153q0 -42 41 -42q46 0 111 89q-29 11 -29 41q0 44 46 44z" />
    <glyph glyph-name="Scaron" unicode="&#x160;" horiz-adv-x="583" 
d="M178 161q0 20 -19 20t-34 -20q-16 -21 -16 -47q0 -45 40 -77q46 -37 127 -37q91 0 150 50q52 45 52 101q0 66 -88 167q-88 102 -88 176q0 84 74 150q78 70 187 70q106 0 159 -44q46 -37 46 -98q0 -46 -30 -78t-74 -32q-29 0 -49 15q-24 16 -24 47q0 23 14 39q14 17 37 17
q18 0 31 -13q12 -12 12 -28q0 -4 -2 -10t7 -6q8 0 18 13q12 16 12 42q0 39 -36 64q-37 26 -96 26q-88 0 -144 -43q-54 -42 -54 -104q0 -61 90 -167q89 -106 89 -174q0 -95 -89 -162q-90 -66 -216 -66q-83 0 -142 41q-67 46 -67 128q0 42 30 79q35 44 92 44q33 0 54 -21
q19 -20 19 -46t-17 -47q-18 -21 -41 -21t-35 23q21 7 21 29zM865 882q11 0 11 -11q0 -1 -98 -57q-36 -21 -72 -53q-27 -25 -33 -25q-12 0 -19 29q-10 42 -31 75q-7 11 -21 28q-12 15 -12 16q0 3 8 3q83 -2 106 -75q100 70 161 70z" />
    <glyph glyph-name="scaron" unicode="&#x161;" horiz-adv-x="329" 
d="M-7 19q-26 16 -26 39q0 21 14 21q-4 0 13 -17t43 -17q44 0 70 33q24 30 24 78t-30 88q-72 -99 -77 -94t-8 20t0 20q59 75 59 82q-3 46 39 96q39 46 69 46q23 0 23 -26q0 -19 -26 -58q-27 -39 -51 -56q3 2 34 -36q36 -44 36 -85q0 -62 -54 -101q-3 -3 -3 -5t5 -2
q68 8 142 96q23 27 47 64l26 39q1 2 3 2q11 0 11 -34q0 -10 -4 -18q-69 -119 -145 -161q-59 -33 -155 -33q-50 0 -79 19zM384 646q11 0 11 -11q0 -1 -98 -57q-36 -21 -72 -53q-27 -25 -33 -25q-12 0 -19 29q-10 42 -31 75q-7 11 -21 28q-12 15 -12 16q0 3 8 3q83 -2 106 -75
q100 70 161 70z" />
    <glyph glyph-name="Utilde" unicode="&#x168;" horiz-adv-x="879" 
d="M1097 647q7 -1 7 -6q0 -2 -14 -19q-106 -107 -225 -306q-136 -226 -136 -340q0 -60 34 -94q33 -31 85 -31q16 0 40 7l22 7q2 0 2 -2q0 -23 -35 -45q-37 -23 -84 -23q-70 0 -114 42q-46 42 -46 113q0 100 128 316q117 197 219 301q2 2 2 3q-1 7 -6 7l-5 -1
q-61 -31 -279 -348q-192 -278 -344 -278q-65 0 -103 37q-35 33 -35 81q0 123 172 303q193 200 206 239q-50 -24 -102 -24q-31 0 -97 32t-125 32q-80 0 -142 -51q-64 -54 -64 -128q0 -63 35 -88q2 -2 6 -2q5 0 3 6q-3 8 -3 16q0 18 15 32t36 14t36 -15q15 -16 15 -37
q0 -30 -22 -52q-23 -22 -53 -22q-47 0 -80 37q-39 42 -39 119q0 102 90 170q89 66 221 66q32 0 116 -35q85 -35 116 -35q44 0 74 30q31 29 29 29q13 0 13 -34q0 -68 -178 -283q-179 -214 -179 -295q0 -69 66 -69t155 98q47 53 163 217q109 152 171 216q96 98 176 98
q38 0 57 -5zM741 759q-20 -9 -19 -9q-2 0 -2 3q0 12 36 33q38 23 69 23q25 0 59 -16q33 -17 52 -17q30 0 54 19q21 17 20 17q4 -2 4 -5q0 -13 -28 -42q-34 -36 -74 -36q-22 0 -61 19t-65 19q-24 0 -45 -8z" />
    <glyph glyph-name="utilde" unicode="&#x169;" 
d="M495 260q8 0 8 -28q0 -20 -32 -62q-130 -170 -248 -170q-68 0 -68 59q-71 -59 -130 -59q-68 0 -68 58q0 22 15 48l113 197q7 14 7 23t-7 16q-7 6 -7 7q0 4 5 7q19 12 46 12q50 0 50 -35q0 -15 -12 -36q-73 -120 -115 -202q-5 -9 -5 -18q0 -19 23 -19q74 0 173 176
q47 83 47 92t-7 16q-7 6 -7 7q0 4 5 7q19 12 46 12q50 0 50 -35q0 -15 -12 -36q-73 -120 -115 -202q-5 -9 -5 -18q0 -19 23 -19q80 0 210 180zM135 461q-20 -9 -19 -9q-2 0 -2 3q0 12 36 33q38 23 69 23q25 0 59 -16q33 -17 52 -17q30 0 54 19q21 17 20 17q4 -2 4 -5
q0 -13 -28 -42q-34 -36 -74 -36q-22 0 -61 19t-65 19q-24 0 -45 -8z" />
    <glyph glyph-name="Ydieresis" unicode="&#x178;" horiz-adv-x="743" 
d="M879 485q-2 1 -6 1q-12 0 -27 -11q-11 -7 -234 -236q-176 -183 -306 -183q-50 0 -80 30t-30 82q0 109 189 269q197 167 202 191q-78 -22 -114 -20q-30 2 -91 23q-58 19 -88 19q-97 0 -162 -55q-63 -53 -63 -128q0 -33 16 -59q15 -27 36 -27q7 0 3 7q-12 23 3 44t41 21
q19 0 32 -15q14 -14 14 -33q0 -33 -23 -53q-24 -22 -65 -22q-43 0 -75 36q-34 40 -34 102q0 96 91 172q93 78 216 78q47 0 124 -28q76 -28 112 -28q66 0 106 39q6 0 6 -16q0 -39 -25 -68q-33 -40 -102 -110q-93 -94 -114 -118q-131 -140 -131 -207q0 -46 60 -46
q104 0 303 222q102 114 147 153q80 69 139 69q37 0 67 -34q-170 -133 -400 -566q84 -40 84 -110q0 -30 -20 -53q-21 -23 -50 -23q-35 0 -52 17q-6 6 -8 12q-2 5 1 5q16 -4 31 8q19 14 19 42q0 33 -34 47q-174 -246 -405 -246q-157 0 -157 113q0 83 119 152q121 71 276 71
q49 0 115 -11q248 380 344 481zM499 -46q-33 12 -75 12q-129 0 -235 -57q-104 -56 -104 -122q0 -56 87 -56q172 0 327 223zM813 792q-18 -21 -40 -21q-29 0 -29 27q0 24 18 43q19 19 43 19q25 0 25 -27q0 -22 -17 -41zM931 792q-18 -21 -40 -21q-29 0 -29 27q0 24 18 43
q19 19 43 19q25 0 25 -27q0 -22 -17 -41z" />
    <glyph glyph-name="Zcaron" unicode="&#x17d;" horiz-adv-x="980" 
d="M268 40q141 -30 170 -30q136 0 213 54q24 16 40 37q14 17 13 17q11 0 11 -27q0 -40 -65 -92q-76 -60 -168 -60q-73 0 -157 30q-83 29 -104 29q-81 -47 -150 -47q-100 0 -100 44q0 33 58 51q49 15 119 15q18 0 74 -9q93 90 171 205q-20 4 -44 4q-43 0 -61 -20q-2 -5 -6 -5
t-4 13q0 61 89 61l61 -1q133 197 253 277q-41 -10 -87 -10q-48 0 -136 29t-141 29q-88 0 -159 -75q-69 -73 -69 -163q0 -32 14 -57q11 -21 23 -25l5 -2q6 0 4 5q-10 23 5 44q15 20 43 20q22 0 37 -16t15 -38q0 -30 -24 -50q-23 -19 -54 -19q-61 0 -95 46q-29 40 -29 104
q0 107 103 201q107 98 240 98q56 0 139 -37q83 -38 114 -38h1q89 1 152 54q14 0 14 -38q0 -19 -86 -106q-116 -116 -198 -243h37q29 0 50 11q21 10 18 10q2 0 2 -12q0 -62 -101 -62l-46 1q-111 -152 -202 -208zM874 858q11 0 11 -11q0 -1 -98 -57q-36 -21 -72 -53
q-27 -25 -33 -25q-12 0 -19 29q-10 42 -31 75q-7 11 -21 28q-12 15 -12 16q0 3 8 3q83 -2 106 -75q100 70 161 70z" />
    <glyph glyph-name="zcaron" unicode="&#x17e;" horiz-adv-x="278" 
d="M439 542q11 0 11 -9q0 -7 -17 -10q-84 -16 -149 -81q-9 -9 -13 -9q-10 0 -8 14q11 55 -7 82q-9 13 -25 20q-13 6 -13 11q0 6 10 6q49 0 77 -27t24 -27q62 30 110 30zM281 226q-54 -71 -117 -111q29 -21 39 -61q10 -44 -11 -87q49 -14 49 -60q0 -26 -17 -43
q-16 -17 -35 -17q-25 0 -31 16q26 6 26 33q0 18 -15 24q-45 -84 -143 -157q-99 -74 -171 -74q-83 0 -83 63q0 91 129 163q114 64 218 64q40 79 5 104q-61 -35 -94 -35q-35 0 -35 28q0 20 30 37q29 17 61 19q20 1 37 -2q93 65 145 155q2 4 0 4q-1 0 -3 -2q-96 -96 -196 -96
q-51 0 -51 53q0 45 32 95q34 53 71 53q21 0 21 -32q0 -56 -63 -119l-3 -4q50 0 148 67q98 66 90 66q25 0 25 -18q0 -50 -58 -126zM8 -174q85 89 85 115h-7q-70 0 -170 -60q-107 -64 -107 -122q0 -33 43 -33q62 0 156 100z" />
    <glyph glyph-name="florin" unicode="&#x192;" horiz-adv-x="340" 
d="M-210 -78q0 -8 -4 -16t-4 -6q0 10 -12 10q-22 0 -22 -22q0 -30 43 -30q84 0 198 171q37 55 102 168q76 130 107 180l-54 1q-16 0 -27 -8t-10 -8q-8 0 7 26t39 26l67 -3q177 273 327 273q49 0 77 -24q26 -23 26 -58q0 -23 -18 -42q-19 -18 -42 -18q-40 0 -40 39
q0 16 12 29q12 12 28 12q8 0 8 4q0 20 -41 20q-98 0 -244 -235q61 -3 65 -2q30 0 30 6q4 0 -7 -17q-19 -26 -46 -25l-64 1q-183 -304 -229 -365q-142 -186 -274 -186q-41 0 -68 21q-30 23 -30 62q0 56 57 56q43 0 43 -40z" />
    <glyph glyph-name="Ohorn" unicode="&#x1a0;" horiz-adv-x="695" 
d="M529 616q-67 -44 -114 -120q-43 -70 -43 -119q0 -25 21 -25q48 0 94 75q46 74 46 149q0 23 -4 40zM750 585q4 -22 4 -47q0 -224 -164 -404q-172 -191 -411 -191q-178 0 -178 176q0 110 106 254q97 132 204 195q27 15 55 15q11 0 11 -4q0 -3 -7 -9q-94 -77 -179 -209
q-97 -149 -97 -248q0 -115 102 -115q161 0 328 184q167 185 167 368q0 44 -18 72q-20 30 -53 30q-15 0 -31 -5t-11 -5q8 -19 8 -53q0 -101 -58 -192q-63 -97 -144 -97q-27 0 -44 20q-19 21 -19 56q0 73 55 156t136 132q-42 70 -132 70q-43 0 -73 -21q-26 -19 -26 -40
q0 -27 26 -27q3 0 6 2l5 2q7 0 7 -15q0 -17 -15 -29q-16 -14 -41 -14q-28 0 -48 18q-20 19 -20 47q0 49 45 86q51 42 135 42q118 0 176 -96q21 12 63 12q59 0 96 -44q5 -6 10 -13q12 0 28 -8q24 -13 35 -9q26 8 17 36q-11 36 -59 27q3 33 22 34q52 5 69 -52q9 -27 1 -57
q-9 -37 -39 -46q-20 -6 -43 11q-4 3 -7 5z" />
    <glyph glyph-name="ohorn" unicode="&#x1a1;" horiz-adv-x="332" 
d="M158 150q0 21 15 37q15 15 35 15q24 0 37 -12q44 59 44 109q0 36 -37 36q-51 0 -118 -87q-68 -86 -68 -153q0 -42 41 -42q34 0 80 52q-29 17 -29 45zM327 297q-5 -56 -66 -152q54 -14 139 106q3 4 7 4q8 0 8 -27q0 -16 -12 -32q-82 -106 -179 -101q-82 -93 -160 -93
q-81 0 -81 81q0 86 88 184q92 103 185 103q29 0 46 -10q11 -1 24 -8q24 -13 35 -9q26 8 17 36q-11 36 -59 27q3 33 22 34q52 5 69 -52q9 -27 1 -57q-9 -37 -39 -46q-20 -6 -43 11q-1 1 -2 1z" />
    <glyph glyph-name="Uhorn" unicode="&#x1af;" horiz-adv-x="879" 
d="M1064 595q-94 -104 -199 -279q-136 -226 -136 -340q0 -60 34 -94q33 -31 85 -31q16 0 40 7l22 7q2 0 2 -2q0 -23 -35 -45q-37 -23 -84 -23q-70 0 -114 42q-46 42 -46 113q0 100 128 316q117 197 219 301q2 2 2 3q-1 7 -6 7l-5 -1q-61 -31 -279 -348q-192 -278 -344 -278
q-65 0 -103 37q-35 33 -35 81q0 123 172 303q193 200 206 239q-50 -24 -102 -24q-31 0 -97 32t-125 32q-80 0 -142 -51q-64 -54 -64 -128q0 -63 35 -88q2 -2 6 -2q5 0 3 6q-3 8 -3 16q0 18 15 32t36 14t36 -15q15 -16 15 -37q0 -30 -22 -52q-23 -22 -53 -22q-47 0 -80 37
q-39 42 -39 119q0 102 90 170q89 66 221 66q32 0 116 -35q85 -35 116 -35q44 0 74 30q31 29 29 29q13 0 13 -34q0 -68 -178 -283q-179 -214 -179 -295q0 -69 66 -69t155 98q47 53 163 217q109 152 171 216q96 98 176 98q38 0 57 -5q7 -1 7 -6q0 -1 -5 -8q19 -9 28 -6
q26 8 17 36q-11 36 -59 27q3 33 22 34q52 5 69 -52q9 -27 1 -57q-9 -37 -39 -46q-20 -6 -43 11q-19 14 -31 15z" />
    <glyph glyph-name="uhorn" unicode="&#x1b0;" 
d="M362 292q-71 -117 -112 -197q-5 -9 -5 -18q0 -19 23 -19q80 0 210 180l17 22q8 0 8 -28q0 -20 -32 -62q-130 -170 -248 -170q-68 0 -68 59q-71 -59 -130 -59q-68 0 -68 58q0 22 15 48l113 197q7 14 7 23t-7 16q-7 6 -7 7q0 4 5 7q19 12 46 12q50 0 50 -35q0 -15 -12 -36
q-73 -120 -115 -202q-5 -9 -5 -18q0 -19 23 -19q74 0 173 176q47 83 47 92t-7 16q-7 6 -7 7q0 4 5 7q19 12 46 12q42 0 49 -25q8 -2 13 0q26 8 17 36q-11 36 -59 27q3 33 22 34q52 5 69 -52q9 -27 1 -57q-9 -37 -39 -46q-18 -5 -38 7z" />
    <glyph glyph-name="circumflex" unicode="&#x2c6;" horiz-adv-x="833" 
d="M167 501q-10 0 -10 9q0 -8 99 58q90 61 80 61q-12 0 44 -91q26 -40 26 -39q0 -3 -4 -3q-73 2 -94 66q-87 -61 -141 -61z" />
    <glyph glyph-name="caron" unicode="&#x2c7;" horiz-adv-x="833" 
d="M480 686q11 0 11 -11q0 -1 -98 -57q-36 -21 -72 -53q-27 -25 -33 -25q-12 0 -19 29q-10 42 -31 75q-7 11 -21 28q-12 15 -12 16q0 3 8 3q83 -2 106 -75q100 70 161 70z" />
    <glyph glyph-name="breve" unicode="&#x2d8;" horiz-adv-x="401" 
d="M98 785q-7 59 20.5 66t35.5 -48q8 -43 65 -29q39 6 105 64q4 3 6 3q6 0 6 -15q0 -4 -1 -8q-10 -27 -49 -58q-49 -38 -100 -38q-82 0 -88 63z" />
    <glyph glyph-name="dotaccent" unicode="&#x2d9;" horiz-adv-x="833" 
d="M239 460q-21 -22 -46 -22q-34 0 -34 31q0 26 22 48q21 22 48 22q30 0 30 -33q0 -25 -20 -46z" />
    <glyph glyph-name="ring" unicode="&#x2da;" horiz-adv-x="833" 
d="M311 639q35 23 68 23q34 0 45 -23t-6 -57q-40 -79 -121 -79q-33 0 -44 23t6 56q17 34 52 57zM288 549q7 -14 26 -14q48 0 72 47q10 20 3 34t-27 14q-47 0 -71 -48q-10 -19 -3 -33z" />
    <glyph glyph-name="ogonek" unicode="&#x2db;" horiz-adv-x="833" 
 />
    <glyph glyph-name="tilde" unicode="&#x2dc;" horiz-adv-x="833" 
d="M184 565q-20 -9 -19 -9q-2 0 -2 3q0 12 36 33q38 23 69 23q25 0 59 -16q33 -17 52 -17q30 0 54 19q21 17 20 17q4 -2 4 -5q0 -13 -28 -42q-34 -36 -74 -36q-22 0 -61 19t-65 19q-24 0 -45 -8z" />
    <glyph glyph-name="gravecomb" unicode="&#x300;" horiz-adv-x="833" 
d="M194 544q-1 0 27 -56q10 -20 30 -47l18 -24q0 -7 -9 -7q-22 0 -68 41q-51 45 -51 82q0 29 25 29q16 0 28 -18z" />
    <glyph glyph-name="acutecomb" unicode="&#x301;" horiz-adv-x="833" 
d="M326 536q0 -37 -66 -72q-58 -30 -98 -30q-13 0 -13 10l31 19q34 21 55 42q57 57 64 57q27 0 27 -26z" />
    <glyph glyph-name="tildecomb" unicode="&#x303;" horiz-adv-x="833" 
d="M184 565q-20 -9 -19 -9q-2 0 -2 3q0 12 36 33q38 23 69 23q25 0 59 -16q33 -17 52 -17q30 0 54 19q21 17 20 17q4 -2 4 -5q0 -13 -28 -42q-34 -36 -74 -36q-22 0 -61 19t-65 19q-24 0 -45 -8z" />
    <glyph glyph-name="hookabovecomb" unicode="&#x309;" horiz-adv-x="316" 
d="M160 916q8 4 29 4q44 0 44 -36q0 -29 -42 -60q-39 -28 -73 -28q-23 0 -29 15q-1 3 -1 6q0 8 10 5h8q24 0 49 15t25 36q0 16 -17 16q-6 0 -17 -5q-13 -6 -17 -6q-13 0 -13 9q0 2 1 3q19 16 31 21z" />
    <glyph glyph-name="uni031B" unicode="&#x31b;" horiz-adv-x="0" 
 />
    <glyph glyph-name="dotbelowcomb" unicode="&#x323;" horiz-adv-x="204" 
d="M127 -125q-18 -21 -40 -21q-29 0 -29 27q0 24 18 43q19 19 43 19q25 0 25 -27q0 -22 -17 -41z" />
    <glyph glyph-name="uni1EA0" unicode="&#x1ea0;" horiz-adv-x="937" 
d="M547 22q0 88 124 272q-30 2 -65 8l-57 9q-121 -207 -178 -274q-110 -128 -234 -128q-53 0 -89 24q-42 27 -42 76q0 38 20 62q20 23 50 23q53 0 53 -50q0 -49 -40 -49q-10 0 -16 3q-6 2 -6 -6q0 -10 14 -19q18 -12 48 -12q104 0 199 110q53 61 161 245q-18 1 -62 1
q-33 0 -56 -16q-24 -16 -24 -38q0 -14 11 -23q12 -8 28 0q4 5 5 -4q0 -10 -7 -22q-18 -25 -45 -26q-23 -2 -43 11q-30 21 -30 55q0 115 167 115q48 0 85 -4q97 163 176 237q110 105 241 105q67 0 111 -43q44 -42 44 -104q0 -105 -82 -176q-88 -76 -247 -90
q-115 -198 -115 -254q0 -40 39 -40q43 0 130 84q4 4 7 4q7 0 7 -18q0 -6 -1 -10q-12 -33 -60 -71q-59 -46 -121 -46q-100 0 -100 79zM710 349q157 214 230 214q8 0 8 -3q0 -2 -6 -8q-56 -58 -146 -200q102 12 170 68q72 58 72 140q0 41 -26 67q-28 28 -78 28
q-108 0 -202 -89q-69 -65 -154 -207q106 -9 132 -10zM441 -151q-18 -21 -40 -21q-29 0 -29 27q0 24 18 43q19 19 43 19q25 0 25 -27q0 -22 -17 -41z" />
    <glyph glyph-name="uni1EA1" unicode="&#x1ea1;" 
d="M503 254q8 0 8 -34q0 -15 -32 -56q-124 -164 -248 -164q-64 0 -64 53q-57 -52 -112 -52q-39 0 -60 25q-19 22 -19 56q0 87 87 185q92 103 186 103q47 0 65 -37q29 37 66 37q49 0 49 -23q0 2 -14 -7q-19 -13 -40 -47q-39 -62 -100 -171q-16 -29 -16 -44q0 -21 19 -21
q83 0 222 195q1 2 3 2zM98 64q19 0 48 18q38 24 60 65l74 130q5 10 5 18q0 39 -40 39q-49 0 -117 -86q-66 -84 -66 -136q0 -48 36 -48zM89 -125q-18 -21 -40 -21q-29 0 -29 27q0 24 18 43q19 19 43 19q25 0 25 -27q0 -22 -17 -41z" />
    <glyph glyph-name="uni1EA2" unicode="&#x1ea2;" horiz-adv-x="937" 
d="M547 22q0 88 124 272q-30 2 -65 8l-57 9q-121 -207 -178 -274q-110 -128 -234 -128q-53 0 -89 24q-42 27 -42 76q0 38 20 62q20 23 50 23q53 0 53 -50q0 -49 -40 -49q-10 0 -16 3q-6 2 -6 -6q0 -10 14 -19q18 -12 48 -12q104 0 199 110q53 61 161 245q-18 1 -62 1
q-33 0 -56 -16q-24 -16 -24 -38q0 -14 11 -23q12 -8 28 0q4 5 5 -4q0 -10 -7 -22q-18 -25 -45 -26q-23 -2 -43 11q-30 21 -30 55q0 115 167 115q48 0 85 -4q97 163 176 237q110 105 241 105q67 0 111 -43q44 -42 44 -104q0 -105 -82 -176q-88 -76 -247 -90
q-115 -198 -115 -254q0 -40 39 -40q43 0 130 84q4 4 7 4q7 0 7 -18q0 -6 -1 -10q-12 -33 -60 -71q-59 -46 -121 -46q-100 0 -100 79zM710 349q157 214 230 214q8 0 8 -3q0 -2 -6 -8q-56 -58 -146 -200q102 12 170 68q72 58 72 140q0 41 -26 67q-28 28 -78 28
q-108 0 -202 -89q-69 -65 -154 -207q106 -9 132 -10zM1030 888q8 4 29 4q44 0 44 -36q0 -29 -42 -60q-39 -28 -73 -28q-23 0 -29 15q-1 3 -1 6q0 8 10 5h8q24 0 49 15t25 36q0 16 -17 16q-6 0 -17 -5q-13 -6 -17 -6q-13 0 -13 9q0 2 1 3q19 16 31 21z" />
    <glyph glyph-name="uni1EA3" unicode="&#x1ea3;" 
d="M503 254q8 0 8 -34q0 -15 -32 -56q-124 -164 -248 -164q-64 0 -64 53q-57 -52 -112 -52q-39 0 -60 25q-19 22 -19 56q0 87 87 185q92 103 186 103q47 0 65 -37q29 37 66 37q49 0 49 -23q0 2 -14 -7q-19 -13 -40 -47q-39 -62 -100 -171q-16 -29 -16 -44q0 -21 19 -21
q83 0 222 195q1 2 3 2zM98 64q19 0 48 18q38 24 60 65l74 130q5 10 5 18q0 39 -40 39q-49 0 -117 -86q-66 -84 -66 -136q0 -48 36 -48zM355 546q8 4 29 4q44 0 44 -36q0 -29 -42 -60q-39 -28 -73 -28q-23 0 -29 15q-1 3 -1 6q0 8 10 5h8q24 0 49 15t25 36q0 16 -17 16
q-6 0 -17 -5q-13 -6 -17 -6q-13 0 -13 9q0 2 1 3q19 16 31 21z" />
    <glyph glyph-name="uni1EA4" unicode="&#x1ea4;" horiz-adv-x="937" 
d="M547 22q0 88 124 272q-30 2 -65 8l-57 9q-121 -207 -178 -274q-110 -128 -234 -128q-53 0 -89 24q-42 27 -42 76q0 38 20 62q20 23 50 23q53 0 53 -50q0 -49 -40 -49q-10 0 -16 3q-6 2 -6 -6q0 -10 14 -19q18 -12 48 -12q104 0 199 110q53 61 161 245q-18 1 -62 1
q-33 0 -56 -16q-24 -16 -24 -38q0 -14 11 -23q12 -8 28 0q4 5 5 -4q0 -10 -7 -22q-18 -25 -45 -26q-23 -2 -43 11q-30 21 -30 55q0 115 167 115q48 0 85 -4q97 163 176 237q110 105 241 105q67 0 111 -43q44 -42 44 -104q0 -105 -82 -176q-88 -76 -247 -90
q-115 -198 -115 -254q0 -40 39 -40q43 0 130 84q4 4 7 4q7 0 7 -18q0 -6 -1 -10q-12 -33 -60 -71q-59 -46 -121 -46q-100 0 -100 79zM710 349q157 214 230 214q8 0 8 -3q0 -2 -6 -8q-56 -58 -146 -200q102 12 170 68q72 58 72 140q0 41 -26 67q-28 28 -78 28
q-108 0 -202 -89q-69 -65 -154 -207q106 -9 132 -10zM849 740q-10 0 -10 9q0 -8 99 58q90 61 80 61q-12 0 44 -91q26 -40 26 -39q0 -3 -4 -3q-73 2 -94 66q-87 -61 -141 -61zM1260 941q0 -37 -66 -72q-58 -30 -98 -30q-13 0 -13 10l31 19q34 21 55 42q57 57 64 57
q27 0 27 -26z" />
    <glyph glyph-name="uni1EA5" unicode="&#x1ea5;" 
d="M503 254q8 0 8 -34q0 -15 -32 -56q-124 -164 -248 -164q-64 0 -64 53q-57 -52 -112 -52q-39 0 -60 25q-19 22 -19 56q0 87 87 185q92 103 186 103q47 0 65 -37q29 37 66 37q49 0 49 -23q0 2 -14 -7q-19 -13 -40 -47q-39 -62 -100 -171q-16 -29 -16 -44q0 -21 19 -21
q83 0 222 195q1 2 3 2zM98 64q19 0 48 18q38 24 60 65l74 130q5 10 5 18q0 39 -40 39q-49 0 -117 -86q-66 -84 -66 -136q0 -48 36 -48zM191 404q-10 0 -10 9q0 -8 99 58q90 61 80 61q-12 0 44 -91q26 -40 26 -39q0 -3 -4 -3q-73 2 -94 66q-87 -61 -141 -61zM599 599
q0 -37 -66 -72q-58 -30 -98 -30q-13 0 -13 10l31 19q34 21 55 42q57 57 64 57q27 0 27 -26z" />
    <glyph glyph-name="uni1EA6" unicode="&#x1ea6;" horiz-adv-x="937" 
d="M547 22q0 88 124 272q-30 2 -65 8l-57 9q-121 -207 -178 -274q-110 -128 -234 -128q-53 0 -89 24q-42 27 -42 76q0 38 20 62q20 23 50 23q53 0 53 -50q0 -49 -40 -49q-10 0 -16 3q-6 2 -6 -6q0 -10 14 -19q18 -12 48 -12q104 0 199 110q53 61 161 245q-18 1 -62 1
q-33 0 -56 -16q-24 -16 -24 -38q0 -14 11 -23q12 -8 28 0q4 5 5 -4q0 -10 -7 -22q-18 -25 -45 -26q-23 -2 -43 11q-30 21 -30 55q0 115 167 115q48 0 85 -4q97 163 176 237q110 105 241 105q67 0 111 -43q44 -42 44 -104q0 -105 -82 -176q-88 -76 -247 -90
q-115 -198 -115 -254q0 -40 39 -40q43 0 130 84q4 4 7 4q7 0 7 -18q0 -6 -1 -10q-12 -33 -60 -71q-59 -46 -121 -46q-100 0 -100 79zM710 349q157 214 230 214q8 0 8 -3q0 -2 -6 -8q-56 -58 -146 -200q102 12 170 68q72 58 72 140q0 41 -26 67q-28 28 -78 28
q-108 0 -202 -89q-69 -65 -154 -207q106 -9 132 -10zM849 740q-10 0 -10 9q0 -8 99 58q90 61 80 61q-12 0 44 -91q26 -40 26 -39q0 -3 -4 -3q-73 2 -94 66q-87 -61 -141 -61zM1062 990q-1 0 27 -56q10 -20 30 -47l18 -24q0 -7 -9 -7q-22 0 -68 41q-51 45 -51 82q0 29 25 29
q16 0 28 -18z" />
    <glyph glyph-name="uni1EA7" unicode="&#x1ea7;" 
d="M503 254q8 0 8 -34q0 -15 -32 -56q-124 -164 -248 -164q-64 0 -64 53q-57 -52 -112 -52q-39 0 -60 25q-19 22 -19 56q0 87 87 185q92 103 186 103q47 0 65 -37q29 37 66 37q49 0 49 -23q0 2 -14 -7q-19 -13 -40 -47q-39 -62 -100 -171q-16 -29 -16 -44q0 -21 19 -21
q83 0 222 195q1 2 3 2zM98 64q19 0 48 18q38 24 60 65l74 130q5 10 5 18q0 39 -40 39q-49 0 -117 -86q-66 -84 -66 -136q0 -48 36 -48zM184 409q-10 0 -10 9q0 -8 99 58q90 61 80 61q-12 0 44 -91q26 -40 26 -39q0 -3 -4 -3q-73 2 -94 66q-87 -61 -141 -61zM375 662
q-1 0 27 -56q10 -20 30 -47l18 -24q0 -7 -9 -7q-22 0 -68 41q-51 45 -51 82q0 29 25 29q16 0 28 -18z" />
    <glyph glyph-name="uni1EA8" unicode="&#x1ea8;" horiz-adv-x="937" 
d="M547 22q0 88 124 272q-30 2 -65 8l-57 9q-121 -207 -178 -274q-110 -128 -234 -128q-53 0 -89 24q-42 27 -42 76q0 38 20 62q20 23 50 23q53 0 53 -50q0 -49 -40 -49q-10 0 -16 3q-6 2 -6 -6q0 -10 14 -19q18 -12 48 -12q104 0 199 110q53 61 161 245q-18 1 -62 1
q-33 0 -56 -16q-24 -16 -24 -38q0 -14 11 -23q12 -8 28 0q4 5 5 -4q0 -10 -7 -22q-18 -25 -45 -26q-23 -2 -43 11q-30 21 -30 55q0 115 167 115q48 0 85 -4q97 163 176 237q110 105 241 105q67 0 111 -43q44 -42 44 -104q0 -105 -82 -176q-88 -76 -247 -90
q-115 -198 -115 -254q0 -40 39 -40q43 0 130 84q4 4 7 4q7 0 7 -18q0 -6 -1 -10q-12 -33 -60 -71q-59 -46 -121 -46q-100 0 -100 79zM710 349q157 214 230 214q8 0 8 -3q0 -2 -6 -8q-56 -58 -146 -200q102 12 170 68q72 58 72 140q0 41 -26 67q-28 28 -78 28
q-108 0 -202 -89q-69 -65 -154 -207q106 -9 132 -10zM849 740q-10 0 -10 9q0 -8 99 58q90 61 80 61q-12 0 44 -91q26 -40 26 -39q0 -3 -4 -3q-73 2 -94 66q-87 -61 -141 -61zM1151 949q8 4 29 4q44 0 44 -36q0 -29 -42 -60q-39 -28 -73 -28q-23 0 -29 15q-1 3 -1 6q0 8 10 5
h8q24 0 49 15t25 36q0 16 -17 16q-6 0 -17 -5q-13 -6 -17 -6q-13 0 -13 9q0 2 1 3q19 16 31 21z" />
    <glyph glyph-name="uni1EA9" unicode="&#x1ea9;" 
d="M503 254q8 0 8 -34q0 -15 -32 -56q-124 -164 -248 -164q-64 0 -64 53q-57 -52 -112 -52q-39 0 -60 25q-19 22 -19 56q0 87 87 185q92 103 186 103q47 0 65 -37q29 37 66 37q49 0 49 -23q0 2 -14 -7q-19 -13 -40 -47q-39 -62 -100 -171q-16 -29 -16 -44q0 -21 19 -21
q83 0 222 195q1 2 3 2zM98 64q19 0 48 18q38 24 60 65l74 130q5 10 5 18q0 39 -40 39q-49 0 -117 -86q-66 -84 -66 -136q0 -48 36 -48zM167 404q-10 0 -10 9q0 -8 99 58q90 61 80 61q-12 0 44 -91q26 -40 26 -39q0 -3 -4 -3q-73 2 -94 66q-87 -61 -141 -61zM471 599
q8 4 29 4q44 0 44 -36q0 -29 -42 -60q-39 -28 -73 -28q-23 0 -29 15q-1 3 -1 6q0 8 10 5h8q24 0 49 15t25 36q0 16 -17 16q-6 0 -17 -5q-13 -6 -17 -6q-13 0 -13 9q0 2 1 3q19 16 31 21z" />
    <glyph glyph-name="uni1EAA" unicode="&#x1eaa;" horiz-adv-x="937" 
d="M547 22q0 88 124 272q-30 2 -65 8l-57 9q-121 -207 -178 -274q-110 -128 -234 -128q-53 0 -89 24q-42 27 -42 76q0 38 20 62q20 23 50 23q53 0 53 -50q0 -49 -40 -49q-10 0 -16 3q-6 2 -6 -6q0 -10 14 -19q18 -12 48 -12q104 0 199 110q53 61 161 245q-18 1 -62 1
q-33 0 -56 -16q-24 -16 -24 -38q0 -14 11 -23q12 -8 28 0q4 5 5 -4q0 -10 -7 -22q-18 -25 -45 -26q-23 -2 -43 11q-30 21 -30 55q0 115 167 115q48 0 85 -4q97 163 176 237q110 105 241 105q67 0 111 -43q44 -42 44 -104q0 -105 -82 -176q-88 -76 -247 -90
q-115 -198 -115 -254q0 -40 39 -40q43 0 130 84q4 4 7 4q7 0 7 -18q0 -6 -1 -10q-12 -33 -60 -71q-59 -46 -121 -46q-100 0 -100 79zM710 349q157 214 230 214q8 0 8 -3q0 -2 -6 -8q-56 -58 -146 -200q102 12 170 68q72 58 72 140q0 41 -26 67q-28 28 -78 28
q-108 0 -202 -89q-69 -65 -154 -207q106 -9 132 -10zM849 740q-10 0 -10 9q0 -8 99 58q90 61 80 61q-12 0 44 -91q26 -40 26 -39q0 -3 -4 -3q-73 2 -94 66q-87 -61 -141 -61zM993 906q-20 -9 -19 -9q-2 0 -2 3q0 12 36 33q38 23 69 23q25 0 59 -16q33 -17 52 -17q30 0 54 19
q21 17 20 17q4 -2 4 -5q0 -13 -28 -42q-34 -36 -74 -36q-22 0 -61 19t-65 19q-24 0 -45 -8z" />
    <glyph glyph-name="uni1EAB" unicode="&#x1eab;" 
d="M503 254q8 0 8 -34q0 -15 -32 -56q-124 -164 -248 -164q-64 0 -64 53q-57 -52 -112 -52q-39 0 -60 25q-19 22 -19 56q0 87 87 185q92 103 186 103q47 0 65 -37q29 37 66 37q49 0 49 -23q0 2 -14 -7q-19 -13 -40 -47q-39 -62 -100 -171q-16 -29 -16 -44q0 -21 19 -21
q83 0 222 195q1 2 3 2zM98 64q19 0 48 18q38 24 60 65l74 130q5 10 5 18q0 39 -40 39q-49 0 -117 -86q-66 -84 -66 -136q0 -48 36 -48zM170 416q-10 0 -10 9q0 -8 99 58q90 61 80 61q-12 0 44 -91q26 -40 26 -39q0 -3 -4 -3q-73 2 -94 66q-87 -61 -141 -61zM416 511
q-20 -9 -19 -9q-2 0 -2 3q0 12 36 33q38 23 69 23q25 0 59 -16q33 -17 52 -17q30 0 54 19q21 17 20 17q4 -2 4 -5q0 -13 -28 -42q-34 -36 -74 -36q-22 0 -61 19t-65 19q-24 0 -45 -8z" />
    <glyph glyph-name="uni1EAC" unicode="&#x1eac;" horiz-adv-x="937" 
d="M547 22q0 88 124 272q-30 2 -65 8l-57 9q-121 -207 -178 -274q-110 -128 -234 -128q-53 0 -89 24q-42 27 -42 76q0 38 20 62q20 23 50 23q53 0 53 -50q0 -49 -40 -49q-10 0 -16 3q-6 2 -6 -6q0 -10 14 -19q18 -12 48 -12q104 0 199 110q53 61 161 245q-18 1 -62 1
q-33 0 -56 -16q-24 -16 -24 -38q0 -14 11 -23q12 -8 28 0q4 5 5 -4q0 -10 -7 -22q-18 -25 -45 -26q-23 -2 -43 11q-30 21 -30 55q0 115 167 115q48 0 85 -4q97 163 176 237q110 105 241 105q67 0 111 -43q44 -42 44 -104q0 -105 -82 -176q-88 -76 -247 -90
q-115 -198 -115 -254q0 -40 39 -40q43 0 130 84q4 4 7 4q7 0 7 -18q0 -6 -1 -10q-12 -33 -60 -71q-59 -46 -121 -46q-100 0 -100 79zM710 349q157 214 230 214q8 0 8 -3q0 -2 -6 -8q-56 -58 -146 -200q102 12 170 68q72 58 72 140q0 41 -26 67q-28 28 -78 28
q-108 0 -202 -89q-69 -65 -154 -207q106 -9 132 -10zM849 740q-10 0 -10 9q0 -8 99 58q90 61 80 61q-12 0 44 -91q26 -40 26 -39q0 -3 -4 -3q-73 2 -94 66q-87 -61 -141 -61zM420 -125q-18 -21 -40 -21q-29 0 -29 27q0 24 18 43q19 19 43 19q25 0 25 -27q0 -22 -17 -41z" />
    <glyph glyph-name="uni1EAD" unicode="&#x1ead;" 
d="M503 254q8 0 8 -34q0 -15 -32 -56q-124 -164 -248 -164q-64 0 -64 53q-57 -52 -112 -52q-39 0 -60 25q-19 22 -19 56q0 87 87 185q92 103 186 103q47 0 65 -37q29 37 66 37q49 0 49 -23q0 2 -14 -7q-19 -13 -40 -47q-39 -62 -100 -171q-16 -29 -16 -44q0 -21 19 -21
q83 0 222 195q1 2 3 2zM98 64q19 0 48 18q38 24 60 65l74 130q5 10 5 18q0 39 -40 39q-49 0 -117 -86q-66 -84 -66 -136q0 -48 36 -48zM188 413q-10 0 -10 9q0 -8 99 58q90 61 80 61q-12 0 44 -91q26 -40 26 -39q0 -3 -4 -3q-73 2 -94 66q-87 -61 -141 -61zM65 -125
q-18 -21 -40 -21q-29 0 -29 27q0 24 18 43q19 19 43 19q25 0 25 -27q0 -22 -17 -41z" />
    <glyph glyph-name="uni1EAE" unicode="&#x1eae;" horiz-adv-x="937" 
d="M547 22q0 88 124 272q-30 2 -65 8l-57 9q-121 -207 -178 -274q-110 -128 -234 -128q-53 0 -89 24q-42 27 -42 76q0 38 20 62q20 23 50 23q53 0 53 -50q0 -49 -40 -49q-10 0 -16 3q-6 2 -6 -6q0 -10 14 -19q18 -12 48 -12q104 0 199 110q53 61 161 245q-18 1 -62 1
q-33 0 -56 -16q-24 -16 -24 -38q0 -14 11 -23q12 -8 28 0q4 5 5 -4q0 -10 -7 -22q-18 -25 -45 -26q-23 -2 -43 11q-30 21 -30 55q0 115 167 115q48 0 85 -4q97 163 176 237q110 105 241 105q67 0 111 -43q44 -42 44 -104q0 -105 -82 -176q-88 -76 -247 -90
q-115 -198 -115 -254q0 -40 39 -40q43 0 130 84q4 4 7 4q7 0 7 -18q0 -6 -1 -10q-12 -33 -60 -71q-59 -46 -121 -46q-100 0 -100 79zM710 349q157 214 230 214q8 0 8 -3q0 -2 -6 -8q-56 -58 -146 -200q102 12 170 68q72 58 72 140q0 41 -26 67q-28 28 -78 28
q-108 0 -202 -89q-69 -65 -154 -207q106 -9 132 -10zM926 814q-7 59 20.5 66t35.5 -48q8 -43 65 -29q39 6 105 64q4 3 6 3q6 0 6 -15q0 -4 -1 -8q-10 -27 -49 -58q-49 -38 -100 -38q-82 0 -88 63zM1208 977q0 -37 -66 -72q-58 -30 -98 -30q-13 0 -13 10l31 19q34 21 55 42
q57 57 64 57q27 0 27 -26z" />
    <glyph glyph-name="uni1EAF" unicode="&#x1eaf;" 
d="M503 254q8 0 8 -34q0 -15 -32 -56q-124 -164 -248 -164q-64 0 -64 53q-57 -52 -112 -52q-39 0 -60 25q-19 22 -19 56q0 87 87 185q92 103 186 103q47 0 65 -37q29 37 66 37q49 0 49 -23q0 2 -14 -7q-19 -13 -40 -47q-39 -62 -100 -171q-16 -29 -16 -44q0 -21 19 -21
q83 0 222 195q1 2 3 2zM98 64q19 0 48 18q38 24 60 65l74 130q5 10 5 18q0 39 -40 39q-49 0 -117 -86q-66 -84 -66 -136q0 -48 36 -48zM230 479q-7 59 20.5 66t35.5 -48q8 -43 65 -29q39 6 105 64q4 3 6 3q6 0 6 -15q0 -4 -1 -8q-10 -27 -49 -58q-49 -38 -100 -38
q-82 0 -88 63zM523 663q0 -37 -66 -72q-58 -30 -98 -30q-13 0 -13 10l31 19q34 21 55 42q57 57 64 57q27 0 27 -26z" />
    <glyph glyph-name="uni1EB0" unicode="&#x1eb0;" horiz-adv-x="937" 
d="M547 22q0 88 124 272q-30 2 -65 8l-57 9q-121 -207 -178 -274q-110 -128 -234 -128q-53 0 -89 24q-42 27 -42 76q0 38 20 62q20 23 50 23q53 0 53 -50q0 -49 -40 -49q-10 0 -16 3q-6 2 -6 -6q0 -10 14 -19q18 -12 48 -12q104 0 199 110q53 61 161 245q-18 1 -62 1
q-33 0 -56 -16q-24 -16 -24 -38q0 -14 11 -23q12 -8 28 0q4 5 5 -4q0 -10 -7 -22q-18 -25 -45 -26q-23 -2 -43 11q-30 21 -30 55q0 115 167 115q48 0 85 -4q97 163 176 237q110 105 241 105q67 0 111 -43q44 -42 44 -104q0 -105 -82 -176q-88 -76 -247 -90
q-115 -198 -115 -254q0 -40 39 -40q43 0 130 84q4 4 7 4q7 0 7 -18q0 -6 -1 -10q-12 -33 -60 -71q-59 -46 -121 -46q-100 0 -100 79zM710 349q157 214 230 214q8 0 8 -3q0 -2 -6 -8q-56 -58 -146 -200q102 12 170 68q72 58 72 140q0 41 -26 67q-28 28 -78 28
q-108 0 -202 -89q-69 -65 -154 -207q106 -9 132 -10zM926 814q-7 59 20.5 66t35.5 -48q8 -43 65 -29q39 6 105 64q4 3 6 3q6 0 6 -15q0 -4 -1 -8q-10 -27 -49 -58q-49 -38 -100 -38q-82 0 -88 63zM1010 1011q-1 0 27 -56q10 -20 30 -47l18 -24q0 -7 -9 -7q-22 0 -68 41
q-51 45 -51 82q0 29 25 29q16 0 28 -18z" />
    <glyph glyph-name="uni1EB1" unicode="&#x1eb1;" 
d="M503 254q8 0 8 -34q0 -15 -32 -56q-124 -164 -248 -164q-64 0 -64 53q-57 -52 -112 -52q-39 0 -60 25q-19 22 -19 56q0 87 87 185q92 103 186 103q47 0 65 -37q29 37 66 37q49 0 49 -23q0 2 -14 -7q-19 -13 -40 -47q-39 -62 -100 -171q-16 -29 -16 -44q0 -21 19 -21
q83 0 222 195q1 2 3 2zM98 64q19 0 48 18q38 24 60 65l74 130q5 10 5 18q0 39 -40 39q-49 0 -117 -86q-66 -84 -66 -136q0 -48 36 -48zM230 496q-7 59 20.5 66t35.5 -48q8 -43 65 -29q39 6 105 64q4 3 6 3q6 0 6 -15q0 -4 -1 -8q-10 -27 -49 -58q-49 -38 -100 -38
q-82 0 -88 63zM319 722q-1 0 27 -56q10 -20 30 -47l18 -24q0 -7 -9 -7q-22 0 -68 41q-51 45 -51 82q0 29 25 29q16 0 28 -18z" />
    <glyph glyph-name="uni1EB2" unicode="&#x1eb2;" horiz-adv-x="937" 
d="M547 22q0 88 124 272q-30 2 -65 8l-57 9q-121 -207 -178 -274q-110 -128 -234 -128q-53 0 -89 24q-42 27 -42 76q0 38 20 62q20 23 50 23q53 0 53 -50q0 -49 -40 -49q-10 0 -16 3q-6 2 -6 -6q0 -10 14 -19q18 -12 48 -12q104 0 199 110q53 61 161 245q-18 1 -62 1
q-33 0 -56 -16q-24 -16 -24 -38q0 -14 11 -23q12 -8 28 0q4 5 5 -4q0 -10 -7 -22q-18 -25 -45 -26q-23 -2 -43 11q-30 21 -30 55q0 115 167 115q48 0 85 -4q97 163 176 237q110 105 241 105q67 0 111 -43q44 -42 44 -104q0 -105 -82 -176q-88 -76 -247 -90
q-115 -198 -115 -254q0 -40 39 -40q43 0 130 84q4 4 7 4q7 0 7 -18q0 -6 -1 -10q-12 -33 -60 -71q-59 -46 -121 -46q-100 0 -100 79zM710 349q157 214 230 214q8 0 8 -3q0 -2 -6 -8q-56 -58 -146 -200q102 12 170 68q72 58 72 140q0 41 -26 67q-28 28 -78 28
q-108 0 -202 -89q-69 -65 -154 -207q106 -9 132 -10zM926 814q-7 59 20.5 66t35.5 -48q8 -43 65 -29q39 6 105 64q4 3 6 3q6 0 6 -15q0 -4 -1 -8q-10 -27 -49 -58q-49 -38 -100 -38q-82 0 -88 63zM1089 989q8 4 29 4q44 0 44 -36q0 -29 -42 -60q-39 -28 -73 -28
q-23 0 -29 15q-1 3 -1 6q0 8 10 5h8q24 0 49 15t25 36q0 16 -17 16q-6 0 -17 -5q-13 -6 -17 -6q-13 0 -13 9q0 2 1 3q19 16 31 21z" />
    <glyph glyph-name="uni1EB3" unicode="&#x1eb3;" 
d="M503 254q8 0 8 -34q0 -15 -32 -56q-124 -164 -248 -164q-64 0 -64 53q-57 -52 -112 -52q-39 0 -60 25q-19 22 -19 56q0 87 87 185q92 103 186 103q47 0 65 -37q29 37 66 37q49 0 49 -23q0 2 -14 -7q-19 -13 -40 -47q-39 -62 -100 -171q-16 -29 -16 -44q0 -21 19 -21
q83 0 222 195q1 2 3 2zM98 64q19 0 48 18q38 24 60 65l74 130q5 10 5 18q0 39 -40 39q-49 0 -117 -86q-66 -84 -66 -136q0 -48 36 -48zM233 485q-7 59 20.5 66t35.5 -48q8 -43 65 -29q39 6 105 64q4 3 6 3q6 0 6 -15q0 -4 -1 -8q-10 -27 -49 -58q-49 -38 -100 -38
q-82 0 -88 63zM418 685q8 4 29 4q44 0 44 -36q0 -29 -42 -60q-39 -28 -73 -28q-23 0 -29 15q-1 3 -1 6q0 8 10 5h8q24 0 49 15t25 36q0 16 -17 16q-6 0 -17 -5q-13 -6 -17 -6q-13 0 -13 9q0 2 1 3q19 16 31 21z" />
    <glyph glyph-name="uni1EB4" unicode="&#x1eb4;" horiz-adv-x="937" 
d="M547 22q0 88 124 272q-30 2 -65 8l-57 9q-121 -207 -178 -274q-110 -128 -234 -128q-53 0 -89 24q-42 27 -42 76q0 38 20 62q20 23 50 23q53 0 53 -50q0 -49 -40 -49q-10 0 -16 3q-6 2 -6 -6q0 -10 14 -19q18 -12 48 -12q104 0 199 110q53 61 161 245q-18 1 -62 1
q-33 0 -56 -16q-24 -16 -24 -38q0 -14 11 -23q12 -8 28 0q4 5 5 -4q0 -10 -7 -22q-18 -25 -45 -26q-23 -2 -43 11q-30 21 -30 55q0 115 167 115q48 0 85 -4q97 163 176 237q110 105 241 105q67 0 111 -43q44 -42 44 -104q0 -105 -82 -176q-88 -76 -247 -90
q-115 -198 -115 -254q0 -40 39 -40q43 0 130 84q4 4 7 4q7 0 7 -18q0 -6 -1 -10q-12 -33 -60 -71q-59 -46 -121 -46q-100 0 -100 79zM710 349q157 214 230 214q8 0 8 -3q0 -2 -6 -8q-56 -58 -146 -200q102 12 170 68q72 58 72 140q0 41 -26 67q-28 28 -78 28
q-108 0 -202 -89q-69 -65 -154 -207q106 -9 132 -10zM926 814q-7 59 20.5 66t35.5 -48q8 -43 65 -29q39 6 105 64q4 3 6 3q6 0 6 -15q0 -4 -1 -8q-10 -27 -49 -58q-49 -38 -100 -38q-82 0 -88 63zM1088 906q-20 -9 -19 -9q-2 0 -2 3q0 12 36 33q38 23 69 23q25 0 59 -16
q33 -17 52 -17q30 0 54 19q21 17 20 17q4 -2 4 -5q0 -13 -28 -42q-34 -36 -74 -36q-22 0 -61 19t-65 19q-24 0 -45 -8z" />
    <glyph glyph-name="uni1EB5" unicode="&#x1eb5;" 
d="M503 254q8 0 8 -34q0 -15 -32 -56q-124 -164 -248 -164q-64 0 -64 53q-57 -52 -112 -52q-39 0 -60 25q-19 22 -19 56q0 87 87 185q92 103 186 103q47 0 65 -37q29 37 66 37q49 0 49 -23q0 2 -14 -7q-19 -13 -40 -47q-39 -62 -100 -171q-16 -29 -16 -44q0 -21 19 -21
q83 0 222 195q1 2 3 2zM98 64q19 0 48 18q38 24 60 65l74 130q5 10 5 18q0 39 -40 39q-49 0 -117 -86q-66 -84 -66 -136q0 -48 36 -48zM207 481q-7 59 20.5 66t35.5 -48q8 -43 65 -29q39 6 105 64q4 3 6 3q6 0 6 -15q0 -4 -1 -8q-10 -27 -49 -58q-49 -38 -100 -38
q-82 0 -88 63zM368 576q-20 -9 -19 -9q-2 0 -2 3q0 12 36 33q38 23 69 23q25 0 59 -16q33 -17 52 -17q30 0 54 19q21 17 20 17q4 -2 4 -5q0 -13 -28 -42q-34 -36 -74 -36q-22 0 -61 19t-65 19q-24 0 -45 -8z" />
    <glyph glyph-name="uni1EB6" unicode="&#x1eb6;" horiz-adv-x="937" 
d="M547 22q0 88 124 272q-30 2 -65 8l-57 9q-121 -207 -178 -274q-110 -128 -234 -128q-53 0 -89 24q-42 27 -42 76q0 38 20 62q20 23 50 23q53 0 53 -50q0 -49 -40 -49q-10 0 -16 3q-6 2 -6 -6q0 -10 14 -19q18 -12 48 -12q104 0 199 110q53 61 161 245q-18 1 -62 1
q-33 0 -56 -16q-24 -16 -24 -38q0 -14 11 -23q12 -8 28 0q4 5 5 -4q0 -10 -7 -22q-18 -25 -45 -26q-23 -2 -43 11q-30 21 -30 55q0 115 167 115q48 0 85 -4q97 163 176 237q110 105 241 105q67 0 111 -43q44 -42 44 -104q0 -105 -82 -176q-88 -76 -247 -90
q-115 -198 -115 -254q0 -40 39 -40q43 0 130 84q4 4 7 4q7 0 7 -18q0 -6 -1 -10q-12 -33 -60 -71q-59 -46 -121 -46q-100 0 -100 79zM710 349q157 214 230 214q8 0 8 -3q0 -2 -6 -8q-56 -58 -146 -200q102 12 170 68q72 58 72 140q0 41 -26 67q-28 28 -78 28
q-108 0 -202 -89q-69 -65 -154 -207q106 -9 132 -10zM926 814q-7 59 20.5 66t35.5 -48q8 -43 65 -29q39 6 105 64q4 3 6 3q6 0 6 -15q0 -4 -1 -8q-10 -27 -49 -58q-49 -38 -100 -38q-82 0 -88 63zM420 -125q-18 -21 -40 -21q-29 0 -29 27q0 24 18 43q19 19 43 19
q25 0 25 -27q0 -22 -17 -41z" />
    <glyph glyph-name="uni1EB7" unicode="&#x1eb7;" 
d="M503 254q8 0 8 -34q0 -15 -32 -56q-124 -164 -248 -164q-64 0 -64 53q-57 -52 -112 -52q-39 0 -60 25q-19 22 -19 56q0 87 87 185q92 103 186 103q47 0 65 -37q29 37 66 37q49 0 49 -23q0 2 -14 -7q-19 -13 -40 -47q-39 -62 -100 -171q-16 -29 -16 -44q0 -21 19 -21
q83 0 222 195q1 2 3 2zM98 64q19 0 48 18q38 24 60 65l74 130q5 10 5 18q0 39 -40 39q-49 0 -117 -86q-66 -84 -66 -136q0 -48 36 -48zM218 489q-7 59 20.5 66t35.5 -48q8 -43 65 -29q39 6 105 64q4 3 6 3q6 0 6 -15q0 -4 -1 -8q-10 -27 -49 -58q-49 -38 -100 -38
q-82 0 -88 63zM73 -125q-18 -21 -40 -21q-29 0 -29 27q0 24 18 43q19 19 43 19q25 0 25 -27q0 -22 -17 -41z" />
    <glyph glyph-name="uni1EB8" unicode="&#x1eb8;" horiz-adv-x="700" 
d="M386 165q84 66 171 66q35 0 58 -18q27 -20 27 -57q0 -80 -88 -149q-93 -72 -216 -72h-13q-4 -48 23 -73q20 -19 46 -19q41 0 41 26q0 15 -9 21q-10 7 -10 6q0 6 10 14q11 10 25 11q19 2 36 -9q22 -14 22 -41q0 -31 -28 -57q-32 -29 -79 -29q-61 0 -100 41q-43 45 -44 123
q-96 5 -161 49q-71 49 -71 129q0 91 83 174q79 78 174 96q-45 36 -45 84q0 100 106 170q100 66 226 66q123 0 195 -58q65 -51 65 -127q0 -46 -27 -79t-64 -33q-74 0 -74 59q0 22 13 38q13 17 32 17q5 0 5 -6q0 -19 18 -19q28 1 28 39q0 44 -42 75q-54 39 -157 39
q-94 0 -169 -59q-72 -56 -72 -119q0 -41 25 -66q49 10 112 10q41 0 78 -11q56 -16 56 -48q0 -54 -113 -54q-90 0 -157 49q-74 -21 -124 -75q-59 -62 -59 -145q0 -53 40 -93q37 -37 95 -49q27 95 112 163zM420 130q-75 -57 -90 -139q75 -13 169 45q91 56 91 108q0 36 -39 36
q-65 0 -131 -50zM181 -147q-18 -21 -40 -21q-29 0 -29 27q0 24 18 43q19 19 43 19q25 0 25 -27q0 -22 -17 -41z" />
    <glyph glyph-name="uni1EB9" unicode="&#x1eb9;" horiz-adv-x="285" 
d="M113 55q80 0 178 101q49 50 82 100q3 5 10 -3q7 -9 7 -20q0 -13 -12 -31q-140 -202 -317 -202q-90 0 -90 81q0 86 89 185q92 104 184 104q56 0 56 -56q0 -54 -68 -100q-71 -48 -157 -44q-17 -36 -17 -64q0 -51 55 -51zM211 245q52 35 52 64q0 24 -25 24q-31 0 -78 -45
q-40 -39 -65 -81q59 0 116 38zM45 -125q-18 -21 -40 -21q-29 0 -29 27q0 24 18 43q19 19 43 19q25 0 25 -27q0 -22 -17 -41z" />
    <glyph glyph-name="uni1EBA" unicode="&#x1eba;" horiz-adv-x="700" 
d="M386 165q84 66 171 66q35 0 58 -18q27 -20 27 -57q0 -80 -88 -149q-93 -72 -216 -72h-13q-4 -48 23 -73q20 -19 46 -19q41 0 41 26q0 15 -9 21q-10 7 -10 6q0 6 10 14q11 10 25 11q19 2 36 -9q22 -14 22 -41q0 -31 -28 -57q-32 -29 -79 -29q-61 0 -100 41q-43 45 -44 123
q-96 5 -161 49q-71 49 -71 129q0 91 83 174q79 78 174 96q-45 36 -45 84q0 100 106 170q100 66 226 66q123 0 195 -58q65 -51 65 -127q0 -46 -27 -79t-64 -33q-74 0 -74 59q0 22 13 38q13 17 32 17q5 0 5 -6q0 -19 18 -19q28 1 28 39q0 44 -42 75q-54 39 -157 39
q-94 0 -169 -59q-72 -56 -72 -119q0 -41 25 -66q49 10 112 10q41 0 78 -11q56 -16 56 -48q0 -54 -113 -54q-90 0 -157 49q-74 -21 -124 -75q-59 -62 -59 -145q0 -53 40 -93q37 -37 95 -49q27 95 112 163zM420 130q-75 -57 -90 -139q75 -13 169 45q91 56 91 108q0 36 -39 36
q-65 0 -131 -50zM731 889q8 4 29 4q44 0 44 -36q0 -29 -42 -60q-39 -28 -73 -28q-23 0 -29 15q-1 3 -1 6q0 8 10 5h8q24 0 49 15t25 36q0 16 -17 16q-6 0 -17 -5q-13 -6 -17 -6q-13 0 -13 9q0 2 1 3q19 16 31 21z" />
    <glyph glyph-name="uni1EBB" unicode="&#x1ebb;" horiz-adv-x="285" 
d="M113 55q80 0 178 101q49 50 82 100q3 5 10 -3q7 -9 7 -20q0 -13 -12 -31q-140 -202 -317 -202q-90 0 -90 81q0 86 89 185q92 104 184 104q56 0 56 -56q0 -54 -68 -100q-71 -48 -157 -44q-17 -36 -17 -64q0 -51 55 -51zM211 245q52 35 52 64q0 24 -25 24q-31 0 -78 -45
q-40 -39 -65 -81q59 0 116 38zM292 546q8 4 29 4q44 0 44 -36q0 -29 -42 -60q-39 -28 -73 -28q-23 0 -29 15q-1 3 -1 6q0 8 10 5h8q24 0 49 15t25 36q0 16 -17 16q-6 0 -17 -5q-13 -6 -17 -6q-13 0 -13 9q0 2 1 3q19 16 31 21z" />
    <glyph glyph-name="uni1EBC" unicode="&#x1ebc;" horiz-adv-x="700" 
d="M386 165q84 66 171 66q35 0 58 -18q27 -20 27 -57q0 -80 -88 -149q-93 -72 -216 -72h-13q-4 -48 23 -73q20 -19 46 -19q41 0 41 26q0 15 -9 21q-10 7 -10 6q0 6 10 14q11 10 25 11q19 2 36 -9q22 -14 22 -41q0 -31 -28 -57q-32 -29 -79 -29q-61 0 -100 41q-43 45 -44 123
q-96 5 -161 49q-71 49 -71 129q0 91 83 174q79 78 174 96q-45 36 -45 84q0 100 106 170q100 66 226 66q123 0 195 -58q65 -51 65 -127q0 -46 -27 -79t-64 -33q-74 0 -74 59q0 22 13 38q13 17 32 17q5 0 5 -6q0 -19 18 -19q28 1 28 39q0 44 -42 75q-54 39 -157 39
q-94 0 -169 -59q-72 -56 -72 -119q0 -41 25 -66q49 10 112 10q41 0 78 -11q56 -16 56 -48q0 -54 -113 -54q-90 0 -157 49q-74 -21 -124 -75q-59 -62 -59 -145q0 -53 40 -93q37 -37 95 -49q27 95 112 163zM420 130q-75 -57 -90 -139q75 -13 169 45q91 56 91 108q0 36 -39 36
q-65 0 -131 -50zM517 809q-20 -9 -19 -9q-2 0 -2 3q0 12 36 33q38 23 69 23q25 0 59 -16q33 -17 52 -17q30 0 54 19q21 17 20 17q4 -2 4 -5q0 -13 -28 -42q-34 -36 -74 -36q-22 0 -61 19t-65 19q-24 0 -45 -8z" />
    <glyph glyph-name="uni1EBD" unicode="&#x1ebd;" horiz-adv-x="285" 
d="M113 55q80 0 178 101q49 50 82 100q3 5 10 -3q7 -9 7 -20q0 -13 -12 -31q-140 -202 -317 -202q-90 0 -90 81q0 86 89 185q92 104 184 104q56 0 56 -56q0 -54 -68 -100q-71 -48 -157 -44q-17 -36 -17 -64q0 -51 55 -51zM211 245q52 35 52 64q0 24 -25 24q-31 0 -78 -45
q-40 -39 -65 -81q59 0 116 38zM127 439q-20 -9 -19 -9q-2 0 -2 3q0 12 36 33q38 23 69 23q25 0 59 -16q33 -17 52 -17q30 0 54 19q21 17 20 17q4 -2 4 -5q0 -13 -28 -42q-34 -36 -74 -36q-22 0 -61 19t-65 19q-24 0 -45 -8z" />
    <glyph glyph-name="uni1EBE" unicode="&#x1ebe;" horiz-adv-x="723" 
d="M386 165q84 66 171 66q35 0 58 -18q27 -20 27 -57q0 -80 -88 -149q-93 -72 -216 -72h-13q-4 -48 23 -73q20 -19 46 -19q41 0 41 26q0 15 -9 21q-10 7 -10 6q0 6 10 14q11 10 25 11q19 2 36 -9q22 -14 22 -41q0 -31 -28 -57q-32 -29 -79 -29q-61 0 -100 41q-43 45 -44 123
q-96 5 -161 49q-71 49 -71 129q0 91 83 174q79 78 174 96q-45 36 -45 84q0 100 106 170q100 66 226 66q123 0 195 -58q65 -51 65 -127q0 -46 -27 -79t-64 -33q-74 0 -74 59q0 22 13 38q13 17 32 17q5 0 5 -6q0 -19 18 -19q28 1 28 39q0 44 -42 75q-54 39 -157 39
q-94 0 -169 -59q-72 -56 -72 -119q0 -41 25 -66q49 10 112 10q41 0 78 -11q56 -16 56 -48q0 -54 -113 -54q-90 0 -157 49q-74 -21 -124 -75q-59 -62 -59 -145q0 -53 40 -93q37 -37 95 -49q27 95 112 163zM420 130q-75 -57 -90 -139q75 -13 169 45q91 56 91 108q0 36 -39 36
q-65 0 -131 -50zM522 738q-10 0 -10 9q0 -8 99 58q90 61 80 61q-12 0 44 -91q26 -40 26 -39q0 -3 -4 -3q-73 2 -94 66q-87 -61 -141 -61zM933 937q0 -37 -66 -72q-58 -30 -98 -30q-13 0 -13 10l31 19q34 21 55 42q57 57 64 57q27 0 27 -26z" />
    <glyph glyph-name="uni1EBF" unicode="&#x1ebf;" horiz-adv-x="285" 
d="M113 55q80 0 178 101q49 50 82 100q3 5 10 -3q7 -9 7 -20q0 -13 -12 -31q-140 -202 -317 -202q-90 0 -90 81q0 86 89 185q92 104 184 104q56 0 56 -56q0 -54 -68 -100q-71 -48 -157 -44q-17 -36 -17 -64q0 -51 55 -51zM211 245q52 35 52 64q0 24 -25 24q-31 0 -78 -45
q-40 -39 -65 -81q59 0 116 38zM123 397q-10 0 -10 9q0 -8 99 58q90 61 80 61q-12 0 44 -91q26 -40 26 -39q0 -3 -4 -3q-73 2 -94 66q-87 -61 -141 -61zM521 594q0 -37 -66 -72q-58 -30 -98 -30q-13 0 -13 10l31 19q34 21 55 42q57 57 64 57q27 0 27 -26z" />
    <glyph glyph-name="uni1EC0" unicode="&#x1ec0;" horiz-adv-x="723" 
d="M386 165q84 66 171 66q35 0 58 -18q27 -20 27 -57q0 -80 -88 -149q-93 -72 -216 -72h-13q-4 -48 23 -73q20 -19 46 -19q41 0 41 26q0 15 -9 21q-10 7 -10 6q0 6 10 14q11 10 25 11q19 2 36 -9q22 -14 22 -41q0 -31 -28 -57q-32 -29 -79 -29q-61 0 -100 41q-43 45 -44 123
q-96 5 -161 49q-71 49 -71 129q0 91 83 174q79 78 174 96q-45 36 -45 84q0 100 106 170q100 66 226 66q123 0 195 -58q65 -51 65 -127q0 -46 -27 -79t-64 -33q-74 0 -74 59q0 22 13 38q13 17 32 17q5 0 5 -6q0 -19 18 -19q28 1 28 39q0 44 -42 75q-54 39 -157 39
q-94 0 -169 -59q-72 -56 -72 -119q0 -41 25 -66q49 10 112 10q41 0 78 -11q56 -16 56 -48q0 -54 -113 -54q-90 0 -157 49q-74 -21 -124 -75q-59 -62 -59 -145q0 -53 40 -93q37 -37 95 -49q27 95 112 163zM420 130q-75 -57 -90 -139q75 -13 169 45q91 56 91 108q0 36 -39 36
q-65 0 -131 -50zM522 738q-10 0 -10 9q0 -8 99 58q90 61 80 61q-12 0 44 -91q26 -40 26 -39q0 -3 -4 -3q-73 2 -94 66q-87 -61 -141 -61zM739 976q-1 0 27 -56q10 -20 30 -47l18 -24q0 -7 -9 -7q-22 0 -68 41q-51 45 -51 82q0 29 25 29q16 0 28 -18z" />
    <glyph glyph-name="uni1EC1" unicode="&#x1ec1;" horiz-adv-x="285" 
d="M113 55q80 0 178 101q49 50 82 100q3 5 10 -3q7 -9 7 -20q0 -13 -12 -31q-140 -202 -317 -202q-90 0 -90 81q0 86 89 185q92 104 184 104q56 0 56 -56q0 -54 -68 -100q-71 -48 -157 -44q-17 -36 -17 -64q0 -51 55 -51zM211 245q52 35 52 64q0 24 -25 24q-31 0 -78 -45
q-40 -39 -65 -81q59 0 116 38zM121 397q-10 0 -10 9q0 -8 99 58q90 61 80 61q-12 0 44 -91q26 -40 26 -39q0 -3 -4 -3q-73 2 -94 66q-87 -61 -141 -61zM312 648q-1 0 27 -56q10 -20 30 -47l18 -24q0 -7 -9 -7q-22 0 -68 41q-51 45 -51 82q0 29 25 29q16 0 28 -18z" />
    <glyph glyph-name="uni1EC2" unicode="&#x1ec2;" horiz-adv-x="723" 
d="M386 165q84 66 171 66q35 0 58 -18q27 -20 27 -57q0 -80 -88 -149q-93 -72 -216 -72h-13q-4 -48 23 -73q20 -19 46 -19q41 0 41 26q0 15 -9 21q-10 7 -10 6q0 6 10 14q11 10 25 11q19 2 36 -9q22 -14 22 -41q0 -31 -28 -57q-32 -29 -79 -29q-61 0 -100 41q-43 45 -44 123
q-96 5 -161 49q-71 49 -71 129q0 91 83 174q79 78 174 96q-45 36 -45 84q0 100 106 170q100 66 226 66q123 0 195 -58q65 -51 65 -127q0 -46 -27 -79t-64 -33q-74 0 -74 59q0 22 13 38q13 17 32 17q5 0 5 -6q0 -19 18 -19q28 1 28 39q0 44 -42 75q-54 39 -157 39
q-94 0 -169 -59q-72 -56 -72 -119q0 -41 25 -66q49 10 112 10q41 0 78 -11q56 -16 56 -48q0 -54 -113 -54q-90 0 -157 49q-74 -21 -124 -75q-59 -62 -59 -145q0 -53 40 -93q37 -37 95 -49q27 95 112 163zM420 130q-75 -57 -90 -139q75 -13 169 45q91 56 91 108q0 36 -39 36
q-65 0 -131 -50zM522 738q-10 0 -10 9q0 -8 99 58q90 61 80 61q-12 0 44 -91q26 -40 26 -39q0 -3 -4 -3q-73 2 -94 66q-87 -61 -141 -61zM835 948q8 4 29 4q44 0 44 -36q0 -29 -42 -60q-39 -28 -73 -28q-23 0 -29 15q-1 3 -1 6q0 8 10 5h8q24 0 49 15t25 36q0 16 -17 16
q-6 0 -17 -5q-13 -6 -17 -6q-13 0 -13 9q0 2 1 3q19 16 31 21z" />
    <glyph glyph-name="uni1EC3" unicode="&#x1ec3;" horiz-adv-x="285" 
d="M113 55q80 0 178 101q49 50 82 100q3 5 10 -3q7 -9 7 -20q0 -13 -12 -31q-140 -202 -317 -202q-90 0 -90 81q0 86 89 185q92 104 184 104q56 0 56 -56q0 -54 -68 -100q-71 -48 -157 -44q-17 -36 -17 -64q0 -51 55 -51zM211 245q52 35 52 64q0 24 -25 24q-31 0 -78 -45
q-40 -39 -65 -81q59 0 116 38zM116 394q-10 0 -10 9q0 -8 99 58q90 61 80 61q-12 0 44 -91q26 -40 26 -39q0 -3 -4 -3q-73 2 -94 66q-87 -61 -141 -61zM413 589q8 4 29 4q44 0 44 -36q0 -29 -42 -60q-39 -28 -73 -28q-23 0 -29 15q-1 3 -1 6q0 8 10 5h8q24 0 49 15t25 36
q0 16 -17 16q-6 0 -17 -5q-13 -6 -17 -6q-13 0 -13 9q0 2 1 3q19 16 31 21z" />
    <glyph glyph-name="uni1EC4" unicode="&#x1ec4;" horiz-adv-x="723" 
d="M386 165q84 66 171 66q35 0 58 -18q27 -20 27 -57q0 -80 -88 -149q-93 -72 -216 -72h-13q-4 -48 23 -73q20 -19 46 -19q41 0 41 26q0 15 -9 21q-10 7 -10 6q0 6 10 14q11 10 25 11q19 2 36 -9q22 -14 22 -41q0 -31 -28 -57q-32 -29 -79 -29q-61 0 -100 41q-43 45 -44 123
q-96 5 -161 49q-71 49 -71 129q0 91 83 174q79 78 174 96q-45 36 -45 84q0 100 106 170q100 66 226 66q123 0 195 -58q65 -51 65 -127q0 -46 -27 -79t-64 -33q-74 0 -74 59q0 22 13 38q13 17 32 17q5 0 5 -6q0 -19 18 -19q28 1 28 39q0 44 -42 75q-54 39 -157 39
q-94 0 -169 -59q-72 -56 -72 -119q0 -41 25 -66q49 10 112 10q41 0 78 -11q56 -16 56 -48q0 -54 -113 -54q-90 0 -157 49q-74 -21 -124 -75q-59 -62 -59 -145q0 -53 40 -93q37 -37 95 -49q27 95 112 163zM420 130q-75 -57 -90 -139q75 -13 169 45q91 56 91 108q0 36 -39 36
q-65 0 -131 -50zM522 738q-10 0 -10 9q0 -8 99 58q90 61 80 61q-12 0 44 -91q26 -40 26 -39q0 -3 -4 -3q-73 2 -94 66q-87 -61 -141 -61zM679 904q-20 -9 -19 -9q-2 0 -2 3q0 12 36 33q38 23 69 23q25 0 59 -16q33 -17 52 -17q30 0 54 19q21 17 20 17q4 -2 4 -5
q0 -13 -28 -42q-34 -36 -74 -36q-22 0 -61 19t-65 19q-24 0 -45 -8z" />
    <glyph glyph-name="uni1EC5" unicode="&#x1ec5;" horiz-adv-x="285" 
d="M113 55q80 0 178 101q49 50 82 100q3 5 10 -3q7 -9 7 -20q0 -13 -12 -31q-140 -202 -317 -202q-90 0 -90 81q0 86 89 185q92 104 184 104q56 0 56 -56q0 -54 -68 -100q-71 -48 -157 -44q-17 -36 -17 -64q0 -51 55 -51zM211 245q52 35 52 64q0 24 -25 24q-31 0 -78 -45
q-40 -39 -65 -81q59 0 116 38zM125 397q-10 0 -10 9q0 -8 99 58q90 61 80 61q-12 0 44 -91q26 -40 26 -39q0 -3 -4 -3q-73 2 -94 66q-87 -61 -141 -61zM261 576q-20 -9 -19 -9q-2 0 -2 3q0 12 36 33q38 23 69 23q25 0 59 -16q33 -17 52 -17q30 0 54 19q21 17 20 17
q4 -2 4 -5q0 -13 -28 -42q-34 -36 -74 -36q-22 0 -61 19t-65 19q-24 0 -45 -8z" />
    <glyph glyph-name="uni1EC6" unicode="&#x1ec6;" horiz-adv-x="723" 
d="M386 165q84 66 171 66q35 0 58 -18q27 -20 27 -57q0 -80 -88 -149q-93 -72 -216 -72h-13q-4 -48 23 -73q20 -19 46 -19q41 0 41 26q0 15 -9 21q-10 7 -10 6q0 6 10 14q11 10 25 11q19 2 36 -9q22 -14 22 -41q0 -31 -28 -57q-32 -29 -79 -29q-61 0 -100 41q-43 45 -44 123
q-96 5 -161 49q-71 49 -71 129q0 91 83 174q79 78 174 96q-45 36 -45 84q0 100 106 170q100 66 226 66q123 0 195 -58q65 -51 65 -127q0 -46 -27 -79t-64 -33q-74 0 -74 59q0 22 13 38q13 17 32 17q5 0 5 -6q0 -19 18 -19q28 1 28 39q0 44 -42 75q-54 39 -157 39
q-94 0 -169 -59q-72 -56 -72 -119q0 -41 25 -66q49 10 112 10q41 0 78 -11q56 -16 56 -48q0 -54 -113 -54q-90 0 -157 49q-74 -21 -124 -75q-59 -62 -59 -145q0 -53 40 -93q37 -37 95 -49q27 95 112 163zM420 130q-75 -57 -90 -139q75 -13 169 45q91 56 91 108q0 36 -39 36
q-65 0 -131 -50zM522 738q-10 0 -10 9q0 -8 99 58q90 61 80 61q-12 0 44 -91q26 -40 26 -39q0 -3 -4 -3q-73 2 -94 66q-87 -61 -141 -61zM154 -154q-18 -21 -40 -21q-29 0 -29 27q0 24 18 43q19 19 43 19q25 0 25 -27q0 -22 -17 -41z" />
    <glyph glyph-name="uni1EC7" unicode="&#x1ec7;" horiz-adv-x="285" 
d="M113 55q80 0 178 101q49 50 82 100q3 5 10 -3q7 -9 7 -20q0 -13 -12 -31q-140 -202 -317 -202q-90 0 -90 81q0 86 89 185q92 104 184 104q56 0 56 -56q0 -54 -68 -100q-71 -48 -157 -44q-17 -36 -17 -64q0 -51 55 -51zM211 245q52 35 52 64q0 24 -25 24q-31 0 -78 -45
q-40 -39 -65 -81q59 0 116 38zM125 390q-10 0 -10 9q0 -8 99 58q90 61 80 61q-12 0 44 -91q26 -40 26 -39q0 -3 -4 -3q-73 2 -94 66q-87 -61 -141 -61zM21 -125q-18 -21 -40 -21q-29 0 -29 27q0 24 18 43q19 19 43 19q25 0 25 -27q0 -22 -17 -41z" />
    <glyph glyph-name="uni1EC8" unicode="&#x1ec8;" horiz-adv-x="600" 
d="M389 123q20 27 134 253q73 142 204 240q1 1 1 7q-22 -13 -70 -13q-30 0 -85 16t-86 16q-110 0 -176 -83q-54 -68 -54 -145q0 -37 18 -62q18 -27 45 -27q5 0 3 6q-10 16 -10 32q0 21 15 35q14 14 35 14q20 0 35 -17t15 -42q0 -31 -22 -53q-26 -26 -70 -26q-48 0 -79 37
q-36 41 -36 117q0 105 95 195q94 89 199 89q33 0 113 -22t104 -22q35 1 68 23q33 23 29 23q14 0 14 -36q0 -13 -41 -57q-56 -61 -84 -102q-22 -32 -79 -150q-60 -122 -102 -188q-148 -230 -344 -230q-56 0 -98 25q-51 30 -51 86q0 35 26 60q24 23 50 23q67 0 67 -57
q0 -29 -26 -41q-23 -11 -35 2q8 7 6 18q-2 12 -13 12q-21 0 -21 -22q0 -55 91 -55q128 0 215 121zM899 868q8 4 29 4q44 0 44 -36q0 -29 -42 -60q-39 -28 -73 -28q-23 0 -29 15q-1 3 -1 6q0 8 10 5h8q24 0 49 15t25 36q0 16 -17 16q-6 0 -17 -5q-13 -6 -17 -6q-13 0 -13 9
q0 2 1 3q19 16 31 21z" />
    <glyph glyph-name="uni1EC9" unicode="&#x1ec9;" horiz-adv-x="222" 
d="M304 240q3 -22 -33 -70q-129 -169 -247 -169q-28 0 -47 14q-21 16 -21 44q0 22 15 48q116 200 116 201q7 14 7 24q0 9 -7 15t-7 7q0 4 5 7q19 12 47 12q49 0 49 -35q0 -15 -12 -36l-53 -91q-44 -75 -47 -82q3 9 -18 -33q-5 -9 -5 -18q0 -19 23 -19q76 0 210 180
q15 22 16 22q5 0 9 -21zM215 546q8 4 29 4q44 0 44 -36q0 -29 -42 -60q-39 -28 -73 -28q-23 0 -29 15q-1 3 -1 6q0 8 10 5h8q24 0 49 15t25 36q0 16 -17 16q-6 0 -17 -5q-13 -6 -17 -6q-13 0 -13 9q0 2 1 3q19 16 31 21z" />
    <glyph glyph-name="uni1ECA" unicode="&#x1eca;" horiz-adv-x="600" 
d="M389 123q20 27 134 253q73 142 204 240q1 1 1 7q-22 -13 -70 -13q-30 0 -85 16t-86 16q-110 0 -176 -83q-54 -68 -54 -145q0 -37 18 -62q18 -27 45 -27q5 0 3 6q-10 16 -10 32q0 21 15 35q14 14 35 14q20 0 35 -17t15 -42q0 -31 -22 -53q-26 -26 -70 -26q-48 0 -79 37
q-36 41 -36 117q0 105 95 195q94 89 199 89q33 0 113 -22t104 -22q35 1 68 23q33 23 29 23q14 0 14 -36q0 -13 -41 -57q-56 -61 -84 -102q-22 -32 -79 -150q-60 -122 -102 -188q-148 -230 -344 -230q-56 0 -98 25q-51 30 -51 86q0 35 26 60q24 23 50 23q67 0 67 -57
q0 -29 -26 -41q-23 -11 -35 2q8 7 6 18q-2 12 -13 12q-21 0 -21 -22q0 -55 91 -55q128 0 215 121zM212 -154q-18 -21 -40 -21q-29 0 -29 27q0 24 18 43q19 19 43 19q25 0 25 -27q0 -22 -17 -41z" />
    <glyph glyph-name="uni1ECB" unicode="&#x1ecb;" horiz-adv-x="226" 
d="M299 255q9 0 9 -22q0 -17 -34 -63q-129 -169 -247 -169q-28 0 -47 14q-21 16 -21 44q0 22 15 48q109 188 110 191q7 14 7 24q0 9 -7 15t-7 7q0 4 5 7q19 12 47 12q47 0 47 -38q0 -16 -10 -33q-7 -13 -57 -97q-34 -57 -55 -99q-5 -9 -5 -18q0 -19 23 -19q76 0 210 180
q11 16 17 16zM252 450q-21 -22 -46 -22q-34 0 -34 31q0 26 22 48q21 22 48 22q30 0 30 -33q0 -25 -20 -46zM3 -125q-18 -21 -40 -21q-29 0 -29 27q0 24 18 43q19 19 43 19q25 0 25 -27q0 -22 -17 -41z" />
    <glyph glyph-name="uni1ECC" unicode="&#x1ecc;" horiz-adv-x="695" 
d="M246 743q51 42 135 42q118 0 176 -96q21 12 63 12q59 0 96 -44q38 -44 38 -119q0 -224 -164 -404q-172 -191 -411 -191q-178 0 -178 176q0 110 106 254q97 132 204 195q27 15 55 15q11 0 11 -4q0 -3 -7 -9q-94 -77 -179 -209q-97 -149 -97 -248q0 -115 102 -115
q161 0 328 184q167 185 167 368q0 44 -18 72q-20 30 -53 30q-15 0 -31 -5t-11 -5q8 -19 8 -53q0 -101 -58 -192q-63 -97 -144 -97q-27 0 -44 20q-19 21 -19 56q0 73 55 156t136 132q-42 70 -132 70q-43 0 -73 -21q-26 -19 -26 -40q0 -27 26 -27q3 0 6 2l5 2q7 0 7 -15
q0 -17 -15 -29q-16 -14 -41 -14q-28 0 -48 18q-20 19 -20 47q0 49 45 86zM529 616q-67 -44 -114 -120q-43 -70 -43 -119q0 -25 21 -25q48 0 94 75q46 74 46 149q0 23 -4 40zM157 -160q-18 -21 -40 -21q-29 0 -29 27q0 24 18 43q19 19 43 19q25 0 25 -27q0 -22 -17 -41z" />
    <glyph glyph-name="uni1ECD" unicode="&#x1ecd;" horiz-adv-x="332" 
d="M158 150q0 21 15 37q15 15 35 15q24 0 37 -12q44 59 44 109q0 36 -37 36q-51 0 -118 -87q-68 -86 -68 -153q0 -42 41 -42q34 0 80 52q-29 17 -29 45zM64 2q-81 0 -81 81q0 86 88 184q92 103 185 103q72 0 72 -62q0 -58 -67 -163q54 -14 139 106q3 4 7 4q8 0 8 -27
q0 -16 -12 -32q-82 -106 -179 -101q-82 -93 -160 -93zM28 -125q-18 -21 -40 -21q-29 0 -29 27q0 24 18 43q19 19 43 19q25 0 25 -27q0 -22 -17 -41z" />
    <glyph glyph-name="uni1ECE" unicode="&#x1ece;" horiz-adv-x="695" 
d="M246 743q51 42 135 42q118 0 176 -96q21 12 63 12q59 0 96 -44q38 -44 38 -119q0 -224 -164 -404q-172 -191 -411 -191q-178 0 -178 176q0 110 106 254q97 132 204 195q27 15 55 15q11 0 11 -4q0 -3 -7 -9q-94 -77 -179 -209q-97 -149 -97 -248q0 -115 102 -115
q161 0 328 184q167 185 167 368q0 44 -18 72q-20 30 -53 30q-15 0 -31 -5t-11 -5q8 -19 8 -53q0 -101 -58 -192q-63 -97 -144 -97q-27 0 -44 20q-19 21 -19 56q0 73 55 156t136 132q-42 70 -132 70q-43 0 -73 -21q-26 -19 -26 -40q0 -27 26 -27q3 0 6 2l5 2q7 0 7 -15
q0 -17 -15 -29q-16 -14 -41 -14q-28 0 -48 18q-20 19 -20 47q0 49 45 86zM529 616q-67 -44 -114 -120q-43 -70 -43 -119q0 -25 21 -25q48 0 94 75q46 74 46 149q0 23 -4 40zM745 870q8 4 29 4q44 0 44 -36q0 -29 -42 -60q-39 -28 -73 -28q-23 0 -29 15q-1 3 -1 6q0 8 10 5h8
q24 0 49 15t25 36q0 16 -17 16q-6 0 -17 -5q-13 -6 -17 -6q-13 0 -13 9q0 2 1 3q19 16 31 21z" />
    <glyph glyph-name="uni1ECF" unicode="&#x1ecf;" horiz-adv-x="332" 
d="M158 150q0 21 15 37q15 15 35 15q24 0 37 -12q44 59 44 109q0 36 -37 36q-51 0 -118 -87q-68 -86 -68 -153q0 -42 41 -42q34 0 80 52q-29 17 -29 45zM64 2q-81 0 -81 81q0 86 88 184q92 103 185 103q72 0 72 -62q0 -58 -67 -163q54 -14 139 106q3 4 7 4q8 0 8 -27
q0 -16 -12 -32q-82 -106 -179 -101q-82 -93 -160 -93zM329 539q8 4 29 4q44 0 44 -36q0 -29 -42 -60q-39 -28 -73 -28q-23 0 -29 15q-1 3 -1 6q0 8 10 5h8q24 0 49 15t25 36q0 16 -17 16q-6 0 -17 -5q-13 -6 -17 -6q-13 0 -13 9q0 2 1 3q19 16 31 21z" />
    <glyph glyph-name="uni1ED0" unicode="&#x1ed0;" horiz-adv-x="695" 
d="M245 743q51 42 135 42q118 0 176 -96q21 12 63 12q59 0 96 -44q38 -44 38 -119q0 -224 -164 -404q-172 -191 -411 -191q-178 0 -178 176q0 110 106 254q97 132 204 195q27 15 55 15q11 0 11 -4q0 -3 -7 -9q-94 -77 -179 -209q-97 -149 -97 -248q0 -115 102 -115
q161 0 328 184q167 185 167 368q0 44 -18 72q-20 30 -53 30q-15 0 -31 -5t-11 -5q8 -19 8 -53q0 -101 -58 -192q-63 -97 -144 -97q-27 0 -44 20q-19 21 -19 56q0 73 55 156t136 132q-42 70 -132 70q-43 0 -73 -21q-26 -19 -26 -40q0 -27 26 -27q3 0 6 2l5 2q7 0 7 -15
q0 -17 -15 -29q-16 -14 -41 -14q-28 0 -48 18q-20 19 -20 47q0 49 45 86zM528 616q-67 -44 -114 -120q-43 -70 -43 -119q0 -25 21 -25q48 0 94 75q46 74 46 149q0 23 -4 40zM594 739q-10 0 -10 9q0 -8 99 58q90 61 80 61q-12 0 44 -91q26 -40 26 -39q0 -3 -4 -3
q-73 2 -94 66q-87 -61 -141 -61zM1016 927q0 -37 -66 -72q-58 -30 -98 -30q-13 0 -13 10l31 19q34 21 55 42q57 57 64 57q27 0 27 -26z" />
    <glyph glyph-name="uni1ED1" unicode="&#x1ed1;" horiz-adv-x="332" 
d="M158 150q0 21 15 37q15 15 35 15q24 0 37 -12q44 59 44 109q0 36 -37 36q-51 0 -118 -87q-68 -86 -68 -153q0 -42 41 -42q34 0 80 52q-29 17 -29 45zM64 2q-81 0 -81 81q0 86 88 184q92 103 185 103q72 0 72 -62q0 -58 -67 -163q54 -14 139 106q3 4 7 4q8 0 8 -27
q0 -16 -12 -32q-82 -106 -179 -101q-82 -93 -160 -93zM156 397q-10 0 -10 9q0 -8 99 58q90 61 80 61q-12 0 44 -91q26 -40 26 -39q0 -3 -4 -3q-73 2 -94 66q-87 -61 -141 -61zM562 582q0 -37 -66 -72q-58 -30 -98 -30q-13 0 -13 10l31 19q34 21 55 42q57 57 64 57
q27 0 27 -26z" />
    <glyph glyph-name="uni1ED2" unicode="&#x1ed2;" horiz-adv-x="695" 
d="M245 743q51 42 135 42q118 0 176 -96q21 12 63 12q59 0 96 -44q38 -44 38 -119q0 -224 -164 -404q-172 -191 -411 -191q-178 0 -178 176q0 110 106 254q97 132 204 195q27 15 55 15q11 0 11 -4q0 -3 -7 -9q-94 -77 -179 -209q-97 -149 -97 -248q0 -115 102 -115
q161 0 328 184q167 185 167 368q0 44 -18 72q-20 30 -53 30q-15 0 -31 -5t-11 -5q8 -19 8 -53q0 -101 -58 -192q-63 -97 -144 -97q-27 0 -44 20q-19 21 -19 56q0 73 55 156t136 132q-42 70 -132 70q-43 0 -73 -21q-26 -19 -26 -40q0 -27 26 -27q3 0 6 2l5 2q7 0 7 -15
q0 -17 -15 -29q-16 -14 -41 -14q-28 0 -48 18q-20 19 -20 47q0 49 45 86zM528 616q-67 -44 -114 -120q-43 -70 -43 -119q0 -25 21 -25q48 0 94 75q46 74 46 149q0 23 -4 40zM594 739q-10 0 -10 9q0 -8 99 58q90 61 80 61q-12 0 44 -91q26 -40 26 -39q0 -3 -4 -3
q-73 2 -94 66q-87 -61 -141 -61zM816 976q-1 0 27 -56q10 -20 30 -47l18 -24q0 -7 -9 -7q-22 0 -68 41q-51 45 -51 82q0 29 25 29q16 0 28 -18z" />
    <glyph glyph-name="uni1ED3" unicode="&#x1ed3;" horiz-adv-x="332" 
d="M158 150q0 21 15 37q15 15 35 15q24 0 37 -12q44 59 44 109q0 36 -37 36q-51 0 -118 -87q-68 -86 -68 -153q0 -42 41 -42q34 0 80 52q-29 17 -29 45zM64 2q-81 0 -81 81q0 86 88 184q92 103 185 103q72 0 72 -62q0 -58 -67 -163q54 -14 139 106q3 4 7 4q8 0 8 -27
q0 -16 -12 -32q-82 -106 -179 -101q-82 -93 -160 -93zM139 390q-10 0 -10 9q0 -8 99 58q90 61 80 61q-12 0 44 -91q26 -40 26 -39q0 -3 -4 -3q-73 2 -94 66q-87 -61 -141 -61zM332 642q-1 0 27 -56q10 -20 30 -47l18 -24q0 -7 -9 -7q-22 0 -68 41q-51 45 -51 82q0 29 25 29
q16 0 28 -18z" />
    <glyph glyph-name="uni1ED4" unicode="&#x1ed4;" horiz-adv-x="695" 
d="M245 743q51 42 135 42q118 0 176 -96q21 12 63 12q59 0 96 -44q38 -44 38 -119q0 -224 -164 -404q-172 -191 -411 -191q-178 0 -178 176q0 110 106 254q97 132 204 195q27 15 55 15q11 0 11 -4q0 -3 -7 -9q-94 -77 -179 -209q-97 -149 -97 -248q0 -115 102 -115
q161 0 328 184q167 185 167 368q0 44 -18 72q-20 30 -53 30q-15 0 -31 -5t-11 -5q8 -19 8 -53q0 -101 -58 -192q-63 -97 -144 -97q-27 0 -44 20q-19 21 -19 56q0 73 55 156t136 132q-42 70 -132 70q-43 0 -73 -21q-26 -19 -26 -40q0 -27 26 -27q3 0 6 2l5 2q7 0 7 -15
q0 -17 -15 -29q-16 -14 -41 -14q-28 0 -48 18q-20 19 -20 47q0 49 45 86zM528 616q-67 -44 -114 -120q-43 -70 -43 -119q0 -25 21 -25q48 0 94 75q46 74 46 149q0 23 -4 40zM594 739q-10 0 -10 9q0 -8 99 58q90 61 80 61q-12 0 44 -91q26 -40 26 -39q0 -3 -4 -3
q-73 2 -94 66q-87 -61 -141 -61zM900 948q8 4 29 4q44 0 44 -36q0 -29 -42 -60q-39 -28 -73 -28q-23 0 -29 15q-1 3 -1 6q0 8 10 5h8q24 0 49 15t25 36q0 16 -17 16q-6 0 -17 -5q-13 -6 -17 -6q-13 0 -13 9q0 2 1 3q19 16 31 21z" />
    <glyph glyph-name="uni1ED5" unicode="&#x1ed5;" horiz-adv-x="332" 
d="M158 150q0 21 15 37q15 15 35 15q24 0 37 -12q44 59 44 109q0 36 -37 36q-51 0 -118 -87q-68 -86 -68 -153q0 -42 41 -42q34 0 80 52q-29 17 -29 45zM64 2q-81 0 -81 81q0 86 88 184q92 103 185 103q72 0 72 -62q0 -58 -67 -163q54 -14 139 106q3 4 7 4q8 0 8 -27
q0 -16 -12 -32q-82 -106 -179 -101q-82 -93 -160 -93zM159 387q-10 0 -10 9q0 -8 99 58q90 61 80 61q-12 0 44 -91q26 -40 26 -39q0 -3 -4 -3q-73 2 -94 66q-87 -61 -141 -61zM451 587q8 4 29 4q44 0 44 -36q0 -29 -42 -60q-39 -28 -73 -28q-23 0 -29 15q-1 3 -1 6q0 8 10 5
h8q24 0 49 15t25 36q0 16 -17 16q-6 0 -17 -5q-13 -6 -17 -6q-13 0 -13 9q0 2 1 3q19 16 31 21z" />
    <glyph glyph-name="uni1ED6" unicode="&#x1ed6;" horiz-adv-x="695" 
d="M245 743q51 42 135 42q118 0 176 -96q21 12 63 12q59 0 96 -44q38 -44 38 -119q0 -224 -164 -404q-172 -191 -411 -191q-178 0 -178 176q0 110 106 254q97 132 204 195q27 15 55 15q11 0 11 -4q0 -3 -7 -9q-94 -77 -179 -209q-97 -149 -97 -248q0 -115 102 -115
q161 0 328 184q167 185 167 368q0 44 -18 72q-20 30 -53 30q-15 0 -31 -5t-11 -5q8 -19 8 -53q0 -101 -58 -192q-63 -97 -144 -97q-27 0 -44 20q-19 21 -19 56q0 73 55 156t136 132q-42 70 -132 70q-43 0 -73 -21q-26 -19 -26 -40q0 -27 26 -27q3 0 6 2l5 2q7 0 7 -15
q0 -17 -15 -29q-16 -14 -41 -14q-28 0 -48 18q-20 19 -20 47q0 49 45 86zM528 616q-67 -44 -114 -120q-43 -70 -43 -119q0 -25 21 -25q48 0 94 75q46 74 46 149q0 23 -4 40zM594 739q-10 0 -10 9q0 -8 99 58q90 61 80 61q-12 0 44 -91q26 -40 26 -39q0 -3 -4 -3
q-73 2 -94 66q-87 -61 -141 -61zM721 906q-20 -9 -19 -9q-2 0 -2 3q0 12 36 33q38 23 69 23q25 0 59 -16q33 -17 52 -17q30 0 54 19q21 17 20 17q4 -2 4 -5q0 -13 -28 -42q-34 -36 -74 -36q-22 0 -61 19t-65 19q-24 0 -45 -8z" />
    <glyph glyph-name="uni1ED7" unicode="&#x1ed7;" horiz-adv-x="332" 
d="M158 150q0 21 15 37q15 15 35 15q24 0 37 -12q44 59 44 109q0 36 -37 36q-51 0 -118 -87q-68 -86 -68 -153q0 -42 41 -42q34 0 80 52q-29 17 -29 45zM64 2q-81 0 -81 81q0 86 88 184q92 103 185 103q72 0 72 -62q0 -58 -67 -163q54 -14 139 106q3 4 7 4q8 0 8 -27
q0 -16 -12 -32q-82 -106 -179 -101q-82 -93 -160 -93zM161 390q-10 0 -10 9q0 -8 99 58q90 61 80 61q-12 0 44 -91q26 -40 26 -39q0 -3 -4 -3q-73 2 -94 66q-87 -61 -141 -61zM288 566q-20 -9 -19 -9q-2 0 -2 3q0 12 36 33q38 23 69 23q25 0 59 -16q33 -17 52 -17
q30 0 54 19q21 17 20 17q4 -2 4 -5q0 -13 -28 -42q-34 -36 -74 -36q-22 0 -61 19t-65 19q-24 0 -45 -8z" />
    <glyph glyph-name="uni1ED8" unicode="&#x1ed8;" horiz-adv-x="695" 
d="M245 743q51 42 135 42q118 0 176 -96q21 12 63 12q59 0 96 -44q38 -44 38 -119q0 -224 -164 -404q-172 -191 -411 -191q-178 0 -178 176q0 110 106 254q97 132 204 195q27 15 55 15q11 0 11 -4q0 -3 -7 -9q-94 -77 -179 -209q-97 -149 -97 -248q0 -115 102 -115
q161 0 328 184q167 185 167 368q0 44 -18 72q-20 30 -53 30q-15 0 -31 -5t-11 -5q8 -19 8 -53q0 -101 -58 -192q-63 -97 -144 -97q-27 0 -44 20q-19 21 -19 56q0 73 55 156t136 132q-42 70 -132 70q-43 0 -73 -21q-26 -19 -26 -40q0 -27 26 -27q3 0 6 2l5 2q7 0 7 -15
q0 -17 -15 -29q-16 -14 -41 -14q-28 0 -48 18q-20 19 -20 47q0 49 45 86zM528 616q-67 -44 -114 -120q-43 -70 -43 -119q0 -25 21 -25q48 0 94 75q46 74 46 149q0 23 -4 40zM594 739q-10 0 -10 9q0 -8 99 58q90 61 80 61q-12 0 44 -91q26 -40 26 -39q0 -3 -4 -3
q-73 2 -94 66q-87 -61 -141 -61zM112 -154q-18 -21 -40 -21q-29 0 -29 27q0 24 18 43q19 19 43 19q25 0 25 -27q0 -22 -17 -41z" />
    <glyph glyph-name="uni1ED9" unicode="&#x1ed9;" horiz-adv-x="332" 
d="M158 150q0 21 15 37q15 15 35 15q24 0 37 -12q44 59 44 109q0 36 -37 36q-51 0 -118 -87q-68 -86 -68 -153q0 -42 41 -42q34 0 80 52q-29 17 -29 45zM64 2q-81 0 -81 81q0 86 88 184q92 103 185 103q72 0 72 -62q0 -58 -67 -163q54 -14 139 106q3 4 7 4q8 0 8 -27
q0 -16 -12 -32q-82 -106 -179 -101q-82 -93 -160 -93zM163 395q-10 0 -10 9q0 -8 99 58q90 61 80 61q-12 0 44 -91q26 -40 26 -39q0 -3 -4 -3q-73 2 -94 66q-87 -61 -141 -61zM24 -125q-18 -21 -40 -21q-29 0 -29 27q0 24 18 43q19 19 43 19q25 0 25 -27q0 -22 -17 -41z" />
    <glyph glyph-name="uni1EDA" unicode="&#x1eda;" horiz-adv-x="695" 
d="M529 616q-67 -44 -114 -120q-43 -70 -43 -119q0 -25 21 -25q48 0 94 75q46 74 46 149q0 23 -4 40zM750 585q4 -22 4 -47q0 -224 -164 -404q-172 -191 -411 -191q-178 0 -178 176q0 110 106 254q97 132 204 195q27 15 55 15q11 0 11 -4q0 -3 -7 -9q-94 -77 -179 -209
q-97 -149 -97 -248q0 -115 102 -115q161 0 328 184q167 185 167 368q0 44 -18 72q-20 30 -53 30q-15 0 -31 -5t-11 -5q8 -19 8 -53q0 -101 -58 -192q-63 -97 -144 -97q-27 0 -44 20q-19 21 -19 56q0 73 55 156t136 132q-42 70 -132 70q-43 0 -73 -21q-26 -19 -26 -40
q0 -27 26 -27q3 0 6 2l5 2q7 0 7 -15q0 -17 -15 -29q-16 -14 -41 -14q-28 0 -48 18q-20 19 -20 47q0 49 45 86q51 42 135 42q118 0 176 -96q21 12 63 12q59 0 96 -44q5 -6 10 -13q12 0 28 -8q24 -13 35 -9q26 8 17 36q-11 36 -59 27q3 33 22 34q52 5 69 -52q9 -27 1 -57
q-9 -37 -39 -46q-20 -6 -43 11q-4 3 -7 5zM819 867q0 -37 -66 -72q-58 -30 -98 -30q-13 0 -13 10l31 19q34 21 55 42q57 57 64 57q27 0 27 -26z" />
    <glyph glyph-name="uni1EDB" unicode="&#x1edb;" horiz-adv-x="332" 
d="M158 150q0 21 15 37q15 15 35 15q24 0 37 -12q44 59 44 109q0 36 -37 36q-51 0 -118 -87q-68 -86 -68 -153q0 -42 41 -42q34 0 80 52q-29 17 -29 45zM327 297q-5 -56 -66 -152q54 -14 139 106q3 4 7 4q8 0 8 -27q0 -16 -12 -32q-82 -106 -179 -101q-82 -93 -160 -93
q-81 0 -81 81q0 86 88 184q92 103 185 103q29 0 46 -10q11 -1 24 -8q24 -13 35 -9q26 8 17 36q-11 36 -59 27q3 33 22 34q52 5 69 -52q9 -27 1 -57q-9 -37 -39 -46q-20 -6 -43 11q-1 1 -2 1zM376 538q0 -37 -66 -72q-58 -30 -98 -30q-13 0 -13 10l31 19q34 21 55 42
q57 57 64 57q27 0 27 -26z" />
    <glyph glyph-name="uni1EDC" unicode="&#x1edc;" horiz-adv-x="695" 
d="M529 616q-67 -44 -114 -120q-43 -70 -43 -119q0 -25 21 -25q48 0 94 75q46 74 46 149q0 23 -4 40zM750 585q4 -22 4 -47q0 -224 -164 -404q-172 -191 -411 -191q-178 0 -178 176q0 110 106 254q97 132 204 195q27 15 55 15q11 0 11 -4q0 -3 -7 -9q-94 -77 -179 -209
q-97 -149 -97 -248q0 -115 102 -115q161 0 328 184q167 185 167 368q0 44 -18 72q-20 30 -53 30q-15 0 -31 -5t-11 -5q8 -19 8 -53q0 -101 -58 -192q-63 -97 -144 -97q-27 0 -44 20q-19 21 -19 56q0 73 55 156t136 132q-42 70 -132 70q-43 0 -73 -21q-26 -19 -26 -40
q0 -27 26 -27q3 0 6 2l5 2q7 0 7 -15q0 -17 -15 -29q-16 -14 -41 -14q-28 0 -48 18q-20 19 -20 47q0 49 45 86q51 42 135 42q118 0 176 -96q21 12 63 12q59 0 96 -44q5 -6 10 -13q12 0 28 -8q24 -13 35 -9q26 8 17 36q-11 36 -59 27q3 33 22 34q52 5 69 -52q9 -27 1 -57
q-9 -37 -39 -46q-20 -6 -43 11q-4 3 -7 5zM633 891q-1 0 27 -56q10 -20 30 -47l18 -24q0 -7 -9 -7q-22 0 -68 41q-51 45 -51 82q0 29 25 29q16 0 28 -18z" />
    <glyph glyph-name="uni1EDD" unicode="&#x1edd;" horiz-adv-x="332" 
d="M158 150q0 21 15 37q15 15 35 15q24 0 37 -12q44 59 44 109q0 36 -37 36q-51 0 -118 -87q-68 -86 -68 -153q0 -42 41 -42q34 0 80 52q-29 17 -29 45zM327 297q-5 -56 -66 -152q54 -14 139 106q3 4 7 4q8 0 8 -27q0 -16 -12 -32q-82 -106 -179 -101q-82 -93 -160 -93
q-81 0 -81 81q0 86 88 184q92 103 185 103q29 0 46 -10q11 -1 24 -8q24 -13 35 -9q26 8 17 36q-11 36 -59 27q3 33 22 34q52 5 69 -52q9 -27 1 -57q-9 -37 -39 -46q-20 -6 -43 11q-1 1 -2 1zM217 554q-1 0 27 -56q10 -20 30 -47l18 -24q0 -7 -9 -7q-22 0 -68 41
q-51 45 -51 82q0 29 25 29q16 0 28 -18z" />
    <glyph glyph-name="uni1EDE" unicode="&#x1ede;" horiz-adv-x="695" 
d="M529 616q-67 -44 -114 -120q-43 -70 -43 -119q0 -25 21 -25q48 0 94 75q46 74 46 149q0 23 -4 40zM750 585q4 -22 4 -47q0 -224 -164 -404q-172 -191 -411 -191q-178 0 -178 176q0 110 106 254q97 132 204 195q27 15 55 15q11 0 11 -4q0 -3 -7 -9q-94 -77 -179 -209
q-97 -149 -97 -248q0 -115 102 -115q161 0 328 184q167 185 167 368q0 44 -18 72q-20 30 -53 30q-15 0 -31 -5t-11 -5q8 -19 8 -53q0 -101 -58 -192q-63 -97 -144 -97q-27 0 -44 20q-19 21 -19 56q0 73 55 156t136 132q-42 70 -132 70q-43 0 -73 -21q-26 -19 -26 -40
q0 -27 26 -27q3 0 6 2l5 2q7 0 7 -15q0 -17 -15 -29q-16 -14 -41 -14q-28 0 -48 18q-20 19 -20 47q0 49 45 86q51 42 135 42q118 0 176 -96q21 12 63 12q59 0 96 -44q5 -6 10 -13q12 0 28 -8q24 -13 35 -9q26 8 17 36q-11 36 -59 27q3 33 22 34q52 5 69 -52q9 -27 1 -57
q-9 -37 -39 -46q-20 -6 -43 11q-4 3 -7 5zM705 880q8 4 29 4q44 0 44 -36q0 -29 -42 -60q-39 -28 -73 -28q-23 0 -29 15q-1 3 -1 6q0 8 10 5h8q24 0 49 15t25 36q0 16 -17 16q-6 0 -17 -5q-13 -6 -17 -6q-13 0 -13 9q0 2 1 3q19 16 31 21z" />
    <glyph glyph-name="uni1EDF" unicode="&#x1edf;" horiz-adv-x="332" 
d="M158 150q0 21 15 37q15 15 35 15q24 0 37 -12q44 59 44 109q0 36 -37 36q-51 0 -118 -87q-68 -86 -68 -153q0 -42 41 -42q34 0 80 52q-29 17 -29 45zM327 297q-5 -56 -66 -152q54 -14 139 106q3 4 7 4q8 0 8 -27q0 -16 -12 -32q-82 -106 -179 -101q-82 -93 -160 -93
q-81 0 -81 81q0 86 88 184q92 103 185 103q29 0 46 -10q11 -1 24 -8q24 -13 35 -9q26 8 17 36q-11 36 -59 27q3 33 22 34q52 5 69 -52q9 -27 1 -57q-9 -37 -39 -46q-20 -6 -43 11q-1 1 -2 1zM272 566q8 4 29 4q44 0 44 -36q0 -29 -42 -60q-39 -28 -73 -28q-23 0 -29 15
q-1 3 -1 6q0 8 10 5h8q24 0 49 15t25 36q0 16 -17 16q-6 0 -17 -5q-13 -6 -17 -6q-13 0 -13 9q0 2 1 3q19 16 31 21z" />
    <glyph glyph-name="uni1EE0" unicode="&#x1ee0;" horiz-adv-x="695" 
d="M529 616q-67 -44 -114 -120q-43 -70 -43 -119q0 -25 21 -25q48 0 94 75q46 74 46 149q0 23 -4 40zM750 585q4 -22 4 -47q0 -224 -164 -404q-172 -191 -411 -191q-178 0 -178 176q0 110 106 254q97 132 204 195q27 15 55 15q11 0 11 -4q0 -3 -7 -9q-94 -77 -179 -209
q-97 -149 -97 -248q0 -115 102 -115q161 0 328 184q167 185 167 368q0 44 -18 72q-20 30 -53 30q-15 0 -31 -5t-11 -5q8 -19 8 -53q0 -101 -58 -192q-63 -97 -144 -97q-27 0 -44 20q-19 21 -19 56q0 73 55 156t136 132q-42 70 -132 70q-43 0 -73 -21q-26 -19 -26 -40
q0 -27 26 -27q3 0 6 2l5 2q7 0 7 -15q0 -17 -15 -29q-16 -14 -41 -14q-28 0 -48 18q-20 19 -20 47q0 49 45 86q51 42 135 42q118 0 176 -96q21 12 63 12q59 0 96 -44q5 -6 10 -13q12 0 28 -8q24 -13 35 -9q26 8 17 36q-11 36 -59 27q3 33 22 34q52 5 69 -52q9 -27 1 -57
q-9 -37 -39 -46q-20 -6 -43 11q-4 3 -7 5zM541 828q-20 -9 -19 -9q-2 0 -2 3q0 12 36 33q38 23 69 23q25 0 59 -16q33 -17 52 -17q30 0 54 19q21 17 20 17q4 -2 4 -5q0 -13 -28 -42q-34 -36 -74 -36q-22 0 -61 19t-65 19q-24 0 -45 -8z" />
    <glyph glyph-name="uni1EE1" unicode="&#x1ee1;" horiz-adv-x="332" 
d="M158 150q0 21 15 37q15 15 35 15q24 0 37 -12q44 59 44 109q0 36 -37 36q-51 0 -118 -87q-68 -86 -68 -153q0 -42 41 -42q34 0 80 52q-29 17 -29 45zM327 297q-5 -56 -66 -152q54 -14 139 106q3 4 7 4q8 0 8 -27q0 -16 -12 -32q-82 -106 -179 -101q-82 -93 -160 -93
q-81 0 -81 81q0 86 88 184q92 103 185 103q29 0 46 -10q11 -1 24 -8q24 -13 35 -9q26 8 17 36q-11 36 -59 27q3 33 22 34q52 5 69 -52q9 -27 1 -57q-9 -37 -39 -46q-20 -6 -43 11q-1 1 -2 1zM138 515q-20 -9 -19 -9q-2 0 -2 3q0 12 36 33q38 23 69 23q25 0 59 -16
q33 -17 52 -17q30 0 54 19q21 17 20 17q4 -2 4 -5q0 -13 -28 -42q-34 -36 -74 -36q-22 0 -61 19t-65 19q-24 0 -45 -8z" />
    <glyph glyph-name="uni1EE2" unicode="&#x1ee2;" horiz-adv-x="695" 
d="M529 616q-67 -44 -114 -120q-43 -70 -43 -119q0 -25 21 -25q48 0 94 75q46 74 46 149q0 23 -4 40zM750 585q4 -22 4 -47q0 -224 -164 -404q-172 -191 -411 -191q-178 0 -178 176q0 110 106 254q97 132 204 195q27 15 55 15q11 0 11 -4q0 -3 -7 -9q-94 -77 -179 -209
q-97 -149 -97 -248q0 -115 102 -115q161 0 328 184q167 185 167 368q0 44 -18 72q-20 30 -53 30q-15 0 -31 -5t-11 -5q8 -19 8 -53q0 -101 -58 -192q-63 -97 -144 -97q-27 0 -44 20q-19 21 -19 56q0 73 55 156t136 132q-42 70 -132 70q-43 0 -73 -21q-26 -19 -26 -40
q0 -27 26 -27q3 0 6 2l5 2q7 0 7 -15q0 -17 -15 -29q-16 -14 -41 -14q-28 0 -48 18q-20 19 -20 47q0 49 45 86q51 42 135 42q118 0 176 -96q21 12 63 12q59 0 96 -44q5 -6 10 -13q12 0 28 -8q24 -13 35 -9q26 8 17 36q-11 36 -59 27q3 33 22 34q52 5 69 -52q9 -27 1 -57
q-9 -37 -39 -46q-20 -6 -43 11q-4 3 -7 5zM112 -154q-18 -21 -40 -21q-29 0 -29 27q0 24 18 43q19 19 43 19q25 0 25 -27q0 -22 -17 -41z" />
    <glyph glyph-name="uni1EE3" unicode="&#x1ee3;" horiz-adv-x="332" 
d="M158 150q0 21 15 37q15 15 35 15q24 0 37 -12q44 59 44 109q0 36 -37 36q-51 0 -118 -87q-68 -86 -68 -153q0 -42 41 -42q34 0 80 52q-29 17 -29 45zM327 297q-5 -56 -66 -152q54 -14 139 106q3 4 7 4q8 0 8 -27q0 -16 -12 -32q-82 -106 -179 -101q-82 -93 -160 -93
q-81 0 -81 81q0 86 88 184q92 103 185 103q29 0 46 -10q11 -1 24 -8q24 -13 35 -9q26 8 17 36q-11 36 -59 27q3 33 22 34q52 5 69 -52q9 -27 1 -57q-9 -37 -39 -46q-20 -6 -43 11q-1 1 -2 1zM32 -125q-18 -21 -40 -21q-29 0 -29 27q0 24 18 43q19 19 43 19q25 0 25 -27
q0 -22 -17 -41z" />
    <glyph glyph-name="uni1EE4" unicode="&#x1ee4;" horiz-adv-x="879" 
d="M1097 647q7 -1 7 -6q0 -2 -14 -19q-106 -107 -225 -306q-136 -226 -136 -340q0 -60 34 -94q33 -31 85 -31q16 0 40 7l22 7q2 0 2 -2q0 -23 -35 -45q-37 -23 -84 -23q-70 0 -114 42q-46 42 -46 113q0 100 128 316q117 197 219 301q2 2 2 3q-1 7 -6 7l-5 -1
q-61 -31 -279 -348q-192 -278 -344 -278q-65 0 -103 37q-35 33 -35 81q0 123 172 303q193 200 206 239q-50 -24 -102 -24q-31 0 -97 32t-125 32q-80 0 -142 -51q-64 -54 -64 -128q0 -63 35 -88q2 -2 6 -2q5 0 3 6q-3 8 -3 16q0 18 15 32t36 14t36 -15q15 -16 15 -37
q0 -30 -22 -52q-23 -22 -53 -22q-47 0 -80 37q-39 42 -39 119q0 102 90 170q89 66 221 66q32 0 116 -35q85 -35 116 -35q44 0 74 30q31 29 29 29q13 0 13 -34q0 -68 -178 -283q-179 -214 -179 -295q0 -69 66 -69t155 98q47 53 163 217q109 152 171 216q96 98 176 98
q38 0 57 -5zM309 -154q-18 -21 -40 -21q-29 0 -29 27q0 24 18 43q19 19 43 19q25 0 25 -27q0 -22 -17 -41z" />
    <glyph glyph-name="uni1EE5" unicode="&#x1ee5;" 
d="M495 260q8 0 8 -28q0 -20 -32 -62q-130 -170 -248 -170q-68 0 -68 59q-71 -59 -130 -59q-68 0 -68 58q0 22 15 48l113 197q7 14 7 23t-7 16q-7 6 -7 7q0 4 5 7q19 12 46 12q50 0 50 -35q0 -15 -12 -36q-73 -120 -115 -202q-5 -9 -5 -18q0 -19 23 -19q74 0 173 176
q47 83 47 92t-7 16q-7 6 -7 7q0 4 5 7q19 12 46 12q50 0 50 -35q0 -15 -12 -36q-73 -120 -115 -202q-5 -9 -5 -18q0 -19 23 -19q80 0 210 180zM66 -125q-18 -21 -40 -21q-29 0 -29 27q0 24 18 43q19 19 43 19q25 0 25 -27q0 -22 -17 -41z" />
    <glyph glyph-name="uni1EE6" unicode="&#x1ee6;" horiz-adv-x="879" 
d="M1097 647q7 -1 7 -6q0 -2 -14 -19q-106 -107 -225 -306q-136 -226 -136 -340q0 -60 34 -94q33 -31 85 -31q16 0 40 7l22 7q2 0 2 -2q0 -23 -35 -45q-37 -23 -84 -23q-70 0 -114 42q-46 42 -46 113q0 100 128 316q117 197 219 301q2 2 2 3q-1 7 -6 7l-5 -1
q-61 -31 -279 -348q-192 -278 -344 -278q-65 0 -103 37q-35 33 -35 81q0 123 172 303q193 200 206 239q-50 -24 -102 -24q-31 0 -97 32t-125 32q-80 0 -142 -51q-64 -54 -64 -128q0 -63 35 -88q2 -2 6 -2q5 0 3 6q-3 8 -3 16q0 18 15 32t36 14t36 -15q15 -16 15 -37
q0 -30 -22 -52q-23 -22 -53 -22q-47 0 -80 37q-39 42 -39 119q0 102 90 170q89 66 221 66q32 0 116 -35q85 -35 116 -35q44 0 74 30q31 29 29 29q13 0 13 -34q0 -68 -178 -283q-179 -214 -179 -295q0 -69 66 -69t155 98q47 53 163 217q109 152 171 216q96 98 176 98
q38 0 57 -5zM902 843q8 4 29 4q44 0 44 -36q0 -29 -42 -60q-39 -28 -73 -28q-23 0 -29 15q-1 3 -1 6q0 8 10 5h8q24 0 49 15t25 36q0 16 -17 16q-6 0 -17 -5q-13 -6 -17 -6q-13 0 -13 9q0 2 1 3q19 16 31 21z" />
    <glyph glyph-name="uni1EE7" unicode="&#x1ee7;" 
d="M495 260q8 0 8 -28q0 -20 -32 -62q-130 -170 -248 -170q-68 0 -68 59q-71 -59 -130 -59q-68 0 -68 58q0 22 15 48l113 197q7 14 7 23t-7 16q-7 6 -7 7q0 4 5 7q19 12 46 12q50 0 50 -35q0 -15 -12 -36q-73 -120 -115 -202q-5 -9 -5 -18q0 -19 23 -19q74 0 173 176
q47 83 47 92t-7 16q-7 6 -7 7q0 4 5 7q19 12 46 12q50 0 50 -35q0 -15 -12 -36q-73 -120 -115 -202q-5 -9 -5 -18q0 -19 23 -19q80 0 210 180zM289 558q8 4 29 4q44 0 44 -36q0 -29 -42 -60q-39 -28 -73 -28q-23 0 -29 15q-1 3 -1 6q0 8 10 5h8q24 0 49 15t25 36
q0 16 -17 16q-6 0 -17 -5q-13 -6 -17 -6q-13 0 -13 9q0 2 1 3q19 16 31 21z" />
    </font>
</defs>
</svg>
